<svg width="17" height="20" viewBox="0 0 17 20" fill="none" xmlns="http://www.w3.org/2000/svg">
<path d="M13.8839 14.298L10.0516 18.4295C9.88401 18.6104 9.68499 18.7538 9.46593 18.8517C9.24687 18.9496 9.01206 19 8.77493 19C8.53779 19 8.30298 18.9496 8.08392 18.8517C7.86486 18.7538 7.66584 18.6104 7.49825 18.4295L3.66504 14.298C2.65455 13.2085 1.96642 11.8205 1.68764 10.3094C1.40887 8.79835 1.55198 7.23209 2.09889 5.80871C2.64579 4.38532 3.57192 3.16874 4.76016 2.3128C5.9484 1.45686 7.34539 1 8.77448 1C10.2036 1 11.6005 1.45686 12.7888 2.3128C13.977 3.16874 14.9032 4.38532 15.4501 5.80871C15.997 7.23209 16.1401 8.79835 15.8613 10.3094C15.5825 11.8205 14.8944 13.2085 13.8839 14.298Z" stroke="#9E9DA8" stroke-width="1.5" stroke-linecap="round" stroke-linejoin="round"/>
<path d="M11.4837 8.79229C11.4837 9.56703 11.1982 10.3101 10.6901 10.8579C10.1819 11.4057 9.4927 11.7135 8.77407 11.7135C8.05543 11.7135 7.36623 11.4057 6.85808 10.8579C6.34993 10.3101 6.06445 9.56703 6.06445 8.79229C6.06445 8.01754 6.34993 7.27452 6.85808 6.72669C7.36623 6.17886 8.05543 5.87109 8.77407 5.87109C9.4927 5.87109 10.1819 6.17886 10.6901 6.72669C11.1982 7.27452 11.4837 8.01754 11.4837 8.79229Z" stroke="#9E9DA8" stroke-width="1.5" stroke-linecap="round" stroke-linejoin="round"/>
</svg>
