<svg width="22" height="22" viewBox="0 0 22 22" fill="none" xmlns="http://www.w3.org/2000/svg">
<path d="M2.0625 3.4375H17.1875C17.3698 3.4375 17.5447 3.36507 17.6736 3.23614C17.8026 3.1072 17.875 2.93234 17.875 2.75C17.875 2.56766 17.8026 2.3928 17.6736 2.26386C17.5447 2.13493 17.3698 2.0625 17.1875 2.0625H2.0625C1.88016 2.0625 1.7053 2.13493 1.57636 2.26386C1.44743 2.3928 1.375 2.56766 1.375 2.75C1.375 2.93234 1.44743 3.1072 1.57636 3.23614C1.7053 3.36507 1.88016 3.4375 2.0625 3.4375Z" fill="black"/>
<path d="M17.1875 18.5625H2.0625C1.88016 18.5625 1.7053 18.6349 1.57636 18.7639C1.44743 18.8928 1.375 19.0677 1.375 19.25C1.375 19.4323 1.44743 19.6072 1.57636 19.7361C1.7053 19.8651 1.88016 19.9375 2.0625 19.9375H17.1875C17.3698 19.9375 17.5447 19.8651 17.6736 19.7361C17.8026 19.6072 17.875 19.4323 17.875 19.25C17.875 19.0677 17.8026 18.8928 17.6736 18.7639C17.5447 18.6349 17.3698 18.5625 17.1875 18.5625Z" fill="black"/>
<path d="M2.0625 7.5625H19.9375C20.1198 7.5625 20.2947 7.49007 20.4236 7.36114C20.5526 7.2322 20.625 7.05734 20.625 6.875C20.625 6.69266 20.5526 6.5178 20.4236 6.38886C20.2947 6.25993 20.1198 6.1875 19.9375 6.1875H2.0625C1.88016 6.1875 1.7053 6.25993 1.57636 6.38886C1.44743 6.5178 1.375 6.69266 1.375 6.875C1.375 7.05734 1.44743 7.2322 1.57636 7.36114C1.7053 7.49007 1.88016 7.5625 2.0625 7.5625Z" fill="black"/>
<path d="M2.0625 11.6875H14.4375C14.6198 11.6875 14.7947 11.6151 14.9236 11.4861C15.0526 11.3572 15.125 11.1823 15.125 11C15.125 10.8177 15.0526 10.6428 14.9236 10.5139C14.7947 10.3849 14.6198 10.3125 14.4375 10.3125H2.0625C1.88016 10.3125 1.7053 10.3849 1.57636 10.5139C1.44743 10.6428 1.375 10.8177 1.375 11C1.375 11.1823 1.44743 11.3572 1.57636 11.4861C1.7053 11.6151 1.88016 11.6875 2.0625 11.6875Z" fill="black"/>
<path d="M19.9375 14.4375H2.0625C1.88016 14.4375 1.7053 14.5099 1.57636 14.6389C1.44743 14.7678 1.375 14.9427 1.375 15.125C1.375 15.3073 1.44743 15.4822 1.57636 15.6111C1.7053 15.7401 1.88016 15.8125 2.0625 15.8125H19.9375C20.1198 15.8125 20.2947 15.7401 20.4236 15.6111C20.5526 15.4822 20.625 15.3073 20.625 15.125C20.625 14.9427 20.5526 14.7678 20.4236 14.6389C20.2947 14.5099 20.1198 14.4375 19.9375 14.4375Z" fill="black"/>
</svg>
