<svg width="25" height="21" viewBox="0 0 25 21" fill="none" xmlns="http://www.w3.org/2000/svg">
<path d="M24.1785 10.9135C24.0655 11.3716 23.7094 11.634 23.3895 11.634H6.0465C5.68393 11.634 5.40352 11.3495 5.3985 11.0041V8.985C5.3985 8.61771 5.67921 8.337 6.0465 8.337H23.538C23.892 8.337 24.1785 8.62091 24.1785 8.985V10.9135ZM1.398 3.891V3.89096L1.39065 3.89103C1.04358 3.89444 0.755057 3.61479 0.75 3.26114V1.242C0.75 1.08949 0.978383 0.75 1.398 0.75H18.8895C18.9575 0.75 19.0864 0.791185 19.2135 0.91886C19.341 1.04703 19.3815 1.1768 19.3815 1.242V3.2505C19.3815 3.43625 19.3073 3.60545 19.1947 3.72753C19.0767 3.85543 18.9578 3.891 18.897 3.891H1.398ZM0.759 16.7205H0.759055L0.758944 16.7114C0.758302 16.6585 0.789604 16.543 0.918855 16.4241C1.04207 16.3108 1.21348 16.236 1.3995 16.236H18.9C19.2598 16.236 19.5405 16.5167 19.5405 16.8765V18.885C19.5405 19.245 19.2586 19.5279 18.9032 19.533H1.48305C1.01853 19.4138 0.759 19.0605 0.759 18.7365V16.7205Z" stroke="#949391" stroke-width="1.5"/>
</svg>
