<svg width="26" height="26" viewBox="0 0 26 26" fill="none" xmlns="http://www.w3.org/2000/svg">
<g clip-path="url(#clip0_363_235)">
<path d="M24.3776 18.7759C26.8901 15.2508 26.506 10.4213 23.0743 7.27533C21.5064 5.83797 19.5075 4.94315 17.3482 4.69325C17.3347 4.6767 17.321 4.6603 17.3059 4.64461C15.4274 2.69334 12.7287 1.57422 9.90173 1.57422C4.52202 1.57422 0 5.58254 0 10.7148C0 12.5143 0.558949 14.2393 1.62073 15.729L0.137465 20.386C0.0442305 20.6787 0.135941 20.9987 0.369992 21.1976C0.604449 21.3968 0.935188 21.4351 1.20844 21.2961L5.71919 19.0025C6.64554 19.4014 7.62785 19.6631 8.6451 19.7822C10.6074 21.8457 13.3207 22.9023 16.0966 22.9023C17.5396 22.9023 18.9774 22.6083 20.279 22.0493L24.7899 24.3431C24.8992 24.3986 25.0174 24.4258 25.135 24.4258C25.6491 24.4258 26.0176 23.9248 25.8609 23.4329L24.3776 18.7759ZM6.02662 17.4698C5.81329 17.3685 5.56512 17.3719 5.35463 17.4789L2.14185 19.1125L3.19099 15.8186C3.26737 15.5787 3.22039 15.3167 3.06541 15.1184C2.05659 13.827 1.52334 12.3043 1.52334 10.7148C1.52334 6.51473 5.28186 3.09766 9.90173 3.09766C11.7622 3.09766 13.5532 3.66128 15.006 4.67624C10.1133 5.16821 6.19491 8.9897 6.19491 13.7617C6.19491 15.246 6.57536 16.6748 7.29264 17.955C6.85836 17.8257 6.43541 17.664 6.02662 17.4698ZM20.6437 20.5257C20.4363 20.4203 20.1879 20.4139 19.9718 20.5167C18.7842 21.0808 17.4443 21.3789 16.0966 21.3789C11.4768 21.3789 7.71824 17.9618 7.71824 13.7617C7.71824 9.5616 11.4768 6.14453 16.0966 6.14453C20.7165 6.14453 24.475 9.5616 24.475 13.7617C24.475 15.3512 23.9418 16.8739 22.9329 18.1652C22.778 18.3635 22.731 18.6255 22.8073 18.8654L23.8565 22.1594L20.6437 20.5257Z" fill="#454545"/>
<path d="M12.999 14.5234C13.4197 14.5234 13.7607 14.1824 13.7607 13.7617C13.7607 13.341 13.4197 13 12.999 13C12.5783 13 12.2373 13.341 12.2373 13.7617C12.2373 14.1824 12.5783 14.5234 12.999 14.5234Z" fill="#454545"/>
<path d="M16.0459 14.5234C16.4666 14.5234 16.8076 14.1824 16.8076 13.7617C16.8076 13.341 16.4666 13 16.0459 13C15.6252 13 15.2842 13.341 15.2842 13.7617C15.2842 14.1824 15.6252 14.5234 16.0459 14.5234Z" fill="#454545"/>
<path d="M19.0928 14.5234C19.5135 14.5234 19.8545 14.1824 19.8545 13.7617C19.8545 13.341 19.5135 13 19.0928 13C18.6721 13 18.3311 13.341 18.3311 13.7617C18.3311 14.1824 18.6721 14.5234 19.0928 14.5234Z" fill="#454545"/>
</g>
<defs>
<clipPath id="clip0_363_235">
<rect width="26" height="26" fill="white"/>
</clipPath>
</defs>
</svg>
