<svg width="32" height="34" viewBox="0 0 32 34" fill="none" xmlns="http://www.w3.org/2000/svg">
<path d="M15.3512 28.3333H2.39939C1.14757 28.3333 0.132812 27.3185 0.132812 26.0667V23.8H17.5284L15.3512 28.3333Z" fill="#D3DCFB"/>
<path d="M29.6016 10.2V19.7225V26.0666H2.39939C1.14757 26.0666 0.132812 25.0518 0.132812 23.7999V10.2L16.0006 4.53329L29.6016 10.2Z" fill="#EBF5FC"/>
<path d="M4.13554 14.7334H2.9314C2.63801 14.7334 2.40015 14.4955 2.40015 14.2021V12.998C2.40015 12.7046 2.63801 12.4667 2.9314 12.4667H4.13554C4.42892 12.4667 4.66679 12.7046 4.66679 12.998V14.2021C4.66679 14.4955 4.42892 14.7334 4.13554 14.7334Z" fill="#3C58A0"/>
<path d="M8.66899 14.7334H7.46484C7.17146 14.7334 6.93359 14.4955 6.93359 14.2021V12.998C6.93359 12.7046 7.17146 12.4667 7.46484 12.4667H8.66899C8.96237 12.4667 9.20024 12.7046 9.20024 12.998V14.2021C9.20024 14.4955 8.96237 14.7334 8.66899 14.7334Z" fill="#3C58A0"/>
<path d="M13.2022 14.7334H11.998C11.7047 14.7334 11.4668 14.4955 11.4668 14.2021V12.998C11.4668 12.7046 11.7047 12.4667 11.998 12.4667H13.2022C13.4956 12.4667 13.7334 12.7046 13.7334 12.998V14.2021C13.7334 14.4955 13.4956 14.7334 13.2022 14.7334Z" fill="#3C58A0"/>
<path d="M17.7356 14.7334H16.5315C16.2381 14.7334 16.0002 14.4955 16.0002 14.2021V12.998C16.0002 12.7046 16.2381 12.4667 16.5315 12.4667H17.7356C18.029 12.4667 18.2669 12.7046 18.2669 12.998V14.2021C18.2669 14.4955 18.029 14.7334 17.7356 14.7334Z" fill="#3C58A0"/>
<path d="M22.2681 14.7334H21.064C20.7706 14.7334 20.5327 14.4955 20.5327 14.2021V12.998C20.5327 12.7046 20.7706 12.4667 21.064 12.4667H22.2681C22.5615 12.4667 22.7994 12.7046 22.7994 12.998V14.2021C22.7994 14.4955 22.5616 14.7334 22.2681 14.7334Z" fill="#3C58A0"/>
<path d="M26.8016 14.7334H25.5974C25.304 14.7334 25.0662 14.4955 25.0662 14.2021V12.998C25.0662 12.7046 25.304 12.4667 25.5974 12.4667H26.8016C27.0949 12.4667 27.3328 12.7046 27.3328 12.998V14.2021C27.3328 14.4955 27.0949 14.7334 26.8016 14.7334Z" fill="#3C58A0"/>
<path d="M4.13554 19.2666H2.9314C2.63801 19.2666 2.40015 19.0288 2.40015 18.7354V17.5312C2.40015 17.2379 2.63801 17 2.9314 17H4.13554C4.42892 17 4.66679 17.2379 4.66679 17.5312V18.7354C4.66679 19.0288 4.42892 19.2666 4.13554 19.2666Z" fill="#3C58A0"/>
<path d="M8.66899 19.2666H7.46484C7.17146 19.2666 6.93359 19.0288 6.93359 18.7354V17.5312C6.93359 17.2379 7.17146 17 7.46484 17H8.66899C8.96237 17 9.20024 17.2379 9.20024 17.5312V18.7354C9.20024 19.0288 8.96237 19.2666 8.66899 19.2666Z" fill="#3C58A0"/>
<path d="M13.2022 19.2666H11.998C11.7047 19.2666 11.4668 19.0288 11.4668 18.7354V17.5312C11.4668 17.2379 11.7047 17 11.998 17H13.2022C13.4956 17 13.7334 17.2379 13.7334 17.5312V18.7354C13.7334 19.0288 13.4956 19.2666 13.2022 19.2666Z" fill="#3C58A0"/>
<path d="M18.2669 19.2666V17.5666C18.2669 17.2537 18.0132 17 17.7002 17H16.5669C16.2539 17 16.0002 17.2537 16.0002 17.5666V18.7C16.0002 19.013 16.254 19.2666 16.5669 19.2666H18.2669Z" fill="#3C58A0"/>
<path d="M4.13554 23.8H2.9314C2.63801 23.8 2.40015 23.5621 2.40015 23.2687V22.0646C2.40015 21.7712 2.63801 21.5334 2.9314 21.5334H4.13554C4.42892 21.5334 4.66679 21.7712 4.66679 22.0646V23.2687C4.66679 23.5621 4.42892 23.8 4.13554 23.8Z" fill="#3C58A0"/>
<path d="M8.66899 23.8H7.46484C7.17146 23.8 6.93359 23.5621 6.93359 23.2687V22.0646C6.93359 21.7712 7.17146 21.5334 7.46484 21.5334H8.66899C8.96237 21.5334 9.20024 21.7712 9.20024 22.0646V23.2687C9.20024 23.5621 8.96237 23.8 8.66899 23.8Z" fill="#3C58A0"/>
<path d="M13.2022 23.8H11.998C11.7047 23.8 11.4668 23.5621 11.4668 23.2687V22.0646C11.4668 21.7712 11.7047 21.5334 11.998 21.5334H13.2022C13.4956 21.5334 13.7334 21.7712 13.7334 22.0646V23.2687C13.7334 23.5621 13.4956 23.8 13.2022 23.8Z" fill="#3C58A0"/>
<path d="M26.7856 12.4666H25.6135C25.5426 12.4666 25.4751 12.4806 25.4128 12.5051C25.6157 12.5852 25.7594 12.7825 25.7594 13.0139V14.186C25.7594 14.4173 25.6156 14.6147 25.4128 14.6948C25.4751 14.7193 25.5426 14.7333 25.6135 14.7333H26.7856C27.0879 14.7333 27.3329 14.4882 27.3329 14.186V13.014C27.3328 12.7117 27.0878 12.4666 26.7856 12.4666Z" fill="#2A428C"/>
<path d="M22.2521 12.4666H21.0801C21.0092 12.4666 20.9416 12.4806 20.8794 12.5051C21.0823 12.5852 21.226 12.7825 21.226 13.0139V14.186C21.226 14.4173 21.0822 14.6147 20.8794 14.6948C20.9416 14.7193 21.0092 14.7333 21.0801 14.7333H22.2521C22.5544 14.7333 22.7994 14.4882 22.7994 14.186V13.014C22.7994 12.7117 22.5544 12.4666 22.2521 12.4666Z" fill="#2A428C"/>
<path d="M17.7197 12.4666H16.5476C16.4767 12.4666 16.4091 12.4806 16.3469 12.5051C16.5498 12.5852 16.6936 12.7825 16.6936 13.0139V14.186C16.6936 14.4173 16.5498 14.6147 16.3469 14.6948C16.4091 14.7193 16.4767 14.7333 16.5476 14.7333H17.7197C18.022 14.7333 18.267 14.4882 18.267 14.186V13.014C18.2669 12.7117 18.0219 12.4666 17.7197 12.4666Z" fill="#2A428C"/>
<path d="M13.1862 12.4666H12.0142C11.9432 12.4666 11.8757 12.4806 11.8135 12.5051C12.0163 12.5852 12.1601 12.7825 12.1601 13.0139V14.186C12.1601 14.4173 12.0163 14.6147 11.8135 14.6948C11.8757 14.7193 11.9432 14.7333 12.0142 14.7333H13.1862C13.4885 14.7333 13.7335 14.4882 13.7335 14.186V13.014C13.7335 12.7117 13.4885 12.4666 13.1862 12.4666Z" fill="#2A428C"/>
<path d="M8.65302 12.4666H7.48095C7.41003 12.4666 7.3425 12.4806 7.28027 12.5051C7.48314 12.5852 7.62685 12.7825 7.62685 13.0139V14.186C7.62685 14.4173 7.48308 14.6147 7.28027 14.6948C7.3425 14.7193 7.41003 14.7333 7.48095 14.7333H8.65302C8.9553 14.7333 9.20034 14.4882 9.20034 14.186V13.014C9.20034 12.7117 8.9553 12.4666 8.65302 12.4666Z" fill="#2A428C"/>
<path d="M4.11958 12.4666H2.94751C2.87658 12.4666 2.80905 12.4806 2.74683 12.5051C2.9497 12.5852 3.09347 12.7825 3.09347 13.0139V14.186C3.09347 14.4173 2.9497 14.6147 2.74683 14.6948C2.80905 14.7193 2.87658 14.7333 2.94751 14.7333H4.11958C4.42186 14.7333 4.6669 14.4882 4.6669 14.186V13.014C4.66683 12.7117 4.42179 12.4666 4.11958 12.4666Z" fill="#2A428C"/>
<path d="M4.11958 17H2.94751C2.87658 17 2.80905 17.0139 2.74683 17.0384C2.9497 17.1185 3.09347 17.3159 3.09347 17.5473V18.7194C3.09347 18.9507 2.9497 19.1481 2.74683 19.2282C2.80905 19.2528 2.87658 19.2667 2.94751 19.2667H4.11958C4.42186 19.2667 4.6669 19.0217 4.6669 18.7195V17.5473C4.66683 17.245 4.42179 17 4.11958 17Z" fill="#2A428C"/>
<path d="M4.11958 21.5334H2.94751C2.87658 21.5334 2.80905 21.5473 2.74683 21.5718C2.9497 21.6519 3.09347 21.8493 3.09347 22.0806V23.2527C3.09347 23.4841 2.9497 23.6815 2.74683 23.7616C2.80905 23.7861 2.87658 23.8001 2.94751 23.8001H4.11958C4.42186 23.8001 4.6669 23.555 4.6669 23.2528V22.0807C4.66683 21.7783 4.42179 21.5334 4.11958 21.5334Z" fill="#2A428C"/>
<path d="M8.65302 17H7.48095C7.41003 17 7.3425 17.0139 7.28027 17.0384C7.48314 17.1185 7.62685 17.3159 7.62685 17.5473V18.7194C7.62685 18.9507 7.48308 19.1481 7.28027 19.2282C7.3425 19.2528 7.41003 19.2667 7.48095 19.2667H8.65302C8.9553 19.2667 9.20034 19.0217 9.20034 18.7195V17.5473C9.20034 17.245 8.9553 17 8.65302 17Z" fill="#2A428C"/>
<path d="M8.65302 21.5334H7.48095C7.41003 21.5334 7.3425 21.5473 7.28027 21.5718C7.48314 21.6519 7.62685 21.8493 7.62685 22.0806V23.2527C7.62685 23.4841 7.48308 23.6815 7.28027 23.7616C7.3425 23.7861 7.41003 23.8001 7.48095 23.8001H8.65302C8.9553 23.8001 9.20034 23.555 9.20034 23.2528V22.0807C9.20034 21.7783 8.9553 21.5334 8.65302 21.5334Z" fill="#2A428C"/>
<path d="M13.1862 17H12.0142C11.9432 17 11.8757 17.0139 11.8135 17.0384C12.0163 17.1185 12.1601 17.3159 12.1601 17.5473V18.7194C12.1601 18.9507 12.0163 19.1481 11.8135 19.2282C11.8757 19.2528 11.9432 19.2667 12.0142 19.2667H13.1862C13.4885 19.2667 13.7335 19.0217 13.7335 18.7195V17.5473C13.7335 17.245 13.4885 17 13.1862 17Z" fill="#2A428C"/>
<path d="M18.267 19.2666V17.5473C18.267 17.245 18.022 17 17.7197 17H16.5476C16.4767 17 16.4091 17.0139 16.3469 17.0384C16.5498 17.1185 16.6936 17.3159 16.6936 17.5473V18.7194C16.6936 18.9507 16.5498 19.1481 16.3469 19.2282C16.4091 19.2528 16.4767 19.2667 16.5476 19.2667H18.267V19.2666Z" fill="#2A428C"/>
<path d="M13.1862 21.5334H12.0142C11.9432 21.5334 11.8757 21.5473 11.8135 21.5718C12.0163 21.6519 12.1601 21.8493 12.1601 22.0806V23.2527C12.1601 23.4841 12.0163 23.6815 11.8135 23.7616C11.8757 23.7861 11.9432 23.8001 12.0142 23.8001H13.1862C13.4885 23.8001 13.7335 23.555 13.7335 23.2528V22.0807C13.7335 21.7783 13.4885 21.5334 13.1862 21.5334Z" fill="#2A428C"/>
<path d="M28.0271 9.54398V19.7225V26.0666H29.6017V19.7225V10.2L28.0271 9.54398Z" fill="#D3DCFB"/>
<path d="M29.6016 10.2V4.53329C29.6016 3.28146 28.5868 2.26671 27.3351 2.26671H2.39939C1.14757 2.26671 0.132812 3.28146 0.132812 4.53329V10.2H29.6016Z" fill="#FF4155"/>
<path d="M7.27478 5.04641H5.79943C5.51601 5.04641 5.28638 4.81671 5.28638 4.53336C5.28638 4.25 5.51608 4.0203 5.79943 4.0203H7.27478C7.5582 4.0203 7.78783 4.25 7.78783 4.53336C7.78783 4.81671 7.55813 5.04641 7.27478 5.04641Z" fill="#E80054"/>
<path d="M10.8993 5.04641H9.42394C9.14052 5.04641 8.91089 4.81671 8.91089 4.53336C8.91089 4.25 9.14059 4.0203 9.42394 4.0203H10.8993C11.1827 4.0203 11.4123 4.25 11.4123 4.53336C11.4123 4.81671 11.1827 5.04641 10.8993 5.04641Z" fill="#E80054"/>
<path d="M20.3088 5.04641H18.8334C18.5499 5.04641 18.3203 4.81671 18.3203 4.53336C18.3203 4.25 18.55 4.0203 18.8334 4.0203H20.3088C20.5922 4.0203 20.8218 4.25 20.8218 4.53336C20.8218 4.81671 20.5922 5.04641 20.3088 5.04641Z" fill="#E80054"/>
<path d="M23.9335 5.04641H22.4581C22.1747 5.04641 21.9451 4.81671 21.9451 4.53336C21.9451 4.25 22.1748 4.0203 22.4581 4.0203H23.9335C24.217 4.0203 24.4466 4.25 24.4466 4.53336C24.4466 4.81671 24.2169 5.04641 23.9335 5.04641Z" fill="#E80054"/>
<path d="M9.76615 4.25C9.76615 5.0324 9.1319 5.66664 8.34951 5.66664C7.56711 5.66664 6.93286 5.0324 6.93286 4.25V1.41664C6.93279 0.634246 7.56704 0 8.34944 0C9.13184 0 9.76608 0.634246 9.76608 1.41664V4.25H9.76615Z" fill="#EBF5FC"/>
<path d="M22.8002 4.25C22.8002 5.0324 22.1659 5.66664 21.3835 5.66664C20.6011 5.66664 19.9668 5.0324 19.9668 4.25V1.41664C19.9668 0.634246 20.601 0 21.3834 0C22.1658 0 22.8001 0.634246 22.8001 1.41664V4.25H22.8002Z" fill="#EBF5FC"/>
<path d="M21.3836 0C21.0928 0 20.8226 0.0879219 20.5977 0.238266C20.9778 0.492336 21.2284 0.925105 21.2284 1.41671V4.25C21.2284 4.74154 20.9778 5.17438 20.5977 5.42845C20.8226 5.57872 21.0928 5.66671 21.3836 5.66671C22.166 5.66671 22.8003 5.03246 22.8003 4.25007V1.41664C22.8004 0.634246 22.1661 0 21.3836 0Z" fill="#D3DCFB"/>
<path d="M8.34946 0C8.0586 0 7.78846 0.0879219 7.56348 0.238266C7.94365 0.492336 8.1942 0.925105 8.1942 1.41671V4.25C8.1942 4.74154 7.94365 5.17438 7.56348 5.42845C7.78839 5.57872 8.0586 5.66671 8.34946 5.66671C9.13186 5.66671 9.7661 5.03246 9.7661 4.25007V1.41664C9.76617 0.634246 9.13193 0 8.34946 0Z" fill="#D3DCFB"/>
<path d="M27.3353 2.26665H25.7612C27.0131 2.26665 28.0278 3.2814 28.0278 4.53323V10.2H29.6018V4.53329C29.6018 3.28147 28.587 2.26665 27.3353 2.26665Z" fill="#E80054"/>
<path d="M0.132812 7.42023H29.6017V8.44641H0.132812V7.42023Z" fill="#E80054"/>
<path d="M23.3672 34C28.0616 34 31.8672 30.1944 31.8672 25.5C31.8672 20.8056 28.0616 17 23.3672 17C18.6728 17 14.8672 20.8056 14.8672 25.5C14.8672 30.1944 18.6728 34 23.3672 34Z" fill="#0CB8B6"/>
<path d="M23.3674 31.7334C26.81 31.7334 29.6007 28.9426 29.6007 25.5C29.6007 22.0574 26.81 19.2666 23.3674 19.2666C19.9248 19.2666 17.134 22.0574 17.134 25.5C17.134 28.9426 19.9248 31.7334 23.3674 31.7334Z" fill="#EBF5FC"/>
<path d="M23.3673 24.8797C23.0839 24.8797 22.8542 24.65 22.8542 24.3666V21.5333C22.8542 21.2499 23.0839 21.0202 23.3673 21.0202C23.6507 21.0202 23.8804 21.2499 23.8804 21.5333V24.3666C23.8804 24.65 23.6507 24.8797 23.3673 24.8797Z" fill="#3C58A0"/>
<path d="M26.2007 26.0131H24.5006C24.2172 26.0131 23.9875 25.7834 23.9875 25.5C23.9875 25.2166 24.2172 24.9869 24.5006 24.9869H26.2007C26.4841 24.9869 26.7137 25.2166 26.7137 25.5C26.7137 25.7834 26.484 26.0131 26.2007 26.0131Z" fill="#3C58A0"/>
<path d="M23.3673 17C23.1021 17 22.8398 17.0128 22.5806 17.0366C26.9061 17.4336 30.2939 21.0709 30.2939 25.5C30.2939 29.9291 26.9061 33.5664 22.5806 33.9634C22.8397 33.9872 23.102 34 23.3673 34C28.0617 34 31.8673 30.1944 31.8673 25.5C31.8673 20.8056 28.0617 17 23.3673 17Z" fill="#078785"/>
<path d="M23.3672 19.2666C23.1009 19.2666 22.8386 19.2834 22.5811 19.3159C25.6525 19.7024 28.0282 22.3237 28.0282 25.5C28.0282 28.6763 25.6525 31.2976 22.5811 31.6842C22.8386 31.7166 23.1009 31.7334 23.3672 31.7334C26.8098 31.7334 29.6006 28.9426 29.6006 25.5C29.6006 22.0574 26.8098 19.2666 23.3672 19.2666Z" fill="#D3DCFB"/>
<path d="M23.3672 26.6334C23.9932 26.6334 24.5006 26.1259 24.5006 25.5C24.5006 24.8741 23.9932 24.3666 23.3672 24.3666C22.7413 24.3666 22.2339 24.8741 22.2339 25.5C22.2339 26.1259 22.7413 26.6334 23.3672 26.6334Z" fill="#FFDD40"/>
</svg>
