<svg width="19" height="19" viewBox="0 0 19 19" fill="none" xmlns="http://www.w3.org/2000/svg">
<path d="M5.72222 4.77778V1M13.2778 4.77778V1M4.77778 8.55556H14.2222M2.88889 18H16.1111C16.6121 18 17.0925 17.801 17.4468 17.4468C17.801 17.0925 18 16.6121 18 16.1111V4.77778C18 4.27681 17.801 3.79637 17.4468 3.44213C17.0925 3.0879 16.6121 2.88889 16.1111 2.88889H2.88889C2.38792 2.88889 1.90748 3.0879 1.55324 3.44213C1.19901 3.79637 1 4.27681 1 4.77778V16.1111C1 16.6121 1.19901 17.0925 1.55324 17.4468C1.90748 17.801 2.38792 18 2.88889 18Z" stroke="#9E9DA8" stroke-width="2" stroke-linecap="round" stroke-linejoin="round"/>
</svg>
