<svg width="22" height="24" viewBox="0 0 22 24" fill="none" xmlns="http://www.w3.org/2000/svg">
<path fill-rule="evenodd" clip-rule="evenodd" d="M4.76239 19.6969C1.88552 17.749 0 14.4907 0 10.8C0 4.83533 4.92482 0 11 0C17.0751 0 22 4.83533 22 10.8C22 14.4906 20.1145 17.749 17.2376 19.6969L18.1435 23.2544C18.2399 23.6332 17.9482 24 17.5506 24H4.44938C4.05179 24 3.76004 23.6332 3.85648 23.2544L4.76239 19.6969ZM4.88889 10.8C4.88889 14.1137 7.62496 16.8 11 16.8C14.3751 16.8 17.1111 14.1137 17.1111 10.8C17.1111 7.4863 14.3751 4.8 11 4.8C7.62496 4.8 4.88889 7.4863 4.88889 10.8ZM7.33333 10.8C7.33333 12.7883 8.9749 14.4 11 14.4C13.0251 14.4 14.6667 12.7883 14.6667 10.8C14.6667 8.81178 13.0251 7.2 11 7.2C8.9749 7.2 7.33333 8.81178 7.33333 10.8Z" fill="#37B58F"/>
</svg>
