<svg width="27" height="27" viewBox="0 0 27 27" fill="none" xmlns="http://www.w3.org/2000/svg">
<g clip-path="url(#clip0_247_21)">
<path d="M6.74995 0C6.21737 0 5.78564 0.431725 5.78564 0.964304V2.89286H7.7142V0.964304C7.7142 0.431725 7.28247 0 6.74995 0Z" fill="#E94A54"/>
<path d="M20.2499 0C19.7174 0 19.2856 0.431725 19.2856 0.964304V2.89286H21.2142V0.964304C21.2143 0.431725 20.7825 0 20.2499 0Z" fill="#E94A54"/>
<path d="M24.1071 2.89288H21.2143V6.75004C21.2143 7.28262 20.7826 7.71435 20.25 7.71435C19.7174 7.71435 19.2857 7.28262 19.2857 6.75004V2.89288H7.71426V6.75004C7.71426 7.28262 7.28254 7.71435 6.74996 7.71435C6.21738 7.71435 5.78565 7.28262 5.78565 6.75004V2.89288H2.89286C1.29517 2.89288 0 4.18806 0 5.78574V24.1072C0 25.7049 1.29517 27 2.89286 27H24.1071C25.7048 27 27 25.7049 27 24.1072V5.78574C27 4.18806 25.7048 2.89288 24.1071 2.89288ZM25.0714 24.1072C25.0714 24.6398 24.6397 25.0715 24.1071 25.0715H2.89286C2.36028 25.0715 1.92855 24.6398 1.92855 24.1072V11.5714H25.0714V24.1072Z" fill="#E94A54"/>
<path fill-rule="evenodd" clip-rule="evenodd" d="M9.19499 14.2035C9.31989 14.0785 9.48926 14.0083 9.66585 14.0083C9.84245 14.0083 10.0118 14.0785 10.1367 14.2035L12.9958 17.0655L15.855 14.2035C15.9164 14.1399 15.9899 14.0891 16.0711 14.0541C16.1524 14.0192 16.2398 14.0008 16.3282 14C16.4166 13.9993 16.5043 14.0161 16.5862 14.0496C16.668 14.0832 16.7424 14.1327 16.8049 14.1953C16.8675 14.2579 16.9169 14.3323 16.9504 14.4142C16.9839 14.4962 17.0007 14.5839 17 14.6725C16.9992 14.761 16.9808 14.8485 16.9459 14.9298C16.911 15.0111 16.8603 15.0847 16.7967 15.1462L13.9376 18.0082L16.7967 20.8702C16.918 20.9959 16.9851 21.1643 16.9836 21.3391C16.9821 21.5139 16.912 21.6811 16.7886 21.8047C16.6651 21.9283 16.498 21.9985 16.3234 22C16.1488 22.0015 15.9806 21.9343 15.855 21.8129L12.9958 18.9509L10.1367 21.8129C10.0111 21.9343 9.84287 22.0015 9.66825 22C9.49363 21.9985 9.32659 21.9283 9.20311 21.8047C9.07963 21.6811 9.00958 21.5139 9.00807 21.3391C9.00655 21.1643 9.07368 20.9959 9.19499 20.8702L12.0541 18.0082L9.19499 15.1462C9.07014 15.0212 9 14.8516 9 14.6749C9 14.4981 9.07014 14.3285 9.19499 14.2035Z" fill="#E94A54"/>
</g>
<defs>
<clipPath id="clip0_247_21">
<rect width="27" height="27" fill="white"/>
</clipPath>
</defs>
</svg>
