<svg width="12" height="12" viewBox="0 0 12 12" fill="none" xmlns="http://www.w3.org/2000/svg">
<g clip-path="url(#clip0_107_1219)">
<path d="M10.6841 10.8758C8.84787 12.3747 3.1144 12.3747 1.31565 10.8758C-0.52056 9.37681 -0.333194 2.96881 1.31565 1.2825C2.9645 -0.403817 9.03523 -0.403817 10.6841 1.2825C12.3329 2.96881 12.5203 9.37683 10.6841 10.8758Z" fill="#37B58F"/>
<g opacity="0.2">
<path d="M6.03724 8.25263C4.3884 9.56421 2.55218 10.2387 0.828402 10.2762C-0.445714 8.10273 -0.183387 2.81896 1.31556 1.28254C2.66461 -0.103981 6.89914 -0.366308 9.33494 0.495583C9.9345 2.96885 8.69788 6.11662 6.03724 8.25263Z" fill="white"/>
</g>
<path d="M5.1382 9.33936C4.87587 9.33936 4.61357 9.22693 4.46367 9.0021L2.36516 6.304C2.06536 5.92927 2.14033 5.40464 2.51506 5.10484C2.88979 4.80505 3.41442 4.88001 3.71421 5.25474L5.1382 7.09095L8.28599 3.00633C8.58579 2.6316 9.11042 2.55664 9.48515 2.85643C9.85988 3.15623 9.93484 3.68085 9.63505 4.05559L5.81272 9.0021C5.62536 9.18947 5.40053 9.33936 5.1382 9.33936Z" fill="white"/>
</g>
<defs>
<clipPath id="clip0_107_1219">
<rect width="12" height="12" fill="white"/>
</clipPath>
</defs>
</svg>
