<svg width="25" height="26" viewBox="0 0 25 26" fill="none" xmlns="http://www.w3.org/2000/svg">
<path id="Vector" fill-rule="evenodd" clip-rule="evenodd" d="M12.5 25.5C15.8152 25.5 18.9946 24.183 21.3388 21.8388C23.683 19.4946 25 16.3152 25 13C25 9.68479 23.683 6.50537 21.3388 4.16117C18.9946 1.81696 15.8152 0.5 12.5 0.5C9.18479 0.5 6.00537 1.81696 3.66117 4.16117C1.31696 6.50537 0 9.68479 0 13C0 16.3152 1.31696 19.4946 3.66117 21.8388C6.00537 24.183 9.18479 25.5 12.5 25.5ZM18.2922 10.9797C18.5768 10.685 18.7343 10.2903 18.7307 9.88062C18.7272 9.47094 18.5629 9.07905 18.2732 8.78935C17.9835 8.49965 17.5916 8.33532 17.1819 8.33176C16.7722 8.3282 16.3775 8.48569 16.0828 8.77031L10.9375 13.9156L8.91719 11.8953C8.6225 11.6107 8.22781 11.4532 7.81812 11.4568C7.40844 11.4603 7.01655 11.6246 6.72685 11.9143C6.43715 12.204 6.27282 12.5959 6.26926 13.0056C6.2657 13.4153 6.42319 13.81 6.70781 14.1047L9.83281 17.2297C10.1258 17.5226 10.5232 17.6872 10.9375 17.6872C11.3518 17.6872 11.7492 17.5226 12.0422 17.2297L18.2922 10.9797Z" fill="#0CB813"/>
</svg>
