<svg width="500" height="500" viewBox="0 0 500 500" fill="none" xmlns="http://www.w3.org/2000/svg">
<path d="M257.17 429.789C380.451 429.789 480.39 376.399 480.39 310.539C480.39 244.679 380.451 191.289 257.17 191.289C133.889 191.289 33.95 244.679 33.95 310.539C33.95 376.399 133.889 429.789 257.17 429.789Z" fill="#F5F5F5"/>
<path d="M167.34 376.921L96.1699 335.541L216.55 265.971L167.34 376.921Z" fill="#E0E0E0"/>
<path d="M64.61 333L93.61 349.72C94.2127 350.026 94.8791 350.185 95.555 350.185C96.2308 350.185 96.8972 350.026 97.5 349.72L137.5 326.38C137.735 326.302 137.94 326.152 138.085 325.951C138.23 325.75 138.308 325.508 138.308 325.26C138.308 325.012 138.23 324.771 138.085 324.57C137.94 324.369 137.735 324.218 137.5 324.14L108.5 307.41C107.897 307.105 107.231 306.945 106.555 306.945C105.879 306.945 105.213 307.105 104.61 307.41L64.61 330.75C64.3758 330.831 64.1727 330.983 64.0289 331.185C63.8851 331.386 63.8079 331.628 63.8079 331.875C63.8079 332.123 63.8851 332.365 64.0289 332.566C64.1727 332.768 64.3758 332.92 64.61 333Z" fill="#E0E0E0"/>
<path d="M67.75 330.4C65.75 327.18 59.58 323.64 51.48 321.89C43.38 320.14 35.24 318 37.1 313.27C39.1 308.2 46.64 307.95 54.01 310.97C62.06 314.27 68.01 322.43 68.12 327.57L67.75 330.4Z" fill="#0CB8B6"/>
<g opacity="0.1">
<path d="M67.75 330.4C65.75 327.18 59.58 323.64 51.48 321.89C43.38 320.14 35.24 318 37.1 313.27C39.1 308.2 46.64 307.95 54.01 310.97C62.06 314.27 68.01 322.43 68.12 327.57L67.75 330.4Z" fill="black"/>
</g>
<path d="M68.38 328.94C68.266 328.939 68.1547 328.905 68.0591 328.843C67.9635 328.781 67.8875 328.693 67.84 328.59C61.41 315.29 46.5 313.14 41.84 313.87C41.681 313.893 41.5194 313.852 41.3902 313.757C41.261 313.661 41.1747 313.518 41.15 313.36C41.1372 313.282 41.14 313.202 41.1582 313.125C41.1764 313.047 41.2098 312.975 41.2562 312.911C41.3027 312.846 41.3615 312.792 41.429 312.751C41.4966 312.709 41.5717 312.682 41.65 312.67C46.59 311.91 62.24 314.14 68.97 328.07C69.0392 328.214 69.0486 328.381 68.9962 328.532C68.9438 328.684 68.8338 328.809 68.69 328.88C68.593 328.925 68.4867 328.945 68.38 328.94Z" fill="white"/>
<path d="M67.7499 330.4C67.7499 330.4 63.8799 315.07 54.0699 306.83C51.1599 304.38 48.0699 301.31 45.8799 299.2C41.2199 294.66 43.1699 289.71 49.6199 289.81C59.2199 289.94 66.2399 298.02 69.2799 308.59C72.3199 319.16 67.7499 330.4 67.7499 330.4Z" fill="#0CB8B6"/>
<path d="M69.28 324.45C69.1281 324.451 68.9814 324.395 68.8686 324.293C68.7558 324.191 68.6849 324.051 68.67 323.9C66.87 304.4 51.99 294.6 47.94 293.56C47.7849 293.52 47.6519 293.42 47.5703 293.283C47.4887 293.145 47.4652 292.98 47.505 292.825C47.5448 292.67 47.6446 292.537 47.7824 292.455C47.9203 292.374 48.0849 292.35 48.24 292.39C53.16 293.65 68.03 303.82 69.88 323.79C69.8939 323.95 69.8439 324.11 69.7409 324.233C69.6379 324.357 69.4902 324.435 69.33 324.45H69.28Z" fill="white"/>
<path d="M94.59 347.259L67.27 331.479L67.26 272.879L94.59 288.659V347.259Z" fill="#263238"/>
<path d="M94.5901 288.659L133.63 266.119V324.719L94.5901 347.259V288.659Z" fill="#37474F"/>
<path d="M133.63 266.12L94.59 288.66L67.26 272.88L106.31 250.34L133.63 266.12Z" fill="#455A64"/>
<path d="M111.46 287.941L116.77 284.871C117.46 284.471 118.02 284.651 118.02 285.281C117.969 285.664 117.83 286.029 117.613 286.349C117.396 286.668 117.107 286.933 116.77 287.121L111.46 290.191C110.77 290.591 110.21 290.411 110.21 289.781C110.261 289.398 110.4 289.032 110.617 288.713C110.834 288.393 111.123 288.129 111.46 287.941Z" fill="#263238"/>
<path d="M97.78 318.38L129.01 300.35L129.73 300.76L129.01 322.05L129.73 322.47L98.5 340.5L97.78 340.08V318.38Z" fill="#263238"/>
<path d="M98.5 318.79L129.73 300.76V322.47L98.5 340.5V318.79Z" fill="#455A64"/>
<path d="M110.74 315.4L116.05 312.34C116.74 311.94 117.3 312.12 117.3 312.74C117.25 313.124 117.111 313.492 116.894 313.813C116.677 314.134 116.388 314.4 116.05 314.59L110.74 317.66C110.05 318.06 109.49 317.87 109.49 317.25C109.541 316.866 109.681 316.499 109.898 316.178C110.115 315.857 110.403 315.591 110.74 315.4Z" fill="#263238"/>
<path d="M97.78 291.38L129.01 273.35L129.73 273.76L129.01 295.05L129.73 295.47L98.5 313.5L97.78 313.08V291.38Z" fill="#263238"/>
<path d="M98.5 291.79L129.73 273.76V295.47L98.5 313.5V291.79Z" fill="#455A64"/>
<path d="M110.74 288.4L116.05 285.34C116.74 284.94 117.3 285.12 117.3 285.74C117.25 286.124 117.111 286.492 116.894 286.813C116.677 287.134 116.388 287.4 116.05 287.59L110.74 290.66C110.05 291.06 109.49 290.87 109.49 290.25C109.541 289.866 109.681 289.499 109.898 289.178C110.115 288.857 110.403 288.591 110.74 288.4Z" fill="#263238"/>
<path d="M94.59 286.169L67.27 270.389L67.26 211.779L94.59 227.559V286.169Z" fill="#263238"/>
<path d="M94.5901 227.56L133.63 205.02V263.63L94.5901 286.17V227.56Z" fill="#37474F"/>
<path d="M133.63 205.02L94.59 227.56L67.26 211.78L106.31 189.24L133.63 205.02Z" fill="#455A64"/>
<path d="M98.5 229.809L129.73 211.779L130.45 212.199V233.899L99.22 251.939L98.5 251.519V229.809Z" fill="#263238"/>
<path d="M111.46 226.841L116.77 223.771C117.46 223.371 118.02 223.561 118.02 224.181C117.968 224.565 117.829 224.931 117.612 225.252C117.395 225.573 117.107 225.84 116.77 226.031L111.46 229.091C110.77 229.491 110.21 229.311 110.21 228.691C110.26 228.306 110.399 227.939 110.616 227.618C110.833 227.297 111.122 227.03 111.46 226.841Z" fill="#263238"/>
<path d="M97.78 257.28L129.01 239.25V260.96L129.73 261.37L98.5 279.4L97.78 278.99V257.28Z" fill="#263238"/>
<path d="M98.5 257.7L129.73 239.66V261.37L98.5 279.4V257.7Z" fill="#455A64"/>
<path d="M110.74 254.31L116.05 251.24C116.74 250.84 117.3 251.02 117.3 251.65C117.249 252.033 117.11 252.398 116.893 252.718C116.676 253.037 116.387 253.302 116.05 253.49L110.74 256.56C110.05 256.96 109.49 256.78 109.49 256.15C109.541 255.767 109.68 255.401 109.897 255.082C110.114 254.762 110.403 254.498 110.74 254.31Z" fill="#263238"/>
<path d="M98.5 229.809L129.73 211.779V233.489L98.5 251.519V229.809Z" fill="#263238"/>
<path d="M145.35 222.501L128.25 212.641V231.761L145.35 241.631V222.501Z" fill="#263238"/>
<path d="M110.21 254.609V227.559L116.91 223.679L118.02 225.309L137.54 214.029V238.829L110.21 254.609Z" fill="#0CB8B6"/>
<g opacity="0.2">
<path d="M110.21 254.609V227.559L116.91 223.679L118.02 225.309L137.54 214.029V238.829L110.21 254.609Z" fill="black"/>
</g>
<path d="M110.21 254.61L112.16 230.94L139.49 215.16L137.54 238.83L110.21 254.61Z" fill="#0CB8B6"/>
<path d="M114.11 240.539L99.21 231.939V251.059L114.11 259.659V240.539Z" fill="#37474F"/>
<path d="M114.11 238.831L145.35 220.801V242.501L114.11 260.541V238.831Z" fill="#455A64"/>
<path d="M126.36 235.44L131.67 232.37C132.36 231.97 132.92 232.16 132.92 232.78C132.869 233.164 132.729 233.531 132.512 233.852C132.295 234.173 132.007 234.439 131.67 234.63L126.36 237.69C125.67 238.09 125.11 237.91 125.11 237.29C125.161 236.906 125.301 236.54 125.518 236.219C125.735 235.898 126.023 235.631 126.36 235.44Z" fill="#263238"/>
<path d="M114.11 238.83L113.07 238.23V259.94L114.11 260.54V238.83Z" fill="#263238"/>
<path d="M113.07 238.231L144.31 220.201L145.35 220.801L114.11 238.831L113.07 238.231Z" fill="#37474F"/>
<path d="M375 82.3014L370.94 79.9414L163.75 199.541V372.771C163.695 373.308 163.782 373.849 164.003 374.341C164.225 374.833 164.572 375.257 165.01 375.571L169.07 377.931C169.562 378.158 170.106 378.249 170.646 378.197C171.185 378.144 171.701 377.949 172.14 377.631L370.64 263.001C371.9 262.179 372.949 261.072 373.701 259.769C374.453 258.466 374.888 257.004 374.97 255.501L375 82.3014Z" fill="#E6E6E6"/>
<path d="M167.81 375.131C167.81 377.891 169.74 379.011 172.14 377.631L370.64 263.001C371.9 262.178 372.949 261.071 373.701 259.768C374.453 258.465 374.888 257.003 374.97 255.501V82.3008L167.81 201.911V375.131Z" fill="#FAFAFA"/>
<path d="M374 84.0015V255.521C373.918 256.849 373.529 258.139 372.865 259.291C372.2 260.443 371.278 261.426 370.17 262.161L171.67 376.762C171.237 377.035 170.741 377.194 170.23 377.221C168.97 377.221 168.84 375.762 168.84 375.132V202.481L374 84.0015ZM375 82.2715L167.81 201.911V375.132C167.81 377.132 168.81 378.221 170.2 378.221C170.887 378.195 171.555 377.992 172.14 377.632L370.64 263.001C371.9 262.179 372.949 261.072 373.701 259.769C374.453 258.466 374.888 257.004 374.97 255.501V82.3015L375 82.2715Z" fill="#E0E0E0"/>
<path d="M167.81 201.911V220.661L374.97 101.051V82.3008L167.81 201.911Z" fill="#0CB8B6"/>
<path d="M297.79 134.212V138.212C297.79 139.032 298.38 139.372 299.09 138.962L362.78 102.182V95.1816L299.09 132.002C298.718 132.246 298.408 132.572 298.183 132.955C297.957 133.338 297.823 133.768 297.79 134.212Z" fill="#FAFAFA"/>
<path d="M369.61 91.2506C370.33 90.8306 370.91 91.1706 370.91 92.0006V96.0006C370.886 96.4516 370.756 96.8906 370.53 97.2817C370.304 97.6728 369.989 98.0048 369.61 98.2506L362.78 102.191V95.1906L369.61 91.2506Z" fill="#455A64"/>
<path d="M369.11 96.7814L368.34 96.5414C368.425 96.2148 368.468 95.8789 368.47 95.5414C368.504 95.2338 368.458 94.9226 368.335 94.6386C368.212 94.3545 368.017 94.1073 367.77 93.9214C367.602 93.822 367.41 93.7695 367.215 93.7695C367.02 93.7695 366.828 93.822 366.66 93.9214C366.176 94.2934 365.786 94.7742 365.521 95.3249C365.257 95.8756 365.127 96.4808 365.14 97.0914C365.104 97.3992 365.149 97.711 365.272 97.9955C365.395 98.2799 365.591 98.5269 365.84 98.7114C365.984 98.7995 366.151 98.8446 366.32 98.8414C366.539 98.8367 366.753 98.7747 366.94 98.6614C367.523 98.2641 367.956 97.6833 368.17 97.0114L368.94 97.2514H369C369.059 97.2524 369.117 97.2346 369.166 97.2004C369.215 97.1663 369.251 97.1176 369.27 97.0614C369.274 97.0041 369.261 96.947 369.233 96.8971C369.204 96.8473 369.161 96.807 369.11 96.7814ZM366.66 98.2414C366.584 98.2997 366.493 98.3353 366.397 98.3441C366.302 98.353 366.206 98.3347 366.12 98.2914C365.965 98.1505 365.847 97.974 365.775 97.7771C365.704 97.5802 365.681 97.3689 365.71 97.1614C365.7 96.6509 365.805 96.1447 366.018 95.6807C366.231 95.2166 366.546 94.8067 366.94 94.4814C367.046 94.416 367.166 94.3781 367.29 94.3714C367.361 94.3712 367.431 94.3921 367.49 94.4314C367.643 94.5739 367.76 94.7506 367.831 94.947C367.902 95.1435 367.926 95.354 367.9 95.5614C367.908 96.0726 367.801 96.5791 367.586 97.0431C367.371 97.5071 367.055 97.9167 366.66 98.2414Z" fill="#FAFAFA"/>
<path d="M369.68 68.0908C369.187 67.8495 368.637 67.748 368.091 67.7973C367.544 67.8467 367.022 68.0451 366.58 68.3708L168.08 183.001C166.818 183.821 165.768 184.928 165.016 186.232C164.264 187.535 163.83 188.998 163.75 190.501V199.571L167.81 201.941L375 82.3008V73.2308C375.061 72.6964 374.977 72.1555 374.757 71.6646C374.537 71.1738 374.189 70.7511 373.75 70.4408C373 70.0008 370.39 68.5208 369.68 68.0908Z" fill="#263238"/>
<path d="M167.81 192.841C167.888 191.338 168.321 189.875 169.074 188.571C169.827 187.268 170.877 186.161 172.14 185.341L370.64 70.7315C373.03 69.3515 374.97 70.4715 374.97 73.2315V82.3015L167.81 201.911V192.841Z" fill="#37474F"/>
<path d="M373.76 70.4609C373.266 70.2142 372.713 70.1089 372.162 70.1565C371.611 70.2041 371.085 70.4029 370.64 70.7309L172.14 185.331C170.861 186.129 169.808 187.241 169.08 188.561L165 186.211C165.731 184.887 166.788 183.772 168.07 182.971L366.58 68.3609C367.023 68.0368 367.546 67.8402 368.092 67.7926C368.639 67.745 369.188 67.8482 369.68 68.0909C370.39 68.5209 372.99 70.0109 373.68 70.4309L373.76 70.4609Z" fill="#455A64"/>
<path d="M350.6 87.0014C350.014 87.3905 349.528 87.9118 349.181 88.5232C348.833 89.1346 348.634 89.819 348.6 90.5214C348.6 91.8114 349.51 92.3414 350.6 91.6914C351.186 91.3023 351.672 90.781 352.019 90.1696C352.367 89.5582 352.566 88.8737 352.6 88.1714C352.63 86.8614 351.72 86.3314 350.6 87.0014Z" fill="#0CB8B6"/>
<path d="M357.71 82.8912C357.124 83.2781 356.638 83.7975 356.291 84.4073C355.943 85.0171 355.744 85.7002 355.71 86.4012C355.71 87.7012 356.62 88.2212 357.71 87.5812C358.295 87.1909 358.78 86.6694 359.127 86.0582C359.474 85.447 359.674 84.7632 359.71 84.0612C359.74 82.7612 358.83 82.2412 357.71 82.8912Z" fill="#0CB8B6"/>
<path d="M364.81 78.7917C364.224 79.1808 363.738 79.7021 363.391 80.3135C363.043 80.9249 362.844 81.6093 362.81 82.3117C362.81 83.6117 363.72 84.1317 364.81 83.4817C365.397 83.0943 365.885 82.5735 366.232 81.9617C366.58 81.3499 366.778 80.6646 366.81 79.9617C366.85 78.6717 365.94 78.1417 364.81 78.7917Z" fill="#0CB8B6"/>
<path d="M172.14 377.631L208.43 356.681V197.201L167.81 220.661V375.131C167.81 377.891 169.74 379.001 172.14 377.631Z" fill="#F5F5F5"/>
<path d="M207.43 198.931V356.101L171.64 376.761C171.207 377.035 170.711 377.193 170.2 377.221C168.94 377.221 168.81 375.761 168.81 375.131V221.231L207.43 198.931ZM208.43 197.201L167.81 220.661V375.131C167.81 377.131 168.81 378.221 170.2 378.221C170.887 378.194 171.555 377.991 172.14 377.631L208.43 356.681V197.201Z" fill="#E0E0E0"/>
<path d="M181.29 222.251L200.73 211.001C201.44 210.581 202.02 210.921 202.02 211.751V213.441C201.995 213.89 201.866 214.328 201.642 214.718C201.418 215.109 201.105 215.442 200.73 215.691L181.29 226.921C180.57 227.341 179.99 227.001 179.99 226.171V224.501C180.017 224.05 180.148 223.612 180.374 223.222C180.6 222.831 180.913 222.499 181.29 222.251Z" fill="#E0E0E0"/>
<path d="M175.93 226.852V228.542C175.906 228.993 175.775 229.431 175.549 229.822C175.323 230.213 175.009 230.546 174.63 230.792L173.17 231.632C172.45 232.052 171.87 231.712 171.87 230.882V229.192C171.895 228.741 172.025 228.302 172.251 227.911C172.477 227.52 172.792 227.188 173.17 226.942L174.63 226.102C175.35 225.682 175.93 226.002 175.93 226.852Z" fill="#0CB8B6"/>
<path d="M181.29 231.602L200.73 220.372C201.44 219.952 202.02 220.292 202.02 221.112V222.802C201.995 223.253 201.866 223.692 201.642 224.084C201.418 224.476 201.106 224.811 200.73 225.062L181.29 236.292C180.57 236.702 179.99 236.372 179.99 235.542V233.852C180.015 233.401 180.146 232.963 180.372 232.572C180.598 232.181 180.912 231.849 181.29 231.602Z" fill="#E0E0E0"/>
<path d="M175.93 236.191V237.881C175.906 238.332 175.776 238.771 175.55 239.162C175.324 239.553 175.009 239.885 174.63 240.131L173.17 240.981C172.45 241.391 171.87 241.061 171.87 240.231V238.541C171.894 238.09 172.024 237.651 172.25 237.26C172.476 236.869 172.791 236.537 173.17 236.291L174.63 235.441C175.35 235.001 175.93 235.361 175.93 236.191Z" fill="#0CB8B6"/>
<path d="M181.29 240.941L200.73 229.711C201.44 229.301 202.02 229.631 202.02 230.461V232.151C201.997 232.601 201.868 233.039 201.644 233.43C201.42 233.821 201.107 234.154 200.73 234.401L181.29 245.631C180.57 246.051 179.99 245.711 179.99 244.891V243.191C180.018 242.741 180.149 242.303 180.375 241.913C180.601 241.522 180.914 241.19 181.29 240.941Z" fill="#E0E0E0"/>
<path d="M175.93 245.541V247.231C175.906 247.682 175.776 248.121 175.55 248.512C175.324 248.903 175.009 249.235 174.63 249.481L173.17 250.331C172.45 250.741 171.87 250.401 171.87 249.581V247.881C171.896 247.431 172.027 246.992 172.253 246.602C172.479 246.211 172.793 245.879 173.17 245.631L174.63 244.791C175.35 244.381 175.93 244.711 175.93 245.541Z" fill="#0CB8B6"/>
<path d="M181.29 271.941L200.73 260.701C201.44 260.291 202.02 260.621 202.02 261.451V263.141C201.997 263.591 201.868 264.029 201.644 264.42C201.42 264.811 201.107 265.144 200.73 265.391L181.29 276.631C180.57 277.041 179.99 276.711 179.99 275.881V274.191C180.015 273.741 180.146 273.302 180.372 272.911C180.598 272.52 180.912 272.188 181.29 271.941Z" fill="#E0E0E0"/>
<path d="M175.93 276.531V278.221C175.906 278.672 175.776 279.111 175.55 279.502C175.324 279.894 175.009 280.226 174.63 280.471L173.17 281.321C172.45 281.731 171.87 281.401 171.87 280.571V278.881C171.894 278.43 172.024 277.991 172.25 277.6C172.476 277.209 172.791 276.877 173.17 276.631L174.63 275.781C175.35 275.371 175.93 275.701 175.93 276.531Z" fill="#0CB8B6"/>
<path d="M181.29 280.21L200.73 269C201.44 268.59 202.02 268.92 202.02 269.75V271.44C201.997 271.89 201.868 272.328 201.644 272.719C201.42 273.11 201.107 273.443 200.73 273.69L181.29 284.9C180.57 285.32 179.99 284.98 179.99 284.15V282.46C180.018 282.01 180.149 281.572 180.375 281.182C180.601 280.791 180.914 280.459 181.29 280.21Z" fill="#E0E0E0"/>
<path d="M175.93 284.811V286.501C175.906 286.952 175.776 287.391 175.55 287.782C175.324 288.173 175.009 288.505 174.63 288.751L173.17 289.591C172.45 290.011 171.87 289.671 171.87 288.841V287.151C171.896 286.7 172.027 286.262 172.253 285.872C172.479 285.481 172.793 285.148 173.17 284.901L174.63 284.061C175.35 283.651 175.93 284.001 175.93 284.811Z" fill="#0CB8B6"/>
<path d="M181.29 288.49L200.73 277.26C201.44 276.84 202.02 277.18 202.02 278.01V279.7C201.995 280.15 201.866 280.588 201.642 280.978C201.418 281.369 201.105 281.702 200.73 281.95L181.29 293.18C180.57 293.6 179.99 293.26 179.99 292.43V290.74C180.017 290.29 180.148 289.852 180.374 289.462C180.6 289.071 180.913 288.738 181.29 288.49Z" fill="#E0E0E0"/>
<path d="M175.93 293.09V294.78C175.906 295.231 175.775 295.67 175.549 296.061C175.323 296.452 175.009 296.784 174.63 297.03L173.17 297.87C172.45 298.29 171.87 297.95 171.87 297.12V295.43C171.895 294.98 172.025 294.541 172.251 294.15C172.477 293.759 172.792 293.427 173.17 293.18L174.63 292.34C175.35 291.92 175.93 292.26 175.93 293.09Z" fill="#0CB8B6"/>
<path d="M179.99 251.15V254.06L182.52 251.15H179.99Z" fill="#0CB8B6"/>
<path d="M184.06 250.54C184.06 251.09 184.44 251.3 184.92 251.02L201.16 241.68C201.411 241.515 201.62 241.294 201.77 241.033C201.919 240.772 202.005 240.48 202.02 240.18C202.02 239.63 201.64 239.41 201.16 239.69L184.92 249.06C184.67 249.222 184.462 249.44 184.313 249.697C184.163 249.954 184.077 250.243 184.06 250.54Z" fill="#E0E0E0"/>
<path d="M179.99 255.83V258.75L182.52 255.83H179.99Z" fill="#0CB8B6"/>
<path d="M184.06 255.231C184.06 255.771 184.44 255.991 184.92 255.711L201.16 246.361C201.412 246.199 201.621 245.98 201.77 245.721C201.92 245.461 202.006 245.17 202.02 244.871C202.02 244.321 201.64 244.101 201.16 244.381L184.92 253.751C184.67 253.913 184.462 254.131 184.313 254.388C184.163 254.646 184.077 254.934 184.06 255.231Z" fill="#E0E0E0"/>
<path d="M179.99 260.521V263.441L182.52 260.521H179.99Z" fill="#0CB8B6"/>
<path d="M184.06 259.921C184.06 260.461 184.44 260.681 184.92 260.401L201.16 251.051C201.412 250.889 201.621 250.669 201.77 250.41C201.92 250.151 202.006 249.86 202.02 249.561C202.02 249.011 201.64 248.791 201.16 249.071L184.92 258.441C184.67 258.602 184.462 258.821 184.313 259.078C184.163 259.335 184.077 259.624 184.06 259.921Z" fill="#E0E0E0"/>
<path d="M179.99 265.211V268.131L182.52 265.211H179.99Z" fill="#0CB8B6"/>
<path d="M184.06 264.61C184.06 265.15 184.44 265.37 184.92 265.09L201.16 255.74C201.412 255.578 201.621 255.359 201.77 255.099C201.92 254.84 202.006 254.549 202.02 254.25C202.02 253.7 201.64 253.48 201.16 253.76L184.92 263.13C184.67 263.292 184.462 263.51 184.313 263.767C184.163 264.025 184.077 264.313 184.06 264.61Z" fill="#E0E0E0"/>
<path d="M220.61 202.791V227.231C220.61 228.231 221.33 228.671 222.22 228.161L249.09 212.641C249.559 212.338 249.95 211.928 250.23 211.444C250.51 210.961 250.671 210.418 250.7 209.861V189.771C250.7 188.771 249.98 188.331 249.09 188.841L233.5 197.841C232.61 198.351 231.89 197.941 231.89 196.921V196.281C231.89 195.281 231.18 194.841 230.29 195.351L222.22 200.001C221.751 200.306 221.361 200.718 221.081 201.203C220.802 201.688 220.64 202.232 220.61 202.791Z" fill="#0CB8B6"/>
<path d="M225.9 231.841V233.411C225.9 234.171 226.44 234.481 227.1 234.101L247.26 222.461C247.61 222.234 247.9 221.927 248.109 221.565C248.318 221.204 248.438 220.798 248.46 220.381V218.811C248.46 218.051 247.92 217.741 247.26 218.121L227.1 229.761C226.75 229.989 226.459 230.296 226.251 230.658C226.042 231.019 225.922 231.425 225.9 231.841Z" fill="#E0E0E0"/>
<path d="M258 181.342V205.782C258 206.782 258.72 207.212 259.6 206.702L286.47 191.192C286.937 190.887 287.327 190.476 287.606 189.993C287.886 189.511 288.048 188.969 288.08 188.412V168.312C288.08 167.312 287.36 166.872 286.47 167.382L270.88 176.382C269.99 176.892 269.28 176.472 269.28 175.452V174.812C269.28 173.812 268.56 173.382 267.67 173.892L259.6 178.552C259.133 178.858 258.744 179.27 258.466 179.755C258.188 180.24 258.028 180.783 258 181.342Z" fill="#0CB8B6"/>
<path d="M263.26 210.391V212.001C263.26 212.771 263.8 213.081 264.46 212.701L284.62 201.001C284.969 200.77 285.26 200.461 285.468 200.098C285.677 199.735 285.797 199.329 285.82 198.911V197.351C285.82 196.581 285.28 196.271 284.62 196.661L264.46 208.301C264.111 208.531 263.82 208.84 263.612 209.203C263.403 209.566 263.283 209.973 263.26 210.391Z" fill="#E0E0E0"/>
<path d="M220.61 251.891V276.331C220.61 277.331 221.33 277.771 222.22 277.261L249.09 261.741C249.553 261.441 249.939 261.037 250.219 260.561C250.498 260.086 250.663 259.552 250.7 259.001V238.901C250.7 237.901 249.98 237.471 249.09 237.981L233.5 246.981C232.61 247.491 231.89 247.081 231.89 246.061V245.421C231.89 244.421 231.18 243.981 230.29 244.491L222.22 249.151C221.757 249.451 221.371 249.855 221.091 250.331C220.812 250.807 220.647 251.341 220.61 251.891Z" fill="#0CB8B6"/>
<path d="M225.9 280.941V282.511C225.9 283.271 226.44 283.581 227.1 283.201L247.26 271.561C247.609 271.332 247.899 271.025 248.107 270.663C248.315 270.302 248.436 269.897 248.46 269.481V267.911C248.46 267.151 247.92 266.841 247.26 267.221L227.1 278.861C226.75 279.089 226.459 279.396 226.251 279.757C226.042 280.119 225.922 280.524 225.9 280.941Z" fill="#E0E0E0"/>
<path d="M258 230.431V254.871C258 255.871 258.72 256.311 259.6 255.801L286.47 240.281C286.938 239.979 287.328 239.571 287.607 239.089C287.887 238.608 288.049 238.067 288.08 237.511V217.411C288.08 216.411 287.36 215.971 286.47 216.481L270.88 225.481C269.99 225.991 269.28 225.571 269.28 224.551V223.911C269.28 222.911 268.56 222.471 267.67 222.991L259.6 227.651C259.133 227.956 258.745 228.366 258.467 228.85C258.189 229.333 258.029 229.875 258 230.431Z" fill="#0CB8B6"/>
<path d="M263.26 259.492V261.052C263.26 261.822 263.8 262.132 264.46 261.742L284.62 250.112C284.969 249.881 285.26 249.572 285.468 249.209C285.677 248.846 285.797 248.44 285.82 248.022V246.462C285.82 245.692 285.28 245.382 284.62 245.762L264.46 257.402C264.111 257.632 263.82 257.941 263.612 258.304C263.403 258.667 263.283 259.074 263.26 259.492Z" fill="#E0E0E0"/>
<path d="M295.78 158.701V183.141C295.78 184.141 296.5 184.581 297.38 184.071L324.26 168.551C324.726 168.245 325.114 167.835 325.392 167.352C325.67 166.869 325.83 166.327 325.86 165.771V145.681C325.86 144.681 325.14 144.241 324.26 144.751L308.66 153.751C307.78 154.271 307.06 153.851 307.06 152.831V152.191C307.06 151.191 306.34 150.751 305.45 151.261L297.38 155.931C296.915 156.234 296.527 156.643 296.249 157.125C295.971 157.606 295.811 158.146 295.78 158.701Z" fill="#0CB8B6"/>
<path d="M300.62 188.931V190.501C300.62 191.261 301.16 191.571 301.83 191.191L322 179.551C322.352 179.325 322.645 179.018 322.856 178.657C323.066 178.295 323.188 177.889 323.21 177.471V175.911C323.21 175.141 322.67 174.831 322 175.211L301.85 186.851C301.494 187.075 301.197 187.38 300.983 187.742C300.769 188.104 300.645 188.511 300.62 188.931Z" fill="#E0E0E0"/>
<path d="M332.7 138.431V162.871C332.7 163.871 333.42 164.301 334.31 163.791L361.18 148.281C361.646 147.976 362.034 147.565 362.312 147.082C362.59 146.599 362.75 146.058 362.78 145.501V125.401C362.78 124.401 362.07 123.961 361.18 124.471L345.59 133.471C344.7 133.981 343.98 133.561 343.98 132.541V131.901C343.98 130.901 343.27 130.471 342.38 130.981L334.31 135.641C333.84 135.945 333.448 136.357 333.168 136.842C332.888 137.327 332.728 137.872 332.7 138.431Z" fill="#0CB8B6"/>
<path d="M338 167.481V169.001C338 169.771 338.53 170.081 339.2 169.701L359.36 158.061C359.708 157.832 359.998 157.524 360.206 157.163C360.414 156.802 360.536 156.397 360.56 155.981V154.411C360.56 153.641 360.02 153.331 359.36 153.721L339.2 165.351C338.844 165.585 338.55 165.9 338.341 166.27C338.132 166.641 338.015 167.056 338 167.481Z" fill="#E0E0E0"/>
<path d="M300.62 238.001V239.571C300.62 240.331 301.16 240.641 301.83 240.261L322 228.631C322.352 228.405 322.645 228.098 322.856 227.737C323.066 227.375 323.188 226.969 323.21 226.551V225.001C323.21 224.241 322.67 223.931 322 224.311L301.85 235.951C301.498 236.172 301.203 236.472 300.99 236.829C300.776 237.185 300.649 237.586 300.62 238.001Z" fill="#E0E0E0"/>
<path d="M301.13 203.66L322 191.59C322.95 191.04 323.73 191.49 323.73 192.59V216.73C323.697 217.331 323.524 217.916 323.223 218.437C322.923 218.958 322.504 219.401 322 219.73L301.13 231.8C300.13 232.35 299.4 231.91 299.4 230.8V206.66C299.433 206.06 299.607 205.475 299.908 204.954C300.208 204.433 300.627 203.99 301.13 203.66Z" fill="#FAFAFA"/>
<path d="M300.35 232.541C300.105 232.543 299.864 232.481 299.65 232.361C299.397 232.192 299.193 231.958 299.062 231.684C298.93 231.409 298.874 231.104 298.9 230.801V206.661C298.935 205.971 299.135 205.299 299.483 204.703C299.831 204.106 300.317 203.601 300.9 203.231L321.81 191.161C322.059 190.987 322.351 190.885 322.653 190.863C322.956 190.842 323.259 190.904 323.53 191.041C323.783 191.209 323.986 191.441 324.12 191.713C324.253 191.985 324.312 192.288 324.29 192.591V216.731C324.255 217.421 324.055 218.092 323.707 218.689C323.359 219.286 322.873 219.791 322.29 220.161L301.38 232.241C301.069 232.429 300.714 232.532 300.35 232.541ZM322.81 191.861C322.624 191.868 322.444 191.927 322.29 192.031L301.38 204.101C300.951 204.383 300.594 204.761 300.337 205.206C300.08 205.65 299.931 206.149 299.9 206.661V230.801C299.9 231.151 299.99 231.401 300.15 231.491C300.272 231.531 300.403 231.541 300.53 231.52C300.657 231.499 300.777 231.448 300.88 231.371L321.79 219.301C322.217 219.015 322.573 218.634 322.83 218.189C323.087 217.743 323.237 217.244 323.27 216.731V192.591C323.285 192.463 323.269 192.334 323.224 192.214C323.179 192.094 323.105 191.987 323.01 191.901C322.948 191.871 322.879 191.858 322.81 191.861Z" fill="#EBEBEB"/>
<path d="M324.5 194.85L319.84 197.54C319.334 197.868 318.913 198.31 318.611 198.832C318.309 199.353 318.134 199.938 318.1 200.54V205.92C318.1 207.03 318.88 207.48 319.84 206.92L324.5 204.23C325.004 203.901 325.423 203.458 325.724 202.937C326.024 202.415 326.198 201.831 326.23 201.23V195.85C326.23 194.75 325.45 194.3 324.5 194.85Z" fill="#0CB8B6"/>
<path d="M302.72 206.271L313.2 200.271C313.67 200.001 314.06 200.221 314.06 200.781V201.111C314.042 201.411 313.956 201.702 313.806 201.962C313.657 202.223 313.45 202.445 313.2 202.611L302.72 208.611C302.24 208.891 301.85 208.671 301.86 208.111V207.771C301.875 207.471 301.961 207.179 302.111 206.918C302.26 206.658 302.469 206.436 302.72 206.271Z" fill="#EBEBEB"/>
<path d="M302.72 211L313.2 205C313.67 204.72 314.06 204.95 314.06 205.5V205.83C314.045 206.13 313.959 206.423 313.81 206.683C313.66 206.944 313.451 207.166 313.2 207.33L302.72 213.33C302.24 213.61 301.85 213.33 301.86 212.83V212.48C301.878 212.184 301.966 211.896 302.115 211.639C302.264 211.382 302.471 211.163 302.72 211Z" fill="#EBEBEB"/>
<path d="M302.72 215.641L313.2 209.641C313.67 209.371 314.06 209.591 314.06 210.141V210.481C314.042 210.78 313.956 211.071 313.806 211.332C313.657 211.592 313.45 211.814 313.2 211.981L302.72 217.981C302.24 218.261 301.85 218.041 301.86 217.481V217.141C301.875 216.84 301.96 216.548 302.11 216.287C302.259 216.026 302.468 215.805 302.72 215.641Z" fill="#EBEBEB"/>
<path d="M302.72 220.322L320.12 210.322C320.6 210.052 320.99 210.322 320.99 210.822V211.162C320.973 211.462 320.885 211.755 320.734 212.015C320.583 212.276 320.373 212.497 320.12 212.662L302.72 222.662C302.24 222.932 301.85 222.712 301.86 222.162V221.812C301.877 221.513 301.963 221.223 302.113 220.964C302.262 220.705 302.47 220.485 302.72 220.322Z" fill="#EBEBEB"/>
<path d="M302.72 225.002L320.12 215.002C320.6 214.722 320.99 215.002 320.99 215.502V215.832C320.974 216.133 320.886 216.425 320.735 216.686C320.584 216.947 320.373 217.168 320.12 217.332L302.72 227.332C302.24 227.612 301.85 227.382 301.86 226.832V226.492C301.874 226.193 301.96 225.902 302.11 225.643C302.259 225.383 302.468 225.164 302.72 225.002Z" fill="#EBEBEB"/>
<path d="M337.18 216.912V218.472C337.18 219.242 337.72 219.552 338.38 219.172L358.54 207.532C358.89 207.302 359.182 206.994 359.39 206.63C359.599 206.267 359.719 205.86 359.74 205.442V203.882C359.74 203.112 359.21 202.802 358.54 203.182L338.38 214.822C338.031 215.052 337.74 215.361 337.532 215.724C337.324 216.087 337.203 216.494 337.18 216.912Z" fill="#E0E0E0"/>
<path d="M337.69 182.561L358.59 170.491C359.59 169.931 360.33 170.381 360.33 171.491V195.631C360.295 196.232 360.119 196.817 359.817 197.338C359.515 197.859 359.095 198.302 358.59 198.631L337.69 210.701C336.69 211.251 335.95 210.801 335.95 209.701V185.561C335.983 184.959 336.158 184.373 336.46 183.852C336.762 183.331 337.184 182.888 337.69 182.561Z" fill="#FAFAFA"/>
<path d="M336.91 211.43C336.665 211.433 336.424 211.371 336.21 211.25C335.957 211.083 335.754 210.851 335.62 210.578C335.487 210.306 335.428 210.003 335.45 209.7V185.56C335.483 184.869 335.682 184.195 336.03 183.596C336.378 182.998 336.865 182.491 337.45 182.12L358.35 170.05C358.594 169.86 358.889 169.746 359.197 169.725C359.506 169.703 359.814 169.774 360.082 169.929C360.349 170.084 360.565 170.315 360.7 170.594C360.835 170.872 360.884 171.184 360.84 171.49V195.63C360.806 196.321 360.607 196.992 360.258 197.589C359.91 198.186 359.424 198.691 358.84 199.06L337.94 211.13C337.629 211.318 337.274 211.422 336.91 211.43ZM337.91 182.99C337.479 183.274 337.12 183.653 336.862 184.099C336.603 184.545 336.452 185.046 336.42 185.56V209.7C336.405 209.828 336.421 209.957 336.466 210.077C336.511 210.197 336.584 210.305 336.68 210.39C336.803 210.431 336.934 210.44 337.061 210.418C337.189 210.395 337.309 210.341 337.41 210.26L358.31 198.19C358.74 197.909 359.099 197.531 359.357 197.086C359.616 196.642 359.768 196.143 359.8 195.63V171.49C359.854 171.36 359.859 171.214 359.813 171.08C359.767 170.946 359.674 170.834 359.552 170.764C359.429 170.694 359.285 170.671 359.146 170.7C359.008 170.729 358.885 170.807 358.8 170.92L337.91 182.99Z" fill="#EBEBEB"/>
<path d="M361.05 173.751L356.39 176.441C355.886 176.77 355.467 177.213 355.167 177.734C354.866 178.255 354.692 178.84 354.66 179.441V184.821C354.66 185.921 355.44 186.371 356.39 185.821L361.05 183.131C361.555 182.802 361.975 182.359 362.277 181.838C362.579 181.317 362.755 180.732 362.79 180.131V174.751C362.79 173.641 362 173.191 361.05 173.751Z" fill="#0CB8B6"/>
<path d="M339.28 185.162L349.75 179.162C350.23 178.882 350.62 179.162 350.62 179.662V180.002C350.605 180.303 350.519 180.597 350.367 180.857C350.216 181.118 350.004 181.339 349.75 181.502L339.28 187.502C338.8 187.782 338.41 187.552 338.41 187.002V186.652C338.429 186.353 338.517 186.062 338.668 185.804C338.819 185.545 339.029 185.325 339.28 185.162Z" fill="#EBEBEB"/>
<path d="M339.28 189.851L349.75 183.851C350.23 183.581 350.62 183.851 350.62 184.351V184.691C350.603 184.992 350.515 185.284 350.364 185.545C350.213 185.805 350.003 186.027 349.75 186.191L339.28 192.191C338.8 192.471 338.41 192.251 338.41 191.691V191.351C338.426 191.05 338.514 190.757 338.665 190.496C338.816 190.236 339.027 190.015 339.28 189.851Z" fill="#EBEBEB"/>
<path d="M339.28 194.531L349.75 188.531C350.23 188.251 350.62 188.531 350.62 189.031V189.361C350.604 189.662 350.516 189.955 350.365 190.215C350.214 190.476 350.003 190.697 349.75 190.861L339.28 196.861C338.8 197.131 338.41 196.911 338.41 196.361V196.001C338.432 195.705 338.522 195.419 338.673 195.164C338.823 194.909 339.031 194.692 339.28 194.531Z" fill="#EBEBEB"/>
<path d="M339.28 199.221L356.68 189.221C357.16 188.941 357.55 189.171 357.55 189.721V190.001C357.533 190.302 357.445 190.594 357.294 190.855C357.143 191.116 356.933 191.337 356.68 191.501L339.28 201.501C338.8 201.781 338.41 201.551 338.41 201.001V200.661C338.434 200.37 338.525 200.089 338.676 199.839C338.827 199.589 339.034 199.378 339.28 199.221Z" fill="#EBEBEB"/>
<path d="M339.28 203.9L356.68 193.9C357.16 193.63 357.55 193.85 357.55 194.4V194.74C357.533 195.041 357.445 195.334 357.294 195.594C357.143 195.855 356.933 196.076 356.68 196.24L339.28 206.24C338.8 206.51 338.41 206.29 338.41 205.74V205.39C338.429 205.091 338.517 204.801 338.668 204.542C338.819 204.283 339.029 204.064 339.28 203.9Z" fill="#EBEBEB"/>
<path d="M300.62 287.832V289.402C300.62 290.162 301.16 290.472 301.83 290.092L322 278.452C322.352 278.226 322.646 277.919 322.856 277.557C323.066 277.196 323.188 276.789 323.21 276.372V274.802C323.21 274.042 322.67 273.732 322 274.112L301.85 285.752C301.494 285.975 301.197 286.281 300.983 286.643C300.769 287.004 300.645 287.412 300.62 287.832Z" fill="#E0E0E0"/>
<path d="M301.13 253.481L322 241.411C322.95 240.861 323.73 241.311 323.73 242.411V266.551C323.696 267.151 323.522 267.735 323.221 268.256C322.921 268.777 322.503 269.22 322 269.551L301.09 281.621C300.09 282.171 299.36 281.731 299.36 280.621V256.481C299.396 255.876 299.576 255.289 299.883 254.767C300.191 254.245 300.618 253.804 301.13 253.481Z" fill="#FAFAFA"/>
<path d="M300.35 282.361C300.105 282.364 299.863 282.302 299.65 282.181C299.398 282.011 299.196 281.777 299.064 281.503C298.933 281.229 298.876 280.925 298.9 280.621V256.481C298.935 255.791 299.135 255.12 299.483 254.523C299.831 253.926 300.317 253.422 300.9 253.051L321.79 241.001C322.033 240.815 322.326 240.705 322.631 240.685C322.937 240.665 323.242 240.736 323.507 240.889C323.772 241.042 323.987 241.27 324.122 241.545C324.258 241.819 324.309 242.128 324.27 242.431V266.571C324.235 267.261 324.035 267.933 323.687 268.53C323.339 269.127 322.853 269.631 322.27 270.001L301.36 282.071C301.053 282.252 300.706 282.351 300.35 282.361ZM322.81 241.671C322.625 241.683 322.446 241.741 322.29 241.841L301.38 253.921C300.951 254.203 300.593 254.581 300.336 255.026C300.079 255.47 299.93 255.969 299.9 256.481V280.621C299.846 280.752 299.841 280.898 299.887 281.032C299.933 281.165 300.026 281.278 300.148 281.348C300.271 281.418 300.415 281.441 300.554 281.412C300.692 281.383 300.815 281.305 300.9 281.191L321.81 269.121C322.237 268.835 322.593 268.455 322.85 268.009C323.106 267.563 323.257 267.065 323.29 266.551V242.411C323.305 242.284 323.289 242.155 323.244 242.035C323.199 241.915 323.125 241.807 323.03 241.721C322.963 241.685 322.886 241.668 322.81 241.671Z" fill="#EBEBEB"/>
<path d="M324.5 244.67L319.84 247.36C319.334 247.688 318.913 248.131 318.611 248.652C318.309 249.173 318.134 249.759 318.1 250.36V255.74C318.1 256.85 318.88 257.29 319.84 256.74L324.5 254.05C325.004 253.721 325.423 253.278 325.724 252.757C326.024 252.236 326.198 251.651 326.23 251.05V245.67C326.23 244.57 325.45 244.12 324.5 244.67Z" fill="#0CB8B6"/>
<path d="M302.72 256.092L313.2 250.092C313.67 249.822 314.06 250.042 314.06 250.592V250.932C314.042 251.231 313.956 251.523 313.806 251.783C313.657 252.043 313.45 252.265 313.2 252.432L302.72 258.432C302.24 258.712 301.85 258.492 301.86 257.932V257.592C301.875 257.292 301.96 256.999 302.11 256.738C302.259 256.477 302.468 256.256 302.72 256.092Z" fill="#EBEBEB"/>
<path d="M302.72 260.77L313.2 254.77C313.67 254.49 314.06 254.72 314.06 255.27V255.6C314.044 255.9 313.958 256.192 313.808 256.452C313.659 256.713 313.451 256.935 313.2 257.1L302.72 263.1C302.24 263.37 301.85 263.15 301.86 262.6V262.25C301.878 261.953 301.966 261.665 302.115 261.408C302.264 261.151 302.471 260.933 302.72 260.77Z" fill="#EBEBEB"/>
<path d="M302.72 265.461L313.2 259.461C313.67 259.191 314.06 259.411 314.06 259.961V260.301C314.042 260.6 313.956 260.892 313.806 261.152C313.657 261.412 313.45 261.634 313.2 261.801L302.72 267.801C302.24 268.081 301.85 267.851 301.86 267.301V267.001C301.867 266.693 301.948 266.392 302.098 266.124C302.248 265.855 302.462 265.628 302.72 265.461Z" fill="#EBEBEB"/>
<path d="M302.72 270.141L320.12 260.141C320.6 259.871 320.99 260.091 320.99 260.641V261.001C320.973 261.301 320.885 261.594 320.734 261.854C320.583 262.115 320.373 262.336 320.12 262.501L302.72 272.501C302.24 272.771 301.85 272.551 301.86 272.001V271.651C301.874 271.349 301.959 271.055 302.108 270.792C302.258 270.53 302.468 270.306 302.72 270.141Z" fill="#EBEBEB"/>
<path d="M302.72 274.83L320.12 264.83C320.6 264.55 320.99 264.77 320.99 265.33V265.66C320.973 265.961 320.885 266.254 320.734 266.514C320.583 266.775 320.373 266.996 320.12 267.16L302.72 277.16C302.24 277.44 301.85 277.21 301.86 276.66V276.32C301.874 276.022 301.96 275.73 302.11 275.471C302.259 275.212 302.468 274.992 302.72 274.83Z" fill="#EBEBEB"/>
<path d="M337.18 266.72V268.29C337.18 269.06 337.72 269.37 338.38 268.98L358.54 257.35C358.89 257.121 359.182 256.812 359.39 256.449C359.599 256.086 359.719 255.678 359.74 255.26V253.7C359.74 252.93 359.21 252.62 358.54 253L338.38 264.64C338.032 264.87 337.742 265.177 337.534 265.538C337.326 265.899 337.205 266.304 337.18 266.72Z" fill="#E0E0E0"/>
<path d="M337.69 232.381L358.59 220.311C359.59 219.751 360.33 220.201 360.33 221.311V245.441C360.297 246.043 360.123 246.629 359.82 247.15C359.518 247.671 359.096 248.114 358.59 248.441L337.69 260.521C336.69 261.071 335.95 260.621 335.95 259.521V235.381C335.983 234.779 336.158 234.194 336.46 233.672C336.762 233.151 337.184 232.709 337.69 232.381Z" fill="#FAFAFA"/>
<path d="M336.91 261.251C336.665 261.253 336.424 261.191 336.21 261.071C335.957 260.903 335.754 260.671 335.62 260.399C335.487 260.126 335.428 259.823 335.45 259.521V235.381C335.482 234.689 335.681 234.015 336.029 233.416C336.377 232.817 336.865 232.311 337.45 231.941L358.35 219.871C358.594 219.68 358.889 219.566 359.197 219.545C359.506 219.523 359.814 219.594 360.082 219.749C360.349 219.904 360.565 220.136 360.7 220.414C360.835 220.692 360.884 221.004 360.84 221.311V245.441C360.808 246.133 360.609 246.806 360.261 247.405C359.913 248.004 359.425 248.51 358.84 248.881L337.94 261.001C337.624 261.171 337.269 261.257 336.91 261.251ZM337.91 232.811C337.479 233.094 337.12 233.474 336.862 233.92C336.603 234.366 336.452 234.866 336.42 235.381V259.521C336.403 259.647 336.418 259.775 336.463 259.894C336.509 260.013 336.583 260.118 336.68 260.201C336.802 260.244 336.933 260.255 337.06 260.234C337.188 260.213 337.308 260.16 337.41 260.081L358.34 248.001C358.771 247.717 359.13 247.338 359.388 246.892C359.647 246.446 359.798 245.945 359.83 245.431V221.311C359.884 221.18 359.889 221.034 359.843 220.9C359.797 220.767 359.704 220.654 359.582 220.584C359.459 220.514 359.315 220.492 359.176 220.52C359.038 220.549 358.915 220.627 358.83 220.741L337.91 232.811Z" fill="#EBEBEB"/>
<path d="M361.05 223.571L356.39 226.261C355.886 226.59 355.467 227.034 355.167 227.555C354.866 228.076 354.692 228.661 354.66 229.261V234.641C354.66 235.741 355.44 236.191 356.39 235.641L361.05 232.951C361.555 232.622 361.975 232.18 362.277 231.658C362.579 231.137 362.755 230.553 362.79 229.951V224.571C362.79 223.461 362 223.001 361.05 223.571Z" fill="#0CB8B6"/>
<path d="M339.28 235L349.75 229C350.23 228.72 350.62 228.95 350.62 229.5V229.83C350.604 230.131 350.516 230.424 350.365 230.685C350.214 230.946 350.003 231.167 349.75 231.33L339.28 237.33C338.8 237.6 338.41 237.33 338.41 236.83V236.48C338.43 236.183 338.519 235.895 338.67 235.638C338.821 235.381 339.03 235.163 339.28 235Z" fill="#EBEBEB"/>
<path d="M339.28 239.671L349.75 233.671C350.23 233.401 350.62 233.671 350.62 234.171V234.511C350.603 234.812 350.515 235.104 350.364 235.365C350.213 235.626 350.003 235.847 349.75 236.011L339.28 242.011C338.8 242.291 338.41 242.061 338.41 241.511V241.171C338.425 240.87 338.511 240.576 338.663 240.315C338.814 240.055 339.026 239.834 339.28 239.671Z" fill="#EBEBEB"/>
<path d="M339.28 244.352L349.75 238.352C350.23 238.072 350.62 238.292 350.62 238.852V239.182C350.603 239.483 350.515 239.775 350.364 240.036C350.213 240.296 350.003 240.518 349.75 240.682L339.28 246.682C338.8 246.952 338.41 246.732 338.41 246.182V245.832C338.43 245.535 338.519 245.246 338.67 244.989C338.821 244.732 339.03 244.514 339.28 244.352Z" fill="#EBEBEB"/>
<path d="M339.28 249L356.68 239C357.16 238.72 357.55 238.94 357.55 239.5V239.83C357.533 240.131 357.445 240.424 357.294 240.684C357.143 240.945 356.933 241.166 356.68 241.33L339.28 251.33C338.8 251.61 338.41 251.38 338.41 250.83V250.49C338.426 250.191 338.514 249.899 338.665 249.64C338.816 249.381 339.027 249.162 339.28 249Z" fill="#EBEBEB"/>
<path d="M339.28 253.721L356.68 243.721C357.16 243.441 357.55 243.671 357.55 244.221V244.551C357.535 244.852 357.449 245.146 357.297 245.407C357.146 245.668 356.934 245.889 356.68 246.051L339.28 256.051C338.8 256.321 338.41 256.101 338.41 255.551V255.201C338.43 254.904 338.519 254.615 338.67 254.358C338.821 254.102 339.03 253.883 339.28 253.721Z" fill="#EBEBEB"/>
<path d="M225.9 331.001V332.561C225.9 333.331 226.44 333.641 227.11 333.261L247.26 321.621C247.612 321.395 247.904 321.088 248.115 320.726C248.325 320.365 248.447 319.959 248.47 319.541V318.001C248.47 317.231 247.93 316.921 247.26 317.311L227.11 328.941C226.762 329.167 226.472 329.471 226.262 329.828C226.052 330.186 225.928 330.587 225.9 331.001Z" fill="#E0E0E0"/>
<path d="M226.41 296.65L247.32 284.58C248.32 284.03 249.05 284.47 249.05 285.58V309.72C249.015 310.321 248.841 310.904 248.54 311.425C248.24 311.946 247.822 312.39 247.32 312.72L226.41 324.79C225.41 325.34 224.68 324.89 224.68 323.79V299.65C224.711 299.049 224.884 298.464 225.184 297.942C225.485 297.421 225.905 296.978 226.41 296.65Z" fill="#FAFAFA"/>
<path d="M225.63 325.521C225.385 325.523 225.144 325.461 224.93 325.341C224.678 325.173 224.476 324.941 224.344 324.668C224.212 324.396 224.156 324.093 224.18 323.791V299.651C224.215 298.961 224.415 298.29 224.763 297.693C225.111 297.096 225.597 296.591 226.18 296.221L247.09 284.151C247.332 283.96 247.626 283.845 247.933 283.823C248.241 283.8 248.548 283.87 248.816 284.024C249.083 284.178 249.298 284.409 249.432 284.687C249.567 284.964 249.615 285.276 249.57 285.581V309.721C249.535 310.411 249.335 311.083 248.987 311.68C248.639 312.276 248.153 312.781 247.57 313.151L226.66 325.221C226.349 325.409 225.994 325.513 225.63 325.521ZM226.66 297.081C226.231 297.366 225.874 297.746 225.617 298.192C225.36 298.638 225.211 299.137 225.18 299.651V323.791C225.126 323.922 225.121 324.068 225.167 324.201C225.213 324.335 225.306 324.448 225.428 324.518C225.551 324.588 225.695 324.61 225.834 324.582C225.972 324.553 226.095 324.474 226.18 324.361L247.09 312.281C247.517 311.997 247.873 311.619 248.13 311.174C248.387 310.73 248.537 310.233 248.57 309.721V285.581C248.624 285.451 248.629 285.305 248.583 285.171C248.537 285.037 248.444 284.925 248.322 284.855C248.199 284.785 248.055 284.762 247.916 284.791C247.778 284.82 247.655 284.898 247.57 285.011L226.66 297.081Z" fill="#EBEBEB"/>
<path d="M249.78 287.84L245.12 290.53C244.614 290.857 244.192 291.3 243.89 291.821C243.588 292.343 243.413 292.928 243.38 293.53V298.91C243.38 300.01 244.16 300.46 245.12 299.91L249.78 297.22C250.283 296.89 250.701 296.447 251.001 295.926C251.302 295.405 251.476 294.82 251.51 294.22V288.84C251.51 287.73 250.73 287.29 249.78 287.84Z" fill="#0CB8B6"/>
<path d="M228 299.26L238.48 293.26C238.95 292.98 239.34 293.21 239.34 293.76V294.09C239.325 294.39 239.239 294.682 239.09 294.943C238.94 295.204 238.731 295.425 238.48 295.59L228 301.59C227.52 301.87 227.14 301.59 227.14 301.09V300.75C227.155 300.451 227.24 300.16 227.39 299.901C227.539 299.642 227.749 299.422 228 299.26Z" fill="#EBEBEB"/>
<path d="M228 303.941L238.48 297.941C238.95 297.671 239.34 297.891 239.34 298.451V298.781C239.322 299.081 239.236 299.372 239.086 299.632C238.937 299.892 238.73 300.115 238.48 300.281L228 306.281C227.52 306.551 227.14 306.281 227.14 305.781V305.431C227.157 305.133 227.243 304.843 227.393 304.584C227.542 304.325 227.75 304.105 228 303.941Z" fill="#EBEBEB"/>
<path d="M228 308.631L238.48 302.631C238.95 302.351 239.34 302.581 239.34 303.131V303.461C239.325 303.761 239.239 304.054 239.09 304.314C238.94 304.575 238.731 304.796 238.48 304.961L228 311.001C227.52 311.281 227.14 311.001 227.14 310.501V310.151C227.15 309.847 227.233 309.55 227.383 309.285C227.533 309.021 227.745 308.796 228 308.631Z" fill="#EBEBEB"/>
<path d="M228 313.31L245.4 303.31C245.88 303.03 246.27 303.31 246.27 303.81V304.14C246.255 304.442 246.169 304.735 246.017 304.996C245.866 305.257 245.654 305.478 245.4 305.64L228 315.64C227.52 315.92 227.14 315.7 227.14 315.14V314.8C227.157 314.502 227.244 314.212 227.393 313.953C227.542 313.694 227.75 313.474 228 313.31Z" fill="#EBEBEB"/>
<path d="M228 318.001L245.4 308.001C245.88 307.731 246.27 308.001 246.27 308.501V308.841C246.253 309.142 246.165 309.434 246.014 309.695C245.863 309.956 245.653 310.177 245.4 310.341L228 320.341C227.52 320.611 227.14 320.391 227.14 319.841V319.491C227.157 319.193 227.244 318.903 227.393 318.644C227.542 318.385 227.75 318.165 228 318.001Z" fill="#EBEBEB"/>
<path d="M262.46 309.89V311.46C262.46 312.22 263 312.54 263.66 312.15L283.82 300.51C284.171 300.284 284.464 299.977 284.672 299.615C284.881 299.254 285 298.847 285.02 298.43V296.87C285.02 296.1 284.49 295.79 283.82 296.17L263.66 307.81C263.311 308.039 263.021 308.346 262.813 308.707C262.605 309.069 262.484 309.474 262.46 309.89Z" fill="#E0E0E0"/>
<path d="M263 275.541L283.9 263.471C284.9 262.921 285.64 263.371 285.64 264.471V288.611C285.607 289.213 285.432 289.799 285.13 290.32C284.828 290.841 284.406 291.284 283.9 291.611L263 303.681C262 304.241 261.26 303.791 261.26 302.681V278.541C261.295 277.94 261.471 277.355 261.773 276.834C262.075 276.313 262.496 275.87 263 275.541Z" fill="#FAFAFA"/>
<path d="M262.19 304.42C261.945 304.423 261.704 304.361 261.49 304.24C261.237 304.07 261.034 303.836 260.9 303.562C260.767 303.289 260.708 302.984 260.73 302.68V278.54C260.766 277.851 260.966 277.179 261.314 276.583C261.662 275.986 262.147 275.481 262.73 275.11L283.62 263C283.863 262.811 284.157 262.698 284.464 262.676C284.772 262.654 285.079 262.724 285.346 262.878C285.613 263.031 285.829 263.261 285.965 263.537C286.101 263.814 286.151 264.125 286.11 264.43V288.57C286.078 289.261 285.879 289.933 285.531 290.531C285.183 291.128 284.695 291.632 284.11 292L263.21 304.08C262.906 304.281 262.554 304.398 262.19 304.42ZM284.65 263.74C284.461 263.746 284.277 263.805 284.12 263.91L263.22 276C262.79 276.282 262.431 276.66 262.173 277.104C261.914 277.549 261.763 278.047 261.73 278.56V302.7C261.712 302.828 261.727 302.958 261.772 303.078C261.818 303.199 261.892 303.306 261.99 303.39C262.112 303.431 262.243 303.441 262.37 303.42C262.497 303.399 262.617 303.348 262.72 303.27L283.62 291.2C284.05 290.916 284.409 290.537 284.668 290.091C284.926 289.645 285.078 289.145 285.11 288.63V264.47C285.125 264.343 285.11 264.214 285.064 264.094C285.019 263.973 284.946 263.866 284.85 263.78C284.787 263.752 284.719 263.738 284.65 263.74Z" fill="#EBEBEB"/>
<path d="M286.33 266.731L281.67 269.421C281.168 269.752 280.75 270.195 280.45 270.716C280.149 271.237 279.975 271.821 279.94 272.421V277.801C279.94 278.911 280.72 279.361 281.67 278.801L286.33 276.111C286.836 275.783 287.258 275.341 287.56 274.82C287.863 274.298 288.037 273.713 288.07 273.111V267.731C288.07 266.631 287.29 266.181 286.33 266.731Z" fill="#0CB8B6"/>
<path d="M264.56 278.15L275.03 272.15C275.51 271.88 275.9 272.1 275.9 272.66V273C275.883 273.301 275.795 273.593 275.644 273.854C275.493 274.114 275.282 274.336 275.03 274.5L264.56 280.5C264.08 280.77 263.69 280.55 263.69 279.99V279.65C263.707 279.349 263.795 279.057 263.946 278.796C264.097 278.536 264.307 278.314 264.56 278.15Z" fill="#EBEBEB"/>
<path d="M264.56 282.84L275.03 276.84C275.51 276.56 275.9 276.79 275.9 277.34V277.67C275.885 277.972 275.798 278.265 275.647 278.526C275.496 278.787 275.284 279.008 275.03 279.17L264.56 285.17C264.08 285.45 263.69 285.22 263.69 284.67V284.32C263.708 284.022 263.796 283.733 263.947 283.476C264.098 283.219 264.308 283.001 264.56 282.84Z" fill="#EBEBEB"/>
<path d="M264.56 287.521L275.03 281.521C275.51 281.251 275.9 281.471 275.9 282.021V282.361C275.883 282.662 275.795 282.955 275.644 283.215C275.493 283.476 275.282 283.697 275.03 283.861L264.56 289.861C264.08 290.141 263.69 289.921 263.69 289.361V289.001C263.71 288.704 263.799 288.416 263.95 288.159C264.101 287.902 264.31 287.684 264.56 287.521Z" fill="#EBEBEB"/>
<path d="M264.56 292.201L281.96 282.201C282.44 281.931 282.83 282.151 282.83 282.701V283.001C282.813 283.302 282.725 283.594 282.574 283.855C282.423 284.116 282.213 284.337 281.96 284.501L264.56 294.501C264.08 294.771 263.69 294.551 263.69 294.001V293.651C263.715 293.359 263.806 293.077 263.957 292.825C264.108 292.574 264.314 292.36 264.56 292.201Z" fill="#EBEBEB"/>
<path d="M264.56 296.891L281.96 286.891C282.44 286.611 282.83 286.841 282.83 287.391V287.721C282.814 288.022 282.726 288.315 282.575 288.575C282.424 288.836 282.213 289.057 281.96 289.221L264.56 299.221C264.08 299.501 263.69 299.221 263.69 298.721V298.381C263.706 298.081 263.794 297.79 263.945 297.531C264.096 297.272 264.307 297.053 264.56 296.891Z" fill="#EBEBEB"/>
<path d="M167.81 201.911L163.75 199.541V218.311L167.81 220.661V201.911Z" fill="#0CB8B6"/>
<path opacity="0.1" d="M167.81 201.911L163.75 199.541V218.311L167.81 220.661V201.911Z" fill="black"/>
<path d="M407.73 279.469C407.267 279.26 406.758 279.175 406.253 279.225C405.747 279.274 405.263 279.455 404.85 279.749C403.67 280.516 402.686 281.549 401.978 282.764C401.269 283.98 400.855 285.345 400.77 286.749C400.716 287.254 400.797 287.765 401.005 288.228C401.212 288.692 401.538 289.092 401.95 289.389L452.57 321.389C453.57 322.089 455.08 322.049 456.73 321.099C458.388 320.026 459.77 318.576 460.762 316.868C461.754 315.16 462.329 313.242 462.44 311.269C462.44 309.369 461.74 308.059 460.62 307.509L407.73 279.469Z" fill="#0CB8B6"/>
<path opacity="0.15" d="M400.77 286.79C400.77 289.38 402.58 290.44 404.83 289.15C406.01 288.383 406.994 287.35 407.702 286.135C408.411 284.919 408.824 283.554 408.91 282.15C408.91 279.56 407.1 278.5 404.85 279.79C403.67 280.556 402.686 281.589 401.978 282.805C401.269 284.02 400.855 285.385 400.77 286.79Z" fill="black"/>
<path d="M389.57 272.741C388.852 273.206 388.254 273.834 387.824 274.575C387.395 275.315 387.147 276.146 387.1 277.001C387.068 277.305 387.117 277.612 387.242 277.891C387.366 278.17 387.562 278.412 387.81 278.591L403.09 287.461C403.367 287.59 403.674 287.642 403.978 287.612C404.282 287.582 404.573 287.471 404.82 287.291C405.546 286.826 406.15 286.193 406.581 285.447C407.013 284.701 407.259 283.862 407.3 283.001C407.336 282.695 407.289 282.385 407.164 282.104C407.039 281.822 406.841 281.58 406.59 281.401L391.31 272.531C391.028 272.408 390.717 272.362 390.411 272.399C390.106 272.436 389.815 272.554 389.57 272.741Z" fill="#263238"/>
<path opacity="0.1" d="M406.74 287.49L458.82 319.49C458.203 320.13 457.504 320.685 456.74 321.14C455.09 322.09 453.61 322.14 452.57 321.43L401.96 289.43C402.42 289.643 402.929 289.729 403.433 289.68C403.937 289.631 404.42 289.448 404.83 289.15C405.557 288.711 406.203 288.149 406.74 287.49Z" fill="black"/>
<path d="M415.48 241.93C415.48 241.5 415.48 241.09 415.42 240.67C415.36 240.25 415.37 239.84 415.32 239.43C415.27 239.02 415.27 238.89 415.24 238.62C415.17 237.9 415.06 237.2 414.95 236.53C414.89 236.23 414.84 235.91 414.78 235.61C414.72 235.31 414.66 235.04 414.6 234.75C414.42 233.98 414.24 233.22 414.02 232.5C413.9 232.16 413.8 231.81 413.68 231.5C413.66 231.448 413.644 231.395 413.63 231.34C413.5 231 413.39 230.68 413.26 230.34C413.125 229.973 412.971 229.612 412.8 229.26C412.691 228.997 412.567 228.74 412.43 228.49C412.358 228.302 412.268 228.121 412.16 227.95C412.06 227.73 411.94 227.51 411.82 227.3L411.73 227.15C411.63 226.96 411.51 226.78 411.4 226.59C411.29 226.4 411.24 226.35 411.17 226.23C410.631 225.386 410.029 224.584 409.37 223.83C409.25 223.71 409.14 223.58 409.03 223.46C408.92 223.34 408.84 223.26 408.75 223.16L408.38 222.8C408.039 222.443 407.675 222.109 407.29 221.8C407.115 221.646 406.932 221.503 406.74 221.37C406.55 221.22 406.36 221.08 406.16 220.95C405.862 220.729 405.552 220.525 405.23 220.34L404.98 220.18H404.93L393.93 213.79L393.85 213.74C391.003 212.153 387.79 211.339 384.53 211.38C379.67 211.38 374.19 212.98 368.38 216.33C348.38 227.85 332.24 255.87 332.24 278.93C332.24 290.42 336.24 298.5 342.76 302.29H342.82L353.82 308.67H353.88L354.06 308.77C354.35 308.93 354.63 309.08 354.92 309.22C355.21 309.36 355.64 309.55 356.01 309.7C356.38 309.85 356.67 309.96 357.01 310.06C357.186 310.127 357.366 310.181 357.55 310.22C357.734 310.295 357.925 310.352 358.12 310.39L358.71 310.54C358.851 310.58 358.995 310.61 359.14 310.63L359.92 310.77H360.1L361.04 310.89C366.43 311.46 372.69 309.94 379.39 306.08C399.39 294.55 415.53 266.52 415.53 243.48C415.51 243 415.5 242.48 415.48 241.93ZM391.27 225.63C392.052 228.497 392.436 231.459 392.41 234.43C392.41 254.76 377.53 280.52 359.93 290.68C357.361 292.21 354.586 293.365 351.69 294.11C350.907 291.24 350.523 288.275 350.55 285.3C350.55 264.97 365.42 239.21 383.03 229.05C385.599 227.522 388.374 226.37 391.27 225.63Z" fill="#0CB8B6"/>
<path opacity="0.1" d="M353.3 308.421L342.7 302.281C336.2 298.481 332.18 290.391 332.18 278.921C332.18 268.641 335.4 257.381 340.73 247.031L351.73 253.421C346.39 263.761 343.17 275.031 343.17 285.311C343.21 296.551 347 304.521 353.3 308.421Z" fill="black"/>
<path opacity="0.4" d="M415.48 241.931C415.48 241.501 415.48 241.091 415.42 240.671C415.36 240.251 415.37 239.841 415.32 239.431C415.27 239.021 415.27 238.891 415.24 238.621C415.17 237.901 415.06 237.201 414.95 236.531C414.89 236.231 414.84 235.911 414.78 235.611C414.72 235.311 414.66 235.041 414.6 234.751C414.42 233.981 414.24 233.221 414.02 232.501C413.9 232.161 413.8 231.811 413.68 231.501C413.66 231.449 413.643 231.395 413.63 231.341C413.5 231.001 413.39 230.681 413.26 230.341C413.125 229.974 412.971 229.613 412.8 229.261C412.691 228.998 412.567 228.741 412.43 228.491C412.358 228.302 412.268 228.121 412.16 227.951C412.06 227.731 411.94 227.511 411.82 227.301L411.73 227.151C411.63 226.961 411.51 226.781 411.4 226.591C411.29 226.401 411.24 226.351 411.17 226.231C410.631 225.387 410.029 224.585 409.37 223.831C409.25 223.711 409.14 223.581 409.03 223.461C408.92 223.341 408.84 223.261 408.75 223.161L408.38 222.801C408.039 222.444 407.675 222.11 407.29 221.801C407.115 221.647 406.932 221.503 406.74 221.371C406.55 221.221 406.36 221.081 406.16 220.951C405.862 220.729 405.552 220.526 405.23 220.341C398.67 216.341 389.23 216.441 379.37 222.671C359.56 235.151 343.32 262.821 343.22 285.271C343.17 296.951 347.36 305.101 354.05 308.811C354.34 308.971 354.62 309.121 354.91 309.261C355.2 309.401 355.63 309.591 356 309.741C356.37 309.891 356.66 310.001 357 310.101C357.176 310.168 357.356 310.222 357.54 310.261C357.724 310.336 357.915 310.393 358.11 310.431L358.7 310.581C358.841 310.621 358.985 310.651 359.13 310.671L359.91 310.811H360.09L361.03 310.931C366.42 311.501 372.68 309.981 379.38 306.121C399.38 294.591 415.52 266.561 415.52 243.521C415.51 243.001 415.5 242.481 415.48 241.931ZM375.7 299.831C371.22 302.421 366.91 303.781 363.22 303.781C356.3 303.781 353.12 299.061 351.69 294.111C350.907 291.241 350.523 288.276 350.55 285.301C350.55 264.971 365.42 239.211 383.03 229.051C385.599 227.522 388.374 226.371 391.27 225.631C392.658 225.291 394.081 225.113 395.51 225.101C406.95 225.101 408.17 238.021 408.17 243.581C408.17 263.911 393.31 289.671 375.7 299.831Z" fill="white"/>
<path opacity="0.1" d="M408.17 243.58C408.17 263.9 393.31 289.67 375.7 299.83C371.22 302.42 366.91 303.78 363.23 303.78C361.621 303.844 360.019 303.542 358.545 302.896C357.071 302.249 355.763 301.276 354.72 300.05C354.54 299.84 354.37 299.62 354.2 299.4C354.03 299.18 353.87 298.95 353.73 298.71C353.617 298.546 353.514 298.375 353.42 298.2C353.35 298.09 353.28 297.98 353.22 297.87C353.16 297.76 353.08 297.59 353 297.45C352.92 297.31 352.87 297.19 352.81 297.06C352.75 296.93 352.68 296.8 352.62 296.66L352.32 295.94C352.2 295.64 352.09 295.34 351.99 295.03C351.89 294.72 351.78 294.42 351.7 294.11C354.596 293.364 357.371 292.209 359.94 290.68C377.54 280.52 392.42 254.76 392.42 234.43C392.446 231.458 392.062 228.497 391.28 225.63C392.668 225.29 394.091 225.112 395.52 225.1C396.078 225.102 396.636 225.135 397.19 225.2L397.71 225.28C407.1 226.84 408.17 238.4 408.17 243.58Z" fill="black"/>
<path opacity="0.7" d="M401.85 240.001C401.85 260.331 386.99 286.091 369.38 296.251C364.9 298.841 360.59 300.251 356.9 300.251C356.166 300.254 355.433 300.194 354.71 300.071C354.53 299.861 354.36 299.641 354.19 299.421C354.02 299.201 353.86 298.971 353.72 298.731C353.607 298.567 353.504 298.397 353.41 298.221C353.34 298.111 353.27 298.001 353.21 297.891C353.15 297.781 353.07 297.611 352.99 297.471C352.91 297.331 352.86 297.211 352.8 297.081C352.74 296.951 352.67 296.821 352.61 296.681L352.31 295.961C352.19 295.661 352.08 295.361 351.98 295.051C351.88 294.741 351.77 294.441 351.69 294.131C354.586 293.386 357.361 292.231 359.93 290.701C377.53 280.541 392.41 254.781 392.41 234.451C392.436 231.479 392.052 228.518 391.27 225.651C392.658 225.311 394.081 225.133 395.51 225.121C396.068 225.123 396.626 225.156 397.18 225.221L397.7 225.301C401.32 229.541 401.85 236.371 401.85 240.001Z" fill="white"/>
</svg>
