<svg width="21" height="21" viewBox="0 0 21 21" fill="none" xmlns="http://www.w3.org/2000/svg">
<path d="M17.0628 20.2327C16.9274 20.3704 16.7658 20.4795 16.5875 20.5537C16.4092 20.6279 16.2179 20.6657 16.0248 20.6648C15.7862 20.6647 15.5512 20.6065 15.34 20.4952C15.1289 20.3839 14.9481 20.2229 14.8131 20.0261C13.3183 17.8373 11.6638 15.7621 9.86298 13.8173L13.8175 9.86276C15.7632 11.6624 17.8384 13.3169 20.0263 14.8129C20.2228 14.9482 20.3836 15.1291 20.4949 15.3401C20.6061 15.5512 20.6645 15.7861 20.665 16.0246C20.6659 16.2177 20.6282 16.409 20.5539 16.5873C20.4797 16.7655 20.3706 16.9272 20.2329 17.0626L17.0628 20.2327Z" fill="black"/>
<path d="M7.51466 11.4549L11.4551 7.51453C12.0045 8.0922 12.5634 8.65109 13.1411 9.20059L9.21011 13.1504C8.66061 12.5633 8.10172 12.0044 7.51466 11.4549Z" fill="black"/>
<path d="M3.60245 0.432121C3.73753 0.294041 3.89907 0.184611 4.07741 0.110372C4.25574 0.0361325 4.44722 -0.00139238 4.64038 3.94855e-05C4.87896 0.000551614 5.11385 0.0589376 5.32489 0.170188C5.53594 0.281438 5.71685 0.442231 5.85209 0.638769C7.34807 2.82666 9.00256 4.90184 10.8022 6.8476L6.84776 10.8021C4.90296 9.00129 2.82769 7.34673 0.638929 5.85193C0.460674 5.73024 0.311503 5.57067 0.202078 5.38464C0.0926514 5.1986 0.0256739 4.99069 0.0059309 4.77576C-0.0138121 4.56084 0.0141678 4.3442 0.0878706 4.14135C0.161573 3.93849 0.279178 3.75442 0.432281 3.60229L3.60245 0.432121Z" fill="black"/>
<path d="M10.6329 16.1092L10.802 17.7999C10.815 17.8917 10.8005 17.9853 10.7604 18.0689C10.7203 18.1525 10.6563 18.2223 10.5766 18.2696C10.5004 18.3055 10.4164 18.3216 10.3324 18.3166C10.2403 18.3158 10.1505 18.2881 10.0741 18.2367L8.9234 17.4712L7.77275 18.2367C7.69657 18.2862 7.60765 18.3126 7.51679 18.3126C7.42592 18.3126 7.33701 18.2862 7.26083 18.2367C7.18368 18.1875 7.12258 18.1169 7.08504 18.0334C7.04749 17.95 7.03514 17.8574 7.04948 17.7671L7.83381 13.0705C8.80442 14.0411 9.73747 15.054 10.6329 16.1092Z" fill="black"/>
<path d="M2.41409 10.0882C2.46139 10.0085 2.53122 9.94452 2.6148 9.90441C2.69838 9.86429 2.79195 9.8498 2.88375 9.86277L4.5745 10.0319C5.62653 10.9305 6.64255 11.8619 7.62256 12.8263L2.92602 13.6153C2.83566 13.6297 2.74307 13.6173 2.65964 13.5798C2.5762 13.5422 2.50555 13.4811 2.45636 13.404C2.40684 13.3278 2.38048 13.2389 2.38048 13.148C2.38048 13.0571 2.40684 12.9682 2.45636 12.892L3.19372 11.7414L2.42818 10.5907C2.37846 10.5169 2.35073 10.4305 2.34824 10.3415C2.34574 10.2525 2.36858 10.1647 2.41409 10.0882Z" fill="black"/>
</svg>
