<svg width="566" height="566" viewBox="0 0 566 566" fill="none" xmlns="http://www.w3.org/2000/svg">
<path d="M472.825 58.6831C438.355 37.243 397.037 34.9111 360.632 52.7627C329.627 67.9202 305.504 93.6958 274.465 108.865C232.06 129.614 185.501 140.957 142.632 160.835C99.763 180.713 58.728 211.865 43.3554 256.557C25.2434 309.342 31.6052 371.409 59.3053 419.667C104.336 498.103 193.651 525.961 279.638 524.943C461.335 522.803 554.929 302.742 525.282 144.591C518.807 110.325 503.027 77.463 472.825 58.6831Z" fill="#0CB8B6"/>
<path opacity="0.7" d="M472.825 58.6831C438.356 37.243 397.038 34.9111 360.632 52.7627C329.627 67.9202 305.504 93.6958 274.465 108.865C232.06 129.614 185.501 140.957 142.632 160.835C99.763 180.713 58.728 211.865 43.3554 256.557C25.2434 309.342 31.6052 371.409 59.3053 419.667C104.336 498.103 193.651 525.961 279.638 524.943C461.335 522.803 554.929 302.742 525.282 144.591C518.807 110.325 503.027 77.463 472.825 58.6831Z" fill="black"/>
<path d="M136.531 351.225L127.022 352.946L125.155 342.645L113.857 344.693L115.725 354.995L106.228 356.715L108.344 368.409L117.842 366.688L119.71 376.989L131.007 374.952L129.139 364.639L138.648 362.919L136.531 351.225Z" stroke="#0CB8B6" stroke-linecap="round" stroke-linejoin="round"/>
<path d="M231.461 193.424L222.348 190.209L225.835 180.338L215.013 176.512L211.526 186.383L202.414 183.168L198.463 194.375L207.564 197.59L204.078 207.472L214.9 211.287L218.397 201.416L227.499 204.631L231.461 193.424Z" stroke="#0CB8B6" stroke-linecap="round" stroke-linejoin="round"/>
<path d="M461.302 311.401L452.766 315.918L447.865 306.658L437.711 312.024L442.612 321.284L434.077 325.8L439.635 336.305L448.171 331.789L453.072 341.037L463.226 335.671L458.325 326.412L466.86 321.895L461.302 311.401Z" stroke="#0CB8B6" stroke-linecap="round" stroke-linejoin="round"/>
<path d="M96.8204 326.684C100.647 326.684 103.748 323.582 103.748 319.756C103.748 315.93 100.647 312.828 96.8204 312.828C92.9943 312.828 89.8926 315.93 89.8926 319.756C89.8926 323.582 92.9943 326.684 96.8204 326.684Z" stroke="#0CB8B6" stroke-linecap="round" stroke-linejoin="round"/>
<path d="M204.734 227.135C204.734 227.497 204.627 227.852 204.425 228.153C204.224 228.455 203.937 228.69 203.602 228.829C203.267 228.968 202.898 229.004 202.542 228.933C202.187 228.862 201.86 228.688 201.604 228.431C201.347 228.175 201.172 227.848 201.102 227.492C201.031 227.137 201.067 226.768 201.206 226.433C201.345 226.098 201.58 225.811 201.881 225.61C202.183 225.408 202.538 225.301 202.9 225.301C203.387 225.301 203.853 225.494 204.197 225.838C204.541 226.182 204.734 226.648 204.734 227.135Z" stroke="#0CB8B6" stroke-linecap="round" stroke-linejoin="round"/>
<path d="M120.819 195.678C120.819 196.959 120.439 198.211 119.728 199.275C119.016 200.34 118.005 201.17 116.822 201.66C115.639 202.15 114.337 202.279 113.081 202.029C111.825 201.779 110.671 201.162 109.766 200.257C108.86 199.351 108.243 198.197 107.994 196.941C107.744 195.685 107.872 194.383 108.362 193.2C108.852 192.017 109.682 191.006 110.747 190.294C111.812 189.583 113.064 189.203 114.344 189.203C116.061 189.206 117.706 189.889 118.919 191.103C120.133 192.317 120.816 193.962 120.819 195.678Z" stroke="#0CB8B6" stroke-linecap="round" stroke-linejoin="round"/>
<path d="M406.117 283.384C406.117 284.11 405.902 284.819 405.498 285.422C405.095 286.025 404.523 286.495 403.852 286.773C403.182 287.051 402.445 287.123 401.733 286.982C401.022 286.84 400.368 286.491 399.855 285.978C399.343 285.465 398.993 284.811 398.852 284.1C398.71 283.389 398.783 282.651 399.06 281.981C399.338 281.311 399.808 280.738 400.411 280.335C401.014 279.932 401.724 279.717 402.449 279.717C403.422 279.717 404.355 280.103 405.042 280.791C405.73 281.479 406.117 282.412 406.117 283.384Z" stroke="#0CB8B6" stroke-linecap="round" stroke-linejoin="round"/>
<path d="M369.044 171.6C373.577 171.6 377.251 167.925 377.251 163.393C377.251 158.86 373.577 155.186 369.044 155.186C364.511 155.186 360.837 158.86 360.837 163.393C360.837 167.925 364.511 171.6 369.044 171.6Z" stroke="#0CB8B6" stroke-linecap="round" stroke-linejoin="round"/>
<path d="M318.511 237.166C318.942 237.811 331.926 240.404 338.661 250.195C342.58 255.821 345.867 261.861 348.464 268.205C348.464 268.205 359.728 274.907 365.501 280.431C371.274 285.955 378.157 293.291 383.466 297.139C388.775 300.988 399.698 308.29 402.449 316.836C402.449 316.836 386.069 361.697 381.439 371.614C376.809 381.53 365.388 402.574 365.388 402.574L345.012 489.138H226.819L222.79 459.446C222.79 459.446 186.566 452.337 171.431 439.07C171.431 439.07 170.004 406.242 176.332 376.957C182.66 347.672 204.179 286.782 218.76 268.183C218.76 268.183 242.045 257.044 262.591 253.467C262.591 253.467 275.926 242.928 284.653 241.807C293.381 240.687 318.511 237.166 318.511 237.166Z" fill="white"/>
<path d="M224.385 472.825C234.879 474.829 244.025 476.561 254.711 476.437C265.398 476.312 276.31 473.912 285.049 467.788C286.737 466.383 288.651 465.273 290.709 464.505C295.35 463.203 299.946 466.271 304.553 467.698C310.395 469.509 316.802 468.648 322.53 466.475C328.258 464.301 333.408 460.917 338.513 457.543C337.759 467.958 337.514 478.391 337.778 488.843L345.056 489.138L363.7 407.102C363.7 407.102 331.812 444.141 316.27 455.2L286.453 447.525C286.453 447.525 283.645 449.857 277.736 451.034C277.736 451.034 275.031 461.438 259.817 461.46C244.603 461.483 222.789 459.445 222.789 459.445L224.385 472.825Z" fill="#0CB8B6"/>
<path opacity="0.5" d="M224.385 472.825C234.879 474.829 244.025 476.561 254.711 476.437C265.398 476.312 276.31 473.912 285.049 467.788C286.737 466.383 288.651 465.273 290.709 464.505C295.35 463.203 299.946 466.271 304.553 467.698C310.395 469.509 316.802 468.648 322.53 466.475C328.258 464.301 333.408 460.917 338.513 457.543C337.759 467.958 337.514 478.391 337.778 488.843L345.056 489.138L363.7 407.102C363.7 407.102 331.812 444.141 316.27 455.2L286.453 447.525C286.453 447.525 283.645 449.857 277.736 451.034C277.736 451.034 275.031 461.438 259.817 461.46C244.603 461.483 222.789 459.445 222.789 459.445L224.385 472.825Z" fill="white"/>
<path d="M193.833 319.756C193.833 319.756 179.988 386.963 180.69 410.044C180.69 410.044 199.504 404.769 212.635 410.044C212.635 410.044 190.289 407.554 180.667 417.798C171.045 428.043 200.659 454.962 259.907 449.494C259.907 449.494 271.725 453.196 277.725 451.023C277.725 451.023 276.118 461.731 259.806 461.448C243.561 460.803 196.04 460.407 171.419 439.08C171.43 439.091 168.329 377.307 193.833 319.756Z" fill="#0CB8B6"/>
<path opacity="0.6" d="M193.833 319.756C193.833 319.756 179.988 386.963 180.69 410.044C180.69 410.044 199.504 404.769 212.635 410.044C212.635 410.044 190.289 407.554 180.667 417.798C171.045 428.043 200.659 454.962 259.907 449.494C259.907 449.494 271.725 453.196 277.725 451.023C277.725 451.023 276.118 461.731 259.806 461.448C243.561 460.803 196.04 460.407 171.419 439.08C171.43 439.091 168.329 377.307 193.833 319.756Z" fill="white"/>
<path d="M222.144 332.639C222.144 332.639 226.23 362.399 232.83 368.625C239.429 374.851 270.186 372.813 282.366 379.526C282.366 379.526 293.833 359.659 314.571 347.23L286.452 391.503L262.148 385.763L232.479 381.235L229.988 386.963H225.528C225.528 386.963 225.03 355.199 222.144 332.639Z" fill="#0CB8B6"/>
<path opacity="0.5" d="M222.144 332.639C222.144 332.639 226.23 362.399 232.83 368.625C239.429 374.851 270.186 372.813 282.366 379.526C282.366 379.526 293.833 359.659 314.571 347.23L286.452 391.503L262.148 385.763L232.479 381.235L229.988 386.963H225.528C225.528 386.963 225.03 355.199 222.144 332.639Z" fill="white"/>
<path d="M338.389 272.02C351.101 279.503 352.527 287.936 355.142 293.958C348.531 295.271 341.694 296.675 336.238 300.626C329.446 305.561 325.767 313.734 322.914 321.67C320.216 329.179 317.948 336.836 316.122 344.604C322.267 333.504 331 324.052 341.581 317.051C347.682 313.021 355.222 309.772 362.183 312.048C356.342 314.527 349.731 317.877 348.497 324.103C348.255 325.137 348.298 326.217 348.622 327.228C349.663 330.16 353.308 330.952 356.071 332.378C361.459 335.152 364.266 341.434 364.504 347.525C364.742 353.615 362.874 359.501 361.029 365.263C359.406 370.312 357.784 375.36 356.161 380.409C354.09 386.862 351.984 393.405 348.237 399.065C344.49 404.725 338.864 409.468 332.174 410.577C329.377 411.116 326.482 410.789 323.876 409.637C321.901 408.564 320.065 407.252 318.409 405.732C310.383 399.25 300.738 395.085 290.516 393.688C303.67 402.381 309.896 418.173 315.352 432.968C312.847 428.582 309.237 424.929 304.881 422.372C303.765 421.595 302.438 421.176 301.078 421.172C297.501 421.455 296.369 426.017 294.218 428.87C291.637 432.266 286.917 433.477 282.683 432.934C278.449 432.391 274.555 430.41 270.752 428.406L222.63 403.593L219.234 413.781C219.234 413.781 257.564 444.345 316.292 455.155C316.292 455.155 354.44 425.01 367.957 398.283C381.473 371.557 402.471 316.779 402.471 316.779C402.471 316.779 394.785 302.222 381.608 294.626C381.608 294.626 371.771 289.974 369.7 284.223C367.628 278.473 349.143 268.545 349.143 268.545C349.143 268.545 351.543 274.68 338.389 272.02Z" fill="#0CB8B6"/>
<path opacity="0.6" d="M338.389 272.02C351.101 279.503 352.527 287.936 355.142 293.958C348.531 295.271 341.694 296.675 336.238 300.626C329.446 305.561 325.767 313.734 322.914 321.67C320.216 329.179 317.948 336.836 316.122 344.604C322.267 333.504 331 324.052 341.581 317.051C347.682 313.021 355.222 309.772 362.183 312.048C356.342 314.527 349.731 317.877 348.497 324.103C348.255 325.137 348.298 326.217 348.622 327.228C349.663 330.16 353.308 330.952 356.071 332.378C361.459 335.152 364.266 341.434 364.504 347.525C364.742 353.615 362.874 359.501 361.029 365.263C359.406 370.312 357.784 375.36 356.161 380.409C354.09 386.862 351.984 393.405 348.237 399.065C344.49 404.725 338.864 409.468 332.174 410.577C329.377 411.116 326.482 410.789 323.876 409.637C321.901 408.564 320.065 407.252 318.409 405.732C310.383 399.25 300.738 395.085 290.516 393.688C303.67 402.381 309.896 418.173 315.352 432.968C312.847 428.582 309.237 424.929 304.881 422.372C303.765 421.595 302.438 421.176 301.078 421.172C297.501 421.455 296.369 426.017 294.218 428.87C291.637 432.266 286.917 433.477 282.683 432.934C278.449 432.391 274.555 430.41 270.752 428.406L222.63 403.593L219.234 413.781C219.234 413.781 257.564 444.345 316.292 455.155C316.292 455.155 354.44 425.01 367.957 398.283C381.473 371.557 402.471 316.779 402.471 316.779C402.471 316.779 394.785 302.222 381.608 294.626C381.608 294.626 371.771 289.974 369.7 284.223C367.628 278.473 349.143 268.545 349.143 268.545C349.143 268.545 351.543 274.68 338.389 272.02Z" fill="white"/>
<path d="M334.348 167.819C334.348 167.819 336.917 137.855 324.001 134.991C311.085 132.127 303.829 120.275 303.829 120.275L258.005 133.067L250.896 160.62L255.424 174.566C255.424 174.566 256.375 187.505 256.556 193.901C256.738 200.296 256.556 205.221 261.401 212.986C266.246 220.752 270.752 228.461 281.223 235.173V252.821C281.223 252.821 274.748 271.714 278.325 283.306C278.325 283.306 280.464 285.57 286.373 282.174C292.282 278.778 317.56 261.889 326.378 244.252L329.118 199.414C329.118 199.414 336.396 200.546 339.532 193.912C344.139 187.426 343.958 179.864 342.17 173.706C340.381 167.548 332.684 171.532 332.684 171.532L334.348 167.819Z" fill="#999999"/>
<path d="M281.721 211.752C283.016 210.341 284.613 209.24 286.393 208.531C288.172 207.821 290.088 207.522 291.999 207.654C291.999 207.654 297.512 198.949 303.319 200.545C303.319 200.545 305.108 209.771 298.146 213.405C289.09 218.125 281.721 211.752 281.721 211.752Z" fill="#737373"/>
<path d="M264.696 129.252C264.696 129.252 253.727 143.662 254.36 158.684C254.994 173.706 257.179 184.358 256.545 195.949C255.911 207.541 268.137 226.955 280.668 234.777C290.03 240.629 301.769 239.633 310.881 233.645C321.069 226.853 326.673 214.65 328.722 202.934C328.925 201.802 329.084 200.67 329.197 199.447" stroke="#263238" stroke-linecap="round" stroke-linejoin="round"/>
<path d="M280.668 234.789C280.668 234.789 282.446 251.021 280.668 256.58C278.71 262.681 276.344 276.888 278.404 283.306C280.465 289.725 319.009 262.749 326.458 244.241C326.458 244.241 327.488 208.277 330.058 199.289" stroke="#263238" stroke-linecap="round" stroke-linejoin="round"/>
<path d="M279.604 211.355C279.604 211.355 297.139 216.314 304.316 198.213" stroke="#263238" stroke-linecap="round" stroke-linejoin="round"/>
<path d="M281.02 238.694C281.02 238.694 284.755 250.275 292.815 250.965C300.875 251.656 321.036 235.502 327.907 216.473V206.953C327.907 206.953 322.247 231.857 305.674 236.385C289.102 240.913 281.348 235.151 281.348 235.151L281.02 238.694Z" fill="#263238"/>
<path d="M303.309 200.545C295.52 200.002 291.989 207.654 291.989 207.654C290.069 207.42 288.121 207.673 286.325 208.389C284.529 209.105 282.942 210.261 281.71 211.752C283.629 213.473 285.988 214.628 288.524 215.087C291.06 215.547 293.674 215.294 296.075 214.356C304.927 211.277 303.309 200.545 303.309 200.545Z" stroke="#263238" stroke-linecap="round" stroke-linejoin="round"/>
<path d="M283.781 166.404C283.878 169.996 283.719 173.589 283.306 177.158C282.887 180.362 281.404 183.43 280.17 186.441C279.038 189.18 277.148 193.391 278.721 196.278C280.51 199.549 286.453 196.278 286.453 196.278" stroke="#263238" stroke-linecap="round" stroke-linejoin="round"/>
<path d="M290.109 195.598C292.113 195.87 294.954 195.598 295.52 192.123" stroke="#263238" stroke-linecap="round" stroke-linejoin="round"/>
<path d="M296.584 162.08C298.521 160.232 301.095 159.201 303.772 159.201C306.449 159.201 309.023 160.232 310.96 162.08" stroke="#263238" stroke-width="2" stroke-linecap="round" stroke-linejoin="round"/>
<path d="M273.74 164.909C273.74 164.909 268.431 158.117 261.48 164.909" stroke="#263238" stroke-width="2" stroke-linecap="round" stroke-linejoin="round"/>
<path d="M325.031 182.082C325.031 182.082 331.087 167.536 338.989 170.66C344.434 172.823 344.762 182.218 341.875 188.772C338.989 195.327 337.54 202.006 327.918 198.27" stroke="#263238" stroke-linecap="round" stroke-linejoin="round"/>
<path d="M326.106 179.852C326.106 179.852 320.288 177.792 319.212 168.34C318.137 158.888 323.933 149.424 321.782 142.632C319.631 135.84 302.685 139.236 298.825 127.396C298.825 127.396 286.101 136.882 261.469 134.844C261.469 134.844 256.273 143.696 255.368 149.107C254.155 157.568 254.185 166.16 255.458 174.611C255.458 174.906 255.56 175.189 255.617 175.483C257.383 184.697 248.587 162.94 248.825 153.647C249.062 144.353 243.459 132.546 250.76 123.751C258.062 114.955 284.834 109.804 290.109 105.673C295.384 101.541 305.64 112.544 317.492 116.596C329.344 120.649 339.17 125.483 337.675 142.293C336.181 159.103 337.755 161.356 337.822 170.208C337.822 170.23 332.344 168.17 326.106 179.852Z" fill="#263238"/>
<path d="M303.795 174.329C303.795 176.593 302.923 178.472 301.837 178.472C300.75 178.472 299.89 176.616 299.89 174.329C299.89 172.042 300.761 170.197 301.837 170.197C302.912 170.197 303.795 172.065 303.795 174.329Z" fill="#263238"/>
<path d="M273.741 174.327C273.741 176.591 272.869 178.47 271.794 178.47C270.718 178.47 269.847 176.614 269.847 174.327C269.847 172.04 270.718 170.195 271.794 170.195C272.869 170.195 273.741 172.063 273.741 174.327Z" fill="#263238"/>
<path d="M296.584 179.852C296.584 179.852 300.625 184.142 305.742 184.753" stroke="#263238" stroke-linecap="round" stroke-linejoin="round"/>
<path d="M269.054 184.753C269.054 184.753 276.446 184.232 278.11 179.852" stroke="#263238" stroke-linecap="round" stroke-linejoin="round"/>
<path d="M286.237 286.057C291.739 282.559 299.018 283.872 305.04 286.351C308.345 287.721 311.492 289.442 314.786 290.879C316.415 291.6 318.095 292.197 319.812 292.668C323.944 293.743 322.461 288.615 322.224 286.317C321.884 283.023 321.646 279.718 321.25 276.446C321.087 275.769 321.168 275.056 321.476 274.431C321.883 273.928 322.451 273.58 323.084 273.447C330.34 271.183 338.162 272.179 345.724 272.315C346.411 272.396 347.106 272.265 347.716 271.941C348.848 271.205 348.724 269.541 348.418 268.228C345.803 257.044 336.577 245.916 326.548 240.324" stroke="#263238" stroke-linecap="round" stroke-linejoin="round"/>
<path d="M281.302 242.135C276.31 244.218 271.182 246.38 266.881 249.572C265.32 250.71 263.882 252.008 262.59 253.443C261.55 254.434 260.895 255.762 260.745 257.19C260.773 257.855 260.949 258.505 261.26 259.092C261.572 259.68 262.011 260.19 262.545 260.586C263.305 261.212 264.142 261.737 265.035 262.149C267.118 263.133 269.563 264.096 270.446 266.19C270.661 266.628 270.74 267.121 270.673 267.605C270.56 268.03 270.342 268.419 270.039 268.737C268.318 270.831 265.284 272.45 265.511 275.155C265.658 277.249 267.775 278.551 269.654 279.479C271.533 280.408 273.729 281.37 274.374 283.374" stroke="#263238" stroke-linecap="round" stroke-linejoin="round"/>
<path d="M251.746 135.988C252.482 131.46 257.214 128.54 261.764 127.804C266.315 127.068 270.99 127.804 275.575 127.408C279.409 127.029 283.117 125.831 286.449 123.896C289.781 121.96 292.658 119.332 294.887 116.189" stroke="white" stroke-linecap="round" stroke-linejoin="round"/>
<path d="M256.896 123.264C265.115 118.408 276.661 123.456 284.676 118.272C286.944 116.621 288.918 114.6 290.517 112.295" stroke="white" stroke-linecap="round" stroke-linejoin="round"/>
<path d="M361.731 309.035C332.299 314.91 321.319 336.565 321.319 336.565L286.453 391.479" stroke="#263238" stroke-linecap="round" stroke-linejoin="round"/>
<path d="M336.85 303.104C339.292 300.842 342.058 298.957 345.057 297.512" stroke="#263238" stroke-linecap="round" stroke-linejoin="round"/>
<path d="M316.27 344.558C316.27 344.558 319.982 324.725 330.646 310.111" stroke="#263238" stroke-linecap="round" stroke-linejoin="round"/>
<path d="M225.528 386.873C225.528 386.873 224 326.118 218.736 316.836" stroke="#263238" stroke-linecap="round" stroke-linejoin="round"/>
<path d="M348.464 268.205C348.464 268.205 365.444 278.393 372.983 287.97C380.522 297.547 398.34 303.908 402.415 316.836C402.415 316.836 378.949 390.778 354.362 417.505C329.775 444.231 316.236 455.2 316.236 455.2C316.236 455.2 257.089 444.922 218.726 412.705L232.445 381.179C232.445 381.179 271.126 386.069 286.419 391.503C301.713 396.936 316.236 429.843 316.236 429.843" stroke="#263238" stroke-linecap="round" stroke-linejoin="round"/>
<path d="M286.453 391.502C286.453 391.502 313.531 396.766 322.326 409.093" stroke="#263238" stroke-linecap="round" stroke-linejoin="round"/>
<path d="M364.368 404.182L345.056 489.138H226.819L222.789 459.446" stroke="#263238" stroke-linecap="round" stroke-linejoin="round"/>
<path d="M277.736 451.034C271.205 464.414 262.59 461.46 262.59 461.46C195.972 463.984 171.43 439.091 171.43 439.091C171.43 439.091 168.034 404.079 181.131 356.829C194.229 309.579 218.759 268.205 218.759 268.205C229.638 260.971 253.908 255.322 260.756 253.828L262.59 253.443" stroke="#263238" stroke-linecap="round" stroke-linejoin="round"/>
<path d="M262.624 461.46C262.624 461.46 259.104 460.883 259.998 437.541" stroke="#263238" stroke-linecap="round" stroke-linejoin="round"/>
<path d="M220.559 414.198C220.559 414.198 203.918 408.334 183.305 422.597" stroke="#263238" stroke-linecap="round" stroke-linejoin="round"/>
<path d="M187.04 409.093C187.04 409.093 208.842 402.607 218.736 412.999" stroke="#263238" stroke-linecap="round" stroke-linejoin="round"/>
<path d="M216.382 412.41L219.212 413.825L229.989 386.906C229.989 386.906 218.827 385.083 201.146 407.101C206.667 407.165 212.016 409.029 216.382 412.41Z" fill="#999999" stroke="#263238" stroke-miterlimit="10"/>
<path d="M259.964 437.541V449.506C259.964 449.506 275.212 454.034 286.498 447.525L259.964 437.541Z" fill="#999999" stroke="#263238" stroke-miterlimit="10"/>
<path d="M342.611 272.19C342.622 272.412 342.599 272.633 342.543 272.847C342.068 274.715 330.442 318.603 293.233 338.13C292.91 338.303 292.548 338.392 292.181 338.39C291.675 338.39 291.184 338.22 290.785 337.908C290.387 337.596 290.105 337.159 289.984 336.668C289.863 336.177 289.91 335.659 290.117 335.198C290.324 334.736 290.68 334.358 291.128 334.122C325.088 316.316 337.053 275.734 338.095 271.998L342.611 272.19Z" fill="#263238"/>
<path d="M262.545 260.554C256.662 273.989 253.489 288.453 253.206 303.117C253.206 304.305 253.206 305.517 253.206 306.75C253.206 307.056 253.206 307.362 253.206 307.667C252.868 307.679 252.531 307.713 252.198 307.769C250.973 307.963 249.786 308.344 248.678 308.901C248.678 307.237 248.678 305.618 248.678 304.022C249.164 278.62 256.749 261.335 260.79 253.863L262.624 253.479C261.583 254.469 260.929 255.797 260.779 257.225C260.813 257.875 260.988 258.51 261.293 259.085C261.598 259.66 262.025 260.161 262.545 260.554Z" fill="#263238"/>
<path d="M307.123 327.917C309.772 331.596 307.598 337.709 302.255 341.569C296.912 345.429 290.437 345.565 287.777 341.886C285.117 338.207 287.29 332.094 292.633 328.234C297.976 324.374 304.508 324.238 307.123 327.917Z" fill="white" stroke="#263238" stroke-linecap="round" stroke-linejoin="round"/>
<path d="M300.535 325.733C302.414 328.337 300.875 332.661 297.139 335.389C293.404 338.117 288.774 338.219 286.951 335.616C285.129 333.012 286.612 328.688 290.347 325.96C294.083 323.232 298.656 323.141 300.535 325.733Z" fill="white" stroke="#263238" stroke-linecap="round" stroke-linejoin="round"/>
<path d="M270.616 371.681C270.134 372.002 269.548 372.126 268.977 372.027C268.407 371.928 267.896 371.615 267.549 371.151C267.203 370.687 267.047 370.108 267.114 369.533C267.182 368.958 267.467 368.43 267.911 368.059C268.103 367.901 275.699 361.437 272.371 339.668C272.088 337.823 271.726 335.854 271.239 333.782C269.801 327.182 267.583 318.828 263.043 312.693C261.963 311.075 260.485 309.762 258.75 308.881C257.015 308.001 255.082 307.583 253.138 307.667C252.801 307.678 252.464 307.712 252.131 307.769C250.906 307.962 249.718 308.344 248.61 308.901C245.229 310.648 242.662 313.645 241.456 317.255L241.049 318.387C238.482 325.329 236.383 332.435 234.766 339.657C232.955 348.543 232.344 357.86 235.558 364.369C236.42 366.155 237.647 367.74 239.16 369.021C240.674 370.302 242.439 371.251 244.343 371.806C244.854 371.974 245.288 372.318 245.569 372.778C245.849 373.237 245.956 373.781 245.872 374.312C245.787 374.843 245.516 375.327 245.108 375.677C244.699 376.027 244.179 376.22 243.641 376.221C243.402 376.22 243.166 376.182 242.939 376.108C240.463 375.364 238.169 374.115 236.201 372.44C234.233 370.764 232.634 368.698 231.506 366.372C227.883 359.048 228.359 349.075 230.193 339.657C231.819 331.912 234.021 324.299 236.781 316.881L237.189 315.749C238.078 313.055 239.569 310.598 241.548 308.565C243.526 306.531 245.942 304.974 248.61 304.01C249.534 303.69 250.485 303.455 251.452 303.309C252.029 303.229 252.584 303.173 253.172 303.139C255.822 303.066 258.448 303.659 260.809 304.863C263.17 306.068 265.192 307.845 266.688 310.033C271.737 316.825 274.137 325.801 275.665 332.842C276.197 335.265 276.605 337.54 276.91 339.691C280.488 364.097 271.058 371.364 270.616 371.681Z" fill="#263238" stroke="#263238" stroke-miterlimit="10"/>
<path d="M242.056 375.824C242.056 375.824 250.263 379.22 252.346 375.824C254.429 372.428 252.742 370.832 249.901 370.56C247.069 370.415 244.231 370.415 241.399 370.56L242.056 375.824Z" fill="#263238" stroke="#263238" stroke-miterlimit="10"/>
<path d="M245.825 374.693C245.677 375.147 245.389 375.542 245.003 375.823C244.617 376.103 244.152 376.255 243.674 376.255C243.436 376.254 243.199 376.216 242.972 376.142C240.497 375.399 238.202 374.15 236.234 372.474C234.266 370.798 232.667 368.732 231.539 366.407C227.917 359.083 228.392 349.11 230.226 339.691H234.754C232.943 348.578 232.331 357.894 235.546 364.403C236.408 366.189 237.635 367.774 239.148 369.055C240.661 370.336 242.427 371.285 244.331 371.84C244.617 371.928 244.883 372.072 245.114 372.263C245.344 372.454 245.534 372.689 245.673 372.955C245.812 373.22 245.897 373.51 245.923 373.809C245.949 374.107 245.916 374.407 245.825 374.693Z" fill="white" stroke="#263238" stroke-linecap="round" stroke-linejoin="round"/>
<path d="M263.054 369.225C262.713 369.63 262.461 370.103 262.315 370.612C262.168 371.121 262.131 371.655 262.205 372.18C262.431 372.955 262.922 373.627 263.592 374.077C264.262 374.528 265.069 374.73 265.873 374.647C267.481 374.434 268.95 373.626 269.993 372.383C271.125 371.116 275.053 362.818 271.419 364.244C268.782 365.24 264.82 366.927 263.054 369.225Z" fill="#263238" stroke="#263238" stroke-miterlimit="10"/>
<path d="M270.616 371.681C270.134 372.001 269.547 372.125 268.977 372.026C268.406 371.928 267.895 371.614 267.549 371.15C267.202 370.686 267.047 370.107 267.114 369.532C267.181 368.957 267.466 368.43 267.911 368.059C268.103 367.9 275.699 361.436 272.371 339.668H276.899C280.487 364.097 271.058 371.364 270.616 371.681Z" fill="white" stroke="#263238" stroke-linecap="round" stroke-linejoin="round"/>
<path opacity="0.2" d="M290.924 171.599C290.924 171.599 305.176 164.196 318.273 171.599C318.273 171.599 318.488 182.523 313.542 187.017C311.787 188.613 303.75 188.885 300.705 188.613C288.343 187.492 290.924 171.599 290.924 171.599Z" fill="white"/>
<path opacity="0.2" d="M281.982 171.601C281.982 171.601 267.73 164.198 254.644 171.601C254.644 171.601 254.429 182.525 259.364 187.019C261.119 188.615 269.168 188.887 272.201 188.615C284.563 187.494 281.982 171.601 281.982 171.601Z" fill="white"/>
<path d="M290.924 171.599C290.924 171.599 305.176 164.196 318.273 171.599C318.273 171.599 318.488 182.523 313.542 187.017C311.787 188.613 303.75 188.885 300.705 188.613C288.343 187.492 290.924 171.599 290.924 171.599Z" stroke="#263238" stroke-miterlimit="10"/>
<path d="M281.982 171.601C281.982 171.601 267.73 164.198 254.644 171.601C254.644 171.601 254.429 182.525 259.364 187.019C261.119 188.615 269.168 188.887 272.201 188.615C284.563 187.494 281.982 171.601 281.982 171.601Z" stroke="#263238" stroke-miterlimit="10"/>
<path d="M281.981 171.6C281.981 171.6 285.174 169.257 290.924 171.6" stroke="#263238" stroke-miterlimit="10"/>
<path d="M318.273 171.602L324.228 174.364" stroke="#263238" stroke-miterlimit="10"/>
<path d="M90.3564 519.272L132.252 479.697H464.765L489.941 519.272H90.3564Z" fill="white" stroke="#263238" stroke-linecap="round" stroke-linejoin="round"/>
<path d="M489.941 519.273H90.3564V529.926H489.941V519.273Z" fill="#263238" stroke="#263238" stroke-linecap="round" stroke-linejoin="round"/>
<path d="M132.252 509.49V501.283H197.908V509.49H185.241H132.252Z" fill="white" stroke="#263238" stroke-miterlimit="10"/>
<path d="M132.252 501.283L171.034 475.27L222.789 476.492L197.908 501.283H132.252Z" fill="white" stroke="#263238" stroke-linecap="round" stroke-linejoin="round"/>
<path d="M197.908 509.49L222.79 484.563V476.492L197.908 501.283V509.49Z" fill="white" stroke="#263238" stroke-linecap="round" stroke-linejoin="round"/>
<path d="M196.131 499.211C196.131 499.211 190.89 500.252 190.89 504.792C190.89 509.331 195.418 510.667 195.418 510.667" stroke="#263238" stroke-width="2" stroke-linecap="round" stroke-linejoin="round"/>
<path d="M190.89 499.211C190.89 499.211 185.648 500.252 185.648 504.792C185.648 509.331 190.176 510.667 190.176 510.667" stroke="#263238" stroke-width="2" stroke-linecap="round" stroke-linejoin="round"/>
<path d="M185.648 499.211C185.648 499.211 180.407 500.252 180.407 504.792C180.407 509.331 184.935 510.667 184.935 510.667" stroke="#263238" stroke-width="2" stroke-linecap="round" stroke-linejoin="round"/>
<path d="M180.407 499.211C180.407 499.211 175.166 500.252 175.166 504.792C175.166 509.331 179.694 510.667 179.694 510.667" stroke="#263238" stroke-width="2" stroke-linecap="round" stroke-linejoin="round"/>
<path d="M175.166 499.211C175.166 499.211 169.925 500.252 169.925 504.792C169.925 509.331 174.453 510.667 174.453 510.667" stroke="#263238" stroke-width="2" stroke-linecap="round" stroke-linejoin="round"/>
<path d="M169.925 499.211C169.925 499.211 164.684 500.252 164.684 504.792C164.684 509.331 169.212 510.667 169.212 510.667" stroke="#263238" stroke-width="2" stroke-linecap="round" stroke-linejoin="round"/>
<path d="M164.684 499.211C164.684 499.211 159.442 500.252 159.442 504.792C159.442 509.331 163.97 510.667 163.97 510.667" stroke="#263238" stroke-width="2" stroke-linecap="round" stroke-linejoin="round"/>
<path d="M159.442 499.211C159.442 499.211 154.201 500.252 154.201 504.792C154.201 509.331 158.729 510.667 158.729 510.667" stroke="#263238" stroke-width="2" stroke-linecap="round" stroke-linejoin="round"/>
<path d="M153.557 499.211C153.557 499.211 148.315 500.252 148.315 504.792C148.315 509.331 152.843 510.667 152.843 510.667" stroke="#263238" stroke-width="2" stroke-linecap="round" stroke-linejoin="round"/>
<path d="M147.658 499.211C147.658 499.211 142.417 500.252 142.417 504.792C142.417 509.331 146.945 510.667 146.945 510.667" stroke="#263238" stroke-width="2" stroke-linecap="round" stroke-linejoin="round"/>
<path d="M141.104 499.211C141.104 499.211 135.863 500.252 135.863 504.792C135.863 509.331 140.391 510.667 140.391 510.667" stroke="#263238" stroke-width="2" stroke-linecap="round" stroke-linejoin="round"/>
<path d="M174.329 481.643C170.713 483.637 167.847 486.757 166.167 490.529C170.933 489.023 174.702 485.627 178.313 482.231L174.397 491.944C176.2 491.797 177.943 491.228 179.485 490.282C181.027 489.336 182.324 488.04 183.272 486.499C182.961 486.633 182.683 486.831 182.454 487.08C182.226 487.329 182.052 487.623 181.945 487.943C181.839 488.264 181.801 488.604 181.834 488.94C181.868 489.276 181.972 489.602 182.14 489.895C185.422 489.419 187.517 486.25 189.169 483.375C189.473 484.974 189.591 486.604 189.52 488.231C192.265 488.624 195.066 488.268 197.625 487.201" stroke="#263238" stroke-width="0.75" stroke-linecap="round" stroke-linejoin="round"/>
<path d="M462.547 440.053H348.43V502.709H462.547V440.053Z" fill="white" stroke="#263238" stroke-linecap="round" stroke-linejoin="round"/>
<path d="M347.988 502.698L329.639 485.254V422.598L347.988 440.053V502.698Z" fill="white" stroke="#263238" stroke-linecap="round" stroke-linejoin="round"/>
<path d="M462.547 440.053L444.197 422.598H330.092L348.43 440.053H462.547Z" fill="white" stroke="#263238" stroke-linecap="round" stroke-linejoin="round"/>
<path d="M420.583 463.554H410.497V453.004H396.279V463.554H385.276V477.772H396.279V488.311H410.497V477.772H420.583V463.554Z" fill="#0CB8B6" stroke="#263238" stroke-miterlimit="10"/>
<path d="M404.498 440.053L386.148 422.598" stroke="#263238" stroke-linecap="round" stroke-linejoin="round"/>
<path d="M163.287 173.756C176.597 160.445 176.597 138.864 163.287 125.553C149.976 112.242 128.395 112.242 115.084 125.553C101.773 138.864 101.773 160.445 115.084 173.756C128.395 187.067 149.976 187.067 163.287 173.756Z" fill="white" stroke="#263238" stroke-linecap="round" stroke-linejoin="round"/>
<path d="M167.536 144.431C167.536 146.713 166.82 148.937 165.49 150.791C164.16 152.644 162.283 154.035 160.121 154.766L144.896 159.894L126.365 166.154C123.635 167.052 120.661 166.834 118.091 165.548C115.522 164.262 113.564 162.013 112.646 159.29C111.727 156.567 111.922 153.592 113.188 151.012C114.454 148.432 116.688 146.457 119.403 145.518L136.236 139.858L153.148 134.198C154.784 133.647 156.528 133.493 158.235 133.749C159.942 134.004 161.565 134.661 162.968 135.666C164.372 136.67 165.517 137.994 166.309 139.528C167.101 141.061 167.518 142.761 167.525 144.488L167.536 144.431Z" fill="white"/>
<path d="M167.536 144.431C167.536 146.712 166.82 148.936 165.49 150.79C164.16 152.644 162.283 154.034 160.122 154.766L144.896 159.894C144.49 152.393 141.419 145.283 136.236 139.846L153.148 134.186C154.785 133.636 156.528 133.482 158.235 133.737C159.943 133.992 161.565 134.649 162.968 135.654C164.372 136.659 165.517 137.982 166.309 139.516C167.102 141.05 167.518 142.75 167.525 144.476L167.536 144.431Z" fill="#0CB8B6"/>
<path d="M167.536 144.431C167.536 146.713 166.82 148.937 165.49 150.791C164.16 152.644 162.283 154.035 160.121 154.766L144.896 159.894L126.365 166.154C123.635 167.052 120.661 166.834 118.091 165.548C115.522 164.262 113.564 162.013 112.646 159.29C111.727 156.567 111.922 153.592 113.188 151.012C114.454 148.432 116.688 146.457 119.403 145.518L136.236 139.858L153.148 134.198C154.784 133.647 156.528 133.493 158.235 133.749C159.942 134.004 161.565 134.661 162.968 135.666C164.372 136.67 165.517 137.994 166.309 139.528C167.101 141.061 167.518 142.761 167.525 144.488L167.536 144.431Z" stroke="#263238" stroke-linecap="round" stroke-linejoin="round"/>
<path d="M144.896 159.895C144.55 152.381 141.47 145.251 136.236 139.848" stroke="#263238" stroke-linecap="round" stroke-linejoin="round"/>
<path d="M163.891 140.367C164.605 141.571 164.966 142.952 164.932 144.352" stroke="white" stroke-linecap="round" stroke-linejoin="round"/>
<path d="M140.538 141.499L154.122 136.971C155.34 136.554 156.636 136.411 157.916 136.554C159.197 136.697 160.429 137.122 161.525 137.798" stroke="white" stroke-linecap="round" stroke-linejoin="round"/>
<path d="M370.778 103.415C388.114 96.0775 396.219 76.0763 388.882 58.7407C381.545 41.4051 361.544 33.2997 344.208 40.6369C326.873 47.974 318.767 67.9752 326.104 85.3108C333.441 102.646 353.443 110.752 370.778 103.415Z" fill="white" stroke="#263238" stroke-linecap="round" stroke-linejoin="round"/>
<path d="M369.247 86.2923L339.521 76.342C337.049 75.5111 335.008 73.7327 333.847 71.3978C332.686 69.0628 332.5 66.3624 333.329 63.89C334.16 61.4182 335.938 59.3775 338.273 58.2164C340.608 57.0553 343.308 56.8689 345.781 57.698L375.507 67.6369C377.977 68.4704 380.016 70.2492 381.177 72.5833C382.337 74.9174 382.525 77.6165 381.699 80.0889C380.868 82.561 379.09 84.6024 376.756 85.7653C374.421 86.9282 371.721 87.1178 369.247 86.2923Z" fill="#0CB8B6"/>
<path d="M347.467 75.5497L352.448 63.6523" stroke="#263238" stroke-linecap="round" stroke-linejoin="round"/>
<path d="M363.848 80.9942L368.806 69.1309" stroke="#263238" stroke-linecap="round" stroke-linejoin="round"/>
<path d="M351.577 76.2513C352.133 76.2513 352.584 75.8002 352.584 75.2438C352.584 74.6874 352.133 74.2363 351.577 74.2363C351.02 74.2363 350.569 74.6874 350.569 75.2438C350.569 75.8002 351.02 76.2513 351.577 76.2513Z" fill="#263238"/>
<path d="M361.482 78.2087C361.482 78.4079 361.423 78.6027 361.312 78.7684C361.201 78.9341 361.044 79.0632 360.86 79.1394C360.676 79.2157 360.473 79.2356 360.278 79.1968C360.082 79.1579 359.903 79.0619 359.762 78.921C359.621 78.7801 359.525 78.6006 359.486 78.4052C359.447 78.2098 359.467 78.0072 359.543 77.8231C359.62 77.639 359.749 77.4817 359.915 77.371C360.08 77.2603 360.275 77.2012 360.474 77.2012C360.741 77.2012 360.998 77.3073 361.187 77.4963C361.376 77.6852 361.482 77.9415 361.482 78.2087Z" fill="#263238"/>
<path d="M355.482 67.2864C356.038 67.2864 356.49 66.8354 356.49 66.279C356.49 65.7225 356.038 65.2715 355.482 65.2715C354.926 65.2715 354.475 65.7225 354.475 66.279C354.475 66.8354 354.926 67.2864 355.482 67.2864Z" fill="#263238"/>
<path d="M365.24 69.154C365.24 69.3532 365.18 69.548 365.07 69.7137C364.959 69.8794 364.802 70.0085 364.618 70.0848C364.434 70.161 364.231 70.181 364.036 70.1421C363.84 70.1032 363.661 70.0073 363.52 69.8664C363.379 69.7255 363.283 69.5459 363.244 69.3505C363.205 69.1551 363.225 68.9525 363.301 68.7684C363.378 68.5843 363.507 68.427 363.672 68.3163C363.838 68.2056 364.033 68.1465 364.232 68.1465C364.499 68.1465 364.756 68.2526 364.944 68.4416C365.133 68.6305 365.24 68.8868 365.24 69.154Z" fill="#263238"/>
<path d="M369.247 86.2923L339.521 76.342C337.049 75.5111 335.008 73.7327 333.847 71.3978C332.686 69.0628 332.5 66.3624 333.329 63.89C334.16 61.4182 335.938 59.3775 338.273 58.2164C340.608 57.0553 343.308 56.8689 345.781 57.698L375.507 67.6369C377.977 68.4704 380.016 70.2492 381.177 72.5833C382.337 74.9174 382.525 77.6165 381.699 80.0889C380.868 82.561 379.09 84.6024 376.756 85.7653C374.421 86.9282 371.721 87.1178 369.247 86.2923Z" stroke="#263238" stroke-linecap="round" stroke-linejoin="round"/>
<path d="M228.823 104.257C247.647 104.257 262.907 88.9968 262.907 70.1724C262.907 51.3481 247.647 36.0879 228.823 36.0879C209.998 36.0879 194.738 51.3481 194.738 70.1724C194.738 88.9968 209.998 104.257 228.823 104.257Z" fill="white" stroke="#263238" stroke-linecap="round" stroke-linejoin="round"/>
<path d="M248.349 71.0431V85.012C248.349 88.5551 246.085 91.4304 243.312 91.4304H214.332C211.548 91.4304 209.295 88.5551 209.295 85.012V71.0431C209.295 67.4999 211.559 64.6247 214.332 64.6247H219.098V56.5195H238.342V64.6247H243.278C246.085 64.6247 248.349 67.4999 248.349 71.0431Z" fill="white" stroke="#263238" stroke-linecap="round" stroke-linejoin="round"/>
<path d="M248.338 72.6504H209.295V81.3102H248.338V72.6504Z" fill="#0CB8B6" stroke="#263238" stroke-miterlimit="10"/>
<path d="M221.759 47.0332H236.067C237.682 47.0332 239.231 47.6749 240.374 48.817C241.516 49.9591 242.157 51.5082 242.157 53.1234V59.4513H215.657V53.1234C215.657 52.3226 215.815 51.5298 216.122 50.7902C216.429 50.0505 216.878 49.3786 217.445 48.813C218.012 48.2473 218.684 47.7989 219.425 47.4935C220.165 47.1882 220.958 47.0317 221.759 47.0332Z" fill="#0CB8B6" stroke="#263238" stroke-miterlimit="10"/>
<path d="M220.287 47.418V59.4511" stroke="#263238" stroke-linecap="round" stroke-linejoin="round"/>
<path d="M226.547 47.0332V59.4512" stroke="#263238" stroke-linecap="round" stroke-linejoin="round"/>
<path d="M232.807 47.0332V59.4512" stroke="#263238" stroke-linecap="round" stroke-linejoin="round"/>
<path d="M239.067 47.7363V59.4525" stroke="#263238" stroke-linecap="round" stroke-linejoin="round"/>
<path d="M141.498 256.506C144.543 237.929 131.953 220.402 113.377 217.356C94.8002 214.311 77.2723 226.901 74.227 245.478C71.1816 264.054 83.772 281.582 102.348 284.627C120.925 287.673 138.453 275.082 141.498 256.506Z" fill="white" stroke="#263238" stroke-linecap="round" stroke-linejoin="round"/>
<path d="M125.152 259.785C128.865 251.934 123.76 241.733 113.751 237C103.742 232.266 92.6181 234.793 88.9056 242.643C85.1932 250.494 90.2977 260.695 100.307 265.428C110.316 270.162 121.44 267.635 125.152 259.785Z" fill="#0CB8B6" stroke="#263238" stroke-linecap="round" stroke-linejoin="round"/>
<path d="M126.39 257.114C129.873 249.75 124.582 239.943 114.573 235.209C104.564 230.476 93.6263 232.608 90.1437 239.973C86.6611 247.337 91.952 257.144 101.961 261.877C111.97 266.611 122.908 264.478 126.39 257.114Z" fill="#0CB8B6" stroke="#263238" stroke-linecap="round" stroke-linejoin="round"/>
<path d="M114.049 238.467L101.676 255.866" stroke="#263238" stroke-linecap="round" stroke-linejoin="round"/>
<path d="M106.601 235.648C108.259 235.872 109.892 236.251 111.48 236.78" stroke="white" stroke-linecap="round" stroke-linejoin="round"/>
<path d="M95.6083 252.027C95.6083 252.027 89.2918 245.111 95.4612 238.443C96.8848 236.992 98.7389 236.039 100.748 235.727" stroke="white" stroke-linecap="round" stroke-linejoin="round"/>
<path d="M500.527 256.525C503.573 237.949 490.982 220.421 472.406 217.376C453.829 214.33 436.302 226.921 433.256 245.497C430.211 264.074 442.801 281.602 461.378 284.647C479.954 287.692 497.482 275.102 500.527 256.525Z" fill="white" stroke="#263238" stroke-linecap="round" stroke-linejoin="round"/>
<path d="M486.455 254.428C486.194 254.802 485.934 255.187 485.662 255.56C480.557 262.635 472.69 269.235 466.86 270.537V270.446C461.2 269.178 453.581 262.896 448.476 256.036C448.193 255.662 447.921 255.277 447.661 254.904C442.748 247.863 440.677 240.471 446.144 237.414C457.26 231.211 466.86 244.512 466.86 244.512C466.86 244.512 476.482 231.313 487.575 237.505C492.896 240.471 491.073 247.557 486.455 254.428Z" fill="#0CB8B6" stroke="#263238" stroke-miterlimit="10"/>
<path d="M486.454 254.428C486.193 254.801 485.933 255.186 485.661 255.56H482.854L479.639 259.805L477.454 247.217L474.058 255.775H466.033L461.923 262.623L458.754 248.756L454.667 255.99H448.475C448.192 255.616 447.921 255.231 447.66 254.858H454.011L459.207 245.655L462.399 259.635L465.421 254.598H473.345L477.873 243.006L480.296 256.997L482.277 254.382L486.454 254.428Z" fill="white"/>
<path d="M434.077 184.118C452.901 184.118 468.161 168.858 468.161 150.034C468.161 131.209 452.901 115.949 434.077 115.949C415.252 115.949 399.992 131.209 399.992 150.034C399.992 168.858 415.252 184.118 434.077 184.118Z" fill="white" stroke="#263238" stroke-linecap="round" stroke-linejoin="round"/>
<path d="M431.518 134.277C431.846 135.013 429.797 136.643 426.99 137.922C424.183 139.202 421.556 139.643 421.228 138.896C420.9 138.149 422.937 136.53 425.756 135.251C428.575 133.972 431.178 133.576 431.518 134.277Z" fill="white" stroke="#263238" stroke-linecap="round" stroke-linejoin="round"/>
<path d="M446.857 165.893L436.657 170.829L427.511 151.992L421.194 138.974L431.394 134.027L437.552 146.728L446.857 165.893Z" fill="white" stroke="#263238" stroke-linecap="round" stroke-linejoin="round"/>
<path d="M423.085 142.858L427.511 140.809L423.085 142.858Z" fill="#0CB8B6"/>
<path d="M423.085 142.858L427.511 140.809" stroke="#263238" stroke-linecap="round" stroke-linejoin="round"/>
<path d="M425.009 146.955L429.435 144.906L425.009 146.955Z" fill="#0CB8B6"/>
<path d="M425.009 146.955L429.435 144.906" stroke="#263238" stroke-linecap="round" stroke-linejoin="round"/>
<path d="M440.562 168.939L445.826 175.845L443.2 167.66L440.562 168.939Z" fill="white" stroke="#263238" stroke-linecap="round" stroke-linejoin="round"/>
<path d="M446.857 165.893C444.469 168.284 441.422 169.908 438.106 170.557L436.657 170.829L427.511 151.992L437.552 146.729L446.857 165.893Z" fill="#0CB8B6" stroke="#263238" stroke-miterlimit="10"/>
<path d="M429.436 155.571L433.601 153.646" stroke="#263238" stroke-linecap="round" stroke-linejoin="round"/>
<path d="M431.722 159.952L435.808 158.084L431.722 159.952Z" fill="#0CB8B6"/>
<path d="M431.722 159.952L435.808 158.084" stroke="#263238" stroke-linecap="round" stroke-linejoin="round"/>
<path d="M424.726 137.254L421.5 129.998L424.036 128.561L427.511 135.907L424.726 137.254Z" fill="white" stroke="#263238" stroke-linecap="round" stroke-linejoin="round"/>
<path d="M430.262 127.678L429.492 125.98L415.908 132.059L416.678 133.757C416.995 134.482 420.289 133.689 424.047 132.014C427.806 130.339 430.579 128.392 430.262 127.678Z" fill="white" stroke="#263238" stroke-linecap="round" stroke-linejoin="round"/>
<path d="M429.492 125.979C429.175 125.266 425.87 126.047 422.123 127.722C418.376 129.398 415.591 131.345 415.908 132.058C416.225 132.771 419.531 131.99 423.278 130.303C427.025 128.616 429.809 126.692 429.492 125.979Z" fill="white" stroke="#263238" stroke-linecap="round" stroke-linejoin="round"/>
</svg>
