<svg width="404" height="267" viewBox="0 0 404 267" fill="none" xmlns="http://www.w3.org/2000/svg">
<path d="M87.9679 63.8947C87.9679 63.8947 91.8491 94.7918 92.6692 96.7086C94.4811 100.962 105.629 113.874 105.629 113.874C105.629 113.874 71.518 132.603 61.3048 132.603C51.0916 132.603 54.6295 108.686 54.6295 108.686C54.6295 108.686 61.8293 103.918 63.2597 100.628C65.4244 95.6691 68.7525 73.1733 68.7525 73.1733L87.9679 63.8947Z" fill="#FFC4AC"/>
<path d="M64.7188 100.733C68.9122 99.7945 73.0229 98.5188 77.0109 96.9184C77.7356 96.6418 78.4508 96.3271 79.1661 95.9648C80.8063 95.0111 82.4274 94.0575 83.9914 93.0181C84.5731 92.6271 87.6056 90.224 87.8058 90.224C88.8262 89.2036 89.8084 88.1356 90.7716 87.058L91.029 86.791C89.6463 77.1022 87.9775 63.8088 87.9775 63.8088L68.7526 73.1733C68.7526 73.1733 65.4626 95.6691 63.336 100.628C63.2725 100.773 63.1992 100.913 63.1167 101.048C63.7842 100.924 64.4518 100.8 64.7188 100.733Z" fill="#FFA280"/>
<path d="M119.895 244.443C120.439 251.499 120.915 258.566 121.23 265.651H25.0198C25.0198 262.695 25.0961 259.672 25.1437 256.62C25.1437 255.152 25.1914 253.674 25.2105 252.186C25.2963 246.96 25.3822 241.696 25.4775 236.375C25.4775 236.223 25.4775 236.07 25.4775 235.917V234.296C25.6682 223.959 25.8971 213.755 26.1355 204.41C26.1355 204.305 26.1355 204.191 26.1355 204.086C26.1307 204.054 26.1307 204.022 26.1355 203.99C26.1355 203.351 26.1355 202.722 26.1832 202.083C26.7077 182.057 27.2989 166.303 27.8234 162.479C29.7306 148.375 31.3422 129.103 31.3422 129.103L33.3353 127.262L39.2382 121.827L49.5754 112.291L50.2048 111.709L52.112 109.916L53.6569 108.495L54.5056 109.191L63.0309 116.096L98.7724 105.51L101.767 104.624L102.453 104.423L103.073 104.919L103.188 105.015L107.717 108.667L115.079 114.598L121.592 119.853C114.354 148.261 114.784 176.765 116.824 205.468C116.891 206.422 116.958 207.376 117.034 208.386C117.11 209.397 117.158 210.122 117.225 210.99C117.292 211.858 117.368 212.897 117.444 213.851C117.606 215.825 117.759 217.799 117.931 219.782C118.579 227.688 119.275 235.622 119.838 243.565C119.842 243.594 119.842 243.623 119.838 243.651C119.857 243.89 119.876 244.166 119.895 244.443Z" fill="#3DB0D0"/>
<path d="M50.7101 107.914C50.7101 107.98 50.6148 108.285 50.4717 108.81C50.281 109.554 49.9854 110.717 49.623 112.3C47.2199 122.933 42.099 151.131 47.773 180.274C47.8874 180.875 48.0019 181.571 48.0972 182.324C48.6408 186.339 48.946 192.337 49.1271 198.612C49.1844 200.777 49.2225 202.979 49.2511 205.144C49.2559 205.214 49.2559 205.284 49.2511 205.354C49.2511 205.688 49.2511 206.021 49.2511 206.308C49.3083 210.246 49.3179 214.013 49.2511 217.179C49.2511 222.433 49.1939 226.047 49.1939 226.047C49.1939 226.047 49.1939 227.402 49.1939 229.776C49.1986 229.843 49.1986 229.91 49.1939 229.976C49.1939 230.844 49.1939 231.884 49.1939 232.961C49.1939 233.209 49.1939 233.467 49.1939 233.724C49.2893 241.191 49.4037 253.197 49.4132 265.613H19.9656C20.4042 255.543 20.8429 245.415 21.2148 236.537C21.2148 236.366 21.2148 236.194 21.2148 236.022C21.2148 235.386 21.2434 234.751 21.3006 234.115C21.7012 224.531 22.0158 216.635 22.1589 212.182C22.2447 209.693 22.2733 206.517 22.2638 202.865V202.407C22.2066 178.405 20.7666 134.481 23.8373 125.527C23.9603 125.145 24.1301 124.78 24.3427 124.44C25.3929 123.133 26.6337 121.992 28.0236 121.054H28.0713C29.187 120.234 30.4744 119.366 31.8858 118.489C39.6196 113.511 50.3096 108.104 50.7101 107.914Z" fill="white"/>
<path d="M53.2087 107.103C53.2087 107.103 49.2416 117.497 49.2416 122.618C49.2416 127.739 47.8589 154.03 47.9543 172.693C48.0019 181.685 48.7267 208.758 48.7267 208.758C48.7267 208.758 34.041 150.979 35.0995 148.013C36.2248 144.866 43.1385 136.284 43.1385 136.284C43.1385 136.284 40.2776 126.337 39.324 123.543C38.3704 120.749 41.7367 117.621 44.2352 114.007C46.3045 111.08 53.2087 107.103 53.2087 107.103Z" fill="#AEE7FA"/>
<path d="M126.599 240.59C126.952 247.838 127.553 256.573 128.144 265.651H69.7539C70.1735 257.164 70.7075 248.572 71.1462 240.685C71.1462 240.685 71.1462 240.685 71.1462 240.628C71.4227 236.146 71.6993 231.903 71.9568 228.021C71.9568 227.764 71.9568 227.516 71.9568 227.268C71.9568 227.02 71.9568 226.591 72.033 226.314C72.5861 217.97 73.0534 211.552 73.2727 208.653C73.2727 208.062 73.349 207.624 73.3681 207.337V206.946C73.3681 206.946 73.4349 206.374 73.5684 205.306C73.6256 204.753 73.7114 204.057 73.8163 203.237C74.8271 195.15 77.6308 174.686 82.6563 150.578C83.9151 144.561 89.8084 130.686 94.7958 119.567C95.8258 117.268 96.8175 115.085 97.7139 113.12L98.9822 110.374C99.4495 109.353 99.8882 108.467 100.279 107.599C100.851 106.359 101.319 105.367 101.643 104.671C101.967 103.975 102.167 103.565 102.167 103.565L103.369 104.414H103.445C104.198 104.957 105.247 105.711 106.478 106.617C109.11 108.524 112.571 111.175 115.804 113.845C118.496 116.007 121.009 118.383 123.318 120.949L123.404 121.054C123.931 121.674 124.388 122.348 124.768 123.066C134.438 143.283 128.754 188.456 126.723 215.109C126.341 220.087 126.094 224.417 126.094 227.821C126.094 230.31 126.179 233.543 126.341 237.205C126.484 238.32 126.542 239.436 126.599 240.59Z" fill="white"/>
<path d="M104.036 103.622C104.036 103.622 85.0976 128.798 81.8648 136.894C78.6321 144.99 73.9212 166.456 72.9294 207.881C72.9294 207.881 79.2901 184.842 83.7721 175.286C90.1899 161.593 94.7577 154.583 94.319 152.4C93.6897 149.281 89.5033 146.201 88.4257 142.663C93.0774 138.487 98.3422 135.049 104.036 132.469C104.036 132.469 107.851 117.803 108.385 112.863C108.919 107.923 104.036 103.622 104.036 103.622Z" fill="#AEE7FA"/>
<path d="M114.555 252.196H87.4531V256.63H114.555V252.196Z" fill="#AEE7FA"/>
<path d="M44.0158 252.196H23.4463V256.63H44.0158V252.196Z" fill="#AEE7FA"/>
<path d="M97.4658 99.4836L63.0308 116.105C63.0308 116.105 74.3406 130.314 79.7858 129.952C88.7784 129.341 104.036 103.622 104.036 103.622L97.4658 99.4836Z" fill="#3397B5"/>
<path d="M63.031 116.105C63.031 116.105 55.4021 128.235 51.7688 126.9C47.2105 125.241 51.025 107.418 51.025 107.418L59.3786 104.423L63.031 116.105Z" fill="#3397B5"/>
<path d="M53.0464 33.4839C47.6776 38.0612 46.4188 45.4804 47.4392 50.4583C48.4595 55.4361 52.131 66.5171 52.131 66.5171C52.131 66.5171 56.0694 49.5046 58.6918 43.5064C61.3143 37.5081 65.6342 29.5931 65.6342 29.5931L53.0464 33.4839Z" fill="#2D2D2D"/>
<path d="M60.4563 32.8068C57.0519 34.714 51.1872 38.7192 50.9202 41.7803C50.6532 44.8414 49.1369 53.7863 49.4898 59.0407C49.8426 64.2952 48.7173 69.9882 49.4898 76.1391C50.2622 82.2899 54.9158 93.8286 59.1022 96.9183C65.892 101.953 75.4281 95.4879 81.5599 91.3874C88.6643 86.6193 91.2963 82.4234 90.8958 69.273C90.8958 69.273 95.5303 45.1084 94.2239 41.4656C91.0483 32.6351 72.6245 36.3828 67.3605 35.6009C62.0966 34.8189 60.4563 32.8068 60.4563 32.8068Z" fill="#FFC4AC"/>
<path d="M92.2496 40.9221C94.0138 43.783 88.2349 47.3399 87.7771 49.9624C87.2913 53.7463 87.4395 57.5848 88.2158 61.3199L90.1898 66.336C90.1898 66.336 89.2362 77.3598 90.1326 80.9835C90.8668 83.9588 110.549 63.1032 105.39 41.1128C103.149 31.5767 94.4238 34.4375 94.4238 34.4375C92.9743 24.7011 88.5591 20.7341 69.3533 21.1823C50.1475 21.6305 46.8193 36.9551 46.8193 36.9551C50.0139 39.0149 48.1544 45.0417 58.2627 45.6902C76.7152 46.8345 79.5093 39.0149 86.814 37.8038C88.3302 37.5177 90.4854 38.0613 92.2496 40.9221Z" fill="#2D2D2D"/>
<path d="M88.3494 68.081C89.3205 65.4913 90.7843 63.1143 92.6597 61.0814C95.0056 58.7737 98.534 58.7165 99.4399 62.3783C100.546 66.8317 96.5218 69.6735 96.293 72.2864C96.0355 75.2235 90.6666 77.8651 88.6641 76.8924L88.3494 68.081Z" fill="#FFC4AC"/>
<path opacity="0.52" d="M94.7769 63.5418C96.4743 62.5023 97.7426 63.9137 98.0096 65.449C98.2766 66.9843 97.8189 66.0879 96.7413 65.0771C95.6637 64.0663 94.138 66.1547 94.0712 67.6137C93.9758 69.6354 92.9078 72.0289 91.1436 71.924C89.3794 71.8191 90.3616 71.3423 90.8957 69.2635C91.4297 67.1846 90.8003 69.2635 91.6204 67.2418C92.1812 65.6619 93.3051 64.3445 94.7769 63.5418Z" fill="#A95442"/>
<path d="M101.709 209.931C103.769 186.873 103.95 163.786 105.648 149.32C109.462 117.04 115.899 113.845 115.899 113.845C115.899 113.845 129.546 118.613 134.495 151.284C135.954 160.896 137.832 182.515 135.277 212.783C133.265 236.623 129.479 239.598 123.671 242.106C115.737 245.53 100.67 248.457 93.7849 242.221C98.1334 227.135 100.765 231.073 101.709 209.931Z" fill="white"/>
<path d="M115.899 113.845C115.899 113.845 129.765 119.996 134.714 152.667C136.164 162.279 137.832 182.515 135.277 212.745C133.265 236.585 129.479 239.56 123.671 242.068C115.737 245.492 100.67 248.419 93.7849 242.183" stroke="#AEE7FA" stroke-width="1.84" stroke-linecap="round" stroke-linejoin="round"/>
<path d="M29.3779 206.06C30.5031 184.746 33.2496 163.509 33.6024 150.111C34.3844 120.33 31.7715 118.365 31.7715 118.365C31.7715 118.365 20.4806 123.982 14.3966 144.704C11.9458 153.01 4.4599 179.034 1.71348 204.915C-0.508441 225.828 2.78153 231.483 7.13956 234.382C13.586 238.664 34.0601 235.555 39.2669 234.887C37.2833 220.288 27.5279 225.504 29.3779 206.06Z" fill="white"/>
<path d="M31.7715 118.365C31.7715 118.365 20.4806 123.982 14.3966 144.704C11.9458 153.01 4.4599 179.034 1.71348 204.915C-0.508441 225.828 2.78153 231.483 7.13956 234.382C13.586 238.664 50.5386 233.638 55.774 232.971" stroke="#AEE7FA" stroke-width="1.84" stroke-linecap="round" stroke-linejoin="round"/>
<path d="M30.0548 216.025C29.6447 192.68 30.8558 189.8 32.8012 167.391" stroke="#AEE7FA" stroke-width="1.84" stroke-linecap="round" stroke-linejoin="round"/>
<path d="M111.36 208.282C110.769 187.703 110.918 167.871 111.808 148.786" stroke="#AEE7FA" stroke-width="1.84" stroke-linecap="round" stroke-linejoin="round"/>
<path d="M84.4874 232.875C92.8507 234.43 93.213 215.5 93.213 215.5C93.213 215.5 79.6621 205.907 78.556 213.593C77.4498 221.279 84.4874 232.875 84.4874 232.875Z" fill="#808195"/>
<path d="M78.3555 204.562C82.5323 204.829 90.9718 198.841 97.4278 204.057C101.445 207.284 105.08 210.96 108.261 215.014C108.261 215.014 94.5002 213.822 86.8712 217.455C79.2423 221.089 71.6992 227.516 71.6992 227.516L78.3555 204.562Z" fill="#FCBDA5"/>
<path d="M80.711 202.665C78.5654 206.317 81.5407 220.86 82.2559 224.846C82.2559 224.846 58.6443 233.142 38.9331 234.058C14.7494 235.183 8.83699 232.742 4.60294 228.107C0.368887 223.473 9.6285 195.303 21.0719 201.787C28.2431 205.831 39.9821 208.167 51.5304 205.983C63.2408 203.771 80.711 202.665 80.711 202.665Z" fill="white"/>
<path d="M51.5115 205.983C63.2409 203.771 80.7112 202.665 80.7112 202.665C78.5656 206.317 86.4329 229.91 87.1862 233.896" stroke="#AEE7FA" stroke-width="1.84" stroke-linecap="round" stroke-linejoin="round"/>
<path d="M54.8108 201.129C50.9105 200.367 42.2898 193.119 35.481 196.438C31.3849 198.443 27.5431 200.93 24.0376 203.847C24.0376 203.847 38.9712 207.442 44.9218 212.764C50.8723 218.085 56.6036 226.457 56.6036 226.457L54.8108 201.129Z" fill="#FCBDA5"/>
<path d="M54.4484 201.034C49.1844 202.846 45.4462 208.167 44.5308 227.44C44.5308 227.44 64.7665 238.797 79.2424 243.823C103.083 250.746 116.91 245.301 123.252 241.982C129.593 238.664 131.691 206.975 118.341 208.177C113.706 208.596 93.9662 215.148 81.1496 210.17C69.7062 205.688 54.4484 201.034 54.4484 201.034Z" fill="white"/>
<path d="M118.341 206.594C115.242 204.133 112.18 203.59 108.805 202.417C105.429 201.244 89.6847 200.824 88.0254 202.76C88.0254 202.76 99.4688 210.322 101.548 213.517C102.806 215.653 104.008 218.447 105.362 219.239C106.716 220.03 107.937 219.591 108.356 218.457C108.464 217.876 108.418 217.278 108.223 216.721C109.103 217.199 109.923 217.782 110.664 218.457C112.858 220.469 114.755 220.774 114.803 219.544C114.851 218.314 112.676 215.081 112.676 215.081C113.795 216.089 114.84 217.176 115.804 218.333C117.073 219.925 119.399 220.535 119.342 218.552C119.285 216.568 117.158 213.278 115.327 211.142C114.509 210.171 113.544 209.335 112.467 208.663C113.315 209.111 114.66 209.807 115.575 210.198C117.225 210.904 121.297 213.736 122.174 211.896C123.052 210.055 121.497 209.073 118.341 206.594Z" fill="#FCBDA5"/>
<path d="M40.3157 210.189C31.1027 204.834 20.769 201.7 10.1338 201.034" stroke="#AEE7FA" stroke-width="1.84" stroke-linecap="round" stroke-linejoin="round"/>
<path d="M119.943 244.433C105.839 250.784 86.4708 246.808 74.8844 242.259C67.1601 239.274 60.2368 235.135 53.1133 231.645C48.7076 229.499 47.3153 228.918 44.5308 226.877C44.5308 226.877 44.6547 210.58 50.2525 203.885" stroke="#AEE7FA" stroke-width="1.84" stroke-linecap="round" stroke-linejoin="round"/>
<path d="M52.4746 199.67C59.703 201.864 81.4359 214.928 96.2265 213.116" stroke="#AEE7FA" stroke-width="1.84" stroke-linecap="round" stroke-linejoin="round"/>
<path d="M359.93 69.0155C359.205 81.012 353.464 99.7696 350.861 102.087C350.861 102.087 347.361 104.604 334.649 103.222C321.423 101.791 318.896 96.5464 318.896 96.5464C318.896 96.5464 304.42 75.1377 308.95 56.4945C313.479 37.8513 316.226 31.2714 326.115 28.2484C336.004 25.2255 347.609 32.0629 347.609 32.0629C347.609 32.0629 360.559 58.2206 359.93 69.0155Z" fill="#200004"/>
<path d="M304.896 123.381L304.429 105.329L316.33 98.9209C317.671 98.3723 318.929 97.6406 320.068 96.7466C324.646 91.9214 324.684 72.1815 324.684 72.1815L341.563 71.7142C341.563 71.7142 341.62 90.2239 347.142 96.6227C348.458 98.158 354.952 102.411 355.095 101.791L361.522 110.374L359.882 123.925C341.573 122.847 323.244 122.866 304.896 123.381Z" fill="#FCBDA5"/>
<path d="M332.37 93.8572C331.159 94.0956 329.938 94.3149 328.718 94.5056H328.642C326.439 94.7059 324.255 94.9157 322.043 95.0301H321.213C324.655 88.4311 324.684 72.1434 324.684 72.1434L341.563 71.6761C341.563 71.6761 341.563 82.8334 344.205 90.8152C340.325 92.0661 336.373 93.0819 332.37 93.8572Z" fill="#FFA280"/>
<path d="M312.411 108.018L315.853 98.7206L336.852 108.19L349.754 98.7206L353.731 115.485L362.809 232.36L316.283 234.439L312.411 108.018Z" fill="#3DB0D0"/>
<path d="M290.831 170.928C292.328 157.578 299.108 138.506 299.108 138.506L297.325 107.456C293.027 110.457 289.259 114.154 286.177 118.394C281.523 125.184 268.058 168.592 266.151 182.858C264.244 197.124 267.715 196.419 272.607 195.599C273.904 195.389 278.481 199.842 284.508 199.318C286.501 189.829 288.189 180.264 290.831 170.928Z" fill="white"/>
<path d="M381.72 265.651H293.272C293.73 259.538 294.426 253.54 295.427 247.818C297.83 234.134 301.483 223.253 304.115 212.592C307.929 213.228 311.782 213.825 315.672 214.385C324.293 215.586 332.955 216.483 341.658 217.074L343.651 217.217H344.605C350.327 217.573 356.033 217.789 361.723 217.865C364.793 217.923 367.87 217.923 370.953 217.865H373.118C373.709 220.459 374.374 223.161 375.111 225.971C375.941 229.175 376.866 232.532 377.896 236.07C377.896 236.07 377.896 236.118 377.896 236.137C378.287 237.481 378.649 238.893 378.964 240.342C379.749 243.883 380.342 247.465 380.738 251.07C380.897 252.456 381.04 253.868 381.167 255.304C381.424 258.68 381.615 262.161 381.72 265.651Z" fill="#2A3559"/>
<path d="M385.42 265.651H342.66C342.107 253.369 341.811 242.659 341.706 233.304C341.63 227.373 341.62 221.985 341.706 217.093C341.897 193.92 343.146 181.647 343.127 174.295C343.127 172.864 343.213 171.234 343.375 169.527C343.375 169.45 343.375 169.307 343.375 169.088C343.375 169.031 343.375 168.974 343.375 168.926C343.375 168.878 343.375 168.506 343.442 168.239C344.338 160.048 346.474 150.464 346.474 150.464L349.163 123.524L349.755 117.564L351.071 104.423L351.233 102.802L351.357 101.562L351.5 100.065L351.69 98.158V97.9482L352.93 98.4251L355.6 99.4454L361.322 101.639L369.39 104.738C370.734 108.81 378.706 146.487 377.61 153.983C377.333 155.89 377.286 162.718 377.61 172.264C377.848 179.215 378.296 187.607 378.992 196.562C379.946 208.615 381.329 221.708 383.331 233.753C383.465 234.592 383.608 235.421 383.751 236.251C385.029 243.26 385.487 253.807 385.42 265.651Z" fill="white"/>
<path d="M344.557 217.265C344.557 222.319 344.557 227.659 344.557 233.181C344.51 243.67 344.414 254.713 344.233 265.651H288.466C288.42 259.683 288.844 253.72 289.734 247.819C291.412 238.282 293.081 225.552 294.502 212.392C295.456 203.409 296.409 194.206 297.105 185.624C297.43 181.752 297.716 177.995 297.964 174.476C297.964 174.381 297.964 174.285 297.964 174.19C297.964 173.837 298.021 173.494 298.04 173.15C298.04 172.969 298.04 172.798 298.04 172.626C298.145 171.005 298.25 169.431 298.345 167.915C299.003 156.805 299.156 148.671 298.555 146.602C298.479 146.344 298.402 146.087 298.336 145.839L297.506 143.045C295.599 136.656 294.235 132.202 294.235 132.202C294.235 132.202 294.302 131.42 294.407 130.123C294.502 129.065 294.626 127.653 294.779 126.061C295.379 119.634 296.39 110.097 297.249 107.475L312.649 99.6743L313.937 99.0259L314.347 98.8161H314.404L315.52 98.5586L316.006 98.4537L318.295 97.9292L319.573 97.6431L320.66 100.924L325.657 116.115L326.753 119.424L327.945 123.047L343.203 169.412C343.203 169.412 343.203 169.412 343.203 169.46L344.157 172.264L344.252 176.908C344.252 176.908 344.557 194.044 344.557 217.265Z" fill="white"/>
<path d="M322.634 240.619C322.634 240.619 306.813 258.985 296.667 255.18L296.047 251.366C300.909 250.729 305.501 248.766 309.321 245.692C315.615 240.59 317.484 236.604 317.484 236.604L322.634 240.619Z" fill="#AEE7FA"/>
<path d="M315.3 98.2248L310.017 101.248L313.059 123.019L320.116 121.112V134.033C333.696 141.185 343.337 169.46 343.337 169.46C343.337 169.46 336.518 140.489 332.265 130.486C320.993 104.08 315.3 98.2248 315.3 98.2248Z" fill="#AEE7FA"/>
<path d="M331.674 188.666L332.122 192.28L254.956 151.37L260.591 144.485L300.29 123.143L331.674 188.666Z" fill="#3397B5"/>
<path d="M332.122 192.28L287.474 216.178L254.956 151.37L300.748 126.757L332.122 192.28Z" fill="#3DB0D0"/>
<path d="M295.961 172.693C296.863 173.843 298.091 174.694 299.484 175.136C300.877 175.579 302.371 175.591 303.771 175.172C303.771 175.172 303.056 164.368 299.108 167.352C295.16 170.337 295.961 172.693 295.961 172.693Z" fill="#3397B5"/>
<path d="M294.006 158.818C295.799 155.776 294.006 151.494 298.584 145.61C303.161 139.726 304.878 133.366 306.594 135.34C308.311 137.313 304.878 145.61 304.878 145.61C304.878 145.61 308.597 137.619 310.885 138.83C313.174 140.041 312.602 144.275 312.602 144.275C312.602 144.275 314.89 142.101 316.321 145.61C317.751 149.119 316.321 151.246 316.321 151.246C316.321 151.246 319.468 150.34 319.754 153.067C320.04 155.795 318.324 156.395 318.324 156.395C318.324 156.395 320.898 160.029 317.751 161.24C314.604 162.451 307.452 164.577 305.45 165.788C303.447 167 296.667 174.714 296.667 174.714L290.85 164.225C290.85 164.225 292.414 161.516 294.006 158.818Z" fill="#FCBDA5"/>
<path d="M292.585 161.001C295.284 170.938 299.108 175.306 303.771 175.172C303.771 175.172 303.771 178.424 292.585 190.916C284.003 200.452 276.269 205.22 271.987 205.22C267.705 205.22 264.959 192.995 266.485 185.042C268.011 177.089 273.999 177.756 279.835 172.302C285.09 167.333 292.585 161.001 292.585 161.001Z" fill="white"/>
<path d="M270.318 178.538C272.912 176.564 276.393 175.468 279.854 172.263C285.118 167.333 292.614 161.001 292.614 161.001C295.313 170.938 299.137 175.306 303.8 175.172C303.8 175.172 303.8 178.424 292.614 190.916C284.031 200.452 276.297 205.22 272.016 205.22C269.422 205.22 267.381 200.71 266.523 195.389" stroke="#AEE7FA" stroke-width="1.84" stroke-linecap="round" stroke-linejoin="round"/>
<path d="M339.456 119.004C339.456 119.318 339.362 119.624 339.188 119.885C339.014 120.145 338.766 120.348 338.476 120.467C338.186 120.587 337.868 120.618 337.56 120.556C337.253 120.494 336.971 120.342 336.75 120.12C336.529 119.898 336.379 119.615 336.319 119.307C336.259 118.999 336.292 118.681 336.413 118.392C336.534 118.103 336.738 117.856 337 117.683C337.262 117.51 337.569 117.419 337.882 117.421C338.09 117.421 338.295 117.462 338.486 117.542C338.678 117.621 338.852 117.738 338.998 117.885C339.144 118.032 339.26 118.207 339.339 118.399C339.417 118.591 339.457 118.797 339.456 119.004Z" fill="white"/>
<path d="M341.649 136.284C341.649 136.597 341.556 136.903 341.382 137.163C341.208 137.423 340.961 137.626 340.672 137.746C340.382 137.866 340.064 137.897 339.757 137.836C339.45 137.775 339.168 137.624 338.947 137.403C338.725 137.182 338.574 136.899 338.513 136.592C338.452 136.285 338.484 135.967 338.603 135.678C338.723 135.389 338.926 135.141 339.186 134.967C339.447 134.793 339.753 134.701 340.066 134.701C340.274 134.699 340.481 134.739 340.673 134.819C340.866 134.898 341.041 135.014 341.188 135.161C341.335 135.309 341.452 135.484 341.531 135.676C341.61 135.869 341.65 136.075 341.649 136.284Z" fill="white"/>
<path d="M314.356 65.9353C314.562 68.5569 315.071 71.1458 315.873 73.6501C316.473 75.4334 317.141 76.6921 317.78 78.237C319.029 81.3172 325.971 88.3453 330.863 90.7103C332.543 91.2826 334.355 91.3456 336.07 90.8915C342.326 89.175 349.058 80.4589 351.156 75.9006C352.72 72.5058 353.683 66.3073 353.97 60.4807C354.256 54.6541 354.704 46.9393 354.456 42.4287C353.769 30.3464 344.967 27.6763 335.755 28.9446C325.161 30.4322 314.013 37.1075 313.984 40.655C313.918 48.7416 313.479 57.2765 314.356 65.9353Z" fill="#FCBDA5"/>
<path d="M305.412 101.953C305.412 101.953 312.087 100.266 315.587 98.2725C316.896 97.5234 318.249 96.8546 319.639 96.2699C314.76 87.0123 313.054 76.4087 314.786 66.0879C318.009 47.1205 327.335 51.0971 338.492 48.2744C343.547 46.987 347.809 36.6117 348.181 36.03C351.414 30.8804 346.407 25.2922 346.531 25.2732C342.994 22.8033 340.428 22.4123 336.919 21.8878C323.063 19.6754 312.621 29.574 309.188 39.2341C304.83 51.5357 307.595 67.4993 308.063 78.6566C308.701 93.8286 305.297 102.011 305.412 101.953Z" fill="#42220D"/>
<path d="M345.54 36.9264C345.795 37.7524 345.939 38.6086 345.969 39.4725C345.721 47.254 352.997 53.6242 353.178 54.2154C355.743 62.2544 350.394 85.1317 347.332 96.1745C351.919 98.0818 356.325 100.456 361.456 101.601C359.934 93.7027 359.612 85.6205 360.502 77.6267C363.725 49.9718 364.259 45.6806 359.92 36.2875C357.059 30.0508 350.432 25.0062 347.027 25.1778C346.851 25.1822 346.676 25.2014 346.503 25.2351C346.374 25.2513 346.246 25.2768 346.121 25.3113C343.108 26.3794 344.767 33.3694 345.54 36.9264Z" fill="#42220D"/>
<path d="M347.275 95.5928L355.581 99.188L360.197 118.89L354.523 117.936L358.337 132.307C350.708 141.042 343.327 169.498 343.327 169.498C343.327 169.498 345.778 145.41 347.371 129.78C350.327 101 347.275 95.5928 347.275 95.5928Z" fill="#AEE7FA"/>
<path d="M343.699 265.651C343.699 255.381 343.699 244.252 343.699 233.228C343.699 227.831 343.699 222.462 343.699 217.227C343.699 197.668 343.613 179.978 343.375 169.908" stroke="#AEE7FA" stroke-width="1.84" stroke-linecap="round" stroke-linejoin="round"/>
<path d="M336.852 108.19C336.852 108.19 345.359 101.229 346.388 93.8286L350.508 97.4142C350.508 97.4142 353.884 116.019 349.116 117.926C342.44 120.578 336.852 108.19 336.852 108.19Z" fill="#3397B5"/>
<path d="M336.852 108.19C336.852 108.19 324.865 103.727 319.973 93.8286L315.854 97.4142C315.854 97.4142 320.316 119.118 326.41 119.405C335.021 119.853 336.852 108.19 336.852 108.19Z" fill="#3397B5"/>
<path d="M367.807 247.599C369.391 248.402 371.041 249.072 372.737 249.602C373.68 248.343 374.294 246.867 374.52 245.31C374.596 242.45 381.329 228.641 381.329 228.641L370.553 224.15C369.113 226.057 364.421 235.221 362.323 237.109C360.864 238.425 360.206 240.924 359.939 242.345C362.444 244.267 365.072 246.022 367.807 247.599Z" fill="#FCBDA5"/>
<path d="M401.498 171.567C396.797 155.041 386.078 119.271 383.446 114.713C379.069 107.084 369.39 104.7 369.39 104.7L367.282 140.937C367.282 140.937 376.075 171.062 382.302 183.087C382.302 183.087 379.841 195.951 376.113 204.944C371.907 215.09 364.593 234.039 364.593 234.039C367.025 234.716 375.531 241.801 376.78 243.575C376.78 243.575 389.177 224.922 395.433 215.09C405.064 200.042 405.78 186.482 401.498 171.567Z" fill="white"/>
<path d="M367.301 140.947C367.301 140.947 376.093 171.071 382.32 183.097C382.32 183.097 379.86 195.961 376.131 204.953C371.926 215.1 364.612 234.048 364.612 234.048C367.044 234.725 375.55 241.811 376.799 243.584C376.799 243.584 389.196 224.932 395.452 215.1" stroke="#AEE7FA" stroke-width="1.84" stroke-linecap="round" stroke-linejoin="round"/>
<path d="M385.115 172.14L382.12 184.107" stroke="#AEE7FA" stroke-width="1.84" stroke-linecap="round" stroke-linejoin="round"/>
<path d="M355.791 240.619C355.791 240.619 371.612 258.985 381.72 255.18L382.34 251.366C377.478 250.729 372.885 248.766 369.065 245.692C362.771 240.59 360.912 236.604 360.912 236.604L355.791 240.619Z" fill="#AEE7FA"/>
<path d="M180.402 92.4172C181.279 76.7303 211.795 76.7207 224.507 81.4125C237.218 86.1043 235.635 98.6825 235.635 98.6825" stroke="#2A3559" stroke-width="2.37" stroke-miterlimit="10"/>
<path d="M248.548 96.6513C245.973 108.095 243.379 118.737 240.842 128.588H182.281C179.992 117.936 177.417 106.445 174.509 94.0002C180.497 91.0059 188.47 89.9951 191.121 84.7025C192.074 82.7953 192.36 75.6336 192.408 71.9431C192.493 68.1702 192.337 64.3957 191.941 60.6428H224.192C223.759 66.3919 223.651 72.1609 223.868 77.9223C224.097 81.9942 224.679 85.4558 225.918 86.6192C229.79 90.2716 240.966 93.018 248.548 96.6513Z" fill="#FCBDA5"/>
<path d="M255.928 265.651H207.027L207.599 254.141L207.98 246.512L208.934 227.173L255.08 243.785L255.232 243.842C255.232 243.842 255.661 252.882 255.928 265.651Z" fill="#2A3559"/>
<path d="M205.596 265.651H157.82C158.774 255.075 159.499 248.41 159.499 248.41L203.689 227.163L204.7 247.532L205.596 265.651Z" fill="#2A3559"/>
<path d="M264.406 114.579C264.406 114.579 264.215 116.534 263.843 120.043C263.309 125.183 262.394 133.652 261.164 144.17C261.011 145.515 260.858 146.888 260.687 148.29C260.467 150.149 260.239 152.104 260 154.011C259.762 155.918 259.523 157.921 259.275 159.943C258.741 164.234 258.179 168.716 257.578 173.293C257.527 173.662 257.479 174.044 257.435 174.438C257.187 176.469 256.968 178.691 256.758 181.113C256.662 182.305 256.558 183.535 256.472 184.804C256.415 185.519 256.367 186.253 256.319 186.997C256.167 189.305 256.033 191.765 255.909 194.244C255.909 194.921 255.842 195.608 255.814 196.304C255.814 196.628 255.814 196.943 255.766 197.258C255.771 197.312 255.771 197.366 255.766 197.42C255.366 206.956 255.146 217.732 255.08 228.765V228.937C255.08 233.838 255.08 238.797 255.08 243.727C255.127 251.166 255.232 258.547 255.394 265.603H153.929C154.464 253.74 154.978 240.809 155.284 228.164V227.983C155.284 227.03 155.284 226.009 155.36 225.027C155.57 214.947 155.646 205.163 155.503 196.419C155.503 195.77 155.503 195.131 155.455 194.511C155.374 187.424 154.931 180.345 154.13 173.303C152.708 162.158 152.261 150.91 152.795 139.688C152.795 138.82 152.871 137.962 152.928 137.132C153.262 131.363 153.806 126.461 154.32 122.714C154.683 120.12 155.026 118.069 155.274 116.677C155.522 115.285 155.694 114.532 155.694 114.532L158.202 112.777L160.691 111.041L170.036 104.519L175.977 100.37L180.507 97.2139L180.964 96.8992L181.098 96.8039L181.994 97.0899L183.148 97.4619L183.625 97.6144L187.85 98.9686L189.49 99.4931L190.768 99.9031L207.046 100.59H207.313L221.169 98.6825L228.664 94.7059L229.389 94.3245L230.629 95.0397L232.136 95.9075L235.645 97.9387L235.855 98.0626L242.53 101.877L246.726 104.299L255.661 109.458L262.699 113.53L264.406 114.579Z" fill="#3DB0D0"/>
<path d="M191.121 84.7025C190.931 85.0707 190.714 85.4245 190.472 85.761C200.867 86.5525 216.554 84.5022 223.954 79.0857C223.954 78.7138 223.896 78.3514 223.877 77.97C223.656 72.1929 223.761 66.408 224.192 60.6428H191.941C192.337 64.3957 192.493 68.1702 192.408 71.9431C192.36 75.6336 192.093 82.7476 191.121 84.7025Z" fill="#FFA280"/>
<path d="M150.296 265.651C150.945 250.794 151.507 236.9 151.765 228.145C151.77 228.091 151.77 228.037 151.765 227.983C151.765 226.791 151.832 225.695 151.851 224.712C151.851 223.959 151.851 223.272 151.851 222.653C152.013 213.221 151.689 204.62 151.078 196.247C151.021 195.446 150.964 194.654 150.897 193.863C149.495 176.269 146.882 159.456 144.756 137.79L157.553 102.335L166.803 97.7193L169.588 96.3366L178.113 92.0835L179.067 91.6067L180.536 90.8724L181.279 90.51L181.174 91.3206C181.098 92.0072 180.965 93.1038 180.812 94.5057C180.745 95.0778 180.679 95.6977 180.602 96.4129L180.545 96.8706C180.545 97.0137 180.545 97.1567 180.545 97.3093C180.068 101.772 179.458 107.866 179.038 113.731C178.565 118.863 178.451 124.022 178.695 129.17C179.181 134.51 180.841 140.46 183.129 146.878C183.33 147.441 183.539 148.013 183.749 148.585C188.689 161.936 196.146 177.241 201.353 193.205C201.357 193.243 201.357 193.281 201.353 193.319C201.553 193.911 201.744 194.511 201.935 195.112C203.385 199.627 204.601 204.214 205.577 208.854C206.111 211.438 206.531 214.032 206.884 216.635C207.16 218.762 207.361 220.898 207.466 223.034C207.466 223.291 207.466 223.549 207.466 223.806V223.883C207.47 223.924 207.47 223.965 207.466 224.007C207.466 224.579 207.466 225.141 207.513 225.714C207.637 232.78 207.78 239.751 207.895 246.522C208 253.121 208.076 259.538 208.076 265.67L150.296 265.651Z" fill="white"/>
<path d="M265.474 129.608C265.331 134.1 265.235 138.248 265.159 142.053C265.159 143.398 265.159 144.694 265.092 145.953C265.026 149.92 264.988 153.496 264.968 156.71C264.968 162.813 264.968 167.61 264.968 171.338C264.968 175.067 264.911 177.871 264.721 179.692C264.673 180.102 264.635 180.512 264.587 180.913L264.444 182.2C264.291 183.64 264.129 185.061 263.977 186.396C263.843 187.559 263.719 188.694 263.586 189.8C263.538 190.22 263.49 190.64 263.452 191.05C263.338 192.003 263.233 192.957 263.128 193.825C263.052 194.425 262.985 195.017 262.918 195.608C261.545 206.099 260.857 216.668 260.858 227.249C260.858 227.478 260.858 227.707 260.858 227.936V228.079C260.954 238.711 261.678 252.091 262.661 265.68H204.385C204.385 259.519 204.481 253.388 204.7 247.561C205.024 238.73 205.568 230.596 206.14 224.131C206.14 224.131 206.14 224.064 206.14 224.035C206.14 223.854 206.14 223.663 206.14 223.482C206.14 223.301 206.188 222.958 206.216 222.7C206.426 220.431 206.645 218.399 206.855 216.645C207.084 214.642 207.322 213.002 207.532 211.8C207.742 210.599 207.98 209.35 208.219 208.177C209.044 204.069 210.085 200.007 211.337 196.009C211.404 195.808 211.461 195.618 211.518 195.427C211.719 194.797 211.928 194.187 212.129 193.586C217.221 178.452 223.868 168.602 228.073 152.123C229.031 148.35 229.798 144.53 230.371 140.68L230.428 140.308C230.686 138.572 230.915 136.846 231.115 135.149C231.382 132.936 231.592 130.762 231.773 128.636C232.677 117.78 232.785 106.874 232.097 96.0028C231.926 93.2659 231.735 91.2347 231.621 90.0141C231.535 89.2035 231.477 88.7744 231.477 88.7744L233.776 89.728L233.995 89.8234L234.586 90.0809L260.591 101.343L262.689 113.635L263.786 120.053L265.474 129.608Z" fill="white"/>
<path d="M181.909 91.5495L187.192 87.4489C188.855 89.1574 190.633 90.7504 192.513 92.217C202.459 99.3119 207.961 99.9508 207.961 99.9508C207.961 99.9508 197.786 108.085 193.056 107.437C184.34 106.245 181.909 91.5495 181.909 91.5495Z" fill="#3397B5"/>
<path d="M231.544 90.51L228.168 86.6097C226.15 88.6924 224.01 90.6539 221.76 92.484C211.995 99.4645 206.598 100.113 206.598 100.113C206.598 100.113 216.582 108.104 221.226 107.465C229.771 106.264 231.544 90.51 231.544 90.51Z" fill="#3397B5"/>
<path d="M220.244 238.378C220.244 239.044 220.046 239.695 219.676 240.249C219.306 240.803 218.779 241.234 218.164 241.489C217.548 241.743 216.871 241.809 216.218 241.678C215.564 241.548 214.964 241.226 214.494 240.755C214.024 240.283 213.704 239.682 213.575 239.028C213.446 238.375 213.514 237.698 213.77 237.083C214.027 236.468 214.46 235.943 215.014 235.574C215.569 235.205 216.221 235.009 216.887 235.011C217.778 235.014 218.632 235.37 219.261 236.001C219.891 236.632 220.244 237.486 220.244 238.378Z" fill="#AEE7FA"/>
<path d="M188.803 87.3631C188.803 87.3631 185.847 100.504 190.472 122.819C193.39 136.884 194.506 146.297 197.452 157.368C205.234 186.606 205.606 208.863 205.606 208.863L172.868 121.703L178.485 114.78L167.251 109.353C167.251 109.353 176.254 93.409 180.602 90.2812C182.971 88.4896 185.835 87.4707 188.803 87.3631Z" fill="#AEE7FA"/>
<path d="M228.169 86.6097C228.169 86.6097 230.295 100.037 225.966 123.457C221.636 146.878 216.43 168.602 214.093 176.65C207.666 198.946 207.332 210.675 207.332 210.675C207.332 210.675 238.353 128.063 244.447 117.65L238.267 112.949L245.315 107.542C245.315 107.542 238.639 92.8941 234.291 89.7948C229.942 86.6956 228.169 86.6097 228.169 86.6097Z" fill="#AEE7FA"/>
<path d="M248.337 197.525C249.653 175.897 248.957 153.391 250.245 138.753C253.315 104.709 260.62 101.343 260.62 101.343C260.62 101.343 272.826 107.008 278.739 140.708C280.388 150.187 285.614 170.423 283.173 198.145C281.352 219.029 277.594 221.823 271.873 224.398C263.986 227.916 248.738 231.626 241.357 226.829C245.257 213.259 248.175 216.549 248.337 197.525Z" fill="white"/>
<path d="M260.649 101.343C260.649 101.343 272.855 107.008 278.767 140.708C280.417 150.187 285.643 170.423 283.202 198.145C281.352 219.029 277.594 221.823 271.873 224.398C263.986 227.916 248.738 231.626 241.357 226.829" stroke="#AEE7FA" stroke-width="1.84" stroke-linecap="round" stroke-linejoin="round"/>
<path d="M166.412 197.525C165.096 175.897 165.802 153.391 164.505 138.753C161.434 104.709 157.649 102.335 157.649 102.335C157.649 102.335 143.22 108.81 138.338 132.851C136.431 142.282 130.862 170.995 131.596 198.097C132.158 219.077 137.165 224.255 143.039 226.648C151.517 230.129 175.958 226.648 181.975 225.637C177.989 212.115 166.584 216.549 166.412 197.525Z" fill="white"/>
<path d="M157.62 102.335C157.62 102.335 143.192 108.81 138.309 132.851C136.402 142.282 130.833 170.995 131.567 198.097C132.13 219.077 137.136 224.255 143.011 226.648C151.488 230.129 175.929 226.648 181.947 225.637" stroke="#AEE7FA" stroke-width="1.84" stroke-linecap="round" stroke-linejoin="round"/>
<path d="M168.253 207.805C164.906 185.051 166.021 182.114 165.592 159.094" stroke="#AEE7FA" stroke-width="1.84" stroke-linecap="round" stroke-linejoin="round"/>
<path d="M258.522 195.475C257.251 176.402 256.799 157.289 257.168 138.134" stroke="#AEE7FA" stroke-width="1.84" stroke-linecap="round" stroke-linejoin="round"/>
<path d="M231.039 219.353C240.003 220.097 239.507 203.142 239.507 203.142C239.507 203.142 224.249 195.112 223.467 202.321C222.685 209.531 231.039 219.353 231.039 219.353Z" fill="#808195"/>
<path d="M222.676 193.901C227.31 193.901 236.255 187.846 243.56 192.366C247.882 195.019 251.882 198.165 255.48 201.74C255.48 201.74 240.823 201.511 232.803 205.306C227.165 208.154 221.832 211.57 216.887 215.5L222.676 193.901Z" fill="#FCBDA5"/>
<path d="M225.146 191.984C222.991 195.541 232.984 216.569 233.957 220.049C219.141 222.734 204.172 224.489 189.137 225.304C163.599 226.4 145.004 225.304 139.13 221.26C133.255 217.217 140.398 188.837 155.56 194.559C164.782 198.087 179.038 199.594 192.303 196.791C205.568 193.987 225.146 191.984 225.146 191.984Z" fill="white"/>
<path d="M192.341 196.838C205.616 194.025 225.165 191.984 225.165 191.984C223.01 195.541 233.003 216.569 233.976 220.049" stroke="#AEE7FA" stroke-width="1.84" stroke-linecap="round" stroke-linejoin="round"/>
<path d="M195.708 191.984C191.102 191.469 180.192 184.861 172.42 188.504C167.82 190.642 163.484 193.308 159.499 196.447C159.499 196.447 177.818 199.012 185.351 203.704C190.627 207.18 195.534 211.183 199.999 215.653L195.708 191.984Z" fill="#FCBDA5"/>
<path d="M195.326 191.918C189.385 193.958 185.542 199.299 186.429 217.455C199.323 222.017 212.599 225.416 226.099 227.611C251.341 231.636 265.197 227.611 271.529 224.321C277.861 221.031 279.578 193.157 265.865 194.979C261.04 195.618 240.375 202.751 226.223 198.974C213.082 195.465 195.326 191.918 195.326 191.918Z" fill="white"/>
<path d="M231.668 191.593C236.293 190.239 244.371 187.331 247.689 185.519C251.008 183.707 253.554 181.752 257.74 180.894C261.927 180.036 263.882 179.416 264.749 181.151C265.617 182.887 258.885 184.136 257.292 184.479C255.7 184.823 253.173 187.436 253.173 187.436C253.173 187.436 258.551 186.606 261.545 186.482C264.54 186.358 266.561 185.91 268.221 186.997C269.88 188.084 267.772 189.429 265.617 189.457C263.987 189.581 262.391 189.994 260.906 190.678C260.906 190.678 264.721 190.945 265.674 191.631C266.628 192.318 265.312 193.443 262.203 193.911C260.492 194.147 258.8 194.504 257.14 194.979C257.14 194.979 256.043 197.334 251.98 197.067C247.918 196.8 231.668 191.593 231.668 191.593Z" fill="#FCBDA5"/>
<path d="M258.818 193.796C252.724 194.797 247.603 195.617 243.302 196.285L243.36 196.752C243.403 197.483 243.403 198.215 243.36 198.946C246.694 198.945 250.021 198.658 253.306 198.087C255.18 197.701 257.027 197.194 258.837 196.571C260.754 195.78 262.06 193.262 258.818 193.796Z" fill="#FCBDA5"/>
<path d="M181.718 201.768C169.485 197.609 156.588 195.75 143.678 196.285" stroke="#AEE7FA" stroke-width="1.84" stroke-linecap="round" stroke-linejoin="round"/>
<path d="M148.36 227.878C169.74 228.832 190.319 225.275 209.697 223.826" stroke="#AEE7FA" stroke-width="1.84" stroke-linecap="round" stroke-linejoin="round"/>
<path d="M272.197 224.245C258.494 231.121 238.43 230.158 225.851 227.745C217.269 226.086 209.268 223.387 200.972 221.213C195.765 219.839 192.141 218.991 186.667 218.037C186.667 218.037 184.236 203.094 189.643 196.199" stroke="#AEE7FA" stroke-width="1.84" stroke-linecap="round" stroke-linejoin="round"/>
<path d="M195.708 191.984C204.29 193.319 230.038 203.094 245.782 199.918" stroke="#AEE7FA" stroke-width="1.84" stroke-linecap="round" stroke-linejoin="round"/>
<path d="M226.643 50.1053C226.643 50.1053 226.252 41.6086 233.375 41.8279C237.915 41.9709 238.268 46.1287 234.73 51.5071C233.232 53.7672 233.089 58.8786 231.239 60.5283C228.989 62.5309 227.101 59.4412 226.471 58.0394C225.289 55.7126 226.643 50.1053 226.643 50.1053Z" fill="#FCBDA5"/>
<path d="M230.81 46.1764C233.328 44.7745 236.122 45.0606 234.443 47.8547C232.765 50.6488 231.649 51.488 231.783 54.53C231.835 54.8807 231.814 55.2384 231.72 55.5803C231.627 55.9223 231.463 56.2411 231.24 56.5164C231.016 56.7918 230.738 57.0176 230.423 57.1797C230.108 57.3417 229.762 57.4364 229.408 57.4576L230.81 46.1764Z" fill="#FBA799"/>
<path d="M188.288 50.1053C188.288 50.1053 188.689 41.6086 181.613 41.8279C177.074 41.9709 176.721 46.1287 180.259 51.5071C181.746 53.7672 181.899 58.8786 183.749 60.5283C186 62.5309 187.878 59.4412 188.565 58.0394C189.652 55.7126 188.288 50.1053 188.288 50.1053Z" fill="#FCBDA5"/>
<path d="M184.903 46.1764C182.385 44.7745 179.591 45.0606 181.27 47.8547C182.948 50.6488 184.064 51.488 183.93 54.53C183.878 54.8807 183.899 55.2384 183.993 55.5803C184.086 55.9223 184.25 56.2411 184.473 56.5164C184.696 56.7918 184.975 57.0176 185.29 57.1797C185.605 57.3417 185.951 57.4364 186.305 57.4576L184.903 46.1764Z" fill="#FBA799"/>
<path d="M233.862 29.307C233.68 32.0629 233.137 33.8557 232.422 37.9563C232.25 38.9099 232.069 40.0638 231.878 41.3797C230.409 51.5739 228.54 65.4395 227.739 67.5088C226.414 70.9418 219.157 76.5014 215.667 78.5326C212.176 80.5638 203.508 80.1442 200.046 78.113C196.585 76.0818 188.756 70.9418 187.43 67.5088C186.61 65.4013 184.684 51.1352 183.196 40.8076C183.024 39.6251 182.862 38.6047 182.71 37.6988C182.004 33.6555 181.47 32.0629 181.308 29.3451C180.774 20.7626 190.472 8.20346 207.58 8.20346C227.825 8.16531 234.396 20.6958 233.862 29.307Z" fill="#FCBDA5"/>
<g style="mix-blend-mode:multiply">
<path d="M188.26 22.8033C188.26 22.8033 202.24 19.1701 222.657 20.2858L228.14 16.6144C221.227 13.0749 213.573 11.2252 205.806 11.2169C193.152 11.36 188.26 22.8033 188.26 22.8033Z" fill="#E6D2E3"/>
</g>
<path d="M233.08 35.7439L232.336 37.8228L232.422 37.9563C232.25 38.9099 232.069 40.0638 231.878 41.3798C231.525 43.8592 231.144 46.5579 230.763 49.2566L227.902 52.7755C229.237 48.7417 230.114 40.4357 230.534 37.7274C228.608 33.5514 227.566 29.0223 227.473 24.4245L226.405 17.5489L221.818 17.7492C221.16 17.0721 211.204 17.4345 202.555 18.102C191.578 18.9412 188.25 22.8701 188.25 22.8701C187.611 26.9897 186.791 33.2645 184.693 36.8692L184.579 37.0694L184.417 37.346C184.932 39.9493 185.151 47.6832 186.696 51.9458L184.388 49.3043C183.978 46.3958 183.568 43.4777 183.187 40.8171C183.129 40.4357 183.082 40.1019 183.025 39.7491C183.025 39.7491 182.557 38.1756 181.918 35.9346C181.442 34.2944 180.269 25.8644 180.011 24.6724C179.916 24.3005 179.839 23.9477 179.773 23.5948C178.762 18.3118 180.917 -1.30407 211.137 1.07997C211.499 1.07997 211.852 1.15626 212.215 1.20394C222.17 2.51993 226.738 7.21172 226.738 7.21172L230.152 13.2195C235.817 14.0682 236.417 17.3487 235.121 23.8046C235.044 24.0716 233.652 34.1514 233.08 35.7439Z" fill="#491B25"/>
<path d="M178.886 94.191L179.057 95.9742C178.972 95.9742 168.062 96.4987 163.332 103.269C158.183 110.631 150.048 131.639 152.165 135.969C154.492 140.737 164.639 145.124 164.744 145.171L164.038 146.821C163.599 146.63 153.176 142.139 150.544 136.76C147.788 131.096 157.22 108.886 161.854 102.239C167.07 94.7727 178.514 94.2196 178.886 94.191Z" fill="#2A3559"/>
<path d="M156.428 117.068C158.252 112.245 160.566 107.621 163.332 103.269C168.1 96.4987 178.972 95.9838 179.057 95.9742L178.972 95.0778L178.886 94.191C178.514 94.191 167.071 94.7727 161.854 102.239C159.014 106.765 156.618 111.556 154.702 116.544L156.428 117.068Z" fill="#2A3559" stroke="#2A3559" stroke-width="0.55" stroke-linecap="round" stroke-linejoin="round"/>
<path d="M163.904 143.569H166.527C166.87 143.564 167.209 143.634 167.523 143.773C167.836 143.912 168.116 144.117 168.342 144.375C168.569 144.632 168.737 144.935 168.835 145.264C168.933 145.592 168.959 145.938 168.911 146.277C168.859 146.613 168.735 146.933 168.548 147.217C168.362 147.501 168.116 147.741 167.829 147.922C167.541 148.102 167.219 148.219 166.882 148.265C166.546 148.31 166.203 148.283 165.878 148.185L163.37 147.431C163.271 147.404 163.185 147.342 163.129 147.256C163.073 147.17 163.05 147.066 163.065 146.964L163.494 143.932C163.508 143.832 163.557 143.741 163.632 143.674C163.707 143.608 163.804 143.571 163.904 143.569Z" fill="#2A3559"/>
<path d="M180.602 94.4294L179.944 96.0982C180.021 96.0982 190.367 99.6361 193.057 107.437C195.975 115.933 198.006 138.372 194.783 141.948C191.226 145.915 180.269 147.317 180.154 147.336L180.383 149.119C180.86 149.052 192.112 147.613 196.118 143.15C200.333 138.467 197.386 114.541 194.754 106.855C191.769 98.2438 180.946 94.5629 180.602 94.4294Z" fill="#2A3559"/>
<path d="M195.889 122.609C195.448 117.468 194.489 112.385 193.028 107.437C190.339 99.6361 179.992 96.1268 179.916 96.0982L180.24 95.259L180.574 94.4294C180.917 94.5629 191.769 98.2438 194.725 106.826C196.211 111.964 197.194 117.234 197.662 122.561L195.889 122.609Z" fill="#2A3559" stroke="#2A3559" stroke-width="0.55" stroke-linecap="round" stroke-linejoin="round"/>
<path d="M182.3 146.144L179.868 145.419C179.346 145.277 178.792 145.315 178.295 145.528C177.798 145.741 177.388 146.116 177.131 146.592C176.945 146.957 176.857 147.364 176.875 147.773C176.892 148.182 177.016 148.58 177.233 148.928C177.45 149.275 177.753 149.56 178.112 149.756C178.472 149.952 178.877 150.051 179.286 150.044H181.756C181.858 150.041 181.956 150.002 182.033 149.934C182.11 149.866 182.16 149.774 182.176 149.672L182.595 146.649C182.617 146.544 182.599 146.433 182.544 146.34C182.49 146.247 182.403 146.177 182.3 146.144Z" fill="#2A3559"/>
<path d="M176.979 96.4892H179.277C179.337 96.48 179.398 96.48 179.458 96.4892L181.661 97.1281C181.814 97.1712 181.978 97.1573 182.122 97.0889C182.265 97.0205 182.379 96.9023 182.443 96.7562L182.796 95.9743C182.844 95.8637 182.861 95.7418 182.844 95.6221C182.828 95.5025 182.778 95.3899 182.7 95.2972L182.605 95.1732C182.081 94.5287 181.777 93.7334 181.737 92.9036L181.604 90.3288C181.599 90.1691 181.535 90.0169 181.424 89.9021C181.312 89.7874 181.162 89.7185 181.003 89.709L180.364 89.6613H180.326L179.658 89.5564C179.502 89.5224 179.338 89.5473 179.199 89.6266C179.06 89.7058 178.955 89.8336 178.905 89.9855L178.066 92.4173C177.792 93.1906 177.281 93.858 176.607 94.3245L176.483 94.4199C176.385 94.4883 176.307 94.5822 176.258 94.6914C176.21 94.8006 176.191 94.921 176.206 95.0397L176.33 95.8884C176.344 96.0512 176.419 96.2029 176.538 96.3139C176.658 96.425 176.815 96.4874 176.979 96.4892Z" fill="#2A3559"/>
<path opacity="0.3" d="M225.766 43.7828C225.376 45.4144 224.43 46.8589 223.089 47.8669C221.749 48.875 220.098 49.3834 218.423 49.3043C212.968 49.3043 212.815 45.7473 212.301 43.6493C211.888 42.274 211.794 40.823 212.024 39.4057C212.52 38.166 213.931 38.1374 218.261 38.0516C222.59 37.9658 224.936 37.9086 225.623 38.5475C226.309 39.1864 226.481 40.5787 225.766 43.7828Z" fill="white"/>
<path opacity="0.3" d="M189.452 38.4999C190.148 37.861 192.523 37.9182 196.823 38.004C201.124 38.0898 202.545 38.1184 203.05 39.3581C203.281 40.7754 203.186 42.2264 202.774 43.6017C202.259 45.6997 202.116 49.2567 196.652 49.2567C194.977 49.3339 193.327 48.8248 191.987 47.8171C190.647 46.8093 189.7 45.3659 189.309 43.7352C188.603 40.5788 188.765 39.1293 189.452 38.4999Z" fill="white"/>
<path d="M230.476 37.7942C230.381 36.8406 225.708 36.44 222.361 36.3733C219.014 36.3065 213.349 36.1349 211.337 36.8215C209.554 37.4413 209.85 38.0993 207.59 38.0993C205.616 38.0993 205.52 37.4413 203.775 36.8215C201.763 36.1349 196.146 36.3065 192.751 36.3733C189.357 36.44 184.741 36.8596 184.646 37.7942C184.631 38.0005 184.631 38.2077 184.646 38.414C184.646 38.5189 184.646 38.6334 184.646 38.7383C184.646 38.8432 184.646 38.9767 184.646 39.0911C184.671 39.2584 184.706 39.424 184.751 39.587C184.903 40.1019 186.572 40.3785 186.858 40.5406C187.497 40.8457 187.297 42.9056 188.288 45.1561C189.566 48.0169 192.561 50.3342 198.607 49.8288C204.157 49.3615 204.052 43.4873 204.748 41.9043C205.339 40.5597 205.034 40.121 207.542 40.121C210.05 40.121 209.669 40.5597 210.26 41.9043C210.946 43.4873 210.841 49.3615 216.392 49.8288C222.437 50.3342 225.298 48.0837 226.576 45.1847C227.53 42.9437 227.53 40.8457 228.14 40.5406C228.417 40.4166 229.857 40.1687 230.19 39.73C230.194 39.6951 230.194 39.66 230.19 39.6251C230.339 39.085 230.407 38.5258 230.391 37.9658C230.391 37.9658 230.476 37.8419 230.476 37.7942ZM202.774 43.6017C202.259 45.6997 202.116 49.2471 196.652 49.2471C194.976 49.3281 193.324 48.8204 191.983 47.812C190.642 46.8037 189.696 45.3581 189.309 43.7257C188.603 40.5787 188.765 39.1292 189.452 38.4903C190.138 37.8514 192.523 37.9181 196.823 38.004C201.124 38.0898 202.545 38.1184 203.05 39.3486C203.28 40.769 203.186 42.223 202.774 43.6017ZM225.766 43.7257C225.378 45.3581 224.432 46.8037 223.091 47.812C221.75 48.8204 220.099 49.3281 218.423 49.2471C212.968 49.2471 212.815 45.6997 212.301 43.6017C211.889 42.223 211.794 40.769 212.024 39.3486C212.52 38.1184 213.931 38.0898 218.261 38.004C222.59 37.9181 224.936 37.8609 225.623 38.4903C226.309 39.1197 226.481 40.5787 225.766 43.7257Z" fill="#003750"/>
<path d="M233.375 88.5265C242.32 110.841 228.712 141.633 228.712 141.633" stroke="#2A3559" stroke-width="2.37" stroke-miterlimit="10"/>
<path d="M227.015 152.199C230.491 152.199 233.309 149.382 233.309 145.906C233.309 142.43 230.491 139.612 227.015 139.612C223.539 139.612 220.721 142.43 220.721 145.906C220.721 149.382 223.539 152.199 227.015 152.199Z" fill="white" stroke="#2A3559" stroke-width="2.28" stroke-miterlimit="10"/>
<path d="M207.59 265.651V254.141V225.695V223.988V223.854V223.806V223.044V223.034" stroke="#AEE7FA" stroke-width="1.84" stroke-linecap="round" stroke-linejoin="round"/>
</svg>
