<svg width="90" height="90" viewBox="0 0 90 90" fill="none" xmlns="http://www.w3.org/2000/svg">
<g clip-path="url(#clip0_964_3548)">
<path d="M45.0003 0C34.2247 0 25.4609 8.7675 25.4609 19.545C25.4609 30.3263 34.2266 39.0956 45.0003 39.0956C55.7741 39.0956 64.5416 30.3263 64.5416 19.545C64.5416 8.7675 55.7741 0 45.0003 0Z" fill="white"/>
<path d="M60.0997 44.6117C60.7953 47.6211 61.894 53.0923 61.5284 56.2648C64.4028 58.813 71.944 66.3242 70.3034 73.7361C70.2921 73.8242 69.5159 78.0861 64.2284 79.8955C64.0278 79.9648 63.8215 79.9986 63.6209 79.9986C62.8409 79.9986 62.1153 79.5073 61.849 78.7273C61.5115 77.7467 62.0365 76.6798 63.0172 76.3461C66.1634 75.2698 66.6209 73.0386 66.6284 73.018C67.7496 67.9348 62.1246 61.7642 58.9971 59.0211C55.2546 60.838 48.1784 65.2948 47.9046 70.3986C47.8934 70.5561 47.7771 72.8155 50.4828 74.6567C51.3396 75.2398 51.5628 76.408 50.9778 77.2648C50.6159 77.7955 50.0253 78.0861 49.429 78.0861C49.0634 78.0861 48.6959 77.9792 48.3734 77.7598C43.7478 74.6136 44.1471 70.2861 44.164 70.1023C44.5896 62.1805 54.9434 56.7823 57.8328 55.4248C58.0053 52.6123 56.8371 46.8036 55.9765 43.5223C55.9503 43.4192 55.969 43.3198 55.9578 43.2167C53.2296 42.4742 50.3703 42.043 47.4059 42.043H42.5928C39.274 42.043 36.0715 42.5492 33.0509 43.4736C33.019 43.6067 33.0115 43.7455 32.9459 43.8748C32.9046 43.9592 28.8453 52.3855 26.9046 65.2723C30.1653 66.1723 32.5803 69.133 32.5803 72.673C32.5803 76.9217 29.1228 80.3773 24.8759 80.3773C20.6253 80.3773 17.1678 76.9198 17.1678 72.673C17.1678 69.0298 19.7196 65.983 23.1265 65.188C24.4446 56.1092 26.7434 49.1961 28.2134 45.4236C17.3984 50.7561 9.9209 61.8692 9.9209 74.7242V88.1248C9.9209 89.1617 10.759 89.9998 11.7959 89.9998H78.2122C79.249 89.9998 80.0872 89.1355 80.0872 88.0986V74.7242C80.0834 61.2055 71.8334 49.5767 60.0997 44.6117Z" fill="white"/>
</g>
<defs>
<clipPath id="clip0_964_3548">
<rect width="90" height="90" fill="white"/>
</clipPath>
</defs>
</svg>
