<svg width="130" height="130" viewBox="0 0 130 130" fill="none" xmlns="http://www.w3.org/2000/svg">
<path d="M102.917 37.9167H92.0833V32.5C92.0833 28.1902 90.3713 24.057 87.3238 21.0095C84.2764 17.962 80.1431 16.25 75.8333 16.25H54.1667C49.8569 16.25 45.7236 17.962 42.6762 21.0095C39.6287 24.057 37.9167 28.1902 37.9167 32.5V37.9167H27.0833C24.2128 37.9252 21.4623 39.0694 19.4325 41.0991C17.4027 43.1289 16.2586 45.8795 16.25 48.75V102.917C16.2586 105.787 17.4027 108.538 19.4325 110.568C21.4623 112.597 24.2128 113.741 27.0833 113.75H102.917C105.787 113.741 108.538 112.597 110.568 110.568C112.597 108.538 113.741 105.787 113.75 102.917V48.75C113.741 45.8795 112.597 43.1289 110.568 41.0991C108.538 39.0694 105.787 37.9252 102.917 37.9167ZM48.75 32.5C48.75 31.0634 49.3207 29.6857 50.3365 28.6698C51.3523 27.654 52.7301 27.0833 54.1667 27.0833H75.8333C77.2699 27.0833 78.6477 27.654 79.6635 28.6698C80.6793 29.6857 81.25 31.0634 81.25 32.5V37.9167H48.75V32.5ZM81.25 81.25H70.4167V92.0833H59.5833V81.25H48.75V70.4167H59.5833V59.5833H70.4167V70.4167H81.25V81.25Z" fill="white"/>
</svg>
