<svg width="90" height="90" viewBox="0 0 90 90" fill="none" xmlns="http://www.w3.org/2000/svg">
<path d="M34.5938 72.9751C32.0736 74.9521 30.1681 77.6054 29.1 80.6251H1.875V78.7501C1.875 62.9064 21.75 56.0064 31.575 67.8001C32.8855 69.3287 33.9083 71.082 34.5938 72.9751Z" fill="#FFCC66"/>
<path d="M34.5939 72.9754C33.1917 74.0731 31.9761 75.3901 30.9939 76.8754H11.2501C10.4295 76.8276 9.63102 76.5904 8.91734 76.1825C8.20366 75.7746 7.59411 75.2069 7.13645 74.5241C6.67879 73.8412 6.38544 73.0617 6.27937 72.2465C6.17331 71.4313 6.25742 70.6027 6.5251 69.8254C6.85591 68.797 7.28934 67.8045 7.81885 66.8629C8.08204 66.1939 8.48124 65.5869 8.99118 65.0802C9.50113 64.5734 10.1107 64.1781 10.7814 63.9192C20.6251 58.4817 32.5689 64.8567 34.5939 72.9754Z" fill="#FFDE76"/>
<path d="M26.2499 50.6249C26.2499 56.2499 26.6061 58.1249 24.8999 60.5249C24.2742 61.4257 23.4586 62.1782 22.5105 62.7296C21.5624 63.2809 20.5049 63.6176 19.4126 63.7159C18.3203 63.8143 17.2197 63.6718 16.1884 63.2987C15.1571 62.9255 14.2201 62.3307 13.4436 61.5562C10.6686 58.7437 11.2499 55.8187 11.2499 50.6249C14.0061 51.7687 18.5061 52.7437 20.6249 50.6249C20.9888 50.2461 21.4255 49.9447 21.9088 49.7388C22.3921 49.5329 22.9121 49.4268 23.4374 49.4268C23.9627 49.4268 24.4826 49.5329 24.9659 49.7388C25.4492 49.9447 25.8859 50.2461 26.2499 50.6249Z" fill="#F6CCAF"/>
<path d="M26.2498 50.6249C26.2498 56.2499 26.6061 58.1249 24.8998 60.5249C23.4571 61.5295 21.7074 61.9954 19.9561 61.8412C18.2049 61.687 16.5635 60.9225 15.3186 59.6812C12.7873 57.1124 13.1248 54.5437 13.1248 51.2812C15.2811 51.8812 18.7498 52.4812 20.6248 50.6249C20.9888 50.2461 21.4255 49.9447 21.9088 49.7388C22.3921 49.5329 22.912 49.4268 23.4373 49.4268C23.9627 49.4268 24.4826 49.5329 24.9659 49.7388C25.4492 49.9447 25.8859 50.2461 26.2498 50.6249Z" fill="#FFDEC7"/>
<path d="M26.25 50.625C25.8861 50.2462 25.4493 49.9447 24.966 49.7388C24.4827 49.533 23.9628 49.4268 23.4375 49.4268C22.9122 49.4268 22.3923 49.533 21.909 49.7388C21.4257 49.9447 20.9889 50.2462 20.625 50.625C17.8125 53.4375 11.25 50.625 11.25 50.625C11.25 48.6359 12.0402 46.7282 13.4467 45.3217C14.8532 43.9152 16.7609 43.125 18.75 43.125C20.7391 43.125 22.6468 43.9152 24.0533 45.3217C25.4598 46.7282 26.25 48.6359 26.25 50.625Z" fill="#374F68"/>
<path d="M61.875 86.2505V88.1255H28.125C27.9501 85.5856 28.2815 83.0362 29.1 80.6255C30.4319 76.8794 33.0436 73.7238 36.4747 71.7152C39.9058 69.7066 43.936 68.974 47.8545 69.6465C51.773 70.319 55.3282 72.3535 57.8933 75.3912C60.4583 78.4289 61.8685 82.2747 61.875 86.2505Z" fill="#DB5669"/>
<path d="M61.875 86.2505V88.1255H28.125C27.9501 85.5856 28.2815 83.0362 29.1 80.6255C30.4319 76.8794 33.0436 73.7238 36.4747 71.7152C39.9058 69.7066 43.936 68.974 47.8545 69.6465C51.773 70.319 55.3282 72.3535 57.8933 75.3912C60.4583 78.4289 61.8685 82.2747 61.875 86.2505Z" fill="#DB5669"/>
<path d="M30.9937 76.875C30.2107 78.0396 29.5805 79.2999 29.1187 80.625H25.3687C25.8305 79.2999 26.4607 78.0396 27.2437 76.875H30.9937Z" fill="#FFBA55"/>
<path d="M34.5937 72.9754C28.8749 77.4754 33.7499 76.8754 27.2437 76.8754C28.8669 74.4165 31.1115 72.4306 33.7499 71.1191C34.0772 71.7159 34.3593 72.3364 34.5937 72.9754Z" fill="#FFCC66"/>
<path d="M61.7623 84.3748C28.5561 84.3748 39.8248 84.3748 37.3873 84.3748C36.5667 84.327 35.7682 84.0898 35.0545 83.6819C34.3409 83.2739 33.7313 82.7063 33.2737 82.0235C32.816 81.3406 32.5226 80.561 32.4166 79.7459C32.3105 78.9307 32.3946 78.102 32.6623 77.3248C33.221 75.6139 34.0434 74.0007 35.0998 72.5436C37.4921 70.8136 40.2964 69.7415 43.2326 69.4344C46.1688 69.1272 49.1343 69.5957 51.8328 70.7932C54.5313 71.9906 56.8684 73.8751 58.6108 76.2583C60.3532 78.6416 61.4399 81.4402 61.7623 84.3748Z" fill="#F26674"/>
<path d="M52.4999 58.1249C52.4999 63.7499 52.8561 65.6249 51.1499 68.0249C50.5242 68.9257 49.7086 69.6782 48.7605 70.2296C47.8124 70.7809 46.7549 71.1176 45.6626 71.2159C44.5703 71.3143 43.4697 71.1718 42.4384 70.7987C41.407 70.4255 40.4701 69.8307 39.6936 69.0562C36.9186 66.2437 37.4999 63.3187 37.4999 58.1249C40.2561 59.2687 44.7561 60.2437 46.8749 58.1249C47.2388 57.7461 47.6755 57.4447 48.1588 57.2388C48.6421 57.0329 49.1621 56.9268 49.6874 56.9268C50.2127 56.9268 50.7326 57.0329 51.2159 57.2388C51.6992 57.4447 52.1359 57.7461 52.4999 58.1249Z" fill="#F6CCAF"/>
<path d="M52.4998 58.1249C52.4998 63.7499 52.8561 65.6249 51.1498 68.0249C49.7071 69.0295 47.9574 69.4954 46.2061 69.3412C44.4549 69.187 42.8135 68.4225 41.5686 67.1812C39.0373 64.6124 39.3748 62.0437 39.3748 58.7812C41.5311 59.3812 44.9998 59.9812 46.8748 58.1249C47.2388 57.7461 47.6755 57.4447 48.1588 57.2388C48.6421 57.0329 49.162 56.9268 49.6873 56.9268C50.2127 56.9268 50.7326 57.0329 51.2159 57.2388C51.6992 57.4447 52.1359 57.7461 52.4998 58.1249Z" fill="#FFDEC7"/>
<path d="M52.5 58.125C52.1361 57.7462 51.6993 57.4447 51.216 57.2388C50.7327 57.033 50.2128 56.9268 49.6875 56.9268C49.1622 56.9268 48.6423 57.033 48.159 57.2388C47.6757 57.4447 47.2389 57.7462 46.875 58.125C44.0625 60.9375 37.5 58.125 37.5 58.125C37.5 56.1359 38.2902 54.2282 39.6967 52.8217C41.1032 51.4152 43.0109 50.625 45 50.625C46.9891 50.625 48.8968 51.4152 50.3033 52.8217C51.7098 54.2282 52.5 56.1359 52.5 58.125Z" fill="#374F68"/>
<path d="M88.125 78.75V80.625H60.9C59.8319 77.6053 57.9264 74.952 55.4062 72.975C61.875 55.3875 88.125 59.8688 88.125 78.75Z" fill="#FFCC66"/>
<path d="M88.0123 76.8748C54.8061 76.8748 66.0748 76.8748 63.6373 76.8748C62.8167 76.827 62.0182 76.5898 61.3045 76.1819C60.5909 75.7739 59.9813 75.2063 59.5237 74.5235C59.066 73.8406 58.7726 73.061 58.6666 72.2459C58.5605 71.4307 58.6446 70.602 58.9123 69.8248C59.471 68.1139 60.2934 66.5007 61.3498 65.0436C63.7421 63.3136 66.5464 62.2415 69.4826 61.9344C72.4188 61.6272 75.3843 62.0957 78.0828 63.2932C80.7813 64.4906 83.1184 66.3751 84.8608 68.7583C86.6032 71.1416 87.6899 73.9402 88.0123 76.8748Z" fill="#FFDE76"/>
<path d="M78.7499 50.6249C78.7499 56.2499 79.1061 58.1249 77.3999 60.5249C76.7742 61.4257 75.9586 62.1782 75.0105 62.7296C74.0624 63.2809 73.0049 63.6176 71.9126 63.7159C70.8203 63.8143 69.7197 63.6718 68.6884 63.2987C67.6571 62.9255 66.7201 62.3307 65.9436 61.5562C63.1686 58.7437 63.7499 55.8187 63.7499 50.6249C66.5061 51.7687 71.0061 52.7437 73.1249 50.6249C73.4888 50.2461 73.9255 49.9447 74.4088 49.7388C74.8921 49.5329 75.4121 49.4268 75.9374 49.4268C76.4627 49.4268 76.9826 49.5329 77.4659 49.7388C77.9492 49.9447 78.3859 50.2461 78.7499 50.6249Z" fill="#F6CCAF"/>
<path d="M78.7498 50.6249C78.7498 56.2499 79.1061 58.1249 77.3998 60.5249C75.9571 61.5295 74.2074 61.9954 72.4561 61.8412C70.7049 61.687 69.0635 60.9225 67.8186 59.6812C65.2873 57.1124 65.6248 54.5437 65.6248 51.2812C67.7811 51.8812 71.2498 52.4812 73.1248 50.6249C73.4888 50.2461 73.9255 49.9447 74.4088 49.7388C74.8921 49.5329 75.412 49.4268 75.9373 49.4268C76.4627 49.4268 76.9826 49.5329 77.4659 49.7388C77.9492 49.9447 78.3859 50.2461 78.7498 50.6249Z" fill="#FFDEC7"/>
<path d="M78.75 50.625C78.3861 50.2462 77.9493 49.9447 77.466 49.7388C76.9827 49.533 76.4628 49.4268 75.9375 49.4268C75.4122 49.4268 74.8923 49.533 74.409 49.7388C73.9257 49.9447 73.4889 50.2462 73.125 50.625C70.3125 53.4375 63.75 50.625 63.75 50.625C63.75 48.6359 64.5402 46.7282 65.9467 45.3217C67.3532 43.9152 69.2609 43.125 71.25 43.125C73.2391 43.125 75.1468 43.9152 76.5533 45.3217C77.9598 46.7282 78.75 48.6359 78.75 50.625Z" fill="#374F68"/>
<path d="M78.7502 50.625C78.3877 50.2438 77.9514 49.9402 77.4679 49.7328C76.9844 49.5254 76.4638 49.4184 75.9377 49.4184C75.4116 49.4184 74.891 49.5254 74.4075 49.7328C73.9241 49.9402 73.4878 50.2438 73.1252 50.625C72.3795 51.3304 71.4118 51.7546 70.3877 51.825C68.7515 51.6519 67.1481 51.2479 65.6252 50.625C65.6108 48.7881 66.2711 47.0098 67.4807 45.6274C68.6903 44.245 70.3652 43.3546 72.1877 43.125C74.0103 43.3546 75.6852 44.245 76.8948 45.6274C78.1044 47.0098 78.7646 48.7881 78.7502 50.625Z" fill="#425B72"/>
<path d="M52.5002 58.125C52.1377 57.7438 51.7014 57.4402 51.2179 57.2328C50.7344 57.0254 50.2138 56.9184 49.6877 56.9184C49.1616 56.9184 48.641 57.0254 48.1575 57.2328C47.6741 57.4402 47.2378 57.7438 46.8752 58.125C46.1295 58.8304 45.1618 59.2546 44.1377 59.325C42.5015 59.1519 40.8981 58.7479 39.3752 58.125C39.3608 56.2881 40.0211 54.5098 41.2307 53.1274C42.4403 51.745 44.1152 50.8546 45.9377 50.625C47.7603 50.8546 49.4352 51.745 50.6448 53.1274C51.8544 54.5098 52.5146 56.2881 52.5002 58.125Z" fill="#425B72"/>
<path d="M26.2502 50.625C25.8877 50.2438 25.4514 49.9402 24.9679 49.7328C24.4844 49.5254 23.9638 49.4184 23.4377 49.4184C22.9116 49.4184 22.391 49.5254 21.9075 49.7328C21.4241 49.9402 20.9878 50.2438 20.6252 50.625C19.8795 51.3304 18.9118 51.7546 17.8877 51.825C16.2515 51.6519 14.6481 51.2479 13.1252 50.625C13.1108 48.7881 13.7711 47.0098 14.9807 45.6274C16.1903 44.245 17.8652 43.3546 19.6877 43.125C21.5103 43.3546 23.1852 44.245 24.3948 45.6274C25.6044 47.0098 26.2646 48.7881 26.2502 50.625Z" fill="#425B72"/>
<path d="M63.75 20.625C63.75 24.682 62.4342 28.6295 60 31.875C49.2 46.2563 26.25 38.5125 26.25 20.625C26.25 17.7142 26.9277 14.8433 28.2295 12.2398C29.5313 9.63621 31.4213 7.37152 33.75 5.62501C36.5357 3.53575 39.8481 2.26348 43.3161 1.95077C46.7842 1.63806 50.2708 2.29726 53.3853 3.8545C56.4997 5.41174 59.1191 7.8055 60.9497 10.7676C62.7804 13.7296 63.75 17.1429 63.75 20.625Z" fill="#DAD7E5"/>
<path d="M63.75 20.625C63.75 24.682 62.4342 28.6295 60 31.875C56.3893 34.5831 51.9229 35.8978 47.4209 35.5778C42.9188 35.2579 38.6832 33.3247 35.4918 30.1333C32.3003 26.9418 30.3671 22.7062 30.0472 18.2042C29.7272 13.7021 31.042 9.23574 33.75 5.62501C36.5357 3.53575 39.8481 2.26348 43.3162 1.95077C46.7842 1.63806 50.2708 2.29726 53.3853 3.8545C56.4998 5.41174 59.1191 7.8055 60.9497 10.7676C62.7804 13.7296 63.75 17.1429 63.75 20.625Z" fill="#EDEBF2"/>
<path d="M54.375 16.875H48.75V11.25H41.25V16.875H35.625V24.375H41.25V30H48.75V24.375H54.375V16.875Z" fill="#F26674"/>
</svg>
