<svg width="76" height="76" viewBox="0 0 76 76" fill="none" xmlns="http://www.w3.org/2000/svg">
<path d="M30.875 45.125H45.125V57.5938H30.875V45.125Z" fill="url(#paint0_linear_768_2234)"/>
<path d="M30.875 52.249C32.5001 53.9792 35.0865 55.2178 38 55.2178C40.98 55.2178 43.5082 54.0469 45.125 52.249V74.8121H38H30.875V52.249Z" fill="url(#paint1_linear_768_2234)"/>
<path d="M30.8752 52.249C32.5003 53.9792 35.0867 55.2178 38.0002 55.2178C40.9802 55.2178 43.5084 54.0469 45.1252 52.249C45.7831 52.3945 46.5971 52.591 47.515 52.8279C46.134 55.6013 42.4011 57.5928 38.0002 57.5928C33.5993 57.5928 29.8664 55.6013 28.4854 52.8279C29.4033 52.591 30.2173 52.3951 30.8752 52.249Z" fill="url(#paint2_linear_768_2234)"/>
<path d="M20.7812 58.7807L10.0938 57.5938C10.0938 57.5938 4.15625 63.5312 1.1875 74.8125H20.7812V58.7807Z" fill="url(#paint3_linear_768_2234)"/>
<path d="M28.5 51.6562C24.2672 52.5938 13.6034 55.0198 10.0938 57.5938L16.0312 74.8125H35.625L28.5 51.6562Z" fill="url(#paint4_linear_768_2234)"/>
<path d="M55.2188 58.7807L65.9062 57.5938C65.9062 57.5938 71.8438 63.5312 74.8125 74.8125H55.2188V58.7807Z" fill="url(#paint5_linear_768_2234)"/>
<path d="M47.5 51.6562C51.7328 52.5938 62.3966 55.0198 65.9062 57.5938L59.9688 74.8125H40.375L47.5 51.6562Z" fill="url(#paint6_linear_768_2234)"/>
<path d="M59.375 31.3838C59.375 34.007 57.5142 36.8125 55.2188 36.8125C52.9233 36.8125 51.0625 34.007 51.0625 31.3838C51.0625 28.7607 52.9233 27.3125 55.2188 27.3125C57.5142 27.3125 59.375 28.7607 59.375 31.3838Z" fill="url(#paint7_linear_768_2234)"/>
<path d="M24.3438 31.3838C24.3438 34.007 22.4829 36.8125 20.1875 36.8125C17.8921 36.8125 16.0312 34.007 16.0312 31.3838C16.0312 28.7607 17.8921 27.3125 20.1875 27.3125C22.4829 27.3125 24.3438 28.7607 24.3438 31.3838Z" fill="url(#paint8_linear_768_2234)"/>
<path d="M52.8438 16.625H23.1562C21.8274 16.9474 20.7812 18.2263 20.7812 19.5938V31.4729C20.7812 41.5625 28.5 49.2812 38 49.2812C47.5 49.2812 55.2188 41.5625 55.2188 31.4729V19.5938C55.2188 18.2222 54.1779 16.9438 52.8438 16.625Z" fill="url(#paint9_linear_768_2234)"/>
<path d="M38 1.1875C47.313 1.1875 57.5938 8.42412 57.5938 19.5938C57.5629 26.6665 55.2188 31.4688 55.2188 31.4688C55.2188 27.9062 53.4375 19.5938 53.4375 19.5938C43.3438 21.9688 23.1562 17.2188 23.1562 17.2188C23.1562 17.2188 20.7812 20.7812 20.7812 31.4688C20.7812 31.4688 17.2188 27.3125 17.2188 20.1875C17.2188 11.3026 21.375 9.5 21.375 9.5C21.375 9.5 22.5625 1.1875 38 1.1875Z" fill="url(#paint10_linear_768_2234)"/>
<path d="M37.9893 45.1247C36.6475 45.1247 35.3092 44.6925 34.0932 43.8292C33.826 43.6392 33.763 43.2687 33.953 43.0009C34.143 42.7331 34.5135 42.6713 34.7813 42.8607C36.8137 44.3053 39.1608 44.3047 41.2217 42.859C41.4895 42.6702 41.8606 42.7355 42.0488 43.0038C42.237 43.2722 42.1723 43.6427 41.9039 43.8309C40.6743 44.6931 39.33 45.1247 37.9893 45.1247Z" fill="url(#paint11_linear_768_2234)"/>
<path d="M30.2812 33.8438C31.265 33.8438 32.0625 33.0463 32.0625 32.0625C32.0625 31.0787 31.265 30.2812 30.2812 30.2812C29.2975 30.2812 28.5 31.0787 28.5 32.0625C28.5 33.0463 29.2975 33.8438 30.2812 33.8438Z" fill="url(#paint12_linear_768_2234)"/>
<path d="M45.7188 33.8438C46.7025 33.8438 47.5 33.0463 47.5 32.0625C47.5 31.0787 46.7025 30.2812 45.7188 30.2812C44.735 30.2812 43.9375 31.0787 43.9375 32.0625C43.9375 33.0463 44.735 33.8438 45.7188 33.8438Z" fill="url(#paint13_linear_768_2234)"/>
<path d="M33.8431 27.3083C33.7356 27.3083 33.6275 27.2792 33.5296 27.2187C30.2289 25.1637 28.0789 26.5459 27.161 27.1367L27.0363 27.2169C26.7584 27.392 26.3921 27.3089 26.2169 27.0322C26.0418 26.7549 26.1243 26.3886 26.4016 26.2128L26.5192 26.138C27.5309 25.4867 30.2206 23.7589 34.1577 26.2111C34.4362 26.3844 34.5211 26.7508 34.3477 27.0287C34.2349 27.2092 34.0414 27.3083 33.8431 27.3083Z" fill="url(#paint14_linear_768_2234)"/>
<path d="M42.1566 27.3087C41.9583 27.3087 41.7647 27.2095 41.6519 27.029C41.4785 26.7505 41.5634 26.3842 41.8419 26.2114C45.7797 23.758 48.4688 25.4876 49.4811 26.1384L49.5981 26.2132C49.8753 26.3884 49.9573 26.7553 49.7827 27.0326C49.6076 27.3099 49.2406 27.3924 48.9633 27.2172L48.8387 27.1377C47.9213 26.5475 45.7702 25.1646 42.4695 27.2196C42.3721 27.2796 42.2641 27.3087 42.1566 27.3087Z" fill="url(#paint15_linear_768_2234)"/>
<path d="M37.9976 39.7807C37.9964 39.7807 37.9959 39.7807 37.9947 39.7807C37.4158 39.7796 36.857 39.5094 36.3791 38.9994C36.1552 38.7601 36.1671 38.3842 36.4064 38.1598C36.6457 37.9366 37.0215 37.9478 37.246 38.1871C37.4193 38.3718 37.6901 38.5926 37.9965 38.5932H37.9976C38.3064 38.5932 38.5801 38.3718 38.7559 38.1853C38.9809 37.9467 39.3567 37.936 39.5954 38.161C39.8335 38.386 39.8448 38.7619 39.6198 39.0006C39.1376 39.5112 38.5771 39.7807 37.9976 39.7807Z" fill="url(#paint16_linear_768_2234)"/>
<path d="M30.875 49.875L35.625 74.8125L26.125 65.9062L27.3125 61.1562L23.1562 60.5619L27.9062 51.6557C28.3884 50.7834 29.7617 49.8756 30.875 49.875Z" fill="url(#paint17_linear_768_2234)"/>
<path d="M45.125 49.875L40.375 74.8125L49.875 65.9062L48.6875 61.1562L52.8438 60.5619L48.0938 51.6557C47.6116 50.7834 46.2383 49.8756 45.125 49.875Z" fill="url(#paint18_linear_768_2234)"/>
<path d="M27.9062 70.6562H24.9375C24.6097 70.6562 24.3438 70.3908 24.3438 70.0625C24.3438 69.7342 24.6097 69.4688 24.9375 69.4688H27.9062C28.5612 69.4688 29.0938 68.9362 29.0938 68.2812V62.3438C29.0938 59.397 26.6962 57 23.75 57C20.8038 57 18.4062 59.397 18.4062 62.3438V68.2812C18.4062 68.9362 18.9388 69.4688 19.5938 69.4688H21.9688C22.2965 69.4688 22.5625 69.7342 22.5625 70.0625C22.5625 70.3908 22.2965 70.6562 21.9688 70.6562H19.5938C18.2839 70.6562 17.2188 69.5911 17.2188 68.2812V62.3438C17.2188 58.7427 20.1489 55.8125 23.75 55.8125C27.3511 55.8125 30.2812 58.7427 30.2812 62.3438V68.2812C30.2812 69.5911 29.2161 70.6562 27.9062 70.6562Z" fill="url(#paint19_linear_768_2234)"/>
<path d="M23.75 55.8125C20.1489 55.8125 17.2188 58.7427 17.2188 62.3438H18.4062C18.4062 59.397 20.8038 57 23.75 57C26.6962 57 29.0938 59.397 29.0938 62.3438H30.2812C30.2812 58.7427 27.3511 55.8125 23.75 55.8125Z" fill="url(#paint20_linear_768_2234)"/>
<path d="M21.9688 69.4688H20.7812V70.6562H21.9688C22.2965 70.6562 22.5625 70.3908 22.5625 70.0625C22.5625 69.7342 22.2965 69.4688 21.9688 69.4688Z" fill="url(#paint21_linear_768_2234)"/>
<path d="M24.9375 69.4688H26.125V70.6562H24.9375C24.6098 70.6562 24.3438 70.3908 24.3438 70.0625C24.3438 69.7342 24.6098 69.4688 24.9375 69.4688Z" fill="url(#paint22_linear_768_2234)"/>
<path d="M47.4899 46.3936C46.8831 46.8021 46.2496 47.172 45.5923 47.5003H46.3125C50.8963 47.5003 54.625 51.2291 54.625 55.8128V62.9378C54.625 63.2661 54.891 63.5316 55.2188 63.5316C55.5465 63.5316 55.8125 63.2661 55.8125 62.9378V55.8128C55.8125 50.9743 52.1734 46.9766 47.4899 46.3936Z" fill="url(#paint23_linear_768_2234)"/>
<path d="M28.5481 46.4189C25.4891 46.9599 23.1562 49.6317 23.1562 52.8439V56.4064C23.1562 56.7348 23.4223 57.0002 23.75 57.0002C24.0777 57.0002 24.3438 56.7348 24.3438 56.4064V52.8439C24.3438 49.8971 26.7413 47.5002 29.6875 47.5002C29.8448 47.5002 29.9862 47.4366 30.0924 47.3363C29.561 47.0572 29.0457 46.7514 28.5481 46.4189Z" fill="url(#paint24_linear_768_2234)"/>
<path d="M55.2188 68.2812C56.8583 68.2812 58.1875 66.9521 58.1875 65.3125C58.1875 63.6729 56.8583 62.3438 55.2188 62.3438C53.5792 62.3438 52.25 63.6729 52.25 65.3125C52.25 66.9521 53.5792 68.2812 55.2188 68.2812Z" fill="url(#paint25_linear_768_2234)"/>
<path d="M55.2188 68.2812C56.8583 68.2812 58.1875 66.9521 58.1875 65.3125C58.1875 63.6729 56.8583 62.3438 55.2188 62.3438C53.5792 62.3438 52.25 63.6729 52.25 65.3125C52.25 66.9521 53.5792 68.2812 55.2188 68.2812Z" fill="url(#paint26_linear_768_2234)"/>
<mask id="mask0_768_2234" style="mask-type:luminance" maskUnits="userSpaceOnUse" x="52" y="62" width="7" height="7">
<path d="M55.2188 68.2812C56.8583 68.2812 58.1875 66.9521 58.1875 65.3125C58.1875 63.6729 56.8583 62.3438 55.2188 62.3438C53.5792 62.3438 52.25 63.6729 52.25 65.3125C52.25 66.9521 53.5792 68.2812 55.2188 68.2812Z" fill="white"/>
</mask>
<g mask="url(#mask0_768_2234)">
<path d="M52.25 62.3438H58.1875V68.2812H52.25V62.3438Z" fill="url(#paint27_linear_768_2234)"/>
</g>
<path d="M55.2188 68.875C53.254 68.875 51.6562 67.2772 51.6562 65.3125C51.6562 63.3478 53.254 61.75 55.2188 61.75C57.1835 61.75 58.7812 63.3478 58.7812 65.3125C58.7812 67.2772 57.1835 68.875 55.2188 68.875ZM55.2188 62.9375C53.9089 62.9375 52.8438 64.0027 52.8438 65.3125C52.8438 66.6223 53.9089 67.6875 55.2188 67.6875C56.5286 67.6875 57.5938 66.6223 57.5938 65.3125C57.5938 64.0027 56.5286 62.9375 55.2188 62.9375Z" fill="url(#paint28_linear_768_2234)"/>
<defs>
<linearGradient id="paint0_linear_768_2234" x1="38" y1="55.7133" x2="38" y2="49.479" gradientUnits="userSpaceOnUse">
<stop stop-color="#F6CFBE"/>
<stop offset="1" stop-color="#EDAD99"/>
</linearGradient>
<linearGradient id="paint1_linear_768_2234" x1="37.4977" y1="44.6959" x2="37.3427" y2="38.8796" gradientUnits="userSpaceOnUse">
<stop stop-color="#FFCF97"/>
<stop offset="1" stop-color="#FFAC6A"/>
</linearGradient>
<linearGradient id="paint2_linear_768_2234" x1="39.2613" y1="31.6002" x2="38.6676" y2="41.5948" gradientUnits="userSpaceOnUse">
<stop stop-color="#FFCF97"/>
<stop offset="1" stop-color="#FFAC6A"/>
</linearGradient>
<linearGradient id="paint3_linear_768_2234" x1="9.34622" y1="90.5605" x2="11.3762" y2="71.0511" gradientUnits="userSpaceOnUse">
<stop stop-color="#EFF0F0"/>
<stop offset="1" stop-color="#E4E5E6"/>
</linearGradient>
<linearGradient id="paint4_linear_768_2234" x1="20.5414" y1="86.1383" x2="18.6752" y2="102.189" gradientUnits="userSpaceOnUse">
<stop stop-color="#EFF0F0"/>
<stop offset="1" stop-color="#E4E5E6"/>
</linearGradient>
<linearGradient id="paint5_linear_768_2234" x1="66.6544" y1="90.5605" x2="64.6243" y2="71.0511" gradientUnits="userSpaceOnUse">
<stop stop-color="#EFF0F0"/>
<stop offset="1" stop-color="#E4E5E6"/>
</linearGradient>
<linearGradient id="paint6_linear_768_2234" x1="55.4586" y1="86.1383" x2="57.3248" y2="102.189" gradientUnits="userSpaceOnUse">
<stop stop-color="#EFF0F0"/>
<stop offset="1" stop-color="#E4E5E6"/>
</linearGradient>
<linearGradient id="paint7_linear_768_2234" x1="55.2188" y1="14.0523" x2="55.2188" y2="42.9525" gradientUnits="userSpaceOnUse">
<stop stop-color="#F6CFBE"/>
<stop offset="1" stop-color="#EDAD99"/>
</linearGradient>
<linearGradient id="paint8_linear_768_2234" x1="20.1875" y1="14.0523" x2="20.1875" y2="42.9525" gradientUnits="userSpaceOnUse">
<stop stop-color="#F6CFBE"/>
<stop offset="1" stop-color="#EDAD99"/>
</linearGradient>
<linearGradient id="paint9_linear_768_2234" x1="40.8838" y1="11.3822" x2="42.5167" y2="2.92125" gradientUnits="userSpaceOnUse">
<stop stop-color="#F6CFBE"/>
<stop offset="1" stop-color="#EDAD99"/>
</linearGradient>
<linearGradient id="paint10_linear_768_2234" x1="37.4062" y1="-10.2422" x2="37.4062" y2="39.1572" gradientUnits="userSpaceOnUse">
<stop stop-color="#957E7F"/>
<stop offset="1" stop-color="#373638"/>
</linearGradient>
<linearGradient id="paint11_linear_768_2234" x1="38.7191" y1="32.5604" x2="38.4222" y2="37.0135" gradientUnits="userSpaceOnUse">
<stop stop-color="#F6CFBE"/>
<stop offset="1" stop-color="#EDAD99"/>
</linearGradient>
<linearGradient id="paint12_linear_768_2234" x1="30.1364" y1="51.36" x2="30.2106" y2="41.4895" gradientUnits="userSpaceOnUse">
<stop stop-color="#58595B"/>
<stop offset="1" stop-color="#414042"/>
</linearGradient>
<linearGradient id="paint13_linear_768_2234" x1="45.5733" y1="51.4472" x2="45.6475" y2="41.5762" gradientUnits="userSpaceOnUse">
<stop stop-color="#58595B"/>
<stop offset="1" stop-color="#414042"/>
</linearGradient>
<linearGradient id="paint14_linear_768_2234" x1="30.0431" y1="58.3858" x2="30.1422" y2="45.2247" gradientUnits="userSpaceOnUse">
<stop stop-color="#58595B"/>
<stop offset="1" stop-color="#414042"/>
</linearGradient>
<linearGradient id="paint15_linear_768_2234" x1="45.4792" y1="58.5025" x2="45.5784" y2="45.3409" gradientUnits="userSpaceOnUse">
<stop stop-color="#58595B"/>
<stop offset="1" stop-color="#414042"/>
</linearGradient>
<linearGradient id="paint16_linear_768_2234" x1="24.3242" y1="41.5816" x2="29.0374" y2="40.6167" gradientUnits="userSpaceOnUse">
<stop stop-color="#F6CFBE"/>
<stop offset="1" stop-color="#EDAD99"/>
</linearGradient>
<linearGradient id="paint17_linear_768_2234" x1="35.5615" y1="94.148" x2="34.3864" y2="88.7947" gradientUnits="userSpaceOnUse">
<stop stop-color="#EFF0F0"/>
<stop offset="1" stop-color="#E4E5E6"/>
</linearGradient>
<linearGradient id="paint18_linear_768_2234" x1="40.4391" y1="94.148" x2="41.6142" y2="88.7947" gradientUnits="userSpaceOnUse">
<stop stop-color="#EFF0F0"/>
<stop offset="1" stop-color="#E4E5E6"/>
</linearGradient>
<linearGradient id="paint19_linear_768_2234" x1="24.6246" y1="75.3659" x2="24.4904" y2="73.8097" gradientUnits="userSpaceOnUse">
<stop stop-color="#D0D3D3"/>
<stop offset="1" stop-color="#AAAEB1"/>
</linearGradient>
<linearGradient id="paint20_linear_768_2234" x1="21.7491" y1="46.1296" x2="21.8975" y2="47.3171" gradientUnits="userSpaceOnUse">
<stop stop-color="#58595B"/>
<stop offset="1" stop-color="#414042"/>
</linearGradient>
<linearGradient id="paint21_linear_768_2234" x1="21.733" y1="71.0535" x2="21.7218" y2="70.9217" gradientUnits="userSpaceOnUse">
<stop stop-color="#58595B"/>
<stop offset="1" stop-color="#414042"/>
</linearGradient>
<linearGradient id="paint22_linear_768_2234" x1="25.1732" y1="71.0535" x2="25.1845" y2="70.9217" gradientUnits="userSpaceOnUse">
<stop stop-color="#58595B"/>
<stop offset="1" stop-color="#414042"/>
</linearGradient>
<linearGradient id="paint23_linear_768_2234" x1="49.6138" y1="42.647" x2="49.7622" y2="43.8345" gradientUnits="userSpaceOnUse">
<stop stop-color="#58595B"/>
<stop offset="1" stop-color="#414042"/>
</linearGradient>
<linearGradient id="paint24_linear_768_2234" x1="25.84" y1="45.6186" x2="25.9884" y2="46.8061" gradientUnits="userSpaceOnUse">
<stop stop-color="#58595B"/>
<stop offset="1" stop-color="#414042"/>
</linearGradient>
<linearGradient id="paint25_linear_768_2234" x1="61.2578" y1="67.4553" x2="62.6958" y2="67.9654" gradientUnits="userSpaceOnUse">
<stop stop-color="#6C6F73"/>
<stop offset="1" stop-color="#56585B"/>
</linearGradient>
<linearGradient id="paint26_linear_768_2234" x1="43.6103" y1="63.7688" x2="48.2618" y2="64.3874" gradientUnits="userSpaceOnUse">
<stop stop-color="#58595B"/>
<stop offset="1" stop-color="#414042"/>
</linearGradient>
<linearGradient id="paint27_linear_768_2234" x1="43.6103" y1="63.7688" x2="48.2618" y2="64.3874" gradientUnits="userSpaceOnUse">
<stop stop-color="#6C6F73"/>
<stop offset="1" stop-color="#56585B"/>
</linearGradient>
<linearGradient id="paint28_linear_768_2234" x1="43.6103" y1="63.7688" x2="48.2618" y2="64.3874" gradientUnits="userSpaceOnUse">
<stop stop-color="#D0D3D3"/>
<stop offset="1" stop-color="#AAAEB1"/>
</linearGradient>
</defs>
</svg>
