<svg width="108" height="108" viewBox="0 0 108 108" fill="none" xmlns="http://www.w3.org/2000/svg">
<g clip-path="url(#clip0_964_3554)">
<path d="M46.4384 33.0742L54.0003 29.939L61.5624 33.0742C62.5756 33.4925 63.7391 33.3602 64.6337 32.7114C65.5238 32.0636 66.0132 30.9983 65.9267 29.9013L65.2834 21.7407L70.6011 15.5149C71.3162 14.6794 71.544 13.5296 71.2044 12.4831C70.8648 11.4345 70.0042 10.6391 68.9326 10.3838L60.9739 8.47233L56.6982 1.49114C55.56 -0.497153 52.4404 -0.496942 51.3024 1.49114L47.0267 8.47233L39.0681 10.3838C37.9965 10.6391 37.1359 11.4345 36.7963 12.4831C36.4567 13.5296 36.6845 14.6794 37.3995 15.5149L42.7173 21.7407L42.0739 29.9013C41.9874 30.9983 42.4768 32.0638 43.367 32.7114C44.2594 33.3568 45.4217 33.4961 46.4384 33.0742Z" fill="white"/>
<path d="M107.845 24.9302C107.505 23.8816 106.645 23.0862 105.573 22.831L97.6145 20.9194L93.3388 13.9383C92.763 12.9994 91.742 12.4277 90.641 12.4277C89.5399 12.4277 88.5189 12.9996 87.9431 13.9383L83.6674 20.9194L75.7087 22.831C74.6371 23.0862 73.7765 23.8816 73.4369 24.9302C73.0973 25.9767 73.3251 27.1265 74.0402 27.962L79.3579 34.1878L78.7145 42.3484C78.6281 43.4455 79.1174 44.5109 80.0076 45.1585C80.8999 45.8042 82.0621 45.9434 83.0788 45.5213L90.641 42.3861L98.2031 45.5213C99.2162 45.9396 100.38 45.8073 101.274 45.1585C102.164 44.5107 102.654 43.4455 102.567 42.3484L101.924 34.1878L107.242 27.962C107.957 27.1265 108.185 25.9767 107.845 24.9302Z" fill="white"/>
<path d="M26.1316 45.7618C26.7897 45.7618 27.4415 45.5572 27.9921 45.1585C28.8822 44.5107 29.3716 43.4455 29.2851 42.3484L28.6418 34.1878L33.9595 27.962C34.6746 27.1265 34.9024 25.9767 34.5628 24.9302C34.2232 23.8816 33.3626 23.0862 32.291 22.831L24.3323 20.9194L20.0566 13.9383C19.4808 12.9994 18.4598 12.4277 17.3587 12.4277C16.2576 12.4277 15.2367 12.9996 14.6608 13.9383L10.3851 20.9194L2.42646 22.831C1.3549 23.0862 0.494274 23.8816 0.154665 24.9302C-0.184945 25.9767 0.0428679 27.1265 0.757946 27.962L6.07568 34.1878L5.43232 42.3484C5.34584 43.4455 5.83521 44.5109 6.72537 45.1585C7.61763 45.8042 8.7799 45.9434 9.79662 45.5213L17.3587 42.3861L24.9208 45.5213C25.3111 45.6816 25.7224 45.7618 26.1316 45.7618Z" fill="white"/>
<path d="M91.2475 76.111L87.5033 97.5696C86.5625 102.942 81.8987 106.861 76.446 106.861H54.8523C53.3441 106.861 51.8654 106.56 50.4964 105.997C49.1275 105.427 47.8682 104.596 46.8029 103.529C46.7375 103.463 46.67 103.398 46.6025 103.332V67.6882L46.746 67.6376C49.7898 66.5449 52.1629 64.1065 53.1669 61.031L55.0548 54.9898L57.5987 46.8497C58.3475 44.561 60.8071 43.3144 63.0979 44.0632C67.2913 45.4301 69.9575 49.3282 69.9575 53.5111C69.9575 54.5363 69.7972 55.5783 69.4597 56.6035L66.6247 65.9058H82.6707C88.0792 65.9058 92.1798 70.7848 91.2475 76.111Z" fill="white"/>
<path d="M37.1293 107.999H22.4828C20.7453 107.999 19.3369 106.591 19.3369 104.853V66.9213C19.3369 65.1838 20.7453 63.7754 22.4828 63.7754H37.1293C38.8668 63.7754 40.2752 65.1838 40.2752 66.9213V104.853C40.2752 106.591 38.8668 107.999 37.1293 107.999Z" fill="white"/>
</g>
<defs>
<clipPath id="clip0_964_3554">
<rect width="108" height="108" fill="white"/>
</clipPath>
</defs>
</svg>
