<svg width="77" height="77" viewBox="0 0 77 77" fill="none" xmlns="http://www.w3.org/2000/svg">
<g id="doctor-bag 1" clip-path="url(#clip0_768_2296)">
<path id="Vector" d="M19.1719 17.1745V12.0894C19.1719 6.33521 23.8534 1.6543 29.607 1.6543H47.393C53.1466 1.6543 57.8281 6.33521 57.8281 12.0894V23.0879H52.0375V12.0894C52.0375 9.52807 49.9538 7.44492 47.393 7.44492H29.607C27.0462 7.44492 24.9625 9.52807 24.9625 12.0894V23.0356H19.1719V17.1745Z" fill="#636363"/>
<path id="Vector_2" d="M24.9625 17.1748H20.6364C20.1441 17.1748 19.6559 17.193 19.1719 17.2271V23.0359H24.9625V17.1748Z" fill="#424242"/>
<path id="Vector_3" d="M52.0376 23.0882H57.8282V17.2271C57.3442 17.193 56.856 17.1748 56.3637 17.1748H52.0376V23.0882Z" fill="#424242"/>
<path id="Vector_4" d="M72.6992 75.4721H4.30082C1.92571 75.4721 0 73.5464 0 71.1713V43.6575C0 32.2677 9.23316 23.0352 20.6223 23.0352H56.3777C67.7668 23.0352 77 32.2677 77 43.6575V71.1713C77 73.5464 75.0743 75.4721 72.6992 75.4721Z" fill="#EEEDEE"/>
<path id="Vector_5" d="M56.3636 23.0352H47.2861C58.6835 23.0352 67.9225 32.2742 67.9225 43.6716V70.9963C67.9225 73.4683 65.9187 75.4721 63.4473 75.4721H72.5241C74.9962 75.4721 77 73.4683 77 70.9963V43.6716C77 32.2742 67.761 23.0352 56.3636 23.0352Z" fill="#CCCBCC"/>
<path id="Vector_6" d="M0 70.997C0 73.4691 2.00384 75.4729 4.47588 75.4729H72.5241C74.9962 75.4729 77 73.4691 77 70.997V65.2998H0V70.997Z" fill="#EF2D57"/>
<path id="Vector_7" d="M67.9226 65.2998V70.997C67.9226 73.4691 65.9187 75.4729 63.4473 75.4729H72.5242C74.9962 75.4729 77 73.4691 77 70.997V65.2998H67.9226Z" fill="#BF2445"/>
<path id="Vector_8" d="M48.3271 41.1199H43.0387V35.8316C43.0387 34.474 41.9378 33.373 40.5802 33.373H36.4198C35.0621 33.373 33.9612 34.474 33.9612 35.8316V41.1199H28.6729C27.3153 41.1199 26.2144 42.2208 26.2144 43.5785V47.7389C26.2144 49.0965 27.3153 50.1974 28.6729 50.1974H33.9612V55.4858C33.9612 56.8434 35.0621 57.9443 36.4198 57.9443H40.5802C41.9378 57.9443 43.0387 56.8434 43.0387 55.4858V50.1974H48.3271C49.6847 50.1974 50.7856 49.0965 50.7856 47.7389V43.5785C50.7856 42.2208 49.6847 41.1199 48.3271 41.1199Z" fill="#EF2D57"/>
</g>
<defs>
<clipPath id="clip0_768_2296">
<rect width="77" height="77" fill="white"/>
</clipPath>
</defs>
</svg>
