<svg width="102" height="102" viewBox="0 0 102 102" fill="none" xmlns="http://www.w3.org/2000/svg">
<g clip-path="url(#clip0_963_3539)">
<path d="M15.3816 69.9329C20.5573 69.9329 24.7681 65.7912 24.7681 60.7003C24.7681 55.6085 20.5573 51.4668 15.3816 51.4668C10.2059 51.4668 5.99512 55.6077 5.99512 60.6994C5.99512 65.7904 10.2059 69.9329 15.3816 69.9329Z" fill="white"/>
<path d="M15.5566 73.3535C6.97877 73.3535 0 81.0553 0 90.5232V97.0735H27.7251V93.4895C27.7251 90.0322 28.3807 86.6637 29.6746 83.4754L29.7075 83.3948L29.6738 83.3133C27.1476 77.2632 21.6059 73.3535 15.5566 73.3535Z" fill="white"/>
<path d="M86.6189 69.9329C91.7946 69.9329 96.0054 65.7912 96.0054 60.7003C96.0054 55.6085 91.7946 51.4668 86.6189 51.4668C81.4432 51.4668 77.2324 55.6085 77.2324 60.7003C77.2324 65.7904 81.4432 69.9329 86.6189 69.9329Z" fill="white"/>
<path d="M86.4438 73.3535C80.3946 73.3535 74.8528 77.2632 72.3267 83.3133L72.293 83.3948L72.3259 83.4754C73.6198 86.6637 74.2754 90.033 74.2754 93.4895V97.0735H102V90.5232C102 81.0553 95.0217 73.3535 86.4438 73.3535Z" fill="white"/>
<path d="M51.0002 71.8379C40.0468 71.8379 31.1357 81.5509 31.1357 93.489V102H70.8656V93.489C70.8647 81.5501 61.9537 71.8379 51.0002 71.8379Z" fill="white"/>
<path d="M50.7822 68.4171C57.4846 68.4171 62.9375 63.1098 62.9375 56.5851C62.9375 50.0612 57.4838 44.7539 50.7822 44.7539C44.0807 44.7539 38.627 50.062 38.627 56.5859C38.627 63.1098 44.0798 68.4171 50.7822 68.4171Z" fill="white"/>
<path d="M52.4175 14.7914V7.53711H49.5821V14.7906C49.5821 15.7284 48.8237 16.4884 47.8892 16.4884H40.8965V19.4678H47.8892C48.8245 19.4678 49.5821 20.2279 49.5821 21.1656V28.4191H52.4175V21.1656C52.4175 20.2279 53.176 19.4678 54.1104 19.4678H61.1032V16.4884H54.1104C53.176 16.4893 52.4175 15.7284 52.4175 14.7914Z" fill="white"/>
<path d="M51.0001 0C41.2542 0 33.3262 8.0654 33.3262 17.9791C33.3262 27.8929 41.2542 35.9575 51.0001 35.9575C60.7461 35.9575 68.6741 27.8921 68.6741 17.9783C68.6741 8.06458 60.7461 0 51.0001 0ZM62.7959 22.8644H55.804V30.118C55.804 31.0557 55.0456 31.8158 54.1111 31.8158H47.89C46.9547 31.8158 46.1971 31.0557 46.1971 30.118V22.8644H39.2043C38.2691 22.8644 37.5115 22.1044 37.5115 21.1666V14.7916C37.5115 13.8539 38.2699 13.0938 39.2043 13.0938H46.1971V5.8395C46.1971 4.90176 46.9555 4.14169 47.89 4.14169H54.1111C55.0464 4.14169 55.804 4.90176 55.804 5.8395V13.093H62.7968C63.732 13.093 64.4896 13.8531 64.4896 14.7908V21.1658C64.4888 22.1036 63.7312 22.8644 62.7959 22.8644Z" fill="white"/>
</g>
<defs>
<clipPath id="clip0_963_3539">
<rect width="102" height="102" fill="white"/>
</clipPath>
</defs>
</svg>
