<svg xmlns="http://www.w3.org/2000/svg" fill="none" viewBox="4.91 16.88 98.02 76.09">
<g id="rate 1">
<g id="flat">
<g id="Group">
<path id="Vector" d="M55.2461 17.7807L57.4306 24.5039H64.4995C64.7762 24.5039 65.0458 24.5915 65.2696 24.7541C65.4935 24.9167 65.6601 25.1461 65.7456 25.4092C65.8312 25.6724 65.8312 25.9558 65.7457 26.219C65.6602 26.4821 65.4937 26.7115 65.2698 26.8742L59.5507 31.0296L61.7352 37.7529C61.8207 38.016 61.8208 38.2995 61.7353 38.5627C61.6498 38.8259 61.4831 39.0553 61.2592 39.2179C61.0353 39.3805 60.7657 39.4681 60.489 39.4681C60.2122 39.468 59.9426 39.3803 59.7188 39.2176L53.9999 35.0621L48.2809 39.2176C48.0571 39.3803 47.7875 39.468 47.5108 39.4681C47.234 39.4681 46.9644 39.3805 46.7405 39.2179C46.5166 39.0553 46.35 38.8259 46.2645 38.5627C46.179 38.2995 46.179 38.016 46.2646 37.7529L48.4491 31.0292L42.7299 26.8738C42.5061 26.7111 42.3395 26.4817 42.254 26.2186C42.1686 25.9554 42.1686 25.6719 42.2541 25.4088C42.3396 25.1456 42.5063 24.9163 42.7301 24.7537C42.954 24.5911 43.2236 24.5035 43.5002 24.5035H50.5692L52.7537 17.7802C52.8392 17.5171 53.0059 17.2877 53.2298 17.1251C53.4537 16.9625 53.7233 16.875 54 16.875C54.2767 16.875 54.5463 16.9627 54.7702 17.1254C54.994 17.2881 55.1606 17.5175 55.2461 17.7807Z" fill="#FBB540"/>
<path id="Vector_2" d="M28.9072 30.0661L30.6369 35.3921H36.2369C36.4559 35.3922 36.6694 35.4617 36.8466 35.5905C37.0239 35.7193 37.1558 35.9009 37.2235 36.1092C37.2912 36.3176 37.2913 36.5421 37.2237 36.7505C37.1561 36.9589 37.0243 37.1405 36.8471 37.2695L32.3166 40.5601L34.0463 45.886C34.1139 46.0945 34.1138 46.319 34.046 46.5274C33.9782 46.7359 33.8462 46.9175 33.6689 47.0463C33.4916 47.175 33.278 47.2444 33.0589 47.2444C32.8397 47.2444 32.6262 47.175 32.4488 47.0462L27.9183 43.7545L23.3878 47.0462C23.2105 47.1749 22.997 47.2442 22.7779 47.2442C22.5587 47.2442 22.3453 47.1748 22.168 47.046C21.9907 46.9172 21.8587 46.7357 21.7909 46.5273C21.7231 46.3189 21.723 46.0945 21.7906 45.886L23.5203 40.5601L18.9898 37.2695C18.8126 37.1405 18.6808 36.9589 18.6132 36.7505C18.5456 36.5421 18.5456 36.3177 18.6133 36.1093C18.681 35.901 18.8129 35.7194 18.9901 35.5906C19.1673 35.4617 19.3807 35.3923 19.5998 35.3921H25.1998L26.9294 30.0661C26.9964 29.8564 27.1282 29.6734 27.306 29.5436C27.4838 29.4137 27.6982 29.3437 27.9183 29.3438C28.1385 29.3437 28.3529 29.4137 28.5306 29.5436C28.7084 29.6734 28.8403 29.8564 28.9072 30.0661Z" fill="#FBB540"/>
<path id="Vector_3" d="M15.2544 52.0028L16.984 57.3287H22.5849C22.8039 57.3289 23.0173 57.3984 23.1945 57.5272C23.3717 57.656 23.5036 57.8376 23.5713 58.046C23.639 58.2543 23.6391 58.4788 23.5715 58.6871C23.5038 58.8955 23.372 59.0772 23.1949 59.2061L18.6644 62.4967L20.3941 67.8227C20.4616 68.0311 20.4615 68.2556 20.3937 68.4639C20.3259 68.6723 20.1939 68.8539 20.0167 68.9826C19.8394 69.1114 19.6259 69.1808 19.4068 69.1808C19.1877 69.1809 18.9742 69.1115 18.7968 68.9828L14.2672 65.6928L9.73665 68.9845C9.55933 69.1133 9.3458 69.1827 9.12663 69.1827C8.90747 69.1827 8.69393 69.1134 8.5166 68.9846C8.33927 68.8558 8.20725 68.6742 8.13946 68.4658C8.07167 68.2573 8.07159 68.0328 8.13922 67.8244L9.86891 62.4984L5.33839 59.2078C5.16123 59.0788 5.02941 58.8972 4.9618 58.6888C4.89418 58.4804 4.89425 58.2559 4.96198 58.0476C5.02971 57.8392 5.16163 57.6576 5.33886 57.5288C5.51609 57.4 5.72954 57.3305 5.94863 57.3304H11.5494L13.2791 52.0045C13.3465 51.7956 13.4783 51.6135 13.6557 51.4843C13.833 51.3551 14.0467 51.2853 14.2661 51.2852C14.4856 51.285 14.6994 51.3543 14.8769 51.4833C15.0545 51.6122 15.1866 51.7941 15.2544 52.0028Z" fill="#FBB540"/>
<path id="Vector_4" d="M94.5669 52.0031L96.2965 57.3291H101.897C102.116 57.3292 102.33 57.3987 102.507 57.5275C102.684 57.6563 102.816 57.8379 102.884 58.0463C102.952 58.2547 102.952 58.4791 102.884 58.6875C102.816 58.8959 102.685 59.0775 102.507 59.2064L97.9769 62.497L99.7066 67.823C99.7741 68.0314 99.774 68.2559 99.7062 68.4643C99.6384 68.6726 99.5065 68.8542 99.3292 68.983C99.1519 69.1117 98.9384 69.1811 98.7193 69.1811C98.5002 69.1812 98.2867 69.1119 98.1093 68.9832L93.5788 65.6915L89.0492 68.9848C88.8718 69.1136 88.6583 69.183 88.4391 69.183C88.22 69.183 88.0064 69.1137 87.8291 68.9849C87.6518 68.8561 87.5198 68.6745 87.452 68.4661C87.3842 68.2577 87.3841 68.0331 87.4517 67.8247L89.1814 62.4987L84.6509 59.2081C84.4737 59.0792 84.3419 58.8975 84.2743 58.6891C84.2067 58.4807 84.2067 58.2563 84.2745 58.0479C84.3422 57.8395 84.4741 57.6579 84.6514 57.5291C84.8286 57.4003 85.042 57.3309 85.2611 57.3308H90.8611L92.5908 52.0048C92.658 51.7957 92.7897 51.6132 92.9672 51.4837C93.1446 51.3542 93.3585 51.2844 93.5782 51.2842C93.7979 51.284 94.0119 51.3535 94.1896 51.4827C94.3672 51.6119 94.4993 51.7941 94.5669 52.0031Z" fill="#FBB540"/>
<path id="Vector_5" d="M81.0669 30.0656L82.7965 35.3916H88.3974C88.6164 35.3917 88.8299 35.4612 89.007 35.59C89.1842 35.7189 89.3161 35.9004 89.3838 36.1088C89.4515 36.3172 89.4516 36.5416 89.384 36.75C89.3163 36.9584 89.1845 37.14 89.0074 37.2689L84.4769 40.5595L86.2066 45.8855C86.2741 46.0939 86.274 46.3184 86.2062 46.5268C86.1384 46.7351 86.0065 46.9167 85.8292 47.0455C85.6519 47.1742 85.4384 47.2436 85.2193 47.2436C85.0002 47.2437 84.7867 47.1744 84.6093 47.0457L80.0788 43.754L75.5492 47.0473C75.3718 47.1761 75.1583 47.2455 74.9391 47.2455C74.72 47.2455 74.5064 47.1762 74.3291 47.0474C74.1518 46.9186 74.0198 46.737 73.952 46.5286C73.8842 46.3202 73.8841 46.0956 73.9517 45.8872L75.6814 40.5612L71.1509 37.2706C70.9737 37.1417 70.8419 36.96 70.7743 36.7516C70.7067 36.5432 70.7067 36.3188 70.7745 36.1104C70.8422 35.902 70.9741 35.7204 71.1514 35.5916C71.3286 35.4628 71.542 35.3934 71.7611 35.3933H77.3611L79.0908 30.0673C79.158 29.8582 79.2897 29.6757 79.4672 29.5462C79.6446 29.4167 79.8585 29.3469 80.0782 29.3467C80.2979 29.3465 80.5119 29.416 80.6896 29.5452C80.8672 29.6744 80.9993 29.8566 81.0669 30.0656Z" fill="#FBB540"/>
</g>
<path id="Vector_6" d="M30.375 65.959H43.875V89.584H30.375V65.959Z" fill="#0296E5"/>
<path id="Vector_7" d="M74.25 65.9609H60.75V55.8359C60.75 54.4933 60.2166 53.2056 59.2672 52.2562C58.3178 51.3068 57.0302 50.7734 55.6875 50.7734H52.3125L51.6923 55.1152C51.363 57.4202 50.4798 59.6111 49.1183 61.5C47.7568 63.389 45.9577 64.9197 43.875 65.9609V89.5859L45.4047 90.6058C47.7082 92.1415 50.4148 92.961 53.1833 92.9609H72.5625C73.4576 92.9609 74.3161 92.6054 74.949 91.9724C75.5819 91.3395 75.9375 90.481 75.9375 89.5859C75.9375 88.6908 75.5819 87.8324 74.949 87.1995C74.3161 86.5665 73.4576 86.2109 72.5625 86.2109C73.4576 86.2109 74.3161 85.8554 74.949 85.2224C75.5819 84.5895 75.9375 83.731 75.9375 82.8359C75.9375 81.9408 75.5819 81.0824 74.949 80.4495C74.3161 79.8165 73.4576 79.4609 72.5625 79.4609C73.4576 79.4609 74.3161 79.1054 74.949 78.4724C75.5819 77.8395 75.9375 76.981 75.9375 76.0859C75.9375 75.1908 75.5819 74.3324 74.949 73.6995C74.3161 73.0665 73.4576 72.7109 72.5625 72.7109H74.25C75.1451 72.7109 76.0036 72.3554 76.6365 71.7224C77.2694 71.0895 77.625 70.231 77.625 69.3359C77.625 68.4408 77.2694 67.5824 76.6365 66.9495C76.0036 66.3165 75.1451 65.9609 74.25 65.9609Z" fill="#FDC9A6"/>
</g>
</g>
</svg>