<svg width="32" height="34" viewBox="0 0 32 34" fill="none" xmlns="http://www.w3.org/2000/svg">
<path fill-rule="evenodd" clip-rule="evenodd" d="M4.4176 3.34622H6.50899V4.87991C6.50899 5.87581 7.32562 6.71236 8.34144 6.71236C9.33734 6.71236 10.1739 5.87581 10.1739 4.87991V3.34622H14.1774V4.87991C14.1774 5.87581 14.994 6.71236 15.9899 6.71236C17.0058 6.71236 17.8224 5.87581 17.8224 4.87991V3.34622H21.8259V4.87991C21.8259 5.87581 22.6426 6.71236 23.6584 6.71236C24.6543 6.71236 25.4709 5.87581 25.4709 4.87991V3.34622H27.5822C29.7134 3.34622 31.4662 5.099 31.4662 7.23023V30.0961C31.4662 32.2472 29.7134 34 27.5822 34H4.4176C2.26645 34 0.513672 32.2472 0.513672 30.0961V7.23023C0.513672 5.099 2.26645 3.34622 4.4176 3.34622Z" fill="#E63545"/>
<path fill-rule="evenodd" clip-rule="evenodd" d="M4.4176 3.34622H27.5822C28.0204 3.34622 28.4387 3.42589 28.837 3.56532C29.2553 4.18278 29.4943 4.91974 29.4943 5.71646V28.5823C29.4943 30.7334 27.7615 32.4862 25.6103 32.4862H2.44572C2.00752 32.4862 1.56933 32.4066 1.19088 32.2671C0.772606 31.6497 0.513672 30.9127 0.513672 30.0961V7.23023C0.513672 5.099 2.26645 3.34622 4.4176 3.34622Z" fill="#FF4155"/>
<path fill-rule="evenodd" clip-rule="evenodd" d="M13.3408 3.34622H18.639V4.87991C18.639 6.33392 17.4439 7.529 15.9899 7.529C14.5359 7.529 13.3408 6.33392 13.3408 4.87991V3.34622Z" fill="#E63B4D"/>
<path fill-rule="evenodd" clip-rule="evenodd" d="M21.0093 3.34622H26.3075V4.87991C26.3075 6.33392 25.1124 7.529 23.6584 7.529C22.2044 7.529 21.0093 6.33392 21.0093 4.87991V3.34622Z" fill="#E63B4D"/>
<path fill-rule="evenodd" clip-rule="evenodd" d="M5.69238 3.34622H10.9906V4.87991C10.9906 6.33392 9.79549 7.529 8.34147 7.529C6.88746 7.529 5.69238 6.33392 5.69238 4.87991V3.34622Z" fill="#E63B4D"/>
<path d="M25.4709 1.83245C25.4709 0.820418 24.655 0 23.6484 0C22.6419 0 21.8259 0.820418 21.8259 1.83245V4.87991C21.8259 5.89194 22.6419 6.71236 23.6484 6.71236C24.655 6.71236 25.4709 5.89194 25.4709 4.87991V1.83245Z" fill="#BEC6E2"/>
<path fill-rule="evenodd" clip-rule="evenodd" d="M23.6584 0C23.9173 0 24.1763 0.059754 24.3953 0.159344C24.5746 0.438196 24.6742 0.776801 24.6742 1.13533V4.18278C24.6742 5.17868 23.8576 6.01523 22.8417 6.01523C22.5828 6.01523 22.3438 5.95548 22.1048 5.85589C21.9255 5.57704 21.8259 5.23843 21.8259 4.87991V1.83245C21.8259 0.816637 22.6426 0 23.6584 0Z" fill="#D3DCFB"/>
<path d="M27.3233 8.62448H4.6765C4.09348 8.62448 3.62085 9.09711 3.62085 9.68013V30.1957C3.62085 30.7787 4.09348 31.2513 4.6765 31.2513H27.3233C27.9063 31.2513 28.3789 30.7787 28.3789 30.1957V9.68013C28.3789 9.09711 27.9063 8.62448 27.3233 8.62448Z" fill="#D3DCFB"/>
<path fill-rule="evenodd" clip-rule="evenodd" d="M4.6765 8.62448H26.666V28.8014C26.666 29.379 26.1879 29.8571 25.6103 29.8571H3.62085V9.68013C3.62085 9.10251 4.09888 8.62448 4.6765 8.62448Z" fill="#EBF5FC"/>
<path fill-rule="evenodd" clip-rule="evenodd" d="M3.62085 9.68013V13.7832H28.3789V9.68013C28.3789 9.10251 27.9009 8.62448 27.3233 8.62448H4.6765C4.09888 8.62448 3.62085 9.10251 3.62085 9.68013Z" fill="#D1004C"/>
<path fill-rule="evenodd" clip-rule="evenodd" d="M3.62085 9.68013V13.7832H26.7257V9.68013C26.7257 9.10251 26.2477 8.62448 25.6501 8.62448H4.6765C4.09888 8.62448 3.62085 9.10251 3.62085 9.68013Z" fill="#E80054"/>
<path d="M17.8225 1.83245C17.8225 0.820418 17.0065 0 16 0C14.9934 0 14.1775 0.820418 14.1775 1.83245V4.87991C14.1775 5.89194 14.9934 6.71236 16 6.71236C17.0065 6.71236 17.8225 5.89194 17.8225 4.87991V1.83245Z" fill="#BEC6E2"/>
<path fill-rule="evenodd" clip-rule="evenodd" d="M15.99 0C16.2689 0 16.5079 0.059754 16.7469 0.159344C16.9063 0.438196 17.0258 0.776801 17.0258 1.13533V4.18278C17.0258 5.17868 16.1892 6.01523 15.1933 6.01523C14.9344 6.01523 14.6754 5.95548 14.4563 5.85589C14.2771 5.57704 14.1775 5.23843 14.1775 4.87991V1.83245C14.1775 0.816637 14.9941 0 15.99 0Z" fill="#D3DCFB"/>
<path d="M10.154 1.83245C10.154 0.820418 9.33807 0 8.33153 0C7.32499 0 6.50903 0.820418 6.50903 1.83245V4.87991C6.50903 5.89194 7.32499 6.71236 8.33153 6.71236C9.33807 6.71236 10.154 5.89194 10.154 4.87991V1.83245Z" fill="#BEC6E2"/>
<path fill-rule="evenodd" clip-rule="evenodd" d="M8.34149 0C8.60042 0 8.85936 0.059754 9.07845 0.159344C9.25772 0.438196 9.35731 0.776801 9.35731 1.13533V4.18278C9.35731 5.17868 8.54067 6.01523 7.54477 6.01523C7.26592 6.01523 7.0269 5.95548 6.78789 5.85589C6.60862 5.57704 6.50903 5.23843 6.50903 4.87991V1.83245C6.50903 0.816637 7.32567 0 8.34149 0Z" fill="#D3DCFB"/>
<path d="M20.8826 27.2317C23.5812 24.5332 23.5812 20.158 20.8826 17.4594C18.1841 14.7609 13.8088 14.7609 11.1103 17.4594C8.41173 20.158 8.41173 24.5332 11.1103 27.2317C13.8088 29.9303 18.1841 29.9303 20.8826 27.2317Z" fill="#1679D3"/>
<path fill-rule="evenodd" clip-rule="evenodd" d="M11.11 17.4681C12.564 16.0141 14.5159 15.3368 16.4281 15.4564C17.6231 15.7352 18.7385 16.3527 19.6747 17.2888C22.3636 19.9777 22.3636 24.3398 19.6747 27.0486C18.2008 28.5026 16.2687 29.1798 14.3566 29.0603C13.1615 28.7616 12.0461 28.164 11.11 27.2279C8.42103 24.539 8.42103 20.157 11.11 17.4681Z" fill="#449DEE"/>
<path fill-rule="evenodd" clip-rule="evenodd" d="M16.4679 15.4763C17.643 15.7551 18.7584 16.3726 19.6746 17.2888C22.3636 19.9778 22.3636 24.3398 19.6746 27.0486C18.3999 28.3234 16.7666 28.9807 15.0935 29.0604C13.9184 28.7616 12.8229 28.164 11.9066 27.2478C9.19779 24.5589 9.19779 20.1769 11.9066 17.488C13.1814 16.2133 14.8147 15.536 16.4679 15.4763Z" fill="#1886EA"/>
<path fill-rule="evenodd" clip-rule="evenodd" d="M18.3998 22.348L19.8937 23.8418C20.551 24.4991 20.551 25.5747 19.8937 26.232C19.2364 26.9092 18.1608 26.9092 17.5035 26.232L15.9898 24.7381L14.4959 26.232C13.8386 26.9092 12.7631 26.9092 12.1058 26.232C11.4485 25.5747 11.4485 24.4991 12.1058 23.8418L13.5996 22.348L12.1058 20.8541C11.4485 20.1769 11.4485 19.1213 12.1058 18.4441C12.7631 17.7868 13.8386 17.7868 14.4959 18.4441L15.9898 19.9578L17.5035 18.4441C18.1608 17.7868 19.2364 17.7868 19.8937 18.4441C20.551 19.1213 20.551 20.1769 19.8937 20.8541L18.3998 22.348Z" fill="#1679EC"/>
<path d="M19.3359 20.2765C19.6746 19.9379 19.6746 19.3603 19.3359 19.0217C18.9774 18.6631 18.3998 18.6631 18.0612 19.0217L15.9897 21.0732L13.9382 19.0217C13.5797 18.6631 13.0219 18.6631 12.6634 19.0217C12.3049 19.3603 12.3049 19.9379 12.6634 20.2765L14.7349 22.348L12.6634 24.3995C12.3049 24.758 12.3049 25.3357 12.6634 25.6743C13.0219 26.0328 13.5797 26.0328 13.9382 25.6743L15.9897 23.6227L18.0612 25.6743C18.3998 26.0328 18.9774 26.0328 19.3359 25.6743C19.6746 25.3357 19.6746 24.758 19.3359 24.3995L17.2645 22.348L19.3359 20.2765Z" fill="#FFDD40"/>
</svg>
