<svg width="22" height="26" viewBox="0 0 22 26" fill="none" xmlns="http://www.w3.org/2000/svg">
<path d="M14.3846 0H4.23077C1.89454 0 0 1.89454 0 4.23077V18.6154C0 20.9516 1.89454 22.8462 4.23077 22.8462H13.5385V20.2138C12.4935 19.1451 11.8462 17.6855 11.8462 16.0769C11.8462 12.8108 14.5039 10.1538 17.7692 10.1538C18.0569 10.1538 18.3378 10.1818 18.6154 10.2215V4.23077C18.6154 1.89454 16.7208 0 14.3846 0ZM8.61385 18.6154H4.23077C3.76285 18.6154 3.38462 18.2363 3.38462 17.7692C3.38462 17.3022 3.76285 16.9231 4.23077 16.9231H8.61385C9.08177 16.9231 9.46 17.3022 9.46 17.7692C9.46 18.2363 9.08177 18.6154 8.61385 18.6154ZM8.81692 14.3846H4.23077C3.76285 14.3846 3.38462 14.0055 3.38462 13.5385C3.38462 13.0714 3.76285 12.6923 4.23077 12.6923H8.81692C9.28485 12.6923 9.66308 13.0714 9.66308 13.5385C9.66308 14.0055 9.28485 14.3846 8.81692 14.3846ZM11.3808 10.1538H4.23077C3.76285 10.1538 3.38462 9.77477 3.38462 9.30769C3.38462 8.84062 3.76285 8.46154 4.23077 8.46154H11.3808C11.8487 8.46154 12.2269 8.84062 12.2269 9.30769C12.2269 9.77477 11.8487 10.1538 11.3808 10.1538ZM14.3846 5.92308H4.23077C3.76285 5.92308 3.38462 5.544 3.38462 5.07692C3.38462 4.60985 3.76285 4.23077 4.23077 4.23077H14.3846C14.8525 4.23077 15.2308 4.60985 15.2308 5.07692C15.2308 5.544 14.8525 5.92308 14.3846 5.92308Z" fill="black"/>
<path d="M17.7694 22C16.8598 22 16.001 21.7884 15.231 21.4221V24.5368C15.231 25.2128 15.984 25.6156 16.5467 25.2408L17.7694 24.4251L18.9921 25.2408C19.5548 25.6156 20.3079 25.2128 20.3079 24.5368V21.4221C19.5379 21.7884 18.679 22 17.7694 22Z" fill="black"/>
<path d="M17.7693 20.3077C20.1059 20.3077 22.0001 18.4135 22.0001 16.0769C22.0001 13.7403 20.1059 11.8461 17.7693 11.8461C15.4328 11.8461 13.5386 13.7403 13.5386 16.0769C13.5386 18.4135 15.4328 20.3077 17.7693 20.3077Z" fill="black"/>
</svg>
