<svg width="15" height="18" viewBox="0 0 15 18" fill="none" xmlns="http://www.w3.org/2000/svg">
<path d="M7.50007 15.1052H2.88464C1.9304 15.1052 1.15386 14.3287 1.15386 13.3744V3.56665C1.15386 2.61241 1.9304 1.83586 2.88464 1.83586H9.80779C10.762 1.83586 11.5386 2.61241 11.5386 3.56665V6.48591C11.5386 6.80437 11.7965 7.06284 12.1155 7.06284C12.4345 7.06284 12.6924 6.80437 12.6924 6.48591V3.56665C12.6924 1.97606 11.3984 0.682007 9.80779 0.682007H2.88464C1.29405 0.682007 0 1.97606 0 3.56665V13.3744C0 14.965 1.29405 16.2591 2.88464 16.2591H7.50007C7.81911 16.2591 8.077 16.0006 8.077 15.6821C8.077 15.3637 7.81911 15.1052 7.50007 15.1052Z" fill="#37B58F"/>
<path d="M3.46169 5.29735H7.50019C7.81924 5.29735 8.07712 5.03889 8.07712 4.72042C8.07712 4.40196 7.81924 4.14349 7.50019 4.14349H3.46169C3.14265 4.14349 2.88477 4.40196 2.88477 4.72042C2.88477 5.03889 3.14265 5.29735 3.46169 5.29735Z" fill="#37B58F"/>
<path d="M8.86175 7.60519C8.86175 7.28672 8.60386 7.02826 8.28482 7.02826H3.46169C3.14265 7.02826 2.88477 7.28672 2.88477 7.60519C2.88477 7.92365 3.14265 8.18212 3.46169 8.18212H8.28482C8.60386 8.18212 8.86175 7.92365 8.86175 7.60519Z" fill="#37B58F"/>
<path d="M7.22327 9.91281C7.22327 9.59434 6.96538 9.33588 6.64634 9.33588H3.46169C3.14265 9.33588 2.88477 9.59434 2.88477 9.91281C2.88477 10.2313 3.14265 10.4897 3.46169 10.4897H6.64634C6.96538 10.4897 7.22327 10.2313 7.22327 9.91281Z" fill="#37B58F"/>
<path d="M3.46169 11.6436C3.14265 11.6436 2.88477 11.9021 2.88477 12.2205C2.88477 12.539 3.14265 12.7975 3.46169 12.7975H6.38095C6.69999 12.7975 6.95788 12.539 6.95788 12.2205C6.95788 11.9021 6.69999 11.6436 6.38095 11.6436H3.46169Z" fill="#37B58F"/>
<path d="M14.9998 11.6436C14.9998 9.73458 13.4473 8.18207 11.5382 8.18207C9.62917 8.18207 8.07666 9.73458 8.07666 11.6436C8.07666 12.6654 8.52436 13.5821 9.23052 14.2167V17.1227C9.23052 17.4423 9.40648 17.7354 9.6886 17.8866C9.97245 18.0389 10.3117 18.0222 10.5794 17.8439L11.5382 17.2L12.4994 17.845C12.6436 17.9414 12.8098 17.9893 12.9771 17.9893C13.1173 17.9893 13.2586 17.9552 13.3879 17.886C13.67 17.7349 13.8459 17.4418 13.8459 17.1222V14.2162C14.5521 13.5821 14.9998 12.666 14.9998 11.6436ZM12.6921 16.5845L11.8602 16.026C11.6652 15.895 11.4119 15.895 11.2169 16.026L10.385 16.5845V14.9033C10.7467 15.0319 11.1338 15.1052 11.5388 15.1052C11.9438 15.1052 12.3309 15.0314 12.6927 14.9033L12.6921 16.5845ZM11.5382 13.9514C10.2655 13.9514 9.23052 12.9163 9.23052 11.6436C9.23052 10.3709 10.2655 9.33592 11.5382 9.33592C12.8109 9.33592 13.8459 10.3709 13.8459 11.6436C13.8459 12.9163 12.8109 13.9514 11.5382 13.9514Z" fill="#37B58F"/>
</svg>
