<svg width="24" height="25" viewBox="0 0 24 25" fill="none" xmlns="http://www.w3.org/2000/svg">
<path d="M20.184 0H10.2261V7.0377C10.2261 7.50352 9.86353 7.88115 9.41634 7.88115H2.66016V23.7951C2.66016 24.4605 3.17808 25 3.81689 25H20.184C20.8229 25 21.3408 24.4605 21.3408 23.7951V1.20493C21.3408 0.539502 20.8229 0 20.184 0ZM15.6248 20.008H9.03206C8.58488 20.008 8.22234 19.6303 8.22234 19.1645C8.22234 18.6987 8.58488 18.321 9.03206 18.321H15.6248C16.072 18.321 16.4346 18.6987 16.4346 19.1645C16.4346 19.6303 16.072 20.008 15.6248 20.008ZM15.6248 16.0401H9.03206C8.58488 16.0401 8.22234 15.6625 8.22234 15.1967C8.22234 14.7309 8.58488 14.3532 9.03206 14.3532H15.6248C16.072 14.3532 16.4346 14.7309 16.4346 15.1967C16.4346 15.6625 16.072 16.0401 15.6248 16.0401ZM15.6248 12.0724H9.03206C8.58488 12.0724 8.22234 11.6948 8.22234 11.229C8.22234 10.7631 8.58488 10.3855 9.03206 10.3855H15.6248C16.072 10.3855 16.4346 10.7631 16.4346 11.229C16.4346 11.6948 16.072 12.0724 15.6248 12.0724Z" fill="#0CB8B6"/>
<path d="M8.5959 0C8.28915 0 7.99496 0.126904 7.77802 0.352979L2.99804 5.33193C2.7811 5.55791 2.65918 5.86436 2.65918 6.18389V6.19419H8.60574V0H8.5959Z" fill="#0CB8B6"/>
</svg>
