<svg width="16" height="18" viewBox="0 0 16 18" fill="none" xmlns="http://www.w3.org/2000/svg">
<path d="M12.3233 12.323L8.80533 15.841C8.65148 15.995 8.46879 16.1172 8.2677 16.2005C8.0666 16.2839 7.85106 16.3268 7.63337 16.3268C7.41569 16.3268 7.20014 16.2839 6.99905 16.2005C6.79795 16.1172 6.61526 15.995 6.46141 15.841L2.94263 12.323C2.01503 11.3954 1.38333 10.2135 1.12743 8.92685C0.871522 7.6402 1.0029 6.30655 1.50494 5.09455C2.00698 3.88256 2.85714 2.84665 3.94792 2.11783C5.0387 1.38901 6.3211 1 7.63296 1C8.94482 1 10.2272 1.38901 11.318 2.11783C12.4088 2.84665 13.2589 3.88256 13.761 5.09455C14.263 6.30655 14.3944 7.6402 14.1385 8.92685C13.8826 10.2135 13.2509 11.3954 12.3233 12.323Z" stroke="#9E9DA8" stroke-width="1.5" stroke-linecap="round" stroke-linejoin="round"/>
<path d="M10.1203 7.63305C10.1203 8.29274 9.85822 8.92541 9.39175 9.39188C8.92528 9.85835 8.29261 10.1204 7.63292 10.1204C6.97323 10.1204 6.34056 9.85835 5.87409 9.39188C5.40762 8.92541 5.14556 8.29274 5.14556 7.63305C5.14556 6.97336 5.40762 6.34069 5.87409 5.87422C6.34056 5.40775 6.97323 5.14569 7.63292 5.14569C8.29261 5.14569 8.92528 5.40775 9.39175 5.87422C9.85822 6.34069 10.1203 6.97336 10.1203 7.63305Z" stroke="#9E9DA8" stroke-width="1.5" stroke-linecap="round" stroke-linejoin="round"/>
</svg>
