<svg width="404" height="267" viewBox="0 0 404 267" fill="none" xmlns="http://www.w3.org/2000/svg">
<path d="M87.968 63.8945C87.968 63.8945 91.8492 94.7917 92.6693 96.7085C94.4812 100.962 105.629 113.874 105.629 113.874C105.629 113.874 71.5181 132.603 61.3049 132.603C51.0917 132.603 54.6296 108.686 54.6296 108.686C54.6296 108.686 61.8294 103.918 63.2598 100.628C65.4245 95.669 68.7526 73.1732 68.7526 73.1732L87.968 63.8945Z" fill="#FFC4AC"/>
<path d="M64.7189 100.733C68.9123 99.7942 73.0231 98.5186 77.011 96.9181C77.7358 96.6416 78.451 96.3269 79.1662 95.9645C80.8064 95.0109 82.4275 94.0573 83.9915 93.0178C84.5732 92.6269 87.6057 90.2237 87.8059 90.2237C88.8263 89.2034 89.8085 88.1353 90.7717 87.0577L91.0292 86.7907C89.6464 77.102 87.9776 63.8086 87.9776 63.8086L68.7527 73.1731C68.7527 73.1731 65.4627 95.6689 63.3362 100.628C63.2726 100.772 63.1993 100.913 63.1168 101.047C63.7844 100.923 64.4519 100.799 64.7189 100.733Z" fill="#FFA280"/>
<path d="M119.895 244.442C120.439 251.499 120.915 258.565 121.23 265.651H25.0198C25.0198 262.694 25.0961 259.671 25.1437 256.62C25.1437 255.151 25.1914 253.673 25.2105 252.186C25.2963 246.96 25.3822 241.696 25.4775 236.375C25.4775 236.222 25.4775 236.07 25.4775 235.917V234.296C25.6682 223.959 25.8971 213.755 26.1355 204.409C26.1355 204.305 26.1355 204.19 26.1355 204.085C26.1307 204.054 26.1307 204.021 26.1355 203.99C26.1355 203.351 26.1355 202.722 26.1832 202.083C26.7077 182.057 27.2989 166.303 27.8234 162.479C29.7306 148.375 31.3422 129.102 31.3422 129.102L33.3353 127.262L39.2382 121.826L49.5754 112.29L50.2048 111.708L52.112 109.916L53.6569 108.495L54.5056 109.191L63.0309 116.095L98.7724 105.51L101.767 104.623L102.453 104.423L103.073 104.919L103.188 105.014L107.717 108.666L115.079 114.598L121.592 119.852C114.354 148.261 114.784 176.764 116.824 205.468C116.891 206.422 116.958 207.375 117.034 208.386C117.11 209.397 117.158 210.122 117.225 210.989C117.292 211.857 117.368 212.897 117.444 213.85C117.606 215.824 117.759 217.798 117.931 219.782C118.579 227.687 119.275 235.621 119.838 243.565C119.842 243.593 119.842 243.622 119.838 243.651C119.857 243.889 119.876 244.166 119.895 244.442Z" fill="#3DB0D0"/>
<path d="M50.7101 107.913C50.7101 107.98 50.6148 108.285 50.4717 108.809C50.281 109.553 49.9854 110.717 49.623 112.3C47.2199 122.933 42.099 151.131 47.773 180.273C47.8874 180.874 48.0019 181.57 48.0972 182.324C48.6408 186.338 48.946 192.337 49.1271 198.611C49.1844 200.776 49.2225 202.979 49.2511 205.144C49.2559 205.214 49.2559 205.284 49.2511 205.354C49.2511 205.687 49.2511 206.021 49.2511 206.307C49.3083 210.246 49.3179 214.012 49.2511 217.178C49.2511 222.433 49.1939 226.047 49.1939 226.047C49.1939 226.047 49.1939 227.401 49.1939 229.776C49.1986 229.842 49.1986 229.909 49.1939 229.976C49.1939 230.844 49.1939 231.883 49.1939 232.961C49.1939 233.209 49.1939 233.466 49.1939 233.724C49.2893 241.19 49.4037 253.196 49.4132 265.613H19.9656C20.4042 255.542 20.8429 245.415 21.2148 236.537C21.2148 236.365 21.2148 236.193 21.2148 236.022C21.2148 235.386 21.2434 234.75 21.3006 234.115C21.7012 224.531 22.0158 216.635 22.1589 212.181C22.2447 209.692 22.2733 206.517 22.2638 202.865V202.407C22.2066 178.404 20.7666 134.481 23.8373 125.526C23.9603 125.145 24.1301 124.779 24.3427 124.439C25.3929 123.133 26.6337 121.991 28.0236 121.054H28.0713C29.187 120.234 30.4744 119.366 31.8858 118.489C39.6196 113.511 50.3096 108.104 50.7101 107.913Z" fill="white"/>
<path d="M53.2087 107.103C53.2087 107.103 49.2416 117.497 49.2416 122.618C49.2416 127.739 47.8589 154.03 47.9543 172.692C48.0019 181.685 48.7267 208.758 48.7267 208.758C48.7267 208.758 34.041 150.978 35.0995 148.013C36.2248 144.866 43.1385 136.283 43.1385 136.283C43.1385 136.283 40.2776 126.337 39.324 123.543C38.3704 120.749 41.7367 117.621 44.2352 114.007C46.3045 111.079 53.2087 107.103 53.2087 107.103Z" fill="#AEE7FA"/>
<path d="M126.599 240.589C126.952 247.837 127.553 256.572 128.144 265.651H69.7539C70.1735 257.163 70.7075 248.571 71.1462 240.685C71.1462 240.685 71.1462 240.685 71.1462 240.628C71.4227 236.146 71.6993 231.902 71.9568 228.021C71.9568 227.763 71.9568 227.515 71.9568 227.267C71.9568 227.02 71.9568 226.59 72.033 226.314C72.5861 217.97 73.0534 211.552 73.2727 208.653C73.2727 208.062 73.349 207.623 73.3681 207.337V206.946C73.3681 206.946 73.4349 206.374 73.5684 205.306C73.6256 204.753 73.7114 204.056 73.8163 203.236C74.8271 195.15 77.6308 174.685 82.6563 150.578C83.9151 144.56 89.8084 130.685 94.7958 119.566C95.8258 117.268 96.8175 115.084 97.7139 113.12L98.9822 110.373C99.4495 109.353 99.8882 108.466 100.279 107.598C100.851 106.359 101.319 105.367 101.643 104.671C101.967 103.975 102.167 103.564 102.167 103.564L103.369 104.413H103.445C104.198 104.957 105.247 105.71 106.478 106.616C109.11 108.523 112.571 111.174 115.804 113.844C118.496 116.006 121.009 118.382 123.318 120.949L123.404 121.054C123.931 121.673 124.388 122.348 124.768 123.066C134.438 143.283 128.754 188.455 126.723 215.109C126.341 220.087 126.094 224.416 126.094 227.821C126.094 230.31 126.179 233.542 126.341 237.204C126.484 238.32 126.542 239.436 126.599 240.589Z" fill="white"/>
<path d="M104.037 103.622C104.037 103.622 85.0977 128.798 81.8649 136.894C78.6322 144.99 73.9213 166.456 72.9296 207.881C72.9296 207.881 79.2902 184.842 83.7722 175.286C90.19 161.592 94.7578 154.583 94.3192 152.4C93.6898 149.281 89.5034 146.201 88.4258 142.663C93.0775 138.487 98.3423 135.049 104.037 132.469C104.037 132.469 107.851 117.802 108.385 112.863C108.919 107.923 104.037 103.622 104.037 103.622Z" fill="#AEE7FA"/>
<path d="M114.555 252.195H87.4531V256.63H114.555V252.195Z" fill="#AEE7FA"/>
<path d="M44.0158 252.195H23.4463V256.63H44.0158V252.195Z" fill="#AEE7FA"/>
<path d="M97.4659 99.4834L63.0309 116.105C63.0309 116.105 74.3408 130.314 79.7859 129.951C88.7785 129.341 104.036 103.622 104.036 103.622L97.4659 99.4834Z" fill="#3397B5"/>
<path d="M63.031 116.105C63.031 116.105 55.4021 128.235 51.7688 126.9C47.2105 125.24 51.025 107.417 51.025 107.417L59.3786 104.423L63.031 116.105Z" fill="#3397B5"/>
<path d="M53.0466 33.4835C47.6777 38.0609 46.4189 45.48 47.4393 50.4579C48.4597 55.4358 52.1311 66.5168 52.1311 66.5168C52.1311 66.5168 56.0695 49.5043 58.692 43.506C61.3144 37.5078 65.6343 29.5928 65.6343 29.5928L53.0466 33.4835Z" fill="#2D2D2D"/>
<path d="M60.4562 32.8066C57.0518 34.7139 51.1871 38.7191 50.9201 41.7802C50.6531 44.8413 49.1368 53.7862 49.4896 59.0406C49.8425 64.295 48.7172 69.9881 49.4896 76.1389C50.2621 82.2898 54.9157 93.8285 59.1021 96.9182C65.8918 101.953 75.428 95.4878 81.5597 91.3872C88.6642 86.6192 91.2962 82.4233 90.8956 69.2729C90.8956 69.2729 95.5302 45.1083 94.2238 41.4655C91.0482 32.635 72.6244 36.3827 67.3604 35.6007C62.0964 34.8188 60.4562 32.8066 60.4562 32.8066Z" fill="#FFC4AC"/>
<path d="M92.2496 40.9222C94.0138 43.7831 88.2349 47.3401 87.7771 49.9625C87.2913 53.7464 87.4395 57.5849 88.2158 61.3201L90.1898 66.3361C90.1898 66.3361 89.2362 77.3599 90.1326 80.9836C90.8668 83.9589 110.549 63.1033 105.39 41.113C103.149 31.5768 94.4238 34.4376 94.4238 34.4376C92.9743 24.7012 88.5591 20.7342 69.3533 21.1824C50.1475 21.6306 46.8193 36.9552 46.8193 36.9552C50.0139 39.015 48.1544 45.0418 58.2627 45.6903C76.7152 46.8346 79.5093 39.015 86.814 37.8039C88.3302 37.5178 90.4854 38.0614 92.2496 40.9222Z" fill="#2D2D2D"/>
<path d="M88.3494 68.0808C89.3205 65.4911 90.7843 63.1141 92.6597 61.0813C95.0056 58.7735 98.534 58.7163 99.4399 62.3782C100.546 66.8316 96.5218 69.6734 96.293 72.2863C96.0355 75.2234 90.6666 77.8649 88.6641 76.8922L88.3494 68.0808Z" fill="#FFC4AC"/>
<path opacity="0.52" d="M94.7769 63.5416C96.4743 62.5022 97.7426 63.9136 98.0096 65.4489C98.2766 66.9842 97.8189 66.0878 96.7413 65.077C95.6637 64.0661 94.138 66.1545 94.0712 67.6136C93.9758 69.6352 92.9078 72.0288 91.1436 71.9239C89.3794 71.819 90.3616 71.3422 90.8957 69.2633C91.4297 67.1845 90.8003 69.2633 91.6204 67.2417C92.1812 65.6618 93.3051 64.3443 94.7769 63.5416Z" fill="#A95442"/>
<path d="M101.71 209.931C103.769 186.873 103.951 163.786 105.648 149.319C109.462 117.039 115.899 113.845 115.899 113.845C115.899 113.845 129.546 118.613 134.495 151.284C135.954 160.896 137.833 182.515 135.277 212.782C133.265 236.623 129.479 239.598 123.671 242.106C115.737 245.53 100.67 248.457 93.785 242.22C98.1335 227.134 100.765 231.073 101.71 209.931Z" fill="white"/>
<path d="M115.899 113.845C115.899 113.845 129.765 119.996 134.714 152.666C136.164 162.279 137.833 182.515 135.277 212.744C133.265 236.585 129.479 239.56 123.671 242.068C115.737 245.491 100.67 248.419 93.785 242.182" stroke="#AEE7FA" stroke-width="1.84" stroke-linecap="round" stroke-linejoin="round"/>
<path d="M29.3779 206.06C30.5031 184.746 33.2496 163.509 33.6024 150.111C34.3844 120.33 31.7715 118.365 31.7715 118.365C31.7715 118.365 20.4806 123.982 14.3966 144.704C11.9458 153.01 4.4599 179.034 1.71348 204.915C-0.508441 225.828 2.78153 231.483 7.13956 234.382C13.586 238.664 34.0601 235.555 39.2669 234.888C37.2833 220.288 27.5279 225.504 29.3779 206.06Z" fill="white"/>
<path d="M31.7715 118.365C31.7715 118.365 20.4806 123.982 14.3966 144.704C11.9458 153.01 4.4599 179.034 1.71348 204.915C-0.508441 225.828 2.78153 231.483 7.13956 234.382C13.586 238.664 50.5386 233.638 55.774 232.971" stroke="#AEE7FA" stroke-width="1.84" stroke-linecap="round" stroke-linejoin="round"/>
<path d="M30.0548 216.025C29.6447 192.681 30.8558 189.801 32.8012 167.391" stroke="#AEE7FA" stroke-width="1.84" stroke-linecap="round" stroke-linejoin="round"/>
<path d="M111.36 208.281C110.769 187.702 110.918 167.87 111.808 148.785" stroke="#AEE7FA" stroke-width="1.84" stroke-linecap="round" stroke-linejoin="round"/>
<path d="M84.4874 232.876C92.8507 234.43 93.213 215.501 93.213 215.501C93.213 215.501 79.6621 205.907 78.556 213.594C77.4498 221.28 84.4874 232.876 84.4874 232.876Z" fill="#808195"/>
<path d="M78.3555 204.563C82.5323 204.83 90.9718 198.841 97.4278 204.057C101.445 207.284 105.08 210.96 108.261 215.014C108.261 215.014 94.5002 213.822 86.8712 217.456C79.2423 221.089 71.6992 227.516 71.6992 227.516L78.3555 204.563Z" fill="#FCBDA5"/>
<path d="M80.711 202.665C78.5654 206.317 81.5407 220.86 82.2559 224.846C82.2559 224.846 58.6443 233.143 38.9331 234.058C14.7494 235.183 8.83699 232.742 4.60294 228.107C0.368887 223.473 9.6285 195.303 21.0719 201.788C28.2431 205.831 39.9821 208.167 51.5304 205.984C63.2408 203.771 80.711 202.665 80.711 202.665Z" fill="white"/>
<path d="M51.5115 205.984C63.2409 203.771 80.7112 202.665 80.7112 202.665C78.5656 206.317 86.4329 229.91 87.1862 233.896" stroke="#AEE7FA" stroke-width="1.84" stroke-linecap="round" stroke-linejoin="round"/>
<path d="M54.8108 201.129C50.9105 200.366 42.2898 193.119 35.481 196.437C31.3849 198.442 27.5431 200.93 24.0376 203.847C24.0376 203.847 38.9712 207.442 44.9218 212.763C50.8723 218.084 56.6036 226.457 56.6036 226.457L54.8108 201.129Z" fill="#FCBDA5"/>
<path d="M54.4485 201.034C49.1845 202.846 45.4464 208.167 44.5309 227.44C44.5309 227.44 64.7666 238.797 79.2425 243.823C103.083 250.746 116.91 245.301 123.252 241.982C129.593 238.664 131.691 206.975 118.341 208.177C113.706 208.596 93.9663 215.148 81.1497 210.17C69.7063 205.688 54.4485 201.034 54.4485 201.034Z" fill="white"/>
<path d="M118.341 206.594C115.242 204.134 112.18 203.59 108.805 202.417C105.429 201.244 89.6847 200.825 88.0254 202.76C88.0254 202.76 99.4688 210.323 101.548 213.517C102.806 215.653 104.008 218.447 105.362 219.239C106.716 220.03 107.937 219.592 108.356 218.457C108.464 217.877 108.418 217.278 108.223 216.721C109.103 217.2 109.923 217.782 110.664 218.457C112.858 220.469 114.755 220.774 114.803 219.544C114.851 218.314 112.676 215.081 112.676 215.081C113.795 216.09 114.84 217.176 115.804 218.333C117.073 219.926 119.399 220.536 119.342 218.552C119.285 216.569 117.158 213.279 115.327 211.143C114.509 210.172 113.544 209.335 112.467 208.663C113.315 209.112 114.66 209.808 115.575 210.199C117.225 210.904 121.297 213.737 122.174 211.896C123.052 210.056 121.497 209.073 118.341 206.594Z" fill="#FCBDA5"/>
<path d="M40.3157 210.189C31.1027 204.834 20.769 201.7 10.1338 201.034" stroke="#AEE7FA" stroke-width="1.84" stroke-linecap="round" stroke-linejoin="round"/>
<path d="M119.943 244.433C105.839 250.785 86.4708 246.808 74.8844 242.259C67.1601 239.274 60.2368 235.136 53.1133 231.645C48.7076 229.5 47.3153 228.918 44.5308 226.877C44.5308 226.877 44.6547 210.58 50.2525 203.886" stroke="#AEE7FA" stroke-width="1.84" stroke-linecap="round" stroke-linejoin="round"/>
<path d="M52.4746 199.67C59.703 201.863 81.4359 214.928 96.2265 213.116" stroke="#AEE7FA" stroke-width="1.84" stroke-linecap="round" stroke-linejoin="round"/>
<path d="M359.93 69.015C359.205 81.0115 353.464 99.7691 350.861 102.086C350.861 102.086 347.361 104.604 334.649 103.221C321.423 101.791 318.896 96.5459 318.896 96.5459C318.896 96.5459 304.42 75.1372 308.949 56.494C313.479 37.8508 316.226 31.2709 326.115 28.2479C336.004 25.225 347.609 32.0624 347.609 32.0624C347.609 32.0624 360.559 58.2201 359.93 69.015Z" fill="#200004"/>
<path d="M304.897 123.381L304.429 105.329L316.33 98.9205C317.671 98.3719 318.929 97.6402 320.069 96.7463C324.646 91.921 324.684 72.1811 324.684 72.1811L341.563 71.7139C341.563 71.7139 341.62 90.2236 347.142 96.6223C348.458 98.1576 354.952 102.411 355.095 101.791L361.522 110.373L359.882 123.924C341.573 122.847 323.244 122.866 304.897 123.381Z" fill="#FCBDA5"/>
<path d="M332.37 93.8569C331.159 94.0953 329.938 94.3146 328.718 94.5053H328.641C326.439 94.7056 324.255 94.9154 322.042 95.0298H321.213C324.655 88.4308 324.684 72.1431 324.684 72.1431L341.563 71.6758C341.563 71.6758 341.563 82.8331 344.204 90.8148C340.324 92.0658 336.372 93.0816 332.37 93.8569Z" fill="#FFA280"/>
<path d="M312.411 108.018L315.853 98.7207L336.852 108.19L349.754 98.7207L353.731 115.485L362.809 232.36L316.283 234.439L312.411 108.018Z" fill="#3DB0D0"/>
<path d="M290.831 170.929C292.328 157.578 299.108 138.506 299.108 138.506L297.325 107.456C293.027 110.457 289.259 114.154 286.177 118.394C281.523 125.184 268.058 168.592 266.151 182.858C264.244 197.125 267.715 196.419 272.607 195.599C273.904 195.389 278.481 199.842 284.508 199.318C286.501 189.829 288.189 180.265 290.831 170.929Z" fill="white"/>
<path d="M381.72 265.651H293.272C293.73 259.538 294.426 253.54 295.427 247.818C297.83 234.134 301.483 223.253 304.115 212.592C307.929 213.228 311.782 213.825 315.672 214.385C324.293 215.586 332.955 216.483 341.658 217.074L343.651 217.217H344.605C350.327 217.573 356.033 217.789 361.723 217.865C364.793 217.923 367.87 217.923 370.953 217.865H373.118C373.709 220.459 374.374 223.161 375.111 225.971C375.941 229.175 376.866 232.532 377.896 236.07C377.896 236.07 377.896 236.117 377.896 236.137C378.287 237.481 378.649 238.893 378.964 240.342C379.749 243.883 380.342 247.465 380.738 251.07C380.897 252.456 381.04 253.867 381.167 255.304C381.424 258.68 381.615 262.161 381.72 265.651Z" fill="#2A3559"/>
<path d="M385.42 265.651H342.66C342.107 253.369 341.811 242.659 341.706 233.304C341.63 227.373 341.62 221.985 341.706 217.093C341.897 193.92 343.146 181.647 343.127 174.295C343.127 172.864 343.213 171.234 343.375 169.527C343.375 169.45 343.375 169.307 343.375 169.088C343.375 169.031 343.375 168.974 343.375 168.926C343.375 168.878 343.375 168.506 343.442 168.239C344.338 160.048 346.474 150.464 346.474 150.464L349.163 123.524L349.755 117.564L351.071 104.423L351.233 102.802L351.357 101.562L351.5 100.065L351.69 98.158V97.9482L352.93 98.4251L355.6 99.4454L361.322 101.639L369.39 104.738C370.734 108.81 378.706 146.487 377.61 153.983C377.333 155.89 377.286 162.718 377.61 172.264C377.848 179.215 378.296 187.607 378.992 196.562C379.946 208.615 381.329 221.708 383.331 233.753C383.465 234.592 383.608 235.421 383.751 236.251C385.029 243.26 385.487 253.807 385.42 265.651Z" fill="white"/>
<path d="M344.558 217.264C344.558 222.318 344.558 227.659 344.558 233.18C344.51 243.67 344.414 254.713 344.233 265.651H288.466C288.42 259.682 288.844 253.72 289.734 247.818C291.413 238.282 293.081 225.551 294.502 212.391C295.456 203.408 296.409 194.206 297.106 185.623C297.43 181.751 297.716 177.994 297.964 174.475C297.964 174.38 297.964 174.285 297.964 174.189C297.964 173.836 298.021 173.493 298.04 173.15C298.04 172.969 298.04 172.797 298.04 172.625C298.145 171.004 298.25 169.431 298.345 167.915C299.003 156.805 299.156 148.671 298.555 146.601C298.479 146.344 298.403 146.086 298.336 145.838L297.506 143.044C295.599 136.655 294.235 132.202 294.235 132.202C294.235 132.202 294.302 131.42 294.407 130.123C294.502 129.064 294.626 127.653 294.779 126.06C295.38 119.633 296.39 110.097 297.249 107.474L312.65 99.6738L313.937 99.0253L314.347 98.8155H314.404L315.52 98.558L316.006 98.4532L318.295 97.9287L319.573 97.6426L320.66 100.923L325.657 116.114L326.754 119.423L327.946 123.047L343.203 169.412C343.203 169.412 343.203 169.412 343.203 169.459L344.157 172.263L344.252 176.907C344.252 176.907 344.558 194.044 344.558 217.264Z" fill="white"/>
<path d="M322.634 240.618C322.634 240.618 306.813 258.985 296.667 255.18L296.047 251.365C300.909 250.729 305.501 248.766 309.321 245.691C315.615 240.59 317.484 236.604 317.484 236.604L322.634 240.618Z" fill="#AEE7FA"/>
<path d="M315.3 98.2246L310.017 101.248L313.059 123.019L320.116 121.111V134.033C333.696 141.185 343.337 169.46 343.337 169.46C343.337 169.46 336.518 140.489 332.265 130.485C320.993 104.08 315.3 98.2246 315.3 98.2246Z" fill="#AEE7FA"/>
<path d="M331.674 188.666L332.122 192.28L254.956 151.37L260.591 144.485L300.29 123.143L331.674 188.666Z" fill="#3397B5"/>
<path d="M332.122 192.28L287.474 216.177L254.956 151.37L300.748 126.757L332.122 192.28Z" fill="#3DB0D0"/>
<path d="M295.961 172.693C296.863 173.843 298.091 174.694 299.484 175.136C300.877 175.579 302.371 175.591 303.771 175.172C303.771 175.172 303.056 164.368 299.108 167.352C295.16 170.337 295.961 172.693 295.961 172.693Z" fill="#3397B5"/>
<path d="M294.006 158.818C295.799 155.776 294.006 151.494 298.584 145.61C303.161 139.726 304.878 133.366 306.594 135.34C308.311 137.313 304.878 145.61 304.878 145.61C304.878 145.61 308.597 137.619 310.885 138.83C313.174 140.041 312.602 144.275 312.602 144.275C312.602 144.275 314.89 142.101 316.321 145.61C317.751 149.119 316.321 151.246 316.321 151.246C316.321 151.246 319.468 150.34 319.754 153.067C320.04 155.795 318.324 156.395 318.324 156.395C318.324 156.395 320.898 160.029 317.751 161.24C314.604 162.451 307.452 164.577 305.45 165.788C303.447 167 296.667 174.714 296.667 174.714L290.85 164.225C290.85 164.225 292.414 161.516 294.006 158.818Z" fill="#FCBDA5"/>
<path d="M292.585 161.001C295.284 170.938 299.108 175.305 303.771 175.172C303.771 175.172 303.771 178.424 292.585 190.916C284.003 200.452 276.269 205.22 271.987 205.22C267.705 205.22 264.959 192.995 266.485 185.042C268.011 177.088 273.999 177.756 279.835 172.301C285.09 167.333 292.585 161.001 292.585 161.001Z" fill="white"/>
<path d="M270.318 178.538C272.912 176.564 276.393 175.467 279.855 172.263C285.119 167.333 292.614 161.001 292.614 161.001C295.313 170.938 299.137 175.305 303.8 175.172C303.8 175.172 303.8 178.424 292.614 190.916C284.031 200.452 276.298 205.22 272.016 205.22C269.422 205.22 267.381 200.71 266.523 195.388" stroke="#AEE7FA" stroke-width="1.84" stroke-linecap="round" stroke-linejoin="round"/>
<path d="M339.456 119.004C339.456 119.317 339.362 119.624 339.188 119.884C339.014 120.145 338.766 120.348 338.476 120.467C338.186 120.587 337.868 120.618 337.56 120.556C337.253 120.494 336.971 120.342 336.75 120.12C336.529 119.898 336.379 119.615 336.319 119.307C336.259 118.999 336.292 118.681 336.413 118.392C336.534 118.102 336.738 117.856 337 117.683C337.262 117.51 337.569 117.419 337.882 117.421C338.09 117.421 338.295 117.462 338.486 117.542C338.678 117.621 338.852 117.738 338.998 117.885C339.144 118.032 339.26 118.207 339.339 118.399C339.417 118.591 339.457 118.796 339.456 119.004Z" fill="white"/>
<path d="M341.649 136.283C341.649 136.596 341.556 136.902 341.382 137.163C341.208 137.423 340.961 137.626 340.672 137.746C340.382 137.866 340.064 137.897 339.757 137.836C339.45 137.775 339.168 137.624 338.947 137.403C338.725 137.181 338.574 136.899 338.513 136.592C338.452 136.285 338.484 135.967 338.603 135.677C338.723 135.388 338.926 135.141 339.186 134.967C339.447 134.793 339.753 134.7 340.066 134.7C340.274 134.699 340.481 134.739 340.673 134.818C340.866 134.897 341.041 135.014 341.188 135.161C341.335 135.308 341.452 135.483 341.531 135.676C341.61 135.869 341.65 136.075 341.649 136.283Z" fill="white"/>
<path d="M314.356 65.9356C314.562 68.5571 315.071 71.146 315.873 73.6503C316.473 75.4336 317.141 76.6924 317.78 78.2372C319.029 81.3174 325.971 88.3456 330.863 90.7105C332.543 91.2828 334.355 91.3458 336.07 90.8917C342.326 89.1752 349.058 80.4592 351.156 75.9009C352.72 72.506 353.683 66.3075 353.97 60.4809C354.256 54.6543 354.704 46.9396 354.456 42.429C353.769 30.3466 344.967 27.6765 335.755 28.9448C325.161 30.4325 314.013 37.1078 313.984 40.6552C313.918 48.7419 313.479 57.2768 314.356 65.9356Z" fill="#FCBDA5"/>
<path d="M305.412 101.953C305.412 101.953 312.087 100.265 315.587 98.2721C316.896 97.523 318.249 96.8542 319.639 96.2695C314.76 87.012 313.054 76.4083 314.786 66.0876C318.009 47.1201 327.335 51.0967 338.492 48.274C343.547 46.9866 347.809 36.6113 348.181 36.0296C351.414 30.8801 346.407 25.2919 346.531 25.2728C342.994 22.8029 340.428 22.412 336.919 21.8875C323.063 19.6751 312.621 29.5736 309.188 39.2337C304.83 51.5354 307.595 67.4989 308.063 78.6562C308.701 93.8282 305.297 102.01 305.412 101.953Z" fill="#42220D"/>
<path d="M345.54 36.9266C345.795 37.7527 345.939 38.6088 345.969 39.4728C345.721 47.2543 352.997 53.6244 353.178 54.2157C355.743 62.2547 350.394 85.1319 347.332 96.1748C351.919 98.082 356.325 100.457 361.456 101.601C359.934 93.703 359.612 85.6207 360.502 77.6269C363.725 49.9721 364.259 45.6808 359.92 36.2877C357.059 30.0511 350.432 25.0064 347.027 25.1781C346.851 25.1825 346.676 25.2016 346.503 25.2353C346.374 25.2515 346.246 25.277 346.121 25.3116C343.108 26.3796 344.767 33.3696 345.54 36.9266Z" fill="#42220D"/>
<path d="M347.275 95.5928L355.581 99.1879L360.197 118.89L354.523 117.936L358.337 132.307C350.708 141.042 343.327 169.498 343.327 169.498C343.327 169.498 345.778 145.41 347.371 129.78C350.327 101 347.275 95.5928 347.275 95.5928Z" fill="#AEE7FA"/>
<path d="M343.699 265.651C343.699 255.381 343.699 244.252 343.699 233.228C343.699 227.831 343.699 222.462 343.699 217.227C343.699 197.668 343.613 179.978 343.375 169.908" stroke="#AEE7FA" stroke-width="1.84" stroke-linecap="round" stroke-linejoin="round"/>
<path d="M336.852 108.19C336.852 108.19 345.359 101.228 346.388 93.8281L350.508 97.4137C350.508 97.4137 353.884 116.019 349.116 117.926C342.44 120.577 336.852 108.19 336.852 108.19Z" fill="#3397B5"/>
<path d="M336.852 108.19C336.852 108.19 324.865 103.727 319.973 93.8281L315.854 97.4137C315.854 97.4137 320.316 119.118 326.41 119.404C335.021 119.852 336.852 108.19 336.852 108.19Z" fill="#3397B5"/>
<path d="M367.807 247.599C369.391 248.402 371.041 249.072 372.737 249.601C373.68 248.343 374.294 246.867 374.52 245.31C374.596 242.449 381.329 228.641 381.329 228.641L370.553 224.149C369.113 226.057 364.421 235.221 362.323 237.109C360.864 238.425 360.206 240.924 359.939 242.344C362.444 244.267 365.072 246.022 367.807 247.599Z" fill="#FCBDA5"/>
<path d="M401.498 171.567C396.797 155.041 386.078 119.27 383.446 114.712C379.069 107.083 369.39 104.699 369.39 104.699L367.282 140.937C367.282 140.937 376.075 171.061 382.302 183.086C382.302 183.086 379.841 195.951 376.113 204.943C371.907 215.09 364.593 234.038 364.593 234.038C367.025 234.715 375.531 241.801 376.78 243.574C376.78 243.574 389.177 224.922 395.433 215.09C405.064 200.042 405.78 186.481 401.498 171.567Z" fill="white"/>
<path d="M367.301 140.946C367.301 140.946 376.093 171.071 382.32 183.096C382.32 183.096 379.86 195.96 376.131 204.953C371.926 215.099 364.612 234.048 364.612 234.048C367.044 234.725 375.55 241.81 376.799 243.584C376.799 243.584 389.196 224.931 395.452 215.099" stroke="#AEE7FA" stroke-width="1.84" stroke-linecap="round" stroke-linejoin="round"/>
<path d="M385.115 172.14L382.12 184.108" stroke="#AEE7FA" stroke-width="1.84" stroke-linecap="round" stroke-linejoin="round"/>
<path d="M355.791 240.618C355.791 240.618 371.611 258.985 381.72 255.18L382.34 251.365C377.478 250.729 372.885 248.766 369.065 245.691C362.771 240.59 360.912 236.604 360.912 236.604L355.791 240.618Z" fill="#AEE7FA"/>
<path d="M180.402 92.4176C181.279 76.7306 211.795 76.7211 224.507 81.4129C237.218 86.1047 235.635 98.6829 235.635 98.6829" stroke="#2A3559" stroke-width="2.37" stroke-miterlimit="10"/>
<path d="M248.547 96.6511C245.973 108.094 243.379 118.737 240.842 128.588H182.281C179.992 117.936 177.417 106.445 174.509 94.0001C180.497 91.0057 188.47 89.9949 191.121 84.7023C192.074 82.7951 192.36 75.6334 192.408 71.9429C192.493 68.17 192.337 64.3956 191.941 60.6426H224.192C223.759 66.3917 223.651 72.1607 223.868 77.9221C224.097 81.994 224.678 85.4557 225.918 86.6191C229.79 90.2714 240.966 93.0178 248.547 96.6511Z" fill="#FCBDA5"/>
<path d="M255.928 265.651H207.027L207.599 254.141L207.98 246.512L208.934 227.173L255.08 243.785L255.232 243.842C255.232 243.842 255.661 252.882 255.928 265.651Z" fill="#2A3559"/>
<path d="M205.597 265.651H157.82C158.774 255.075 159.499 248.41 159.499 248.41L203.689 227.163L204.7 247.532L205.597 265.651Z" fill="#2A3559"/>
<path d="M264.406 114.579C264.406 114.579 264.215 116.534 263.843 120.043C263.309 125.183 262.394 133.651 261.164 144.17C261.011 145.514 260.858 146.888 260.687 148.289C260.467 150.149 260.239 152.104 260 154.011C259.762 155.918 259.523 157.921 259.275 159.943C258.741 164.234 258.179 168.716 257.578 173.293C257.527 173.662 257.479 174.043 257.435 174.437C257.187 176.469 256.968 178.691 256.758 181.113C256.662 182.305 256.558 183.535 256.472 184.803C256.415 185.518 256.367 186.253 256.319 186.997C256.167 189.304 256.033 191.765 255.909 194.244C255.909 194.921 255.842 195.608 255.814 196.304C255.814 196.628 255.814 196.943 255.766 197.257C255.771 197.311 255.771 197.366 255.766 197.42C255.366 206.956 255.146 217.732 255.08 228.765V228.937C255.08 233.838 255.08 238.797 255.08 243.727C255.127 251.165 255.232 258.546 255.394 265.603H153.929C154.464 253.74 154.978 240.809 155.284 228.164V227.983C155.284 227.029 155.284 226.009 155.36 225.027C155.57 214.947 155.646 205.163 155.503 196.418C155.503 195.77 155.503 195.131 155.455 194.511C155.374 187.424 154.931 180.345 154.13 173.303C152.708 162.158 152.261 150.91 152.795 139.688C152.795 138.82 152.871 137.962 152.928 137.132C153.262 131.363 153.806 126.461 154.32 122.713C154.683 120.12 155.026 118.069 155.274 116.677C155.522 115.285 155.694 114.531 155.694 114.531L158.202 112.777L160.691 111.041L170.036 104.518L175.977 100.37L180.507 97.2137L180.964 96.899L181.098 96.8036L181.994 97.0897L183.148 97.4616L183.625 97.6142L187.85 98.9683L189.49 99.4928L190.768 99.9029L207.046 100.589H207.313L221.169 98.6822L228.664 94.7057L229.389 94.3242L230.629 95.0394L232.136 95.9072L235.645 97.9384L235.855 98.0624L242.53 101.877L246.726 104.299L255.661 109.458L262.699 113.53L264.406 114.579Z" fill="#3DB0D0"/>
<path d="M191.121 84.7023C190.931 85.0705 190.714 85.4243 190.472 85.7608C200.867 86.5523 216.554 84.502 223.954 79.0855C223.954 78.7136 223.896 78.3512 223.877 77.9698C223.656 72.1927 223.761 66.4078 224.192 60.6426H191.941C192.337 64.3956 192.493 68.17 192.408 71.9429C192.36 75.6334 192.093 82.7474 191.121 84.7023Z" fill="#FFA280"/>
<path d="M150.296 265.651C150.945 250.794 151.508 236.899 151.765 228.145C151.77 228.091 151.77 228.037 151.765 227.983C151.765 226.791 151.832 225.694 151.851 224.712C151.851 223.959 151.851 223.272 151.851 222.652C152.013 213.221 151.689 204.619 151.078 196.247C151.021 195.446 150.964 194.654 150.897 193.863C149.495 176.268 146.883 159.456 144.756 137.79L157.554 102.335L166.804 97.7191L169.588 96.3364L178.113 92.0832L179.067 91.6064L180.536 90.8721L181.279 90.5098L181.175 91.3203C181.098 92.0069 180.965 93.1036 180.812 94.5054C180.745 95.0776 180.679 95.6974 180.602 96.4126L180.545 96.8704C180.545 97.0134 180.545 97.1565 180.545 97.309C180.068 101.772 179.458 107.866 179.038 113.73C178.565 118.862 178.451 124.021 178.695 129.169C179.182 134.51 180.841 140.46 183.129 146.878C183.33 147.441 183.54 148.013 183.749 148.585C188.689 161.936 196.146 177.241 201.353 193.205C201.357 193.243 201.357 193.281 201.353 193.319C201.553 193.91 201.744 194.511 201.935 195.112C203.385 199.627 204.601 204.213 205.578 208.853C206.112 211.438 206.531 214.032 206.884 216.635C207.161 218.762 207.361 220.898 207.466 223.034C207.466 223.291 207.466 223.549 207.466 223.806V223.882C207.47 223.924 207.47 223.965 207.466 224.006C207.466 224.579 207.466 225.141 207.513 225.713C207.637 232.78 207.78 239.751 207.895 246.521C208 253.12 208.076 259.538 208.076 265.67L150.296 265.651Z" fill="white"/>
<path d="M265.474 129.608C265.331 134.1 265.235 138.248 265.159 142.053C265.159 143.398 265.159 144.694 265.092 145.953C265.026 149.92 264.988 153.496 264.968 156.71C264.968 162.813 264.968 167.61 264.968 171.338C264.968 175.067 264.911 177.871 264.721 179.692C264.673 180.102 264.635 180.512 264.587 180.913L264.444 182.2C264.291 183.64 264.129 185.061 263.977 186.396C263.843 187.559 263.719 188.694 263.586 189.8C263.538 190.22 263.49 190.64 263.452 191.05C263.338 192.003 263.233 192.957 263.128 193.825C263.052 194.425 262.985 195.017 262.918 195.608C261.545 206.099 260.857 216.668 260.858 227.249C260.858 227.478 260.858 227.707 260.858 227.936V228.079C260.954 238.711 261.678 252.091 262.661 265.68H204.385C204.385 259.519 204.481 253.388 204.7 247.561C205.024 238.73 205.568 230.596 206.14 224.131C206.14 224.131 206.14 224.064 206.14 224.035C206.14 223.854 206.14 223.663 206.14 223.482C206.14 223.301 206.188 222.958 206.216 222.7C206.426 220.431 206.645 218.399 206.855 216.645C207.084 214.642 207.322 213.002 207.532 211.8C207.742 210.599 207.98 209.35 208.219 208.177C209.044 204.069 210.085 200.007 211.337 196.009C211.404 195.808 211.461 195.618 211.518 195.427C211.719 194.797 211.928 194.187 212.129 193.586C217.221 178.452 223.868 168.602 228.073 152.123C229.031 148.35 229.798 144.53 230.371 140.68L230.428 140.308C230.686 138.572 230.915 136.846 231.115 135.149C231.382 132.936 231.592 130.762 231.773 128.636C232.677 117.78 232.785 106.874 232.097 96.0028C231.926 93.2659 231.735 91.2347 231.621 90.0141C231.535 89.2035 231.477 88.7744 231.477 88.7744L233.776 89.728L233.995 89.8234L234.586 90.0809L260.591 101.343L262.689 113.635L263.786 120.053L265.474 129.608Z" fill="white"/>
<path d="M181.909 91.5498L187.192 87.4492C188.855 89.1577 190.633 90.7507 192.513 92.2173C202.459 99.3122 207.961 99.9511 207.961 99.9511C207.961 99.9511 197.786 108.085 193.056 107.437C184.34 106.245 181.909 91.5498 181.909 91.5498Z" fill="#3397B5"/>
<path d="M231.544 90.5097L228.168 86.6094C226.15 88.692 224.01 90.6535 221.76 92.4836C211.995 99.4641 206.598 100.113 206.598 100.113C206.598 100.113 216.582 108.104 221.226 107.465C229.771 106.263 231.544 90.5097 231.544 90.5097Z" fill="#3397B5"/>
<path d="M220.244 238.378C220.244 239.044 220.046 239.695 219.676 240.249C219.306 240.803 218.779 241.234 218.164 241.489C217.548 241.743 216.871 241.81 216.218 241.679C215.564 241.548 214.964 241.227 214.494 240.755C214.024 240.283 213.704 239.682 213.575 239.029C213.446 238.375 213.514 237.698 213.77 237.083C214.027 236.468 214.46 235.943 215.014 235.574C215.569 235.206 216.221 235.01 216.887 235.012C217.778 235.014 218.632 235.37 219.261 236.001C219.891 236.632 220.244 237.487 220.244 238.378Z" fill="#AEE7FA"/>
<path d="M188.803 87.3633C188.803 87.3633 185.847 100.504 190.472 122.819C193.39 136.885 194.506 146.297 197.452 157.368C205.234 186.606 205.606 208.863 205.606 208.863L172.868 121.703L178.485 114.78L167.251 109.354C167.251 109.354 176.254 93.4092 180.602 90.2814C182.971 88.4898 185.835 87.4709 188.803 87.3633Z" fill="#AEE7FA"/>
<path d="M228.169 86.6094C228.169 86.6094 230.295 100.036 225.966 123.457C221.636 146.878 216.43 168.601 214.093 176.65C207.666 198.945 207.332 210.675 207.332 210.675C207.332 210.675 238.353 128.063 244.447 117.65L238.267 112.948L245.315 107.541C245.315 107.541 238.639 92.8937 234.291 89.7944C229.942 86.6952 228.169 86.6094 228.169 86.6094Z" fill="#AEE7FA"/>
<path d="M248.338 197.524C249.654 175.896 248.957 153.391 250.245 138.753C253.315 104.709 260.62 101.343 260.62 101.343C260.62 101.343 272.826 107.007 278.739 140.708C280.389 150.187 285.614 170.423 283.173 198.144C281.352 219.028 277.594 221.823 271.873 224.397C263.986 227.916 248.738 231.626 241.357 226.829C245.257 213.259 248.175 216.549 248.338 197.524Z" fill="white"/>
<path d="M260.649 101.343C260.649 101.343 272.855 107.007 278.767 140.708C280.417 150.187 285.643 170.423 283.202 198.144C281.352 219.028 277.594 221.823 271.873 224.397C263.986 227.916 248.738 231.626 241.357 226.829" stroke="#AEE7FA" stroke-width="1.84" stroke-linecap="round" stroke-linejoin="round"/>
<path d="M166.412 197.525C165.096 175.897 165.802 153.392 164.505 138.754C161.435 104.709 157.649 102.335 157.649 102.335C157.649 102.335 143.221 108.81 138.338 132.851C136.431 142.282 130.862 170.995 131.596 198.097C132.159 219.077 137.165 224.255 143.039 226.648C151.517 230.129 175.958 226.648 181.975 225.637C177.989 212.115 166.584 216.55 166.412 197.525Z" fill="white"/>
<path d="M157.62 102.335C157.62 102.335 143.192 108.81 138.309 132.851C136.402 142.282 130.833 170.995 131.567 198.097C132.13 219.077 137.136 224.255 143.011 226.648C151.488 230.129 175.929 226.648 181.947 225.637" stroke="#AEE7FA" stroke-width="1.84" stroke-linecap="round" stroke-linejoin="round"/>
<path d="M168.253 207.804C164.906 185.051 166.021 182.114 165.592 159.094" stroke="#AEE7FA" stroke-width="1.84" stroke-linecap="round" stroke-linejoin="round"/>
<path d="M258.522 195.475C257.251 176.402 256.799 157.289 257.168 138.134" stroke="#AEE7FA" stroke-width="1.84" stroke-linecap="round" stroke-linejoin="round"/>
<path d="M231.039 219.353C240.003 220.096 239.507 203.141 239.507 203.141C239.507 203.141 224.249 195.112 223.467 202.321C222.685 209.53 231.039 219.353 231.039 219.353Z" fill="#808195"/>
<path d="M222.676 193.901C227.31 193.901 236.255 187.845 243.56 192.365C247.882 195.019 251.882 198.165 255.48 201.739C255.48 201.739 240.823 201.51 232.803 205.306C227.165 208.154 221.832 211.569 216.887 215.5L222.676 193.901Z" fill="#FCBDA5"/>
<path d="M225.146 191.984C222.99 195.541 232.984 216.569 233.957 220.049C219.141 222.734 204.172 224.489 189.137 225.304C163.599 226.4 145.004 225.304 139.129 221.26C133.255 217.217 140.398 188.837 155.56 194.559C164.782 198.088 179.038 199.594 192.303 196.791C205.568 193.987 225.146 191.984 225.146 191.984Z" fill="white"/>
<path d="M192.341 196.838C205.616 194.025 225.165 191.984 225.165 191.984C223.01 195.541 233.003 216.569 233.976 220.049" stroke="#AEE7FA" stroke-width="1.84" stroke-linecap="round" stroke-linejoin="round"/>
<path d="M195.708 191.984C191.102 191.469 180.192 184.861 172.42 188.504C167.82 190.642 163.484 193.308 159.499 196.447C159.499 196.447 177.818 199.012 185.351 203.704C190.627 207.18 195.534 211.183 199.999 215.653L195.708 191.984Z" fill="#FCBDA5"/>
<path d="M195.326 191.917C189.385 193.958 185.542 199.298 186.429 217.455C199.323 222.017 212.599 225.416 226.099 227.611C251.341 231.635 265.197 227.611 271.529 224.321C277.861 221.031 279.578 193.157 265.865 194.978C261.04 195.617 240.375 202.75 226.223 198.974C213.082 195.464 195.326 191.917 195.326 191.917Z" fill="white"/>
<path d="M231.668 191.593C236.293 190.239 244.371 187.33 247.689 185.519C251.008 183.707 253.554 181.752 257.74 180.894C261.927 180.035 263.881 179.415 264.749 181.151C265.617 182.887 258.885 184.136 257.292 184.479C255.699 184.822 253.172 187.435 253.172 187.435C253.172 187.435 258.551 186.606 261.545 186.482C264.539 186.358 266.561 185.91 268.22 186.997C269.88 188.084 267.772 189.428 265.617 189.457C263.987 189.58 262.391 189.994 260.906 190.678C260.906 190.678 264.721 190.945 265.674 191.631C266.628 192.318 265.312 193.443 262.203 193.91C260.492 194.147 258.8 194.503 257.139 194.978C257.139 194.978 256.043 197.334 251.98 197.067C247.918 196.8 231.668 191.593 231.668 191.593Z" fill="#FCBDA5"/>
<path d="M258.818 193.796C252.724 194.798 247.603 195.618 243.302 196.285L243.36 196.753C243.403 197.483 243.403 198.215 243.36 198.946C246.694 198.945 250.021 198.658 253.306 198.088C255.18 197.701 257.027 197.194 258.837 196.571C260.754 195.78 262.06 193.262 258.818 193.796Z" fill="#FCBDA5"/>
<path d="M181.718 201.768C169.485 197.609 156.588 195.75 143.678 196.285" stroke="#AEE7FA" stroke-width="1.84" stroke-linecap="round" stroke-linejoin="round"/>
<path d="M148.36 227.878C169.74 228.832 190.319 225.275 209.697 223.825" stroke="#AEE7FA" stroke-width="1.84" stroke-linecap="round" stroke-linejoin="round"/>
<path d="M272.197 224.245C258.494 231.121 238.43 230.157 225.851 227.745C217.269 226.086 209.268 223.387 200.972 221.213C195.765 219.839 192.141 218.991 186.667 218.037C186.667 218.037 184.236 203.094 189.643 196.199" stroke="#AEE7FA" stroke-width="1.84" stroke-linecap="round" stroke-linejoin="round"/>
<path d="M195.708 191.984C204.29 193.319 230.038 203.094 245.782 199.918" stroke="#AEE7FA" stroke-width="1.84" stroke-linecap="round" stroke-linejoin="round"/>
<path d="M226.643 50.1048C226.643 50.1048 226.252 41.6081 233.375 41.8274C237.915 41.9705 238.268 46.1282 234.73 51.5066C233.232 53.7667 233.089 58.8781 231.239 60.5278C228.989 62.5304 227.101 59.4407 226.471 58.0389C225.289 55.7121 226.643 50.1048 226.643 50.1048Z" fill="#FCBDA5"/>
<path d="M230.81 46.1764C233.328 44.7745 236.122 45.0606 234.443 47.8547C232.765 50.6488 231.649 51.488 231.783 54.53C231.835 54.8807 231.814 55.2384 231.72 55.5803C231.627 55.9223 231.463 56.2411 231.24 56.5164C231.016 56.7918 230.738 57.0176 230.423 57.1797C230.108 57.3417 229.762 57.4364 229.408 57.4576L230.81 46.1764Z" fill="#FBA799"/>
<path d="M188.288 50.1048C188.288 50.1048 188.689 41.6081 181.613 41.8274C177.074 41.9705 176.721 46.1282 180.259 51.5066C181.746 53.7667 181.899 58.8781 183.749 60.5278C186 62.5304 187.878 59.4407 188.565 58.0389C189.652 55.7121 188.288 50.1048 188.288 50.1048Z" fill="#FCBDA5"/>
<path d="M184.903 46.1764C182.385 44.7745 179.591 45.0606 181.27 47.8547C182.948 50.6488 184.064 51.488 183.93 54.53C183.878 54.8807 183.899 55.2384 183.993 55.5803C184.086 55.9223 184.25 56.2411 184.473 56.5164C184.696 56.7918 184.975 57.0176 185.29 57.1797C185.605 57.3417 185.951 57.4364 186.305 57.4576L184.903 46.1764Z" fill="#FBA799"/>
<path d="M233.862 29.3067C233.68 32.0627 233.137 33.8555 232.422 37.956C232.25 38.9096 232.069 40.0635 231.878 41.3795C230.409 51.5737 228.54 65.4392 227.739 67.5086C226.414 70.9416 219.157 76.5012 215.667 78.5324C212.176 80.5636 203.508 80.144 200.046 78.1128C196.585 76.0816 188.756 70.9416 187.43 67.5086C186.61 65.4011 184.684 51.135 183.196 40.8073C183.024 39.6249 182.862 38.6045 182.71 37.6985C182.004 33.6552 181.47 32.0627 181.308 29.3449C180.774 20.7623 190.472 8.20321 207.58 8.20321C227.825 8.16507 234.396 20.6956 233.862 29.3067Z" fill="#FCBDA5"/>
<g style="mix-blend-mode:multiply">
<path d="M188.26 22.8032C188.26 22.8032 202.24 19.17 222.657 20.2857L228.14 16.6143C221.227 13.0748 213.573 11.225 205.806 11.2168C193.152 11.3598 188.26 22.8032 188.26 22.8032Z" fill="#E6D2E3"/>
</g>
<path d="M233.08 35.7438L232.336 37.8227L232.422 37.9562C232.25 38.9098 232.069 40.0637 231.878 41.3797C231.525 43.8591 231.144 46.5578 230.763 49.2565L227.902 52.7754C229.237 48.7416 230.114 40.4356 230.534 37.7273C228.608 33.5512 227.566 29.0222 227.473 24.4244L226.405 17.5488L221.818 17.7491C221.16 17.072 211.204 17.4344 202.555 18.1019C191.578 18.9411 188.25 22.87 188.25 22.87C187.611 26.9896 186.791 33.2644 184.693 36.869L184.579 37.0693L184.417 37.3459C184.932 39.9492 185.151 47.6831 186.696 51.9457L184.388 49.3042C183.978 46.3957 183.568 43.4776 183.187 40.817C183.129 40.4356 183.082 40.1018 183.025 39.749C183.025 39.749 182.557 38.1755 181.918 35.9345C181.442 34.2943 180.269 25.8643 180.011 24.6723C179.916 24.3004 179.839 23.9476 179.773 23.5947C178.762 18.3117 180.917 -1.30419 211.137 1.07985C211.499 1.07985 211.852 1.15614 212.215 1.20382C222.17 2.51981 226.738 7.2116 226.738 7.2116L230.152 13.2194C235.817 14.0681 236.417 17.3485 235.121 23.8045C235.044 24.0715 233.652 34.1512 233.08 35.7438Z" fill="#491B25"/>
<path d="M178.886 94.1904L179.057 95.9737C178.972 95.9737 168.062 96.4982 163.332 103.269C158.183 110.631 150.048 131.639 152.165 135.968C154.492 140.736 164.639 145.123 164.744 145.171L164.038 146.82C163.599 146.63 153.176 142.138 150.544 136.76C147.788 131.095 157.22 108.886 161.854 102.239C167.07 94.7721 178.514 94.219 178.886 94.1904Z" fill="#2A3559"/>
<path d="M156.428 117.068C158.252 112.244 160.566 107.621 163.332 103.269C168.1 96.4982 178.972 95.9832 179.057 95.9737L178.972 95.0773L178.886 94.1904C178.514 94.1904 167.071 94.7721 161.854 102.239C159.014 106.765 156.618 111.555 154.702 116.543L156.428 117.068Z" fill="#2A3559" stroke="#2A3559" stroke-width="0.55" stroke-linecap="round" stroke-linejoin="round"/>
<path d="M163.904 143.57H166.527C166.87 143.565 167.209 143.634 167.523 143.773C167.836 143.912 168.116 144.118 168.342 144.375C168.569 144.632 168.737 144.936 168.835 145.264C168.933 145.593 168.959 145.938 168.911 146.278C168.859 146.613 168.735 146.934 168.548 147.217C168.362 147.501 168.116 147.741 167.829 147.922C167.541 148.103 167.219 148.22 166.882 148.265C166.546 148.311 166.203 148.283 165.878 148.185L163.37 147.432C163.271 147.405 163.185 147.342 163.129 147.256C163.073 147.17 163.05 147.066 163.065 146.964L163.494 143.932C163.508 143.832 163.557 143.741 163.632 143.675C163.707 143.608 163.804 143.571 163.904 143.57Z" fill="#2A3559"/>
<path d="M180.602 94.4297L179.944 96.0985C180.021 96.0985 190.367 99.6364 193.057 107.437C195.975 115.934 198.006 138.372 194.783 141.948C191.226 145.915 180.269 147.317 180.154 147.336L180.383 149.12C180.86 149.053 192.112 147.613 196.118 143.15C200.333 138.468 197.386 114.541 194.754 106.855C191.769 98.2441 180.946 94.5632 180.602 94.4297Z" fill="#2A3559"/>
<path d="M195.889 122.609C195.448 117.468 194.489 112.385 193.028 107.437C190.339 99.6364 179.992 96.1271 179.916 96.0985L180.24 95.2593L180.574 94.4297C180.917 94.5632 191.769 98.2442 194.725 106.827C196.211 111.964 197.194 117.234 197.662 122.561L195.889 122.609Z" fill="#2A3559" stroke="#2A3559" stroke-width="0.55" stroke-linecap="round" stroke-linejoin="round"/>
<path d="M182.3 146.144L179.868 145.419C179.346 145.277 178.792 145.316 178.295 145.528C177.798 145.741 177.388 146.116 177.131 146.592C176.945 146.957 176.857 147.364 176.875 147.773C176.892 148.183 177.016 148.58 177.233 148.928C177.45 149.275 177.753 149.561 178.112 149.756C178.472 149.952 178.877 150.051 179.286 150.044H181.756C181.858 150.041 181.956 150.002 182.033 149.934C182.11 149.866 182.16 149.774 182.176 149.673L182.595 146.65C182.617 146.544 182.599 146.434 182.544 146.34C182.49 146.247 182.403 146.177 182.3 146.144Z" fill="#2A3559"/>
<path d="M176.979 96.4886H179.277C179.337 96.4795 179.398 96.4795 179.458 96.4886L181.661 97.1276C181.814 97.1707 181.978 97.1568 182.122 97.0884C182.265 97.02 182.379 96.9018 182.443 96.7557L182.796 95.9737C182.844 95.8632 182.861 95.7412 182.844 95.6216C182.828 95.5019 182.778 95.3894 182.7 95.2966L182.605 95.1727C182.081 94.5282 181.777 93.7328 181.737 92.9031L181.604 90.3283C181.599 90.1686 181.535 90.0163 181.424 89.9016C181.312 89.7868 181.162 89.7179 181.003 89.7084L180.364 89.6608H180.326L179.658 89.5559C179.502 89.5218 179.338 89.5468 179.199 89.626C179.06 89.7052 178.955 89.8331 178.905 89.985L178.066 92.4167C177.792 93.1901 177.281 93.8575 176.607 94.3239L176.483 94.4193C176.385 94.4877 176.307 94.5816 176.258 94.6908C176.21 94.8 176.191 94.9205 176.206 95.0392L176.33 95.8879C176.344 96.0507 176.419 96.2023 176.538 96.3134C176.658 96.4244 176.815 96.4869 176.979 96.4886Z" fill="#2A3559"/>
<path opacity="0.3" d="M225.766 43.783C225.376 45.4145 224.43 46.859 223.089 47.8671C221.749 48.8751 220.098 49.3835 218.423 49.3044C212.968 49.3044 212.815 45.7474 212.301 43.6495C211.888 42.2741 211.794 40.8231 212.024 39.4059C212.52 38.1662 213.931 38.1376 218.261 38.0517C222.59 37.9659 224.936 37.9087 225.623 38.5476C226.309 39.1865 226.481 40.5788 225.766 43.783Z" fill="white"/>
<path opacity="0.3" d="M189.452 38.4998C190.148 37.8608 192.523 37.9181 196.823 38.0039C201.124 38.0897 202.545 38.1183 203.05 39.358C203.281 40.7752 203.186 42.2263 202.774 43.6016C202.259 45.6996 202.116 49.2565 196.652 49.2565C194.977 49.3338 193.327 48.8247 191.987 47.8169C190.647 46.8092 189.7 45.3658 189.309 43.7351C188.603 40.5786 188.765 39.1291 189.452 38.4998Z" fill="white"/>
<path d="M230.476 37.7944C230.381 36.8408 225.708 36.4403 222.361 36.3735C219.014 36.3068 213.349 36.1351 211.337 36.8217C209.554 37.4416 209.85 38.0996 207.59 38.0996C205.616 38.0996 205.52 37.4416 203.775 36.8217C201.763 36.1351 196.146 36.3068 192.751 36.3735C189.357 36.4403 184.741 36.8599 184.646 37.7944C184.631 38.0008 184.631 38.2079 184.646 38.4143C184.646 38.5192 184.646 38.6336 184.646 38.7385C184.646 38.8434 184.646 38.9769 184.646 39.0913C184.671 39.2586 184.706 39.4242 184.751 39.5872C184.903 40.1022 186.572 40.3787 186.858 40.5408C187.497 40.846 187.297 42.9058 188.288 45.1563C189.566 48.0172 192.561 50.3345 198.607 49.8291C204.157 49.3618 204.052 43.4875 204.748 41.9045C205.339 40.5599 205.034 40.1212 207.542 40.1212C210.05 40.1212 209.669 40.5599 210.26 41.9045C210.946 43.4875 210.841 49.3618 216.392 49.8291C222.437 50.3345 225.298 48.0839 226.576 45.1849C227.53 42.9439 227.53 40.846 228.14 40.5408C228.417 40.4169 229.857 40.1689 230.19 39.7303C230.194 39.6954 230.194 39.6602 230.19 39.6254C230.339 39.0853 230.407 38.526 230.391 37.9661C230.391 37.9661 230.476 37.8421 230.476 37.7944ZM202.774 43.6019C202.259 45.6999 202.116 49.2473 196.652 49.2473C194.976 49.3283 193.324 48.8206 191.983 47.8123C190.642 46.8039 189.696 45.3584 189.309 43.7259C188.603 40.579 188.765 39.1295 189.452 38.4906C190.138 37.8516 192.523 37.9184 196.823 38.0042C201.124 38.09 202.545 38.1186 203.05 39.3488C203.28 40.7692 203.186 42.2233 202.774 43.6019ZM225.766 43.7259C225.378 45.3584 224.432 46.8039 223.091 47.8123C221.75 48.8206 220.099 49.3283 218.423 49.2473C212.968 49.2473 212.815 45.6999 212.301 43.6019C211.889 42.2233 211.794 40.7692 212.024 39.3488C212.52 38.1186 213.931 38.09 218.261 38.0042C222.59 37.9184 224.936 37.8612 225.623 38.4906C226.309 39.1199 226.481 40.579 225.766 43.7259Z" fill="#003750"/>
<path d="M233.375 88.5264C242.32 110.841 228.712 141.633 228.712 141.633" stroke="#2A3559" stroke-width="2.37" stroke-miterlimit="10"/>
<path d="M227.015 152.199C230.491 152.199 233.309 149.381 233.309 145.905C233.309 142.429 230.491 139.611 227.015 139.611C223.539 139.611 220.721 142.429 220.721 145.905C220.721 149.381 223.539 152.199 227.015 152.199Z" fill="white" stroke="#2A3559" stroke-width="2.28" stroke-miterlimit="10"/>
<path d="M207.59 265.651V254.141V225.695V223.988V223.854V223.807V223.044V223.034" stroke="#AEE7FA" stroke-width="1.84" stroke-linecap="round" stroke-linejoin="round"/>
</svg>
