<svg width="318" height="318" viewBox="0 0 318 318" fill="none" xmlns="http://www.w3.org/2000/svg">
<path opacity="0.5" d="M79.1184 261.612C130.037 285.875 212.589 285.875 263.507 261.612C314.426 237.349 314.419 198.012 263.507 173.73C212.596 149.447 130.037 149.46 79.1184 173.73C28.2002 197.999 28.2066 237.342 79.1184 261.612Z" fill="#EBEBEB"/>
<path d="M244.122 216.209C263.554 216.209 279.306 208.7 279.306 199.437C279.306 190.175 263.554 182.666 244.122 182.666C224.691 182.666 208.939 190.175 208.939 199.437C208.939 208.7 224.691 216.209 244.122 216.209Z" fill="#E0E0E0"/>
<path d="M190.914 266.198C181.514 270.682 166.276 270.682 156.876 266.198C147.476 261.715 147.476 254.458 156.876 249.974C166.276 245.49 181.514 245.522 190.914 249.974C200.315 254.426 200.34 261.721 190.914 266.198Z" fill="#E0E0E0"/>
<path d="M64.4901 208.984L69.6608 206.001C69.6608 206.001 72.3892 193.834 68.3252 178.379C64.2612 162.925 52.5397 151.368 46.4277 153.792C40.3158 156.215 40.4748 160.788 43.8456 165.424C46.644 169.24 55.7197 178.526 60.0826 189.223C62.6818 195.506 64.173 202.192 64.4901 208.984Z" fill="#0CB8B6"/>
<path opacity="0.1" d="M64.4901 208.984L69.6608 206.001C69.6608 206.001 72.3892 193.834 68.3252 178.379C64.2612 162.925 52.5397 151.368 46.4277 153.792C40.3158 156.215 40.4748 160.788 43.8456 165.424C46.644 169.24 55.7197 178.526 60.0826 189.223C62.6818 195.506 64.173 202.192 64.4901 208.984Z" fill="black"/>
<path d="M67.2442 207.712H67.1997C67.1174 207.699 67.0434 207.655 66.9934 207.588C66.9435 207.521 66.9216 207.438 66.9326 207.355C70.4624 181.915 54.6959 161.347 47.5219 157.054C47.4803 157.036 47.443 157.01 47.4126 156.976C47.3821 156.942 47.3592 156.903 47.3453 156.86C47.3315 156.817 47.327 156.771 47.3322 156.726C47.3373 156.681 47.3521 156.638 47.3754 156.599C47.3987 156.56 47.43 156.526 47.4673 156.501C47.5046 156.475 47.5469 156.457 47.5915 156.449C47.6361 156.441 47.6819 156.443 47.7258 156.454C47.7697 156.465 47.8108 156.485 47.8462 156.514C55.1284 160.864 71.1365 181.706 67.5622 207.444C67.5488 207.519 67.5097 207.587 67.4516 207.636C67.3935 207.684 67.3201 207.711 67.2442 207.712Z" fill="white"/>
<path d="M64.4902 208.984L56.7438 213.436C55.1259 212.627 53.3732 212.123 51.5731 211.948C48.2786 211.534 46.0844 208.354 46.4088 205.982C46.625 204.379 47.1402 202.554 46.8921 200.932C46.6759 199.482 45.2703 198.178 43.9602 197.669C42.8451 197.321 41.681 197.156 40.513 197.18C38.6496 197.091 36.697 196.881 35.1261 195.908C33.5552 194.935 32.3977 192.988 32.9065 191.189C33.2486 190.257 33.804 189.418 34.5283 188.74C35.2496 188.06 35.8346 187.248 36.2518 186.349C36.9387 184.555 35.724 183.41 34.2802 182.577C29.1922 179.651 26.9026 177.343 28.7343 175.13C30.566 172.916 35.5968 171.95 40.7547 174.659C45.9127 177.368 50.1929 174.462 53.5956 175.034C58.9252 175.925 59.2369 179.69 58.5754 182.959C57.914 186.228 64.5093 187.621 66.1438 191.545C67.3713 194.394 68.3762 203.756 64.4902 208.984Z" fill="#0CB8B6"/>
<path d="M61.908 210.79C61.8258 210.79 61.7468 210.759 61.6876 210.702C61.6283 210.645 61.5933 210.567 61.59 210.485C60.954 192.327 37.6828 176.491 32.1941 175.581C32.1527 175.575 32.113 175.561 32.0772 175.539C32.0414 175.518 32.0101 175.489 31.9853 175.455C31.9605 175.422 31.9426 175.384 31.9326 175.343C31.9226 175.302 31.9207 175.26 31.927 175.219C31.9425 175.136 31.9897 175.062 32.0586 175.014C32.1274 174.965 32.2125 174.945 32.2959 174.958C38.0771 175.912 61.5837 191.628 62.226 210.46C62.2277 210.501 62.2212 210.543 62.2068 210.582C62.1923 210.621 62.1703 210.657 62.142 210.688C62.1136 210.719 62.0795 210.744 62.0415 210.761C62.0036 210.779 61.9625 210.789 61.9208 210.79H61.908Z" fill="white"/>
<path d="M161.709 243.589C161.455 240.409 159 234.977 155.349 231.11C151.698 227.244 145.898 225.386 142.311 226.938C138.972 228.388 139.71 232.866 144.117 235.518C148.525 238.17 155.088 241.414 157.34 246.432L161.69 252.455L161.709 243.589Z" fill="#0CB8B6"/>
<path opacity="0.1" d="M161.709 243.589C161.455 240.409 159 234.977 155.349 231.11C151.698 227.244 145.898 225.386 142.311 226.938C138.972 228.388 139.71 232.866 144.117 235.518C148.525 238.17 155.088 241.414 157.34 246.432L161.69 252.455L161.709 243.589Z" fill="black"/>
<path d="M161.709 249.414H161.773C161.829 249.407 161.884 249.388 161.933 249.359C161.982 249.33 162.025 249.292 162.059 249.246C162.093 249.201 162.118 249.149 162.132 249.094C162.147 249.039 162.15 248.981 162.142 248.925C160.558 237.14 148.582 228.942 143.819 228.038C143.763 228.027 143.705 228.028 143.649 228.039C143.593 228.05 143.54 228.072 143.493 228.104C143.445 228.136 143.405 228.177 143.373 228.225C143.342 228.272 143.32 228.326 143.31 228.382C143.299 228.438 143.299 228.496 143.31 228.551C143.321 228.607 143.344 228.661 143.376 228.708C143.407 228.755 143.448 228.796 143.496 228.827C143.544 228.858 143.597 228.88 143.653 228.891C148.105 229.737 159.769 237.846 161.277 249.039C161.292 249.143 161.344 249.238 161.423 249.307C161.503 249.376 161.604 249.414 161.709 249.414Z" fill="white"/>
<path d="M161.239 256.753C160.603 255.004 158.16 252.225 154.427 250.075C150.299 247.69 145.256 246.844 143.946 244.841C142.375 242.424 144.308 239.874 148.36 240.045C152.411 240.217 159.922 245.133 161.716 253.293L161.239 256.753Z" fill="#0CB8B6"/>
<path d="M161.544 255.036H161.626C161.683 255.026 161.737 255.004 161.785 254.972C161.833 254.94 161.875 254.899 161.907 254.851C161.939 254.803 161.961 254.749 161.972 254.692C161.983 254.636 161.982 254.577 161.97 254.521C160.768 248.479 152.01 242.221 146.35 241.96C146.236 241.959 146.125 242.002 146.041 242.078C145.956 242.154 145.903 242.26 145.892 242.373C145.888 242.489 145.93 242.602 146.009 242.688C146.087 242.773 146.196 242.825 146.312 242.831C151.565 243.073 160.005 249.096 161.118 254.693C161.138 254.79 161.192 254.878 161.269 254.94C161.347 255.003 161.444 255.037 161.544 255.036Z" fill="white"/>
<path d="M58.9317 213.695C58.5646 213.449 58.2791 213.1 58.1114 212.691C57.9438 212.282 57.9017 211.832 57.9904 211.399L80.543 111.586C80.8144 110.62 81.4268 109.786 82.2665 109.239L216.463 31.7739C216.873 31.5569 217.329 31.4398 217.793 31.4321C218.257 31.4243 218.716 31.5262 219.134 31.7294C219.495 31.977 219.775 32.3257 219.939 32.7319C220.103 33.138 220.144 33.5835 220.056 34.0126L197.497 133.826C197.225 134.793 196.61 135.628 195.767 136.173L61.6029 213.638C61.1935 213.857 60.7383 213.976 60.2741 213.986C59.81 213.996 59.35 213.897 58.9317 213.695Z" fill="#F0F0F0"/>
<path d="M83.1251 113.061L60.5725 212.913C60.3817 213.765 60.8397 214.109 61.6029 213.67L195.799 136.205C196.642 135.659 197.257 134.825 197.529 133.858L220.056 34.0127C220.247 33.1541 219.789 32.817 219.026 33.2558L84.8296 110.721C83.9987 111.271 83.3936 112.101 83.1251 113.061Z" fill="#E6E6E6"/>
<path d="M221.69 33.2049C221.273 33.0026 220.813 32.9019 220.349 32.9107C219.885 32.9195 219.429 33.0377 219.019 33.2557L84.8232 110.721C84.4339 110.973 84.1209 111.326 83.918 111.743C83.7151 112.16 83.6301 112.625 83.6721 113.086L101.334 236.718C101.42 237.187 101.599 237.634 101.86 238.032C102.121 238.431 102.459 238.774 102.854 239.04C103.27 239.244 103.729 239.345 104.192 239.336C104.656 239.327 105.11 239.208 105.519 238.989L239.689 161.543C240.08 161.291 240.393 160.936 240.596 160.518C240.799 160.1 240.884 159.634 240.84 159.171L223.236 35.5263C223.147 35.0555 222.964 34.6074 222.699 34.2086C222.433 33.8098 222.09 33.4685 221.69 33.2049Z" fill="#F0F0F0"/>
<path d="M86.2797 114.582L103.916 238.214C103.919 238.398 103.974 238.578 104.073 238.733C104.173 238.888 104.313 239.013 104.479 239.094C104.645 239.174 104.83 239.207 105.014 239.188C105.197 239.17 105.372 239.101 105.519 238.99L239.689 161.544C240.08 161.291 240.393 160.937 240.596 160.519C240.799 160.1 240.884 159.635 240.84 159.172L223.236 35.5269C223.234 35.342 223.18 35.1614 223.081 35.0052C222.982 34.849 222.842 34.7233 222.675 34.6422C222.509 34.5611 222.324 34.5277 222.14 34.5458C221.956 34.5639 221.78 34.6327 221.633 34.7446L87.4372 112.209C87.0457 112.461 86.7308 112.815 86.5267 113.234C86.3226 113.652 86.2372 114.118 86.2797 114.582Z" fill="#FAFAFA"/>
<path d="M60.6934 212.353L95.0374 192.517L96.0359 199.703L80.2885 208.798C80.2885 208.798 76.0909 210.286 74.4246 210.706C72.7583 211.126 60.6934 212.353 60.6934 212.353Z" fill="#E0E0E0"/>
<path d="M96.055 199.71L101.207 235.835L80.3076 208.805L96.055 199.71Z" fill="#E6E6E6"/>
<path d="M100.59 237.037L81.8596 212.71C81.5486 212.348 81.1556 212.064 80.7131 211.884C80.2706 211.704 79.7915 211.632 79.3156 211.674L61.8001 214.218C60.8138 214.323 59.8179 214.142 58.9318 213.696C58.2195 213.289 58.3403 212.818 59.1989 212.653L79.3283 208.78C79.8003 208.709 80.2826 208.761 80.7283 208.932C81.1741 209.102 81.5682 209.385 81.8723 209.753L103.197 238.5C103.719 239.206 103.566 239.441 102.854 239.028C101.995 238.493 101.23 237.82 100.59 237.037Z" fill="#E0E0E0"/>
<path d="M220.088 33.5237C220.085 33.1653 219.995 32.813 219.824 32.498C219.653 32.183 219.407 31.9149 219.108 31.7174C218.69 31.5172 218.23 31.4175 217.767 31.4263C217.303 31.4352 216.847 31.5523 216.437 31.7683L82.241 109.233C81.8318 109.49 81.4756 109.822 81.1916 110.213C80.8764 110.619 80.645 111.084 80.5111 111.58L77.3311 125.68L79.9132 127.162L216.876 48.1071L220.056 34.0134C220.086 33.852 220.099 33.6878 220.094 33.5237H220.088Z" fill="#0CB8B6"/>
<path opacity="0.2" d="M220.056 34.0127C220.247 33.1541 219.789 32.817 219.026 33.2558L84.8296 110.721C83.9915 111.267 83.3793 112.099 83.106 113.061L79.926 127.161L216.876 48.1064L220.056 34.0127Z" fill="black"/>
<path opacity="0.1" d="M83.7994 111.701C83.4836 112.103 83.2541 112.567 83.1252 113.062L79.9452 127.162L77.363 125.674L80.543 111.573C80.677 111.077 80.9083 110.612 81.2236 110.206L83.7994 111.701Z" fill="black"/>
<path opacity="0.4" d="M220.088 33.5168C220.024 33.0398 219.611 32.8808 219.019 33.2561L84.8232 110.715C84.4111 110.97 84.0543 111.305 83.7738 111.7L81.1917 110.206C81.4756 109.815 81.8319 109.483 82.241 109.226L216.437 31.7615C216.848 31.5454 217.303 31.4283 217.767 31.4195C218.23 31.4107 218.69 31.5103 219.108 31.7106C219.407 31.908 219.653 32.1761 219.824 32.4912C219.995 32.8062 220.085 33.1585 220.088 33.5168Z" fill="white"/>
<path d="M223.369 36.7092L223.236 35.5263C223.226 35.4684 223.213 35.4111 223.198 35.3545C223.2 35.3377 223.2 35.3205 223.198 35.3037C222.981 34.4478 222.459 33.701 221.729 33.2049C221.311 33.0026 220.851 32.9019 220.387 32.9107C219.923 32.9195 219.467 33.0377 219.057 33.2557L84.8613 110.721C84.4551 110.972 84.1338 111.34 83.9391 111.776C83.7405 112.183 83.6611 112.637 83.7102 113.086L86.2542 130.799L88.8363 132.294L225.735 53.2452L223.369 36.7092Z" fill="#0CB8B6"/>
<path opacity="0.1" d="M88.811 132.288L86.2288 130.793L83.6848 113.081C83.6357 112.631 83.7151 112.177 83.9138 111.771L86.5023 113.259C86.299 113.664 86.2173 114.119 86.267 114.569L88.811 132.288Z" fill="black"/>
<path opacity="0.4" d="M223.16 35.3037C223.123 35.1434 223.047 34.9949 222.938 34.8718C222.829 34.7488 222.691 34.655 222.537 34.5993C222.382 34.5435 222.216 34.5276 222.054 34.5529C221.891 34.5781 221.738 34.6439 221.608 34.744L87.4117 112.209C87.004 112.459 86.6822 112.827 86.4895 113.265L83.9519 111.776C84.1482 111.339 84.4689 110.97 84.8741 110.714L219.07 33.2557C219.48 33.0377 219.935 32.9195 220.4 32.9107C220.864 32.9019 221.323 33.0026 221.741 33.2049C222.454 33.7083 222.958 34.4546 223.16 35.3037Z" fill="white"/>
<path d="M124.433 217.728L122.831 206.465C122.828 206.318 122.786 206.175 122.708 206.051C122.63 205.926 122.519 205.826 122.388 205.76C122.256 205.695 122.11 205.666 121.964 205.678C121.817 205.691 121.677 205.742 121.559 205.829L109.862 212.583C109.547 212.785 109.294 213.07 109.131 213.406C108.969 213.743 108.902 214.119 108.94 214.491L110.537 225.78C110.537 225.928 110.578 226.072 110.655 226.198C110.733 226.323 110.844 226.425 110.976 226.491C111.108 226.557 111.256 226.585 111.403 226.572C111.55 226.558 111.691 226.505 111.809 226.416L123.505 219.662C123.826 219.459 124.083 219.171 124.247 218.829C124.412 218.487 124.476 218.105 124.433 217.728Z" fill="#0CB8B6"/>
<path d="M142.521 207.297L140.912 196.04C140.912 195.892 140.871 195.748 140.793 195.622C140.716 195.497 140.605 195.395 140.472 195.329C140.34 195.263 140.193 195.235 140.046 195.248C139.899 195.262 139.758 195.316 139.64 195.404L127.944 202.152C127.629 202.354 127.377 202.639 127.214 202.976C127.051 203.313 126.985 203.688 127.022 204.06L128.631 215.324C128.631 215.471 128.672 215.616 128.75 215.742C128.827 215.867 128.938 215.969 129.07 216.035C129.202 216.101 129.35 216.129 129.497 216.115C129.644 216.102 129.785 216.048 129.903 215.96L141.599 209.205C141.914 209.004 142.168 208.719 142.331 208.382C142.494 208.045 142.56 207.67 142.521 207.297Z" fill="#EBEBEB"/>
<path d="M160.609 196.867L159 185.609C159 185.462 158.959 185.317 158.881 185.191C158.804 185.066 158.692 184.964 158.56 184.898C158.428 184.832 158.281 184.804 158.133 184.818C157.986 184.831 157.846 184.885 157.728 184.973L146.025 191.734C145.711 191.936 145.458 192.221 145.295 192.558C145.133 192.895 145.066 193.27 145.103 193.642L146.712 204.906C146.712 205.053 146.753 205.198 146.831 205.324C146.909 205.449 147.02 205.551 147.152 205.617C147.284 205.683 147.432 205.711 147.579 205.697C147.726 205.684 147.866 205.63 147.984 205.542L159.68 198.787C159.999 198.586 160.255 198.299 160.42 197.96C160.584 197.62 160.649 197.242 160.609 196.867Z" fill="#EBEBEB"/>
<path d="M178.716 186.442L177.107 175.179C177.107 175.031 177.066 174.886 176.988 174.761C176.911 174.635 176.799 174.534 176.667 174.468C176.535 174.402 176.388 174.374 176.24 174.387C176.093 174.4 175.953 174.454 175.835 174.543L164.088 181.31C163.772 181.511 163.519 181.796 163.356 182.133C163.193 182.47 163.127 182.846 163.166 183.218L164.775 194.475C164.775 194.623 164.816 194.767 164.894 194.893C164.971 195.019 165.082 195.12 165.214 195.186C165.346 195.252 165.494 195.28 165.641 195.267C165.788 195.254 165.929 195.2 166.047 195.111L177.743 188.363C178.069 188.167 178.333 187.882 178.505 187.542C178.677 187.203 178.75 186.822 178.716 186.442Z" fill="#EBEBEB"/>
<path d="M196.785 176.013L195.176 164.724C195.176 164.576 195.134 164.431 195.057 164.306C194.979 164.18 194.868 164.079 194.736 164.013C194.604 163.947 194.456 163.919 194.309 163.932C194.162 163.945 194.022 163.999 193.904 164.088L182.208 170.842C181.892 171.043 181.638 171.328 181.476 171.665C181.313 172.002 181.247 172.378 181.285 172.75L182.894 184.007C182.894 184.155 182.936 184.3 183.013 184.425C183.091 184.551 183.202 184.652 183.334 184.718C183.466 184.784 183.614 184.812 183.761 184.799C183.908 184.786 184.048 184.732 184.166 184.643L195.888 177.908C196.196 177.704 196.442 177.419 196.6 177.085C196.758 176.751 196.822 176.38 196.785 176.013Z" fill="#EBEBEB"/>
<path d="M214.873 165.582L213.264 154.318C213.264 154.171 213.222 154.026 213.145 153.9C213.067 153.775 212.956 153.673 212.824 153.607C212.692 153.541 212.544 153.513 212.397 153.527C212.25 153.54 212.11 153.594 211.992 153.682L200.295 160.437C199.98 160.638 199.726 160.923 199.563 161.26C199.401 161.597 199.335 161.972 199.373 162.345L200.976 173.627C200.976 173.775 201.017 173.92 201.095 174.045C201.172 174.171 201.283 174.272 201.415 174.338C201.547 174.404 201.695 174.432 201.842 174.419C201.989 174.406 202.13 174.352 202.248 174.263L213.944 167.509C214.263 167.307 214.52 167.019 214.684 166.678C214.848 166.338 214.913 165.958 214.873 165.582Z" fill="#EBEBEB"/>
<path d="M232.96 155.184L231.351 143.92C231.351 143.772 231.31 143.628 231.233 143.502C231.155 143.376 231.044 143.275 230.912 143.209C230.78 143.143 230.632 143.115 230.485 143.128C230.338 143.141 230.197 143.195 230.079 143.284L218.383 150.038C218.068 150.24 217.815 150.525 217.652 150.862C217.489 151.199 217.423 151.574 217.461 151.946L219.064 163.21C219.066 163.357 219.109 163.5 219.187 163.624C219.265 163.748 219.375 163.849 219.507 163.914C219.638 163.98 219.785 164.008 219.931 163.996C220.077 163.984 220.217 163.932 220.336 163.846L232.032 157.092C232.348 156.891 232.602 156.606 232.766 156.269C232.93 155.932 232.998 155.556 232.96 155.184Z" fill="#EBEBEB"/>
<path d="M121.291 195.69L119.682 184.439C119.68 184.293 119.638 184.149 119.559 184.025C119.481 183.901 119.371 183.801 119.239 183.735C119.108 183.669 118.962 183.641 118.815 183.653C118.669 183.665 118.529 183.717 118.41 183.803L106.714 190.558C106.399 190.759 106.146 191.044 105.983 191.381C105.82 191.718 105.754 192.093 105.792 192.466L107.395 203.729C107.397 203.876 107.44 204.019 107.518 204.143C107.596 204.267 107.706 204.368 107.838 204.433C107.969 204.499 108.116 204.527 108.262 204.515C108.408 204.503 108.548 204.451 108.667 204.365L120.363 197.611C120.679 197.407 120.933 197.12 121.097 196.781C121.261 196.442 121.328 196.065 121.291 195.69Z" fill="#0CB8B6"/>
<path d="M139.379 185.26L137.77 173.997C137.768 173.85 137.725 173.707 137.647 173.583C137.569 173.459 137.459 173.358 137.327 173.293C137.196 173.227 137.049 173.199 136.903 173.211C136.757 173.223 136.617 173.275 136.498 173.361L124.802 180.115C124.487 180.317 124.234 180.602 124.071 180.939C123.908 181.276 123.842 181.651 123.88 182.023L125.483 193.287C125.485 193.433 125.528 193.577 125.606 193.701C125.684 193.825 125.794 193.925 125.926 193.991C126.057 194.057 126.203 194.085 126.35 194.073C126.496 194.061 126.636 194.009 126.755 193.923L138.451 187.168C138.765 186.966 139.018 186.68 139.181 186.344C139.345 186.008 139.414 185.633 139.379 185.26Z" fill="#EBEBEB"/>
<path d="M157.467 174.83L155.858 163.566C155.856 163.419 155.813 163.276 155.735 163.152C155.657 163.028 155.546 162.928 155.415 162.862C155.284 162.796 155.137 162.768 154.991 162.78C154.845 162.792 154.705 162.844 154.586 162.93L142.89 169.684C142.575 169.886 142.322 170.171 142.159 170.508C141.996 170.845 141.93 171.22 141.968 171.592L143.571 182.856C143.573 183.003 143.615 183.146 143.693 183.27C143.772 183.394 143.882 183.495 144.013 183.56C144.145 183.626 144.291 183.654 144.438 183.642C144.584 183.63 144.724 183.578 144.843 183.492L156.539 176.738C156.853 176.535 157.106 176.25 157.269 175.913C157.433 175.577 157.501 175.202 157.467 174.83Z" fill="#EBEBEB"/>
<path d="M175.536 164.399L173.927 153.136C173.925 152.989 173.882 152.846 173.804 152.721C173.726 152.597 173.615 152.497 173.484 152.431C173.353 152.366 173.206 152.337 173.06 152.349C172.914 152.361 172.774 152.413 172.655 152.5L160.972 159.267C160.657 159.469 160.404 159.754 160.241 160.091C160.079 160.427 160.012 160.802 160.049 161.175L161.652 172.438C161.654 172.585 161.697 172.728 161.775 172.852C161.853 172.976 161.964 173.077 162.095 173.142C162.226 173.208 162.373 173.236 162.519 173.224C162.665 173.212 162.805 173.16 162.924 173.074L174.62 166.32C174.935 166.115 175.186 165.827 175.348 165.488C175.51 165.149 175.575 164.772 175.536 164.399Z" fill="#EBEBEB"/>
<path d="M193.643 153.968L192.034 142.711C192.034 142.563 191.993 142.419 191.915 142.293C191.837 142.167 191.726 142.066 191.594 142C191.462 141.934 191.314 141.906 191.167 141.919C191.02 141.932 190.88 141.986 190.762 142.075L179.059 148.823C178.745 149.025 178.492 149.31 178.329 149.647C178.167 149.984 178.1 150.359 178.137 150.731L179.74 161.995C179.742 162.141 179.785 162.284 179.863 162.409C179.941 162.533 180.052 162.633 180.183 162.699C180.314 162.764 180.461 162.793 180.607 162.781C180.753 162.769 180.893 162.717 181.012 162.631L192.708 155.864C193.022 155.663 193.275 155.38 193.44 155.046C193.605 154.712 193.675 154.339 193.643 153.968Z" fill="#EBEBEB"/>
<path d="M211.731 143.538L210.122 132.287C210.122 132.14 210.081 131.995 210.003 131.869C209.925 131.744 209.814 131.642 209.682 131.576C209.55 131.51 209.402 131.482 209.255 131.495C209.108 131.509 208.968 131.563 208.85 131.651L197.16 138.412C196.844 138.613 196.591 138.898 196.428 139.235C196.265 139.572 196.199 139.948 196.238 140.32L197.84 151.577C197.843 151.724 197.885 151.867 197.963 151.991C198.041 152.115 198.152 152.216 198.283 152.281C198.415 152.347 198.561 152.375 198.707 152.363C198.854 152.351 198.994 152.299 199.112 152.213L210.809 145.459C211.124 145.255 211.377 144.967 211.54 144.628C211.703 144.289 211.769 143.912 211.731 143.538Z" fill="#EBEBEB"/>
<path d="M229.819 133.114L228.21 121.851C228.21 121.703 228.168 121.558 228.091 121.433C228.013 121.307 227.902 121.206 227.77 121.14C227.638 121.074 227.49 121.046 227.343 121.059C227.196 121.072 227.056 121.126 226.938 121.215L215.235 127.969C214.921 128.171 214.669 128.457 214.508 128.794C214.346 129.13 214.281 129.505 214.319 129.877L215.922 141.134C215.924 141.281 215.967 141.424 216.045 141.548C216.123 141.672 216.234 141.773 216.365 141.838C216.496 141.904 216.643 141.932 216.789 141.92C216.935 141.908 217.075 141.856 217.194 141.77L228.89 135.022C229.204 134.819 229.456 134.534 229.62 134.197C229.783 133.861 229.852 133.487 229.819 133.114Z" fill="#EBEBEB"/>
<path d="M118.143 173.628L116.541 162.364C116.538 162.217 116.496 162.074 116.418 161.95C116.34 161.826 116.229 161.725 116.098 161.66C115.967 161.594 115.82 161.566 115.674 161.578C115.527 161.59 115.387 161.642 115.269 161.728L103.56 168.54C103.246 168.743 102.994 169.028 102.832 169.365C102.669 169.701 102.602 170.076 102.638 170.448L104.247 181.705C104.247 181.852 104.288 181.997 104.366 182.123C104.443 182.248 104.554 182.35 104.686 182.416C104.818 182.482 104.966 182.51 105.113 182.497C105.26 182.483 105.401 182.429 105.519 182.341L117.221 175.536C117.536 175.333 117.788 175.048 117.951 174.712C118.114 174.375 118.18 174 118.143 173.628Z" fill="#0CB8B6"/>
<path d="M136.231 163.222L134.628 151.959C134.626 151.812 134.583 151.669 134.505 151.545C134.427 151.42 134.317 151.32 134.185 151.255C134.054 151.189 133.908 151.161 133.761 151.173C133.615 151.185 133.475 151.237 133.356 151.323L121.66 158.077C121.347 158.28 121.095 158.566 120.932 158.902C120.77 159.238 120.702 159.613 120.738 159.985L122.347 171.249C122.349 171.395 122.392 171.539 122.47 171.663C122.548 171.787 122.659 171.887 122.79 171.953C122.921 172.018 123.068 172.047 123.214 172.035C123.36 172.023 123.5 171.971 123.619 171.885L135.315 165.13C135.629 164.928 135.881 164.642 136.043 164.306C136.204 163.969 136.269 163.594 136.231 163.222Z" fill="#EBEBEB"/>
<path d="M154.319 152.793L152.716 141.529C152.714 141.382 152.672 141.239 152.593 141.115C152.515 140.991 152.405 140.89 152.273 140.825C152.142 140.759 151.996 140.731 151.849 140.743C151.703 140.755 151.563 140.807 151.444 140.893L139.748 147.647C139.435 147.851 139.184 148.137 139.021 148.473C138.859 148.809 138.791 149.183 138.826 149.555L140.435 160.819C140.437 160.966 140.48 161.109 140.558 161.233C140.636 161.357 140.747 161.458 140.878 161.523C141.009 161.589 141.156 161.617 141.302 161.605C141.448 161.593 141.588 161.541 141.707 161.455L153.403 154.701C153.717 154.498 153.969 154.213 154.131 153.876C154.292 153.539 154.358 153.164 154.319 152.793Z" fill="#EBEBEB"/>
<path d="M172.407 142.362L170.804 131.098C170.802 130.952 170.759 130.808 170.681 130.684C170.603 130.56 170.492 130.46 170.361 130.394C170.23 130.329 170.083 130.3 169.937 130.312C169.791 130.324 169.651 130.376 169.532 130.462L157.836 137.217C157.523 137.42 157.271 137.706 157.109 138.042C156.946 138.378 156.879 138.753 156.914 139.125L158.523 150.388C158.525 150.535 158.568 150.678 158.646 150.802C158.724 150.927 158.834 151.027 158.966 151.093C159.097 151.158 159.244 151.186 159.39 151.174C159.536 151.162 159.676 151.11 159.795 151.024L171.491 144.27C171.805 144.068 172.057 143.782 172.218 143.445C172.38 143.109 172.445 142.734 172.407 142.362Z" fill="#EBEBEB"/>
<path d="M190.495 131.931L188.892 120.668C188.89 120.521 188.847 120.378 188.769 120.254C188.691 120.129 188.58 120.029 188.449 119.964C188.318 119.898 188.171 119.87 188.025 119.882C187.879 119.894 187.739 119.946 187.62 120.032L175.924 126.786C175.611 126.99 175.359 127.275 175.197 127.611C175.034 127.948 174.967 128.322 175.002 128.694L176.611 139.958C176.613 140.104 176.656 140.248 176.734 140.372C176.812 140.496 176.922 140.596 177.054 140.662C177.185 140.727 177.332 140.756 177.478 140.744C177.624 140.732 177.764 140.68 177.883 140.594L189.579 133.839C189.893 133.637 190.145 133.351 190.306 133.015C190.468 132.678 190.533 132.303 190.495 131.931Z" fill="#EBEBEB"/>
<path d="M208.608 121.475L207.005 110.212C207.003 110.065 206.96 109.922 206.882 109.798C206.804 109.673 206.694 109.573 206.562 109.507C206.431 109.442 206.284 109.414 206.138 109.426C205.992 109.438 205.852 109.49 205.733 109.576L193.98 116.387C193.667 116.591 193.415 116.876 193.253 117.213C193.09 117.549 193.023 117.923 193.058 118.295L194.667 129.559C194.669 129.705 194.712 129.849 194.79 129.973C194.868 130.097 194.979 130.197 195.11 130.263C195.241 130.329 195.388 130.357 195.534 130.345C195.68 130.333 195.82 130.281 195.939 130.195L207.66 123.383C207.981 123.185 208.239 122.902 208.407 122.565C208.574 122.227 208.644 121.85 208.608 121.475Z" fill="#EBEBEB"/>
<path d="M226.67 111.07L225.068 99.8133C225.065 99.6666 225.023 99.5233 224.945 99.3992C224.867 99.275 224.756 99.1746 224.625 99.109C224.493 99.0434 224.347 99.0151 224.201 99.0271C224.054 99.0391 223.914 99.0911 223.796 99.1773L212.099 105.925C211.786 106.128 211.534 106.414 211.371 106.75C211.209 107.087 211.142 107.461 211.177 107.833L212.786 119.097C212.789 119.243 212.831 119.387 212.909 119.511C212.987 119.635 213.098 119.735 213.229 119.801C213.36 119.867 213.507 119.895 213.653 119.883C213.8 119.871 213.94 119.819 214.058 119.733L225.78 112.966C226.088 112.762 226.333 112.477 226.49 112.143C226.647 111.809 226.71 111.438 226.67 111.07Z" fill="#EBEBEB"/>
<path d="M115.002 151.609L113.392 140.352C113.392 140.204 113.351 140.059 113.274 139.934C113.196 139.808 113.085 139.707 112.953 139.641C112.821 139.575 112.673 139.547 112.526 139.56C112.379 139.573 112.239 139.627 112.12 139.716L100.424 146.464C100.11 146.666 99.8571 146.951 99.6944 147.288C99.5316 147.624 99.4651 147.999 99.5022 148.372L101.124 159.635C101.124 159.783 101.165 159.928 101.243 160.053C101.32 160.179 101.431 160.28 101.563 160.346C101.695 160.412 101.843 160.44 101.99 160.427C102.137 160.414 102.278 160.36 102.396 160.271L114.092 153.517C114.405 153.314 114.656 153.028 114.817 152.692C114.977 152.355 115.041 151.98 115.002 151.609Z" fill="#0CB8B6"/>
<path d="M133.089 141.192L131.48 129.935C131.48 129.787 131.439 129.642 131.362 129.517C131.284 129.391 131.173 129.29 131.041 129.224C130.909 129.158 130.761 129.13 130.614 129.143C130.467 129.156 130.326 129.21 130.208 129.299L118.512 136.053C118.197 136.254 117.943 136.539 117.78 136.876C117.617 137.213 117.552 137.589 117.59 137.961L119.199 149.218C119.199 149.366 119.24 149.511 119.318 149.636C119.395 149.762 119.507 149.863 119.639 149.929C119.771 149.995 119.918 150.023 120.066 150.01C120.213 149.997 120.353 149.943 120.471 149.854L132.167 143.1C132.483 142.899 132.736 142.614 132.899 142.277C133.062 141.94 133.128 141.564 133.089 141.192Z" fill="#EBEBEB"/>
<path d="M151.177 130.755L149.568 119.491C149.568 119.344 149.527 119.199 149.449 119.073C149.372 118.948 149.261 118.846 149.128 118.78C148.996 118.714 148.849 118.686 148.702 118.7C148.555 118.713 148.414 118.767 148.296 118.855L136.6 125.61C136.284 125.811 136.031 126.096 135.868 126.433C135.705 126.77 135.639 127.145 135.678 127.518L137.287 138.775C137.287 138.922 137.328 139.067 137.406 139.193C137.483 139.318 137.594 139.42 137.726 139.486C137.858 139.552 138.006 139.58 138.153 139.567C138.3 139.553 138.441 139.499 138.559 139.411L150.255 132.663C150.569 132.461 150.822 132.176 150.985 131.839C151.148 131.502 151.214 131.127 151.177 130.755Z" fill="#EBEBEB"/>
<path d="M169.265 120.324L167.656 109.061C167.656 108.913 167.615 108.768 167.537 108.643C167.459 108.517 167.348 108.416 167.216 108.35C167.084 108.284 166.936 108.256 166.789 108.269C166.642 108.282 166.502 108.336 166.384 108.425L154.688 115.179C154.372 115.38 154.119 115.665 153.956 116.002C153.793 116.339 153.727 116.715 153.766 117.087L155.368 128.351C155.371 128.497 155.413 128.64 155.491 128.765C155.569 128.889 155.68 128.989 155.811 129.055C155.942 129.12 156.089 129.149 156.235 129.137C156.382 129.125 156.522 129.073 156.64 128.987L168.336 122.232C168.652 122.031 168.906 121.746 169.07 121.409C169.234 121.072 169.301 120.697 169.265 120.324Z" fill="#EBEBEB"/>
<path d="M187.353 109.894L185.744 98.6309C185.744 98.4833 185.703 98.3386 185.625 98.213C185.547 98.0874 185.436 97.9859 185.304 97.9199C185.172 97.8538 185.024 97.8259 184.877 97.8392C184.73 97.8524 184.59 97.9064 184.472 97.9949L172.776 104.749C172.46 104.95 172.207 105.235 172.044 105.572C171.881 105.909 171.815 106.285 171.853 106.657L173.456 117.921C173.459 118.067 173.501 118.211 173.579 118.335C173.657 118.459 173.768 118.559 173.899 118.625C174.03 118.691 174.177 118.719 174.323 118.707C174.469 118.695 174.61 118.643 174.728 118.557L186.424 111.802C186.741 111.602 186.995 111.317 187.159 110.98C187.323 110.643 187.39 110.267 187.353 109.894Z" fill="#EBEBEB"/>
<path d="M205.428 99.4638L203.819 88.2003C203.819 88.0526 203.778 87.9079 203.7 87.7823C203.622 87.6567 203.511 87.5552 203.379 87.4892C203.247 87.4232 203.099 87.3952 202.952 87.4085C202.805 87.4217 202.665 87.4757 202.547 87.5643L190.851 94.3186C190.536 94.5202 190.283 94.8053 190.12 95.1421C189.957 95.479 189.891 95.8544 189.929 96.2266L191.538 107.484C191.54 107.63 191.582 107.774 191.661 107.898C191.739 108.022 191.849 108.122 191.981 108.188C192.112 108.254 192.258 108.282 192.405 108.27C192.551 108.258 192.691 108.206 192.81 108.12L204.506 101.365C204.82 101.164 205.072 100.88 205.235 100.545C205.398 100.209 205.464 99.835 205.428 99.4638Z" fill="#EBEBEB"/>
<path d="M223.528 89.04L221.919 77.7764C221.919 77.6288 221.878 77.4841 221.801 77.3585C221.723 77.2329 221.612 77.1314 221.48 77.0654C221.348 76.9993 221.2 76.9714 221.053 76.9847C220.906 76.9979 220.765 77.0519 220.647 77.1404L208.951 83.8948C208.636 84.0964 208.383 84.3815 208.22 84.7183C208.058 85.0552 207.991 85.4306 208.029 85.8028L209.632 97.0663C209.634 97.213 209.677 97.3562 209.755 97.4804C209.833 97.6046 209.944 97.705 210.075 97.7706C210.206 97.8362 210.353 97.8645 210.499 97.8525C210.645 97.8404 210.785 97.7885 210.904 97.7023L222.6 90.948C222.916 90.7472 223.171 90.4625 223.335 90.1256C223.498 89.7887 223.566 89.4128 223.528 89.04Z" fill="#EBEBEB"/>
<path d="M112.222 131.702L111.815 128.827C111.815 128.68 111.774 128.535 111.696 128.409C111.619 128.284 111.508 128.182 111.376 128.116C111.244 128.05 111.096 128.022 110.949 128.035C110.802 128.049 110.661 128.103 110.543 128.191L98.8408 134.958C98.5256 135.16 98.2726 135.445 98.1097 135.782C97.9469 136.119 97.8808 136.494 97.9186 136.866L98.3192 139.741C98.3215 139.888 98.364 140.031 98.4421 140.155C98.5202 140.279 98.6309 140.38 98.7621 140.445C98.8933 140.511 99.04 140.539 99.1862 140.527C99.3324 140.515 99.4725 140.463 99.5912 140.377L111.3 133.597C111.612 133.395 111.862 133.112 112.025 132.778C112.187 132.444 112.255 132.072 112.222 131.702Z" fill="#E6E6E6"/>
<path d="M130.31 121.272L129.903 118.398C129.903 118.25 129.862 118.105 129.784 117.98C129.706 117.854 129.595 117.752 129.463 117.686C129.331 117.62 129.183 117.592 129.036 117.606C128.889 117.619 128.749 117.673 128.631 117.762L116.928 124.529C116.613 124.73 116.36 125.015 116.197 125.352C116.035 125.689 115.968 126.064 116.006 126.437L116.407 129.311C116.409 129.458 116.452 129.601 116.53 129.725C116.608 129.85 116.719 129.95 116.85 130.016C116.981 130.081 117.128 130.109 117.274 130.097C117.42 130.085 117.56 130.033 117.679 129.947L129.381 123.193C129.698 122.99 129.953 122.703 130.116 122.364C130.28 122.025 130.347 121.647 130.31 121.272Z" fill="#E6E6E6"/>
<path d="M148.398 110.841L147.991 107.967C147.988 107.82 147.946 107.677 147.868 107.552C147.79 107.428 147.679 107.328 147.548 107.262C147.417 107.197 147.27 107.168 147.124 107.18C146.978 107.192 146.837 107.244 146.719 107.331L135.016 114.098C134.701 114.299 134.448 114.584 134.285 114.921C134.122 115.258 134.056 115.633 134.094 116.006L134.495 118.88C134.495 119.028 134.536 119.173 134.614 119.298C134.691 119.424 134.802 119.525 134.934 119.591C135.066 119.657 135.214 119.685 135.361 119.672C135.508 119.659 135.649 119.605 135.767 119.516L147.469 112.762C147.786 112.559 148.04 112.272 148.204 111.933C148.368 111.594 148.435 111.216 148.398 110.841Z" fill="#E6E6E6"/>
<path d="M166.486 100.417L166.079 97.5359C166.076 97.3892 166.034 97.246 165.956 97.1218C165.878 96.9976 165.767 96.8973 165.636 96.8317C165.504 96.7661 165.358 96.7377 165.212 96.7498C165.065 96.7618 164.925 96.8137 164.807 96.8999L153.104 103.667C152.789 103.869 152.536 104.154 152.373 104.49C152.21 104.827 152.144 105.203 152.182 105.575L152.583 108.45C152.583 108.597 152.624 108.742 152.701 108.868C152.779 108.993 152.89 109.095 153.022 109.161C153.154 109.227 153.302 109.255 153.449 109.241C153.596 109.228 153.737 109.174 153.855 109.086L165.557 102.338C165.873 102.133 166.126 101.846 166.29 101.507C166.454 101.169 166.522 100.791 166.486 100.417Z" fill="#E6E6E6"/>
<path d="M184.573 89.9873L184.166 87.1062C184.164 86.9595 184.122 86.8163 184.043 86.6921C183.965 86.5679 183.855 86.4676 183.723 86.402C183.592 86.3364 183.446 86.3081 183.299 86.3201C183.153 86.3321 183.013 86.3841 182.894 86.4702L171.192 93.2373C170.877 93.4394 170.625 93.7246 170.462 94.0613C170.299 94.398 170.233 94.7731 170.27 95.1453L170.67 98.02C170.67 98.1676 170.712 98.3123 170.789 98.4379C170.867 98.5635 170.978 98.665 171.11 98.731C171.242 98.7971 171.39 98.825 171.537 98.8118C171.684 98.7985 171.824 98.7446 171.942 98.656L183.645 91.908C183.961 91.7036 184.214 91.4164 184.378 91.0777C184.542 90.739 184.609 90.3618 184.573 89.9873Z" fill="#E6E6E6"/>
<path d="M202.661 79.5574L202.254 76.6827C202.254 76.5351 202.213 76.3903 202.136 76.2647C202.058 76.1391 201.947 76.0377 201.815 75.9716C201.683 75.9056 201.535 75.8776 201.388 75.8909C201.241 75.9042 201.1 75.9581 200.982 76.0467L189.28 82.8074C188.965 83.0095 188.713 83.2947 188.55 83.6314C188.387 83.9681 188.321 84.3432 188.358 84.7154L188.758 87.5965C188.761 87.7431 188.803 87.8864 188.881 88.0105C188.959 88.1347 189.07 88.2351 189.201 88.3007C189.332 88.3663 189.479 88.3946 189.625 88.3826C189.772 88.3706 189.912 88.3186 190.03 88.2325L201.733 81.4781C202.049 81.2742 202.303 80.9871 202.467 80.6482C202.631 80.3094 202.698 79.932 202.661 79.5574Z" fill="#E6E6E6"/>
<path d="M220.743 69.1268L220.342 66.252C220.342 66.1044 220.301 65.9597 220.223 65.8341C220.146 65.7085 220.035 65.607 219.903 65.541C219.771 65.4749 219.623 65.447 219.476 65.4602C219.329 65.4735 219.188 65.5274 219.07 65.616L207.374 72.3704C207.058 72.5714 206.805 72.8564 206.642 73.1934C206.479 73.5304 206.413 73.9061 206.452 74.2784L206.853 77.1531C206.855 77.2997 206.897 77.443 206.975 77.5672C207.054 77.6913 207.164 77.7917 207.295 77.8573C207.427 77.9229 207.573 77.9512 207.72 77.9392C207.866 77.9272 208.006 77.8752 208.125 77.7891L219.827 71.0348C220.14 70.8318 220.392 70.5463 220.553 70.2096C220.715 69.873 220.781 69.4983 220.743 69.1268Z" fill="#E6E6E6"/>
<path opacity="0.2" d="M98.5799 114.721C98.5223 113.881 98.6958 113.041 99.0814 112.292C99.4671 111.543 100.05 110.914 100.768 110.473C102.192 109.652 103.522 110.218 103.744 111.745C103.803 112.586 103.63 113.427 103.243 114.177C102.856 114.926 102.27 115.554 101.55 115.993C100.132 116.814 98.8025 116.248 98.5799 114.721Z" fill="black"/>
<path opacity="0.2" d="M116.687 104.303C116.628 103.463 116.801 102.622 117.186 101.873C117.572 101.124 118.156 100.495 118.875 100.055C120.299 99.2281 121.629 99.7941 121.851 101.327C121.91 102.167 121.736 103.007 121.349 103.756C120.962 104.504 120.377 105.131 119.657 105.569C118.232 106.364 116.903 105.798 116.687 104.303Z" fill="black"/>
<path opacity="0.2" d="M134.756 93.8414C134.697 93.0009 134.87 92.1603 135.255 91.4112C135.641 90.6621 136.225 90.0332 136.944 89.593C138.368 88.7662 139.704 89.3322 139.92 90.865C139.978 91.7046 139.805 92.5441 139.42 93.2921C139.034 94.0401 138.45 94.6679 137.732 95.1071C136.308 95.9275 134.972 95.3615 134.756 93.8414Z" fill="black"/>
<path opacity="0.2" d="M170.919 72.9614C170.86 72.1208 171.032 71.2802 171.418 70.5311C171.804 69.782 172.388 69.1531 173.106 68.7129C174.531 67.8925 175.86 68.4585 176.076 69.9849C176.138 70.8258 175.967 71.6675 175.581 72.4172C175.195 73.1668 174.609 73.7953 173.889 74.2334C172.464 75.0475 171.135 74.4878 170.919 72.9614Z" fill="black"/>
<path opacity="0.2" d="M189.019 62.5182C188.959 61.6775 189.131 60.8363 189.517 60.0869C189.903 59.3376 190.487 58.7089 191.207 58.2697C192.632 57.4429 193.961 58.009 194.183 59.5417C194.242 60.383 194.069 61.2243 193.682 61.9736C193.295 62.7229 192.709 63.3514 191.989 63.7902C190.565 64.6043 189.235 64.0382 189.019 62.5182Z" fill="black"/>
<path opacity="0.2" d="M207.088 52.0817C207.029 51.2411 207.202 50.4005 207.588 49.6514C207.973 48.9023 208.557 48.2734 209.276 47.8332C210.7 47.0064 212.036 47.5724 212.252 49.1052C212.311 49.9448 212.138 50.7843 211.752 51.5324C211.366 52.2804 210.782 52.9082 210.064 53.3473C208.608 54.1678 207.336 53.6017 207.088 52.0817Z" fill="black"/>
<path d="M96.71 97.5372C94.802 96.4242 92.9321 96.2652 91.5075 97.0857C90.0828 97.9061 89.2942 99.5852 89.2942 101.818C89.3066 102.862 89.4607 103.899 89.7521 104.902L90.8842 104.266C90.6809 103.47 90.5742 102.652 90.5662 101.83C90.5662 100.075 91.1259 98.7838 92.1435 98.1987C92.561 97.9655 93.0328 97.847 93.5109 97.8552C94.4129 97.8983 95.2888 98.172 96.0549 98.6502C99.4384 100.609 102.192 105.379 102.192 109.284C102.194 109.563 102.179 109.841 102.148 110.117C102.132 110.671 101.986 111.213 101.72 111.7C101.455 112.186 101.079 112.603 100.621 112.916C100.038 113.231 99.3656 113.338 98.7134 113.221C98.585 113.632 98.5311 114.063 98.5544 114.493C98.7921 114.531 99.0323 114.55 99.273 114.55C99.9735 114.559 100.663 114.379 101.27 114.029C101.838 113.673 102.319 113.194 102.679 112.629C103.039 112.063 103.268 111.425 103.35 110.76C103.435 110.277 103.478 109.787 103.477 109.297C103.483 104.94 100.443 99.6933 96.71 97.5372Z" fill="#F5F5F5"/>
<path d="M114.811 87.0939C112.903 85.9809 111.033 85.8219 109.608 86.6423C108.183 87.4628 107.395 89.1418 107.395 91.3742C107.407 92.4183 107.561 93.456 107.853 94.4588L108.985 93.8228C108.782 93.0265 108.675 92.2087 108.667 91.3869C108.667 89.6315 109.226 88.3404 110.244 87.7553C110.662 87.5222 111.133 87.4037 111.611 87.4119C112.514 87.4549 113.389 87.7286 114.155 88.2069C117.539 90.1658 120.293 94.9358 120.293 98.8408C120.295 99.1192 120.28 99.3974 120.248 99.674C120.233 100.228 120.086 100.77 119.821 101.256C119.556 101.743 119.179 102.159 118.722 102.472C118.139 102.787 117.466 102.895 116.814 102.778C116.686 103.189 116.632 103.62 116.655 104.05C116.893 104.087 117.133 104.107 117.374 104.107C118.074 104.116 118.764 103.935 119.371 103.585C119.938 103.229 120.42 102.751 120.78 102.186C121.139 101.62 121.368 100.982 121.45 100.316C121.536 99.8335 121.579 99.3439 121.578 98.8535C121.584 94.516 118.544 89.2499 114.811 87.0939Z" fill="#F5F5F5"/>
<path d="M132.879 76.6574C130.971 75.5444 129.102 75.3854 127.677 76.2058C126.252 77.0262 125.464 78.7053 125.464 80.9376C125.476 81.9818 125.63 83.0195 125.922 84.0222L127.054 83.3862C126.85 82.59 126.744 81.7721 126.736 80.9504C126.736 79.195 127.295 77.9039 128.313 77.3188C128.73 77.0857 129.202 76.9672 129.68 76.9754C130.582 77.0184 131.458 77.2921 132.224 77.7704C135.608 79.7292 138.362 84.4992 138.362 88.4043C138.364 88.6826 138.349 88.9609 138.317 89.2374C138.302 89.7912 138.155 90.3335 137.89 90.8199C137.625 91.3062 137.248 91.7229 136.791 92.0358C136.208 92.3508 135.535 92.4584 134.883 92.3411C134.754 92.7523 134.701 93.183 134.724 93.6131C134.961 93.6509 135.202 93.67 135.442 93.6704C136.143 93.6791 136.833 93.4989 137.44 93.1488C138.007 92.7928 138.489 92.3146 138.848 91.7491C139.208 91.1836 139.437 90.545 139.519 89.8798C139.605 89.3969 139.647 88.9074 139.646 88.417C139.653 84.0795 136.613 78.8134 132.879 76.6574Z" fill="#F5F5F5"/>
<path d="M169.049 55.8087C167.141 54.6957 165.271 54.5367 163.846 55.3572C162.422 56.1776 161.633 57.8566 161.633 60.089C161.645 61.1332 161.8 62.1709 162.091 63.1736L163.223 62.5376C163.02 61.7413 162.913 60.9235 162.905 60.1017C162.905 58.3464 163.465 57.0553 164.482 56.4702C164.9 56.237 165.372 56.1185 165.85 56.1267C166.752 56.1698 167.628 56.4435 168.394 56.9217C171.777 58.8806 174.531 63.6506 174.531 67.5556C174.533 67.834 174.518 68.1122 174.487 68.3888C174.471 68.9426 174.325 69.4849 174.059 69.9712C173.794 70.4576 173.417 70.8743 172.96 71.1872C172.377 71.5021 171.704 71.6098 171.052 71.4925C170.924 71.9036 170.87 72.3344 170.893 72.7645C171.131 72.8022 171.371 72.8214 171.612 72.8217C172.312 72.8305 173.002 72.6503 173.609 72.3002C174.177 71.9441 174.658 71.4659 175.018 70.9004C175.378 70.3349 175.607 69.6964 175.689 69.0312C175.774 68.5483 175.817 68.0588 175.816 67.5684C175.822 63.2308 172.782 57.9648 169.049 55.8087Z" fill="#F5F5F5"/>
<path d="M187.149 45.3595C185.241 44.2465 183.371 44.0875 181.947 44.9079C180.522 45.7284 179.733 47.4074 179.733 49.6398C179.746 50.684 179.9 51.7216 180.191 52.7244L181.323 52.0884C181.12 51.2921 181.013 50.4743 181.005 49.6525C181.005 47.8971 181.565 46.6061 182.583 46.0209C183 45.7878 183.472 45.6693 183.95 45.6775C184.852 45.7205 185.728 45.9943 186.494 46.4725C189.878 48.4314 192.631 53.2014 192.631 57.1064C192.633 57.3848 192.618 57.663 192.587 57.9396C192.571 58.4934 192.425 59.0356 192.16 59.522C191.894 60.0084 191.518 60.4251 191.061 60.738C190.477 61.0529 189.805 61.1605 189.153 61.0433C189.024 61.4544 188.97 61.8852 188.994 62.3153C189.231 62.353 189.472 62.3722 189.712 62.3725C190.413 62.3812 191.103 62.2011 191.709 61.851C192.277 61.4949 192.758 61.0167 193.118 60.4512C193.478 59.8857 193.707 59.2472 193.789 58.5819C193.875 58.0991 193.917 57.6096 193.916 57.1191C193.923 52.788 190.882 47.5155 187.149 45.3595Z" fill="#F5F5F5"/>
<path d="M205.218 34.922C203.31 33.809 201.44 33.65 200.016 34.4704C198.591 35.2909 197.796 36.9699 197.796 39.2023C197.808 40.2465 197.962 41.2841 198.254 42.2869L199.386 41.6509C199.183 40.8546 199.076 40.0368 199.068 39.215C199.068 37.4596 199.628 36.1686 200.645 35.5834C201.063 35.3503 201.534 35.2318 202.013 35.24C202.915 35.283 203.791 35.5568 204.557 36.035C207.94 37.9939 210.694 42.7639 210.694 46.6689C210.696 46.9473 210.681 47.2255 210.649 47.5021C210.634 48.0559 210.487 48.5981 210.222 49.0845C209.957 49.5709 209.58 49.9876 209.123 50.3005C208.54 50.6154 207.867 50.723 207.215 50.6058C207.087 51.0169 207.033 51.4477 207.056 51.8778C207.294 51.9155 207.534 51.9347 207.775 51.935C208.475 51.9437 209.165 51.7636 209.772 51.4135C210.34 51.0574 210.821 50.5792 211.181 50.0137C211.54 49.4482 211.77 48.8097 211.852 48.1444C211.937 47.6616 211.98 47.1721 211.979 46.6816C211.991 42.3441 208.951 37.078 205.218 34.922Z" fill="#F5F5F5"/>
<path d="M224.012 200.34L219.738 207.762C219.457 208.226 219.372 208.783 219.501 209.309C219.631 209.836 219.964 210.289 220.428 210.57C220.892 210.851 221.448 210.936 221.975 210.807C222.502 210.677 222.955 210.344 223.236 209.88L227.535 202.413C227.949 201.701 227.504 200.664 226.537 200.105C225.57 199.545 224.425 199.647 224.012 200.34Z" fill="#455A64"/>
<path d="M258.025 187.27L265.447 191.544C265.676 191.685 265.93 191.78 266.195 191.822C266.46 191.864 266.73 191.853 266.991 191.789C267.252 191.726 267.497 191.611 267.713 191.451C267.929 191.292 268.111 191.091 268.248 190.861C268.386 190.631 268.476 190.375 268.514 190.11C268.552 189.844 268.537 189.573 268.469 189.314C268.401 189.054 268.283 188.811 268.12 188.597C267.957 188.384 267.753 188.205 267.521 188.071L260.054 183.804C259.342 183.39 258.305 183.836 257.745 184.802C257.186 185.769 257.313 186.857 258.025 187.27Z" fill="#455A64"/>
<path d="M266.249 153.81H266.211L248.129 143.373H248.078C244.11 141.115 238.64 141.465 232.604 144.938C220.476 151.934 210.643 168.972 210.643 182.977C210.643 189.973 213.092 194.864 217.041 197.166H217.073L235.155 207.609H235.199C239.168 209.88 244.644 209.517 250.686 206.051C262.808 199.055 272.641 182.017 272.641 168.018C272.641 161.022 270.198 156.112 266.249 153.81Z" fill="#0CB8B6"/>
<path opacity="0.1" d="M234.862 207.399L217.054 197.134H217.016C213.066 194.825 210.624 189.915 210.624 182.945C210.624 176.699 212.583 169.856 215.82 163.572L233.902 174.009C230.658 180.293 228.706 187.136 228.706 193.382C228.718 200.187 231.059 205.033 234.862 207.399Z" fill="black"/>
<path opacity="0.4" d="M266.212 189.641C274.788 174.787 274.788 158.732 266.213 153.781C257.638 148.831 243.734 156.858 235.158 171.712C226.582 186.566 226.582 202.621 235.157 207.572C243.732 212.523 257.636 204.495 266.212 189.641Z" fill="white"/>
<path d="M240.872 204.582C233.927 204.582 233.177 196.734 233.177 193.357C233.177 181.006 242.214 165.373 252.893 159.178C255.615 157.607 258.235 156.78 260.474 156.78C267.419 156.78 268.169 164.629 268.169 168.006C268.169 180.357 259.132 195.99 248.453 202.184C245.725 203.755 243.105 204.582 240.872 204.582Z" fill="#FAFAFA"/>
<path d="M245.814 194.991C245.78 194.997 245.746 194.997 245.712 194.991C245.633 194.962 245.568 194.904 245.531 194.828C245.494 194.752 245.488 194.664 245.515 194.584L250.38 180.688C250.408 180.607 250.467 180.542 250.543 180.505C250.619 180.468 250.707 180.463 250.787 180.49C250.868 180.518 250.933 180.577 250.97 180.653C251.007 180.729 251.012 180.817 250.985 180.897L246.132 194.775C246.111 194.841 246.068 194.899 246.01 194.938C245.953 194.977 245.884 194.996 245.814 194.991Z" fill="#0CB8B6"/>
<path d="M257.974 184.879C257.845 184.881 257.717 184.855 257.599 184.802L249.732 181.4V167.128C249.732 166.875 249.832 166.632 250.011 166.453C250.19 166.274 250.433 166.174 250.686 166.174C250.939 166.174 251.181 166.274 251.36 166.453C251.539 166.632 251.64 166.875 251.64 167.128V180.147L258.356 183.053C258.555 183.142 258.718 183.296 258.817 183.49C258.916 183.684 258.946 183.906 258.901 184.12C258.857 184.333 258.74 184.525 258.572 184.663C258.403 184.801 258.192 184.877 257.974 184.879Z" fill="#37474F"/>
<path d="M250.686 177.699C252.11 176.872 253.268 177.54 253.268 179.187C253.215 180.079 252.954 180.946 252.505 181.719C252.057 182.492 251.434 183.15 250.686 183.639C249.255 184.466 248.097 183.798 248.097 182.144C248.152 181.253 248.414 180.386 248.864 179.614C249.313 178.842 249.937 178.186 250.686 177.699Z" fill="#0CB8B6"/>
<path d="M229.672 167.459C226.556 172.846 220.686 175.288 216.272 172.738C213.683 171.241 211.794 168.777 211.022 165.887C210.25 162.998 210.657 159.92 212.154 157.331C213.651 154.741 216.115 152.853 219.004 152.081C221.894 151.308 224.972 151.716 227.561 153.213C231.962 155.82 232.776 162.066 229.672 167.459Z" fill="#455A64"/>
<path d="M216.272 172.737C220.686 175.281 226.556 172.846 229.672 167.459C230.368 166.251 230.885 164.948 231.205 163.592C231.027 163.827 225.837 170.441 219.388 168.578C212.825 166.67 211.591 161.627 212.157 157.327C211.415 158.609 210.933 160.025 210.738 161.493C210.543 162.961 210.64 164.454 211.022 165.885C211.404 167.316 212.064 168.658 212.965 169.833C213.866 171.009 214.99 171.996 216.272 172.737Z" fill="#37474F"/>
<path d="M214.459 156.233L211.114 154.325C210.886 154.184 210.632 154.09 210.367 154.048C210.102 154.005 209.831 154.016 209.57 154.08C209.31 154.144 209.064 154.258 208.848 154.418C208.632 154.577 208.45 154.778 208.313 155.008C208.175 155.239 208.085 155.494 208.047 155.76C208.009 156.025 208.025 156.296 208.092 156.555C208.16 156.815 208.279 157.059 208.442 157.272C208.604 157.485 208.808 157.664 209.041 157.798L212.424 159.757C213.143 160.17 214.179 159.725 214.739 158.758C215.299 157.791 215.172 156.647 214.459 156.233Z" fill="#0CB8B6"/>
<path d="M264.36 140.098L266.268 136.759C266.409 136.531 266.503 136.277 266.545 136.012C266.588 135.747 266.577 135.476 266.513 135.215C266.449 134.955 266.335 134.709 266.175 134.493C266.016 134.277 265.815 134.095 265.585 133.958C265.354 133.82 265.099 133.73 264.833 133.692C264.568 133.654 264.297 133.67 264.038 133.737C263.778 133.805 263.534 133.924 263.321 134.087C263.108 134.249 262.929 134.453 262.795 134.686L260.836 138.069C260.423 138.781 260.836 139.818 261.835 140.378C262.833 140.937 263.94 140.817 264.36 140.098Z" fill="#0CB8B6"/>
<path d="M248.199 141.478C248.94 140.194 249.927 139.069 251.103 138.166C252.28 137.263 253.622 136.601 255.054 136.217C256.486 135.833 257.98 135.735 259.45 135.928C260.92 136.122 262.338 136.603 263.622 137.344C264.906 138.085 266.032 139.072 266.934 140.249C267.837 141.425 268.499 142.767 268.883 144.2C269.267 145.632 269.365 147.125 269.172 148.595C268.978 150.066 268.497 151.483 267.756 152.767L248.199 141.478Z" fill="#455A64"/>
<path d="M265.276 138.546C265.912 139.875 267.641 145.504 265.276 146.903C262.91 148.302 251.983 143.659 251.983 143.659L267.756 152.767C269.07 150.48 269.541 147.806 269.088 145.208C268.635 142.61 267.286 140.253 265.276 138.546Z" fill="#37474F"/>
<path d="M193.897 170.772C182.64 155.642 178.938 153.957 176.821 153.441L180.535 163.617L188.256 173.52" fill="#FFA8A7"/>
<path d="M175.72 153.276C175.72 153.276 178.112 152.551 181.572 155.941C185.031 159.331 189.204 164.272 189.204 164.272C189.204 164.272 188.078 168.311 184.561 169.564L179.473 164.272L175.72 153.276Z" fill="#0CB8B6"/>
<path opacity="0.1" d="M175.72 153.276C175.72 153.276 178.112 152.551 181.572 155.941C185.031 159.331 189.204 164.272 189.204 164.272C189.204 164.272 188.078 168.311 184.561 169.564L179.473 164.272L175.72 153.276Z" fill="black"/>
<path d="M177.912 144.905C181.385 144.085 183.537 140.605 182.717 137.132C181.897 133.659 178.417 131.507 174.944 132.327C171.47 133.147 169.319 136.627 170.139 140.1C170.959 143.574 174.439 145.725 177.912 144.905Z" fill="#263238"/>
<path d="M160.959 255.748H165.512V247.957H160.959V255.748Z" fill="#FFA8A7"/>
<path d="M175.803 250.088L180.35 250.247L180.579 241.998L176.026 241.839L175.803 250.088Z" fill="#FFA8A7"/>
<path d="M161.251 186.183V217.671C161.143 218.943 160.221 221.087 159.979 226.41C159.674 232.942 160.673 250.915 160.673 250.915C160.673 250.915 162.803 253.033 165.818 250.915C165.818 250.915 169.856 225.259 170.677 218.791C171.389 213.143 172.585 197.803 172.585 197.803L175.307 220.909C175.307 220.909 174.563 225.151 174.404 228.14C174.245 231.129 175.714 247.112 175.714 247.112C176.452 247.573 177.297 247.832 178.167 247.865C179.036 247.897 179.899 247.701 180.669 247.296C180.669 247.296 183.785 223.351 184.256 220.648C184.726 217.945 182.545 186.177 182.545 186.177L161.251 186.183Z" fill="#37474F"/>
<path d="M165.627 154.732C164.99 154.821 164.362 154.968 163.751 155.171C162.479 155.661 161.926 157.2 161.627 158.555C161.377 159.691 161.251 160.851 161.251 162.015V186.183C164.431 189.655 175.574 191.271 182.545 186.183C182.545 186.183 182.411 164.838 181.909 161.328C180.999 155.235 178.093 153.06 175.154 153.289L168.127 154.294L165.627 154.732Z" fill="#0CB8B6"/>
<path d="M165.258 143.202C165.258 143.202 166.307 148.118 166.727 148.926C167.004 149.422 167.459 149.794 167.999 149.969L167.923 146.503L165.258 143.202Z" fill="#263238"/>
<path d="M166.575 136.149C166.208 136.107 165.837 136.149 165.489 136.271C165.141 136.393 164.825 136.593 164.565 136.854C163.706 137.739 164.19 140.499 165.258 143.214L167.236 143.437L166.575 136.149Z" fill="#263238"/>
<path d="M167.827 143.424C167.427 143.666 166.867 142.903 166.377 142.394C165.888 141.885 164.298 141.186 163.503 142.858C162.708 144.531 164.202 146.821 165.455 147.215C167.618 147.889 167.942 146.503 167.942 146.503L168.107 154.3C168.585 155.346 169.314 156.257 170.229 156.951C171.145 157.646 172.219 158.103 173.354 158.281C177.17 158.796 176.394 155.642 175.135 154.09V151.718C176.098 151.872 177.074 151.924 178.048 151.87C179.638 151.622 180.637 150.369 181.12 148.652C181.896 145.886 182.188 143.66 181.533 138.222C180.808 132.269 173.901 132.205 170.143 134.558C166.384 136.912 167.827 143.424 167.827 143.424Z" fill="#FFA8A7"/>
<path d="M167.828 144.092C167.624 144.092 166.867 142.82 166.378 142.394C165.697 141.758 166.575 136.149 166.575 136.149C166.392 135.664 166.356 135.137 166.469 134.632C166.582 134.127 166.839 133.666 167.211 133.306C168.139 132.275 169.704 132.167 172.369 131.748C173.768 131.525 175.892 131.112 177.291 130.876C178.958 130.565 180.338 130.24 181.514 131.258C181.978 131.657 182.307 132.19 182.454 132.784C182.601 133.377 182.559 134.002 182.335 134.571C182.213 134.832 182.052 135.072 181.858 135.284C181.521 135.659 181.463 136.168 180.986 136.32C180.986 136.32 179.975 137.236 177.444 137.542C175.113 137.716 172.771 137.671 170.448 137.408C169.71 137.306 169.513 137.542 169.119 139.481C168.782 141.192 168.495 144.08 167.828 144.092Z" fill="#263238"/>
<path d="M166.581 136.587L164.19 135.315C164.265 135.154 164.373 135.01 164.506 134.892C164.639 134.774 164.795 134.684 164.964 134.628C165.133 134.572 165.312 134.551 165.489 134.566C165.667 134.582 165.839 134.633 165.996 134.718C166.313 134.896 166.55 135.189 166.659 135.537C166.767 135.884 166.74 136.26 166.581 136.587Z" fill="#263238"/>
<path d="M175.129 151.718C175.129 151.718 171.586 151.006 170.346 150.344C169.616 149.966 169.018 149.376 168.629 148.652C168.818 149.376 169.149 150.055 169.602 150.649C170.511 151.807 175.129 152.666 175.129 152.666V151.718Z" fill="#F28F8F"/>
<path d="M174.505 143.19C174.5 143.33 174.455 143.465 174.373 143.578C174.292 143.692 174.179 143.78 174.049 143.83C173.918 143.88 173.776 143.89 173.639 143.86C173.503 143.83 173.378 143.76 173.281 143.659C173.184 143.559 173.119 143.432 173.093 143.294C173.068 143.157 173.083 143.015 173.138 142.886C173.192 142.758 173.284 142.648 173.4 142.571C173.517 142.493 173.653 142.452 173.793 142.452C173.889 142.453 173.983 142.473 174.071 142.51C174.158 142.548 174.238 142.603 174.304 142.672C174.37 142.74 174.422 142.822 174.457 142.91C174.492 142.999 174.508 143.094 174.505 143.19Z" fill="#263238"/>
<path d="M173.749 140.511L172.229 141.345C172.122 141.136 172.1 140.894 172.166 140.669C172.232 140.445 172.382 140.254 172.585 140.136C172.685 140.082 172.796 140.048 172.91 140.038C173.023 140.027 173.138 140.04 173.247 140.075C173.356 140.11 173.456 140.167 173.543 140.242C173.629 140.317 173.699 140.408 173.749 140.511Z" fill="#263238"/>
<path d="M174.811 147.45L176.433 148.086C176.398 148.195 176.341 148.296 176.266 148.382C176.191 148.468 176.1 148.539 175.997 148.589C175.894 148.638 175.782 148.667 175.668 148.673C175.554 148.678 175.439 148.66 175.332 148.62C175.221 148.579 175.118 148.515 175.031 148.434C174.944 148.352 174.874 148.254 174.826 148.145C174.777 148.036 174.751 147.918 174.748 147.799C174.746 147.68 174.767 147.561 174.811 147.45Z" fill="#F28F8F"/>
<path d="M180.84 141.103L179.454 140.035C179.519 139.94 179.602 139.86 179.699 139.8C179.796 139.739 179.905 139.699 180.018 139.681C180.131 139.664 180.247 139.67 180.357 139.699C180.468 139.728 180.572 139.78 180.662 139.85C180.847 139.996 180.969 140.208 181.002 140.441C181.035 140.674 180.977 140.912 180.84 141.103Z" fill="#263238"/>
<path d="M180.414 142.993C180.416 143.088 180.399 143.182 180.364 143.27C180.329 143.358 180.276 143.439 180.21 143.507C180.144 143.575 180.065 143.629 179.978 143.666C179.89 143.704 179.797 143.723 179.702 143.724C179.554 143.729 179.409 143.69 179.284 143.612C179.16 143.534 179.061 143.42 179.002 143.285C178.942 143.151 178.924 143.001 178.95 142.856C178.976 142.711 179.045 142.578 179.148 142.472C179.25 142.367 179.382 142.294 179.527 142.264C179.671 142.234 179.821 142.248 179.957 142.304C180.093 142.36 180.209 142.456 180.291 142.579C180.372 142.701 180.415 142.845 180.414 142.993Z" fill="#263238"/>
<path d="M176.566 141.663L176.801 145.937L179.034 145.18L176.566 141.663Z" fill="#F28F8F"/>
<path d="M165.506 253.503V252.867C165.945 253.052 166.956 256.919 168.762 258.591C170.2 259.901 172.159 261.409 172.655 262.871C173.151 264.334 169.926 265.231 168.584 264.989C167.026 264.716 164.323 263.616 163.649 262.598C162.975 261.58 162.65 260.054 162.097 259.335C161.544 258.617 160.278 257.758 159.979 256.893C159.889 256.086 159.978 255.27 160.24 254.502C160.45 253.7 160.679 252.816 160.952 252.893C160.952 252.988 160.952 253.389 160.952 253.389C161.603 253.894 162.405 254.166 163.229 254.158C163.897 254.146 165.513 254.012 165.506 253.503Z" fill="#263238"/>
<path d="M180.395 248.841C180.637 248.841 180.828 249.185 181.349 249.751C182.13 250.531 183.034 251.176 184.027 251.659C185.731 252.517 189.045 253.827 190.546 254.502C191.481 254.928 191.436 256.06 190.469 256.702C189.503 257.345 187.162 257.809 184.357 257.179C182.825 256.842 180.834 255.424 179.575 255.5C178.315 255.576 175.956 255.564 175.027 254.921C174.099 254.279 174.468 252.912 174.728 251.741C175.015 250.469 175.428 248.491 175.854 248.561V248.968C176.407 249.795 179.193 250.132 180.395 249.528V248.841Z" fill="#263238"/>
<path d="M172.585 197.797C174.946 197.068 177.117 195.828 178.945 194.165C178.945 194.165 177.724 196.455 174.086 198.585L174.162 210.994L172.585 197.797Z" fill="#263238"/>
<path d="M163.954 197.606C163.204 196.97 162.733 196.149 161.601 195.316C160.781 194.809 160.094 194.114 159.598 193.287C158.962 192.219 158.326 188.657 158.135 185.273C158.021 181.495 158.552 177.724 159.706 174.124C161.251 169.857 164.387 164.133 165.43 161.716C166.473 159.299 165.913 158.084 164.978 156.857C163.884 155.42 161.856 155.413 159.941 158.689C157.391 163.242 155.356 168.065 153.874 173.069C152.874 176.812 152.503 180.696 152.773 184.561C152.983 188.142 153.766 190.877 154.771 194.317C155.05 195.252 155.019 196.016 155.337 197.866C155.42 198.639 155.617 199.396 155.922 200.111C156.353 200.971 156.903 201.765 157.556 202.471C158.383 203.367 159.435 204.026 160.603 204.379C161.244 204.57 161.922 204.607 162.581 204.487C163.243 204.368 163.84 204.016 164.266 203.495C164.355 203.391 164.416 203.266 164.444 203.132C164.442 202.895 164.348 202.667 164.183 202.496C163.28 201.438 162.431 200.334 161.639 199.189C161.054 198.203 160.774 197.421 161.003 197.466C161.232 197.51 161.531 198.102 162.383 198.636C163.236 199.17 164.291 199.151 164.539 198.674C164.787 198.197 164.724 198.254 163.954 197.606Z" fill="#FFA8A7"/>
<path d="M164.266 155.025C162.447 155.134 160.793 155.541 158.974 159.147C157.155 162.753 154.3 169.507 154.3 169.507C154.989 170.741 155.999 171.765 157.223 172.471C158.446 173.178 159.838 173.54 161.251 173.52C161.251 173.52 165.436 164.782 166.117 162.479C166.797 160.177 167.268 156.456 164.266 155.025Z" fill="#0CB8B6"/>
<path opacity="0.1" d="M164.266 155.025C162.447 155.134 160.793 155.541 158.974 159.147C157.155 162.753 154.3 169.507 154.3 169.507C154.989 170.741 155.999 171.765 157.223 172.471C158.446 173.178 159.838 173.54 161.251 173.52C161.251 173.52 165.436 164.782 166.117 162.479C166.797 160.177 167.268 156.456 164.266 155.025Z" fill="black"/>
<path d="M188.256 173.52C187.843 174.728 183.874 178.411 180.955 179.581C180.263 179.819 179.52 179.863 178.805 179.708C178.121 179.421 177.385 179.278 176.643 179.288C175.79 179.365 174.925 179.53 174.067 179.632C173.888 179.638 173.712 179.681 173.552 179.759C173.03 180.045 173.329 180.484 173.742 180.643C174.409 180.883 175.091 181.077 175.784 181.222V181.406C174.008 182.027 172.154 182.4 170.276 182.513C169.942 182.516 169.619 182.628 169.354 182.831C169.246 182.952 169.17 183.098 169.134 183.256C169.097 183.414 169.101 183.578 169.144 183.734C169.233 184.044 169.385 184.331 169.589 184.58C170.356 185.74 171.549 186.551 172.909 186.838C174.284 186.943 175.667 186.77 176.973 186.329C177.605 186.151 178.228 185.954 178.843 185.738C180.643 185.075 182.396 184.291 184.09 183.391C187.718 181.487 191.083 179.12 194.101 176.35C195.932 174.563 195.481 172.846 193.942 170.772" fill="#FFA8A7"/>
<path d="M180.529 179.696C180.529 179.696 181.165 179.46 181.89 180.624C182.615 181.788 183.073 183.912 182.163 184.332C182.476 184.35 182.789 184.286 183.07 184.147C183.351 184.008 183.591 183.797 183.766 183.537C183.953 182.708 183.901 181.843 183.618 181.042C183.334 180.241 182.83 179.536 182.163 179.009C181.551 179.022 180.966 179.267 180.529 179.696Z" fill="#37474F"/>
<path d="M183.893 180.122C184.029 180.352 184.094 180.617 184.078 180.884C184.063 181.151 183.969 181.408 183.808 181.621C183.647 181.834 183.425 181.995 183.173 182.082C182.92 182.169 182.647 182.18 182.388 182.111C182.13 182.043 181.897 181.9 181.721 181.699C181.544 181.498 181.431 181.249 181.396 180.984C181.361 180.719 181.405 180.45 181.524 180.21C181.642 179.97 181.829 179.771 182.061 179.638C182.369 179.46 182.734 179.411 183.077 179.501C183.42 179.592 183.714 179.815 183.893 180.122Z" fill="#0CB8B6"/>
<path d="M183.581 180.3C183.68 180.469 183.727 180.665 183.714 180.861C183.702 181.058 183.632 181.246 183.512 181.402C183.393 181.558 183.23 181.675 183.043 181.739C182.857 181.802 182.656 181.808 182.466 181.757C182.277 181.706 182.106 181.6 181.977 181.452C181.847 181.304 181.765 181.12 181.74 180.925C181.715 180.73 181.748 180.532 181.836 180.356C181.924 180.18 182.062 180.034 182.233 179.937C182.345 179.872 182.469 179.83 182.598 179.813C182.726 179.796 182.857 179.805 182.982 179.838C183.108 179.872 183.225 179.93 183.328 180.009C183.431 180.088 183.517 180.187 183.581 180.3Z" fill="#FAFAFA"/>
</svg>
