<svg width="500" height="500" viewBox="0 0 500 500" fill="none" xmlns="http://www.w3.org/2000/svg">
<path d="M252.93 483.39C383.667 483.39 489.65 426.297 489.65 355.87C489.65 285.442 383.667 228.35 252.93 228.35C122.193 228.35 16.21 285.442 16.21 355.87C16.21 426.297 122.193 483.39 252.93 483.39Z" fill="#F0F0F0"/>
<path d="M252.18 404.24C289.039 404.24 318.92 386.989 318.92 365.71C318.92 344.43 289.039 327.18 252.18 327.18C215.32 327.18 185.44 344.43 185.44 365.71C185.44 386.989 215.32 404.24 252.18 404.24Z" fill="#E0E0E0"/>
<path d="M120.69 424.709C161.173 424.709 193.99 405.762 193.99 382.389C193.99 359.017 161.173 340.069 120.69 340.069C80.2077 340.069 47.3901 359.017 47.3901 382.389C47.3901 405.762 80.2077 424.709 120.69 424.709Z" fill="#E0E0E0"/>
<path d="M375.99 428.56C416.472 428.56 449.29 409.613 449.29 386.24C449.29 362.867 416.472 343.92 375.99 343.92C335.507 343.92 302.69 362.867 302.69 386.24C302.69 409.613 335.507 428.56 375.99 428.56Z" fill="#E0E0E0"/>
<path d="M414.36 338.06C414.36 338.06 411.87 314.22 418.43 296.58C424.99 278.94 436.51 266.32 449.01 262.58C461.51 258.84 474.75 271.68 462.89 282.67C451.03 293.66 428.63 307.1 424 339.57L414.36 338.06Z" fill="#0CB8B6"/>
<path opacity="0.15" d="M414.36 338.06C414.36 338.06 411.87 314.22 418.43 296.58C424.99 278.94 436.51 266.32 449.01 262.58C461.51 258.84 474.75 271.68 462.89 282.67C451.03 293.66 428.63 307.1 424 339.57L414.36 338.06Z" fill="black"/>
<path d="M416.88 332.74H416.73C416.539 332.713 416.367 332.611 416.251 332.458C416.135 332.304 416.084 332.111 416.11 331.92C421.27 294.22 444.05 273.22 455.37 267.39C455.541 267.303 455.74 267.287 455.923 267.346C456.013 267.375 456.097 267.422 456.17 267.483C456.242 267.545 456.302 267.62 456.345 267.705C456.388 267.79 456.415 267.882 456.422 267.977C456.43 268.072 456.419 268.167 456.389 268.258C456.36 268.348 456.313 268.432 456.252 268.505C456.19 268.577 456.115 268.637 456.03 268.68C444.94 274.39 422.63 295.01 417.55 332.12C417.527 332.285 417.448 332.437 417.326 332.55C417.204 332.663 417.046 332.73 416.88 332.74Z" fill="white"/>
<path d="M420.61 355.41C420.913 352.447 420.689 349.455 419.95 346.57C419.23 343.48 417.37 340.57 417.22 337.33C417.1 334.75 418.71 331.83 420.54 330.09C422.37 328.35 424.92 327.03 426.19 324.76C427.46 322.49 427.19 319.57 427.82 316.98C428.503 314.101 430.279 311.602 432.773 310.01C435.266 308.418 438.282 307.858 441.18 308.45C443.88 309.01 446.26 310.51 448.73 311.73C451.163 313.087 453.965 313.634 456.73 313.29C459.761 312.708 462.835 312.373 465.92 312.29C471.17 312.29 477.77 314.08 479.57 319.63C480.084 320.989 480.134 322.48 479.71 323.87L479.65 324.04C478.13 327.8 473.34 328.57 470.26 330.41C469.42 330.92 468.01 331.63 467.69 332.65C467.37 333.67 468.25 335.07 468.69 336.01C469.81 338.44 471.43 340.78 471.58 343.53C471.78 347.46 468.5 351.24 465.19 352.91C461.936 354.385 458.361 355.007 454.8 354.72C453.04 354.64 451.12 354.49 449.67 355.5C449.079 355.992 448.595 356.602 448.251 357.29C447.907 357.979 447.709 358.731 447.67 359.5C447.48 361.02 447.62 362.57 447.48 364.1C447.172 366.509 446.222 368.792 444.73 370.709C443.239 372.627 441.26 374.108 439 375C435.219 376.435 431.036 376.385 427.29 374.86C424.21 373.65 421.57 369.95 420.97 366.73C420.343 362.99 420.222 359.182 420.61 355.41Z" fill="#0CB8B6"/>
<path d="M421.88 364.39H421.83C421.755 364.379 421.682 364.353 421.617 364.314C421.551 364.274 421.494 364.223 421.448 364.161C421.403 364.1 421.37 364.03 421.351 363.956C421.333 363.882 421.329 363.805 421.34 363.73C426.42 327.47 462.81 317.88 471.54 317.45C471.694 317.444 471.843 317.498 471.957 317.601C472.071 317.704 472.14 317.847 472.15 318C472.156 318.076 472.146 318.153 472.121 318.225C472.096 318.298 472.057 318.365 472.005 318.422C471.954 318.479 471.891 318.525 471.822 318.557C471.752 318.589 471.677 318.607 471.6 318.61C463.05 319.03 427.46 328.41 422.49 363.89C422.473 364.036 422.399 364.169 422.286 364.262C422.172 364.355 422.027 364.401 421.88 364.39Z" fill="white"/>
<path d="M460.83 341.58C460.71 341.575 460.595 341.533 460.5 341.46C460.4 341.38 449.83 333.22 434.45 337.46C434.377 337.481 434.301 337.488 434.225 337.479C434.15 337.47 434.077 337.447 434.011 337.409C433.945 337.372 433.887 337.322 433.84 337.262C433.794 337.202 433.76 337.133 433.74 337.06C433.7 336.91 433.721 336.751 433.798 336.616C433.874 336.481 434.001 336.382 434.15 336.34C438.697 335.012 443.482 334.702 448.162 335.433C452.843 336.164 457.305 337.918 461.23 340.57C461.349 340.668 461.425 340.808 461.442 340.962C461.459 341.115 461.415 341.269 461.32 341.39C461.26 341.459 461.184 341.512 461.098 341.545C461.013 341.578 460.921 341.59 460.83 341.58Z" fill="white"/>
<path d="M80.5504 327.05C82.1604 317.92 81.8904 302.17 75.1304 285.48C67.9004 267.62 56.7704 254.73 45.5604 256.48C35.1104 258.11 35.2904 272 48.1204 289C57.1204 300.92 65.8304 315.65 68.4804 331.39L74.0504 352L80.5504 327.05Z" fill="#0CB8B6"/>
<path d="M80.5504 327.05C82.1604 317.92 81.8904 302.17 75.1304 285.48C67.9004 267.62 56.7704 254.73 45.5604 256.48C35.1104 258.11 35.2904 272 48.1204 289C57.1204 300.92 65.8304 315.65 68.4804 331.39L74.0504 352L80.5504 327.05Z" fill="#0CB8B6"/>
<g opacity="0.15">
<path d="M80.5504 327.05C82.1604 317.92 81.8904 302.17 75.1304 285.48C67.9004 267.62 56.7704 254.73 45.5604 256.48C35.1104 258.11 35.2904 272 48.1204 289C57.1204 300.92 65.8304 315.65 68.4804 331.39L74.0504 352L80.5504 327.05Z" fill="black"/>
</g>
<path d="M77.8602 333.63C77.7303 333.596 77.6137 333.524 77.5262 333.422C77.4386 333.32 77.3842 333.194 77.3702 333.06C74.8302 305.92 62.6102 276 49.0002 263.34C48.9346 263.282 48.8811 263.211 48.8428 263.132C48.8045 263.053 48.7821 262.967 48.777 262.879C48.7719 262.791 48.7841 262.703 48.813 262.62C48.8419 262.537 48.8868 262.461 48.9452 262.395C49.0037 262.33 49.0745 262.276 49.1536 262.238C49.2327 262.199 49.3186 262.177 49.4063 262.172C49.4941 262.167 49.582 262.179 49.665 262.208C49.748 262.237 49.8246 262.282 49.8902 262.34C63.7602 275.14 76.1502 305.47 78.7202 332.89C78.737 333.064 78.6843 333.237 78.5738 333.372C78.4632 333.507 78.3038 333.593 78.1302 333.61C78.0417 333.63 77.9507 333.637 77.8602 333.63Z" fill="white"/>
<path d="M76.2302 356.75C70.5026 360.479 63.8946 362.635 57.0702 363C45.2702 363.82 40.6302 357.81 40.6302 357.81C40.6302 357.81 46.1702 347.3 53.0402 344.81C53.0402 344.81 41.6402 346.1 32.1202 351.31C32.1202 351.31 25.0102 350.8 23.1202 339.701C23.1202 339.701 27.9102 333.55 42.3402 331.26C42.3402 331.26 33.9402 328.351 21.2802 330.421C20.2802 330.701 17.5902 316.33 16.9602 309.76C16.3302 303.19 18.9602 303.48 24.0902 302.58C29.2202 301.68 46.5002 302.341 49.4102 305.391C52.3202 308.441 53.0902 318.07 53.0902 318.07C53.0902 318.07 56.8302 311.65 56.0902 305.82C60.6957 305.71 65.2654 306.654 69.4502 308.58C70.7002 309.16 71.3702 318.82 67.6802 326.18C71.5433 322.338 74.3355 317.554 75.7802 312.3C82.6602 317.45 84.2802 323.57 84.7802 329.05C85.3402 335.51 84.3602 349 76.2302 356.75Z" fill="#0CB8B6"/>
<path d="M76.1704 357.4C76.0477 357.391 75.9303 357.347 75.8326 357.272C75.7348 357.197 75.6611 357.096 75.6204 356.98C67.9404 336.65 35.0304 310.91 22.7404 307.38C22.6569 307.356 22.579 307.315 22.5112 307.261C22.4433 307.207 22.3869 307.139 22.3451 307.063C22.3033 306.987 22.2769 306.903 22.2675 306.817C22.2581 306.731 22.2659 306.643 22.2904 306.56C22.3414 306.395 22.4542 306.256 22.6051 306.172C22.756 306.088 22.9334 306.066 23.1004 306.11C35.5904 309.71 69.0504 335.86 76.8504 356.52C76.9087 356.683 76.9004 356.863 76.8275 357.02C76.7545 357.177 76.6227 357.299 76.4604 357.36C76.3689 357.398 76.2689 357.412 76.1704 357.4Z" fill="white"/>
<path d="M193.72 153L152.53 134.72L151.53 112.22C159.53 111.74 162.06 113.48 165.66 115.71C170.93 118.96 189.06 128.29 197.6 132.3L207.31 105.3C210.106 104.939 212.853 104.269 215.5 103.3C218.38 102 221.59 103.7 221.59 103.7C221.59 103.7 213 145.3 209.76 153C207.91 157.37 200.82 156.1 193.72 153Z" fill="#FFA8A7"/>
<path d="M151.54 112.171C151.54 112.171 156.88 110.541 164.1 114.171C171.32 117.801 187.72 126.701 187.72 126.701C187.72 126.701 182.72 140.371 176.85 147.651L156.13 138.811L151.54 112.171Z" fill="#455A64"/>
<path d="M216.07 289.77C216.32 277.71 218.68 269.41 218.96 266.07C218.96 266.07 218.07 194.36 218.07 182.73L279.21 180.24C279.21 180.24 277.21 255.49 277.21 265.45C277.21 275.41 270.87 325.45 269 345.14C265.46 349.76 261.32 350.08 255.76 345.56C255.76 345.56 255.3 342.81 254.58 333.73C253.74 323.34 252.08 299.15 251.98 288.97C251.86 276.43 251.76 270.9 252.12 264.86C252.55 257.95 250.89 211.33 250.89 211.33C250.89 211.33 243.23 255.8 241.32 270.9C239.14 288.21 232.14 338.9 232.12 349.43C232.12 351.32 232.12 353.51 232.12 355.88C232.12 361.58 231.96 363.09 232.87 365.3C234.47 369.16 220.8 371.58 220.17 368.84L218.7 357.51V357.18V350C218.76 339.25 215.71 307.25 216.07 289.77Z" fill="#B16668"/>
<path d="M296 363.56C296.37 364.67 296.302 365.879 295.81 366.94C295.34 367.94 290.18 370.84 283.22 370.37C278.063 370.019 273.094 368.292 268.83 365.37C266.17 363.61 263.41 363.28 259.97 363.09C256.53 362.9 251.97 361.17 251.24 359.56C250.51 357.95 251.35 355.17 251.35 355.17L296 363.56Z" fill="#263238"/>
<path d="M267.94 341.851L268.49 341.731C268.79 341.65 269.103 341.633 269.41 341.681C269.748 341.785 270.047 341.987 270.27 342.261C270.952 343.131 271.548 344.066 272.05 345.051C273.51 347.431 276.57 349.401 279.91 351.201C282.19 352.421 284.42 353.371 286.76 354.431C289.1 355.491 292.33 356.161 294.21 357.431C296.94 359.271 297.29 363.901 294.21 365.731C291.53 367.301 284.46 369.011 277.06 366.911C273.06 365.771 268.54 361.461 263.25 361.041C259.88 360.781 253.51 359.831 251.34 357.271C250.54 356.141 251.61 352.541 252.49 349.441C253.49 346.051 254.17 340.731 255.29 341.031C255.326 341.64 255.393 342.248 255.49 342.851C255.61 343.371 256.17 343.851 256.49 344.251L257.79 345.751C258.314 346.446 258.97 347.03 259.72 347.471C261.05 348.151 262.64 347.861 264.1 347.551C264.17 347.551 263.5 344.891 263.43 344.631C263.359 344.425 263.342 344.205 263.38 343.991C263.467 343.782 263.622 343.61 263.82 343.501C265.062 342.667 266.466 342.105 267.94 341.851Z" fill="#455A64"/>
<path d="M246.191 383.281C246.601 383.671 246.481 386.281 246.021 387.031C245.561 387.781 242.74 390.181 237.68 390.551C232.84 390.891 228.52 390.241 225.68 388.441C222.84 386.641 221.47 384.651 221.2 381.891C220.93 379.131 221.2 376.481 219.93 374.361C218.72 372.361 216.78 370.201 216.36 369.131C215.45 366.831 216.36 363.521 216.36 363.521L246.191 383.281Z" fill="#263238"/>
<path d="M233 359.231C233.041 360.275 233.23 361.309 233.56 362.3C234.313 364.434 235.32 366.469 236.56 368.36C237.162 369.354 237.83 370.307 238.56 371.21C240.02 372.95 241.84 374.371 243.39 376.041C245.047 377.614 246.107 379.713 246.39 381.981C246.6 385.771 242.48 387.06 239.31 387.63C235.881 388.229 232.361 388.051 229.01 387.11C227.25 386.65 225.661 385.692 224.432 384.351C223.203 383.01 222.386 381.343 222.08 379.55C221.9 378.5 221.97 377.42 221.84 376.36C221.424 373.939 220.41 371.66 218.89 369.731C218.01 368.608 217.253 367.394 216.63 366.11C215.63 363.77 216.43 361.111 217.07 358.791C217.61 356.791 218.23 354.481 218.94 354.671C218.94 355.721 218.94 355.831 219.69 356.541C220.69 357.441 220.69 358.791 221.69 359.541C221.364 358.667 221.13 357.762 220.99 356.84C220.927 356.47 221.002 356.09 221.2 355.77C221.536 355.475 221.937 355.262 222.37 355.15C223.863 354.642 225.404 354.29 226.97 354.1C228.46 353.851 229.98 353.851 231.47 354.1C231.911 354.178 232.311 354.408 232.6 354.75C232.861 355.134 233 355.587 233 356.05C233 356.66 232.92 358.231 233 359.231Z" fill="#455A64"/>
<path d="M237 369.161C235.59 368.101 232.43 368.081 230.7 368.271C228.939 368.419 227.246 369.014 225.78 370.001C225.562 370.153 225.298 370.224 225.033 370.202C224.769 370.18 224.52 370.066 224.33 369.881C224.219 369.774 224.132 369.645 224.076 369.501C224.021 369.358 223.997 369.203 224.008 369.05C224.018 368.896 224.062 368.747 224.137 368.612C224.212 368.477 224.315 368.361 224.44 368.271C226.058 367.095 227.975 366.402 229.97 366.271C234.23 365.971 235.48 366.701 235.48 366.701C235.48 366.701 237.4 367.901 237 369.161Z" fill="#F5F5F5"/>
<path d="M240.23 373C238.46 371.95 234.97 372.1 233.23 372.29C231.504 372.463 229.855 373.091 228.45 374.11C228.235 374.267 227.971 374.343 227.705 374.322C227.439 374.302 227.189 374.188 227 374C226.891 373.893 226.805 373.763 226.751 373.62C226.696 373.476 226.673 373.323 226.684 373.17C226.694 373.017 226.738 372.868 226.811 372.733C226.885 372.598 226.987 372.481 227.11 372.39C228.751 371.142 230.708 370.377 232.76 370.18C237.02 369.88 238.13 370.75 238.13 370.75C238.629 370.94 239.077 371.242 239.441 371.632C239.805 372.022 240.075 372.49 240.23 373Z" fill="#F5F5F5"/>
<path d="M228.26 362.14C230.053 361.83 231.895 361.985 233.61 362.59C234.36 363.01 234.85 364.2 234.37 364.5C232.869 363.891 231.24 363.667 229.63 363.85C228.033 364.004 226.474 364.43 225.02 365.11C224.66 365.27 224.22 365.5 223.85 365.71C223.73 365.778 223.598 365.821 223.461 365.836C223.324 365.851 223.185 365.837 223.054 365.796C222.923 365.755 222.801 365.687 222.697 365.596C222.593 365.506 222.509 365.395 222.45 365.27C222.348 365.059 222.329 364.817 222.398 364.592C222.466 364.368 222.617 364.178 222.82 364.06C224.474 363.036 226.33 362.382 228.26 362.14Z" fill="#F5F5F5"/>
<path d="M276.77 349.37C276.528 348.906 276.173 348.509 275.738 348.218C275.303 347.926 274.802 347.748 274.28 347.7C272.75 347.42 270.04 348.55 268.36 349.93C268.2 350.06 268.074 350.227 267.993 350.416C267.913 350.606 267.88 350.813 267.898 351.018C267.916 351.223 267.983 351.421 268.095 351.594C268.207 351.767 268.36 351.91 268.54 352.01C268.767 352.136 269.028 352.189 269.286 352.16C269.544 352.131 269.786 352.023 269.98 351.85C271.833 350.169 274.27 349.279 276.77 349.37Z" fill="#F5F5F5"/>
<path d="M281.52 352C281.187 351.529 280.744 351.145 280.231 350.88C279.717 350.616 279.148 350.479 278.57 350.48C278.57 350.48 274.57 350.6 272.09 352.9C271.94 353.027 271.822 353.188 271.747 353.37C271.672 353.552 271.642 353.749 271.658 353.944C271.675 354.14 271.738 354.329 271.843 354.496C271.948 354.662 272.091 354.801 272.26 354.9C272.478 355.022 272.728 355.071 272.976 355.043C273.224 355.014 273.456 354.908 273.64 354.74C274.664 353.722 275.904 352.947 277.268 352.473C278.632 351.999 280.085 351.837 281.52 352Z" fill="#F5F5F5"/>
<path d="M286.76 354.43C286.381 353.992 285.911 353.642 285.382 353.403C284.854 353.165 284.28 353.045 283.7 353.05C281.426 353.188 279.255 354.046 277.5 355.5C277.35 355.627 277.233 355.788 277.157 355.969C277.082 356.151 277.052 356.348 277.068 356.544C277.085 356.74 277.148 356.929 277.253 357.095C277.358 357.262 277.501 357.4 277.67 357.5C277.888 357.621 278.139 357.671 278.386 357.642C278.634 357.614 278.866 357.508 279.05 357.34C280.019 356.286 281.221 355.474 282.56 354.969C283.899 354.464 285.337 354.279 286.76 354.43Z" fill="#F5F5F5"/>
<path d="M242.29 274.26L248.41 233.73L251 266.29C251.21 268.95 250.53 278.81 250.7 286.95C250.87 295.09 254.41 331.71 254.41 331.71C254.41 331.71 261.34 336.45 270.56 331.71C270.81 330.96 275.72 289.29 276.16 283.94C276.71 277.32 277.67 271.33 277.89 265.69C278.11 260.05 278.51 248.39 278.42 239.49C278.33 230.59 279.18 180.24 279.18 180.24L216.82 180.43L216.04 264.87C215.66 266.76 213.53 284.48 214.09 293.35C214.65 302.22 218.41 343.45 218.41 343.45C218.41 343.45 224.03 347.04 232.49 343.45C232.49 343.45 237.73 301.45 239.24 293.53C240.75 285.61 241.75 277.82 242.29 274.26Z" fill="#37474F"/>
<path d="M248.41 233.73L250.3 216.54C256.296 215.871 262.042 213.764 267.05 210.4C267.05 210.4 266.05 212.6 260.82 216.03C258.704 217.41 256.382 218.443 253.94 219.09L252 232.77L251 265.69L248.41 233.73Z" fill="#263238"/>
<path d="M264.5 92.4805C272.58 92.4805 276.21 94.0105 280.15 98.8105C284.09 103.61 302.82 128.81 302.82 128.81C302.82 128.81 316.06 116.22 322.82 109.96C327.04 105.62 331.18 101.37 335.71 100.07C340.44 98.7105 338.08 107.51 339.96 108.23L334.37 116.37C334.37 116.37 313.74 143.83 306.53 148.09C304.03 149.57 301.391 152.75 294.421 147.09C285.271 139.64 268.671 120.94 268.671 120.94L264.5 92.4805Z" fill="#B16668"/>
<path d="M261.22 92.4706C268.68 91.2106 273.41 90.7406 280.15 97.8306C286.89 104.921 299.93 124.931 299.93 124.931C299.93 124.931 299.16 135.201 285.93 139.221L265.48 124.931L261.22 92.4706Z" fill="#455A64"/>
<path d="M216.07 189C224.46 195.11 262.5 201.88 280.15 189C280.15 189 279.74 139.69 278.36 113.59C278.29 112.41 278.21 111.26 278.09 110.14C278.09 109.77 278 109.4 277.96 109.03C277.766 107.472 277.468 105.929 277.07 104.41C277 104.16 276.92 103.91 276.84 103.66C276.679 103.096 276.485 102.542 276.26 102C276.15 101.71 276.03 101.42 275.9 101.14C275.784 100.873 275.654 100.613 275.51 100.36C275.495 100.312 275.475 100.265 275.45 100.22C275.32 99.9702 275.17 99.7202 275.03 99.4802C274.89 99.2402 274.71 98.9602 274.52 98.6902C274.33 98.4202 274.18 98.2002 274.01 97.9802C273.84 97.7602 273.6 97.4802 273.38 97.2402C273.177 97.0047 272.96 96.781 272.73 96.5702L272.27 96.1402C272.126 95.9996 271.973 95.8693 271.81 95.7502C271.61 95.5802 271.39 95.4202 271.18 95.2702C270.49 94.7873 269.761 94.3625 269 94.0002C268.786 93.8882 268.566 93.7881 268.34 93.7002C268.29 93.7002 268.22 93.7002 268.19 93.6302L267.4 93.3302C266.948 93.1563 266.488 93.0061 266.02 92.8802C265.55 92.7502 265.02 92.6302 264.55 92.5102C264.08 92.3902 263.35 92.5102 262.67 92.5102H261.27C260.78 92.5102 260.27 92.5102 259.77 92.5102C253.17 92.8002 246.2 91.5102 238.6 92.4302C238.1 92.5002 222.2 94.2802 218.53 95.6102C215.11 96.8602 212.03 102.94 211.27 106.31C209 116.23 219 148.44 219 148.44L216.07 189Z" fill="#0CB8B6"/>
<path d="M236.37 94.2899C236.01 95.5199 238.37 99.2199 242.18 100.93C245.99 102.64 251.6 103.43 255.18 102.2C258.76 100.97 263.08 96.5099 259.31 92.5399C252.84 92.7499 246.01 91.5399 238.58 92.4499C238.55 92.4399 236.74 93.0599 236.37 94.2899Z" fill="#455A64"/>
<path opacity="0.3" d="M278.54 117.38C272.14 119.61 261.63 121.38 248.41 122.15C236.224 122.755 224.008 122.085 211.96 120.15C213.41 128.57 215.96 138.15 217.58 143.72C240.69 148.43 267.13 144.72 279.34 140.85C279.12 132.29 278.88 124.36 278.54 117.38Z" fill="black"/>
<path d="M238.21 57.8008L235.87 60.3608L234.67 47.1408C233.721 47.0303 232.76 47.1376 231.859 47.4548C230.958 47.7719 230.141 48.2904 229.47 48.9708C227.24 51.2508 228.47 58.4008 231.27 65.4008C231.27 65.4008 233.98 78.1408 235.07 80.2308C235.79 81.5247 236.984 82.489 238.4 82.9208L238.21 57.8008Z" fill="#263238"/>
<path d="M237.91 65.9999C236.91 66.6099 235.42 64.6399 234.16 63.3199C232.9 61.9999 228.77 60.1899 226.71 64.5199C224.65 68.8499 228.53 74.7799 231.78 75.7999C237.37 77.5599 238.21 73.9699 238.21 73.9699L238.59 94.5499C244.45 105.15 264.28 99.7199 256.85 92.6899V87.4599C259.66 87.6649 262.481 87.6649 265.29 87.4599C269.41 86.8299 271.1 83.9799 272.35 79.5199C274.35 72.3699 275.11 66.5899 273.41 52.5199C271.55 37.0999 253.61 36.9399 243.92 43.0299C234.23 49.1199 237.91 65.9999 237.91 65.9999Z" fill="#B16668"/>
<path d="M235.51 38.7103C238.908 37.2587 242.457 36.1888 246.09 35.5203C253.92 33.8203 261.89 32.2603 269.03 28.6503C269.863 28.1083 270.837 27.8263 271.83 27.8403C273.72 28.0903 274.54 30.3703 274.62 32.2703C274.691 34.033 274.461 35.7947 273.94 37.4803C274.511 36.9369 275.272 36.6396 276.06 36.6527C276.848 36.6658 277.598 36.9882 278.15 37.5503C278.673 38.1416 279.054 38.8444 279.264 39.6053C279.473 40.3661 279.507 41.1648 279.36 41.9403C278.9 45.4403 276.22 48.3603 273.05 49.9403C269.797 51.3559 266.278 52.0583 262.73 52.0003C257.794 52.1333 252.857 51.7478 248 50.8503C246.834 50.5604 245.627 50.4724 244.43 50.5903C243.833 50.6602 243.268 50.8958 242.798 51.2705C242.328 51.6451 241.972 52.1439 241.77 52.7103C241.25 54.6603 240.71 67.9003 238 68.0003C237.5 68.0003 235.57 64.6703 234.31 63.4803C232.73 61.9903 231.14 50.6403 230.86 48.5403C230.825 48.3777 230.749 48.2264 230.64 48.1003C228.86 45.6003 230.95 41.4003 233.15 40.0303C233.91 39.544 234.698 39.1032 235.51 38.7103Z" fill="#263238"/>
<path d="M231.61 48.2306C231.292 48.6036 230.904 48.9103 230.468 49.1332C230.032 49.3562 229.556 49.491 229.067 49.53C228.579 49.569 228.088 49.5114 227.621 49.3605C227.155 49.2097 226.723 48.9684 226.35 48.6506C225.977 48.3328 225.671 47.9447 225.448 47.5084C225.225 47.072 225.09 46.596 225.051 46.1076C225.012 45.6192 225.069 45.1278 225.22 44.6617C225.371 44.1955 225.612 43.7636 225.93 43.3906L231.61 48.2306Z" fill="#263238"/>
<path d="M256.83 87.4507C256.83 87.4507 247.64 86.5707 244.43 84.8607C242.546 83.8767 241.001 82.3467 240 80.4707C240.483 82.3494 241.34 84.1112 242.52 85.6507C244.87 88.6507 256.84 90.2807 256.84 90.2807L256.83 87.4507Z" fill="#9A4A4D"/>
<path d="M254 63.6905C253.984 64.0506 253.863 64.3982 253.652 64.69C253.44 64.9819 253.148 65.2053 252.811 65.3323C252.473 65.4594 252.106 65.4846 251.755 65.4049C251.403 65.3251 251.083 65.1438 250.833 64.8836C250.584 64.6234 250.416 64.2956 250.352 63.9411C250.287 63.5865 250.328 63.2207 250.469 62.8891C250.61 62.5575 250.846 62.2748 251.147 62.0759C251.447 61.877 251.8 61.7708 252.16 61.7705C252.407 61.7757 252.65 61.8295 252.877 61.9288C253.103 62.0281 253.307 62.171 253.478 62.3493C253.649 62.5276 253.783 62.7378 253.872 62.968C253.962 63.1981 254.005 63.4436 254 63.6905Z" fill="#263238"/>
<path d="M252.07 56.7401L248.13 58.9101C247.849 58.3708 247.787 57.7432 247.959 57.1594C248.13 56.5757 248.522 56.0812 249.05 55.7801C249.31 55.6392 249.596 55.5523 249.891 55.5244C250.185 55.4966 250.482 55.5284 250.764 55.618C251.046 55.7077 251.307 55.8532 251.532 56.046C251.756 56.2388 251.939 56.4749 252.07 56.7401Z" fill="#263238"/>
<path d="M254.85 76.4102L260 78.3302C259.885 78.673 259.702 78.9892 259.462 79.2599C259.222 79.5307 258.93 79.7504 258.604 79.9062C258.277 80.062 257.923 80.1506 257.561 80.1667C257.2 80.1828 256.839 80.1262 256.5 80.0002C255.819 79.725 255.269 79.2 254.962 78.5327C254.656 77.8654 254.615 77.1061 254.85 76.4102Z" fill="#9A4A4D"/>
<path d="M270.27 58.2705L266.68 55.5105C266.846 55.2649 267.06 55.0557 267.309 54.8959C267.558 54.736 267.838 54.6289 268.13 54.5812C268.422 54.5334 268.721 54.5459 269.008 54.6181C269.296 54.6902 269.565 54.8203 269.8 55.0005C270.287 55.3787 270.607 55.9308 270.695 56.5407C270.783 57.1505 270.63 57.7706 270.27 58.2705Z" fill="#263238"/>
<path d="M269.16 63.1607C269.167 63.4074 269.124 63.653 269.035 63.8832C268.946 64.1134 268.812 64.3234 268.641 64.5012C268.469 64.679 268.264 64.8209 268.038 64.9187C267.811 65.0164 267.567 65.0681 267.32 65.0707C266.94 65.0846 266.564 64.9846 266.241 64.7834C265.918 64.5821 265.662 64.289 265.507 63.9414C265.351 63.5939 265.303 63.2078 265.369 62.8328C265.435 62.4578 265.611 62.111 265.875 61.8368C266.139 61.5627 266.479 61.3737 266.851 61.2941C267.224 61.2146 267.611 61.2481 267.964 61.3904C268.317 61.5326 268.62 61.7772 268.833 62.0926C269.046 62.4081 269.16 62.78 269.16 63.1607Z" fill="#263238"/>
<path d="M260.28 61.8506L260.89 72.9206L266.67 70.9506L260.28 61.8506Z" fill="#9A4A4D"/>
<path d="M227.32 93.9004C215.04 94.4804 211.41 96.4104 207.32 105.22C204.32 111.66 189.32 151.44 186.57 158.56C184.16 164.91 183.84 168.17 189.1 172.51C194.36 176.85 199.66 180.89 205.1 184.9C208.41 187.35 211.38 190.01 214.72 192.41C219.98 196.18 225.12 200.41 230.72 203.58C237.42 207.39 249.53 212.4 255.91 205.42C257.17 204.04 258.34 202.42 257.65 200.42C257.116 199.134 256.151 198.073 254.92 197.42C253.698 196.773 252.419 196.237 251.1 195.82C248.147 194.759 245.301 193.419 242.6 191.82C244.93 191.08 247.48 191.26 249.85 190.82C250.52 190.699 251.126 190.345 251.56 189.82C251.781 189.563 251.903 189.235 251.903 188.895C251.903 188.556 251.781 188.228 251.56 187.97C251.268 187.75 250.923 187.609 250.56 187.56C247.227 186.814 243.857 186.177 240.45 185.65C237.302 185.287 234.188 184.668 231.14 183.8C226.23 182.2 223.14 178.59 219.64 175C215.81 171.07 212.16 167 208.64 162.78L225 124.29C225 124.29 233.45 102.21 227.32 93.9004Z" fill="#B16668"/>
<path d="M229.07 93.6406C224.36 93.9006 217.07 94.4606 213.66 96.6406C209.71 99.1706 208.22 101.121 204.3 110.721C200.38 120.321 192.67 140.411 192.67 140.411C195.315 143.842 198.766 146.566 202.718 148.34C206.67 150.115 210.999 150.884 215.32 150.581L228.32 120.581C228.32 120.581 234.37 104.661 229.07 93.6406Z" fill="#455A64"/>
<path d="M247.8 202.001C246.25 195.651 252.04 190.221 256.74 187.001C263.99 182.001 270.42 179.001 277.89 174.521C284.69 170.421 305.51 155.931 305.51 155.931C305.51 155.931 316.28 138.981 323.65 126.011C332.79 109.961 339.98 99.7008 355.28 101.541L355.14 120.901C355.14 120.901 322.48 165.281 320.47 167.671C318.46 170.061 317.65 171.131 314.2 172.671C304.85 176.991 293.02 182.391 283.62 188.251C280.935 189.896 278.836 192.345 277.62 195.251C276.61 197.577 275.306 199.765 273.74 201.761C272.977 202.736 272.155 203.664 271.28 204.541C270.69 205.121 269.6 206.311 268.71 206.221C268.499 206.188 268.298 206.106 268.124 205.981C267.95 205.855 267.809 205.691 267.71 205.501C267.515 205.11 267.415 204.678 267.42 204.241C267.36 201.571 269.32 199.241 269.59 196.571C269.59 196.331 269.28 196.451 269.23 196.221C269.18 195.991 265.06 198.381 264.7 198.621C263.233 199.641 261.824 200.743 260.48 201.921C259.12 203.091 257.77 204.291 256.38 205.421C255.732 206.052 254.915 206.482 254.028 206.66C253.141 206.837 252.221 206.754 251.38 206.421C250.49 206.001 249.705 205.385 249.086 204.62C248.466 203.854 248.026 202.959 247.8 202.001Z" fill="#FFBDA7"/>
<path d="M357.241 101.36C352.351 100.36 340.371 100.49 334.951 107.77C329.231 115.44 311.541 144.5 311.541 144.5C311.541 144.5 316.061 154.2 329.291 157.5L352.001 126.56L357.241 101.36Z" fill="#455A64"/>
<path d="M398.66 402.49C399.06 404.06 399.89 408.49 408.15 408.49C416.41 408.49 421.15 405.1 422.76 400.91C424.37 396.72 423.45 393.6 423.3 389.91C423.15 386.22 425.87 383.91 426.47 381.91C427.36 379 424.93 374.99 424.93 374.99L398.66 402.49Z" fill="#263238"/>
<path d="M319.261 375.52C319.04 376.176 318.96 376.871 319.026 377.56C319.091 378.25 319.301 378.917 319.641 379.52C320.241 380.33 325.781 384.35 332.641 383.52C337.659 383.03 342.486 381.347 346.721 378.61C350.721 376.25 353.471 375.91 357.541 375.92C361.611 375.93 364.391 375.17 364.731 374.14C365.321 372.35 365.361 371.2 364.501 371.23L319.261 375.52Z" fill="#263238"/>
<path d="M415.391 307C414.33 298.307 411.411 289.945 406.831 282.48C406.831 282.48 402.831 223.48 399.431 192.48H338.351C338.351 192.48 340.171 272.87 341.151 284.66C341.901 293.66 348.071 350.08 348.081 350.19L348.971 359.6C353.761 362.01 357.521 361.65 361.601 358.72L362.471 350.39C362.471 350.39 367.471 314.62 367.781 306.09C368.126 298.806 367.319 291.513 365.391 284.48L372.801 244.41C372.801 244.41 378.721 272.73 382.071 288.59C385.901 306.76 408.071 366.26 408.071 366.28L409.481 371.23C409.171 376.63 422.161 372.95 422.021 368.7C422.001 368.71 417.841 325.47 415.391 307Z" fill="#FFBDA7"/>
<path d="M379.66 289.38C376.32 273.52 372.8 244.38 372.8 244.38L368.14 285.09C351.4 292.33 339.87 285.38 339.87 285.38C336.87 255.22 338.35 192.45 338.35 192.45H399.43C402.81 223.45 408.82 281.78 408.82 281.78C408.82 281.78 404.06 291.84 379.66 289.38Z" fill="#37474F"/>
<path d="M372.8 244.421L368.66 225.361C368.66 225.361 359.42 223.251 352.82 217.961C352.82 217.961 355.24 224.041 365.36 228.691L369.59 246.551L368.46 282.311L372.8 244.421Z" fill="#263238"/>
<path d="M409.5 371.241L409 369.601C408.46 370.141 408.54 370.601 408.52 372.071C408.52 373.231 408.52 374.351 408.37 375.891C408.175 377.902 407.807 379.893 407.27 381.841C406.2 386.361 405 388.181 401.82 393.771C401.06 395.091 399.24 397.301 398.7 398.771C398.16 400.241 398 402.771 399.7 403.771C404.53 406.631 411.98 405.851 416.7 403.631C418.468 402.825 419.967 401.529 421.02 399.896C422.073 398.264 422.636 396.363 422.64 394.421C422.64 393.271 422.4 392.131 422.35 390.981C422.389 388.329 423.076 385.726 424.35 383.401C425.077 382.055 425.66 380.638 426.09 379.171C426.73 376.501 425.47 373.811 424.42 371.411C423.52 369.341 422.47 366.571 421.76 366.891L422.04 368.711C421.3 369.831 419.04 371.181 416.25 371.711C414.47 372.071 409.7 372.601 409.5 371.241Z" fill="#455A64"/>
<path d="M348.46 354.261C347.83 354.261 347.19 354.751 346.07 356.391C344.53 358.64 342.542 360.546 340.23 361.991C336.08 364.911 329.51 367.861 322.76 370.391C319.08 371.761 318.38 374.391 319.59 376.801C321.5 378.701 327.99 383.151 338.65 379.901C345.26 377.901 347.59 374.501 352.32 373.901C355.66 373.471 361.46 374.391 364.87 371.631C365.95 369.051 365.08 366.451 364.74 362.871C364.4 359.291 363.25 353.561 362.12 353.791L361.92 355.681C361.01 359.831 351.47 360.231 348.77 357.521L348.46 354.261Z" fill="#455A64"/>
<path d="M374.22 100.49C384.82 101.15 398.65 101.02 399.3 111.88C400.3 128.54 397.09 169.59 397.09 169.59L400.52 198.32C392.75 206.62 357.41 210.96 337.57 198.79C337.57 198.79 336.44 136.46 338 127.03C340.8 110.03 349.09 101.94 355.28 101.46L374.22 100.49Z" fill="#0CB8B6"/>
<path d="M379 105.82C381.44 103.36 382.2 101 380.46 100.82C378.33 100.67 376.19 100.58 374.18 100.45L359.18 101.22C359.18 101.22 355.77 104.66 356.78 107.53C357.79 110.4 361.08 111.83 365.12 111.67C370.297 111.439 375.22 109.364 379 105.82Z" fill="#455A64"/>
<path opacity="0.3" d="M337.8 128.591C337.43 132.531 337.25 140.311 337.2 149.321C356.53 155.891 384.49 152.371 398.4 149.931C398.82 142.621 399.22 136.701 399.4 129.211C377.38 134.001 352.31 132.221 337.8 128.591Z" fill="black"/>
<path d="M388.771 101.921C395.581 101.921 400.881 102.351 405.641 108.201C408.971 112.281 433.711 142.741 436.641 147.811C439.571 152.881 439.771 154.871 435.431 161.231C431.831 166.501 411.771 196.231 405.281 202.961C398.791 209.691 390.121 210.821 385.831 209.021C381.541 207.221 376.041 202.921 386.681 198.021C394.141 194.621 398.431 191.131 399.301 187.771L398.751 182.971H402.751L416.871 154.001L392.161 127.481C392.161 127.481 383.701 112.711 388.771 101.921Z" fill="#FFBDA7"/>
<path d="M386.451 101.49C386.451 101.49 395.591 101.33 399.031 102.54C402.471 103.75 405.311 106.54 410.161 112.54C415.011 118.54 428.391 135.62 428.391 135.62C428.391 135.62 426.891 147.07 412.391 150.35L391.221 129.45C391.221 129.45 382.581 120.69 386.451 101.49Z" fill="#455A64"/>
<path d="M366.519 74.9804C374.068 69.4536 375.707 58.8538 370.18 51.305C364.653 43.7563 354.053 42.1173 346.505 47.6441C338.956 53.171 337.317 63.7708 342.844 71.3195C348.371 78.8682 358.97 80.5073 366.519 74.9804Z" fill="#263238"/>
<path d="M386 72.9102C386 72.9102 383.44 85.8502 382.37 88.0002C381.648 89.3206 380.439 90.3072 379 90.7502V81.6802L386 72.9102Z" fill="#263238"/>
<path d="M382.251 54.5002C383.208 54.3711 384.183 54.4625 385.099 54.7676C386.016 55.0726 386.851 55.5832 387.541 56.2602C389.841 58.5402 388.691 65.7902 385.981 72.9102L380.831 73.5802L382.251 54.5002Z" fill="#263238"/>
<path d="M379.271 73.6106C380.321 74.2206 381.771 72.2006 383.031 70.8406C384.291 69.4806 388.431 67.5906 390.581 71.9506C392.731 76.3106 388.901 82.3506 385.631 83.4306C380.001 85.3006 379.091 81.6806 379.091 81.6806L379.001 102.681C372.111 111.821 352.561 111.361 360.551 101.811L360.471 95.5906C360.471 95.5906 355.351 96.4506 352.851 96.1006C348.671 95.5206 346.001 92.2806 344.671 87.7906C342.531 80.5906 341.671 74.7906 343.161 60.4906C344.811 44.8606 362.951 44.4106 372.851 50.4306C382.751 56.4506 379.271 73.6106 379.271 73.6106Z" fill="#FFBDA7"/>
<path d="M379.301 75.3609C379.821 75.3609 381.751 72.0409 383.031 70.8409C384.791 69.1909 382.251 54.5009 382.251 54.5009C382.848 53.1947 383.039 51.7391 382.798 50.3231C382.557 48.9071 381.896 47.5963 380.901 46.5609C378.411 43.9009 374.901 40.6709 363.901 42.1509C355.991 43.2109 347.411 45.8209 340.391 42.5109C339.785 44.7816 339.867 47.1811 340.627 49.4048C341.388 51.6286 342.791 53.5763 344.661 55.0009C344.661 55.0009 347.211 56.5809 353.851 57.2909C360.491 58.0009 370.851 56.8709 372.221 56.6509C374.141 56.3609 374.581 58.2209 375.701 63.2909C376.681 67.7909 377.551 75.3509 379.301 75.3609Z" fill="#263238"/>
<path d="M382.26 55.6407L388.47 52.1807C388.265 51.7621 387.976 51.3895 387.622 51.0856C387.268 50.7817 386.856 50.5527 386.411 50.4124C385.966 50.2722 385.498 50.2237 385.033 50.2698C384.569 50.3159 384.119 50.4557 383.71 50.6807C382.877 51.1621 382.261 51.9462 381.991 52.87C381.721 53.7939 381.818 54.7862 382.26 55.6407Z" fill="#263238"/>
<path d="M361.82 71.9201C361.848 72.282 361.98 72.628 362.202 72.9155C362.423 73.2029 362.724 73.4193 363.067 73.5379C363.41 73.6564 363.781 73.6721 364.132 73.5828C364.484 73.4935 364.802 73.3033 365.047 73.0355C365.292 72.7678 365.454 72.4341 365.511 72.0758C365.569 71.7175 365.521 71.3501 365.372 71.0189C365.224 70.6877 364.982 70.4072 364.676 70.212C364.37 70.0167 364.013 69.9153 363.65 69.9201C363.397 69.9263 363.148 69.9836 362.918 70.0884C362.687 70.1933 362.48 70.3436 362.309 70.5304C362.139 70.7172 362.007 70.9365 361.923 71.1753C361.839 71.4141 361.804 71.6675 361.82 71.9201Z" fill="#263238"/>
<path d="M362.891 65.1503L366.891 67.2803C367.164 66.7279 367.213 66.0909 367.027 65.5034C366.84 64.9158 366.433 64.4236 365.891 64.1303C365.627 63.9974 365.34 63.9185 365.046 63.898C364.751 63.8774 364.456 63.9158 364.177 64.0107C363.897 64.1057 363.64 64.2554 363.419 64.451C363.198 64.6467 363.019 64.8844 362.891 65.1503Z" fill="#263238"/>
<path d="M344.331 67.0002L347.921 64.1402C347.747 63.8971 347.526 63.692 347.27 63.5377C347.014 63.3833 346.729 63.2829 346.433 63.2427C346.137 63.2024 345.836 63.2231 345.549 63.3035C345.261 63.3839 344.993 63.5223 344.761 63.7102C344.279 64.0977 343.966 64.6561 343.885 65.2689C343.805 65.8818 343.965 66.502 344.331 67.0002Z" fill="#263238"/>
<path d="M346.06 71.9201C346.088 72.282 346.22 72.628 346.442 72.9155C346.664 73.2029 346.964 73.4193 347.307 73.5379C347.65 73.6564 348.021 73.6721 348.373 73.5828C348.724 73.4935 349.042 73.3033 349.287 73.0355C349.532 72.7678 349.694 72.4341 349.751 72.0758C349.809 71.7175 349.761 71.3501 349.612 71.0189C349.464 70.6877 349.222 70.4072 348.916 70.212C348.61 70.0167 348.253 69.9153 347.89 69.9201C347.638 69.9277 347.389 69.9859 347.159 70.0912C346.93 70.1965 346.723 70.3469 346.553 70.5334C346.382 70.7199 346.251 70.9387 346.166 71.1768C346.081 71.415 346.046 71.6678 346.06 71.9201Z" fill="#263238"/>
<path d="M360.47 95.6403C360.47 95.6403 369.6 93.8503 372.81 92.1503C374.501 91.1713 375.788 89.6221 376.44 87.7803C376.267 89.6043 375.573 91.34 374.44 92.7803C372.09 95.7803 360.52 98.4203 360.52 98.4203L360.47 95.6403Z" fill="#F0997A"/>
<path d="M362.43 84.5801L357.3 86.5101C357.411 86.8552 357.591 87.1744 357.829 87.4483C358.066 87.7222 358.357 87.9453 358.683 88.1041C359.009 88.2629 359.364 88.3541 359.726 88.3723C360.088 88.3906 360.45 88.3354 360.79 88.2101C361.48 87.9349 362.037 87.4029 362.343 86.7259C362.648 86.0489 362.68 85.2798 362.43 84.5801Z" fill="#F0997A"/>
<path d="M357 70.0303L356.39 81.1003L350.61 79.1303L357 70.0303Z" fill="#F0997A"/>
<path d="M146.59 102.59L145.52 102.7C142.004 103.076 138.448 102.755 135.056 101.756C131.663 100.758 128.501 99.1002 125.749 96.8788C122.998 94.6575 120.711 91.9158 119.019 88.8103C117.328 85.7049 116.264 82.2966 115.89 78.7801C115.176 71.931 117.208 65.0784 121.541 59.7259C125.874 54.3735 132.153 50.9584 139 50.2301L142 49.9101C148.834 49.1919 155.674 51.208 161.025 55.5177C166.377 59.8275 169.805 66.0805 170.56 72.9101C170.94 76.4336 170.621 79.9975 169.621 83.3975C168.621 86.7975 166.961 89.9668 164.734 92.7239C162.507 95.481 159.758 97.7717 156.645 99.4647C153.532 101.158 150.115 102.22 146.59 102.59Z" fill="#263238"/>
<path d="M132.75 51.6702C139.827 48.8018 147.078 46.3837 154.46 44.4302C157.38 43.5858 160.436 43.3108 163.46 43.6202C164.966 43.7907 166.414 44.2981 167.697 45.1048C168.979 45.9116 170.064 46.9969 170.87 48.2802C172.67 51.5202 171.87 55.7502 169.61 58.7102C171.594 59.312 173.341 60.5185 174.605 62.1611C175.87 63.8038 176.591 65.8005 176.666 67.8725C176.741 69.9444 176.166 71.988 175.023 73.7177C173.88 75.4474 172.225 76.7768 170.29 77.5202C167.68 78.3518 164.908 78.5405 162.21 78.0702C156.517 77.5043 151.001 75.7789 146 73.0002C140.983 70.1944 136.993 65.8609 134.61 60.6302" fill="#263238"/>
<path d="M159.85 363.42C157.02 360.2 156.55 357.15 157.1 351.32C157.65 345.49 163.6 294.75 165.1 282.05C167.66 260.71 168.55 199.8 167.16 184.91L110 187.91C105.59 198.16 102.21 210.83 102.33 230.91C102.42 246.18 100.98 287.57 100.98 287.57C100.98 287.57 93.8603 293.47 88.5703 305.36C83.9003 315.86 77.8803 352.36 77.8803 352.36C77.4098 353.948 76.8215 355.499 76.1203 357C74.8319 358.481 74.0629 360.342 73.9303 362.3C73.7624 368.639 74.2686 374.978 75.4403 381.21C76.0503 384.44 78.0003 386.55 81.1603 387.91C81.8628 388.216 82.6243 388.363 83.3903 388.34C83.7871 388.346 84.1732 388.212 84.4803 387.96C85.0403 387.43 84.5803 386.14 84.4803 385.49C84.3437 384.449 84.2769 383.4 84.2803 382.35C84.2803 380.29 84.4003 377.77 84.5903 375.72C84.9829 371.107 85.8475 366.547 87.1703 362.11L88.3403 359.5C88.3403 359.5 114.41 310.22 121.76 298.24C127.6 288.83 132.28 251.86 136.76 231.7L142.18 280.31C140.379 285.302 139.005 290.437 138.07 295.66C136.8 304.66 142.22 340 143.79 352.57C144.085 354.897 144.052 357.253 143.69 359.57C144.22 365.02 148.25 366.8 152.38 369.98C154.44 371.56 163.5 377.4 169.03 378.67C173.53 379.67 175.3 378 175.97 376.74C170.122 372.909 164.716 368.441 159.85 363.42Z" fill="#FFA8A7"/>
<path d="M68.8101 364.05C68.3225 364.339 67.9018 364.728 67.576 365.192C67.2502 365.655 67.0266 366.183 66.9201 366.74C66.5301 368.66 67.0301 371.22 67.6701 373.74C68.3101 376.26 68.2201 381.63 67.9701 385.54C67.7073 389.249 68.7705 392.931 70.9701 395.93C73.0301 398.61 76.6801 400.61 81.4201 400.78C86.1601 400.95 88.6301 400.31 90.4201 399.37C92.2101 398.43 92.9801 393.63 90.0201 392.52C87.0601 391.41 76.9001 389.52 74.7101 380.11C73.4086 374.535 71.4271 369.141 68.8101 364.05Z" fill="#263238"/>
<path d="M76.1201 357C76.4824 358.1 76.6582 359.252 76.6401 360.41C76.8164 361.368 76.9267 362.337 76.9701 363.31C76.9701 364.17 77.1201 365.2 77.9101 365.53C78.2332 365.626 78.5771 365.626 78.9002 365.53C79.2233 365.434 79.5116 365.246 79.7301 364.99C80.1524 364.465 80.5463 363.917 80.9101 363.35C81.3435 362.785 81.8973 362.324 82.5313 362C83.1653 361.676 83.8635 361.498 84.5751 361.477C85.2868 361.457 85.994 361.596 86.6453 361.884C87.2965 362.171 87.8755 362.6 88.3401 363.14L87.9901 363.94C85.214 370.761 84.6064 378.271 86.2501 385.45C86.5434 386.845 87.3057 388.098 88.4101 389C89.3547 389.737 90.2438 390.542 91.0701 391.41C91.4833 391.849 91.7965 392.372 91.9882 392.943C92.1798 393.515 92.2453 394.121 92.1801 394.72C91.9834 395.617 91.4593 396.409 90.7101 396.94C89.9682 397.464 89.1433 397.86 88.2701 398.11C84.0733 399.495 79.5059 399.227 75.5001 397.36C73.8098 396.467 72.3617 395.176 71.2801 393.6C69.0201 389.41 69.3901 385.48 69.4501 381.92C69.5901 374.06 68.4501 369.97 67.8701 366.02C67.2301 361.2 74.6501 356.2 76.1201 357Z" fill="#455A64"/>
<path d="M141.43 371.07C141.15 372.92 140.96 373.74 143.23 375.45C145.5 377.16 149.01 378.37 151.73 379.45C154.45 380.53 158.28 383.6 159.93 385.14C161.58 386.68 167.99 389.45 173.21 389.28C178.43 389.11 181.46 387.93 182.72 386.81C183.98 385.69 185.29 381.74 181.95 380.65C178.61 379.56 141.43 371.07 141.43 371.07Z" fill="#263238"/>
<path d="M143.8 358.001C143.631 358.039 143.475 358.121 143.347 358.239C143.219 358.356 143.123 358.505 143.07 358.671C142.59 360.141 142.57 361.831 142.22 363.341C141.69 365.711 141.09 369.111 141.43 371.031C141.77 372.951 144.3 374.871 149.11 376.371C152 377.281 157.11 379.931 159.47 382.161C162.32 384.891 168.47 387.261 172.71 387.501C177.65 387.781 182.84 386.591 184.12 383.071C184.66 381.581 184.38 379.271 178.12 376.071C178.12 376.071 173.35 373.511 171.56 372.331C168.409 370.329 165.45 368.039 162.72 365.491C161.731 364.536 160.822 363.503 160 362.401C159.57 361.888 159.185 361.34 158.85 360.761C158.479 359.696 158.234 358.592 158.12 357.471C158.076 357.115 157.953 356.773 157.76 356.471C157.498 356.161 157.15 355.935 156.76 355.821C155.82 355.468 154.805 355.36 153.812 355.507C152.818 355.653 151.878 356.049 151.079 356.657C150.28 357.265 149.648 358.066 149.243 358.985C148.837 359.904 148.671 360.91 148.76 361.911C148.42 362.081 148 361.761 147.89 361.391C147.835 361.01 147.805 360.626 147.8 360.241C147.715 359.832 147.525 359.452 147.248 359.14C146.97 358.828 146.616 358.594 146.22 358.461C145.47 358.093 144.634 357.934 143.8 358.001Z" fill="#455A64"/>
<path d="M134.06 247C134.78 241.56 136.55 234.16 136.55 234.16L138.05 246.8L141.27 279.63C140.157 282.689 139.215 285.807 138.45 288.97C136.82 295.31 137 305.97 138 312.97C139 319.97 141.14 332.51 141.14 332.51C151.34 338.18 159.33 332.85 159.33 332.85C159.33 332.85 161.7 318.73 164.16 298.37C166.62 278.01 167.76 257.82 168.34 240.87C168.34 240.87 170.97 198.7 164.58 169.98C156.03 175.67 131.06 176.2 121.21 167.98C121.21 167.98 117 174.54 107.81 189.19C100.59 200.69 102.13 219.51 101.6 235.19C100.78 259.39 100.2 286.72 100.2 286.72C96.9114 290.199 93.9521 293.976 91.3601 298C86.7601 305 84.0801 320.72 84.0801 320.72C84.0801 320.72 88.2901 330.31 103.49 331.12C103.49 331.12 118.97 304.6 122.84 298.59C126.71 292.58 133.34 252.43 134.06 247Z" fill="#37474F"/>
<path d="M136.55 234.161L142.66 212.941C142.66 212.941 153.32 212.081 161.76 206.221C161.76 206.221 159.85 213.991 145.15 215.901L138.29 236.711V249.591L136.55 234.161Z" fill="#263238"/>
<path d="M171.23 132.291C165.91 123.571 155.06 115.111 151.54 112.171L130.63 111.771C126.52 111.881 120.49 112.251 120.49 112.251C116.08 114.461 116.15 119.871 115.87 124.971C115.55 130.571 115.46 133.031 116.76 142.321L119.26 154.191L119.64 156.011C119.71 156.321 119.77 156.641 119.84 157.011C120.8 161.559 120.09 166.302 117.84 170.371C112.84 179.371 106.97 186.141 105.17 193.771C107.914 193.083 110.437 191.706 112.5 189.771C115.66 186.901 117.56 185.581 120.12 182.161C120.12 182.161 120.23 187.361 125.21 194.311C126.487 196.093 127.959 197.726 129.6 199.181C138.66 207.181 166.46 211.281 168.01 186.991C168.01 186.991 165.34 171.571 164.96 166.401C165.86 161.971 168.39 154.321 168.49 152.611C175 147.001 175.11 138.641 171.23 132.291Z" fill="#0CB8B6"/>
<path d="M130.82 116C132.82 118.42 137.71 123.81 142.28 124.74C147.65 125.83 153.18 125.37 154.55 122.06C155.92 118.75 153.29 114.75 150.87 112.18L130.63 111.79H129.16C129.09 112.16 128.56 113.19 130.82 116Z" fill="#455A64"/>
<path opacity="0.3" d="M116.16 137.68C116.32 139.02 116.51 140.55 116.76 142.32L119.26 154.19L119.64 156.01C119.71 156.32 119.77 156.64 119.84 157.01C120.127 158.492 120.254 160.001 120.22 161.51C140.68 168.39 157.22 164.83 166.15 161.51C167.15 157.7 168.4 153.75 168.47 152.58C170.704 150.735 172.348 148.277 173.199 145.508C174.051 142.739 174.072 139.781 173.26 137C168.5 139.45 161.46 140.92 154.18 141.6C141.372 142.81 128.452 141.478 116.16 137.68Z" fill="black"/>
<path opacity="0.1" d="M158.41 151.361C158.41 151.361 151.41 157.251 143.02 154.641C140.677 153.991 138.542 152.749 136.818 151.034C135.095 149.319 133.842 147.19 133.18 144.851C133.18 144.851 132.66 154.321 143.18 157.151C153.36 159.871 158.41 151.361 158.41 151.361Z" fill="black"/>
<path d="M222.6 187.341C222.406 187.11 222.149 186.94 221.86 186.851C211.4 182.721 199.7 186.461 190.59 185.331L190.73 188.451C195.06 191.121 200.41 191.621 205.48 191.221C210.55 190.821 215.53 189.631 220.6 189.171C221.153 189.178 221.698 189.04 222.18 188.771C222.419 188.63 222.595 188.404 222.673 188.139C222.751 187.873 222.725 187.588 222.6 187.341Z" fill="#F28F8F"/>
<path d="M149.15 189.56C146.54 188.96 141.55 186.85 139.78 184.5C136.6 180.27 110.05 139.96 108.42 128.88C107.11 119.96 111.3 112.08 120.49 112.25C126.41 116.55 132.24 132.96 132.24 132.96L153.24 171.51C160.65 174.97 186.58 183.51 191.15 184.91C195.72 186.31 205.04 185.29 211.26 187.27C217.48 189.25 233.2 195.78 230.03 198.73C227.6 200.97 224.98 203.19 220.61 203.51C215.24 203.89 214.61 201.77 209.22 201.64C203.83 201.51 199.34 203.13 193.66 200.92C190.07 199.52 189.91 198.7 184.91 197.49C179.91 196.28 152.53 190.33 149.15 189.56Z" fill="#FFA8A7"/>
<path d="M123.12 112.09C118.48 111.29 112.12 111.98 108.22 117.94C104.32 123.9 107.75 132.17 110.22 137.7C112.69 143.23 120.78 156 120.78 156C120.78 156 138.31 154.73 141.62 145.94C141.62 145.91 130.93 123.08 123.12 112.09Z" fill="#455A64"/>
<path d="M161.46 62.4199C164.36 64.3099 167.7 71.9599 166.64 87.6299C165.74 100.91 161.29 104 159.08 104.85C156.87 105.7 152.73 104.94 148.7 104.09L148.34 112.09C148.34 112.09 153.34 116.28 152.81 119.92C152.28 123.56 144.1 124.57 139.01 120.76C136.165 118.718 133.65 116.253 131.55 113.45L132.47 92.7699C132.47 92.7699 129.69 95.6299 125.34 92.4499C124.454 91.8051 123.716 90.9776 123.177 90.0232C122.638 89.0688 122.31 88.0099 122.215 86.9178C122.12 85.8258 122.261 84.7261 122.627 83.6931C122.994 82.6601 123.578 81.7178 124.34 80.9299C127.06 78.3999 131.96 79.9999 132.84 83.6999C132.84 83.6999 138.62 83.5999 147.17 78.6999C156.47 73.4399 158.9 67.8999 161.46 62.4199Z" fill="#FFA8A7"/>
<path d="M149.56 83.2007C149.548 83.5278 149.441 83.8441 149.251 84.1106C149.061 84.377 148.796 84.5817 148.491 84.6992C148.186 84.8168 147.852 84.842 147.533 84.7717C147.213 84.7015 146.921 84.5389 146.693 84.3041C146.465 84.0693 146.311 83.7727 146.25 83.4512C146.189 83.1296 146.224 82.7972 146.351 82.4954C146.477 82.1935 146.69 81.9355 146.962 81.7533C147.233 81.5712 147.553 81.4729 147.88 81.4707C148.105 81.472 148.327 81.518 148.533 81.606C148.74 81.694 148.927 81.8223 149.083 81.9833C149.239 82.1444 149.362 82.335 149.444 82.544C149.526 82.753 149.565 82.9763 149.56 83.2007Z" fill="#263238"/>
<path d="M151 94.8506L155.74 96.5906C155.64 96.9088 155.476 97.2035 155.26 97.457C155.043 97.7106 154.777 97.9178 154.478 98.0662C154.18 98.2147 153.854 98.3013 153.521 98.321C153.188 98.3406 152.854 98.2929 152.54 98.1806C151.903 97.9314 151.388 97.4458 151.101 96.8252C150.814 96.2046 150.778 95.4971 151 94.8506Z" fill="#F28F8F"/>
<path d="M164.4 79.0002L161.12 76.5002C161.274 76.282 161.47 76.0968 161.697 75.9556C161.924 75.8144 162.176 75.7201 162.44 75.6781C162.704 75.6362 162.973 75.6475 163.233 75.7114C163.492 75.7753 163.736 75.8905 163.95 76.0502C164.388 76.3911 164.679 76.8869 164.763 77.4356C164.846 77.9843 164.717 78.5443 164.4 79.0002Z" fill="#263238"/>
<path d="M163.44 82.9305C163.447 83.1541 163.409 83.3768 163.329 83.5857C163.249 83.7946 163.128 83.9855 162.974 84.1474C162.819 84.3092 162.634 84.4388 162.429 84.5286C162.224 84.6184 162.004 84.6667 161.78 84.6705C161.433 84.6865 161.089 84.5982 160.792 84.417C160.496 84.2358 160.261 83.9699 160.117 83.6537C159.972 83.3375 159.926 82.9854 159.984 82.6428C160.042 82.3002 160.201 81.9827 160.441 81.7313C160.681 81.4799 160.99 81.3061 161.33 81.2322C161.67 81.1583 162.023 81.1878 162.346 81.3168C162.669 81.4458 162.945 81.6684 163.14 81.9561C163.335 82.2437 163.44 82.5831 163.44 82.9305Z" fill="#263238"/>
<path d="M155.32 81.6104L155.13 91.6804L160.5 90.2803L155.32 81.6104Z" fill="#F28F8F"/>
<path d="M148.7 104.09C144.45 103.33 135.76 100.42 134.55 96.8799C135.02 98.6622 136.025 100.257 137.43 101.45C139.96 103.82 148.58 106.75 148.58 106.75L148.7 104.09Z" fill="#F28F8F"/>
<path d="M207.06 104.44C206.67 96.9304 208.8 94.7304 211.48 92.9304C214.16 91.1304 224.07 88.5604 226.12 89.2804C228.17 90.0004 238.91 95.2804 238.4 100.49C237.89 105.7 233 107 227.59 105.76C222.18 104.52 212.88 98.4004 210.89 99.2704C208.9 100.14 207.06 104.44 207.06 104.44Z" fill="#FFA8A7"/>
<path d="M331.34 111.71C333.27 110.84 336.13 112.1 340.53 111.19C344.93 110.28 347.87 108.47 350.45 108.26C353.03 108.05 354.12 107.26 351.5 105.81C348.88 104.36 344.31 104.97 343.4 104.62C344.796 103.726 346.32 103.052 347.92 102.62C351.673 101.955 355.458 101.485 359.26 101.21C359.47 101.21 360.86 98.96 354.37 98.06C347.88 97.16 338.37 98.55 334.81 100.44C331.25 102.33 331.34 111.71 331.34 111.71Z" fill="#B16668"/>
<path d="M76.6504 91.87C76.6731 92.2599 76.5812 92.6479 76.386 92.9862C76.1907 93.3244 75.9007 93.5981 75.5517 93.7734C75.2027 93.9488 74.81 94.0181 74.4221 93.9729C74.0342 93.9276 73.668 93.7698 73.3687 93.5188C73.0694 93.2679 72.8502 92.9348 72.7381 92.5607C72.6259 92.1866 72.6257 91.7878 72.7376 91.4136C72.8494 91.0394 73.0684 90.7061 73.3674 90.4549C73.6665 90.2037 74.0325 90.0456 74.4204 90C74.6911 89.9682 74.9654 89.992 75.2265 90.0701C75.4877 90.1481 75.7301 90.2787 75.9389 90.4538C76.1477 90.629 76.3186 90.8449 76.4409 91.0884C76.5633 91.332 76.6346 91.5979 76.6504 91.87Z" fill="#0CB8B6"/>
<path d="M81.18 75.3399L84.28 77.8799L88.12 76.7599C88.2014 76.7346 88.2884 76.733 88.3708 76.7553C88.4532 76.7775 88.5275 76.8227 88.5851 76.8856C88.6428 76.9485 88.6814 77.0265 88.6964 77.1104C88.7114 77.1944 88.7022 77.281 88.67 77.3599L87.22 81.0899L89.47 84.3999C89.5196 84.4695 89.5484 84.5519 89.5529 84.6373C89.5575 84.7226 89.5376 84.8076 89.4956 84.8821C89.4537 84.9566 89.3913 85.0176 89.316 85.0579C89.2406 85.0983 89.1552 85.1163 89.07 85.1099L85.07 84.8899L82.62 88.0499C82.5672 88.1154 82.4975 88.1652 82.4184 88.1939C82.3394 88.2226 82.2539 88.229 82.1715 88.2125C82.089 88.196 82.0126 88.1572 81.9506 88.1003C81.8887 88.0435 81.8435 87.9707 81.82 87.8899L80.8 83.9999L77 82.6599C76.9211 82.6305 76.8518 82.58 76.7997 82.514C76.7475 82.4479 76.7145 82.3688 76.7042 82.2853C76.6938 82.2017 76.7066 82.117 76.7412 82.0402C76.7757 81.9634 76.8306 81.8976 76.9 81.8499L80.27 79.6799L80.4 75.6799C80.3926 75.5865 80.4145 75.4932 80.4627 75.4129C80.5108 75.3325 80.5829 75.2693 80.6687 75.2318C80.7546 75.1944 80.85 75.1847 80.9417 75.2041C81.0333 75.2234 81.1166 75.2709 81.18 75.3399Z" fill="#0CB8B6"/>
<path d="M438.27 93.2695C438.889 93.319 439.467 93.6029 439.884 94.0632C440.301 94.5235 440.527 95.1257 440.515 95.7468C440.504 96.3679 440.256 96.9613 439.822 97.4059C439.388 97.8505 438.801 98.1129 438.18 98.1395C437.847 98.1537 437.515 98.0997 437.204 97.9808C436.893 97.8619 436.61 97.6805 436.372 97.4479C436.133 97.2153 435.945 96.9364 435.819 96.6284C435.692 96.3203 435.63 95.9896 435.636 95.6566C435.642 95.3237 435.717 94.9955 435.854 94.6923C435.992 94.3891 436.19 94.1174 436.437 93.8937C436.684 93.6701 436.974 93.4994 437.289 93.392C437.604 93.2846 437.938 93.2429 438.27 93.2695Z" fill="#0CB8B6"/>
<path d="M412.05 82.4298L416.95 77.6298L415.78 70.8798C415.754 70.736 415.769 70.5877 415.823 70.4519C415.877 70.3161 415.968 70.1983 416.086 70.1117C416.204 70.0252 416.343 69.9735 416.489 69.9626C416.635 69.9516 416.781 69.9818 416.91 70.0498L423 73.2298L429.06 70.0298C429.189 69.9599 429.335 69.9278 429.481 69.9371C429.627 69.9464 429.768 69.9967 429.887 70.0823C430.006 70.1679 430.099 70.2853 430.154 70.4211C430.209 70.5568 430.225 70.7054 430.2 70.8498L429 77.6098L434 82.3898C434.104 82.4912 434.178 82.6197 434.213 82.7608C434.248 82.9019 434.242 83.0499 434.198 83.1882C434.153 83.3265 434.071 83.4495 433.96 83.5434C433.849 83.6374 433.714 83.6984 433.57 83.7198L426.79 84.7198L423.79 90.8698C423.726 91.0006 423.626 91.1107 423.502 91.1878C423.379 91.2648 423.236 91.3057 423.09 91.3057C422.944 91.3057 422.801 91.2648 422.678 91.1878C422.554 91.1107 422.454 91.0006 422.39 90.8698L419.39 84.7198L412.6 83.7198C412.454 83.7124 412.313 83.6641 412.193 83.5805C412.073 83.4968 411.979 83.3812 411.922 83.2467C411.865 83.1122 411.846 82.9643 411.869 82.8198C411.891 82.6754 411.954 82.5402 412.05 82.4298Z" fill="#0CB8B6"/>
<path d="M452.79 176.93L454.26 180.19L457.78 180.84C457.854 180.855 457.922 180.89 457.977 180.941C458.032 180.992 458.072 181.057 458.093 181.129C458.114 181.201 458.114 181.278 458.094 181.35C458.074 181.423 458.035 181.488 457.98 181.54L455.33 183.94L455.8 187.48C455.813 187.555 455.804 187.633 455.774 187.703C455.744 187.774 455.695 187.834 455.632 187.877C455.568 187.92 455.494 187.944 455.418 187.947C455.341 187.949 455.266 187.929 455.2 187.89L452.09 186.11L448.87 187.66C448.802 187.694 448.726 187.709 448.65 187.701C448.574 187.694 448.501 187.664 448.441 187.617C448.381 187.57 448.336 187.506 448.311 187.434C448.286 187.362 448.282 187.284 448.3 187.21L449.03 183.71L446.56 181.13C446.508 181.075 446.472 181.006 446.456 180.931C446.44 180.857 446.446 180.779 446.472 180.708C446.498 180.636 446.543 180.573 446.603 180.526C446.663 180.478 446.735 180.449 446.81 180.44L450.36 180.05L452.06 176.91C452.096 176.844 452.15 176.789 452.216 176.751C452.281 176.713 452.356 176.694 452.431 176.696C452.507 176.699 452.58 176.721 452.644 176.763C452.707 176.804 452.758 176.862 452.79 176.93Z" fill="#0CB8B6"/>
<path d="M60.4202 152.41L66.0002 156.33L72.4202 153.92C72.5598 153.869 72.711 153.859 72.856 153.891C73.001 153.923 73.1339 153.996 73.2389 154.101C73.344 154.206 73.4169 154.339 73.449 154.484C73.4811 154.629 73.4711 154.78 73.4202 154.92L71.4202 161.49L75.7002 166.85C75.7918 166.963 75.8499 167.1 75.8677 167.245C75.8854 167.389 75.8623 167.536 75.8009 167.669C75.7394 167.801 75.6422 167.913 75.5201 167.993C75.398 168.073 75.256 168.117 75.1102 168.12L68.2502 168.25L64.4702 173.98C64.3898 174.102 64.2767 174.198 64.1439 174.259C64.0111 174.32 63.8639 174.342 63.719 174.324C63.5742 174.305 63.4375 174.246 63.3246 174.153C63.2116 174.061 63.127 173.938 63.0802 173.8L60.8402 167.32L54.2202 165.5C54.0787 165.461 53.9509 165.384 53.8514 165.276C53.7518 165.169 53.6847 165.035 53.6575 164.891C53.6304 164.747 53.6444 164.598 53.6979 164.462C53.7515 164.325 53.8424 164.207 53.9602 164.12L59.4302 159.98L59.1202 153.13C59.0879 152.967 59.108 152.799 59.1775 152.649C59.2471 152.499 59.3626 152.375 59.5073 152.295C59.6519 152.215 59.8184 152.183 59.9825 152.203C60.1466 152.224 60.2999 152.296 60.4202 152.41Z" fill="#0CB8B6"/>
<path d="M443.4 190.15C443.461 190.524 443.371 190.907 443.149 191.214C442.928 191.522 442.594 191.729 442.22 191.79C441.845 191.848 441.463 191.755 441.155 191.532C440.848 191.309 440.642 190.974 440.58 190.6C440.523 190.226 440.616 189.845 440.839 189.539C441.062 189.234 441.397 189.029 441.77 188.97C441.955 188.939 442.144 188.945 442.326 188.987C442.509 189.03 442.681 189.108 442.833 189.218C442.984 189.328 443.113 189.467 443.21 189.627C443.308 189.787 443.372 189.965 443.4 190.15Z" fill="#0CB8B6"/>
<path d="M81.0004 158.86C81.0528 159.177 81.0101 159.503 80.8777 159.796C80.7453 160.089 80.5292 160.337 80.2564 160.507C79.9837 160.678 79.6666 160.764 79.345 160.754C79.0235 160.745 78.7119 160.641 78.4495 160.455C78.187 160.269 77.9855 160.009 77.8703 159.709C77.7551 159.409 77.7314 159.081 77.802 158.767C77.8727 158.453 78.0347 158.167 78.2675 157.945C78.5003 157.723 78.7936 157.575 79.1104 157.52C79.3226 157.482 79.5401 157.488 79.7503 157.535C79.9605 157.582 80.1592 157.671 80.335 157.795C80.5107 157.92 80.66 158.078 80.7743 158.261C80.8885 158.444 80.9654 158.647 81.0004 158.86Z" fill="#0CB8B6"/>
</svg>
