<svg width="318" height="318" viewBox="0 0 318 318" fill="none" xmlns="http://www.w3.org/2000/svg">
<g clip-path="url(#clip0_870_2260)">
<path d="M171.275 268.239C253.38 268.239 319.94 232.682 319.94 188.819C319.94 144.956 253.38 109.398 171.275 109.398C89.17 109.398 22.6106 144.956 22.6106 188.819C22.6106 232.682 89.17 268.239 171.275 268.239Z" fill="#F5F5F5"/>
<path d="M111.449 233.029L64.0493 205.47L144.222 159.137L111.449 233.029Z" fill="#E0E0E0"/>
<path d="M43.0303 203.778L62.3443 214.914C62.7457 215.118 63.1895 215.224 63.6397 215.224C64.0898 215.224 64.5336 215.118 64.935 214.914L91.575 199.37C91.7318 199.318 91.8682 199.217 91.9648 199.084C92.0615 198.95 92.1135 198.789 92.1135 198.624C92.1135 198.458 92.0615 198.298 91.9648 198.164C91.8682 198.03 91.7318 197.93 91.575 197.878L72.261 186.735C71.8596 186.532 71.4158 186.426 70.9657 186.426C70.5155 186.426 70.0717 186.532 69.6703 186.735L43.0303 202.28C42.8743 202.334 42.7391 202.435 42.6433 202.569C42.5476 202.703 42.4961 202.864 42.4961 203.029C42.4961 203.194 42.5476 203.355 42.6433 203.489C42.7391 203.624 42.8743 203.725 43.0303 203.778Z" fill="#E0E0E0"/>
<path d="M45.1215 202.046C43.7895 199.902 39.6803 197.544 34.2857 196.379C28.8911 195.213 23.4699 193.788 24.7086 190.638C26.0406 187.261 31.0623 187.095 35.9707 189.106C41.332 191.304 45.2947 196.738 45.368 200.162L45.1215 202.046Z" fill="#0CB8B6"/>
<g opacity="0.1">
<path d="M45.1215 202.046C43.7895 199.902 39.6803 197.544 34.2857 196.379C28.8911 195.213 23.4699 193.788 24.7086 190.638C26.0406 187.261 31.0623 187.095 35.9707 189.106C41.332 191.304 45.2947 196.738 45.368 200.162L45.1215 202.046Z" fill="black"/>
</g>
<path d="M45.5411 201.074C45.4652 201.074 45.3911 201.051 45.3274 201.01C45.2637 200.969 45.2131 200.91 45.1814 200.841C40.8991 191.983 30.969 190.551 27.8654 191.038C27.7596 191.053 27.6519 191.026 27.5659 190.962C27.4798 190.899 27.4223 190.804 27.4059 190.698C27.3974 190.646 27.3992 190.593 27.4114 190.541C27.4235 190.49 27.4457 190.442 27.4767 190.399C27.5076 190.356 27.5467 190.32 27.5917 190.292C27.6368 190.265 27.6868 190.246 27.7389 190.238C31.0289 189.732 41.4518 191.217 45.934 200.495C45.9801 200.591 45.9864 200.702 45.9515 200.803C45.9166 200.904 45.8433 200.987 45.7475 201.034C45.683 201.064 45.6121 201.078 45.5411 201.074Z" fill="white"/>
<path d="M45.1215 202.047C45.1215 202.047 42.5441 191.837 36.0106 186.349C34.0725 184.717 32.0146 182.673 30.5561 181.267C27.4525 178.244 28.7512 174.947 33.0469 175.014C39.4405 175.1 44.1158 180.482 46.1405 187.521C48.1651 194.561 45.1215 202.047 45.1215 202.047Z" fill="#0CB8B6"/>
<path d="M46.1405 198.084C46.0393 198.085 45.9416 198.048 45.8665 197.98C45.7913 197.912 45.7442 197.819 45.7342 197.718C44.5354 184.731 34.6253 178.204 31.928 177.512C31.8247 177.485 31.7361 177.419 31.6818 177.327C31.6275 177.235 31.6118 177.125 31.6383 177.022C31.6648 176.919 31.7313 176.83 31.8231 176.776C31.9149 176.721 32.0245 176.706 32.1278 176.732C35.4046 177.571 45.308 184.345 46.5401 197.645C46.5494 197.751 46.5161 197.858 46.4474 197.94C46.3788 198.022 46.2805 198.074 46.1738 198.084H46.1405Z" fill="white"/>
<path d="M62.9969 213.274L44.8018 202.765L44.7952 163.737L62.9969 174.247V213.274Z" fill="#263238"/>
<path d="M62.9971 174.247L88.9977 159.235V198.263L62.9971 213.275V174.247Z" fill="#37474F"/>
<path d="M88.9976 159.236L62.9969 174.248L44.7952 163.738L70.8025 148.727L88.9976 159.236Z" fill="#455A64"/>
<path d="M74.2324 173.769L77.7689 171.725C78.2284 171.458 78.6014 171.578 78.6014 171.998C78.5676 172.253 78.4747 172.496 78.3302 172.709C78.1857 172.922 77.9935 173.098 77.7689 173.223L74.2324 175.268C73.7729 175.534 73.3999 175.414 73.3999 174.995C73.4337 174.74 73.5265 174.496 73.6711 174.283C73.8156 174.071 74.0078 173.895 74.2324 173.769Z" fill="#263238"/>
<path d="M65.1216 194.041L85.9208 182.033L86.4003 182.306L85.9208 196.485L86.4003 196.765L65.6011 208.773L65.1216 208.493V194.041Z" fill="#263238"/>
<path d="M65.6011 194.315L86.4003 182.307V196.765L65.6011 208.773V194.315Z" fill="#455A64"/>
<path d="M73.7529 192.057L77.2894 190.019C77.7489 189.752 78.1219 189.872 78.1219 190.285C78.0886 190.541 77.996 190.786 77.8515 191C77.7069 191.214 77.5145 191.391 77.2894 191.517L73.7529 193.562C73.2934 193.828 72.9204 193.702 72.9204 193.289C72.9547 193.033 73.0477 192.789 73.1921 192.575C73.3365 192.361 73.5285 192.184 73.7529 192.057Z" fill="#263238"/>
<path d="M65.1216 176.059L85.9208 164.051L86.4003 164.324L85.9208 178.503L86.4003 178.783L65.6011 190.791L65.1216 190.511V176.059Z" fill="#263238"/>
<path d="M65.6011 176.332L86.4003 164.324V178.783L65.6011 190.791V176.332Z" fill="#455A64"/>
<path d="M73.7529 174.074L77.2894 172.036C77.7489 171.77 78.1219 171.89 78.1219 172.303C78.0886 172.559 77.996 172.803 77.8515 173.017C77.7069 173.231 77.5145 173.409 77.2894 173.535L73.7529 175.58C73.2934 175.846 72.9204 175.719 72.9204 175.306C72.9547 175.051 73.0477 174.807 73.1921 174.593C73.3365 174.379 73.5285 174.202 73.7529 174.074Z" fill="#263238"/>
<path d="M62.9969 172.589L44.8018 162.079L44.7952 123.045L62.9969 133.554V172.589Z" fill="#263238"/>
<path d="M62.9971 133.555L88.9977 118.543V157.577L62.9971 172.589V133.555Z" fill="#37474F"/>
<path d="M88.9976 118.544L62.9969 133.555L44.7952 123.046L70.8025 108.034L88.9976 118.544Z" fill="#455A64"/>
<path d="M65.6011 135.053L86.4003 123.045L86.8798 123.325V137.777L66.0806 149.791L65.6011 149.512V135.053Z" fill="#263238"/>
<path d="M74.2324 133.076L77.7689 131.032C78.2284 130.765 78.6014 130.892 78.6014 131.305C78.5671 131.56 78.4741 131.805 78.3297 132.018C78.1852 132.232 77.9933 132.409 77.7689 132.537L74.2324 134.575C73.7729 134.841 73.3999 134.721 73.3999 134.308C73.4332 134.052 73.5258 133.808 73.6703 133.594C73.8148 133.38 74.0073 133.203 74.2324 133.076Z" fill="#263238"/>
<path d="M65.1216 153.349L85.9208 141.341V155.8L86.4003 156.073L65.6011 168.081L65.1216 167.808V153.349Z" fill="#263238"/>
<path d="M65.6011 153.629L86.4003 141.614V156.073L65.6011 168.081V153.629Z" fill="#455A64"/>
<path d="M73.7529 151.371L77.2894 149.326C77.7489 149.06 78.1219 149.18 78.1219 149.599C78.0881 149.854 77.9953 150.098 77.8507 150.31C77.7062 150.523 77.514 150.699 77.2894 150.825L73.7529 152.869C73.2934 153.136 72.9204 153.016 72.9204 152.596C72.9542 152.341 73.047 152.098 73.1916 151.885C73.3361 151.672 73.5283 151.496 73.7529 151.371Z" fill="#263238"/>
<path d="M65.6011 135.053L86.4003 123.045V137.504L65.6011 149.512V135.053Z" fill="#263238"/>
<path d="M96.8032 130.186L85.4146 123.619V136.353L96.8032 142.926V130.186Z" fill="#263238"/>
<path d="M73.3999 151.57V133.555L77.8621 130.971L78.6014 132.056L91.6017 124.544V141.061L73.3999 151.57Z" fill="#0CB8B6"/>
<g opacity="0.2">
<path d="M73.3999 151.57V133.555L77.8621 130.971L78.6014 132.056L91.6017 124.544V141.061L73.3999 151.57Z" fill="black"/>
</g>
<path d="M73.3999 151.571L74.6986 135.806L92.9004 125.297L91.6017 141.061L73.3999 151.571Z" fill="#0CB8B6"/>
<path d="M75.9971 142.199L66.0737 136.472V149.206L75.9971 154.933V142.199Z" fill="#37474F"/>
<path d="M75.9973 141.062L96.8032 129.054V143.506L75.9973 155.521V141.062Z" fill="#455A64"/>
<path d="M84.1557 138.804L87.6922 136.759C88.1517 136.493 88.5247 136.619 88.5247 137.032C88.4904 137.288 88.3974 137.532 88.253 137.746C88.1086 137.96 87.9166 138.137 87.6922 138.264L84.1557 140.302C83.6962 140.569 83.3232 140.449 83.3232 140.036C83.3575 139.78 83.4505 139.536 83.595 139.322C83.7394 139.108 83.9313 138.931 84.1557 138.804Z" fill="#263238"/>
<path d="M75.9973 141.062L75.3047 140.662V155.121L75.9973 155.521V141.062Z" fill="#263238"/>
<path d="M75.3047 140.662L96.1105 128.654L96.8032 129.054L75.9973 141.062L75.3047 140.662Z" fill="#37474F"/>
<path d="M249.75 36.813L247.046 35.2412L109.058 114.895V230.266C109.021 230.623 109.079 230.984 109.226 231.311C109.374 231.639 109.605 231.921 109.897 232.131L112.601 233.703C112.929 233.853 113.291 233.914 113.65 233.879C114.009 233.844 114.353 233.714 114.645 233.503L246.846 157.159C247.686 156.612 248.384 155.874 248.885 155.006C249.386 154.138 249.675 153.165 249.73 152.164L249.75 36.813Z" fill="#E6E6E6"/>
<path d="M111.761 231.837C111.761 233.675 113.047 234.421 114.645 233.502L246.846 157.159C247.685 156.611 248.384 155.873 248.885 155.006C249.386 154.138 249.675 153.164 249.73 152.164V36.8125L111.761 116.473V231.837Z" fill="#FAFAFA"/>
<path d="M249.084 37.9452V152.177C249.03 153.062 248.771 153.921 248.328 154.688C247.886 155.455 247.271 156.11 246.533 156.6L114.332 232.923C114.044 233.106 113.714 233.211 113.373 233.23C112.534 233.23 112.448 232.257 112.448 231.838V116.853L249.084 37.9452ZM249.75 36.793L111.762 116.473V231.838C111.762 233.17 112.428 233.896 113.353 233.896C113.811 233.878 114.256 233.743 114.645 233.503L246.847 157.159C247.686 156.612 248.384 155.874 248.885 155.006C249.386 154.138 249.676 153.165 249.73 152.164V36.813L249.75 36.793Z" fill="#E0E0E0"/>
<path d="M111.761 116.473V128.96L249.73 49.3V36.8125L111.761 116.473Z" fill="#0CB8B6"/>
<path d="M198.328 71.3856V74.0496C198.328 74.5957 198.721 74.8221 199.194 74.5491L241.612 50.0536V45.3916L199.194 69.9137C198.947 70.0763 198.74 70.2936 198.59 70.5488C198.44 70.804 198.35 71.0903 198.328 71.3856Z" fill="#FAFAFA"/>
<path d="M246.16 42.7734C246.64 42.4936 247.026 42.7201 247.026 43.2729V45.9369C247.01 46.2373 246.924 46.5297 246.773 46.7901C246.623 47.0506 246.413 47.2717 246.16 47.4354L241.612 50.0594V45.3974L246.16 42.7734Z" fill="#455A64"/>
<path d="M245.827 46.4571L245.315 46.2972C245.371 46.0797 245.4 45.856 245.401 45.6312C245.424 45.4264 245.393 45.2191 245.311 45.0299C245.229 44.8407 245.1 44.6761 244.935 44.5523C244.823 44.4861 244.695 44.4512 244.565 44.4512C244.435 44.4512 244.308 44.4861 244.196 44.5523C243.873 44.8001 243.613 45.1203 243.437 45.4871C243.262 45.8538 243.175 46.2569 243.183 46.6635C243.159 46.8685 243.19 47.0762 243.271 47.2657C243.353 47.4551 243.484 47.6196 243.65 47.7425C243.746 47.8011 243.857 47.8311 243.969 47.829C244.115 47.8259 244.257 47.7846 244.382 47.7092C244.77 47.4445 245.059 47.0577 245.201 46.6103L245.714 46.7701H245.754C245.794 46.7708 245.832 46.7589 245.865 46.7362C245.897 46.7134 245.921 46.681 245.934 46.6436C245.937 46.6054 245.928 46.5673 245.909 46.5341C245.89 46.5009 245.862 46.4741 245.827 46.4571ZM244.196 47.4294C244.145 47.4683 244.084 47.492 244.021 47.4979C243.957 47.5038 243.893 47.4916 243.836 47.4627C243.733 47.3689 243.654 47.2513 243.606 47.1202C243.559 46.9891 243.544 46.8484 243.563 46.7102C243.556 46.3702 243.626 46.0331 243.768 45.724C243.91 45.4149 244.12 45.1419 244.382 44.9253C244.452 44.8817 244.533 44.8565 244.615 44.852C244.663 44.8519 244.709 44.8658 244.748 44.892C244.85 44.9869 244.928 45.1045 244.976 45.2354C245.023 45.3662 245.039 45.5065 245.021 45.6446C245.027 45.985 244.955 46.3223 244.812 46.6313C244.669 46.9404 244.459 47.2132 244.196 47.4294Z" fill="#FAFAFA"/>
<path d="M246.207 27.3491C245.879 27.1883 245.513 27.1207 245.149 27.1536C244.785 27.1865 244.437 27.3186 244.142 27.5356L111.941 103.879C111.101 104.426 110.402 105.163 109.901 106.031C109.4 106.899 109.111 107.873 109.058 108.874V114.915L111.762 116.493L249.75 36.8129V30.7723C249.791 30.4164 249.735 30.0561 249.588 29.7292C249.442 29.4023 249.21 29.1208 248.918 28.9142C248.418 28.6211 246.68 27.6355 246.207 27.3491Z" fill="#263238"/>
<path d="M111.762 110.433C111.814 109.431 112.102 108.457 112.603 107.589C113.105 106.72 113.804 105.983 114.645 105.438L246.847 29.1074C248.438 28.1883 249.73 28.9342 249.73 30.7724V36.813L111.762 116.473V110.433Z" fill="#37474F"/>
<path d="M248.924 28.9272C248.595 28.7629 248.227 28.6928 247.86 28.7245C247.493 28.7562 247.143 28.8886 246.846 29.1071L114.645 105.431C113.794 105.962 113.092 106.703 112.607 107.582L109.89 106.017C110.377 105.135 111.081 104.393 111.935 103.859L244.142 27.5286C244.437 27.3127 244.786 27.1818 245.15 27.1501C245.514 27.1184 245.879 27.1871 246.207 27.3488C246.68 27.6352 248.411 28.6275 248.871 28.9073L248.924 28.9272Z" fill="#455A64"/>
<path d="M233.5 39.9434C233.11 40.2026 232.786 40.5498 232.555 40.9569C232.323 41.3641 232.191 41.82 232.168 42.2878C232.168 43.1469 232.774 43.4999 233.5 43.067C233.89 42.8078 234.214 42.4607 234.445 42.0535C234.676 41.6463 234.809 41.1904 234.832 40.7227C234.852 39.8502 234.246 39.4972 233.5 39.9434Z" fill="#0CB8B6"/>
<path d="M238.235 37.2059C237.845 37.4636 237.521 37.8096 237.29 38.2157C237.058 38.6218 236.926 39.0767 236.903 39.5436C236.903 40.4094 237.509 40.7557 238.235 40.3294C238.624 40.0695 238.947 39.7222 239.179 39.3151C239.41 38.9081 239.543 38.4527 239.567 37.9851C239.587 37.1193 238.981 36.773 238.235 37.2059Z" fill="#0CB8B6"/>
<path d="M242.964 34.4752C242.574 34.7344 242.25 35.0815 242.018 35.4887C241.787 35.8959 241.655 36.3518 241.632 36.8195C241.632 37.6853 242.238 38.0316 242.964 37.5987C243.355 37.3408 243.679 36.9939 243.911 36.5864C244.142 36.179 244.274 35.7226 244.296 35.2544C244.322 34.3953 243.716 34.0423 242.964 34.4752Z" fill="#0CB8B6"/>
<path d="M114.645 233.502L138.815 219.55V113.336L111.762 128.96V231.837C111.762 233.675 113.047 234.415 114.645 233.502Z" fill="#F5F5F5"/>
<path d="M138.149 114.488V219.163L114.312 232.923C114.024 233.105 113.694 233.211 113.353 233.229C112.514 233.229 112.428 232.257 112.428 231.837V129.34L138.149 114.488ZM138.815 113.336L111.762 128.96V231.837C111.762 233.169 112.428 233.895 113.353 233.895C113.811 233.877 114.256 233.742 114.645 233.502L138.815 219.55V113.336Z" fill="#E0E0E0"/>
<path d="M120.739 130.019L133.686 122.526C134.159 122.247 134.546 122.473 134.546 123.026V124.151C134.529 124.451 134.443 124.742 134.293 125.002C134.144 125.263 133.936 125.484 133.686 125.65L120.739 133.129C120.26 133.409 119.874 133.182 119.874 132.63V131.517C119.891 131.217 119.979 130.926 120.129 130.666C120.28 130.405 120.488 130.184 120.739 130.019Z" fill="#E0E0E0"/>
<path d="M117.17 133.084V134.209C117.153 134.51 117.066 134.802 116.916 135.062C116.766 135.323 116.556 135.544 116.304 135.708L115.331 136.267C114.852 136.547 114.466 136.321 114.466 135.768V134.642C114.482 134.342 114.569 134.05 114.719 133.789C114.87 133.529 115.079 133.308 115.331 133.144L116.304 132.584C116.783 132.305 117.17 132.518 117.17 133.084Z" fill="#0CB8B6"/>
<path d="M120.739 136.247L133.686 128.768C134.159 128.488 134.546 128.714 134.546 129.261V130.386C134.529 130.686 134.443 130.979 134.294 131.24C134.144 131.501 133.937 131.724 133.686 131.891L120.739 139.37C120.26 139.643 119.874 139.424 119.874 138.871V137.745C119.89 137.445 119.977 137.153 120.128 136.893C120.278 136.633 120.488 136.411 120.739 136.247Z" fill="#E0E0E0"/>
<path d="M117.17 139.303V140.429C117.154 140.729 117.067 141.021 116.917 141.282C116.766 141.542 116.556 141.763 116.304 141.927L115.331 142.493C114.852 142.766 114.466 142.547 114.466 141.994V140.868C114.481 140.568 114.568 140.275 114.718 140.015C114.869 139.755 115.079 139.533 115.331 139.37L116.304 138.804C116.783 138.511 117.17 138.75 117.17 139.303Z" fill="#0CB8B6"/>
<path d="M120.739 142.467L133.686 134.988C134.159 134.715 134.546 134.935 134.546 135.488V136.613C134.53 136.913 134.444 137.205 134.295 137.465C134.146 137.725 133.937 137.947 133.686 138.112L120.739 145.591C120.26 145.871 119.874 145.644 119.874 145.098V143.966C119.892 143.666 119.98 143.375 120.13 143.115C120.28 142.855 120.489 142.633 120.739 142.467Z" fill="#E0E0E0"/>
<path d="M117.17 145.531V146.656C117.154 146.957 117.067 147.249 116.917 147.509C116.766 147.77 116.556 147.991 116.304 148.155L115.331 148.721C114.852 148.994 114.466 148.767 114.466 148.221V147.089C114.483 146.789 114.57 146.497 114.721 146.237C114.871 145.977 115.08 145.755 115.331 145.591L116.304 145.031C116.783 144.758 117.17 144.978 117.17 145.531Z" fill="#0CB8B6"/>
<path d="M120.739 163.113L133.686 155.627C134.159 155.354 134.546 155.574 134.546 156.126V157.252C134.53 157.552 134.444 157.843 134.295 158.104C134.146 158.364 133.937 158.586 133.686 158.75L120.739 166.236C120.26 166.509 119.874 166.29 119.874 165.737V164.611C119.89 164.311 119.977 164.019 120.128 163.759C120.278 163.498 120.488 163.277 120.739 163.113Z" fill="#E0E0E0"/>
<path d="M117.17 166.17V167.296C117.154 167.596 117.067 167.889 116.917 168.149C116.766 168.41 116.556 168.631 116.304 168.794L115.331 169.36C114.852 169.634 114.466 169.414 114.466 168.861V167.735C114.481 167.435 114.568 167.143 114.718 166.882C114.869 166.622 115.079 166.401 115.331 166.237L116.304 165.671C116.783 165.398 117.17 165.618 117.17 166.17Z" fill="#0CB8B6"/>
<path d="M120.739 168.62L133.686 161.154C134.159 160.881 134.546 161.101 134.546 161.654V162.779C134.53 163.079 134.444 163.371 134.295 163.631C134.146 163.891 133.937 164.113 133.686 164.278L120.739 171.744C120.26 172.023 119.874 171.797 119.874 171.244V170.119C119.892 169.819 119.98 169.527 120.13 169.267C120.28 169.007 120.489 168.786 120.739 168.62Z" fill="#E0E0E0"/>
<path d="M117.17 171.685V172.81C117.154 173.111 117.067 173.403 116.917 173.663C116.766 173.924 116.556 174.145 116.304 174.309L115.331 174.868C114.852 175.148 114.466 174.921 114.466 174.369V173.243C114.483 172.943 114.57 172.651 114.721 172.391C114.871 172.131 115.08 171.909 115.331 171.745L116.304 171.185C116.783 170.912 117.17 171.145 117.17 171.685Z" fill="#0CB8B6"/>
<path d="M120.739 174.134L133.686 166.655C134.159 166.375 134.546 166.602 134.546 167.155V168.28C134.529 168.58 134.443 168.871 134.293 169.131C134.144 169.391 133.936 169.613 133.686 169.779L120.739 177.258C120.26 177.538 119.874 177.311 119.874 176.758V175.633C119.891 175.333 119.979 175.041 120.129 174.781C120.28 174.521 120.488 174.3 120.739 174.134Z" fill="#E0E0E0"/>
<path d="M117.17 177.199V178.324C117.153 178.624 117.066 178.917 116.916 179.177C116.766 179.437 116.556 179.659 116.304 179.823L115.331 180.382C114.852 180.662 114.466 180.435 114.466 179.883V178.757C114.482 178.457 114.569 178.165 114.719 177.904C114.87 177.644 115.079 177.423 115.331 177.259L116.304 176.699C116.783 176.419 117.17 176.646 117.17 177.199Z" fill="#0CB8B6"/>
<path d="M119.874 149.267V151.205L121.559 149.267H119.874Z" fill="#0CB8B6"/>
<path d="M122.584 148.86C122.584 149.226 122.837 149.366 123.157 149.18L133.973 142.959C134.14 142.849 134.279 142.702 134.378 142.528C134.478 142.355 134.535 142.16 134.545 141.96C134.545 141.594 134.292 141.447 133.973 141.634L123.157 147.874C122.99 147.982 122.852 148.127 122.752 148.298C122.653 148.47 122.595 148.662 122.584 148.86Z" fill="#E0E0E0"/>
<path d="M119.874 152.383V154.328L121.559 152.383H119.874Z" fill="#0CB8B6"/>
<path d="M122.584 151.985C122.584 152.344 122.837 152.491 123.157 152.305L133.973 146.077C134.14 145.97 134.28 145.823 134.379 145.651C134.479 145.478 134.536 145.284 134.545 145.085C134.545 144.719 134.292 144.572 133.973 144.759L123.157 150.999C122.99 151.107 122.852 151.252 122.752 151.423C122.653 151.595 122.595 151.787 122.584 151.985Z" fill="#E0E0E0"/>
<path d="M119.874 155.508V157.453L121.559 155.508H119.874Z" fill="#0CB8B6"/>
<path d="M122.584 155.108C122.584 155.468 122.837 155.614 123.157 155.428L133.973 149.2C134.14 149.093 134.28 148.946 134.379 148.774C134.479 148.601 134.536 148.407 134.545 148.208C134.545 147.842 134.292 147.695 133.973 147.882L123.157 154.122C122.99 154.23 122.852 154.375 122.752 154.546C122.653 154.718 122.595 154.91 122.584 155.108Z" fill="#E0E0E0"/>
<path d="M119.874 158.631V160.576L121.559 158.631H119.874Z" fill="#0CB8B6"/>
<path d="M122.584 158.231C122.584 158.591 122.837 158.737 123.157 158.551L133.973 152.324C134.14 152.216 134.28 152.069 134.379 151.897C134.479 151.724 134.536 151.53 134.545 151.331C134.545 150.965 134.292 150.818 133.973 151.005L123.157 157.245C122.99 157.353 122.852 157.498 122.752 157.67C122.653 157.841 122.595 158.033 122.584 158.231Z" fill="#E0E0E0"/>
<path d="M146.927 117.059V133.336C146.927 134.002 147.406 134.295 147.999 133.955L165.894 123.619C166.207 123.417 166.467 123.144 166.653 122.822C166.84 122.5 166.947 122.139 166.966 121.768V108.388C166.966 107.722 166.487 107.429 165.894 107.768L155.511 113.762C154.919 114.102 154.439 113.829 154.439 113.15V112.723C154.439 112.057 153.966 111.764 153.373 112.104L147.999 115.201C147.687 115.404 147.427 115.679 147.24 116.002C147.054 116.324 146.947 116.687 146.927 117.059Z" fill="#0CB8B6"/>
<path d="M150.449 136.407V137.452C150.449 137.959 150.809 138.165 151.249 137.912L164.675 130.16C164.908 130.008 165.102 129.804 165.241 129.563C165.38 129.322 165.46 129.052 165.474 128.774V127.729C165.474 127.223 165.115 127.016 164.675 127.269L151.249 135.022C151.016 135.173 150.822 135.378 150.683 135.618C150.544 135.859 150.464 136.129 150.449 136.407Z" fill="#E0E0E0"/>
<path d="M171.828 102.774V119.051C171.828 119.717 172.308 120.003 172.894 119.663L190.789 109.334C191.1 109.131 191.36 108.857 191.546 108.536C191.732 108.214 191.84 107.853 191.861 107.482V94.0956C191.861 93.4296 191.382 93.1366 190.789 93.4762L180.406 99.4702C179.813 99.8099 179.341 99.5302 179.341 98.8508V98.4246C179.341 97.7586 178.861 97.4722 178.268 97.8119L172.894 100.915C172.582 101.119 172.324 101.394 172.138 101.717C171.953 102.04 171.847 102.402 171.828 102.774Z" fill="#0CB8B6"/>
<path d="M175.331 122.121V123.193C175.331 123.706 175.691 123.912 176.13 123.659L189.557 115.867C189.79 115.713 189.983 115.508 190.122 115.266C190.261 115.024 190.341 114.753 190.356 114.475V113.436C190.356 112.923 189.997 112.717 189.557 112.977L176.13 120.729C175.898 120.882 175.704 121.088 175.566 121.33C175.427 121.572 175.347 121.842 175.331 122.121Z" fill="#E0E0E0"/>
<path d="M146.927 149.76V166.037C146.927 166.703 147.406 166.996 147.999 166.657L165.894 156.32C166.202 156.12 166.46 155.851 166.646 155.535C166.832 155.218 166.942 154.862 166.966 154.495V141.109C166.966 140.443 166.487 140.156 165.894 140.496L155.511 146.49C154.919 146.83 154.439 146.557 154.439 145.877V145.451C154.439 144.785 153.966 144.492 153.373 144.832L147.999 147.935C147.691 148.135 147.433 148.404 147.247 148.721C147.061 149.038 146.951 149.394 146.927 149.76Z" fill="#0CB8B6"/>
<path d="M150.449 169.107V170.153C150.449 170.659 150.809 170.865 151.249 170.612L164.675 162.86C164.907 162.707 165.101 162.503 165.239 162.262C165.378 162.022 165.459 161.752 165.474 161.475V160.429C165.474 159.923 165.115 159.716 164.675 159.969L151.249 167.722C151.016 167.873 150.822 168.078 150.683 168.319C150.544 168.559 150.464 168.829 150.449 169.107Z" fill="#E0E0E0"/>
<path d="M171.828 135.467V151.744C171.828 152.41 172.308 152.703 172.894 152.364L190.789 142.027C191.101 141.826 191.36 141.554 191.547 141.233C191.733 140.913 191.841 140.553 191.861 140.182V126.796C191.861 126.13 191.382 125.837 190.789 126.176L180.406 132.17C179.813 132.51 179.341 132.23 179.341 131.551V131.125C179.341 130.459 178.861 130.166 178.268 130.512L172.894 133.616C172.583 133.819 172.324 134.092 172.139 134.414C171.954 134.736 171.847 135.096 171.828 135.467Z" fill="#0CB8B6"/>
<path d="M175.331 154.821V155.86C175.331 156.373 175.691 156.58 176.13 156.32L189.557 148.574C189.79 148.421 189.983 148.215 190.122 147.973C190.261 147.732 190.341 147.461 190.356 147.182V146.144C190.356 145.631 189.997 145.424 189.557 145.677L176.13 153.43C175.898 153.583 175.704 153.789 175.566 154.031C175.427 154.272 175.347 154.543 175.331 154.821Z" fill="#E0E0E0"/>
<path d="M196.99 87.6947V103.972C196.99 104.638 197.469 104.931 198.055 104.591L215.957 94.2548C216.268 94.0514 216.526 93.7779 216.711 93.4562C216.896 93.1346 217.003 92.7739 217.023 92.4033V79.0233C217.023 78.3573 216.543 78.0643 215.957 78.404L205.568 84.398C204.982 84.7443 204.502 84.4646 204.502 83.7853V83.359C204.502 82.693 204.022 82.4 203.43 82.7396L198.055 85.8498C197.745 86.0521 197.487 86.3245 197.302 86.645C197.117 86.9655 197.01 87.3251 196.99 87.6947Z" fill="#0CB8B6"/>
<path d="M200.213 107.828V108.874C200.213 109.38 200.573 109.587 201.019 109.334L214.452 101.581C214.687 101.431 214.882 101.227 215.022 100.986C215.162 100.745 215.243 100.474 215.258 100.196V99.1572C215.258 98.6444 214.898 98.4379 214.452 98.691L201.032 106.443C200.795 106.592 200.597 106.796 200.455 107.037C200.312 107.278 200.23 107.549 200.213 107.828Z" fill="#E0E0E0"/>
<path d="M221.578 74.1955V90.4725C221.578 91.1385 222.058 91.4249 222.651 91.0852L240.546 80.7556C240.857 80.5522 241.115 80.2787 241.3 79.957C241.485 79.6354 241.592 79.2747 241.612 78.9041V65.5175C241.612 64.8515 241.139 64.5584 240.546 64.8981L230.163 70.8921C229.57 71.2318 229.091 70.952 229.091 70.2727V69.8465C229.091 69.1805 228.618 68.8941 228.025 69.2338L222.651 72.3373C222.337 72.5398 222.077 72.8139 221.89 73.137C221.704 73.4601 221.597 73.8229 221.578 74.1955Z" fill="#0CB8B6"/>
<path d="M225.108 93.543V94.5553C225.108 95.0682 225.461 95.2746 225.907 95.0215L239.334 87.2693C239.566 87.1165 239.759 86.9117 239.897 86.6712C240.036 86.4307 240.117 86.1612 240.133 85.884V84.8384C240.133 84.3256 239.773 84.1191 239.334 84.3789L225.907 92.1244C225.67 92.2798 225.474 92.4896 225.335 92.7365C225.196 92.9833 225.118 93.2599 225.108 93.543Z" fill="#E0E0E0"/>
<path d="M200.213 140.509V141.555C200.213 142.061 200.573 142.267 201.019 142.014L214.452 134.268C214.687 134.118 214.882 133.914 215.022 133.673C215.162 133.432 215.243 133.161 215.258 132.883V131.851C215.258 131.345 214.898 131.138 214.452 131.391L201.032 139.144C200.798 139.291 200.602 139.491 200.459 139.728C200.317 139.965 200.233 140.233 200.213 140.509Z" fill="#E0E0E0"/>
<path d="M200.553 117.638L214.452 109.6C215.085 109.233 215.604 109.533 215.604 110.266V126.343C215.583 126.743 215.467 127.132 215.267 127.48C215.067 127.827 214.787 128.122 214.452 128.341L200.553 136.38C199.887 136.746 199.4 136.453 199.4 135.714V119.636C199.423 119.236 199.538 118.847 199.738 118.5C199.939 118.153 200.217 117.858 200.553 117.638Z" fill="#FAFAFA"/>
<path d="M200.033 136.872C199.87 136.874 199.709 136.832 199.567 136.752C199.398 136.64 199.263 136.484 199.175 136.301C199.087 136.118 199.05 135.915 199.067 135.713V119.636C199.091 119.177 199.224 118.729 199.455 118.332C199.687 117.934 200.011 117.598 200.399 117.352L214.325 109.313C214.491 109.198 214.686 109.129 214.887 109.115C215.089 109.101 215.291 109.142 215.471 109.233C215.639 109.345 215.775 109.499 215.864 109.681C215.953 109.862 215.992 110.064 215.977 110.266V126.343C215.954 126.802 215.821 127.25 215.589 127.647C215.357 128.045 215.034 128.381 214.645 128.627L200.719 136.672C200.512 136.798 200.275 136.866 200.033 136.872ZM214.991 109.779C214.868 109.784 214.748 109.823 214.645 109.893L200.719 117.931C200.434 118.119 200.196 118.371 200.025 118.667C199.853 118.963 199.754 119.295 199.733 119.636V135.713C199.733 135.946 199.793 136.113 199.9 136.173C199.981 136.2 200.068 136.206 200.153 136.193C200.237 136.179 200.317 136.144 200.386 136.093L214.312 128.054C214.597 127.864 214.834 127.61 215.005 127.314C215.176 127.017 215.276 126.685 215.298 126.343V110.266C215.308 110.181 215.298 110.095 215.267 110.015C215.237 109.935 215.188 109.863 215.125 109.806C215.083 109.786 215.037 109.777 214.991 109.779Z" fill="#EBEBEB"/>
<path d="M216.117 111.771L213.014 113.562C212.677 113.781 212.396 114.075 212.195 114.422C211.994 114.77 211.877 115.159 211.855 115.56V119.143C211.855 119.882 212.374 120.182 213.014 119.809L216.117 118.018C216.453 117.799 216.732 117.503 216.932 117.156C217.132 116.809 217.248 116.42 217.269 116.02V112.437C217.269 111.704 216.75 111.404 216.117 111.771Z" fill="#0CB8B6"/>
<path d="M201.612 119.377L208.591 115.381C208.904 115.201 209.164 115.348 209.164 115.721V115.941C209.152 116.14 209.095 116.334 208.995 116.508C208.896 116.681 208.758 116.829 208.591 116.94L201.612 120.936C201.292 121.122 201.032 120.976 201.039 120.603V120.376C201.049 120.176 201.106 119.982 201.206 119.808C201.305 119.635 201.444 119.487 201.612 119.377Z" fill="#EBEBEB"/>
<path d="M201.612 122.527L208.591 118.531C208.904 118.344 209.164 118.497 209.164 118.864V119.084C209.154 119.283 209.097 119.478 208.997 119.652C208.898 119.825 208.759 119.973 208.591 120.083L201.612 124.079C201.292 124.265 201.032 124.079 201.039 123.746V123.512C201.051 123.315 201.109 123.123 201.209 122.952C201.308 122.781 201.446 122.635 201.612 122.527Z" fill="#EBEBEB"/>
<path d="M201.612 125.617L208.591 121.621C208.904 121.441 209.164 121.587 209.164 121.954V122.18C209.152 122.38 209.095 122.574 208.995 122.747C208.896 122.92 208.758 123.068 208.591 123.179L201.612 127.175C201.292 127.362 201.032 127.215 201.039 126.842V126.616C201.049 126.416 201.106 126.221 201.205 126.047C201.305 125.874 201.444 125.726 201.612 125.617Z" fill="#EBEBEB"/>
<path d="M201.612 128.734L213.2 122.074C213.52 121.894 213.78 122.074 213.78 122.407V122.633C213.768 122.834 213.71 123.029 213.609 123.202C213.508 123.376 213.368 123.523 213.2 123.632L201.612 130.292C201.292 130.472 201.032 130.326 201.039 129.959V129.726C201.05 129.528 201.108 129.334 201.207 129.162C201.307 128.99 201.445 128.843 201.612 128.734Z" fill="#EBEBEB"/>
<path d="M201.612 131.851L213.2 125.191C213.52 125.005 213.78 125.191 213.78 125.524V125.744C213.769 125.944 213.71 126.139 213.61 126.313C213.509 126.487 213.369 126.634 213.2 126.743L201.612 133.403C201.292 133.589 201.032 133.436 201.039 133.07V132.843C201.049 132.644 201.106 132.451 201.205 132.278C201.305 132.105 201.444 131.959 201.612 131.851Z" fill="#EBEBEB"/>
<path d="M224.562 126.463V127.502C224.562 128.015 224.922 128.221 225.361 127.968L238.788 120.216C239.021 120.063 239.215 119.858 239.354 119.616C239.493 119.374 239.573 119.103 239.587 118.824V117.785C239.587 117.272 239.234 117.066 238.788 117.319L225.361 125.071C225.129 125.225 224.935 125.431 224.796 125.672C224.658 125.914 224.577 126.185 224.562 126.463Z" fill="#E0E0E0"/>
<path d="M224.902 103.586L238.821 95.5472C239.487 95.1742 239.98 95.4739 239.98 96.2132V112.29C239.957 112.691 239.84 113.08 239.638 113.427C239.437 113.774 239.157 114.069 238.821 114.288L224.902 122.327C224.236 122.693 223.743 122.394 223.743 121.661V105.584C223.765 105.183 223.881 104.793 224.083 104.446C224.284 104.098 224.565 103.804 224.902 103.586Z" fill="#FAFAFA"/>
<path d="M224.382 122.813C224.219 122.814 224.058 122.773 223.916 122.693C223.748 122.581 223.612 122.427 223.523 122.245C223.434 122.064 223.395 121.862 223.41 121.661V105.583C223.432 105.123 223.564 104.674 223.796 104.275C224.028 103.877 224.352 103.539 224.742 103.292L238.661 95.2537C238.823 95.1267 239.02 95.0511 239.225 95.0367C239.431 95.0223 239.636 95.0697 239.814 95.1729C239.993 95.276 240.136 95.4301 240.226 95.6155C240.316 95.8008 240.349 96.0088 240.32 96.2128V112.29C240.297 112.75 240.164 113.197 239.932 113.595C239.7 113.992 239.376 114.328 238.988 114.574L225.068 122.613C224.861 122.738 224.624 122.807 224.382 122.813ZM225.048 103.872C224.761 104.06 224.522 104.313 224.35 104.61C224.178 104.907 224.077 105.241 224.056 105.583V121.661C224.046 121.745 224.056 121.832 224.086 121.912C224.116 121.992 224.165 122.063 224.229 122.12C224.311 122.147 224.398 122.153 224.483 122.138C224.568 122.123 224.648 122.087 224.715 122.034L238.635 113.995C238.921 113.807 239.16 113.556 239.332 113.26C239.504 112.964 239.605 112.632 239.627 112.29V96.2128C239.663 96.1258 239.666 96.0287 239.636 95.9396C239.605 95.8505 239.543 95.7756 239.461 95.729C239.38 95.6824 239.284 95.6672 239.191 95.6864C239.099 95.7056 239.017 95.7578 238.961 95.8331L225.048 103.872Z" fill="#EBEBEB"/>
<path d="M240.459 97.7181L237.356 99.5096C237.02 99.7287 236.741 100.024 236.541 100.371C236.341 100.718 236.225 101.107 236.204 101.508V105.091C236.204 105.823 236.723 106.123 237.356 105.757L240.459 103.965C240.795 103.746 241.075 103.451 241.276 103.104C241.478 102.757 241.595 102.368 241.618 101.967V98.3841C241.618 97.6448 241.092 97.3451 240.459 97.7181Z" fill="#0CB8B6"/>
<path d="M225.961 105.318L232.934 101.322C233.253 101.136 233.513 101.322 233.513 101.655V101.881C233.503 102.082 233.445 102.278 233.345 102.451C233.244 102.625 233.103 102.772 232.934 102.88L225.961 106.876C225.641 107.063 225.381 106.91 225.381 106.543V106.31C225.394 106.111 225.452 105.918 225.553 105.745C225.654 105.573 225.793 105.427 225.961 105.318Z" fill="#EBEBEB"/>
<path d="M225.961 108.441L232.934 104.445C233.253 104.265 233.513 104.445 233.513 104.778V105.005C233.502 105.205 233.443 105.4 233.342 105.573C233.242 105.747 233.102 105.894 232.934 106.004L225.961 110C225.641 110.186 225.381 110.039 225.381 109.667V109.44C225.392 109.24 225.45 109.045 225.551 108.871C225.652 108.697 225.792 108.55 225.961 108.441Z" fill="#EBEBEB"/>
<path d="M225.961 111.558L232.934 107.562C233.253 107.376 233.513 107.562 233.513 107.895V108.115C233.502 108.315 233.444 108.51 233.343 108.684C233.242 108.858 233.102 109.005 232.934 109.114L225.961 113.11C225.641 113.29 225.381 113.143 225.381 112.777V112.537C225.396 112.34 225.455 112.15 225.556 111.98C225.656 111.81 225.795 111.666 225.961 111.558Z" fill="#EBEBEB"/>
<path d="M225.961 114.681L237.549 108.021C237.869 107.835 238.128 107.988 238.128 108.354V108.541C238.117 108.741 238.058 108.936 237.958 109.109C237.857 109.283 237.717 109.43 237.549 109.54L225.961 116.2C225.641 116.386 225.381 116.233 225.381 115.867V115.64C225.397 115.446 225.458 115.259 225.558 115.093C225.659 114.926 225.796 114.785 225.961 114.681Z" fill="#EBEBEB"/>
<path d="M225.961 117.798L237.549 111.138C237.869 110.958 238.128 111.105 238.128 111.471V111.698C238.117 111.898 238.058 112.093 237.958 112.266C237.857 112.44 237.717 112.587 237.549 112.697L225.961 119.357C225.641 119.536 225.381 119.39 225.381 119.024V118.791C225.394 118.591 225.452 118.398 225.553 118.226C225.654 118.053 225.793 117.907 225.961 117.798Z" fill="#EBEBEB"/>
<path d="M200.213 173.696V174.741C200.213 175.248 200.573 175.454 201.019 175.201L214.452 167.449C214.687 167.298 214.882 167.094 215.022 166.853C215.162 166.612 215.243 166.342 215.258 166.063V165.018C215.258 164.512 214.898 164.305 214.452 164.558L201.032 172.311C200.795 172.46 200.597 172.663 200.455 172.904C200.312 173.145 200.23 173.416 200.213 173.696Z" fill="#E0E0E0"/>
<path d="M200.553 150.818L214.452 142.779C215.085 142.413 215.604 142.713 215.604 143.445V159.523C215.582 159.922 215.466 160.312 215.266 160.658C215.066 161.005 214.787 161.301 214.452 161.521L200.526 169.559C199.86 169.926 199.374 169.632 199.374 168.893V152.816C199.398 152.413 199.517 152.022 199.722 151.675C199.927 151.327 200.212 151.034 200.553 150.818Z" fill="#FAFAFA"/>
<path d="M200.033 170.053C199.87 170.054 199.709 170.013 199.567 169.933C199.399 169.819 199.265 169.663 199.177 169.481C199.089 169.298 199.052 169.096 199.068 168.894V152.817C199.091 152.357 199.224 151.91 199.456 151.512C199.687 151.115 200.011 150.779 200.4 150.532L214.312 142.507C214.474 142.383 214.669 142.31 214.873 142.296C215.076 142.283 215.279 142.33 215.456 142.432C215.633 142.534 215.775 142.686 215.866 142.869C215.956 143.051 215.99 143.257 215.964 143.459V159.537C215.941 159.996 215.808 160.443 215.576 160.841C215.344 161.238 215.02 161.574 214.632 161.821L200.706 169.86C200.502 169.98 200.27 170.046 200.033 170.053ZM214.992 142.953C214.868 142.961 214.749 143 214.645 143.066L200.719 151.112C200.433 151.299 200.195 151.551 200.024 151.847C199.853 152.143 199.753 152.475 199.734 152.817V168.894C199.697 168.981 199.694 169.078 199.725 169.167C199.755 169.256 199.817 169.331 199.899 169.378C199.981 169.424 200.077 169.439 200.169 169.42C200.261 169.401 200.343 169.349 200.4 169.273L214.326 161.235C214.61 161.044 214.847 160.791 215.018 160.494C215.189 160.197 215.289 159.865 215.311 159.523V143.446C215.321 143.361 215.311 143.275 215.281 143.195C215.251 143.115 215.202 143.044 215.138 142.986C215.093 142.962 215.043 142.951 214.992 142.953Z" fill="#EBEBEB"/>
<path d="M216.117 144.95L213.014 146.742C212.677 146.96 212.396 147.255 212.195 147.602C211.994 147.949 211.877 148.339 211.855 148.74V152.323C211.855 153.062 212.374 153.355 213.014 152.989L216.117 151.197C216.453 150.978 216.732 150.683 216.932 150.336C217.132 149.989 217.248 149.599 217.269 149.199V145.616C217.269 144.884 216.75 144.584 216.117 144.95Z" fill="#0CB8B6"/>
<path d="M201.612 152.557L208.591 148.561C208.904 148.381 209.164 148.528 209.164 148.894V149.121C209.152 149.32 209.095 149.514 208.995 149.687C208.896 149.861 208.758 150.009 208.591 150.12L201.612 154.116C201.292 154.302 201.032 154.155 201.039 153.783V153.556C201.049 153.356 201.106 153.161 201.205 152.988C201.305 152.814 201.444 152.666 201.612 152.557Z" fill="#EBEBEB"/>
<path d="M201.612 155.673L208.591 151.677C208.904 151.491 209.164 151.644 209.164 152.01V152.23C209.153 152.43 209.096 152.624 208.997 152.798C208.897 152.971 208.758 153.119 208.591 153.229L201.612 157.225C201.292 157.405 201.032 157.258 201.039 156.892V156.659C201.051 156.461 201.109 156.269 201.209 156.098C201.308 155.927 201.446 155.782 201.612 155.673Z" fill="#EBEBEB"/>
<path d="M201.612 158.797L208.591 154.801C208.904 154.621 209.164 154.768 209.164 155.134V155.361C209.152 155.56 209.095 155.754 208.995 155.928C208.896 156.101 208.758 156.249 208.591 156.36L201.612 160.356C201.292 160.542 201.032 160.389 201.039 160.023V159.823C201.043 159.618 201.098 159.418 201.198 159.239C201.297 159.06 201.44 158.908 201.612 158.797Z" fill="#EBEBEB"/>
<path d="M201.612 161.913L213.2 155.253C213.52 155.074 213.78 155.22 213.78 155.586V155.826C213.768 156.027 213.71 156.221 213.609 156.395C213.508 156.568 213.368 156.716 213.2 156.825L201.612 163.485C201.292 163.665 201.032 163.519 201.039 163.152V162.919C201.048 162.718 201.105 162.522 201.204 162.347C201.304 162.173 201.444 162.024 201.612 161.913Z" fill="#EBEBEB"/>
<path d="M201.612 165.038L213.2 158.378C213.52 158.191 213.78 158.338 213.78 158.711V158.931C213.768 159.131 213.71 159.326 213.609 159.499C213.508 159.673 213.368 159.82 213.2 159.93L201.612 166.59C201.292 166.776 201.032 166.623 201.039 166.257V166.03C201.049 165.831 201.106 165.637 201.205 165.465C201.305 165.292 201.444 165.146 201.612 165.038Z" fill="#EBEBEB"/>
<path d="M224.562 159.636V160.682C224.562 161.195 224.922 161.401 225.361 161.141L238.788 153.396C239.021 153.243 239.215 153.037 239.354 152.795C239.493 152.554 239.573 152.282 239.587 152.004V150.965C239.587 150.452 239.234 150.246 238.788 150.499L225.361 158.251C225.129 158.404 224.937 158.608 224.798 158.849C224.659 159.089 224.578 159.359 224.562 159.636Z" fill="#E0E0E0"/>
<path d="M224.902 136.766L238.821 128.728C239.487 128.355 239.98 128.655 239.98 129.394V145.464C239.958 145.865 239.842 146.255 239.64 146.603C239.439 146.95 239.158 147.244 238.821 147.462L224.902 155.508C224.236 155.874 223.743 155.574 223.743 154.842V138.764C223.765 138.364 223.881 137.974 224.083 137.626C224.284 137.279 224.565 136.984 224.902 136.766Z" fill="#FAFAFA"/>
<path d="M224.382 155.993C224.219 155.995 224.058 155.954 223.916 155.874C223.748 155.762 223.612 155.607 223.523 155.426C223.434 155.245 223.395 155.043 223.41 154.841V138.764C223.431 138.303 223.564 137.854 223.796 137.456C224.027 137.057 224.352 136.72 224.742 136.473L238.661 128.434C238.823 128.307 239.02 128.232 239.225 128.217C239.431 128.203 239.636 128.25 239.814 128.354C239.993 128.457 240.136 128.611 240.226 128.796C240.316 128.981 240.349 129.189 240.32 129.393V145.464C240.298 145.925 240.166 146.374 239.934 146.772C239.702 147.171 239.377 147.508 238.988 147.755L225.068 155.827C224.858 155.94 224.621 155.998 224.382 155.993ZM225.048 137.052C224.761 137.241 224.522 137.494 224.35 137.791C224.178 138.088 224.077 138.421 224.056 138.764V154.841C224.044 154.925 224.054 155.011 224.085 155.09C224.115 155.169 224.165 155.239 224.229 155.294C224.31 155.323 224.397 155.33 224.482 155.316C224.567 155.302 224.647 155.267 224.715 155.214L238.655 147.169C238.941 146.98 239.181 146.727 239.353 146.43C239.525 146.133 239.626 145.8 239.647 145.457V129.393C239.683 129.306 239.686 129.209 239.656 129.12C239.625 129.031 239.563 128.956 239.481 128.91C239.4 128.863 239.304 128.848 239.211 128.867C239.119 128.886 239.037 128.938 238.981 129.014L225.048 137.052Z" fill="#EBEBEB"/>
<path d="M240.459 130.899L237.356 132.69C237.02 132.909 236.741 133.204 236.541 133.552C236.341 133.899 236.225 134.288 236.204 134.688V138.271C236.204 139.004 236.723 139.304 237.356 138.937L240.459 137.146C240.795 136.927 241.075 136.632 241.276 136.285C241.478 135.938 241.595 135.548 241.618 135.148V131.565C241.618 130.825 241.092 130.519 240.459 130.899Z" fill="#0CB8B6"/>
<path d="M225.961 138.51L232.934 134.514C233.253 134.328 233.513 134.481 233.513 134.847V135.067C233.502 135.267 233.444 135.462 233.343 135.636C233.242 135.81 233.102 135.957 232.934 136.066L225.961 140.062C225.641 140.242 225.381 140.062 225.381 139.729V139.496C225.395 139.298 225.454 139.106 225.555 138.935C225.655 138.764 225.794 138.618 225.961 138.51Z" fill="#EBEBEB"/>
<path d="M225.961 141.621L232.934 137.625C233.253 137.445 233.513 137.625 233.513 137.958V138.184C233.502 138.385 233.443 138.579 233.342 138.753C233.242 138.926 233.102 139.074 232.934 139.183L225.961 143.179C225.641 143.366 225.381 143.213 225.381 142.846V142.62C225.391 142.419 225.449 142.224 225.549 142.05C225.65 141.876 225.791 141.729 225.961 141.621Z" fill="#EBEBEB"/>
<path d="M225.961 144.739L232.934 140.743C233.253 140.556 233.513 140.703 233.513 141.076V141.296C233.502 141.496 233.443 141.691 233.342 141.864C233.242 142.038 233.102 142.185 232.934 142.295L225.961 146.291C225.641 146.471 225.381 146.324 225.381 145.958V145.725C225.395 145.527 225.454 145.334 225.555 145.163C225.655 144.992 225.794 144.847 225.961 144.739Z" fill="#EBEBEB"/>
<path d="M225.961 147.835L237.549 141.175C237.869 140.988 238.128 141.135 238.128 141.508V141.727C238.117 141.928 238.058 142.122 237.958 142.296C237.857 142.47 237.717 142.617 237.549 142.726L225.961 149.386C225.641 149.573 225.381 149.42 225.381 149.053V148.827C225.392 148.627 225.45 148.433 225.551 148.261C225.652 148.088 225.792 147.942 225.961 147.835Z" fill="#EBEBEB"/>
<path d="M225.961 150.978L237.549 144.318C237.869 144.131 238.128 144.285 238.128 144.651V144.871C238.118 145.071 238.061 145.267 237.96 145.441C237.859 145.614 237.718 145.762 237.549 145.87L225.961 152.53C225.641 152.709 225.381 152.563 225.381 152.197V151.964C225.395 151.766 225.454 151.573 225.555 151.402C225.655 151.231 225.794 151.086 225.961 150.978Z" fill="#EBEBEB"/>
<path d="M150.449 202.447V203.486C150.449 203.998 150.809 204.205 151.255 203.952L164.675 196.2C164.909 196.049 165.104 195.844 165.244 195.604C165.385 195.363 165.466 195.092 165.481 194.814V193.789C165.481 193.276 165.121 193.069 164.675 193.329L151.255 201.075C151.024 201.225 150.83 201.427 150.69 201.665C150.551 201.904 150.468 202.171 150.449 202.447Z" fill="#E0E0E0"/>
<path d="M150.789 179.569L164.715 171.531C165.381 171.164 165.867 171.457 165.867 172.197V188.274C165.844 188.674 165.728 189.062 165.528 189.409C165.328 189.756 165.05 190.052 164.715 190.272L150.789 198.31C150.123 198.677 149.637 198.377 149.637 197.644V181.567C149.658 181.167 149.773 180.777 149.973 180.43C150.173 180.082 150.453 179.788 150.789 179.569Z" fill="#FAFAFA"/>
<path d="M150.27 198.798C150.106 198.799 149.946 198.758 149.803 198.678C149.636 198.566 149.501 198.411 149.413 198.229C149.326 198.048 149.288 197.846 149.304 197.645V181.568C149.327 181.109 149.46 180.661 149.692 180.264C149.924 179.866 150.247 179.53 150.636 179.284L164.562 171.245C164.723 171.118 164.919 171.041 165.124 171.026C165.328 171.011 165.533 171.058 165.711 171.161C165.889 171.263 166.032 171.417 166.122 171.602C166.211 171.787 166.243 171.994 166.214 172.197V188.275C166.191 188.734 166.057 189.182 165.826 189.579C165.594 189.976 165.27 190.313 164.882 190.559L150.956 198.598C150.748 198.723 150.512 198.792 150.27 198.798ZM150.956 179.856C150.67 180.046 150.432 180.299 150.261 180.596C150.09 180.893 149.99 181.226 149.97 181.568V197.645C149.934 197.732 149.931 197.829 149.961 197.919C149.992 198.008 150.054 198.082 150.135 198.129C150.217 198.176 150.313 198.191 150.405 198.172C150.498 198.153 150.58 198.1 150.636 198.025L164.562 189.98C164.847 189.791 165.084 189.538 165.254 189.243C165.425 188.947 165.526 188.616 165.548 188.275V172.197C165.584 172.111 165.587 172.013 165.556 171.924C165.526 171.835 165.464 171.76 165.382 171.714C165.3 171.667 165.204 171.652 165.112 171.671C165.02 171.69 164.938 171.742 164.882 171.818L150.956 179.856Z" fill="#EBEBEB"/>
<path d="M166.354 173.701L163.25 175.493C162.913 175.711 162.632 176.006 162.431 176.353C162.23 176.7 162.113 177.09 162.091 177.491V181.074C162.091 181.807 162.611 182.106 163.25 181.74L166.354 179.949C166.688 179.729 166.967 179.433 167.167 179.086C167.367 178.739 167.483 178.35 167.506 177.951V174.367C167.506 173.628 166.986 173.335 166.354 173.701Z" fill="#0CB8B6"/>
<path d="M151.848 181.308L158.828 177.312C159.141 177.126 159.401 177.279 159.401 177.645V177.865C159.39 178.065 159.333 178.259 159.234 178.433C159.134 178.606 158.995 178.754 158.828 178.864L151.848 182.86C151.528 183.046 151.275 182.86 151.275 182.527V182.3C151.285 182.101 151.342 181.907 151.442 181.735C151.541 181.562 151.681 181.416 151.848 181.308Z" fill="#EBEBEB"/>
<path d="M151.848 184.425L158.828 180.429C159.141 180.249 159.401 180.396 159.401 180.769V180.989C159.389 181.188 159.331 181.382 159.232 181.555C159.132 181.729 158.994 181.877 158.828 181.988L151.848 185.984C151.528 186.163 151.275 185.984 151.275 185.651V185.417C151.287 185.219 151.344 185.025 151.444 184.853C151.543 184.681 151.682 184.534 151.848 184.425Z" fill="#EBEBEB"/>
<path d="M151.848 187.548L158.828 183.552C159.141 183.366 159.401 183.519 159.401 183.885V184.105C159.39 184.305 159.333 184.5 159.234 184.673C159.134 184.847 158.995 184.994 158.828 185.104L151.848 189.127C151.528 189.313 151.275 189.127 151.275 188.794V188.561C151.282 188.358 151.337 188.16 151.437 187.984C151.537 187.808 151.678 187.658 151.848 187.548Z" fill="#EBEBEB"/>
<path d="M151.848 190.665L163.437 184.005C163.756 183.818 164.016 184.005 164.016 184.338V184.557C164.006 184.758 163.948 184.953 163.848 185.127C163.747 185.301 163.606 185.448 163.437 185.556L151.848 192.216C151.528 192.403 151.275 192.256 151.275 191.883V191.657C151.287 191.458 151.344 191.265 151.444 191.093C151.543 190.92 151.682 190.774 151.848 190.665Z" fill="#EBEBEB"/>
<path d="M151.848 193.789L163.437 187.129C163.756 186.949 164.016 187.129 164.016 187.462V187.688C164.005 187.888 163.946 188.083 163.845 188.257C163.745 188.43 163.605 188.578 163.437 188.687L151.848 195.347C151.528 195.527 151.275 195.38 151.275 195.014V194.781C151.287 194.582 151.344 194.389 151.444 194.217C151.543 194.044 151.682 193.898 151.848 193.789Z" fill="#EBEBEB"/>
<path d="M174.798 188.387V189.433C174.798 189.939 175.158 190.152 175.598 189.892L189.024 182.14C189.258 181.99 189.453 181.785 189.592 181.544C189.731 181.303 189.81 181.033 189.823 180.755V179.716C189.823 179.203 189.47 178.996 189.024 179.25L175.598 187.002C175.365 187.154 175.172 187.359 175.033 187.6C174.895 187.84 174.814 188.11 174.798 188.387Z" fill="#E0E0E0"/>
<path d="M175.158 165.51L189.077 157.472C189.743 157.105 190.236 157.405 190.236 158.138V174.215C190.215 174.616 190.098 175.006 189.897 175.353C189.695 175.7 189.415 175.995 189.077 176.213L175.158 184.252C174.492 184.625 173.999 184.325 173.999 183.586V167.508C174.023 167.108 174.14 166.719 174.341 166.372C174.542 166.024 174.822 165.73 175.158 165.51Z" fill="#FAFAFA"/>
<path d="M174.619 184.744C174.455 184.745 174.295 184.704 174.152 184.624C173.984 184.511 173.849 184.355 173.76 184.173C173.671 183.99 173.632 183.787 173.646 183.585V167.508C173.67 167.048 173.803 166.601 174.035 166.204C174.267 165.807 174.59 165.47 174.978 165.223L188.891 157.158C189.053 157.032 189.249 156.957 189.453 156.942C189.658 156.928 189.863 156.974 190.041 157.077C190.219 157.179 190.362 157.332 190.453 157.516C190.543 157.7 190.577 157.907 190.549 158.111V174.188C190.528 174.648 190.395 175.096 190.164 175.493C189.932 175.891 189.607 176.227 189.217 176.472L175.298 184.517C175.095 184.651 174.861 184.729 174.619 184.744ZM189.577 157.651C189.451 157.655 189.329 157.694 189.224 157.764L175.305 165.816C175.018 166.004 174.779 166.256 174.607 166.551C174.435 166.847 174.334 167.179 174.312 167.521V183.598C174.3 183.683 174.31 183.77 174.34 183.85C174.371 183.931 174.42 184.002 174.485 184.058C174.567 184.085 174.654 184.091 174.738 184.078C174.823 184.064 174.903 184.029 174.972 183.978L188.891 175.939C189.178 175.75 189.416 175.497 189.589 175.2C189.761 174.903 189.862 174.57 189.883 174.228V158.137C189.893 158.052 189.883 157.966 189.853 157.886C189.823 157.806 189.774 157.735 189.71 157.678C189.668 157.659 189.623 157.65 189.577 157.651Z" fill="#EBEBEB"/>
<path d="M190.696 159.643L187.592 161.434C187.258 161.654 186.98 161.95 186.78 162.297C186.58 162.644 186.463 163.032 186.44 163.432V167.015C186.44 167.755 186.96 168.054 187.592 167.681L190.696 165.89C191.033 165.672 191.314 165.377 191.515 165.03C191.717 164.683 191.833 164.293 191.855 163.892V160.309C191.855 159.576 191.335 159.276 190.696 159.643Z" fill="#0CB8B6"/>
<path d="M176.197 167.248L183.17 163.252C183.49 163.073 183.75 163.219 183.75 163.592V163.818C183.738 164.019 183.68 164.214 183.579 164.387C183.478 164.561 183.338 164.708 183.17 164.817L176.197 168.813C175.877 168.993 175.618 168.847 175.618 168.474V168.247C175.629 168.047 175.688 167.852 175.788 167.679C175.889 167.505 176.029 167.358 176.197 167.248Z" fill="#EBEBEB"/>
<path d="M176.197 170.372L183.17 166.376C183.49 166.189 183.75 166.342 183.75 166.709V166.928C183.74 167.129 183.682 167.324 183.581 167.498C183.48 167.672 183.339 167.819 183.17 167.927L176.197 171.923C175.877 172.11 175.618 171.957 175.618 171.59V171.357C175.63 171.159 175.688 170.966 175.789 170.795C175.89 170.623 176.03 170.478 176.197 170.372Z" fill="#EBEBEB"/>
<path d="M176.197 173.49L183.17 169.494C183.49 169.314 183.75 169.46 183.75 169.827V170.053C183.738 170.253 183.68 170.448 183.579 170.622C183.478 170.795 183.338 170.943 183.17 171.052L176.197 175.048C175.877 175.235 175.618 175.088 175.618 174.715V174.475C175.631 174.277 175.691 174.085 175.791 173.914C175.892 173.743 176.031 173.598 176.197 173.49Z" fill="#EBEBEB"/>
<path d="M176.197 176.606L187.785 169.946C188.105 169.766 188.365 169.913 188.365 170.279V170.479C188.353 170.679 188.295 170.874 188.194 171.047C188.094 171.221 187.954 171.368 187.785 171.478L176.197 178.138C175.877 178.317 175.618 178.171 175.618 177.805V177.572C175.634 177.377 175.695 177.189 175.795 177.021C175.896 176.854 176.033 176.712 176.197 176.606Z" fill="#EBEBEB"/>
<path d="M176.197 179.73L187.785 173.07C188.105 172.883 188.365 173.037 188.365 173.403V173.623C188.354 173.823 188.296 174.018 188.195 174.192C188.094 174.365 187.954 174.513 187.785 174.622L176.197 181.282C175.877 181.468 175.618 181.282 175.618 180.949V180.722C175.629 180.523 175.687 180.329 175.788 180.156C175.888 179.983 176.029 179.837 176.197 179.73Z" fill="#EBEBEB"/>
<path d="M111.762 116.473L109.058 114.895V127.395L111.762 128.96V116.473Z" fill="#0CB8B6"/>
<path opacity="0.1" d="M111.762 116.473L109.058 114.895V127.395L111.762 128.96V116.473Z" fill="black"/>
<path d="M271.548 168.126C271.24 167.987 270.901 167.93 270.564 167.963C270.228 167.996 269.905 168.116 269.63 168.313C268.844 168.823 268.189 169.511 267.717 170.321C267.245 171.13 266.97 172.039 266.913 172.975C266.877 173.311 266.931 173.651 267.069 173.96C267.207 174.268 267.424 174.535 267.699 174.733L301.412 196.045C302.078 196.511 303.083 196.485 304.182 195.852C305.287 195.137 306.207 194.171 306.867 193.034C307.528 191.896 307.911 190.619 307.985 189.305C307.985 188.04 307.519 187.167 306.773 186.801L271.548 168.126Z" fill="#0CB8B6"/>
<path opacity="0.15" d="M266.913 173.002C266.913 174.726 268.118 175.432 269.617 174.573C270.403 174.063 271.058 173.375 271.53 172.565C272.002 171.756 272.277 170.847 272.334 169.911C272.334 168.186 271.129 167.48 269.63 168.34C268.844 168.85 268.189 169.538 267.717 170.347C267.245 171.157 266.97 172.066 266.913 173.002Z" fill="black"/>
<path d="M259.454 163.645C258.975 163.955 258.577 164.373 258.291 164.866C258.005 165.359 257.84 165.913 257.809 166.482C257.788 166.685 257.82 166.889 257.903 167.075C257.986 167.261 258.117 167.422 258.282 167.541L268.458 173.449C268.643 173.534 268.847 173.569 269.05 173.549C269.252 173.529 269.446 173.455 269.61 173.335C270.094 173.026 270.496 172.604 270.783 172.107C271.071 171.61 271.235 171.052 271.262 170.478C271.286 170.275 271.254 170.068 271.171 169.881C271.088 169.693 270.956 169.532 270.789 169.413L260.613 163.505C260.425 163.423 260.218 163.393 260.014 163.417C259.81 163.442 259.617 163.521 259.454 163.645Z" fill="#263238"/>
<path opacity="0.1" d="M270.889 173.469L305.574 194.781C305.163 195.207 304.697 195.577 304.189 195.88C303.09 196.512 302.104 196.546 301.412 196.073L267.705 174.761C268.012 174.902 268.35 174.96 268.686 174.927C269.022 174.894 269.344 174.773 269.617 174.574C270.101 174.281 270.531 173.907 270.889 173.469Z" fill="black"/>
<path d="M276.71 143.126C276.71 142.839 276.71 142.566 276.67 142.286C276.63 142.007 276.637 141.734 276.603 141.461C276.57 141.188 276.57 141.101 276.55 140.921C276.503 140.442 276.43 139.975 276.357 139.529C276.317 139.329 276.284 139.116 276.244 138.916C276.204 138.717 276.164 138.537 276.124 138.344C276.004 137.831 275.884 137.325 275.737 136.845C275.658 136.619 275.591 136.386 275.511 136.179C275.498 136.144 275.487 136.109 275.478 136.073C275.391 135.846 275.318 135.633 275.231 135.407C275.141 135.162 275.039 134.922 274.925 134.687C274.852 134.512 274.77 134.341 274.679 134.175C274.631 134.049 274.571 133.928 274.499 133.815C274.432 133.668 274.352 133.522 274.272 133.382L274.212 133.282C274.146 133.156 274.066 133.036 273.993 132.909C273.919 132.783 273.886 132.749 273.839 132.669C273.48 132.107 273.08 131.573 272.641 131.071C272.561 130.991 272.487 130.905 272.414 130.825C272.341 130.745 272.288 130.691 272.228 130.625L271.981 130.385C271.754 130.147 271.512 129.925 271.255 129.719C271.139 129.616 271.017 129.521 270.889 129.433C270.762 129.333 270.636 129.24 270.503 129.153C270.305 129.005 270.098 128.87 269.883 128.747L269.717 128.64H269.684L262.358 124.384L262.304 124.351C260.408 123.294 258.268 122.752 256.097 122.779C252.86 122.779 249.211 123.845 245.341 126.076C232.021 133.748 221.272 152.41 221.272 167.768C221.272 175.42 223.936 180.801 228.278 183.325H228.318L235.644 187.574H235.684L235.804 187.641C235.997 187.748 236.184 187.848 236.377 187.941C236.57 188.034 236.856 188.161 237.103 188.26C237.349 188.36 237.542 188.434 237.769 188.5C237.886 188.545 238.006 188.58 238.128 188.607C238.251 188.657 238.378 188.695 238.508 188.72L238.901 188.82C238.995 188.846 239.091 188.866 239.187 188.88L239.707 188.973H239.827L240.453 189.053C244.043 189.433 248.212 188.42 252.674 185.85C265.994 178.171 276.743 159.503 276.743 144.158C276.73 143.838 276.723 143.492 276.71 143.126ZM260.586 132.27C261.107 134.179 261.363 136.151 261.345 138.131C261.345 151.67 251.435 168.827 239.714 175.593C238.002 176.612 236.154 177.381 234.226 177.877C233.704 175.966 233.449 173.991 233.466 172.01C233.466 158.47 243.37 141.314 255.098 134.548C256.809 133.529 258.657 132.762 260.586 132.27Z" fill="#0CB8B6"/>
<path opacity="0.1" d="M235.298 187.408L228.238 183.319C223.909 180.788 221.232 175.4 221.232 167.761C221.232 160.915 223.376 153.416 226.926 146.522L234.252 150.778C230.696 157.665 228.551 165.17 228.551 172.017C228.578 179.503 231.102 184.811 235.298 187.408Z" fill="black"/>
<path opacity="0.4" d="M276.71 143.126C276.71 142.84 276.71 142.567 276.67 142.287C276.63 142.007 276.636 141.734 276.603 141.461C276.57 141.188 276.57 141.101 276.55 140.922C276.503 140.442 276.43 139.976 276.357 139.53C276.317 139.33 276.283 139.117 276.243 138.917C276.204 138.717 276.164 138.537 276.124 138.344C276.004 137.831 275.884 137.325 275.737 136.846C275.657 136.619 275.591 136.386 275.511 136.18C275.498 136.145 275.487 136.109 275.478 136.073C275.391 135.847 275.318 135.633 275.231 135.407C275.141 135.162 275.039 134.922 274.925 134.688C274.852 134.512 274.77 134.341 274.678 134.175C274.631 134.049 274.57 133.929 274.499 133.815C274.432 133.669 274.352 133.522 274.272 133.382L274.212 133.282C274.146 133.156 274.066 133.036 273.992 132.91C273.919 132.783 273.886 132.75 273.839 132.67C273.48 132.108 273.079 131.573 272.64 131.071C272.56 130.991 272.487 130.905 272.414 130.825C272.341 130.745 272.287 130.692 272.228 130.625L271.981 130.385C271.754 130.147 271.512 129.925 271.255 129.719C271.139 129.617 271.017 129.521 270.889 129.433C270.762 129.333 270.636 129.24 270.503 129.153C270.304 129.006 270.098 128.87 269.883 128.747C265.514 126.083 259.227 126.15 252.66 130.299C239.467 138.61 228.651 157.039 228.585 171.99C228.551 179.769 231.342 185.197 235.797 187.668C235.99 187.775 236.177 187.875 236.37 187.968C236.563 188.061 236.85 188.188 237.096 188.287C237.342 188.387 237.536 188.461 237.762 188.527C237.879 188.572 237.999 188.607 238.122 188.634C238.244 188.684 238.371 188.722 238.501 188.747L238.894 188.847C238.988 188.873 239.084 188.893 239.181 188.907L239.7 189H239.82L240.446 189.08C244.036 189.46 248.205 188.447 252.667 185.877C265.987 178.198 276.736 159.53 276.736 144.185C276.73 143.839 276.723 143.492 276.71 143.126ZM250.216 181.687C247.233 183.412 244.362 184.318 241.905 184.318C237.296 184.318 235.178 181.175 234.226 177.878C233.704 175.966 233.449 173.992 233.466 172.01C233.466 158.471 243.37 141.314 255.098 134.548C256.809 133.53 258.657 132.763 260.586 132.27C261.51 132.044 262.458 131.925 263.41 131.917C271.029 131.917 271.841 140.522 271.841 144.225C271.841 157.765 261.944 174.921 250.216 181.687Z" fill="white"/>
<path opacity="0.1" d="M271.841 144.224C271.841 157.757 261.944 174.92 250.216 181.686C247.232 183.411 244.362 184.317 241.911 184.317C240.84 184.36 239.773 184.159 238.791 183.728C237.809 183.298 236.938 182.65 236.243 181.833C236.124 181.693 236.01 181.546 235.897 181.4C235.784 181.253 235.677 181.1 235.584 180.94C235.509 180.831 235.44 180.718 235.378 180.601C235.331 180.527 235.284 180.454 235.244 180.381C235.205 180.308 235.151 180.194 235.098 180.101C235.045 180.008 235.011 179.928 234.971 179.841C234.931 179.755 234.885 179.668 234.845 179.575L234.645 179.095C234.565 178.896 234.492 178.696 234.425 178.489C234.359 178.283 234.285 178.083 234.232 177.877C236.161 177.38 238.009 176.611 239.72 175.592C251.442 168.826 261.352 151.67 261.352 138.13C261.369 136.151 261.114 134.178 260.592 132.269C261.517 132.043 262.465 131.924 263.416 131.916C263.788 131.917 264.159 131.94 264.529 131.983L264.875 132.036C271.129 133.075 271.841 140.774 271.841 144.224Z" fill="black"/>
<path opacity="0.7" d="M267.632 141.841C267.632 155.381 257.735 172.537 246.007 179.303C243.023 181.028 240.153 181.967 237.695 181.967C237.207 181.969 236.719 181.929 236.237 181.847C236.117 181.708 236.004 181.561 235.891 181.414C235.777 181.268 235.671 181.115 235.578 180.955C235.502 180.846 235.434 180.732 235.371 180.615C235.324 180.542 235.278 180.469 235.238 180.395C235.198 180.322 235.145 180.209 235.091 180.116C235.038 180.023 235.005 179.943 234.965 179.856C234.925 179.769 234.878 179.683 234.838 179.59L234.639 179.11C234.559 178.91 234.485 178.71 234.419 178.504C234.352 178.298 234.279 178.098 234.226 177.891C236.154 177.395 238.002 176.626 239.713 175.607C251.435 168.84 261.345 151.684 261.345 138.144C261.362 136.165 261.107 134.193 260.586 132.284C261.51 132.057 262.458 131.939 263.41 131.931C263.781 131.932 264.153 131.954 264.522 131.997L264.868 132.051C267.279 134.874 267.632 139.423 267.632 141.841Z" fill="white"/>
</g>
<defs>
<clipPath id="clip0_870_2260">
<rect width="318" height="318" fill="white"/>
</clipPath>
</defs>
</svg>
