<svg width="318" height="318" viewBox="0 0 318 318" fill="none" xmlns="http://www.w3.org/2000/svg">
<path d="M165 277.167C239.181 277.167 299.317 242.449 299.317 199.622C299.317 156.796 239.181 122.078 165 122.078C90.8189 122.078 30.6833 156.796 30.6833 199.622C30.6833 242.449 90.8189 277.167 165 277.167Z" fill="#F0F0F0"/>
<path d="M83.8685 215.471C107.124 215.471 125.977 205.033 125.977 192.156C125.977 179.279 107.124 168.84 83.8685 168.84C60.6128 168.84 41.7603 179.279 41.7603 192.156C41.7603 205.033 60.6128 215.471 83.8685 215.471Z" fill="#E0E0E0"/>
<path d="M58.1219 230.626L124.11 268.713C124.448 268.883 124.82 268.971 125.198 268.971C125.576 268.971 125.949 268.883 126.287 268.713L242.979 201.338C243.109 201.293 243.223 201.208 243.303 201.095C243.383 200.982 243.426 200.847 243.426 200.709C243.426 200.571 243.383 200.436 243.303 200.323C243.223 200.21 243.109 200.125 242.979 200.08L176.991 161.993C176.654 161.824 176.282 161.735 175.905 161.735C175.528 161.735 175.156 161.824 174.819 161.993L58.1219 229.369C57.9912 229.414 57.8778 229.499 57.7975 229.612C57.7173 229.724 57.6742 229.859 57.6742 229.998C57.6742 230.136 57.7173 230.271 57.7975 230.384C57.8778 230.496 57.9912 230.581 58.1219 230.626Z" fill="#E0E0E0"/>
<path d="M240.988 249.662C260.87 249.662 276.988 240.356 276.988 228.878C276.988 217.4 260.87 208.095 240.988 208.095C221.105 208.095 204.988 217.4 204.988 228.878C204.988 240.356 221.105 249.662 240.988 249.662Z" fill="#E0E0E0"/>
<path d="M87.8955 211.247C87.7721 211.247 87.6499 211.222 87.5359 211.175C87.4219 211.128 87.3185 211.058 87.2315 210.971C87.1445 210.883 87.0756 210.779 87.0289 210.665C86.9822 210.551 86.9585 210.428 86.9592 210.305V150.087C86.9592 149.838 87.0579 149.6 87.2335 149.425C87.409 149.249 87.6472 149.15 87.8955 149.15C88.1438 149.15 88.3819 149.249 88.5575 149.425C88.7331 149.6 88.8317 149.838 88.8317 150.087V210.305C88.8317 210.554 88.7333 210.792 88.5579 210.969C88.3824 211.145 88.1443 211.245 87.8955 211.247Z" fill="#455A64"/>
<path d="M125.153 189.325C124.969 189.326 124.787 189.274 124.632 189.173C124.477 189.073 124.354 188.93 124.279 188.761L105.814 142.022C105.723 141.791 105.727 141.533 105.826 141.305C105.925 141.077 106.11 140.898 106.341 140.807C106.572 140.715 106.83 140.72 107.058 140.819C107.286 140.918 107.465 141.103 107.557 141.334L126.022 188.044C126.078 188.186 126.099 188.34 126.082 188.491C126.065 188.643 126.012 188.788 125.926 188.914C125.84 189.04 125.725 189.144 125.591 189.215C125.456 189.287 125.306 189.324 125.153 189.325Z" fill="#455A64"/>
<path d="M122.931 183.712C122.804 183.712 122.679 183.686 122.563 183.636C122.446 183.585 122.341 183.511 122.254 183.419L87.8899 147.058L53.5931 183.261C53.51 183.356 53.4088 183.433 53.2953 183.487C53.1818 183.542 53.0585 183.573 52.9327 183.579C52.8069 183.585 52.6812 183.566 52.5631 183.522C52.4451 183.478 52.3371 183.411 52.2456 183.324C52.1541 183.238 52.081 183.133 52.0307 183.018C51.9804 182.902 51.9539 182.778 51.9528 182.652C51.9517 182.526 51.976 182.401 52.0243 182.285C52.0726 182.169 52.1439 182.063 52.2338 181.975L87.2018 145.05C87.2895 144.957 87.3953 144.883 87.5127 144.833C87.6301 144.782 87.7565 144.757 87.8843 144.757C88.011 144.757 88.1364 144.784 88.2528 144.834C88.3691 144.884 88.474 144.958 88.5611 145.05L123.602 182.133C123.687 182.222 123.753 182.327 123.797 182.442C123.84 182.556 123.861 182.679 123.857 182.801C123.854 182.924 123.826 183.045 123.775 183.156C123.725 183.268 123.653 183.369 123.563 183.453C123.393 183.617 123.167 183.71 122.931 183.712Z" fill="#455A64"/>
<path d="M50.6376 189.325C50.5196 189.325 50.4028 189.302 50.2935 189.257C50.1787 189.213 50.0737 189.146 49.9848 189.061C49.8958 188.976 49.8246 188.874 49.7753 188.761C49.726 188.649 49.6996 188.527 49.6975 188.404C49.6955 188.281 49.7179 188.159 49.7634 188.044L68.2287 141.306C68.32 141.075 68.4993 140.889 68.7272 140.79C68.9552 140.691 69.213 140.687 69.4442 140.778C69.6753 140.87 69.8607 141.049 69.9595 141.277C70.0584 141.505 70.0627 141.763 69.9715 141.994L51.5061 188.732C51.4373 188.907 51.3177 189.056 51.1628 189.162C51.008 189.268 50.825 189.324 50.6376 189.325Z" fill="#455A64"/>
<path d="M123.879 182.269L126.321 188.709C126.326 188.764 126.326 188.819 126.321 188.873V188.991C126.251 189.166 126.121 189.31 125.954 189.398C125.723 189.514 125.468 189.575 125.21 189.575C124.951 189.575 124.696 189.514 124.465 189.398C124.337 189.333 124.235 189.225 124.178 189.093V189.008L121.922 182.968L123.879 182.269Z" fill="#0CB8B6"/>
<path d="M51.9067 182.269L49.4645 188.709C49.4593 188.764 49.4593 188.819 49.4645 188.873C49.4589 188.912 49.4589 188.952 49.4645 188.991C49.5308 189.168 49.6618 189.314 49.8311 189.398C50.0609 189.514 50.315 189.575 50.5728 189.575C50.8306 189.575 51.0847 189.514 51.3145 189.398C51.4459 189.337 51.5489 189.228 51.6021 189.093V189.008L53.8919 182.968L51.9067 182.269Z" fill="#0CB8B6"/>
<path d="M88.9727 205.647V210.976C88.9612 211.07 88.9263 211.16 88.8711 211.237C88.8159 211.314 88.7422 211.375 88.6569 211.416C88.42 211.536 88.1582 211.599 87.8927 211.599C87.6272 211.599 87.3654 211.536 87.1285 211.416C87.0431 211.375 86.9695 211.314 86.9143 211.237C86.8591 211.16 86.8241 211.07 86.8126 210.976V205.647C87.1449 205.469 87.5159 205.376 87.8927 205.376C88.2695 205.376 88.6405 205.469 88.9727 205.647Z" fill="#0CB8B6"/>
<path d="M123.151 144.187C123.151 142.772 121.91 141.271 119.293 139.574C114.46 136.438 103.665 130.144 96.9026 126.393C96.9001 126.38 96.8932 126.367 96.883 126.358C96.8728 126.349 96.8599 126.343 96.8462 126.342C91.6404 123.184 86.7844 108.142 83.1861 96.7155C81.9566 92.8183 80.4563 90.613 78.6741 89.5753C78.2511 89.3327 76.6888 88.4754 76.3391 88.2668C72.8085 86.1461 68.1668 88.6898 62.3914 91.8538C57.0672 94.764 52.9106 98.4921 52.0758 108.39C51.5626 114.414 52.0476 125.925 53.2715 134.65C55.0425 149.23 57.2195 149.252 60.3723 151.689C65.8092 155.896 78.048 161.784 83.2199 163.792C92.571 167.469 100.219 161.795 105.915 158.981C111.138 156.344 116.18 153.363 121.008 150.059C122.435 149.026 123.174 147.977 123.157 146.872C123.14 146.438 123.151 144.644 123.151 144.187Z" fill="#0CB8B6"/>
<path opacity="0.25" d="M123.151 144.187C123.151 142.772 121.91 141.271 119.293 139.574C114.46 136.438 103.665 130.144 96.9026 126.393C96.9001 126.38 96.8932 126.367 96.883 126.358C96.8728 126.349 96.8599 126.343 96.8462 126.342C91.6404 123.184 86.7844 108.142 83.1861 96.7155C81.9566 92.8183 80.4563 90.613 78.6741 89.5753C78.2511 89.3327 76.6888 88.4754 76.3391 88.2668C72.8085 86.1461 68.1668 88.6898 62.3914 91.8538C57.0672 94.764 52.9106 98.4921 52.0758 108.39C51.5626 114.414 52.0476 125.925 53.2715 134.65C55.0425 149.23 57.2195 149.252 60.3723 151.689C65.8092 155.896 78.048 161.784 83.2199 163.792C92.571 167.469 100.219 161.795 105.915 158.981C111.138 156.344 116.18 153.363 121.008 150.059C122.435 149.026 123.174 147.977 123.157 146.872C123.14 146.438 123.151 144.644 123.151 144.187Z" fill="black"/>
<path d="M78.4654 89.4568C74.963 87.6182 70.4115 90.1167 64.7828 93.2018C61.1788 95.1814 58.105 97.522 56.2382 101.904L53.892 100.528C55.7588 96.1628 58.827 93.8222 62.4196 91.8538C68.2006 88.6898 72.8367 86.1461 76.373 88.2668L78.4654 89.4568Z" fill="#0CB8B6"/>
<path d="M119.316 139.574C116.18 137.538 116.112 137.019 96.7559 126.297C96.7881 126.305 96.8186 126.318 96.8462 126.337C91.6461 123.167 86.7957 108.136 83.1974 96.7155C79.537 85.1083 73.4402 88.4698 64.794 93.2074C59.4586 96.112 55.3019 99.8457 54.4559 109.744C53.6099 119.642 55.4429 144.148 58.8213 147.137C62.5042 151.209 77.2866 158.778 83.1917 161.102C92.5428 164.779 100.191 159.105 105.887 156.291C111.119 153.649 116.171 150.662 121.008 147.351C124.24 144.994 123.941 142.586 119.316 139.574Z" fill="#0CB8B6"/>
<g opacity="0.1">
<path d="M64.7828 93.2074C73.4289 88.4698 79.5257 85.1083 83.1861 96.7155C86.7844 108.142 91.6461 123.184 96.8462 126.342C96.8462 126.342 87.9181 126.342 74.9855 133.319C61.5398 140.578 59.4868 147.679 58.8721 147.171C55.4881 144.351 53.6269 119.636 54.4672 109.744C55.3076 99.8513 59.4586 96.112 64.7828 93.2074Z" fill="black"/>
</g>
<path d="M125.261 192.048L66.0293 157.853L164.961 100.765L224.186 134.96L125.261 192.048Z" fill="#455A64"/>
<path d="M66.0293 157.853V226.243L69.1482 228.042V181.247L122.142 211.844V258.639L125.261 260.438V192.048L66.0293 157.853Z" fill="#263238"/>
<path d="M69.1482 228.042L72.2671 226.243V183.046L69.1482 181.247V228.042Z" fill="black"/>
<path d="M125.261 260.439L128.38 258.64V211.844L221.073 158.36V205.155L224.186 203.356V134.96L125.261 192.048V260.439Z" fill="#37474F"/>
<path d="M221.073 205.155L217.954 203.356V160.16L221.073 158.36V205.155Z" fill="#263238"/>
<g opacity="0.2">
<path d="M119.88 178.557C116.851 180.3 116.851 183.131 119.88 184.88C122.909 186.628 127.776 186.622 130.827 184.88C133.879 183.137 133.85 180.3 130.827 178.557C127.804 176.814 122.914 176.809 119.88 178.557Z" fill="black"/>
</g>
<g opacity="0.2">
<path d="M76.1476 157.813L97.8841 170.373C98.0734 170.471 98.2832 170.522 98.4961 170.522C98.7089 170.522 98.9187 170.471 99.108 170.373L115.12 161.129C115.194 161.104 115.258 161.057 115.303 160.994C115.348 160.93 115.373 160.855 115.373 160.777C115.373 160.699 115.348 160.623 115.303 160.56C115.258 160.497 115.194 160.449 115.12 160.424L93.3721 147.858C93.1819 147.764 92.9725 147.715 92.7602 147.715C92.5479 147.715 92.3384 147.764 92.1482 147.858L76.1363 157.108C75.8092 157.3 75.8092 157.616 76.1476 157.813Z" fill="black"/>
</g>
<g opacity="0.2">
<path d="M76.1475 160.058L97.884 172.618C98.0733 172.716 98.2831 172.767 98.496 172.767C98.7088 172.767 98.9186 172.716 99.1079 172.618L115.12 163.374C115.458 163.177 115.458 162.861 115.12 162.669L93.372 150.103C93.1818 150.009 92.9724 149.96 92.7601 149.96C92.5478 149.96 92.3383 150.009 92.1481 150.103L76.1475 159.347C76.0744 159.374 76.0113 159.422 75.9667 159.486C75.9221 159.549 75.8982 159.625 75.8982 159.703C75.8982 159.78 75.9221 159.856 75.9667 159.92C76.0113 159.983 76.0744 160.032 76.1475 160.058Z" fill="black"/>
</g>
<path d="M76.1475 159.325L97.884 171.885C98.0733 171.982 98.2831 172.033 98.496 172.033C98.7088 172.033 98.9186 171.982 99.1079 171.885L115.142 162.664C115.481 162.466 115.481 162.15 115.142 161.959L93.372 149.37C93.1818 149.276 92.9724 149.227 92.7601 149.227C92.5478 149.227 92.3383 149.276 92.1481 149.37L76.1475 158.614C76.0744 158.641 76.0113 158.689 75.9667 158.752C75.9221 158.816 75.8982 158.892 75.8982 158.969C75.8982 159.047 75.9221 159.123 75.9667 159.186C76.0113 159.25 76.0744 159.298 76.1475 159.325Z" fill="#EBEBEB"/>
<path d="M92.1594 149.37L76.954 158.152L97.884 170.25C98.0742 170.344 98.2836 170.393 98.496 170.393C98.7083 170.393 98.9177 170.344 99.1079 170.25L114.336 161.468L93.372 149.37C93.1833 149.278 92.9759 149.229 92.7657 149.229C92.5555 149.229 92.3481 149.278 92.1594 149.37Z" fill="#E0E0E0"/>
<path d="M76.1475 157.114L97.884 169.674C98.0733 169.771 98.2831 169.822 98.496 169.822C98.7088 169.822 98.9186 169.771 99.1079 169.674L115.142 160.407C115.215 160.381 115.279 160.333 115.323 160.269C115.368 160.206 115.392 160.13 115.392 160.052C115.392 159.974 115.368 159.899 115.323 159.835C115.279 159.771 115.215 159.723 115.142 159.697L93.372 147.159C93.1828 147.062 92.973 147.011 92.7601 147.011C92.5472 147.011 92.3374 147.062 92.1481 147.159L76.1475 156.403C76.0744 156.429 76.0113 156.478 75.9667 156.541C75.9221 156.605 75.8982 156.681 75.8982 156.758C75.8982 156.836 75.9221 156.912 75.9667 156.975C76.0113 157.039 76.0744 157.087 76.1475 157.114Z" fill="#FAFAFA"/>
<g opacity="0.2">
<path d="M100.704 146.646L112.463 153.453C112.687 153.567 112.934 153.626 113.185 153.626C113.436 153.626 113.684 153.567 113.907 153.453L151.859 131.53C151.946 131.501 152.023 131.445 152.077 131.37C152.131 131.295 152.16 131.205 152.16 131.113C152.16 131.021 152.131 130.931 152.077 130.856C152.023 130.781 151.946 130.725 151.859 130.696L140.105 123.888C139.88 123.774 139.632 123.715 139.38 123.715C139.128 123.715 138.88 123.774 138.655 123.888L100.704 145.811C100.616 145.84 100.54 145.896 100.486 145.971C100.432 146.046 100.403 146.136 100.403 146.228C100.403 146.321 100.432 146.411 100.486 146.485C100.54 146.56 100.616 146.616 100.704 146.646Z" fill="black"/>
</g>
<path d="M101.11 145.05V144.785C101.125 144.558 101.193 144.337 101.309 144.141C101.424 143.946 101.584 143.779 101.776 143.657L136.62 123.522C136.826 123.416 137.054 123.361 137.285 123.361C137.516 123.361 137.745 123.416 137.951 123.522L148.746 129.771C148.936 129.895 149.095 130.061 149.21 130.257C149.326 130.453 149.394 130.672 149.411 130.899V131.164C149.395 131.391 149.327 131.611 149.211 131.806C149.096 132.002 148.936 132.168 148.746 132.292L113.902 152.427C113.696 152.532 113.468 152.587 113.236 152.587C113.005 152.587 112.777 152.532 112.571 152.427L101.776 146.2C101.583 146.074 101.422 145.904 101.306 145.704C101.191 145.504 101.123 145.28 101.11 145.05Z" fill="#E0E0E0"/>
<path d="M101.776 144.401L112.548 150.65C112.755 150.753 112.983 150.807 113.214 150.807C113.444 150.807 113.672 150.753 113.879 150.65L148.746 130.515C148.825 130.488 148.894 130.436 148.943 130.367C148.992 130.298 149.018 130.216 149.018 130.132C149.018 130.048 148.992 129.965 148.943 129.897C148.894 129.828 148.825 129.776 148.746 129.748L137.928 123.499C137.722 123.394 137.494 123.339 137.263 123.339C137.031 123.339 136.803 123.394 136.597 123.499L101.753 143.634C101.674 143.664 101.607 143.718 101.56 143.788C101.513 143.858 101.489 143.941 101.491 144.026C101.494 144.11 101.523 144.191 101.574 144.259C101.624 144.326 101.695 144.376 101.776 144.401Z" fill="#FAFAFA"/>
<path d="M130.359 182.166C133.027 179.442 134.595 172.635 131.989 170.475H118.752C116.146 172.635 117.714 179.437 120.382 182.161L120.455 182.24L120.546 182.33L120.788 182.544L120.85 182.595L121.053 182.747C121.166 182.826 121.284 182.9 121.397 182.967C122.63 183.593 123.994 183.919 125.376 183.919C126.759 183.919 128.122 183.593 129.355 182.967C129.475 182.899 129.589 182.824 129.699 182.742L129.891 182.601L129.97 182.539C130.049 182.471 130.128 182.403 130.201 182.33L130.308 182.228L130.359 182.166Z" fill="#EBEBEB"/>
<path d="M119.88 169.606C116.851 171.349 116.851 174.18 119.88 175.928C122.909 177.677 127.776 177.671 130.827 175.928C133.878 174.186 133.85 171.349 130.827 169.606C127.804 167.863 122.914 167.858 119.88 169.606Z" fill="#FAFAFA"/>
<path d="M122.034 170.842C120.196 171.908 120.196 173.628 122.034 174.689C123.066 175.214 124.207 175.489 125.365 175.489C126.523 175.489 127.664 175.214 128.695 174.689C130.534 173.628 130.534 171.908 128.695 170.842C127.663 170.319 126.522 170.047 125.365 170.047C124.208 170.047 123.067 170.319 122.034 170.842Z" fill="#EBEBEB"/>
<path d="M128.695 172.669C127.663 172.146 126.522 171.874 125.365 171.874C124.208 171.874 123.067 172.146 122.034 172.669C121.58 172.907 121.193 173.254 120.906 173.679C121.193 174.104 121.58 174.451 122.034 174.688C123.066 175.214 124.207 175.488 125.365 175.488C126.523 175.488 127.664 175.214 128.695 174.688C129.151 174.453 129.539 174.106 129.823 173.679C129.539 173.252 129.151 172.904 128.695 172.669Z" fill="#E0E0E0"/>
<path d="M122.441 173.678C121.499 172.722 120.689 171.645 120.032 170.475C118.904 168.506 118.713 165.872 119.288 165.545C119.863 165.218 122.204 167.852 122.204 167.852C121.988 166.738 121.904 165.602 121.956 164.468C122.057 162.714 122.48 161.123 122.982 160.802C123.484 160.48 124.612 162.691 125.091 164.293C125.571 165.895 125.858 167.215 125.858 167.215C126.054 165.965 126.342 164.732 126.721 163.526C127.285 161.862 127.849 161.484 128.25 161.654C128.65 161.823 128.932 162.59 129.051 164.806C129.094 165.864 129.06 166.923 128.949 167.976C128.949 167.976 129.778 167.068 130.692 166.188C131.701 165.224 132.13 165.06 132.418 165.274C132.705 165.489 132.784 166.966 131.228 169.786C130.452 171.222 129.459 172.529 128.284 173.661C128.284 173.661 126.124 175.071 122.441 173.678Z" fill="#0CB8B6"/>
<path d="M180.228 141.457L183.048 107.481C183.077 106.93 182.962 106.381 182.716 105.887C182.47 105.393 182.101 104.971 181.644 104.661C181.141 104.417 180.588 104.295 180.029 104.305C179.471 104.315 178.923 104.456 178.429 104.718L141.205 126.201C140.714 126.521 140.298 126.944 139.985 127.439C139.672 127.934 139.468 128.491 139.389 129.071L136.569 163.041C136.541 163.592 136.655 164.14 136.9 164.634C137.145 165.127 137.513 165.55 137.967 165.861C138.471 166.104 139.026 166.225 139.585 166.215C140.145 166.204 140.694 166.061 141.188 165.799L178.412 144.322C178.901 144.001 179.316 143.58 179.63 143.086C179.943 142.592 180.147 142.036 180.228 141.457Z" fill="#0CB8B6"/>
<path opacity="0.5" d="M180.228 141.457L183.048 107.481C183.077 106.93 182.962 106.381 182.716 105.887C182.47 105.393 182.101 104.971 181.644 104.661C181.141 104.417 180.588 104.295 180.029 104.305C179.471 104.315 178.923 104.456 178.429 104.718L141.205 126.201C140.714 126.521 140.298 126.944 139.985 127.439C139.672 127.934 139.468 128.491 139.389 129.071L136.569 163.041C136.541 163.592 136.655 164.14 136.9 164.634C137.145 165.127 137.513 165.55 137.967 165.861C138.471 166.104 139.026 166.225 139.585 166.215C140.145 166.204 140.694 166.061 141.188 165.799L178.412 144.322C178.901 144.001 179.316 143.58 179.63 143.086C179.943 142.592 180.147 142.036 180.228 141.457Z" fill="white"/>
<path d="M180.228 141.457L183.048 107.481C183.077 106.93 182.962 106.381 182.716 105.887C182.47 105.393 182.101 104.971 181.644 104.661C181.141 104.417 180.588 104.295 180.029 104.305C179.471 104.315 178.922 104.456 178.429 104.718L141.205 126.201C140.713 126.507 140.3 126.924 139.998 127.419L145.779 130.758V163.154L178.412 144.316C178.901 143.996 179.315 143.576 179.629 143.083C179.942 142.589 180.146 142.035 180.228 141.457Z" fill="#0CB8B6"/>
<path opacity="0.8" d="M180.228 141.457L183.048 107.481C183.077 106.93 182.962 106.381 182.716 105.887C182.47 105.393 182.101 104.971 181.644 104.661C181.141 104.417 180.588 104.295 180.029 104.305C179.471 104.315 178.922 104.456 178.429 104.718L141.205 126.201C140.713 126.507 140.3 126.924 139.998 127.419L145.779 130.758V163.154L178.412 144.316C178.901 143.996 179.315 143.576 179.629 143.083C179.942 142.589 180.146 142.035 180.228 141.457Z" fill="white"/>
<path d="M139.688 164.852L142.508 130.883C142.587 130.302 142.79 129.745 143.103 129.25C143.417 128.755 143.833 128.332 144.324 128.012L181.548 106.529C182.467 105.999 183.138 106.428 183.054 107.482L180.234 141.458C180.153 142.038 179.95 142.595 179.636 143.09C179.323 143.585 178.908 144.007 178.418 144.328L141.194 165.806C140.274 166.336 139.62 165.907 139.688 164.852Z" fill="#0CB8B6"/>
<path opacity="0.65" d="M139.688 164.852L142.508 130.883C142.587 130.302 142.79 129.745 143.103 129.25C143.417 128.755 143.833 128.332 144.324 128.012L181.548 106.529C182.467 105.999 183.138 106.428 183.054 107.482L180.234 141.458C180.153 142.038 179.95 142.595 179.636 143.09C179.323 143.585 178.908 144.007 178.418 144.328L141.194 165.806C140.274 166.336 139.62 165.907 139.688 164.852Z" fill="white"/>
<path d="M158.886 137.594C159.033 135.857 160.251 133.81 161.61 133.02C162.97 132.23 163.957 133.02 163.81 134.74C163.663 136.46 162.451 138.53 161.091 139.32C159.732 140.109 158.745 139.337 158.886 137.594Z" fill="#0CB8B6"/>
<path d="M159.76 147.864L168.909 142.551L167.352 141.654L158.209 146.967L159.76 147.864Z" fill="#0CB8B6"/>
<g opacity="0.85">
<path d="M159.76 147.864L168.909 142.551L167.352 141.654L158.209 146.967L159.76 147.864Z" fill="white"/>
</g>
<path d="M173.15 158.151L162.017 164.581C161.797 164.699 161.549 164.756 161.3 164.744C161.09 164.739 160.884 164.687 160.697 164.592L155.796 161.772H155.767C155.583 161.645 155.43 161.477 155.32 161.282C155.21 161.086 155.147 160.868 155.136 160.644V160.385C155.136 159.962 155.423 159.787 155.796 160.001L158.757 161.693L159.417 162.077L159.27 161.327L158.232 146.967L159.783 147.87L168.931 142.557L173.674 157.023C173.703 157.242 173.669 157.464 173.576 157.663C173.483 157.863 173.335 158.032 173.15 158.151Z" fill="#0CB8B6"/>
<g opacity="0.5">
<path d="M173.15 158.151L162.017 164.581C161.797 164.699 161.549 164.756 161.3 164.744C161.09 164.739 160.884 164.687 160.697 164.592L155.796 161.772H155.767C155.583 161.645 155.43 161.477 155.32 161.282C155.21 161.086 155.147 160.868 155.136 160.644V160.385C155.136 159.962 155.423 159.787 155.796 160.001L158.757 161.693L159.417 162.077L159.27 161.327L158.232 146.967L159.783 147.87L168.931 142.557L173.674 157.023C173.703 157.242 173.669 157.464 173.576 157.663C173.483 157.863 173.335 158.032 173.15 158.151Z" fill="white"/>
</g>
<path d="M155.322 159.894L159.118 157.7L159.89 162.816L155.322 159.894Z" fill="#0CB8B6"/>
<g opacity="0.25">
<path d="M155.322 159.894L159.118 157.7L159.89 162.816L155.322 159.894Z" fill="black"/>
</g>
<path d="M159.76 147.87L158.209 146.968L159.253 161.288C159.337 161.699 159.1 161.852 158.74 161.654L155.779 159.962C155.406 159.748 155.119 159.923 155.119 160.346V160.605C155.13 160.829 155.193 161.047 155.303 161.243C155.412 161.439 155.566 161.606 155.75 161.733H155.779L160.68 164.553C160.867 164.649 161.073 164.701 161.283 164.706L159.76 147.87Z" fill="#0CB8B6"/>
<g opacity="0.25">
<path d="M159.76 147.87L158.209 146.968L159.253 161.288C159.337 161.699 159.1 161.852 158.74 161.654L155.779 159.962C155.406 159.748 155.119 159.923 155.119 160.346V160.605C155.13 160.829 155.193 161.047 155.303 161.243C155.412 161.439 155.566 161.606 155.75 161.733H155.779L160.68 164.553C160.867 164.649 161.073 164.701 161.283 164.706L159.76 147.87Z" fill="white"/>
</g>
<path opacity="0.2" d="M118.103 157.261L119.818 158.248L133.343 150.329L134.837 148.569L131.724 149.393L118.103 157.261Z" fill="black"/>
<path d="M131.848 148.191L134.73 147.627C134.748 147.624 134.767 147.627 134.784 147.635C134.8 147.642 134.814 147.655 134.823 147.671C134.833 147.687 134.837 147.706 134.835 147.724C134.834 147.742 134.826 147.76 134.815 147.774L132.852 149.985L131.848 148.191Z" fill="#FFA8A7"/>
<path d="M134.815 147.774C134.827 147.76 134.834 147.742 134.835 147.724C134.837 147.706 134.833 147.687 134.824 147.671C134.814 147.655 134.8 147.642 134.784 147.635C134.767 147.627 134.748 147.624 134.73 147.627L134.166 147.734C134.244 147.782 134.307 147.851 134.348 147.933C134.388 148.014 134.406 148.106 134.397 148.197V148.248L134.815 147.774Z" fill="#263238"/>
<path d="M122.136 156.144L122.373 156.008L122.661 155.851L132.852 149.985C132.948 149.669 132.919 149.328 132.773 149.032C132.697 148.827 132.573 148.644 132.411 148.497C132.249 148.351 132.054 148.246 131.842 148.191L121.628 154.051L121.064 154.362C121.454 154.204 122.474 155.958 122.136 156.144Z" fill="#0CB8B6"/>
<path d="M123.016 155.636L123.54 155.332C123.693 155.247 123.608 154.869 123.422 154.475C123.185 153.95 122.711 153.442 122.503 153.55L122.119 153.775L121.978 153.854C122.187 153.747 122.661 154.255 122.897 154.779C123.072 155.157 123.163 155.524 123.027 155.625L123.016 155.636Z" fill="#EBEBEB"/>
<path d="M123.146 155.557C123.507 155.366 122.474 153.583 122.108 153.775L121.583 154.08C121.944 153.888 122.976 155.67 122.615 155.862L123.146 155.557Z" fill="#0CB8B6"/>
<path d="M122.136 156.144L122.661 155.85C123.016 155.664 122.029 153.938 121.657 154.051L121.132 154.356C121.454 154.203 122.474 155.958 122.136 156.144Z" fill="#EBEBEB"/>
<path opacity="0.15" d="M134.826 147.672L134.73 147.627L132.638 148.755L121.826 154.959C121.826 154.925 121.792 154.925 121.781 154.959C122.085 155.438 122.316 156.042 122.113 156.143L122.35 156.008L122.638 155.85L132.852 149.984L134.809 147.774C134.821 147.76 134.829 147.743 134.832 147.725C134.835 147.707 134.833 147.689 134.826 147.672Z" fill="black"/>
<path d="M119.908 157.413L122.113 156.144C122.271 156.065 122.187 155.687 122.006 155.298C121.769 154.768 121.296 154.26 121.087 154.362L118.87 155.631C118.43 155.884 118.836 156.843 119.327 157.266C119.397 157.347 119.491 157.404 119.595 157.431C119.698 157.457 119.808 157.451 119.908 157.413Z" fill="#F28F8F"/>
<path opacity="0.1" d="M120.038 156.725C119.982 156.486 119.872 156.263 119.715 156.074C119.559 155.885 119.36 155.735 119.136 155.637C119.082 155.615 119.023 155.609 118.966 155.616C118.909 155.624 118.855 155.647 118.808 155.682C118.476 155.986 118.859 156.866 119.327 157.266C119.396 157.344 119.487 157.399 119.587 157.425C119.687 157.451 119.793 157.447 119.891 157.413C120.06 157.317 120.123 157.063 120.038 156.725Z" fill="black"/>
<path d="M198.31 52.0073C198.201 51.9471 198.079 51.916 197.955 51.917H191.508L188.846 53.4511V62.6612L191.508 61.1441L193.804 58.4933V64.9793L196.466 63.4452L203.437 55.944C203.504 55.8651 203.552 55.7725 203.58 55.6727C203.607 55.5729 203.613 55.4683 203.595 55.3662C203.578 55.2642 203.539 55.1671 203.48 55.0818C203.422 54.9965 203.345 54.925 203.256 54.8724L198.31 52.0073Z" fill="#455A64"/>
<path d="M193.815 64.9791L196.477 63.4451L203.448 55.9439C203.537 55.8415 203.595 55.7158 203.614 55.5816C203.633 55.4474 203.613 55.3105 203.557 55.1873C203.5 55.0641 203.409 54.9598 203.295 54.8869C203.181 54.8141 203.048 54.7757 202.912 54.7764H196.477L193.815 56.3161V64.9791Z" fill="#37474F"/>
<path d="M196.494 47.1733C196.446 46.2877 196.191 45.4258 195.748 44.6575C195.305 43.8893 194.687 43.2362 193.945 42.7515C193.153 42.3493 192.278 42.1396 191.39 42.1396C190.502 42.1396 189.626 42.3493 188.835 42.7515L169.427 53.8623C168.683 54.347 168.064 55.0006 167.62 55.77C167.176 56.5393 166.92 57.4027 166.873 58.2897V79.2423C166.921 80.1284 167.177 80.9906 167.621 81.759C168.065 82.5273 168.684 83.18 169.427 83.6641C170.219 84.0663 171.094 84.276 171.982 84.276C172.87 84.276 173.746 84.0663 174.537 83.6641L194.187 72.3841C196.483 71.0756 196.505 69.7615 196.505 68.1315L196.494 47.1733Z" fill="#37474F"/>
<path d="M166.873 79.2425C166.921 80.1285 167.177 80.9907 167.621 81.7591C168.065 82.5274 168.684 83.1801 169.427 83.6642C170.148 84.0266 170.937 84.233 171.742 84.27C172.548 84.3069 173.352 84.1735 174.103 83.8785C172.902 84.3297 171.982 83.6417 171.982 82.1865V61.2339C172.014 60.3453 172.272 59.4794 172.733 58.7185L167.623 55.7744C167.164 56.5357 166.908 57.4016 166.878 58.2899L166.873 79.2425Z" fill="#263238"/>
<path d="M196.415 46.4801C196.116 45.3915 195.123 45.0475 193.945 45.7299L174.532 56.8125C173.775 57.2795 173.155 57.9369 172.732 58.7189L167.656 55.7804C168.08 54.9977 168.7 54.3388 169.456 53.8685L188.857 42.7577C189.65 42.3571 190.526 42.1484 191.415 42.1484C192.304 42.1484 193.18 42.3571 193.973 42.7577C194.611 43.1799 195.157 43.7277 195.577 44.3677C195.996 45.0076 196.282 45.7264 196.415 46.4801Z" fill="#455A64"/>
<path d="M186.782 72.457L182.202 75.1021V56.7721L186.782 54.127V72.457Z" fill="#0CB8B6"/>
<path d="M191.367 57.5908V63.6989L177.622 71.6344V65.5263L191.367 57.5908Z" fill="#0CB8B6"/>
<path d="M237.953 72.8135C242.465 72.9376 243.746 74.7424 246.464 78.6283C249.183 82.5143 258.432 97.2403 258.432 97.2403L271.534 102.271L269.808 109.913C269.808 109.913 252.296 106.947 251.151 106.276C250.006 105.604 241.478 91.5552 241.478 91.5552L237.953 72.8135Z" fill="#E6E6E6"/>
<path d="M234.502 72.9374C238.766 71.8714 240.649 74.2515 242.071 76.8854C248.528 88.7294 251.151 159.793 251.151 159.793C251.151 159.793 236.746 165.541 226.059 158.795L234.502 72.9374Z" fill="#F0F0F0"/>
<path d="M248.235 195.083L245.539 205.343C245.539 205.343 242.431 207.176 239.752 205.371C237.626 203.938 237.756 202.241 237.756 202.241L237.88 200.695L238.185 188.767L248.235 195.083Z" fill="#B16668"/>
<path d="M235.263 207.784C234.524 209.425 234.101 214.219 234.101 214.219C234.101 214.219 234.553 215.985 237.006 217.547L239.392 211.208L235.263 207.784Z" fill="#263238"/>
<path d="M237.006 217.57L243.204 216.718L245.562 211.783L238.382 213.915L237.006 217.57Z" fill="black"/>
<path d="M246.007 203.565L246.34 202.313C247.282 202.364 247.197 204.225 247.265 204.766C247.474 206.317 247.632 207.868 247.869 209.414C248.114 211.125 248.512 212.81 249.059 214.45C249.623 216.013 249.95 217.676 250.903 219.058C251.856 220.44 253.531 221.258 254.885 222.188C255.243 222.393 255.539 222.692 255.742 223.051C256.052 223.739 255.618 224.535 255.082 225.059C254.131 225.947 252.934 226.525 251.647 226.717C250.367 226.906 249.065 226.906 247.784 226.717C245.509 226.473 243.331 225.667 241.445 224.371C239.629 223.074 239.234 220.508 238.94 218.432C238.704 216.74 238.85 214.772 238.151 213.187C237.452 211.602 235.455 209.521 235.263 207.806C235.181 206.353 235.489 204.905 236.154 203.61C236.882 202.217 237.406 200.441 237.88 200.694L237.796 201.71C237.796 201.636 238.264 203.661 241.18 204.383C242.55 204.727 245.139 204.716 246.007 203.565Z" fill="#263238"/>
<path d="M241.591 214.677C241.67 216.572 241.591 217.356 241.591 218.213C241.67 219.781 242.087 220.869 242.443 222.392C242.596 223.017 242.811 223.626 243.086 224.208C243.379 224.885 243.926 225.799 243.605 226.464C243.446 226.769 243.227 227.04 242.962 227.259C241.788 228.264 240.274 228.779 238.732 228.698C237.919 228.689 237.124 228.461 236.431 228.038C235.071 227.147 234.536 225.522 233.808 224.152C233.013 222.668 233.475 221.896 233.345 220.266C233.187 218.11 232.906 215.966 232.505 213.842C235.444 210.48 237.914 213.74 241.591 214.677Z" fill="#B16668"/>
<path d="M246.092 120.929C250.497 136.281 257.936 162.371 255.849 170.493C254.27 176.579 247.389 198.8 247.389 198.8C244.733 199.172 239.301 199.765 237.186 195.112C236.651 187.56 234.789 136.281 234.789 136.281L246.092 120.929Z" fill="#0CB8B6"/>
<path opacity="0.4" d="M246.092 120.929C250.497 136.281 257.936 162.371 255.849 170.493C254.27 176.579 247.389 198.8 247.389 198.8C244.733 199.172 239.301 199.765 237.186 195.112C236.651 187.56 234.789 136.281 234.789 136.281L246.092 120.929Z" fill="white"/>
<path opacity="0.25" d="M234.812 136.252C237.608 133.61 240.207 130.767 242.589 127.747C242.589 127.747 242.025 131.385 237.011 136.399C237.011 136.399 245.415 168.767 245.364 173.933C245.314 179.099 242.544 197.621 242.544 197.621L234.812 136.252Z" fill="black"/>
<path d="M246.092 120.929C242.499 128.379 241.089 131.357 234.812 136.281C234.812 136.281 242.488 168.181 242.826 174.373C243.39 184.666 242.065 207.706 241.591 214.705C240.401 216.262 234.603 216.527 232.776 215.201C231.941 211.964 229.138 200.571 227.824 190.351C226.854 182.799 228.095 176.043 228.252 174.063C224.186 163.691 215.055 148.553 211.716 137.708C211.168 135.83 210.822 133.9 210.684 131.949C209.939 125.074 212.754 119.823 214.406 116.157L246.092 120.929Z" fill="#0CB8B6"/>
<g opacity="0.5">
<path d="M246.092 120.929C242.499 128.379 241.089 131.357 234.812 136.281C234.812 136.281 242.488 168.181 242.826 174.373C243.39 184.666 242.065 207.706 241.591 214.705C240.401 216.262 234.603 216.527 232.776 215.201C231.941 211.964 229.138 200.571 227.824 190.351C226.854 182.799 228.095 176.043 228.252 174.063C224.186 163.691 215.055 148.553 211.716 137.708C211.168 135.83 210.822 133.9 210.684 131.949C209.939 125.074 212.754 119.823 214.406 116.157L246.092 120.929Z" fill="white"/>
</g>
<path d="M231.885 225.466C231.439 227.203 231.845 231.991 231.845 231.991C231.845 231.991 232.584 233.649 235.263 234.772L236.532 228.128L231.885 225.466Z" fill="#263238"/>
<path d="M235.263 234.772L241.219 232.871L242.691 227.62L235.996 230.936L235.263 234.772Z" fill="black"/>
<path d="M241.569 219.459L241.614 218.213C242.415 218.613 244.135 225.116 246.492 229.594C248.647 233.678 252.967 235.979 254.36 237.761C256.221 240.147 252.533 243.164 246.661 241.856C243.751 241.202 239.329 239.295 238.168 237.316C237.006 235.336 236.611 231.715 235.647 230.26C234.682 228.805 232.364 227.118 231.885 225.466C231.511 223.97 231.528 222.402 231.935 220.914C232.409 219.42 232.387 217.886 233.137 217.762L233.25 218.935C233.639 219.741 235.161 220.666 238.128 220.858C239.544 220.943 240.914 220.757 241.569 219.459Z" fill="#37474F"/>
<path d="M231.18 60.0955L228.219 70.1065C219.984 70.1065 214.897 62.0864 214.897 53.852C214.897 45.5838 220.165 38.6748 228.433 38.6748H231.118C239.386 38.6748 246.092 44.1625 246.092 52.4364C246.092 57.8226 239.414 60.0955 231.18 60.0955Z" fill="#263238"/>
<path d="M247.637 44.7883C248.269 43.7561 248.574 42.5567 248.512 41.3479C248.472 40.7431 248.296 40.1552 247.996 39.6285C247.696 39.1019 247.28 38.6503 246.78 38.308C245.24 37.3266 243.108 37.7891 241.704 38.9227C241.59 37.8457 241.061 36.8555 240.229 36.1617C239.398 35.468 238.328 35.1252 237.248 35.206C235.878 35.3131 234.66 36.0745 233.475 36.7626C231.459 37.7848 229.282 38.4543 227.04 38.7422L229.561 39.7123C229.218 40.24 229.001 40.8389 228.924 41.4634C228.848 42.088 228.915 42.7217 229.121 43.3163C229.229 43.5601 229.362 43.7925 229.516 44.01C231.19 46.5134 233.501 48.5247 236.212 49.8365C238.922 51.1482 241.934 51.7127 244.936 51.4717C245.778 51.4536 246.601 51.2206 247.327 50.7949C247.751 50.4935 248.109 50.1099 248.382 49.6669C248.908 48.8971 249.168 47.9758 249.121 47.0443C249.088 46.5727 248.934 46.1175 248.674 45.7224C248.414 45.3273 248.057 45.0057 247.637 44.7883Z" fill="#263238"/>
<path d="M224.75 74.1162L219.353 74.6802C215.771 75.5544 214.153 77.1336 213.786 80.3202C213.617 81.7979 212.72 85.7346 213.972 90.6696C215.1 95.1365 218.134 106.072 218.134 106.072C218.134 106.072 214.215 115.903 212.376 120.928C225.111 129.236 240.83 125.953 246.109 120.928C245.663 116.179 243.983 111.752 243.605 107.516C243.605 107.516 243.875 100.895 244.4 98.0242C248.432 93.6306 247.914 89.4232 246.092 86.0335C242.753 79.7675 237.716 74.2685 236.092 74.2741L224.75 74.1162Z" fill="#455A64"/>
<path d="M234.428 70.5576C236.041 70.9524 237.299 71.6067 237.953 72.8136C238.608 74.0206 243.712 82.0576 243.712 82.0576C243.712 82.0576 239.595 76.6375 236.493 74.9963C235.859 74.6267 235.157 74.3924 234.428 74.3082V70.5576Z" fill="#E0E0E0"/>
<path d="M224.75 74.1162C224.75 74.1162 230.39 85.8756 231.394 93.8111C232.398 101.747 230.266 128.819 230.266 137.408C230.266 147.763 230.3 164.853 230.3 164.853C230.3 164.853 223.865 164.853 219.443 163.589C216.211 162.67 212.382 161.017 210.064 158.248C210.064 158.248 209.432 137.053 210.763 126.957C212.021 117.369 217.125 105.559 217.125 105.559L210.582 80.6192C210.582 80.6192 210.887 76.3328 214.92 75.1314C218.738 73.9809 224.75 74.1162 224.75 74.1162Z" fill="#FAFAFA"/>
<path d="M219.443 79.249L212.765 89.0231L217.102 105.548C217.102 105.548 213.075 114.048 211.592 122.277C215.613 110.901 219.246 107.488 219.246 107.488L216.888 97.8667C216.888 97.8667 217.717 94.838 218.873 89.6717C220.029 84.5055 219.838 81.5107 219.443 79.249Z" fill="#EBEBEB"/>
<path d="M223.092 88.4649C223.092 87.9743 223.047 86.9139 222.962 85.5716C222.545 79.0236 222.353 73.1016 224.564 72.5996L224.761 73.502C223.143 73.8517 223.678 82.3061 223.882 85.487C223.972 86.8575 224.039 87.9348 224.017 88.4762L223.092 88.4649Z" fill="#0CB8B6"/>
<path d="M224.75 70.5576C224.339 70.5598 223.936 70.6745 223.585 70.8893C223.234 71.104 222.948 71.4106 222.759 71.7759C222.229 72.6783 221.112 74.1954 221.112 74.1954C221.112 74.1954 221.073 80.2077 221.676 81.7699C222.195 83.1235 228.568 88.1375 228.568 88.1375C228.568 88.1375 227.948 93.4447 227.897 95.3003C227.847 97.1559 231.118 103.884 231.518 107.488C231.518 107.488 232.195 98.7351 231.665 94.6686C230.734 87.5904 226.318 77.0041 224.75 74.1052V70.5576Z" fill="#EBEBEB"/>
<path d="M221.755 110.364H221.676V109.721C222.442 109.657 223.176 109.384 223.797 108.932C223.134 108.49 222.541 107.952 222.037 107.335C220.994 105.987 218.715 96.3713 219.42 94.1322C219.984 92.2541 221.851 88.1087 223.498 88.041H223.538C225.179 88.041 227.333 91.9552 228.078 93.76C228.969 95.937 227.514 105.711 226.589 107.138C226.141 107.798 225.595 108.385 224.97 108.881C225.624 109.285 226.379 109.496 227.147 109.49L227.226 110.127C226.225 110.144 225.243 109.859 224.406 109.309C223.639 109.904 222.721 110.269 221.755 110.364ZM223.566 88.6783C222.601 88.7178 220.87 91.7916 220.08 94.3183C219.432 96.3769 221.626 105.683 222.59 106.935C223.103 107.555 223.71 108.09 224.389 108.52C225.043 108.034 225.614 107.445 226.081 106.777C226.938 105.452 228.337 95.9934 227.508 93.9969C226.504 91.5999 224.536 88.6783 223.566 88.6783Z" fill="#455A64"/>
<path d="M228.168 109.761C228.176 109.948 228.128 110.134 228.03 110.294C227.932 110.453 227.79 110.581 227.62 110.66C227.45 110.738 227.26 110.765 227.075 110.736C226.89 110.707 226.718 110.624 226.58 110.497C226.442 110.37 226.345 110.205 226.301 110.023C226.256 109.841 226.267 109.65 226.331 109.474C226.396 109.298 226.511 109.146 226.662 109.035C226.813 108.924 226.994 108.861 227.181 108.853C227.432 108.844 227.676 108.934 227.861 109.104C228.046 109.274 228.156 109.51 228.168 109.761Z" fill="#263238"/>
<path d="M222.635 109.998C222.643 110.185 222.595 110.37 222.497 110.53C222.4 110.69 222.257 110.817 222.087 110.896C221.917 110.975 221.727 111.001 221.542 110.973C221.357 110.944 221.185 110.861 221.047 110.734C220.909 110.607 220.812 110.442 220.768 110.26C220.724 110.078 220.734 109.887 220.799 109.711C220.863 109.535 220.978 109.382 221.129 109.272C221.28 109.161 221.461 109.098 221.648 109.09C221.773 109.084 221.897 109.104 222.014 109.147C222.131 109.189 222.238 109.255 222.33 109.339C222.422 109.423 222.496 109.525 222.548 109.638C222.601 109.751 222.63 109.873 222.635 109.998Z" fill="#263238"/>
<path d="M228.258 97.996L227.694 97.9566C227.666 97.9552 227.639 97.9482 227.614 97.9359C227.59 97.9236 227.567 97.9064 227.549 97.8853C227.531 97.8641 227.518 97.8395 227.51 97.813C227.502 97.7864 227.499 97.7585 227.502 97.7309C227.61 95.9261 227.553 94.5951 227.333 94.0649C226.374 91.73 224.4 88.8085 223.538 88.8423C222.675 88.8762 220.949 91.9612 220.193 94.3695C220.024 94.9335 220.075 96.2476 220.34 98.0355C220.348 98.0907 220.334 98.147 220.301 98.1923C220.269 98.2376 220.22 98.2683 220.165 98.278L219.601 98.3626C219.573 98.3666 219.544 98.3649 219.516 98.3576C219.489 98.3504 219.463 98.3377 219.441 98.3204C219.418 98.3031 219.399 98.2814 219.385 98.2567C219.371 98.232 219.362 98.2048 219.358 98.1765C219.059 96.1687 219.025 94.7925 219.245 94.0762C219.652 92.7903 221.552 87.9568 223.47 87.8722C225.387 87.7876 227.694 92.4463 228.207 93.6984C228.489 94.3864 228.574 95.7626 228.444 97.793C228.442 97.8433 228.422 97.8912 228.388 97.9284C228.354 97.9655 228.308 97.9895 228.258 97.996Z" fill="#0CB8B6"/>
<path d="M206.025 147.154C207.007 148.074 207.542 149.309 208.552 151.136C209.562 152.964 214.542 153.139 214.937 148C215.235 144.131 213.882 142.823 211.169 139.811C208.321 136.642 207.221 136.123 207.351 133.184C207.424 131.735 209.607 110.754 209.607 110.754L216.786 90.9744C216.786 90.9744 219.381 81.7305 218.078 75.2896C218.078 75.2896 213.425 74.9117 210.137 78.1942C206.296 82.0294 201.948 100.991 200.989 104.821C199.607 109.673 199.004 114.714 199.201 119.755C199.427 125.909 199.449 138.768 200.267 141.605C201.085 144.442 203.38 144.679 206.025 147.154Z" fill="#B16668"/>
<path d="M218.399 74.4382C218.399 74.4382 213.453 74.128 210.56 76.4968C207.667 78.8656 205.867 85.4869 203.741 92.1026C201.615 98.7184 199.72 105.165 199.02 109.801C198.456 113.681 199.584 134.166 199.584 134.166C199.584 134.166 202.878 135.361 207.351 133.184L210.12 110.777L218.411 88.2844C219.939 83.7948 219.935 78.9252 218.399 74.4382Z" fill="#F0F0F0"/>
<path d="M237.671 46.2324C241.439 46.6216 244.586 50.626 244.377 59.712C244.197 67.4163 241.698 69.3 240.429 69.864C239.16 70.428 236.758 70.5013 234.412 70.1065V74.3083C234.412 74.3083 237.119 80.2755 235.968 82.4074C229.544 79.7566 224.75 74.1166 224.75 74.1166V64.5963C224.75 64.5963 223.165 66.4744 220.571 64.7542C217.977 63.034 217.875 58.7645 219.387 57.2304C220.898 55.6963 224.147 56.187 224.75 58.302C224.75 58.302 227.006 58.2456 231.163 55.2846C234.326 53.1226 236.629 49.919 237.671 46.2324Z" fill="#B16668"/>
<path d="M233.915 56.7566C233.927 56.8948 233.912 57.034 233.87 57.166C233.827 57.2981 233.759 57.4203 233.668 57.5255C233.578 57.6306 233.467 57.7166 233.343 57.7783C233.219 57.84 233.083 57.8761 232.945 57.8846C232.734 57.9033 232.522 57.8585 232.336 57.7561C232.151 57.6537 232 57.4983 231.903 57.3097C231.806 57.1211 231.768 56.9079 231.793 56.6973C231.818 56.4868 231.905 56.2885 232.043 56.1277C232.181 55.967 232.364 55.8511 232.569 55.795C232.773 55.7388 232.99 55.7448 233.191 55.8123C233.392 55.8798 233.568 56.0057 233.697 56.1739C233.826 56.3422 233.902 56.545 233.915 56.7566Z" fill="#263238"/>
<path d="M234.998 63.9639L238.055 64.9396C238 65.1439 237.904 65.3351 237.774 65.5016C237.643 65.6682 237.48 65.8067 237.295 65.9088C237.11 66.011 236.906 66.0747 236.695 66.0961C236.484 66.1176 236.272 66.0964 236.07 66.0337C235.66 65.8918 235.32 65.5979 235.121 65.2128C234.921 64.8276 234.877 64.3805 234.998 63.9639Z" fill="#9A4A4D"/>
<path d="M243.001 54.3766L240.926 52.9384C241.013 52.7986 241.128 52.6781 241.263 52.5842C241.399 52.4903 241.552 52.425 241.713 52.3923C241.875 52.3596 242.041 52.3601 242.203 52.3939C242.364 52.4277 242.517 52.494 242.652 52.5887C242.93 52.7838 243.121 53.0789 243.187 53.4123C243.252 53.7456 243.185 54.0912 243.001 54.3766Z" fill="#263238"/>
<path d="M242.268 56.5587C242.27 56.76 242.213 56.9574 242.103 57.1264C241.994 57.2954 241.837 57.4285 241.653 57.5092C241.469 57.5898 241.265 57.6145 241.066 57.5801C240.868 57.5458 240.684 57.4538 240.538 57.3158C240.391 57.1777 240.288 56.9997 240.242 56.8037C240.196 56.6078 240.209 56.4026 240.278 56.2138C240.348 56.0249 240.472 55.8607 240.634 55.7415C240.796 55.6223 240.99 55.5535 241.191 55.5435C241.328 55.539 241.465 55.5617 241.594 55.6104C241.723 55.6591 241.84 55.7327 241.941 55.827C242.041 55.9214 242.121 56.0346 242.177 56.1602C242.234 56.2858 242.264 56.4212 242.268 56.5587Z" fill="#263238"/>
<path d="M237.062 55.9727L237.226 62.1428L240.474 61.1389L237.062 55.9727Z" fill="#9A4A4D"/>
<path d="M234.428 70.1062C231.947 69.7847 226.854 67.901 226.059 65.8818C226.377 66.9022 227.001 67.8 227.846 68.4537C229.369 69.7622 234.428 71.2286 234.428 71.2286V70.1062Z" fill="#9A4A4D"/>
<path d="M275.854 94.6914L251.331 106.361L244.586 135.542L245.133 136.123L268.443 124.397L276.401 95.2723L275.854 94.6914Z" fill="#0CB8B6"/>
<path opacity="0.35" d="M251.884 106.947L245.133 136.123L244.586 135.542L251.332 106.36L251.884 106.947Z" fill="black"/>
<path opacity="0.25" d="M276.401 95.2715L251.884 106.946L245.133 136.122L268.443 124.396L276.401 95.2715Z" fill="black"/>
<g opacity="0.2">
<path d="M264.828 118.464C265.054 119.028 266.932 120.302 269.656 120.077L270.113 118.385L264.828 118.464Z" fill="black"/>
</g>
<g opacity="0.1">
<path d="M269.013 101.25L269.216 100.274C269.329 99.7104 267.891 100.015 266.001 100.906L262.392 102.598C260.502 103.489 258.883 104.651 258.771 105.193L258.568 106.168L269.013 101.25Z" fill="black"/>
</g>
<path d="M270.502 96.6767C270.575 96.3383 269.989 96.3778 269.199 96.767L267.772 97.4663C267.772 97.4663 268.195 95.3513 265.02 96.7331C261.844 98.1149 261.156 100.557 261.156 100.557L259.628 101.318C258.782 101.736 258.02 102.356 257.936 102.695L257.755 103.315L270.383 97.3084C270.383 97.3084 270.434 97.0151 270.502 96.6767Z" fill="#37474F"/>
<path d="M269.16 98.701C268.003 99.2255 267.518 99.4849 267.349 100.32C267.152 101.267 267.073 101.955 267.073 101.955L261.478 104.617C261.478 104.617 261.749 103.41 261.833 102.925C261.918 102.44 261.732 102.226 260.841 102.655L260.491 101.673L269.515 97.4658L269.16 98.701Z" fill="#37474F"/>
<path d="M269.34 101.267C269.34 101.267 269.43 100.827 269.543 100.291C269.656 99.7554 268.218 100.032 266.328 100.923L262.713 102.615C260.829 103.506 259.211 104.668 259.098 105.209L258.895 106.185L269.34 101.267Z" fill="#37474F"/>
<path d="M273.672 105.255C273.672 105.255 272.803 108.459 272.577 109.265C272.352 110.072 268.336 111.927 266.323 112.181C262.476 112.66 262.042 113.495 262.967 116.225C263.819 118.74 266.323 119.694 269.797 119.282C271.421 119.09 273.672 117.646 274.557 115.125C275.685 111.91 275.076 108.47 275.522 106.592C275.967 104.714 274.653 104.138 273.672 105.255Z" fill="#B16668"/>
<path d="M52.7415 72.2498L53.8864 72.9097L82.5094 56.3845L81.3645 55.7246L52.7415 72.2498Z" fill="#455A64"/>
<path d="M81.3643 55.724L53.8862 71.5893V47.7716L81.3643 31.9062V55.724Z" fill="#0CB8B6"/>
<g opacity="0.8">
<path d="M81.3643 55.724L53.8862 71.5893V47.7716L81.3643 31.9062V55.724Z" fill="white"/>
</g>
<path d="M83.6542 29.2617L52.7639 47.1067V74.895L83.6768 57.0444L83.6542 29.2617ZM82.5262 56.3845L53.8919 72.9097V47.7722L82.5093 31.2526L82.5262 56.3845Z" fill="#37474F"/>
<path d="M82.5093 56.3843L81.3644 55.7245V31.9067L82.5093 31.2412V56.3843Z" fill="#263238"/>
<path d="M83.6542 29.2614L82.5093 28.6016L51.5964 46.4465L52.7414 47.1064L83.6542 29.2614Z" fill="#455A64"/>
<path d="M51.5964 46.4463L52.7414 47.1062V74.8944L51.5964 74.2346V46.4463Z" fill="#263238"/>
<path d="M75.9725 51.7199C77.0441 51.0995 77.907 51.6015 77.907 52.8479C77.8711 53.5184 77.6771 54.1709 77.3409 54.7522C77.0047 55.3334 76.5358 55.827 75.9725 56.1924C74.9065 56.8072 74.0436 56.3109 74.0436 55.0644C74.0798 54.3946 74.2732 53.7427 74.6084 53.1617C74.9435 52.5806 75.4108 52.0867 75.9725 51.7199Z" fill="#0CB8B6"/>
<path opacity="0.2" d="M60.3553 46.6831L74.9065 38.2795C75.3126 38.0427 75.6397 38.2344 75.6397 38.6969V38.742C75.6263 38.9964 75.553 39.244 75.4255 39.4646C75.2981 39.6852 75.1202 39.8724 74.9065 40.011L60.3553 48.4259C59.9548 48.6628 59.6221 48.471 59.6221 48.0029V47.9521C59.6376 47.6983 59.7119 47.4515 59.8392 47.2312C59.9664 47.011 60.1431 46.8234 60.3553 46.6831Z" fill="black"/>
<g opacity="0.2">
<path d="M58.0543 53.3044L77.2303 42.25C77.6363 42.0132 77.9635 42.1203 77.9635 42.4869C77.9342 42.7121 77.8527 42.9273 77.7254 43.1154C77.5981 43.3034 77.4285 43.459 77.2303 43.5698L58.0543 54.6355C57.6538 54.8724 57.3267 54.7652 57.3323 54.393C57.3616 54.1685 57.4419 53.9536 57.567 53.765C57.6922 53.5763 57.8588 53.4188 58.0543 53.3044Z" fill="black"/>
<path d="M58.0543 55.9497L77.2303 44.8897C77.6363 44.6585 77.9635 44.7656 77.9635 45.1266C77.9338 45.3524 77.8521 45.5682 77.7249 45.7571C77.5977 45.946 77.4283 46.1027 77.2303 46.2151L58.0543 57.2808C57.6538 57.512 57.3267 57.4049 57.3323 57.0383C57.3608 56.8135 57.4408 56.5983 57.566 56.4095C57.6912 56.2207 57.8583 56.0634 58.0543 55.9497Z" fill="black"/>
<path d="M58.0543 58.5891L77.2303 47.5291C77.6363 47.2979 77.9635 47.405 77.9635 47.7716C77.9342 47.9968 77.8527 48.212 77.7254 48.4001C77.5981 48.5881 77.4285 48.7437 77.2303 48.8545L58.0543 59.9202C57.6538 60.1571 57.3267 60.0443 57.3323 59.6777C57.3616 59.4532 57.4419 59.2383 57.567 59.0497C57.6922 58.861 57.8588 58.7034 58.0543 58.5891Z" fill="black"/>
</g>
<path opacity="0.3" d="M72.5378 57.3714C72.3896 57.4497 72.2258 57.494 72.0584 57.5011C71.6466 57.5011 71.6861 57.0838 71.6974 56.7961C71.6974 56.6664 71.5226 56.4634 71.4323 56.6382C71.1842 57.0838 70.8683 57.5011 70.5976 57.9354C70.434 58.2005 70.1238 58.804 69.729 58.7194C69.5711 58.6855 69.5147 58.5107 69.5147 58.2907C69.7139 57.9254 69.8021 57.5098 69.7685 57.0951C69.7685 56.971 69.5429 56.8187 69.4809 56.9879C69.3381 57.3481 69.2543 57.729 69.2327 58.1159C69.0496 58.4377 68.8422 58.745 68.6123 59.0352C68.477 59.2101 68.3642 59.4075 68.2175 59.5992C68.178 59.6387 68.1104 59.7402 68.054 59.7458C67.9976 59.7515 67.9355 59.6895 67.9186 59.5992C67.9116 59.4666 67.9328 59.3339 67.9806 59.2101C67.9806 59.2101 67.9806 59.2101 67.9806 59.1762C67.9806 59.0465 67.8114 58.8547 67.7438 59.0183C67.4909 59.7088 67.108 60.3444 66.6158 60.8908L66.5424 60.9528C66.5424 60.8739 66.5424 60.8005 66.5424 60.7216C66.5353 60.5454 66.505 60.3709 66.4522 60.2027C66.4184 60.1181 66.2717 59.9884 66.1928 60.1012C65.8426 60.7384 65.4144 61.3295 64.9181 61.8608C64.8346 61.9295 64.746 61.9917 64.653 62.047C64.5628 62.0018 64.6982 61.5337 64.7207 61.483C64.7715 61.2743 64.8392 61.0713 64.9068 60.8682C64.9771 60.7055 65.0282 60.5351 65.0591 60.3606C65.0591 60.2027 64.8166 59.9602 64.7658 60.1745C64.7658 60.2591 64.67 60.4678 64.591 60.7385C64.2637 61.344 63.8923 61.9246 63.4799 62.4756C63.1097 63.0724 62.5959 63.5668 61.9853 63.9138C61.8161 64.0041 61.4946 64.1394 61.3085 64.0041C61.1224 63.8687 61.1393 63.6375 61.1337 63.4401C61.1263 62.9917 61.1871 62.5447 61.3142 62.1147C61.9151 61.7966 62.4724 61.4023 62.9723 60.9415C63.463 60.5492 63.8876 60.0808 64.23 59.5541C64.3992 59.2439 64.5008 58.7419 64.089 58.5671C63.8014 58.443 63.4348 58.646 63.1923 58.7814C62.8593 58.9787 62.5572 59.2238 62.2955 59.509C61.7652 60.1115 61.3794 60.8272 61.1675 61.6014C61.1337 61.7198 61.0829 61.8778 61.0378 62.0526C60.3881 62.3856 59.6514 62.5097 58.9284 62.4079C58.889 62.4079 58.872 62.4925 58.9284 62.4982C59.6204 62.6466 60.3414 62.5777 60.9927 62.3008C60.8066 63.1017 60.705 64.162 61.4495 64.3707C62.194 64.5793 63.0964 63.6431 63.4968 63.1017C63.8036 62.6971 64.0717 62.2647 64.2977 61.8101C64.3184 61.7768 64.341 61.7448 64.3654 61.7142C64.3654 62.0865 64.4387 62.3572 64.8053 62.2782C65.1719 62.1993 65.5047 61.7142 65.7077 61.4153C65.9108 61.1164 66.0743 60.8513 66.2717 60.5862C66.3056 60.9246 66.362 61.3025 66.6834 61.2404C67.0049 61.1784 67.2474 60.62 67.4166 60.3944C67.5858 60.1688 67.6704 59.9997 67.7776 59.7966C67.8001 59.8336 67.8246 59.8694 67.8509 59.9038C68.116 60.1858 68.4149 59.9038 68.6067 59.6556C68.8492 59.3398 69.1199 59.0014 69.3512 58.6404C69.4062 58.7955 69.5195 58.9229 69.667 58.9957C70.0787 59.1875 70.4622 58.8491 70.6991 58.5502C70.9869 58.1573 71.2434 57.7424 71.4662 57.3094C71.483 57.3912 71.5167 57.4687 71.5653 57.5367C71.6139 57.6047 71.6762 57.6617 71.7482 57.7042C71.8999 57.7807 72.0693 57.8154 72.2388 57.8044C72.4084 57.7935 72.572 57.7375 72.7126 57.6421C72.7916 57.5801 72.6731 57.3037 72.5378 57.3714ZM63.5758 58.9732C63.7619 58.8773 64.1398 58.7137 64.1793 59.0352C64.1534 59.2456 64.0628 59.4427 63.9198 59.5992C63.5936 60.0386 63.2148 60.4364 62.7918 60.7836C62.361 61.1808 61.8947 61.5376 61.3988 61.8496C61.5443 61.2462 61.8127 60.6793 62.1873 60.1843C62.5619 59.6894 63.0346 59.2771 63.5758 58.9732Z" fill="black"/>
<path d="M97.8615 72.2498L99.0064 72.9097L127.629 56.3845L126.484 55.7246L97.8615 72.2498Z" fill="#455A64"/>
<path d="M126.484 55.724L99.0062 71.5893V47.7716L126.484 31.9062V55.724Z" fill="#0CB8B6"/>
<g opacity="0.8">
<path d="M126.484 55.724L99.0062 71.5893V47.7716L126.484 31.9062V55.724Z" fill="white"/>
</g>
<path d="M128.774 29.2617L97.8839 47.1067V74.895L128.797 57.0444L128.774 29.2617ZM127.646 56.3845L99.0119 72.9097V47.7722L127.629 31.2526L127.646 56.3845Z" fill="#37474F"/>
<path d="M127.629 56.3843L126.484 55.7245V31.9067L127.629 31.2412V56.3843Z" fill="#263238"/>
<path d="M128.774 29.2614L127.629 28.6016L96.7164 46.4465L97.8614 47.1064L128.774 29.2614Z" fill="#455A64"/>
<path d="M96.7164 46.4463L97.8614 47.1062V74.8944L96.7164 74.2346V46.4463Z" fill="#263238"/>
<path d="M121.098 51.7199C122.164 51.0995 123.027 51.6015 123.027 52.8479C122.991 53.5177 122.797 54.1696 122.462 54.7506C122.127 55.3317 121.66 55.8257 121.098 56.1924C120.026 56.8072 119.164 56.3109 119.164 55.0644C119.199 54.3939 119.393 53.7414 119.73 53.1601C120.066 52.5789 120.535 52.0854 121.098 51.7199Z" fill="#0CB8B6"/>
<path opacity="0.2" d="M105.475 46.6831L120.032 38.2795C120.433 38.0427 120.76 38.2344 120.76 38.6969V38.742C120.746 38.9958 120.674 39.2429 120.547 39.4634C120.421 39.6838 120.244 39.8714 120.032 40.011L105.475 48.4259C105.075 48.6628 104.748 48.471 104.748 48.0029V47.9521C104.762 47.6987 104.835 47.452 104.962 47.2318C105.088 47.0115 105.264 46.8237 105.475 46.6831Z" fill="black"/>
<g opacity="0.2">
<path d="M103.174 53.3044L122.35 42.25C122.756 42.0132 123.083 42.1203 123.083 42.4869C123.054 42.7121 122.973 42.9273 122.845 43.1154C122.718 43.3034 122.548 43.459 122.35 43.5698L103.174 54.6355C102.774 54.8724 102.447 54.7652 102.452 54.393C102.482 54.1685 102.562 53.9536 102.687 53.765C102.812 53.5763 102.979 53.4188 103.174 53.3044Z" fill="black"/>
<path d="M103.174 55.9497L122.35 44.8897C122.756 44.6585 123.083 44.7656 123.083 45.1266C123.054 45.3524 122.972 45.5682 122.845 45.7571C122.718 45.946 122.548 46.1027 122.35 46.2151L103.174 57.2808C102.774 57.512 102.447 57.4049 102.452 57.0383C102.481 56.8135 102.561 56.5983 102.686 56.4095C102.811 56.2207 102.978 56.0634 103.174 55.9497Z" fill="black"/>
<path d="M103.174 58.5891L122.35 47.5291C122.756 47.2979 123.083 47.405 123.083 47.7716C123.054 47.9968 122.973 48.212 122.845 48.4001C122.718 48.5881 122.548 48.7437 122.35 48.8545L103.174 59.9202C102.774 60.1571 102.447 60.0443 102.452 59.6777C102.482 59.4532 102.562 59.2383 102.687 59.0497C102.812 58.861 102.979 58.7034 103.174 58.5891Z" fill="black"/>
</g>
<path opacity="0.3" d="M117.658 57.3714C117.51 57.451 117.346 57.4954 117.178 57.5011C116.772 57.5011 116.806 57.0838 116.817 56.7961C116.817 56.6664 116.643 56.4634 116.552 56.6382C116.304 57.0838 115.988 57.5011 115.718 57.9354C115.56 58.2005 115.244 58.804 114.855 58.7194C114.691 58.6855 114.635 58.5107 114.635 58.2907C114.834 57.9254 114.922 57.5098 114.888 57.0951C114.888 56.971 114.669 56.8187 114.601 56.9879C114.458 57.3481 114.374 57.729 114.353 58.1159C114.17 58.4377 113.962 58.745 113.732 59.0352C113.603 59.2101 113.484 59.4075 113.337 59.5992C113.304 59.6387 113.23 59.7402 113.174 59.7458C113.118 59.7515 113.055 59.6895 113.039 59.5992C113.032 59.4666 113.053 59.3339 113.101 59.2101C113.103 59.1989 113.103 59.1874 113.101 59.1762C113.101 59.0465 112.931 58.8547 112.864 59.0183C112.611 59.7088 112.228 60.3444 111.736 60.8908L111.662 60.9528C111.662 60.8739 111.662 60.8005 111.662 60.7216C111.655 60.5454 111.625 60.3709 111.572 60.2027C111.538 60.1181 111.392 59.9884 111.313 60.1012C110.964 60.7396 110.536 61.3309 110.038 61.8608C109.956 61.9308 109.867 61.9931 109.773 62.047C109.688 62.0018 109.824 61.5337 109.841 61.483C109.891 61.2743 109.959 61.0713 110.027 60.8682C110.097 60.7055 110.148 60.5351 110.179 60.3606C110.179 60.2027 109.937 59.9602 109.886 60.1745C109.886 60.2591 109.79 60.4678 109.711 60.7385C109.386 61.3451 109.014 61.9259 108.6 62.4756C108.23 63.0724 107.716 63.5668 107.105 63.9138C106.936 64.0041 106.615 64.1394 106.428 64.0041C106.242 63.8687 106.265 63.6375 106.254 63.4401C106.252 62.992 106.313 62.5459 106.434 62.1147C107.035 61.7966 107.592 61.4023 108.092 60.9415C108.584 60.5507 109.009 60.082 109.35 59.5541C109.519 59.2439 109.621 58.7419 109.209 58.5671C108.921 58.443 108.555 58.646 108.312 58.7814C107.975 58.9704 107.667 59.2079 107.399 59.4864C106.868 60.0889 106.482 60.8046 106.271 61.5788C106.237 61.6973 106.186 61.8552 106.141 62.0301C105.491 62.3631 104.754 62.4872 104.031 62.3854C103.992 62.3854 103.975 62.47 104.031 62.4756C104.723 62.624 105.444 62.5551 106.096 62.2782C105.91 63.0791 105.808 64.1394 106.553 64.3481C107.297 64.5568 108.199 63.6205 108.6 63.0791C108.907 62.6745 109.175 62.2421 109.401 61.7875C109.421 61.7543 109.444 61.7223 109.468 61.6917C109.468 62.0639 109.542 62.3346 109.908 62.2557C110.275 62.1767 110.608 61.6917 110.816 61.3927C111.025 61.0938 111.177 60.8287 111.38 60.5637C111.414 60.9021 111.476 61.2799 111.792 61.2179C112.108 61.1558 112.356 60.5975 112.525 60.3719C112.695 60.1463 112.779 59.9771 112.886 59.774C112.909 59.8111 112.933 59.8468 112.96 59.8812C113.225 60.1632 113.524 59.8812 113.715 59.633C113.958 59.3172 114.229 58.9788 114.46 58.6178C114.515 58.7729 114.628 58.9004 114.776 58.9732C115.187 59.1649 115.571 58.8265 115.808 58.5276C116.096 58.1348 116.352 57.7199 116.575 57.2868C116.592 57.3687 116.625 57.4461 116.674 57.5141C116.723 57.5821 116.785 57.6392 116.857 57.6816C117.009 57.7582 117.178 57.7928 117.348 57.7819C117.517 57.771 117.681 57.7149 117.821 57.6196C117.917 57.5801 117.793 57.3037 117.658 57.3714ZM108.696 58.9732C108.888 58.8773 109.26 58.7137 109.299 59.0352C109.273 59.2443 109.184 59.4408 109.045 59.5992C108.717 60.037 108.339 60.4346 107.917 60.7836C107.487 61.1808 107.02 61.5376 106.524 61.8496C106.669 61.2466 106.937 60.6801 107.31 60.1852C107.684 59.6903 108.156 59.2777 108.696 58.9732Z" fill="black"/>
</svg>
