<svg width="172" height="48" viewBox="0 0 172 48" fill="none" xmlns="http://www.w3.org/2000/svg">
<path d="M42.3346 0H5.96644C2.67127 0 0 2.67562 0 5.97616V42.0238C0 45.3244 2.67127 48 5.96644 48H42.3346C45.6298 48 48.3011 45.3244 48.3011 42.0238V5.97616C48.3011 2.67562 45.6298 0 42.3346 0Z" fill="#0CB8B6"/>
<path d="M68.2344 33.5781C68.2344 35.0938 69.125 36 70.6719 36H75.5781C82.9844 36 87.25 31.7344 87.25 24.7656C87.25 18.4062 83.3125 14.4688 76.0625 14.4688H70.6719C69.125 14.4688 68.2344 15.375 68.2344 16.8906V33.5781ZM73.6875 31.9219V18.5469H75.8125C79.7031 18.5469 81.6719 20.5312 81.6719 25.0938C81.6719 29.6719 79.4219 31.9219 75.8125 31.9219H73.6875ZM90.6006 28.2656C90.6006 33.125 93.835 36.3281 98.96 36.3281C104.444 36.3281 107.679 33.0938 107.679 27.7344C107.679 22.875 104.46 19.6562 99.335 19.6562C93.8506 19.6562 90.6006 22.9062 90.6006 28.2656ZM96.0069 27.9688C96.0069 25.0312 97.3819 23.6562 99.1162 23.6562C100.866 23.6562 102.288 25.0781 102.288 28.0312C102.288 30.9688 100.929 32.3438 99.1787 32.3438C97.4131 32.3438 96.0069 30.9375 96.0069 27.9688ZM110.936 28.625C110.936 33.3281 113.936 36.3281 118.732 36.3281C121.232 36.3281 122.623 35.6562 123.279 34.9688C123.717 34.5156 123.936 34.0156 123.936 33.3594C123.936 32.5 123.373 31.7188 122.451 31.7188C121.732 31.7188 121.295 32.2812 119.842 32.2812C117.826 32.2812 116.342 30.7969 116.342 28.1094C116.342 25.1562 117.811 23.6875 119.576 23.6875C120.998 23.6875 121.357 24.2812 122.264 24.2812C123.186 24.2812 123.842 23.5312 123.842 22.5C123.842 21.7188 123.639 21.2656 123.186 20.8125C122.67 20.2812 121.482 19.6875 119.529 19.6875C114.373 19.6875 110.936 23.125 110.936 28.625ZM128.411 23.8594V31.0781C128.411 34.5781 130.005 36.1719 133.474 36.1719C135.318 36.1719 136.458 35.625 136.989 35.1094C137.443 34.6562 137.661 34.1719 137.661 33.4531C137.661 32.5469 137.083 31.9219 136.318 31.9219C135.927 31.9219 135.63 32.0938 135.021 32.0938C134.146 32.0938 133.724 31.5469 133.724 30.25V23.8594H135.864C136.864 23.8594 137.536 23.2031 137.536 21.9219C137.536 20.6719 136.864 20 135.864 20H133.724V17.7188C133.724 16.3125 132.958 15.5625 131.599 15.5625C130.286 15.5625 129.568 16.2031 129.208 17.6094L128.614 20H127.552C126.552 20 125.88 20.6719 125.88 21.9219C125.88 23.2031 126.552 23.8594 127.552 23.8594H128.411ZM140.137 28.2656C140.137 33.125 143.371 36.3281 148.496 36.3281C153.981 36.3281 157.215 33.0938 157.215 27.7344C157.215 22.875 153.996 19.6562 148.871 19.6562C143.387 19.6562 140.137 22.9062 140.137 28.2656ZM145.543 27.9688C145.543 25.0312 146.918 23.6562 148.652 23.6562C150.402 23.6562 151.824 25.0781 151.824 28.0312C151.824 30.9688 150.465 32.3438 148.715 32.3438C146.949 32.3438 145.543 30.9375 145.543 27.9688ZM161.3 33.7969C161.3 35.2656 162.159 36.1094 163.956 36.1094C165.769 36.1094 166.613 35.2656 166.613 33.7969V26.6562C166.925 26.0781 167.738 24.875 168.706 24.875C169.222 24.875 169.503 25.1562 169.972 25.1562C170.956 25.1562 171.753 23.9844 171.753 22C171.753 20.375 171.003 19.6562 169.753 19.6562C168.081 19.6562 166.8 20.8281 166.066 22.4531H166.019L165.816 21.5312C165.55 20.5156 164.909 19.8281 163.519 19.8281C162.081 19.8281 161.3 20.5938 161.3 22.0312V33.7969Z" fill="white"/>
<circle cx="31.5" cy="34.5" r="7.5" fill="#FAFAFB"/>
</svg>
