<svg width="116" height="32" viewBox="0 0 116 32" fill="none" xmlns="http://www.w3.org/2000/svg">
<path d="M28.2231 0H3.97763C1.78084 0 0 1.78374 0 3.98411V28.0159C0 30.2163 1.78084 32 3.97763 32H28.2231C30.4199 32 32.2007 30.2163 32.2007 28.0159V3.98411C32.2007 1.78374 30.4199 0 28.2231 0Z" fill="#0CB8B6"/>
<path d="M50.3965 22.4863C50.3965 23.4336 50.9531 24 51.9199 24H54.9863C59.6152 24 62.2812 21.334 62.2812 16.9785C62.2812 13.0039 59.8203 10.543 55.2891 10.543H51.9199C50.9531 10.543 50.3965 11.1094 50.3965 12.0566V22.4863ZM53.8047 21.4512V13.0918H55.1328C57.5645 13.0918 58.7949 14.332 58.7949 17.1836C58.7949 20.0449 57.3887 21.4512 55.1328 21.4512H53.8047ZM64.3754 19.166C64.3754 22.2031 66.3969 24.2051 69.6 24.2051C73.0277 24.2051 75.0492 22.1836 75.0492 18.834C75.0492 15.7969 73.0375 13.7852 69.8344 13.7852C66.4066 13.7852 64.3754 15.8164 64.3754 19.166ZM67.7543 18.9805C67.7543 17.1445 68.6137 16.2852 69.6977 16.2852C70.7914 16.2852 71.6801 17.1738 71.6801 19.0195C71.6801 20.8555 70.8305 21.7148 69.7367 21.7148C68.6332 21.7148 67.7543 20.8359 67.7543 18.9805ZM77.0848 19.3906C77.0848 22.3301 78.9598 24.2051 81.9578 24.2051C83.5203 24.2051 84.3895 23.7852 84.7996 23.3555C85.073 23.0723 85.2098 22.7598 85.2098 22.3496C85.2098 21.8125 84.8582 21.3242 84.282 21.3242C83.8328 21.3242 83.5594 21.6758 82.6512 21.6758C81.3914 21.6758 80.4637 20.748 80.4637 19.0684C80.4637 17.2227 81.3816 16.3047 82.4852 16.3047C83.3738 16.3047 83.5984 16.6758 84.1648 16.6758C84.741 16.6758 85.1512 16.207 85.1512 15.5625C85.1512 15.0742 85.0242 14.791 84.741 14.5078C84.4188 14.1758 83.6766 13.8047 82.4559 13.8047C79.2332 13.8047 77.0848 15.9531 77.0848 19.3906ZM88.007 16.4121V20.9238C88.007 23.1113 89.0031 24.1074 91.1711 24.1074C92.3234 24.1074 93.0363 23.7656 93.3684 23.4434C93.6516 23.1602 93.7883 22.8574 93.7883 22.4082C93.7883 21.8418 93.427 21.4512 92.9484 21.4512C92.7043 21.4512 92.5187 21.5586 92.1379 21.5586C91.591 21.5586 91.3273 21.2168 91.3273 20.4062V16.4121H92.6652C93.2902 16.4121 93.7102 16.002 93.7102 15.2012C93.7102 14.4199 93.2902 14 92.6652 14H91.3273V12.5742C91.3273 11.6953 90.8488 11.2266 89.9992 11.2266C89.1789 11.2266 88.7297 11.627 88.5051 12.5059L88.134 14H87.4699C86.8449 14 86.425 14.4199 86.425 15.2012C86.425 16.002 86.8449 16.4121 87.4699 16.4121H88.007ZM95.3355 19.166C95.3355 22.2031 97.357 24.2051 100.56 24.2051C103.988 24.2051 106.009 22.1836 106.009 18.834C106.009 15.7969 103.998 13.7852 100.795 13.7852C97.3668 13.7852 95.3355 15.8164 95.3355 19.166ZM98.7145 18.9805C98.7145 17.1445 99.5738 16.2852 100.658 16.2852C101.752 16.2852 102.64 17.1738 102.64 19.0195C102.64 20.8555 101.791 21.7148 100.697 21.7148C99.5934 21.7148 98.7145 20.8359 98.7145 18.9805ZM108.562 22.623C108.562 23.541 109.1 24.0684 110.223 24.0684C111.355 24.0684 111.883 23.541 111.883 22.623V18.1602C112.078 17.7988 112.586 17.0469 113.191 17.0469C113.514 17.0469 113.689 17.2227 113.982 17.2227C114.598 17.2227 115.096 16.4902 115.096 15.25C115.096 14.2344 114.627 13.7852 113.846 13.7852C112.801 13.7852 112 14.5176 111.541 15.5332H111.512L111.385 14.957C111.219 14.3223 110.818 13.8926 109.949 13.8926C109.051 13.8926 108.562 14.3711 108.562 15.2695V22.623Z" fill="#4F4F59"/>
<circle cx="21" cy="23" r="5" fill="#FAFAFB"/>
</svg>
