<svg width="16" height="11" viewBox="0 0 16 11" fill="none" xmlns="http://www.w3.org/2000/svg">
<path d="M15.109 1.15698C14.8672 1.02241 14.5942 0.959043 14.3198 0.973807C14.0454 0.988572 13.7802 1.0809 13.5533 1.24069L10.6665 3.23862V1.65C10.666 1.21254 10.4973 0.793148 10.1973 0.48382C9.89736 0.174493 9.49068 0.000494942 9.06649 0H1.59997C1.17578 0.000494942 0.769098 0.174493 0.46915 0.48382C0.169202 0.793148 0.000479934 1.21254 0 1.65V9.35C0.000479934 9.78746 0.169202 10.2069 0.46915 10.5162C0.769098 10.8255 1.17578 10.9995 1.59997 11H9.06649C9.49068 10.9995 9.89736 10.8255 10.1973 10.5162C10.4973 10.2069 10.666 9.78746 10.6665 9.35V7.76127L13.5539 9.75931C13.7802 9.92017 14.0454 10.0132 14.32 10.0279C14.5945 10.0427 14.8677 9.97871 15.109 9.84302C15.3839 9.68559 15.612 9.45396 15.769 9.17296C15.9259 8.89197 16.0056 8.57222 15.9997 8.24802V2.7522C16.0057 2.42796 15.9259 2.10817 15.769 1.82713C15.6121 1.5461 15.3839 1.31442 15.109 1.15698ZM9.59981 9.35C9.59964 9.49582 9.5434 9.63561 9.44342 9.73872C9.34344 9.84182 9.20788 9.89983 9.06649 9.9H1.59997C1.45857 9.89983 1.32302 9.84182 1.22304 9.73872C1.12306 9.63561 1.06682 9.49582 1.06665 9.35V1.65C1.06682 1.50418 1.12306 1.36439 1.22304 1.26128C1.32302 1.15818 1.45857 1.10017 1.59997 1.1H9.06649C9.20788 1.10017 9.34344 1.15818 9.44342 1.26128C9.5434 1.36439 9.59964 1.50418 9.59981 1.65V9.35ZM14.933 8.2478C14.9388 8.37272 14.9115 8.4969 14.8541 8.60704C14.7966 8.71719 14.7112 8.80913 14.607 8.87304C14.5361 8.91438 14.4551 8.93382 14.3738 8.92907C14.2925 8.92431 14.2142 8.89554 14.1483 8.8462L10.6665 6.43676V4.56324L14.1477 2.15424C14.214 2.10561 14.2923 2.07729 14.3736 2.07255C14.4548 2.0678 14.5357 2.08681 14.607 2.1274C14.7111 2.19127 14.7965 2.28315 14.854 2.39321C14.9114 2.50326 14.9387 2.62735 14.933 2.7522V8.2478Z" fill="#0CB8B6"/>
</svg>
