<svg width="24" height="24" viewBox="0 0 24 24" fill="none" xmlns="http://www.w3.org/2000/svg">
<path d="M22.0155 17.2444C22.6138 17.2444 23.0988 16.7594 23.0988 16.1611C23.0988 15.5628 22.6138 15.0778 22.0155 15.0778C21.4172 15.0778 20.9321 15.5628 20.9321 16.1611C20.9321 16.7594 21.4172 17.2444 22.0155 17.2444Z" fill="#0CB8B6"/>
<path d="M19.6527 20.7338C20.251 20.7338 20.736 20.2488 20.736 19.6505C20.736 19.0522 20.251 18.5671 19.6527 18.5671C19.0544 18.5671 18.5693 19.0522 18.5693 19.6505C18.5693 20.2488 19.0544 20.7338 19.6527 20.7338Z" fill="#0CB8B6"/>
<path d="M22.8299 13.0876C23.4282 13.0876 23.9132 12.6026 23.9132 12.0043C23.9132 11.406 23.4282 10.921 22.8299 10.921C22.2316 10.921 21.7466 11.406 21.7466 12.0043C21.7466 12.6026 22.2316 13.0876 22.8299 13.0876Z" fill="#0CB8B6"/>
<path d="M16.1439 23.1009C16.7422 23.1009 17.2272 22.6158 17.2272 22.0175C17.2272 21.4192 16.7422 20.9342 16.1439 20.9342C15.5456 20.9342 15.0605 21.4192 15.0605 22.0175C15.0605 22.6158 15.5456 23.1009 16.1439 23.1009Z" fill="#0CB8B6"/>
<path d="M12.0001 21.75C10.4398 21.7519 8.90179 21.3792 7.51536 20.6634C6.12894 19.9476 4.93456 18.9095 4.03256 17.6363C3.13057 16.3632 2.54731 14.8921 2.33178 13.3468C2.11625 11.8014 2.27475 10.2269 2.79397 8.75553C3.31318 7.28415 4.17794 5.95886 5.3156 4.89102C6.45326 3.82317 7.83059 3.04396 9.33186 2.61885C10.8331 2.19373 12.4145 2.13513 13.9431 2.44796C15.4718 2.7608 16.903 3.43593 18.1166 4.41665H16.3334C16.0461 4.41665 15.7705 4.53078 15.5674 4.73395C15.3642 4.93711 15.2501 5.21266 15.2501 5.49998C15.2501 5.7873 15.3642 6.06285 15.5674 6.26601C15.7705 6.46918 16.0461 6.58331 16.3334 6.58331H20.6667C20.954 6.58331 21.2296 6.46918 21.4328 6.26601C21.6359 6.06285 21.7501 5.7873 21.7501 5.49998V1.16665C21.7501 0.879328 21.6359 0.603778 21.4328 0.400614C21.2296 0.19745 20.954 0.083313 20.6667 0.083313C20.3794 0.083313 20.1039 0.19745 19.9007 0.400614C19.6975 0.603778 19.5834 0.879328 19.5834 1.16665V2.82523C18.1102 1.60729 16.3655 0.761773 14.4968 0.360105C12.628 -0.0415638 10.69 0.0124117 8.84648 0.517472C7.00296 1.02253 5.30806 1.96384 3.90495 3.26189C2.50184 4.55994 1.43173 6.17661 0.785006 7.97533C0.138282 9.77405 -0.0660577 11.702 0.189247 13.5963C0.444551 15.4907 1.152 17.2957 2.25184 18.8591C3.35168 20.4224 4.8116 21.6981 6.50829 22.5784C8.20498 23.4586 10.0886 23.9177 12.0001 23.9166C12.2874 23.9166 12.5629 23.8025 12.7661 23.5993C12.9693 23.3962 13.0834 23.1206 13.0834 22.8333C13.0834 22.546 12.9693 22.2704 12.7661 22.0673C12.5629 21.8641 12.2874 21.75 12.0001 21.75Z" fill="#0CB8B6"/>
<path d="M16.0158 16.0159C16.2188 15.8127 16.3329 15.5372 16.3329 15.25C16.3329 14.9627 16.2188 14.6872 16.0158 14.484L13.0832 11.5515V5.49996C13.0832 5.21264 12.969 4.93709 12.7659 4.73393C12.5627 4.53076 12.2872 4.41663 11.9998 4.41663C11.7125 4.41663 11.437 4.53076 11.2338 4.73393C11.0306 4.93709 10.9165 5.21264 10.9165 5.49996V12C10.9166 12.2873 11.0307 12.5628 11.2339 12.7659L14.4839 16.0159C14.6871 16.219 14.9626 16.3331 15.2498 16.3331C15.5371 16.3331 15.8126 16.219 16.0158 16.0159Z" fill="#0CB8B6"/>
</svg>
