<svg width="14" height="14" viewBox="0 0 14 14" fill="none" xmlns="http://www.w3.org/2000/svg">
<path d="M1 2.33333C1 1.97971 1.14048 1.64057 1.39052 1.39052C1.64057 1.14048 1.97971 1 2.33333 1H4.52C4.65986 1.00011 4.79615 1.0442 4.90957 1.12603C5.02299 1.20787 5.1078 1.3233 5.152 1.456L6.15067 4.45133C6.20127 4.60356 6.19528 4.76893 6.13381 4.9171C6.07234 5.06527 5.9595 5.1863 5.816 5.258L4.31133 6.01133C5.04888 7.64369 6.35631 8.95112 7.98867 9.68867L8.742 8.184C8.8137 8.0405 8.93473 7.92766 9.0829 7.86619C9.23107 7.80472 9.39644 7.79873 9.54867 7.84933L12.544 8.848C12.6768 8.89223 12.7923 8.97714 12.8742 9.0907C12.956 9.20425 13 9.34069 13 9.48067V11.6667C13 12.0203 12.8595 12.3594 12.6095 12.6095C12.3594 12.8595 12.0203 13 11.6667 13H11C5.47733 13 1 8.52267 1 3V2.33333Z" stroke="#0CB8B6" stroke-width="1.25" stroke-linecap="round" stroke-linejoin="round"/>
</svg>
