<svg width="566" height="566" viewBox="0 0 566 566" fill="none" xmlns="http://www.w3.org/2000/svg">
<g clip-path="url(#clip0_953_1638)">
<path d="M472.825 58.6831C438.355 37.243 397.037 34.9111 360.632 52.7627C329.627 67.9202 305.504 93.6958 274.465 108.865C232.06 129.614 185.501 140.957 142.632 160.835C99.763 180.713 58.728 211.865 43.3554 256.557C25.2434 309.342 31.6052 371.409 59.3053 419.667C104.336 498.103 193.651 525.961 279.638 524.943C461.335 522.803 554.929 302.742 525.282 144.591C518.807 110.325 503.027 77.463 472.825 58.6831Z" fill="#0CB8B6"/>
<path opacity="0.7" d="M472.825 58.6831C438.355 37.243 397.037 34.9111 360.632 52.7627C329.627 67.9202 305.504 93.6958 274.465 108.865C232.06 129.614 185.501 140.957 142.632 160.835C99.763 180.713 58.728 211.865 43.3554 256.557C25.2434 309.342 31.6052 371.409 59.3053 419.667C104.336 498.103 193.651 525.961 279.638 524.943C461.335 522.803 554.929 302.742 525.282 144.591C518.807 110.325 503.027 77.463 472.825 58.6831Z" fill="white"/>
<path d="M129.14 390.85C121.822 390.85 114.668 388.68 108.584 384.614C102.499 380.548 97.7566 374.77 94.9561 368.009C92.1557 361.248 91.423 353.809 92.8506 346.631C94.2783 339.454 97.8022 332.861 102.977 327.687C108.151 322.512 114.744 318.988 121.921 317.561C129.099 316.133 136.538 316.866 143.299 319.666C150.06 322.467 155.838 327.209 159.904 333.294C163.97 339.378 166.14 346.532 166.14 353.85C166.14 363.663 162.241 373.074 155.303 380.013C148.364 386.951 138.953 390.85 129.14 390.85ZM129.14 318.57C122.154 318.568 115.324 320.637 109.514 324.517C103.705 328.397 99.1759 333.913 96.5011 340.366C93.8263 346.82 93.1254 353.922 94.4871 360.774C95.8488 367.626 99.2119 373.921 104.151 378.861C109.09 383.802 115.384 387.167 122.235 388.53C129.087 389.894 136.189 389.195 142.644 386.522C149.098 383.849 154.615 379.322 158.496 373.513C162.378 367.705 164.45 360.876 164.45 353.89C164.439 344.527 160.716 335.551 154.097 328.93C147.477 322.309 138.502 318.583 129.14 318.57Z" fill="#EBEBEB"/>
<path d="M127.28 396.08C126.72 396.08 126.16 396.02 125.6 395.98L125.74 394.34C126.27 394.34 126.81 394.42 127.35 394.44L127.28 396.08ZM133.16 395.93L133 394.3C133.54 394.25 134.07 394.18 134.61 394.11L134.83 395.74C134.28 395.82 133.73 395.88 133.16 395.93ZM119.78 395.08C119.23 394.96 118.69 394.82 118.14 394.68L118.57 393.09C119.09 393.23 119.62 393.36 120.14 393.48L119.78 395.08ZM140.61 394.55L140.16 392.96C140.68 392.82 141.16 392.66 141.71 392.49L142.22 394.06L140.61 394.55ZM112.61 392.75C112.09 392.53 111.61 392.3 111.07 392.06L111.77 390.57C112.26 390.81 112.77 391.03 113.25 391.24L112.61 392.75ZM147.7 391.85L146.98 390.37C147.47 390.13 147.98 389.89 148.42 389.63L149.2 391.08C148.68 391.34 148.18 391.6 147.67 391.85H147.7ZM105.94 389.17C105.47 388.86 105 388.54 104.55 388.17L105.55 386.83C105.98 387.15 106.43 387.46 106.88 387.75L105.94 389.17ZM154.17 387.93L153.17 386.6L154.45 385.6L155.45 386.88C155 387.25 154.59 387.6 154.14 387.93H154.17ZM99.9998 384.45C99.5898 384.06 99.1898 383.67 98.7998 383.26L99.9998 382.12C100.38 382.51 100.76 382.89 101.15 383.26L99.9998 384.45ZM159.82 382.92L158.63 381.79C159 381.4 159.36 381 159.72 380.59L160.95 381.67C160.57 382.1 160.2 382.51 159.81 382.92H159.82ZM94.9998 378.76C94.6698 378.31 94.3498 377.85 93.9998 377.38L95.3698 376.47C95.6698 376.91 95.9798 377.36 96.2998 377.79L94.9998 378.76ZM164.5 377L163.13 376.1C163.42 375.65 163.71 375.19 163.99 374.73L165.4 375.57C165.11 376 164.81 376.51 164.5 377ZM91.1098 372.3C90.8598 371.79 90.6298 371.3 90.3998 370.77L91.9098 370.11C92.1298 370.61 92.3498 371.11 92.5798 371.58L91.1098 372.3ZM168.11 370.3L166.6 369.66C166.81 369.16 167.01 368.66 167.2 368.15L168.74 368.73C168.49 369.26 168.28 369.78 168.06 370.3H168.11ZM88.4798 365.2C88.3298 364.66 88.1998 364.12 88.0698 363.57L89.6698 363.19C89.7898 363.72 89.9198 364.24 90.0698 364.76L88.4798 365.2ZM170.41 363.08L168.81 362.72C168.93 362.2 169.03 361.67 169.13 361.14L170.75 361.43C170.6 362 170.49 362.53 170.36 363.08H170.41ZM87.1298 357.76C87.0764 357.2 87.0364 356.64 87.0098 356.08L88.5998 356C88.5998 356.54 88.6398 357.08 88.7198 357.62L87.1298 357.76ZM171.38 355.57L169.74 355.51C169.74 354.97 169.74 354.43 169.74 353.89V353.72H171.39V353.88C171.37 354.46 171.36 355 171.33 355.57H171.38ZM88.6998 350.33L87.0598 350.19C87.0598 349.63 87.1698 349.07 87.2398 348.52L88.8698 348.72C88.8098 349.26 88.7498 349.79 88.6998 350.33ZM169.31 348.08C169.23 347.55 169.15 347.01 169.05 346.49L170.67 346.19C170.77 346.74 170.86 347.29 170.94 347.85L169.31 348.08ZM89.9998 343.17L88.4098 342.74C88.5631 342.2 88.7231 341.66 88.8898 341.12L90.4598 341.62C90.2698 342.13 90.1198 342.65 89.9998 343.17ZM167.64 341C167.46 340.48 167.28 340 167.09 339.47L168.63 338.89C168.83 339.41 169.02 339.94 169.2 340.47L167.64 341ZM92.5198 336.35L90.9998 335.65C91.2398 335.14 91.4898 334.65 91.7598 334.14L93.2098 334.91C92.9998 335.39 92.7498 335.87 92.5198 336.36V336.35ZM164.72 334.35C164.46 333.88 164.19 333.41 163.91 332.95L165.32 332.1C165.61 332.58 165.89 333.1 166.16 333.56L164.72 334.35ZM96.2398 330.11L94.9098 329.11C95.2398 328.66 95.5798 328.21 95.9098 327.77L97.1998 328.77C96.8898 329.24 96.5598 329.67 96.2398 330.11ZM160.66 328.32C160.32 327.9 159.986 327.49 159.66 327.09L160.9 326C161.27 326.42 161.63 326.85 161.98 327.28L160.66 328.32ZM101 324.62L99.8598 323.43C100.27 323.04 100.68 322.66 101.1 322.29L102.19 323.52C101.81 323.88 101.41 324.24 101 324.62ZM155.57 323.11C155.16 322.75 154.74 322.41 154.32 322.11L155.32 320.82C155.76 321.17 156.19 321.52 156.62 321.89L155.57 323.11ZM106.67 320.11L105.76 318.74L107.18 317.83L108.04 319.24C107.6 319.48 107.14 319.77 106.69 320.07L106.67 320.11ZM149.67 318.91L148.26 318.12L149.03 316.67C149.53 316.94 150.03 317.21 150.5 317.5L149.67 318.91ZM113.08 316.6L112.43 315.09C112.94 314.87 113.43 314.66 113.98 314.46L114.58 315.99C114.07 316.19 113.57 316.39 113.08 316.6ZM143.08 315.77C142.57 315.58 142.08 315.41 141.54 315.24L142.05 313.67C142.58 313.85 143.12 314.03 143.64 314.22L143.08 315.77ZM120 314.34L119.63 312.74C120.17 312.61 120.72 312.5 121.28 312.39L121.58 314.01C121 314.11 120.51 314.22 120 314.34ZM136.07 313.89C135.54 313.8 135.01 313.72 134.47 313.65L134.68 312.02C135.24 312.09 135.8 312.18 136.35 312.27L136.07 313.89ZM127.2 313.35L127.12 311.71C127.68 311.71 128.24 311.71 128.81 311.66V313.31C128.27 313.31 127.73 313.32 127.19 313.35H127.2Z" fill="#EBEBEB"/>
<path d="M123.47 376.75H134.86V359.57H152.04V348.18H134.86V331H123.47V348.18H106.29V359.57H123.47V376.75Z" fill="#EBEBEB"/>
<path d="M439.83 202.39C433.666 210.632 425.801 217.452 416.77 222.39C407.76 217.447 399.916 210.626 393.77 202.39C385.65 191.65 386.05 174.83 397.66 171.19C410.5 167.19 416.81 186.5 416.81 186.5C416.81 186.5 423.21 167.05 435.97 171.19C447.5 175 447.94 191.65 439.83 202.39Z" fill="#EBEBEB"/>
<path d="M407.72 213.899L404.22 199.329L401.93 204.469H387.8V202.819H400.87L404.68 194.229L407.41 205.589L411.27 182.049L414.68 200.669L417.37 192.899L421.61 205.629L422.55 202.819H445.77V204.459H423.74L421.61 210.819L417.34 198.009L414.18 207.129L411.36 191.679L407.72 213.899Z" fill="#2B7A79"/>
<path d="M416.81 229.299C409.492 229.299 402.338 227.129 396.253 223.063C390.169 218.998 385.426 213.219 382.626 206.458C379.826 199.697 379.093 192.258 380.521 185.08C381.948 177.903 385.472 171.31 390.647 166.136C395.821 160.961 402.414 157.437 409.591 156.01C416.769 154.582 424.208 155.315 430.969 158.115C437.73 160.916 443.508 165.658 447.574 171.743C451.64 177.827 453.81 184.981 453.81 192.299C453.81 202.112 449.911 211.523 442.973 218.462C436.034 225.401 426.623 229.299 416.81 229.299ZM416.81 157.019C409.824 157.019 402.995 159.09 397.187 162.971C391.379 166.852 386.851 172.369 384.178 178.822C381.505 185.276 380.805 192.378 382.168 199.229C383.531 206.081 386.895 212.374 391.835 217.314C396.774 222.253 403.068 225.617 409.919 226.98C416.77 228.343 423.872 227.644 430.326 224.97C436.78 222.297 442.296 217.77 446.177 211.962C450.058 206.153 452.13 199.324 452.13 192.339C452.127 182.97 448.406 173.986 441.783 167.36C435.16 160.733 426.178 157.007 416.81 156.999V157.019Z" fill="#EBEBEB"/>
<path d="M415 234.529C414.44 234.529 413.88 234.469 413.32 234.419L413.46 232.779C413.99 232.829 414.53 232.859 415.08 232.889L415 234.529ZM420.89 234.379L420.73 232.739C421.27 232.689 421.81 232.629 422.34 232.559L422.56 234.189C422 234.259 421.4 234.329 420.84 234.379H420.89ZM407.5 233.529C406.95 233.409 406.41 233.269 405.87 233.129L406.29 231.539C406.81 231.679 407.34 231.809 407.87 231.929L407.5 233.529ZM428.33 232.989L427.88 231.409C428.4 231.259 428.88 231.109 429.43 230.939L429.94 232.509C429.36 232.679 428.82 232.839 428.28 232.999L428.33 232.989ZM400.33 231.199C399.81 230.979 399.33 230.749 398.79 230.509L399.49 229.019L400.97 229.689L400.33 231.199ZM435.43 230.289L434.71 228.809C435.19 228.579 435.71 228.329 436.14 228.079L436.92 229.519C436.35 229.789 435.85 230.049 435.35 230.289H435.43ZM393.66 227.609C393.19 227.299 392.73 226.979 392.27 226.609L393.27 225.269C393.71 225.589 394.15 225.889 394.6 226.189L393.66 227.609ZM441.89 226.369L440.89 225.049C441.33 224.729 441.75 224.399 442.17 224.049L443.17 225.339C442.71 225.699 442.27 225.999 441.81 226.369H441.89ZM387.74 222.899C387.33 222.509 386.93 222.109 386.54 221.709L387.73 220.569C388.103 220.949 388.483 221.329 388.87 221.709L387.74 222.899ZM447.56 221.369L446.37 220.229C446.74 219.839 447.1 219.439 447.46 219.039L448.7 220.119C448.25 220.539 447.87 220.999 447.48 221.369H447.56ZM382.75 217.209C382.42 216.749 382.1 216.299 381.75 215.829L383.11 214.909C383.41 215.359 383.72 215.799 384.04 216.239L382.75 217.209ZM452.26 215.429L450.88 214.529C451.17 214.069 451.46 213.619 451.74 213.149L453.15 213.999C452.78 214.479 452.48 214.999 452.18 215.429H452.26ZM378.86 210.719C378.61 210.219 378.38 209.719 378.16 209.199L379.66 208.539C379.88 209.029 380.1 209.539 380.34 210.009L378.86 210.719ZM455.86 208.719L454.35 208.079C454.56 207.589 454.76 207.079 454.95 206.579L456.49 207.159C456.16 207.699 456 208.229 455.73 208.739L455.86 208.719ZM376.24 203.629C376.09 203.089 375.95 202.539 375.82 201.999L377.42 201.619C377.54 202.149 377.68 202.669 377.82 203.189L376.24 203.629ZM458 201.529L456.39 201.169C456.51 200.639 456.62 200.109 456.71 199.579L458.33 199.869C458.27 200.429 458.16 200.999 458 201.529ZM374.71 196.199C374.657 195.646 374.617 195.086 374.59 194.519L376.23 194.439C376.23 194.979 376.3 195.519 376.35 196.049L374.71 196.199ZM459 193.999L457.35 193.939C457.35 193.399 457.35 192.859 457.35 192.319V192.149H459V192.309C459 192.899 459 193.459 459 193.999ZM376.36 188.759L374.73 188.619C374.73 188.059 374.83 187.499 374.9 186.939L376.54 187.149C376.48 187.699 376.42 188.239 376.37 188.779L376.36 188.759ZM457 186.529C456.93 185.989 456.84 185.459 456.74 184.929L458.36 184.629C458.46 185.179 458.55 185.739 458.63 186.289L457 186.529ZM377.67 181.619L376.08 181.189C376.23 180.639 376.39 180.109 376.56 179.569L378.13 180.069C378 180.579 377.79 181.099 377.65 181.619H377.67ZM455.33 179.449C455.16 178.939 454.97 178.449 454.78 177.929L456.32 177.339C456.52 177.873 456.71 178.403 456.89 178.929L455.33 179.449ZM380.21 174.799L378.73 174.089C378.97 173.579 379.23 173.089 379.49 172.589L380.94 173.359C380.67 173.829 380.43 174.319 380.19 174.799H380.21ZM452.41 172.799C452.15 172.319 451.88 171.859 451.6 171.399L453.01 170.549C453.3 171.019 453.58 171.549 453.85 171.999L452.41 172.799ZM383.94 168.549L382.6 167.549C382.933 167.089 383.267 166.639 383.6 166.199L384.89 167.199C384.56 167.679 384.23 168.119 383.92 168.549H383.94ZM448.35 166.769C448.01 166.349 447.66 165.939 447.3 165.529L448.54 164.449C448.91 164.869 449.27 165.289 449.62 165.729L448.35 166.769ZM388.71 163.059L387.57 161.879C387.98 161.489 388.39 161.109 388.81 160.739L389.88 161.999C389.48 162.329 389.08 162.689 388.69 163.059H388.71ZM443.28 161.549C442.87 161.199 442.45 160.859 442.03 160.549L443.03 159.259C443.47 159.609 443.9 159.969 444.33 160.339L443.28 161.549ZM394.39 158.549L393.47 157.189C393.94 156.869 394.41 156.569 394.89 156.279L395.75 157.689C395.27 157.929 394.81 158.219 394.37 158.509L394.39 158.549ZM437.39 157.359C436.93 157.089 436.46 156.819 435.98 156.569L436.75 155.119C437.25 155.379 437.75 155.659 438.22 155.939L437.39 157.359ZM400.8 155.089L400.15 153.579C400.657 153.359 401.177 153.149 401.71 152.949L402.3 154.479C401.74 154.629 401.25 154.839 400.75 155.049L400.8 155.089ZM430.8 154.249C430.29 154.069 429.8 153.889 429.27 153.729L429.77 152.159C430.31 152.329 430.84 152.509 431.37 152.709L430.8 154.249ZM407.7 152.829L407.33 151.219C407.87 151.099 408.42 150.979 408.98 150.879L409.28 152.489C408.71 152.549 408.18 152.669 407.66 152.789L407.7 152.829ZM423.77 152.379C423.24 152.289 422.71 152.209 422.17 152.139L422.38 150.509C422.94 150.579 423.5 150.659 424.05 150.759L423.77 152.379ZM414.9 151.839L414.83 150.189C415.38 150.189 415.94 150.189 416.51 150.189V151.829C415.94 151.759 415.4 151.769 414.86 151.799L414.9 151.839Z" fill="#EBEBEB"/>
<path d="M170.412 187.125C177.22 162.34 162.647 136.728 137.862 129.92C113.077 123.112 87.4651 137.685 80.6568 162.47C73.8484 187.255 88.4215 212.867 113.207 219.675C137.992 226.484 163.604 211.911 170.412 187.125Z" fill="#EBEBEB"/>
<path d="M144.434 216.968C167.146 207.709 178.052 181.791 168.792 159.079C159.533 136.367 133.615 125.461 110.903 134.721C88.191 143.98 77.2855 169.898 86.5449 192.61C95.8042 215.322 121.722 226.228 144.434 216.968Z" fill="#DBDBDB"/>
<path d="M127.67 217.44C150.645 217.44 169.27 198.815 169.27 175.84C169.27 152.865 150.645 134.24 127.67 134.24C104.695 134.24 86.0703 152.865 86.0703 175.84C86.0703 198.815 104.695 217.44 127.67 217.44Z" fill="#2B7A79"/>
<path opacity="0.5" d="M168.339 167C149.339 178.48 118.249 197.31 100.849 207.63C95.931 203.482 92.0394 198.253 89.4795 192.35L146.999 139C152.385 141.826 157.087 145.797 160.773 150.634C164.46 155.472 167.043 161.058 168.339 167Z" fill="#EBEBEB"/>
<path opacity="0.5" d="M169.25 177.289C169.099 181.918 168.169 186.489 166.5 190.809L114.61 215.349C112.348 214.607 110.156 213.666 108.06 212.539C123.73 203.479 152.37 186.999 169.25 177.289Z" fill="#EBEBEB"/>
<path d="M128.07 137.26H127.27V143.57H128.07V137.26Z" fill="#C7C7C7"/>
<path d="M108.726 142.215L108.033 142.615L111.188 148.08L111.881 147.68L108.726 142.215Z" fill="#C7C7C7"/>
<path d="M94.4527 156.19L94.0527 156.883L99.5174 160.038L99.9174 159.345L94.4527 156.19Z" fill="#C7C7C7"/>
<path d="M95.3998 175.439H89.0898V176.239H95.3998V175.439Z" fill="#C7C7C7"/>
<path d="M99.5183 191.628L94.0537 194.783L94.4537 195.476L99.9183 192.321L99.5183 191.628Z" fill="#C7C7C7"/>
<path d="M111.187 203.582L108.036 209.049L108.729 209.448L111.88 203.982L111.187 203.582Z" fill="#C7C7C7"/>
<path d="M128.07 208.119H127.27V214.429H128.07V208.119Z" fill="#C7C7C7"/>
<path d="M144.154 203.588L143.461 203.988L146.616 209.453L147.309 209.053L144.154 203.588Z" fill="#C7C7C7"/>
<path d="M156.288 191.087L155.888 191.783L161.377 194.938L161.777 194.242L156.288 191.087Z" fill="#C7C7C7"/>
<path d="M166.26 175.439H159.95V176.239H166.26V175.439Z" fill="#C7C7C7"/>
<path d="M160.891 156.208L155.427 159.363L155.827 160.056L161.291 156.901L160.891 156.208Z" fill="#C7C7C7"/>
<path d="M146.617 142.222L143.464 147.688L144.157 148.087L147.31 142.622L146.617 142.222Z" fill="#C7C7C7"/>
<path d="M128.28 140.11L129.65 178.65L125.7 178.6L127.21 140.1L128.28 140.11Z" fill="#C7C7C7"/>
<path d="M152.28 162.399L126.36 178.949L124.47 175.479L151.77 161.459L152.28 162.399Z" fill="#A6A6A6"/>
<path d="M129 175.84C129 176.107 128.921 176.368 128.772 176.59C128.624 176.812 128.413 176.985 128.166 177.087C127.92 177.19 127.648 177.216 127.386 177.164C127.125 177.112 126.884 176.984 126.695 176.795C126.506 176.606 126.378 176.365 126.326 176.104C126.274 175.842 126.3 175.57 126.403 175.324C126.505 175.077 126.678 174.866 126.9 174.718C127.122 174.569 127.383 174.49 127.65 174.49C128.008 174.49 128.351 174.632 128.604 174.886C128.858 175.139 129 175.482 129 175.84Z" fill="#C7C7C7"/>
<path d="M105.589 400.059L92.4694 400.329L85.8094 400.449C83.5794 400.449 81.3394 400.449 79.1094 400.499H78.6694V400.059L78.6094 388.869V388.359H79.1094L92.3494 388.419C96.7694 388.419 101.179 388.529 105.589 388.579H105.869V388.849C105.869 390.739 105.779 392.629 105.739 394.499L105.589 400.059ZM105.589 400.059L105.449 394.399C105.449 392.539 105.339 390.699 105.319 388.869L105.589 389.139C101.179 389.189 96.7694 389.299 92.3494 389.299L79.1094 389.369L79.6094 388.869V400.059L79.1594 399.609C81.3394 399.609 83.5194 399.609 85.7094 399.659L92.2894 399.779L105.589 400.059Z" fill="#EBEBEB"/>
<path d="M90.8198 414.17L77.6998 414.44L71.0398 414.56C68.8098 414.56 66.5698 414.56 64.3398 414.61H63.8998V414.17L63.8398 403V402.49H64.3398L77.5798 402.55C81.9898 402.55 86.4098 402.66 90.8198 402.71H91.0998V403C91.0998 404.89 91.0198 406.78 90.9698 408.65L90.8198 414.17ZM90.8198 414.17L90.6798 408.51C90.6298 406.65 90.5698 404.81 90.5498 402.98L90.8198 403.25C86.4098 403.3 81.9898 403.41 77.5798 403.41L64.3398 403.47L64.8398 402.98L64.7898 414.17L64.3398 413.72C66.5198 413.72 68.6998 413.72 70.8898 413.72L77.4698 413.84L90.8198 414.17Z" fill="#EBEBEB"/>
<path d="M361.6 275.489L348.47 275.769L341.81 275.879C339.59 275.929 337.35 275.879 335.12 275.939H334.68V275.489L334.63 264.299V263.799H335.13L348.37 263.869C352.78 263.869 357.2 263.979 361.61 264.029H361.89V264.299C361.89 266.199 361.81 268.089 361.76 269.959L361.6 275.489ZM361.6 275.489L361.46 269.839C361.46 267.979 361.35 266.129 361.33 264.299L361.6 264.579C357.19 264.579 352.77 264.729 348.36 264.739L335.12 264.799L335.62 264.299L335.56 275.489L335.12 275.049C337.3 275.049 339.48 275.049 341.66 275.049L348.24 275.159L361.6 275.489Z" fill="#EBEBEB"/>
<path d="M346.829 289.6L333.699 289.88L326.999 290C324.779 290 322.539 290 320.309 290.06H319.859V289.61V278.42V277.92H320.359L333.599 277.99C338.009 277.99 342.419 278.1 346.839 278.15H347.109V278.42C347.109 280.32 347.019 282.21 346.979 284.08L346.829 289.6ZM346.829 289.6L346.689 283.95C346.639 282.09 346.569 280.24 346.549 278.41L346.829 278.69C342.409 278.74 337.999 278.84 333.589 278.85L320.349 278.91L320.849 278.41L320.789 289.6L320.349 289.16C322.529 289.16 324.709 289.16 326.889 289.21L333.469 289.32L346.829 289.6Z" fill="#EBEBEB"/>
<path d="M332.11 275.489L318.99 275.769L312.33 275.879C310.1 275.929 307.87 275.879 305.63 275.939H305.19V275.489L305.13 264.299V263.799H305.63L318.87 263.869C323.29 263.869 327.7 263.979 332.11 264.029H332.39V264.299C332.39 266.199 332.3 268.089 332.26 269.959L332.11 275.489ZM332.11 275.489L331.97 269.839C331.97 267.979 331.86 266.129 331.84 264.299L332.11 264.579C327.7 264.579 323.29 264.729 318.87 264.739L305.63 264.799L306.13 264.299L306.08 275.489L305.63 275.049C307.82 275.049 309.99 275.049 312.18 275.049L318.76 275.159L332.11 275.489Z" fill="#EBEBEB"/>
<path d="M481.66 414.17L468.53 414.44L461.87 414.56C459.65 414.56 457.41 414.56 455.18 414.61H454.73V414.17L454.68 403V402.49H455.18L468.42 402.55C472.83 402.55 477.25 402.66 481.66 402.71H481.93V403C481.93 404.89 481.85 406.78 481.8 408.65L481.66 414.17ZM481.66 414.17L481.52 408.51C481.52 406.65 481.4 404.81 481.39 402.98L481.66 403.25C477.25 403.3 472.83 403.41 468.42 403.41L455.18 403.47L455.68 402.98L455.62 414.17L455.18 413.72C457.36 413.72 459.54 413.72 461.72 413.72L468.3 413.84L481.66 414.17Z" fill="#EBEBEB"/>
<path d="M466.89 140.489L453.76 140.759L447.1 140.879C444.88 140.879 442.64 140.879 440.41 140.929H440V140.479V129.289V128.779H440.51L453.75 128.839C458.16 128.839 462.57 128.949 466.99 128.999H467.26V129.269C467.26 131.169 467.17 133.049 467.13 134.919L466.89 140.489ZM466.89 140.489L466.75 134.829C466.7 132.969 466.63 131.129 466.61 129.299L466.89 129.569C462.47 129.569 458.06 129.729 453.65 129.729L440.41 129.799L440.91 129.299L440.85 140.489L440.41 140.039C442.59 140.039 444.76 140.039 446.95 140.099L453.53 140.209L466.89 140.489Z" fill="#EBEBEB"/>
<path d="M481.66 154.598L468.53 154.868L461.87 154.988C459.65 154.988 457.41 154.988 455.18 155.038H454.73V154.598L454.68 143.408V142.898H455.18L468.42 142.958C472.83 142.958 477.25 143.068 481.66 143.118H481.93V143.388C481.93 145.278 481.85 147.168 481.8 149.038L481.66 154.598ZM481.66 154.598L481.52 148.938C481.52 147.078 481.4 145.238 481.39 143.408L481.66 143.678C477.25 143.678 472.83 143.838 468.42 143.838L455.18 143.908L455.68 143.408L455.62 154.598L455.18 154.148C457.36 154.148 459.54 154.148 461.72 154.208L468.3 154.318L481.66 154.598Z" fill="#EBEBEB"/>
<path d="M105.589 140.489L92.4694 140.759L85.8094 140.879C83.5794 140.879 81.3394 140.879 79.1094 140.929H78.6694V140.479L78.6094 129.299V128.789H79.1094L92.3494 128.849C96.7694 128.849 101.179 128.959 105.589 129.009H105.869V129.279C105.869 131.179 105.779 133.059 105.739 134.929L105.589 140.489ZM105.589 140.489L105.449 134.829C105.449 132.969 105.339 131.129 105.319 129.299L105.589 129.569C101.179 129.569 96.7694 129.729 92.3494 129.729L79.1094 129.799L79.6094 129.299V140.489L79.1094 139.999C81.2894 139.999 83.4694 139.999 85.6594 140.059L92.2394 140.169L105.589 140.489Z" fill="#EBEBEB"/>
<path d="M273 531.029C382.358 531.029 471.01 520.768 471.01 508.109C471.01 495.451 382.358 485.189 273 485.189C163.642 485.189 74.9902 495.451 74.9902 508.109C74.9902 520.768 163.642 531.029 273 531.029Z" fill="#EBEBEB"/>
<path d="M132.62 293.22H120V279.65H106.46V267.07H120V253.49H132.58V267.07H146.15V279.65H132.62V293.22ZM121.83 291.43H130.83V277.86H144.4V268.86H130.83V255.28H121.83V268.86H108.25V277.86H121.83V291.43Z" fill="#2B7A79"/>
<path d="M437.65 382.919H425.06V369.349H411.49V356.769H425.06V343.189H437.65V356.769H451.22V369.349H437.65V382.919ZM426.86 381.129H435.86V367.559H449.43V358.559H435.86V344.999H426.86V358.579H413.28V367.579H426.86V381.129Z" fill="#2B7A79"/>
<path d="M371.54 151.59V164.17H357.97V177.75H345.39V164.17H331.81V151.59H345.39V138.02H357.97V151.59H371.54Z" fill="#2B7A79"/>
<path d="M250.11 154.18C252.72 154.1 263.65 151.03 272.69 159.96C281.25 168.41 288.38 197.15 290.89 203.26C293.4 209.37 301.89 209 305 216C307.7 222.07 303.46 225.14 303.72 229.86C303.93 233.53 308.43 238.36 305.99 244.22C303.78 249.55 298.35 249.37 295.41 251.4C292.47 253.43 291.67 261.1 286.1 264.03C280.53 266.96 274.48 262.42 271.36 262.95C268.24 263.48 266.07 273.65 255.75 274.44C245.43 275.23 241.11 267.08 236.63 266.05C232.15 265.02 222.06 269.65 216.4 265.16C210.74 260.67 208.79 253.79 206.2 251.56C203.61 249.33 199.14 250.46 195.49 244.91C191.84 239.36 196.78 234.68 196.74 229.37C196.74 225.67 192.97 222.86 194.34 216.98C196.23 208.9 205.77 209.04 208.07 200.68C209.87 194.13 211.36 166.68 226.37 157.53C236.77 151.28 250.11 154.18 250.11 154.18Z" fill="#263238"/>
<path d="M290.34 201.779C291.168 203.031 292.291 204.061 293.61 204.779L297.38 207.109C299.929 208.495 302.244 210.273 304.24 212.379C305.169 213.384 305.853 214.591 306.238 215.904C306.623 217.217 306.699 218.602 306.46 219.949C306.139 221.316 305.61 222.624 304.89 223.829C304.054 225.152 303.417 226.591 303 228.099C302.86 229.76 303.275 231.42 304.18 232.819C304.87 234.159 305.61 235.419 306.23 236.719C307.48 239.279 308.15 242.109 307.23 244.719C306.826 246.016 305.998 247.139 304.88 247.909C303.684 248.667 302.353 249.186 300.96 249.439C299.54 249.769 298.08 249.959 296.61 250.209C295.112 250.336 293.686 250.911 292.52 251.859C293.763 251.079 295.201 250.663 296.67 250.659C298.14 250.529 299.62 250.469 301.11 250.249C302.64 250.058 304.118 249.568 305.46 248.809C306.838 247.96 307.893 246.676 308.46 245.159C309.73 242.159 308.87 238.739 307.61 236.049C306.99 234.669 306.25 233.359 305.61 232.049C304.889 230.955 304.538 229.658 304.61 228.349C305.11 225.889 307.4 223.349 307.92 220.209C308.194 218.637 308.085 217.022 307.603 215.501C307.121 213.98 306.279 212.597 305.15 211.469C302.967 209.384 300.465 207.659 297.74 206.359L293.74 204.359C292.433 203.756 291.273 202.876 290.34 201.779Z" fill="#263238"/>
<path d="M214 174.93C211.94 179.84 211 185.11 209.58 190.17C208.86 192.7 208.23 195.26 207.33 197.7C206.926 198.894 206.393 200.041 205.74 201.12C205.608 201.37 205.436 201.596 205.23 201.79C205.048 202.009 204.836 202.201 204.6 202.36C204.1 202.74 203.6 203.09 203.01 203.43C200.723 204.811 198.507 206.306 196.37 207.91C194.11 209.579 192.426 211.91 191.55 214.58C191.142 215.947 191.087 217.395 191.39 218.79C191.757 220.127 192.374 221.383 193.21 222.49C194.8 224.62 196.32 226.76 196.82 229.41C196.72 226.71 195.24 224.27 193.9 222.04C193.202 220.984 192.707 219.807 192.44 218.57C192.25 217.355 192.374 216.113 192.8 214.96C193.714 212.614 195.288 210.582 197.33 209.11C199.456 207.578 201.659 206.157 203.93 204.85C204.49 204.48 205.05 204.1 205.6 203.67C206.172 203.21 206.647 202.643 207 202C207.702 200.807 208.269 199.539 208.69 198.22C209.536 195.685 210.224 193.1 210.75 190.48L212.27 182.68C212.695 180.065 213.272 177.477 214 174.93Z" fill="#263238"/>
<path d="M203.46 250.219C204.81 251.539 205.27 253.469 205.98 255.219C206.69 256.969 207.35 258.759 208.13 260.509C208.888 262.294 209.833 263.993 210.95 265.579C212.095 267.254 213.629 268.626 215.42 269.579C219.35 271.289 223.53 270.339 227.08 269.089C228.89 268.449 230.63 267.719 232.41 267.089C234.143 266.372 236.021 266.077 237.89 266.229C236.015 265.746 234.045 265.766 232.18 266.289C230.31 266.729 228.51 267.289 226.69 267.809C223.15 268.809 219.29 269.439 216.14 268.009C214.586 267.175 213.247 265.99 212.23 264.549C211.125 263.067 210.142 261.499 209.29 259.859C208.39 258.209 207.58 256.509 206.73 254.859C206.29 254.009 205.84 253.169 205.35 252.349C204.911 251.49 204.261 250.756 203.46 250.219Z" fill="#263238"/>
<path d="M301.65 479.089H215.03L209.88 371.949H287.28L301.65 479.089Z" fill="#37474F"/>
<path d="M263.04 371.949L253.89 444.509L253.88 444.619L253.68 446.129L253.31 449.099L252.89 452.409L252.74 453.589L252.62 454.539L249.53 479.089H215.03L209.88 371.949H263.04Z" fill="#263238"/>
<path d="M284.06 479.09H281.77C281.65 478.14 281.54 477.2 281.42 476.25C278.34 451.25 275.35 426.25 272.75 401.25C272.51 398.96 272.27 396.66 272.04 394.37C272.04 394.01 272.62 393.94 272.67 394.3C272.88 395.84 273.1 397.38 273.3 398.92C277 425.62 280.52 452.36 284.06 479.09Z" fill="#263238"/>
<path d="M279.42 371.869C279.424 371.896 279.424 371.923 279.42 371.949C279.19 373.019 276.66 384.759 273.32 398.949C273.14 399.719 272.96 400.499 272.77 401.279C271.29 407.469 269.68 414.019 268.05 420.279C264.53 433.869 260.92 446.049 258.46 450.059C258.192 450.556 257.821 450.989 257.37 451.329C256.57 451.799 254.87 452.639 252.76 453.629L251.36 454.279L250.16 454.829C245.36 457.029 239.59 459.549 236.92 460.659V460.869L235.99 479.109H154.4L163.04 427.109L173.47 371.919L279.42 371.869Z" fill="#37474F"/>
<path d="M264.42 447.759C254.928 451.214 245.753 455.487 237 460.529C236.933 460.568 236.883 460.63 236.86 460.704C236.837 460.778 236.842 460.858 236.875 460.928C236.907 460.998 236.965 461.053 237.036 461.083C237.107 461.113 237.187 461.115 237.26 461.089C246.49 457.089 255.91 453.329 264.91 448.859C265.056 448.794 265.17 448.674 265.227 448.525C265.284 448.376 265.28 448.21 265.215 448.064C265.15 447.918 265.03 447.804 264.881 447.747C264.732 447.69 264.566 447.694 264.42 447.759Z" fill="#263238"/>
<path d="M267.2 384.519C267.2 384.199 266.62 384.129 266.62 384.519C266.69 395.519 265.99 405.119 265.07 415.369C264.64 420.119 260.82 446.369 252.57 444.489C251.19 444.169 250.48 442.809 250.27 440.729C250.01 438.219 250.95 435.159 251.36 432.669C252.28 427.169 253.01 421.669 253.48 416.089C254.446 405.742 254.335 395.323 253.15 384.999C253.138 384.937 253.105 384.882 253.057 384.842C253.009 384.802 252.948 384.781 252.885 384.781C252.823 384.781 252.762 384.802 252.714 384.842C252.665 384.882 252.632 384.937 252.62 384.999C252.62 399.359 252.25 413.689 250.11 427.919C249.11 434.749 245.63 445.039 252.78 446.099C259.93 447.159 264.78 429.929 265.66 425.209C268.14 411.999 268.24 397.839 267.2 384.519Z" fill="#263238"/>
<path d="M252.79 445.158C252.051 446.929 251.43 448.746 250.93 450.598C250.404 452.033 250.143 453.551 250.16 455.078C250.16 455.368 250.58 455.398 250.73 455.198C251.589 453.855 252.236 452.388 252.65 450.848C253.28 449.158 253.94 447.488 254.52 445.788C254.603 445.559 254.592 445.306 254.489 445.084C254.386 444.863 254.199 444.692 253.97 444.608C253.741 444.525 253.487 444.536 253.266 444.639C253.045 444.742 252.873 444.929 252.79 445.158Z" fill="#263238"/>
<path d="M191.761 450.619C190.941 460.119 189.971 469.619 188.951 479.089H188.061C189.061 469.589 190.201 460.089 191.431 450.609C191.461 450.399 191.781 450.399 191.761 450.619Z" fill="#263238"/>
<path d="M247.751 276.059C255.221 300.419 287.551 387.429 309.231 400.689C323.421 409.359 394.691 414.289 408.401 407.929C416.011 404.389 413.641 346.829 404.671 346.509C393.481 346.109 338.471 344.629 332.381 341.719C326.291 338.809 285.201 283.859 269.541 267.209C242.551 238.489 242.771 259.839 247.751 276.059Z" fill="#AD6359"/>
<path d="M387.62 342.189L377.46 412.589C377.46 412.589 319.58 414.289 303.8 401.379C281.31 382.999 249.06 289.999 245.4 275.449C236.73 240.949 256.05 246.709 271.25 263.449C281.12 274.349 319.95 330.109 334.33 340.379C338.41 343.329 387.62 342.189 387.62 342.189Z" fill="#EBEBEB"/>
<path d="M363.2 409.139C364.39 398.689 370.82 356.139 372.83 347.009C372.97 346.379 373.41 346.309 373.35 347.009C370.54 378.399 365.35 399.009 363.62 409.189C363.57 409.429 363.17 409.409 363.2 409.139Z" fill="#263238"/>
<path d="M287.31 345.808L296.98 412.308C296.98 412.308 188.6 413.908 161.69 412.018C161.69 412.018 183.64 287.688 212.57 256.268C227.04 240.558 244.03 241.738 254.86 252.718C257.6 255.498 290.29 298.718 293.73 315.208C296.73 329.768 287.31 345.808 287.31 345.808Z" fill="#2B7A79"/>
<path d="M245.08 338.388C250.858 337.867 256.667 337.77 262.46 338.098C265.33 338.308 268.18 338.638 271.03 339.038C272.45 339.238 273.88 339.388 275.3 339.528C276.794 339.713 278.306 339.713 279.8 339.528C279.93 339.528 279.96 339.708 279.8 339.738C278.416 340.055 277.013 340.282 275.6 340.418C274.228 340.513 272.852 340.513 271.48 340.418C268.56 340.238 265.65 339.928 262.73 339.718C256.85 339.298 250.97 338.868 245.07 338.878C244.82 338.878 244.81 338.418 245.08 338.388Z" fill="#263238"/>
<path d="M232.001 345.999C236.603 344.659 241.277 343.577 246.001 342.759C248.361 342.359 250.731 342.099 253.121 341.899C254.251 341.809 255.401 341.729 256.541 341.669C257.681 341.609 259.061 341.669 260.311 341.669C260.441 341.669 260.481 341.859 260.311 341.879C259.131 341.989 257.961 342.299 256.791 342.489L253.251 343.029C250.901 343.399 248.551 343.799 246.181 344.149C241.461 344.839 236.761 345.579 232.061 346.439C231.761 346.409 231.721 346.049 232.001 345.999Z" fill="#263238"/>
<path d="M231.38 479.088H145.87C155.87 416.268 167.87 351.928 179.42 319.548C204.28 249.738 224.57 247.068 224.57 247.068V247.148C224.68 250.098 227.57 329.228 229.79 412.918C230.39 435.098 230.94 457.598 231.38 479.088Z" fill="#EBEBEB"/>
<path d="M217.26 441.599C217.26 439.159 216.72 427.598 216.5 425.268C216.5 424.998 216.4 424.458 216.18 424.458C212.99 424.458 201.92 425.589 190.77 425.589C182.797 425.439 174.84 424.818 166.94 423.729C166.57 423.839 166.57 436.538 166.37 442.678C165.97 455.488 166.56 469.978 169.29 472.678C174.39 477.678 187.98 477.248 192.29 477.208C196.6 477.168 211.79 477.159 215.36 469.319C216.88 465.809 217.3 447.929 217.26 441.599ZM215.26 454.599C215.08 460.919 214.88 466.598 212.45 469.928C210.37 472.738 204.5 475.569 190.99 475.559C181.23 475.559 172.99 473.769 170.74 471.169C168.04 468.059 167.74 459.119 167.74 453.779C167.74 446.409 167.74 440.519 167.74 433.159C186.61 437.539 207.37 435.379 215.24 433.789C215.27 434.099 215.44 449.649 215.29 454.599H215.26ZM215.31 432.599C190.8 435.749 175.63 433.119 167.77 431.599C167.77 429.239 167.77 427.399 167.77 425.029C171.14 425.879 182.48 427.229 190.98 427.229C198.89 427.229 210.51 426.129 215.44 425.539C215.3 427.479 215.4 431.699 215.34 432.589L215.31 432.599Z" fill="#DBDBDB"/>
<path d="M222 279.89C217.19 299.8 192.45 370.62 186.3 376.76C178.97 384.08 147.01 406.59 135.87 376.62C128.15 355.87 180.61 283.13 205.4 259.62C217.5 248.21 230.05 246.53 222 279.89Z" fill="#EBEBEB"/>
<path d="M213.54 316.169C212.04 318.939 210.39 321.629 208.77 324.329C209.15 323.329 209.52 322.329 209.88 321.329C211.44 317.019 212.88 312.659 214.47 308.329C214.53 308.189 214.31 308.139 214.25 308.269C212.58 312.019 210.81 315.739 209.18 319.519C207.55 323.299 206.18 326.939 204.7 330.689C201.79 338.239 198.84 345.779 196.14 353.409C194.542 357.625 193.174 361.925 192.04 366.289C192.04 366.409 192.19 366.499 192.25 366.379C194.04 362.769 195.45 358.969 196.89 355.209C198.33 351.449 199.77 347.729 201.17 343.969C202.57 340.209 204.06 336.319 205.54 332.509C206.28 330.589 207.05 328.689 207.8 326.779C210.097 323.444 212.05 319.886 213.63 316.159C213.65 316.159 213.56 316.119 213.54 316.169Z" fill="#263238"/>
<path d="M223.67 247.158C221.004 252.785 218.417 258.452 215.91 264.158C213.41 269.858 210.83 275.518 208.41 281.258L208.11 281.978L208.76 282.418L219.25 289.508L219 287.998C216.15 292.258 213.39 296.568 210.61 300.868L210.34 301.288L210.49 301.748C213.3 310.458 216.01 319.198 218.96 327.868C221.91 336.538 224.8 345.218 227.9 353.868C225.52 345.015 223.027 336.205 220.42 327.438C217.9 318.638 215.14 309.918 212.48 301.158L212.36 302.038C215.18 297.768 218.02 293.508 220.78 289.188L221.35 288.288L220.48 287.718L209.86 280.818L210.22 281.978C212.6 276.228 214.8 270.408 217.1 264.628C219.4 258.848 221.53 252.998 223.67 247.158Z" fill="#DBDBDB"/>
<path d="M307.43 479.09H276.55C274.72 457.46 272.84 434.85 270.98 412.62C268.33 380.85 265.71 349.85 263.27 323.55C261.09 299.075 257.238 274.779 251.74 250.83C251.6 250.22 251.51 249.83 251.49 249.78C252.726 250.549 253.83 251.511 254.76 252.63C254.791 252.666 254.825 252.699 254.86 252.73L255.19 253.1C255.279 253.188 255.363 253.282 255.44 253.38C260.75 259.21 269.63 271.13 277.53 283.38C285.15 295.18 291.87 307.27 293.53 314.45L293.62 314.85C293.67 315.08 293.71 315.3 293.75 315.52C294.077 317.424 294.261 319.349 294.3 321.28C294.374 329.17 292.334 336.936 288.39 343.77C288.364 343.829 288.334 343.886 288.3 343.94C288.04 344.38 287.88 344.61 287.88 344.61V344.72L298 414L307.43 479.09Z" fill="#EBEBEB"/>
<path d="M283.061 293.52C280.061 288.7 276.931 283.93 273.961 279.07C273.871 278.93 274.091 278.77 274.191 278.9C277.191 282.9 280.191 286.9 283.101 290.97C282.101 288.8 281.191 286.62 280.321 284.4C280.221 284.15 280.571 283.94 280.691 284.19C282.041 287.04 283.251 289.94 284.451 292.86C287.062 296.48 289.377 300.306 291.371 304.3C295.501 312.79 297.281 322.07 295.041 331.35C294.433 333.913 293.527 336.397 292.341 338.75C291.541 340.35 288.931 343.83 288.951 343.93C290.651 353.41 291.951 363 293.261 372.54C294.571 382.08 295.981 391.84 297.111 401.54C297.741 407.02 298.111 412.54 298.951 418.01C298.951 418.21 298.671 418.29 298.641 418.09C297.951 413.33 296.921 408.62 296.071 403.88C295.221 399.14 294.431 394.4 293.661 389.64C292.121 380.04 290.741 370.4 289.351 360.77C288.571 355.33 287.711 349.88 287.091 344.41C287.021 343.81 289.481 339.93 290.211 338.41C291.183 336.395 291.979 334.301 292.591 332.15C293.842 327.776 294.23 323.201 293.731 318.68C292.681 309.46 287.901 301.25 283.061 293.52Z" fill="#263238"/>
<path d="M251.74 250.83C254.927 255.67 258.17 260.467 261.47 265.22C264.79 269.96 268.03 274.76 271.41 279.45L271.48 278.33L263.36 286.84L262.69 287.54L263.4 288.23C266.82 291.54 270.3 294.79 273.77 298.05L273.48 297.21C272.22 306.03 270.87 314.83 269.75 323.67C268.63 332.51 267.44 341.34 266.47 350.2C268.15 341.44 269.68 332.67 271.15 323.88C272.62 315.09 273.99 306.29 275.39 297.5L275.47 297L275.1 296.65C271.67 293.35 268.24 290.04 264.76 286.8V288.19L272.76 279.53L273.26 278.99L272.83 278.41C269.42 273.74 265.83 269.17 262.39 264.54C258.95 259.91 255.35 255.37 251.74 250.83Z" fill="#DBDBDB"/>
<path d="M212.7 262.069C211.89 250.239 226.22 245.539 235.08 244.319C245.57 242.879 252.56 243.749 257.61 253.929C262.93 264.659 265.72 277.109 267.81 288.859C268.2 291.049 271.62 290.499 271.23 288.299C268.82 274.769 265.36 249.519 251.88 242.179C239.47 235.409 207.88 242.579 209.28 262.619C209.43 264.849 212.85 264.279 212.7 262.069Z" fill="#455A64"/>
<path d="M278.42 293.768C278.683 295.333 278.474 296.94 277.821 298.386C277.168 299.831 276.1 301.05 274.753 301.888C273.406 302.725 271.84 303.143 270.255 303.088C268.669 303.034 267.136 302.509 265.849 301.581C264.563 300.653 263.582 299.363 263.03 297.876C262.478 296.388 262.381 294.771 262.751 293.228C263.121 291.685 263.941 290.288 265.107 289.212C266.273 288.137 267.732 287.432 269.3 287.188C270.331 287.021 271.384 287.059 272.401 287.299C273.417 287.54 274.376 287.978 275.223 288.589C276.07 289.2 276.788 289.972 277.337 290.861C277.885 291.749 278.253 292.737 278.42 293.768Z" fill="#263238"/>
<path d="M275.291 294.278C275.435 295.213 275.299 296.17 274.9 297.028C274.501 297.886 273.856 298.607 273.048 299.099C272.24 299.591 271.304 299.833 270.359 299.794C269.413 299.755 268.501 299.437 267.736 298.88C266.971 298.322 266.389 297.551 266.062 296.663C265.735 295.775 265.678 294.81 265.899 293.89C266.12 292.97 266.608 292.136 267.303 291.493C267.997 290.85 268.866 290.428 269.801 290.278C270.424 290.177 271.061 290.201 271.676 290.348C272.29 290.494 272.869 290.762 273.38 291.133C273.89 291.505 274.322 291.975 274.65 292.515C274.978 293.054 275.196 293.654 275.291 294.278Z" fill="#EBEBEB"/>
<path d="M224.73 299.129C233.48 332.359 232.13 340.479 229.37 344.299C227.29 346.971 224.621 349.127 221.57 350.599L220.57 348.409C223.235 347.1 225.575 345.215 227.42 342.889C229.42 340.129 231.06 332.649 222.42 299.739L224.73 299.129Z" fill="#C7C7C7"/>
<path d="M216.301 350.426L217.716 352.98C218.013 353.516 218.689 353.71 219.225 353.413L224.596 350.439C225.132 350.141 225.326 349.466 225.029 348.93L223.615 346.375C223.318 345.839 222.642 345.645 222.106 345.942L216.735 348.917C216.198 349.214 216.004 349.889 216.301 350.426Z" fill="#263238"/>
<path d="M203.001 299.999C196.411 324.999 194.821 338.759 198.001 343.149C199.846 345.472 202.186 347.354 204.851 348.659L203.851 350.859C200.8 349.387 198.131 347.231 196.051 344.559C192.271 339.339 193.611 326.249 200.681 299.389L203.001 299.999Z" fill="#C7C7C7"/>
<path d="M201.829 346.628L200.416 349.183C200.119 349.719 200.314 350.395 200.85 350.691L206.224 353.663C206.76 353.959 207.435 353.765 207.732 353.228L209.145 350.673C209.442 350.136 209.247 349.461 208.711 349.164L203.337 346.193C202.801 345.897 202.126 346.091 201.829 346.628Z" fill="#263238"/>
<path d="M199.87 298.3C200.969 292.757 202.409 287.286 204.18 281.92C205.228 279.551 206.893 277.506 209 276C209.48 275.95 209.27 271.73 209 268.29C208.78 265.29 208.46 261.71 209.19 260.73C209.611 260.277 210.193 260.006 210.81 259.974C211.428 259.942 212.034 260.152 212.5 260.56C213.33 261.45 213.38 265.01 213.5 268.06C213.62 271.51 213.86 275.72 214.34 275.72C216.472 277.102 218.238 278.979 219.49 281.19C221.821 286.486 223.747 291.952 225.25 297.54C226.02 301.1 224.85 301.54 223.83 301.9C222.39 302.39 221.47 301.4 220.34 297.46C218.54 291.22 216.27 280.71 211.92 280.74C207.61 281.18 205.86 292.31 204.48 298.52C203.61 302.41 202.79 302.78 201.3 302.44C200.26 302.19 199.19 301.75 199.87 298.3Z" fill="#263238"/>
<path d="M252.45 247.79C252.45 247.79 253.45 267.06 249.89 267.38C239.1 268.38 227.1 253.54 226.44 251.19C226.27 250.59 227.14 235.63 227.85 224C228.3 216.52 228.69 210.42 228.69 210.42L256.26 226.22L252.71 246.35L252.45 247.79Z" fill="#AD6359"/>
<path d="M256.261 226.22L252.711 246.35C247.229 244.58 242.183 241.675 237.899 237.824C233.616 233.973 230.192 229.263 227.851 224C228.301 216.52 228.691 210.42 228.691 210.42L232.161 212.26L256.261 226.22Z" fill="#263238"/>
<path d="M284.64 194.16C290.39 229.58 269.82 237.02 262.18 238.25C255.25 239.37 231.5 242.3 222.12 207.66C212.74 173.02 227.39 159.16 243.12 155.76C258.85 152.36 278.89 158.74 284.64 194.16Z" fill="#AD6359"/>
<path d="M276 189.789C275.172 189.737 274.347 189.64 273.53 189.499C272.651 189.518 271.79 189.248 271.08 188.729C270.89 188.522 270.773 188.258 270.747 187.977C270.722 187.697 270.79 187.417 270.94 187.179C271.308 186.762 271.779 186.451 272.305 186.275C272.832 186.099 273.396 186.066 273.94 186.179C275.096 186.233 276.189 186.722 277 187.549C277.166 187.744 277.273 187.983 277.31 188.236C277.346 188.49 277.31 188.749 277.205 188.984C277.101 189.218 276.932 189.418 276.719 189.56C276.506 189.703 276.256 189.782 276 189.789Z" fill="#263238"/>
<path d="M252 192.87C252.83 192.69 253.56 192.39 254.36 192.14C255.233 192 256.035 191.574 256.64 190.93C256.791 190.692 256.858 190.41 256.831 190.129C256.804 189.849 256.684 189.585 256.49 189.38C256.051 189.028 255.525 188.8 254.967 188.721C254.409 188.641 253.84 188.714 253.32 188.93C252.196 189.198 251.212 189.876 250.56 190.83C250.427 191.057 250.361 191.318 250.372 191.581C250.383 191.845 250.47 192.099 250.622 192.315C250.774 192.53 250.985 192.697 251.229 192.796C251.474 192.894 251.741 192.92 252 192.87Z" fill="#263238"/>
<path d="M258.731 200.939C258.731 200.849 258.561 201.069 258.571 201.169C258.931 203.589 258.931 206.419 256.821 207.479C256.761 207.479 256.821 207.629 256.821 207.609C259.491 206.929 259.461 203.169 258.731 200.939Z" fill="#263238"/>
<path d="M256.271 198.65C252.341 198.8 252.931 206.65 256.581 206.53C260.231 206.41 259.571 198.52 256.271 198.65Z" fill="#263238"/>
<path d="M254.76 199.179C254.11 199.679 253.49 200.519 252.67 200.659C251.85 200.799 250.93 200.059 250.25 199.309C250.18 199.239 250.11 199.309 250.12 199.419C250.21 200.919 250.91 202.419 252.54 202.529C254.17 202.639 254.99 201.209 255.25 199.659C255.3 199.379 255 198.999 254.76 199.179Z" fill="#263238"/>
<path d="M272.12 199.129C272.12 199.029 272.32 199.229 272.32 199.329C272.41 201.769 272.92 204.549 275.18 205.209C275.25 205.209 275.25 205.359 275.18 205.349C272.45 205.159 271.81 201.449 272.12 199.129Z" fill="#263238"/>
<path d="M274.12 196.429C278.02 195.869 278.86 203.709 275.25 204.229C271.64 204.749 270.85 196.909 274.12 196.429Z" fill="#263238"/>
<path d="M275.81 196.77C276.48 197.12 277.17 197.77 277.92 197.77C278.67 197.77 279.32 196.77 279.78 195.95C279.83 195.86 279.901 195.95 279.911 196.02C280.121 197.52 279.791 199.13 278.381 199.57C276.971 200.01 275.99 198.79 275.47 197.34C275.38 197.08 275.54 196.63 275.81 196.77Z" fill="#263238"/>
<path d="M260.76 220C261.36 220.55 261.97 221.32 262.86 221.37C263.768 221.325 264.658 221.09 265.47 220.68C265.486 220.672 265.505 220.669 265.522 220.673C265.54 220.676 265.556 220.686 265.568 220.7C265.58 220.714 265.586 220.731 265.586 220.75C265.587 220.768 265.581 220.786 265.57 220.8C265.241 221.282 264.79 221.668 264.263 221.917C263.735 222.167 263.151 222.272 262.57 222.22C262.066 222.108 261.606 221.849 261.25 221.475C260.894 221.101 260.657 220.629 260.57 220.12C260.49 220 260.67 220 260.76 220Z" fill="#263238"/>
<path d="M270.17 210.339C270.17 210.339 270.99 213.929 271.17 215.649C271.17 215.809 270.77 215.919 270.17 216.009C270.17 216.009 270.17 216.009 270.11 216.009C268.662 216.408 267.133 216.399 265.689 215.985C264.246 215.57 262.945 214.765 261.93 213.659C261.79 213.499 261.99 213.309 262.16 213.399C264.478 214.7 267.154 215.219 269.79 214.879C269.87 214.399 268.18 208.779 268.45 208.739C269.802 208.732 271.148 208.914 272.45 209.279C270.96 201.749 268.27 194.519 266.9 186.999C266.896 186.946 266.91 186.893 266.939 186.848C266.968 186.804 267.011 186.77 267.062 186.753C267.112 186.736 267.167 186.736 267.217 186.753C267.268 186.771 267.311 186.804 267.34 186.849C270.69 194.229 272.6 202.849 274.34 210.589C274.52 211.549 270.88 210.569 270.17 210.339Z" fill="#263238"/>
<path d="M268.22 215.669C267.415 216.826 266.323 217.753 265.05 218.359C264.348 218.675 263.564 218.759 262.81 218.599C261.17 218.249 261.07 216.759 261.31 215.469C261.442 214.779 261.657 214.107 261.95 213.469C263.749 214.858 265.948 215.63 268.22 215.669Z" fill="#263238"/>
<path d="M265.05 218.359C264.348 218.675 263.564 218.759 262.81 218.599C261.17 218.249 261.07 216.759 261.31 215.469C263.05 215.579 264.83 216.679 265.05 218.359Z" fill="#FF99BA"/>
<path d="M222.12 208.999C224.429 207.892 226.411 206.204 227.871 204.1C229.331 201.997 230.22 199.55 230.45 196.999C236.731 194.282 242.175 189.94 246.22 184.419C245.98 185.159 244.22 190.489 243.22 193.169C265.98 189.029 273.1 171.659 273.1 171.659C280.45 179.049 281.9 183.769 282.95 186.119C282.95 186.119 283.19 172.119 276.05 162.789C273.65 159.551 270.353 157.087 266.567 155.703C262.781 154.318 258.673 154.074 254.75 154.999C249.393 153.149 243.608 152.921 238.122 154.344C232.636 155.767 227.692 158.778 223.91 162.999C209.06 178.999 222.12 208.999 222.12 208.999Z" fill="#263238"/>
<path d="M260.54 189.539C256.878 191.52 252.942 192.945 248.86 193.769C248.81 193.769 248.86 193.769 248.86 193.769C255.259 192.051 261.055 188.589 265.6 183.769C267.53 181.708 269.19 179.409 270.54 176.929C272.124 174.273 273.167 171.329 273.61 168.269C273.62 168.229 273.642 168.194 273.674 168.169C273.705 168.144 273.745 168.131 273.785 168.131C273.826 168.131 273.865 168.144 273.897 168.169C273.928 168.194 273.951 168.229 273.96 168.269C273.855 171.351 273.229 174.394 272.11 177.269C270.871 180.035 269.14 182.552 267 184.699C265.082 186.609 262.904 188.239 260.53 189.539" fill="#263238"/>
<path d="M254.29 213.999C252.194 214.047 250.127 213.506 248.324 212.437C246.52 211.368 245.053 209.815 244.088 207.954C243.124 206.092 242.701 203.998 242.869 201.908C243.036 199.818 243.786 197.818 245.034 196.133C246.283 194.449 247.978 193.149 249.929 192.381C251.879 191.612 254.006 191.407 256.068 191.788C258.129 192.169 260.042 193.121 261.59 194.535C263.137 195.949 264.256 197.77 264.82 199.789C265.616 202.65 265.244 205.711 263.785 208.298C262.327 210.886 259.901 212.788 257.04 213.589C256.144 213.837 255.22 213.974 254.29 213.999ZM253.81 193.099C253.001 193.116 252.198 193.237 251.42 193.459C249.047 194.127 247.018 195.674 245.747 197.786C244.475 199.898 244.055 202.415 244.574 204.825C245.093 207.235 246.511 209.356 248.539 210.758C250.567 212.159 253.053 212.735 255.49 212.368C257.928 212 260.134 210.718 261.659 208.781C263.185 206.845 263.915 204.4 263.701 201.944C263.486 199.488 262.344 197.206 260.507 195.563C258.669 193.92 256.275 193.038 253.81 193.099Z" fill="#2B7A79"/>
<path d="M279.721 210.3C275.441 210.4 271.451 206.1 270.631 200.3C270.196 197.541 270.637 194.715 271.891 192.22C272.367 191.121 273.118 190.163 274.071 189.437C275.024 188.711 276.147 188.242 277.333 188.075C278.519 187.907 279.728 188.047 280.845 188.48C281.961 188.913 282.948 189.626 283.711 190.55C285.607 192.605 286.81 195.204 287.151 197.98C288.011 204.09 285.011 209.59 280.451 210.23C280.21 210.273 279.966 210.297 279.721 210.3ZM278.111 189.5C277.921 189.49 277.731 189.49 277.541 189.5C276.601 189.679 275.718 190.08 274.964 190.669C274.211 191.259 273.61 192.02 273.211 192.89C272.108 195.107 271.727 197.614 272.121 200.06C272.861 205.36 276.501 209.25 280.241 208.72C283.981 208.19 286.411 203.45 285.671 198.16C285.375 195.703 284.327 193.398 282.671 191.56C282.097 190.916 281.395 190.4 280.61 190.045C279.824 189.69 278.973 189.504 278.111 189.5Z" fill="#2B7A79"/>
<path d="M264.63 201.139L263.51 200.139C265 198.489 268.62 196.049 271.73 198.559L270.79 199.729C268 197.469 264.76 200.999 264.63 201.139Z" fill="#2B7A79"/>
<path d="M215.61 210.999L214.2 210.499C214.43 209.839 216.55 204.029 219.78 203.029C222.78 202.099 242.95 201.159 243.78 201.129L243.85 202.619C238.08 202.879 222.54 203.739 220.21 204.459C218.09 205.079 216.17 209.359 215.61 210.999Z" fill="#2B7A79"/>
<path d="M228.191 209.469C228.191 209.469 219.551 198.879 214.681 202.049C209.811 205.219 216.901 220.999 223.001 222.729C223.768 223.011 224.585 223.134 225.402 223.091C226.218 223.049 227.018 222.841 227.752 222.482C228.487 222.122 229.141 221.617 229.675 220.998C230.209 220.379 230.612 219.658 230.861 218.879L228.191 209.469Z" fill="#AD6359"/>
<path d="M216.83 206.51C216.809 206.51 216.788 206.518 216.773 206.533C216.758 206.548 216.75 206.569 216.75 206.59C216.75 206.611 216.758 206.631 216.773 206.646C216.788 206.661 216.809 206.67 216.83 206.67C221.12 208.05 223.61 211.76 225.45 215.67C224.09 214.22 222.34 213.5 220.38 215.13C220.28 215.22 220.38 215.38 220.51 215.35C221.226 215.061 222.014 215.002 222.764 215.182C223.515 215.361 224.192 215.769 224.7 216.35C225.548 217.324 226.289 218.387 226.91 219.52C227.13 219.88 227.79 219.63 227.62 219.21V219.11C227.27 213.76 222.58 206.62 216.83 206.51Z" fill="#263238"/>
<path d="M226.26 220.898C226.282 221.07 226.267 221.245 226.218 221.411C226.169 221.578 226.085 221.732 225.974 221.865C225.862 221.997 225.724 222.106 225.569 222.182C225.413 222.259 225.243 222.303 225.07 222.312C224.897 222.32 224.724 222.292 224.562 222.231C224.4 222.169 224.252 222.074 224.128 221.953C224.004 221.832 223.907 221.686 223.842 221.525C223.777 221.364 223.746 221.192 223.75 221.018C223.759 220.701 223.888 220.398 224.11 220.171C224.332 219.944 224.632 219.81 224.95 219.794C225.267 219.779 225.579 219.885 225.822 220.089C226.065 220.294 226.221 220.583 226.26 220.898Z" fill="#2B7A79"/>
<path d="M222.641 218.899C222.646 219.003 222.631 219.107 222.596 219.205C222.561 219.303 222.507 219.393 222.437 219.47C222.368 219.547 222.284 219.609 222.19 219.654C222.096 219.699 221.994 219.724 221.891 219.729C221.787 219.735 221.683 219.719 221.585 219.685C221.487 219.65 221.397 219.596 221.32 219.526C221.243 219.457 221.181 219.373 221.136 219.279C221.091 219.185 221.066 219.083 221.061 218.979C221.05 218.77 221.123 218.565 221.264 218.409C221.404 218.253 221.601 218.16 221.811 218.149C222.02 218.139 222.225 218.212 222.381 218.353C222.537 218.493 222.63 218.69 222.641 218.899Z" fill="#2B7A79"/>
<path d="M252.46 248.759L246.46 264.479L226.7 245.109L221.33 251.549C221.33 251.549 240.89 282.549 240.98 281.129L247.15 267.559L256.61 276.739L255.41 253.269L252.46 248.759Z" fill="#2B7A79"/>
<path d="M256.701 265.099C256.381 261.229 256.151 257.329 255.701 253.479C255.701 253.339 255.461 253.279 255.431 253.479C254.731 257.229 256.061 272.019 256.111 275.569C255.721 275.169 247.351 267.499 247.271 267.629C245.921 269.789 241.391 279.629 241.081 280.569C237.991 275.649 224.891 256.249 221.251 251.569C221.232 251.538 221.202 251.516 221.167 251.508C221.133 251.499 221.096 251.505 221.066 251.524C221.035 251.542 221.013 251.572 221.005 251.607C220.996 251.641 221.002 251.678 221.021 251.709C223.771 256.919 240.711 282.519 240.941 282.439C243.335 277.772 245.488 272.986 247.391 268.099C248.811 269.779 257.271 278.449 257.291 277.879C257.32 273.611 257.123 269.345 256.701 265.099Z" fill="#263238"/>
<path d="M253.86 299.599C253.86 299.599 246.13 289.399 253.51 284.689C260.89 279.979 266.88 291.289 266.88 291.289L253.86 299.599Z" fill="#455A64"/>
<path d="M315 366.72L316.07 379.19L316.45 383.31L312.84 381.26L302 375L253.61 299.16L266.61 290.85L315 366.72Z" fill="#455A64"/>
<path d="M316.1 379.209L316.46 383.319L312.86 381.269L316.1 379.209Z" fill="#37474F"/>
<path d="M267.445 289.763L252.245 299.461L254.171 302.479L269.37 292.781L267.445 289.763Z" fill="#263238"/>
<path d="M269.563 293.109L254.363 302.807L256.289 305.825L271.489 296.127L269.563 293.109Z" fill="#263238"/>
<path d="M256.29 305.81L261.19 302.68L276 331.85L274.13 332.89L256.29 305.81Z" fill="#263238"/>
<path d="M226 326.369C233.43 324.899 256 388.419 245.15 391.109C196.99 403.109 157.56 395.549 148.22 391.109C135.97 385.239 134.95 369.509 140.07 362.249C149 349.659 214.48 328.659 226 326.369Z" fill="#AD6359"/>
<path d="M318.49 322.998C318.37 330.328 300.32 328.508 300.32 328.508C302.926 330.301 304.819 332.952 305.67 335.998C306.92 341.428 298.96 345.768 298.96 345.768C301.268 348.193 302.794 351.256 303.34 354.558C304.01 359.878 296.6 365.398 296.6 365.398C297.498 368.795 297.143 372.402 295.6 375.558C291.13 383.818 241.25 391.798 235.04 392.928L223.04 327.928C223.04 327.928 262.23 305.768 273.04 306.508C282.13 307.058 318.67 311.768 318.49 322.998Z" fill="#AD6359"/>
<path d="M300.18 328.27C290.66 325.27 280.44 324.58 270.58 324.01C270.535 324.01 270.492 324.028 270.46 324.06C270.428 324.091 270.41 324.135 270.41 324.18C270.41 324.225 270.428 324.268 270.46 324.3C270.492 324.332 270.535 324.35 270.58 324.35C280.4 324.8 290.33 327.89 300.11 328.74C300.168 328.74 300.224 328.72 300.268 328.682C300.312 328.644 300.34 328.592 300.349 328.535C300.358 328.478 300.345 328.42 300.314 328.371C300.283 328.322 300.236 328.286 300.18 328.27Z" fill="#263238"/>
<path d="M298.71 345C296.483 344.531 294.203 344.357 291.93 344.48C289.517 344.48 287.107 344.5 284.7 344.54C279.874 344.66 275.054 344.903 270.24 345.27C270.03 345.27 270 345.609 270.24 345.609C275.04 345.499 279.85 345.46 284.66 345.55C287.07 345.55 289.47 345.66 291.88 345.74C294.143 345.963 296.423 345.936 298.68 345.66C298.75 345.639 298.811 345.597 298.856 345.54C298.9 345.482 298.926 345.413 298.929 345.34C298.933 345.268 298.913 345.196 298.874 345.135C298.835 345.074 298.778 345.027 298.71 345Z" fill="#263238"/>
<path d="M296.39 365.369C294.53 364.769 292.2 365.139 290.27 365.229L283.67 365.499C279.28 365.649 274.89 365.799 270.49 365.799C270.27 365.799 270.25 366.139 270.49 366.139C274.96 366.139 279.43 366.249 283.89 366.229C286.09 366.229 288.28 366.229 290.48 366.169C292.34 366.169 294.68 366.319 296.48 365.589C296.505 365.574 296.524 365.551 296.533 365.523C296.543 365.496 296.542 365.466 296.531 365.439C296.52 365.413 296.499 365.391 296.474 365.378C296.448 365.365 296.418 365.361 296.39 365.369Z" fill="#263238"/>
<path d="M218.68 327.209L240.25 398.779C240.25 398.779 161.69 402.609 144.84 390.359C133.13 381.839 134.1 365.809 139.39 360.289C150.94 348.239 218.68 327.209 218.68 327.209Z" fill="#EBEBEB"/>
<path d="M219.551 395.999C216.161 385.999 203.771 344.799 201.691 335.709C201.551 335.079 201.911 334.839 202.151 335.469C213.031 365.059 217.151 385.919 219.941 395.849C220.001 396.119 219.641 396.269 219.551 395.999Z" fill="#263238"/>
<path d="M218.701 326.47C218.271 326.38 210.701 328.34 208.281 329.05C203.554 330.456 198.861 331.983 194.201 333.63C184.921 336.899 175.815 340.644 166.921 344.85L165.591 345.49C162.341 346.27 159.171 347.39 156.011 348.43C155.921 348.43 156.011 348.6 156.011 348.57C158.541 347.73 161.111 347.07 163.681 346.39C162.261 347.08 160.831 347.78 159.431 348.51C156.941 349.8 154.511 351.19 152.041 352.51C152.031 352.514 152.023 352.519 152.017 352.527C152.01 352.534 152.005 352.543 152.002 352.552C151.998 352.562 151.997 352.572 151.998 352.581C151.999 352.591 152.003 352.601 152.008 352.609C152.013 352.618 152.019 352.625 152.027 352.631C152.036 352.637 152.045 352.641 152.054 352.643C152.064 352.645 152.074 352.645 152.084 352.642C152.094 352.64 152.103 352.636 152.111 352.63C156.261 350.48 160.571 348.57 164.831 346.63C169.091 344.69 173.531 342.8 177.931 341.02C186.601 337.51 195.441 334.37 204.391 331.61C206.911 330.84 209.391 330.1 211.971 329.38C213.211 329.03 218.371 327.28 218.591 327.26C218.711 327.445 218.802 327.647 218.861 327.86C218.921 328.07 219.161 328.07 219.111 327.86C219.028 327.382 218.891 326.916 218.701 326.47Z" fill="#263238"/>
<path d="M229.34 399.099C227.06 398.939 218.65 399.349 216.4 399.349C211.86 399.349 207.33 399.349 202.79 399.269C193.67 399.029 184.59 398.369 175.51 397.499C173 397.259 170.51 396.989 167.97 396.719C165.43 396.449 162.7 396.249 160.12 395.779C160.02 395.779 159.98 395.919 160.12 395.939C162.38 396.269 164.6 396.799 166.85 397.189C169.1 397.579 171.36 397.919 173.63 398.239C178.17 398.879 182.73 399.329 187.3 399.709C196.42 400.459 205.6 400.709 214.75 400.539C217.33 400.489 226.96 400.089 229.46 399.539C229.71 399.529 229.6 399.119 229.34 399.099Z" fill="#263238"/>
<path d="M380.37 413.169L297.87 419.149L328.71 310.529L411.21 304.549L380.37 413.169Z" fill="#2B7A79"/>
<path d="M386.011 412.759L303.521 418.739L334.361 310.119L416.851 304.139L386.011 412.759Z" fill="#37474F"/>
<path d="M343.12 309.5C342.912 310.435 342.519 311.32 341.967 312.102C341.414 312.885 340.712 313.551 339.9 314.06C339.15 314.54 338.9 313.53 339.61 313.06C340.65 312.374 341.426 311.355 341.81 310.17C341.86 309.98 341.92 309.76 341.95 309.57C342.127 308.915 342.127 308.225 341.95 307.57C341.865 307.288 341.685 307.045 341.44 306.88C341.417 306.868 341.396 306.851 341.38 306.83C341.38 306.83 341.29 306.83 341.28 306.83C341.227 306.837 341.173 306.837 341.12 306.83C340.922 306.807 340.722 306.838 340.54 306.92C340.19 307.072 339.882 307.305 339.64 307.6C339.343 307.952 339.094 308.342 338.9 308.76C338.782 308.964 338.675 309.174 338.58 309.39V309.54C338.543 309.609 338.516 309.683 338.5 309.76C338.5 309.76 338.44 309.85 338.45 309.9L337.28 309.99C337.519 309.242 337.855 308.53 338.28 307.87C338.59 307.302 339.018 306.807 339.536 306.419C340.053 306.031 340.648 305.759 341.28 305.62C341.751 305.569 342.223 305.703 342.597 305.994C342.97 306.286 343.215 306.711 343.28 307.18C343.422 307.955 343.367 308.752 343.12 309.5Z" fill="#2B7A79"/>
<path d="M349.58 309C349.15 310.885 347.993 312.524 346.36 313.56C345.6 314.04 345.36 313.03 346.07 312.56C347.11 311.877 347.884 310.856 348.26 309.67C348.324 309.474 348.374 309.273 348.41 309.07C348.587 308.415 348.587 307.725 348.41 307.07C348.321 306.787 348.138 306.543 347.89 306.38C347.874 306.383 347.857 306.383 347.84 306.38C347.84 306.38 347.75 306.38 347.73 306.38H347.58C347.382 306.356 347.182 306.387 347 306.47C346.65 306.622 346.342 306.855 346.1 307.15C345.796 307.497 345.547 307.888 345.36 308.31C345.242 308.517 345.135 308.731 345.04 308.95V309.09C344.998 309.157 344.967 309.232 344.95 309.31C344.95 309.36 344.9 309.41 344.95 309.45L343.78 309.54C344.014 308.791 344.351 308.077 344.78 307.42C345.089 306.851 345.517 306.356 346.035 305.968C346.552 305.579 347.148 305.307 347.78 305.17C348.251 305.121 348.722 305.256 349.094 305.547C349.467 305.838 349.713 306.262 349.78 306.73C349.896 307.492 349.827 308.27 349.58 309Z" fill="#2B7A79"/>
<path d="M356 308.558C355.568 310.448 354.407 312.09 352.77 313.128C352.02 313.598 351.77 312.588 352.48 312.128C353.523 311.445 354.299 310.425 354.68 309.238C354.68 309.048 354.8 308.838 354.83 308.648C354.999 307.992 354.999 307.304 354.83 306.648C354.748 306.364 354.567 306.12 354.32 305.958H354.26C354.26 305.958 354.18 305.958 354.16 305.958H354C353.806 305.928 353.608 305.956 353.43 306.038C353.077 306.189 352.765 306.423 352.52 306.718C352.223 307.07 351.974 307.46 351.78 307.878C351.66 308.078 351.57 308.298 351.46 308.518V308.658C351.425 308.728 351.398 308.802 351.38 308.878C351.38 308.928 351.33 308.978 351.38 309.018L350.21 309.108C350.444 308.359 350.78 307.645 351.21 306.988C351.519 306.421 351.948 305.927 352.465 305.541C352.983 305.154 353.578 304.884 354.21 304.748C354.68 304.694 355.152 304.826 355.526 305.116C355.9 305.405 356.145 305.83 356.21 306.298C356.321 307.058 356.249 307.832 356 308.558Z" fill="#2B7A79"/>
<path d="M362.49 308.09C362.28 309.026 361.888 309.911 361.335 310.695C360.783 311.479 360.081 312.147 359.27 312.66C358.52 313.14 358.27 312.12 358.98 311.66C360.018 310.972 360.793 309.953 361.18 308.77C361.23 308.57 361.29 308.36 361.32 308.17C361.496 307.515 361.496 306.825 361.32 306.17C361.233 305.889 361.053 305.646 360.81 305.48H360.75C360.75 305.48 360.66 305.48 360.65 305.48H360.49C360.292 305.446 360.089 305.478 359.91 305.57C359.559 305.714 359.249 305.944 359.01 306.24C358.713 306.592 358.464 306.982 358.27 307.4C358.152 307.607 358.045 307.821 357.95 308.04V308.18C357.917 308.25 357.89 308.324 357.87 308.4C357.87 308.45 357.81 308.5 357.82 308.55L356.65 308.63C356.889 307.882 357.225 307.169 357.65 306.51C357.96 305.943 358.389 305.449 358.906 305.063C359.424 304.676 360.019 304.406 360.65 304.27C361.12 304.216 361.592 304.347 361.966 304.637C362.34 304.927 362.586 305.351 362.65 305.82C362.783 306.578 362.728 307.357 362.49 308.09Z" fill="#2B7A79"/>
<path d="M369 307.618C368.569 309.505 367.412 311.147 365.78 312.188C365.02 312.668 364.78 311.648 365.49 311.188C366.528 310.502 367.301 309.483 367.68 308.298C367.744 308.102 367.794 307.901 367.83 307.698C368.008 307.043 368.008 306.353 367.83 305.698C367.741 305.413 367.558 305.166 367.31 304.998C367.294 305.001 367.277 305.001 367.26 304.998C367.26 304.998 367.17 304.998 367.15 304.998H367C366.802 304.97 366.6 305.001 366.42 305.088C366.071 305.236 365.762 305.466 365.52 305.758C365.218 306.11 364.969 306.504 364.78 306.928C364.66 307.131 364.553 307.341 364.46 307.558V307.698C364.419 307.767 364.389 307.841 364.37 307.918C364.37 307.968 364.32 308.018 364.37 308.068L363.2 308.148C363.434 307.399 363.771 306.685 364.2 306.028C364.511 305.462 364.939 304.969 365.457 304.582C365.974 304.196 366.569 303.925 367.2 303.788C367.669 303.737 368.14 303.87 368.514 304.159C368.887 304.448 369.133 304.871 369.2 305.338C369.317 306.103 369.249 306.885 369 307.618Z" fill="#2B7A79"/>
<path d="M375.41 307.159C374.975 309.044 373.814 310.682 372.18 311.719C371.43 312.199 371.18 311.179 371.89 310.719C372.931 310.033 373.707 309.014 374.09 307.829C374.14 307.639 374.21 307.419 374.24 307.229C374.413 306.573 374.413 305.884 374.24 305.229C374.156 304.943 373.976 304.696 373.73 304.529H373.67C373.67 304.529 373.59 304.529 373.57 304.529C373.517 304.535 373.463 304.535 373.41 304.529C373.215 304.502 373.017 304.533 372.84 304.619C372.485 304.766 372.172 305 371.93 305.299C371.633 305.65 371.384 306.041 371.19 306.459C371.07 306.649 370.98 306.869 370.87 307.089V307.239C370.835 307.305 370.808 307.375 370.79 307.449C370.776 307.498 370.776 307.549 370.79 307.599L369.62 307.679C369.856 306.933 370.192 306.223 370.62 305.569C370.931 305.001 371.359 304.507 371.876 304.119C372.394 303.73 372.988 303.458 373.62 303.319C374.09 303.264 374.562 303.396 374.936 303.686C375.31 303.976 375.555 304.4 375.62 304.869C375.734 305.638 375.662 306.423 375.41 307.159Z" fill="#2B7A79"/>
<path d="M381.861 306.69C381.652 307.625 381.26 308.509 380.707 309.292C380.154 310.075 379.452 310.74 378.641 311.25C377.891 311.73 377.641 310.72 378.351 310.25C379.391 309.564 380.166 308.545 380.551 307.36C380.601 307.17 380.661 306.95 380.691 306.76C380.868 306.105 380.868 305.414 380.691 304.76C380.605 304.478 380.425 304.234 380.181 304.07C380.157 304.057 380.137 304.04 380.121 304.02C380.121 304.02 380.031 304.02 380.021 304.02C379.967 304.026 379.914 304.026 379.861 304.02C379.663 303.996 379.462 304.027 379.281 304.11C378.931 304.261 378.622 304.494 378.381 304.79C378.08 305.139 377.831 305.53 377.641 305.95C377.522 306.153 377.415 306.364 377.321 306.58V306.73C377.285 306.8 377.254 306.874 377.231 306.95C377.231 306.95 377.181 307.04 377.231 307.09L376.061 307.18C376.299 306.432 376.635 305.719 377.061 305.06C377.37 304.492 377.799 303.997 378.316 303.609C378.834 303.221 379.429 302.948 380.061 302.81C380.531 302.758 381.004 302.892 381.377 303.184C381.751 303.475 381.996 303.9 382.061 304.37C382.189 305.147 382.12 305.945 381.861 306.69Z" fill="#2B7A79"/>
<path d="M388.321 306.218C387.891 308.104 386.733 309.743 385.101 310.778C384.341 311.258 384.101 310.248 384.811 309.778C385.849 309.098 386.622 308.081 387.001 306.898C387.065 306.702 387.115 306.502 387.151 306.298C387.323 305.643 387.323 304.954 387.151 304.298C387.062 304.015 386.878 303.772 386.631 303.608C386.614 303.611 386.597 303.611 386.581 303.608C386.581 303.608 386.491 303.608 386.471 303.608H386.321C386.123 303.585 385.922 303.616 385.741 303.698C385.391 303.85 385.082 304.083 384.841 304.378C384.536 304.725 384.287 305.116 384.101 305.538C383.982 305.746 383.875 305.959 383.781 306.178V306.318C383.738 306.386 383.707 306.46 383.691 306.538C383.691 306.588 383.641 306.638 383.691 306.678L382.521 306.768C382.755 306.019 383.091 305.306 383.521 304.648C383.829 304.08 384.257 303.584 384.775 303.196C385.293 302.808 385.888 302.536 386.521 302.398C386.991 302.35 387.462 302.485 387.835 302.776C388.207 303.067 388.453 303.49 388.521 303.958C388.634 304.717 388.566 305.492 388.321 306.218Z" fill="#2B7A79"/>
<path d="M394.78 305.75C394.348 307.639 393.187 309.282 391.55 310.32C390.8 310.79 390.55 309.78 391.26 309.32C392.303 308.637 393.08 307.617 393.46 306.43C393.51 306.24 393.58 306.03 393.61 305.84C393.78 305.184 393.78 304.496 393.61 303.84C393.529 303.556 393.348 303.311 393.1 303.15H393.04C393.04 303.15 392.96 303.15 392.94 303.15H392.78C392.587 303.12 392.388 303.148 392.21 303.23C391.857 303.381 391.545 303.614 391.3 303.91C391.003 304.262 390.754 304.652 390.56 305.07C390.44 305.27 390.35 305.49 390.24 305.71V305.85C390.206 305.92 390.18 305.994 390.16 306.07C390.16 306.12 390.16 306.17 390.16 306.21L388.99 306.3C389.224 305.55 389.56 304.837 389.99 304.18C390.3 303.612 390.728 303.119 391.246 302.732C391.763 302.345 392.358 302.075 392.99 301.94C393.46 301.886 393.932 302.017 394.306 302.307C394.68 302.597 394.925 303.021 394.99 303.49C395.101 304.249 395.029 305.024 394.78 305.75Z" fill="#2B7A79"/>
<path d="M401.231 305.279C401.021 306.215 400.628 307.1 400.075 307.885C399.523 308.669 398.821 309.336 398.011 309.849C397.261 310.329 397.011 309.309 397.721 308.849C398.756 308.159 399.531 307.141 399.921 305.959C399.971 305.759 400.031 305.549 400.061 305.359C400.236 304.704 400.236 304.014 400.061 303.359C399.973 303.078 399.793 302.835 399.551 302.669H399.491C399.491 302.669 399.401 302.669 399.391 302.669H399.231C399.033 302.636 398.829 302.667 398.651 302.759C398.299 302.903 397.99 303.134 397.751 303.429C397.45 303.779 397.201 304.169 397.011 304.589C396.892 304.796 396.785 305.01 396.691 305.229V305.369C396.654 305.44 396.624 305.513 396.601 305.589C396.601 305.639 396.551 305.689 396.601 305.739L395.431 305.819C395.669 305.071 396.005 304.359 396.431 303.699C396.741 303.132 397.169 302.639 397.687 302.252C398.204 301.866 398.799 301.595 399.431 301.459C399.9 301.405 400.373 301.537 400.747 301.827C401.12 302.116 401.366 302.541 401.431 303.009C401.551 303.771 401.482 304.55 401.231 305.279Z" fill="#2B7A79"/>
<path d="M407.691 304.81C407.259 306.697 406.102 308.338 404.471 309.38C403.711 309.86 403.471 308.84 404.181 308.38C405.219 307.694 405.991 306.674 406.371 305.49C406.435 305.293 406.485 305.093 406.521 304.89C406.693 304.234 406.693 303.545 406.521 302.89C406.432 302.604 406.248 302.357 406.001 302.19C405.984 302.193 405.967 302.193 405.951 302.19C405.951 302.19 405.861 302.19 405.841 302.19H405.691C405.493 302.161 405.291 302.192 405.111 302.28C404.761 302.427 404.452 302.657 404.211 302.95C403.909 303.304 403.656 303.697 403.461 304.12C403.343 304.322 403.24 304.533 403.151 304.75V304.89C403.11 304.958 403.079 305.032 403.061 305.11C403.061 305.16 403.011 305.21 403.061 305.26L401.891 305.34C402.125 304.59 402.461 303.877 402.891 303.22C403.201 302.653 403.63 302.16 404.147 301.774C404.665 301.387 405.259 301.116 405.891 300.98C406.36 300.928 406.831 301.061 407.204 301.35C407.577 301.639 407.823 302.062 407.891 302.53C408.008 303.295 407.939 304.077 407.691 304.81Z" fill="#2B7A79"/>
<path d="M414.15 304.35C413.715 306.235 412.555 307.874 410.92 308.91C410.17 309.39 409.92 308.37 410.63 307.91C411.671 307.225 412.447 306.205 412.83 305.02C412.88 304.83 412.94 304.61 412.98 304.42C413.153 303.764 413.153 303.075 412.98 302.42C412.896 302.135 412.716 301.888 412.47 301.72H412.41C412.41 301.72 412.33 301.72 412.31 301.72C412.257 301.727 412.203 301.727 412.15 301.72C411.956 301.693 411.757 301.725 411.58 301.81C411.225 301.958 410.913 302.191 410.67 302.49C410.373 302.842 410.124 303.232 409.93 303.65C409.81 303.84 409.72 304.06 409.61 304.28V304.43C409.575 304.496 409.548 304.567 409.53 304.64C409.517 304.689 409.517 304.741 409.53 304.79L408.36 304.87C408.598 304.122 408.934 303.409 409.36 302.75C409.673 302.185 410.102 301.693 410.619 301.307C411.137 300.921 411.73 300.649 412.36 300.51C412.83 300.456 413.302 300.588 413.676 300.877C414.05 301.167 414.296 301.592 414.36 302.06C414.475 302.829 414.403 303.614 414.15 304.35Z" fill="#2B7A79"/>
<path d="M412.791 328.559C417.161 337.489 428.021 348.559 428.991 355.849C429.292 357.645 429.006 359.491 428.176 361.112C427.346 362.733 426.015 364.044 424.381 364.849C424.381 364.849 431.751 368.419 431.531 375.209C431.411 378.709 425.731 381.589 425.731 381.589C425.731 381.589 431.501 384.709 430.941 390.739C430.481 395.539 424.861 397.739 424.861 397.739C424.861 397.739 429.001 403.289 427.001 407.999C422.891 417.619 381.481 418.099 374.911 402.919C371.841 395.849 381.961 396.279 381.961 396.279C381.961 396.279 367.561 392.149 367.241 383.609C366.921 375.069 380.041 376.429 380.041 376.429C380.041 376.429 366.121 372.299 366.681 363.429C367.271 354.189 380.161 357.789 380.161 357.789C380.161 357.789 370.881 351.649 372.871 344.949C376.151 333.889 393.741 347.549 402.871 345.289L407.721 330.219L412.791 328.559Z" fill="#AD6359"/>
<path d="M421.24 341.508C417.85 332.688 428.69 321.628 426.65 312.738C423.9 300.738 410.45 312.678 407.65 330.238L407.85 344.238L421.24 341.508Z" fill="#AD6359"/>
<path d="M424 398.19C424.13 398.19 424.18 398.37 424 398.4C410.42 401.88 394.43 401.54 381.32 396.4C380.89 396.23 380.98 395.46 381.49 395.56C396.09 398.26 409.21 399.55 424 398.19Z" fill="#263238"/>
<path d="M425.931 381.679C426.091 381.679 426.121 381.929 425.931 381.969C411.931 385.479 393.931 384.599 379.511 376.839C379.011 376.579 378.841 375.839 379.431 376.109C389.421 380.529 412.611 382.999 425.931 381.679Z" fill="#263238"/>
<path d="M379.251 356.909C393.361 363.809 408.251 365.499 423.821 365.029C424.021 365.029 424.011 365.309 423.821 365.359C416.271 367.659 406.331 366.929 398.641 365.699C391.482 364.697 384.711 361.839 379.001 357.409C378.781 357.229 379.001 356.769 379.251 356.909Z" fill="#263238"/>
<path d="M71.3604 479.09L121.77 478.85L172.18 478.76L273 478.59L373.82 478.76L424.23 478.85L474.64 479.09L424.23 479.34L373.82 479.42L273 479.59L172.18 479.42L121.77 479.33L71.3604 479.09Z" fill="#263238"/>
<path d="M133.21 436.641H88.79V503.281H133.21V436.641Z" fill="#2B7A79"/>
<path d="M138.58 418.74H83.4297V436.63H138.58V418.74Z" fill="#455A64"/>
<path d="M125.79 455.811H96.2197V485.381H125.79V455.811Z" fill="#2B7A79"/>
<path opacity="0.1" d="M88.79 436.641V441.831L113.8 451.281V503.271H125.79V436.641H88.79Z" fill="black"/>
<path d="M75 501.75C75 501.016 75.1447 500.29 75.4257 499.612C75.7068 498.935 76.1187 498.319 76.6379 497.801C77.1571 497.282 77.7734 496.872 78.4516 496.592C79.1297 496.312 79.8564 496.169 80.59 496.17H91.71C92.4441 496.169 93.1712 496.312 93.85 496.592C94.5287 496.871 95.1456 497.282 95.6657 497.8C96.1857 498.318 96.5985 498.934 96.8807 499.611C97.1628 500.289 97.3087 501.016 97.31 501.75C97.3073 503.233 96.7162 504.655 95.6663 505.703C94.6164 506.751 93.1935 507.34 91.71 507.34H80.63C79.8929 507.344 79.1623 507.202 78.4801 506.923C77.7978 506.644 77.1774 506.233 76.6543 505.714C76.1313 505.195 75.7159 504.577 75.432 503.897C75.1481 503.217 75.0013 502.487 75 501.75Z" fill="#455A64"/>
<path d="M75 501.75C75 501.016 75.1447 500.29 75.4257 499.612C75.7068 498.935 76.1187 498.319 76.6379 497.801C77.1571 497.282 77.7734 496.872 78.4516 496.592C79.1297 496.312 79.8564 496.169 80.59 496.17H86.14V507.36H80.63C79.8912 507.364 79.159 507.222 78.4755 506.941C77.7919 506.661 77.1706 506.248 76.6473 505.727C76.1239 505.205 75.709 504.586 75.4263 503.903C75.1435 503.22 74.9987 502.489 75 501.75Z" fill="#2B7A79"/>
<path d="M151 501.75C150.998 502.484 150.852 503.211 150.57 503.889C150.288 504.567 149.875 505.182 149.355 505.7C148.835 506.218 148.218 506.629 147.539 506.909C146.861 507.188 146.134 507.332 145.4 507.33H134.37C133.635 507.332 132.908 507.188 132.23 506.909C131.551 506.629 130.934 506.218 130.414 505.7C129.894 505.182 129.481 504.567 129.199 503.889C128.917 503.211 128.771 502.484 128.77 501.75C128.77 500.265 129.36 498.841 130.41 497.791C131.46 496.74 132.884 496.15 134.37 496.15H145.44C146.918 496.161 148.332 496.756 149.373 497.805C150.415 498.854 151 500.272 151 501.75Z" fill="#455A64"/>
<path d="M151 501.75C150.999 502.484 150.853 503.211 150.571 503.889C150.289 504.567 149.876 505.182 149.356 505.7C148.836 506.218 148.219 506.629 147.54 506.909C146.862 507.188 146.134 507.332 145.4 507.33H139.9V496.15H145.44C146.919 496.161 148.333 496.756 149.374 497.805C150.416 498.854 151 500.272 151 501.75Z" fill="#2B7A79"/>
<path d="M163.61 504.001C163.092 504.52 162.476 504.933 161.798 505.214C161.12 505.495 160.394 505.64 159.66 505.64C158.926 505.64 158.199 505.495 157.522 505.214C156.844 504.933 156.228 504.52 155.71 504.001L147.87 496.171C146.823 495.123 146.235 493.702 146.235 492.221C146.235 490.74 146.823 489.319 147.87 488.271C148.921 487.223 150.345 486.635 151.83 486.635C153.314 486.635 154.738 487.223 155.79 488.271L163.62 496.101C164.663 497.152 165.247 498.573 165.245 500.053C165.243 501.534 164.655 502.953 163.61 504.001Z" fill="#455A64"/>
<path d="M163.61 504C163.092 504.519 162.476 504.931 161.798 505.213C161.12 505.494 160.394 505.639 159.66 505.639C158.926 505.639 158.2 505.494 157.522 505.213C156.844 504.931 156.228 504.519 155.71 504L151.79 500.08L159.7 492.17L163.62 496.09C164.666 497.141 165.252 498.564 165.25 500.047C165.249 501.53 164.659 502.951 163.61 504Z" fill="#2B7A79"/>
<path d="M112.94 512.939C112.942 512.205 113.088 511.479 113.37 510.801C113.652 510.123 114.065 509.508 114.585 508.99C115.105 508.471 115.722 508.061 116.4 507.781C117.079 507.501 117.806 507.358 118.54 507.359H129.61C130.345 507.358 131.072 507.501 131.75 507.781C132.429 508.061 133.046 508.471 133.566 508.99C134.086 509.508 134.499 510.123 134.781 510.801C135.063 511.479 135.209 512.205 135.21 512.939C135.208 514.423 134.617 515.845 133.567 516.893C132.517 517.941 131.094 518.529 129.61 518.529H118.54C117.057 518.529 115.634 517.941 114.584 516.893C113.534 515.845 112.943 514.423 112.94 512.939Z" fill="#455A64"/>
<path d="M112.94 512.939C112.942 512.205 113.088 511.479 113.37 510.801C113.652 510.123 114.065 509.508 114.585 508.99C115.105 508.471 115.722 508.061 116.4 507.781C117.079 507.501 117.806 507.358 118.54 507.359H124.08V518.549H118.54C117.804 518.549 117.075 518.404 116.395 518.122C115.715 517.84 115.097 517.427 114.577 516.906C114.057 516.385 113.645 515.766 113.364 515.085C113.083 514.405 112.939 513.676 112.94 512.939Z" fill="#2B7A79"/>
<path d="M342.16 500.69L341.88 504.61C341.88 504.67 341.88 504.74 341.88 504.81C341.67 506.05 340.26 507.08 338.15 507.72C335.903 508.345 333.567 508.589 331.24 508.44L330.24 508.37C329.9 508.37 329.55 508.31 329.24 508.26C323.9 507.57 319.96 505.37 320.12 503.08L320.39 499.17C320.23 501.46 324.17 503.66 329.51 504.35L330.51 504.45C330.85 504.45 331.2 504.51 331.51 504.52C333.837 504.674 336.174 504.43 338.42 503.8C340.53 503.17 341.93 502.15 342.15 500.9C342.15 500.82 342.15 500.77 342.16 500.69Z" fill="#DBDBDB"/>
<path d="M324.1 496.059C326.34 495.434 328.669 495.191 330.99 495.339L329.46 504.339C329.79 504.339 330.14 504.419 330.46 504.439C330.78 504.459 331.14 504.499 331.46 504.519L332.99 495.519C338.49 496.219 342.5 498.519 342.09 500.889C341.89 502.139 340.48 503.159 338.37 503.809C336.123 504.435 333.787 504.678 331.46 504.529C331.12 504.529 330.77 504.529 330.46 504.449C330.15 504.369 329.77 504.389 329.46 504.349C323.96 503.649 319.95 501.349 320.36 498.979C320.57 497.729 322 496.699 324.1 496.059Z" fill="#2B7A79"/>
<path d="M331 495.34L332 495.41L333 495.52L331.47 504.52C331.13 504.52 330.78 504.52 330.47 504.44C330.16 504.36 329.78 504.38 329.47 504.34L331 495.34Z" fill="#DBDBDB"/>
<path d="M341.54 507.91V511.83C341.535 511.897 341.535 511.964 341.54 512.03C341.65 513.28 342.98 514.43 345.02 515.23C347.21 516.034 349.518 516.463 351.85 516.5H352.85C353.19 516.5 353.54 516.5 353.85 516.5C359.23 516.24 363.34 514.36 363.36 512.06V508.14C363.36 510.43 359.23 512.31 353.85 512.58H352.85C352.517 512.599 352.183 512.599 351.85 512.58C349.519 512.546 347.21 512.12 345.02 511.32C342.96 510.52 341.65 509.38 341.54 508.12C341.535 508.05 341.535 507.98 341.54 507.91Z" fill="#DBDBDB"/>
<path d="M359.92 504.731C357.734 503.927 355.429 503.498 353.1 503.461L353.91 512.561C353.57 512.561 353.22 512.561 352.91 512.561H351.91L351.1 503.461C345.56 503.721 341.38 505.701 341.6 508.081C341.71 509.351 343.03 510.481 345.08 511.291C347.269 512.095 349.578 512.524 351.91 512.561H352.91C353.25 512.561 353.6 512.561 353.91 512.561C359.44 512.301 363.63 510.321 363.41 507.941C363.3 506.671 362 505.541 359.92 504.731Z" fill="#2B7A79"/>
<path d="M353.101 503.461H352.101C351.761 503.461 351.427 503.461 351.101 503.461L351.911 512.561H352.911C353.251 512.561 353.601 512.561 353.911 512.561L353.101 503.461Z" fill="#DBDBDB"/>
<path d="M312.33 506.652C309.94 508.003 307.263 508.764 304.52 508.872C302.174 509.032 299.821 508.674 297.63 507.822C297.39 507.722 297.14 507.592 296.9 507.472C296.66 507.352 296.44 507.212 296.23 507.072C295.632 506.734 295.121 506.263 294.734 505.696C294.347 505.129 294.096 504.481 294 503.802L293.64 500.232C293.743 500.919 294.004 501.573 294.404 502.142C294.803 502.711 295.329 503.18 295.94 503.512C296.14 503.638 296.36 503.768 296.6 503.902C296.833 504.032 297.073 504.149 297.32 504.252C299.511 505.104 301.864 505.462 304.21 505.302C306.95 505.196 309.627 504.442 312.02 503.102C314.45 501.642 315.59 499.792 315.41 498.102L315.77 501.672C315.9 503.352 314.76 505.202 312.33 506.652Z" fill="#DBDBDB"/>
<path d="M297.28 504.251L297.48 506.331L312 497.621L311.65 494.051L295.87 503.511C296.06 503.641 296.29 503.771 296.53 503.901C296.77 504.031 297 504.141 297.28 504.251Z" fill="#2B7A79"/>
<path d="M311.67 494.051C311.92 494.161 312.17 494.271 312.41 494.401C312.65 494.531 312.86 494.651 313.07 494.791L297.28 504.251C297.02 504.141 296.79 504.031 296.55 503.901C296.31 503.771 296.08 503.641 295.89 503.511L311.67 494.051Z" fill="#DBDBDB"/>
<path d="M313.07 494.791L313.43 498.351L297.63 507.811L297.28 504.251L313.07 494.791Z" fill="#DBDBDB"/>
<path d="M304.78 493.001C307.126 492.844 309.478 493.202 311.67 494.051L295.89 503.511C296.08 503.641 296.31 503.771 296.55 503.901C296.79 504.031 297.02 504.141 297.28 504.251L313.07 494.791C316.51 497.011 316.07 500.621 311.97 503.091C309.581 504.433 306.908 505.191 304.17 505.301C301.824 505.459 299.472 505.1 297.28 504.251C297.02 504.141 296.79 504.031 296.55 503.901C296.31 503.771 296.08 503.641 295.89 503.511C292.45 501.281 292.89 497.681 296.99 495.211C299.376 493.87 302.045 493.113 304.78 493.001Z" fill="#2B7A79"/>
<path d="M370.05 503.771C372.437 505.121 375.111 505.882 377.85 505.991C380.2 506.153 382.556 505.794 384.75 504.941C384.99 504.841 385.24 504.711 385.48 504.591C385.72 504.471 385.94 504.331 386.14 504.191C386.748 503.859 387.271 503.391 387.669 502.824C388.066 502.257 388.327 501.605 388.43 500.921L388.79 497.351C388.686 498.038 388.423 498.691 388.025 499.26C387.626 499.829 387.1 500.298 386.49 500.631C386.29 500.757 386.07 500.887 385.83 501.021C385.597 501.151 385.357 501.268 385.11 501.371C382.916 502.224 380.56 502.583 378.21 502.421C375.472 502.318 372.798 501.564 370.41 500.221C367.98 498.761 366.84 496.911 367.01 495.221L366.65 498.791C366.48 500.481 367.62 502.321 370.05 503.771Z" fill="#DBDBDB"/>
<path d="M385.101 501.37L384.891 503.45L370.351 494.74L370.711 491.18L386.491 500.63C386.278 500.772 386.058 500.902 385.831 501.02C385.591 501.15 385.351 501.26 385.101 501.37Z" fill="#2B7A79"/>
<path d="M370.711 491.18C370.461 491.28 370.211 491.4 369.971 491.52C369.731 491.64 369.521 491.77 369.301 491.91L385.101 501.37C385.351 501.26 385.591 501.15 385.831 501.02C386.058 500.902 386.278 500.772 386.491 500.63L370.711 491.18Z" fill="#DBDBDB"/>
<path d="M369.31 491.91L368.95 495.47L384.75 504.93L385.1 501.37L369.31 491.91Z" fill="#DBDBDB"/>
<path d="M377.59 490.13C375.247 489.963 372.896 490.321 370.71 491.18L386.49 500.63C386.278 500.772 386.057 500.902 385.83 501.02C385.59 501.15 385.35 501.26 385.1 501.37L369.3 491.91C365.87 494.14 366.3 497.74 370.41 500.21C372.799 501.552 375.472 502.309 378.21 502.42C380.556 502.588 382.91 502.229 385.1 501.37C385.35 501.26 385.59 501.15 385.83 501.02C386.057 500.902 386.278 500.772 386.49 500.63C389.93 498.4 389.49 494.8 385.39 492.33C383.002 490.986 380.328 490.232 377.59 490.13Z" fill="#2B7A79"/>
<path d="M303.54 490.401L303.49 494.551C303.477 494.822 303.363 495.079 303.17 495.271C302.45 496.091 300.61 496.741 298.22 497.111C295.807 497.461 293.365 497.572 290.93 497.441L289.93 497.371L288.93 497.271C284.47 496.781 281.56 495.561 281.57 494.271L281.63 490.141C281.63 491.421 284.54 492.641 288.99 493.141C289.3 493.191 289.65 493.221 289.99 493.241L290.99 493.321C293.425 493.462 295.868 493.351 298.28 492.991C300.66 492.611 302.51 491.991 303.28 491.141C303.459 490.937 303.553 490.672 303.54 490.401Z" fill="#DBDBDB"/>
<path d="M290 493.231L289.94 497.371L288.94 497.271L288.99 493.131L290 493.231Z" fill="#DBDBDB"/>
<path d="M294.211 487.23L295.211 487.3C295.551 487.3 295.884 487.33 296.211 487.39L291.011 493.29L290.011 493.23L289.011 493.13L294.211 487.23Z" fill="#DBDBDB"/>
<path d="M296.2 487.391L296.14 491.531L290.94 497.441L291 493.291L296.2 487.391Z" fill="#DBDBDB"/>
<path d="M286.941 487.55C289.347 487.193 291.783 487.086 294.211 487.23L289.001 493.13L290.001 493.23L291.001 493.29L296.201 487.39C301.471 487.97 304.591 489.59 303.201 491.13C302.481 491.95 300.641 492.59 298.201 492.97C295.795 493.327 293.359 493.434 290.931 493.29L289.931 493.23L288.931 493.13C283.651 492.55 280.541 490.94 281.931 489.39C282.701 488.57 284.541 487.93 286.941 487.55Z" fill="#2B7A79"/>
<path d="M330.57 490.719L330.63 494.859C330.632 494.995 330.661 495.129 330.716 495.252C330.771 495.376 330.851 495.487 330.95 495.579C331.67 496.399 333.51 497.049 335.9 497.429C338.31 497.78 340.749 497.891 343.18 497.759L344.18 497.679C344.5 497.679 344.84 497.629 345.18 497.579C349.64 497.089 352.55 495.869 352.53 494.579V490.439C352.53 491.729 349.62 492.949 345.17 493.439L344.17 493.539L343.17 493.609C340.739 493.761 338.298 493.65 335.89 493.279C333.5 492.909 331.66 492.279 330.94 491.439C330.832 491.352 330.743 491.243 330.679 491.119C330.615 490.995 330.578 490.859 330.57 490.719Z" fill="#DBDBDB"/>
<path d="M344.13 493.539L344.18 497.679C344.51 497.679 344.85 497.619 345.18 497.589L345.12 493.449L344.13 493.539Z" fill="#DBDBDB"/>
<path d="M339.91 487.541L338.91 487.611L337.91 487.701L343.11 493.611L344.11 493.541L345.11 493.451L339.91 487.541Z" fill="#DBDBDB"/>
<path d="M337.92 487.699L337.97 491.849L343.18 497.749L343.12 493.609L337.92 487.699Z" fill="#DBDBDB"/>
<path d="M347.17 487.859C344.767 487.508 342.335 487.4 339.91 487.539L345.11 493.449L344.11 493.539L343.11 493.609L337.91 487.699C332.63 488.289 329.52 489.899 330.91 491.439C331.63 492.259 333.47 492.909 335.86 493.279C338.269 493.64 340.709 493.75 343.14 493.609L344.14 493.539L345.14 493.449C350.43 492.869 353.54 491.249 352.14 489.709C351.42 488.889 349.57 488.239 347.17 487.859Z" fill="#2B7A79"/>
<path d="M305.36 511.141L305.41 515.291C305.412 515.426 305.441 515.56 305.496 515.684C305.551 515.807 305.631 515.919 305.73 516.011C306.45 516.831 308.29 517.471 310.68 517.851C313.09 518.202 315.529 518.312 317.96 518.181L318.96 518.111L319.96 518.011C324.42 517.521 327.33 516.291 327.32 515.011L327.26 510.881C327.26 512.161 324.35 513.381 319.9 513.881L318.9 513.981L317.9 514.051C315.466 514.202 313.022 514.091 310.61 513.721C308.22 513.351 306.38 512.721 305.66 511.881C305.467 511.683 305.359 511.417 305.36 511.141Z" fill="#DBDBDB"/>
<path d="M318.91 514L318.97 518.15L319.97 518.05L319.91 513.91L318.91 514Z" fill="#DBDBDB"/>
<path d="M314.69 508L313.69 508.07L312.69 508.17L317.89 514.07L318.89 514L319.89 513.91L314.69 508Z" fill="#DBDBDB"/>
<path d="M312.7 508.131L312.75 512.271L317.96 518.171L317.9 514.031L312.7 508.131Z" fill="#DBDBDB"/>
<path d="M322 508.29C319.594 507.929 317.158 507.819 314.73 507.96L319.93 513.87L318.93 513.96L317.93 514.03L312.73 508.13C307.46 508.71 304.34 510.32 305.73 511.87C306.45 512.68 308.29 513.33 310.68 513.71C313.09 514.061 315.529 514.168 317.96 514.03L318.96 513.96L319.96 513.87C325.25 513.29 328.36 511.67 326.96 510.13C326.2 509.31 324.35 508.67 322 508.29Z" fill="#2B7A79"/>
<path d="M410.26 420.801H444.91C447.159 420.801 449.316 421.694 450.906 423.285C452.497 424.875 453.39 427.032 453.39 429.281V505.541C453.39 506.382 453.056 507.188 452.462 507.782C451.867 508.377 451.061 508.711 450.22 508.711H405C404.159 508.711 403.353 508.377 402.759 507.782C402.164 507.188 401.83 506.382 401.83 505.541V429.271C401.833 427.032 402.72 424.885 404.3 423.299C405.879 421.712 408.021 420.814 410.26 420.801Z" fill="#2B7A79"/>
<path d="M442.53 409.641H412.65V423.331H442.53V409.641Z" fill="#2B7A79"/>
<path d="M453.39 449.43H401.79V484.22H453.39V449.43Z" fill="#EBEBEB"/>
<path d="M453.39 477.111H401.79V480.261H453.39V477.111Z" fill="#455A64"/>
<path d="M453.39 453.4H401.79V456.55H453.39V453.4Z" fill="#455A64"/>
<path d="M444.61 400.061H410.57V412.741H444.61V400.061Z" fill="#455A64"/>
<path d="M446.39 412.73H408.78V416.48H446.39V412.73Z" fill="#37474F"/>
<path d="M413.29 401.83H412.85C412.541 401.83 412.29 402.081 412.29 402.39V410.41C412.29 410.719 412.541 410.97 412.85 410.97H413.29C413.599 410.97 413.85 410.719 413.85 410.41V402.39C413.85 402.081 413.599 401.83 413.29 401.83Z" fill="#37474F"/>
<path d="M416.19 401.83H415.75C415.441 401.83 415.19 402.081 415.19 402.39V410.41C415.19 410.719 415.441 410.97 415.75 410.97H416.19C416.5 410.97 416.75 410.719 416.75 410.41V402.39C416.75 402.081 416.5 401.83 416.19 401.83Z" fill="#37474F"/>
<path d="M418.65 401.83H419.1C419.246 401.83 419.386 401.888 419.489 401.991C419.592 402.094 419.65 402.234 419.65 402.38V410.38C419.65 410.529 419.591 410.671 419.486 410.776C419.381 410.881 419.239 410.94 419.09 410.94H418.64C418.492 410.94 418.349 410.881 418.244 410.776C418.139 410.671 418.08 410.529 418.08 410.38V402.38C418.081 402.307 418.097 402.234 418.127 402.167C418.156 402.099 418.198 402.038 418.251 401.987C418.304 401.936 418.367 401.896 418.435 401.869C418.503 401.842 418.577 401.829 418.65 401.83Z" fill="#37474F"/>
<path d="M422 401.83H421.56C421.251 401.83 421 402.081 421 402.39V410.41C421 410.719 421.251 410.97 421.56 410.97H422C422.309 410.97 422.56 410.719 422.56 410.41V402.39C422.56 402.081 422.309 401.83 422 401.83Z" fill="#37474F"/>
<path d="M424.91 401.83H424.47C424.161 401.83 423.91 402.081 423.91 402.39V410.41C423.91 410.719 424.161 410.97 424.47 410.97H424.91C425.219 410.97 425.47 410.719 425.47 410.41V402.39C425.47 402.081 425.219 401.83 424.91 401.83Z" fill="#37474F"/>
<path d="M427.36 401.83H427.81C427.958 401.83 428.101 401.889 428.206 401.994C428.311 402.099 428.37 402.242 428.37 402.39V410.39C428.37 410.539 428.311 410.681 428.206 410.786C428.101 410.891 427.958 410.95 427.81 410.95H427.36C427.214 410.95 427.074 410.892 426.971 410.789C426.868 410.686 426.81 410.546 426.81 410.4V402.4C426.808 402.327 426.822 402.253 426.848 402.185C426.875 402.117 426.916 402.054 426.967 402.001C427.018 401.948 427.079 401.906 427.146 401.877C427.214 401.847 427.286 401.831 427.36 401.83Z" fill="#37474F"/>
<path d="M430.71 401.83H430.27C429.961 401.83 429.71 402.081 429.71 402.39V410.41C429.71 410.719 429.961 410.97 430.27 410.97H430.71C431.019 410.97 431.27 410.719 431.27 410.41V402.39C431.27 402.081 431.019 401.83 430.71 401.83Z" fill="#37474F"/>
<path d="M433.62 401.83H433.18C432.871 401.83 432.62 402.081 432.62 402.39V410.41C432.62 410.719 432.871 410.97 433.18 410.97H433.62C433.929 410.97 434.18 410.719 434.18 410.41V402.39C434.18 402.081 433.929 401.83 433.62 401.83Z" fill="#37474F"/>
<path d="M436.08 401.83H436.53C436.679 401.83 436.821 401.889 436.926 401.994C437.031 402.099 437.09 402.242 437.09 402.39V410.39C437.09 410.539 437.031 410.681 436.926 410.786C436.821 410.891 436.679 410.95 436.53 410.95H436.08C435.934 410.95 435.795 410.892 435.691 410.789C435.588 410.686 435.53 410.546 435.53 410.4V402.4C435.529 402.327 435.542 402.253 435.569 402.185C435.596 402.117 435.636 402.054 435.687 402.001C435.738 401.948 435.799 401.906 435.867 401.877C435.934 401.847 436.007 401.831 436.08 401.83Z" fill="#37474F"/>
<path d="M439.42 401.83H438.98C438.671 401.83 438.42 402.081 438.42 402.39V410.41C438.42 410.719 438.671 410.97 438.98 410.97H439.42C439.729 410.97 439.98 410.719 439.98 410.41V402.39C439.98 402.081 439.729 401.83 439.42 401.83Z" fill="#37474F"/>
<path d="M442.33 401.83H441.89C441.581 401.83 441.33 402.081 441.33 402.39V410.41C441.33 410.719 441.581 410.97 441.89 410.97H442.33C442.639 410.97 442.89 410.719 442.89 410.41V402.39C442.89 402.081 442.639 401.83 442.33 401.83Z" fill="#37474F"/>
<path d="M195.38 529.643L195.668 500.654L191.838 500.616L191.55 529.605L195.38 529.643Z" fill="#2B7A79"/>
<path opacity="0.1" d="M195.38 529.643L195.668 500.654L191.838 500.616L191.55 529.605L195.38 529.643Z" fill="black"/>
<path d="M169.415 524.261L169.592 506.512L165.762 506.474L165.585 524.223L169.415 524.261Z" fill="#2B7A79"/>
<path opacity="0.1" d="M169.415 524.261L169.592 506.512L165.762 506.474L165.585 524.223L169.415 524.261Z" fill="black"/>
<path d="M191.656 520.3L191.75 510.881L169.551 510.66L169.457 520.08L191.656 520.3Z" fill="#2B7A79"/>
<path opacity="0.2" d="M188.06 520.26L189.37 510.85L191.74 510.88L191.64 520.29L188.06 520.26Z" fill="black"/>
<path d="M276.92 516.001C280.77 515.911 284.62 515.891 288.48 515.871H300.03L311.58 516.061L317.35 516.211C319.28 516.281 321.2 516.331 323.13 516.431C321.2 516.481 319.28 516.491 317.35 516.531H311.57H300.02L288.47 516.341C284.62 516.231 280.77 516.131 276.92 516.001Z" fill="#263238"/>
<path d="M274.169 526.319L274.375 505.57L195.629 504.787L195.422 525.536L274.169 526.319Z" fill="#2B7A79"/>
<path opacity="0.6" d="M274.169 526.319L274.375 505.57L195.629 504.787L195.422 525.536L274.169 526.319Z" fill="#2B7A79"/>
<path d="M274.198 523.59L274.35 508.301L199.333 507.554L199.181 522.844L274.198 523.59Z" fill="#2B7A79"/>
<path d="M266.195 510.141L266.233 506.281L265.773 506.277L265.735 510.136L266.195 510.141Z" fill="#263238"/>
<path d="M264.66 510.151L264.698 506.291L264.238 506.286L264.2 510.146L264.66 510.151Z" fill="#263238"/>
<path d="M263.105 510.131L263.144 506.271L262.684 506.267L262.645 510.127L263.105 510.131Z" fill="#263238"/>
<path d="M261.561 510.122L261.6 506.262L261.14 506.257L261.101 510.117L261.561 510.122Z" fill="#263238"/>
<path d="M259.982 512.918L260.049 506.229L259.589 506.224L259.522 512.914L259.982 512.918Z" fill="#263238"/>
<path d="M258.541 510.092L258.579 506.232L258.119 506.228L258.081 510.088L258.541 510.092Z" fill="#263238"/>
<path d="M256.986 510.073L257.024 506.213L256.564 506.208L256.526 510.068L256.986 510.073Z" fill="#263238"/>
<path d="M255.442 510.043L255.48 506.184L255.021 506.179L254.982 510.039L255.442 510.043Z" fill="#263238"/>
<path d="M253.864 510.022L253.902 506.162L253.442 506.158L253.404 510.018L253.864 510.022Z" fill="#263238"/>
<path d="M252.308 512.848L252.375 506.158L251.915 506.154L251.848 512.843L252.308 512.848Z" fill="#263238"/>
<path d="M250.878 510.014L250.916 506.154L250.456 506.15L250.418 510.01L250.878 510.014Z" fill="#263238"/>
<path d="M249.312 509.973L249.351 506.113L248.891 506.109L248.852 509.969L249.312 509.973Z" fill="#263238"/>
<path d="M247.768 509.963L247.807 506.104L247.347 506.099L247.308 509.959L247.768 509.963Z" fill="#263238"/>
<path d="M246.223 509.973L246.262 506.113L245.802 506.109L245.763 509.969L246.223 509.973Z" fill="#263238"/>
<path d="M244.645 512.779L244.712 506.09L244.252 506.085L244.185 512.775L244.645 512.779Z" fill="#263238"/>
<path d="M243.204 509.934L243.242 506.074L242.782 506.07L242.744 509.929L243.204 509.934Z" fill="#263238"/>
<path d="M241.649 509.905L241.688 506.045L241.228 506.04L241.189 509.9L241.649 509.905Z" fill="#263238"/>
<path d="M240.104 509.905L240.143 506.045L239.683 506.04L239.644 509.9L240.104 509.905Z" fill="#263238"/>
<path d="M238.549 509.866L238.588 506.006L238.128 506.001L238.09 509.861L238.549 509.866Z" fill="#263238"/>
<path d="M236.981 512.692L237.048 506.002L236.588 505.997L236.521 512.687L236.981 512.692Z" fill="#263238"/>
<path d="M235.53 509.856L235.568 505.996L235.108 505.992L235.07 509.851L235.53 509.856Z" fill="#263238"/>
<path d="M233.975 509.827L234.014 505.967L233.554 505.962L233.515 509.822L233.975 509.827Z" fill="#263238"/>
<path d="M232.44 509.827L232.479 505.967L232.019 505.962L231.98 509.822L232.44 509.827Z" fill="#263238"/>
<path d="M230.886 509.786L230.925 505.926L230.465 505.921L230.426 509.781L230.886 509.786Z" fill="#263238"/>
<path d="M229.307 512.621L229.374 505.932L228.914 505.927L228.848 512.617L229.307 512.621Z" fill="#263238"/>
<path d="M227.866 509.776L227.904 505.916L227.444 505.911L227.406 509.771L227.866 509.776Z" fill="#263238"/>
<path d="M226.321 509.766L226.359 505.906L225.899 505.902L225.861 509.761L226.321 509.766Z" fill="#263238"/>
<path d="M224.777 509.747L224.815 505.887L224.355 505.882L224.317 509.742L224.777 509.747Z" fill="#263238"/>
<path d="M223.213 509.717L223.251 505.857L222.791 505.853L222.753 509.713L223.213 509.717Z" fill="#263238"/>
<path d="M221.643 512.553L221.71 505.863L221.25 505.859L221.183 512.548L221.643 512.553Z" fill="#263238"/>
<path d="M220.192 509.688L220.23 505.828L219.77 505.824L219.732 509.683L220.192 509.688Z" fill="#263238"/>
<path d="M218.648 509.678L218.687 505.818L218.227 505.814L218.188 509.674L218.648 509.678Z" fill="#263238"/>
<path d="M217.093 509.659L217.132 505.799L216.672 505.794L216.633 509.654L217.093 509.659Z" fill="#263238"/>
<path d="M215.549 509.649L215.587 505.789L215.127 505.784L215.089 509.644L215.549 509.649Z" fill="#263238"/>
<path d="M213.98 512.465L214.047 505.775L213.587 505.771L213.52 512.46L213.98 512.465Z" fill="#263238"/>
<path d="M212.529 509.62L212.567 505.76L212.107 505.755L212.069 509.615L212.529 509.62Z" fill="#263238"/>
<path d="M210.974 509.6L211.013 505.74L210.553 505.736L210.514 509.595L210.974 509.6Z" fill="#263238"/>
<path d="M209.42 509.569L209.458 505.709L208.998 505.704L208.96 509.564L209.42 509.569Z" fill="#263238"/>
<path d="M207.884 509.59L207.923 505.73L207.463 505.726L207.424 509.586L207.884 509.59Z" fill="#263238"/>
<path d="M206.297 512.385L206.363 505.695L205.903 505.691L205.837 512.38L206.297 512.385Z" fill="#263238"/>
<path d="M204.855 509.539L204.894 505.68L204.434 505.675L204.395 509.535L204.855 509.539Z" fill="#263238"/>
<path d="M203.31 509.539L203.349 505.68L202.889 505.675L202.85 509.535L203.31 509.539Z" fill="#263238"/>
<path d="M201.765 509.51L201.804 505.65L201.344 505.646L201.305 509.506L201.765 509.51Z" fill="#263238"/>
<path d="M200.211 509.51L200.249 505.65L199.789 505.646L199.751 509.506L200.211 509.51Z" fill="#263238"/>
<path d="M198.633 512.317L198.699 505.627L198.239 505.622L198.173 512.312L198.633 512.317Z" fill="#263238"/>
<path d="M274.169 526.311L274.375 505.562L268.435 505.503L268.229 526.252L274.169 526.311Z" fill="#263238"/>
<path d="M281.008 523.025L281.147 509.006L274.348 508.938L274.208 522.958L281.008 523.025Z" fill="#2B7A79"/>
<path d="M289.2 517.881L289.23 514.271L281.09 513.541L281.04 518.451L289.2 517.881Z" fill="#2B7A79"/>
<path opacity="0.1" d="M281.04 518.451L281.09 513.551L283.4 513.751L283 518.311L281.04 518.451Z" fill="black"/>
</g>
<defs>
<clipPath id="clip0_953_1638">
<rect width="566" height="566" fill="white"/>
</clipPath>
</defs>
</svg>
