<svg width="25" height="25" viewBox="0 0 25 25" fill="none" xmlns="http://www.w3.org/2000/svg">
<g clip-path="url(#clip0_126_14)">
<path d="M6.50993 19.3033C4.8423 19.3033 3.35891 18.2355 2.82027 16.6459L2.78383 16.5261C2.6568 16.1051 2.60359 15.7511 2.60359 15.3969V8.29456L0.0764774 16.7302C-0.248543 17.971 0.492099 19.2573 1.73477 19.6001L17.8425 23.9138C18.0436 23.9659 18.2446 23.9909 18.4426 23.9909C19.48 23.9909 20.428 23.3023 20.6937 22.2876L21.6321 19.3033H6.50993Z" fill="black"/>
<path d="M9.37446 8.3655C10.5235 8.3655 11.4577 7.43107 11.4577 6.28206C11.4577 5.13304 10.5235 4.19861 9.37446 4.19861C8.22545 4.19861 7.29102 5.13304 7.29102 6.28206C7.29102 7.43107 8.22545 8.3655 9.37446 8.3655Z" fill="black"/>
<path d="M22.3956 1.07355H6.77018C5.33487 1.07355 4.16602 2.2424 4.16602 3.67791V15.1364C4.16602 16.5719 5.33487 17.7407 6.77018 17.7407H22.3956C23.8311 17.7407 24.9999 16.5719 24.9999 15.1364V3.67791C24.9999 2.2424 23.8311 1.07355 22.3956 1.07355ZM6.77018 3.157H22.3956C22.6832 3.157 22.9165 3.39027 22.9165 3.67791V11.0729L19.6258 7.2331C19.2768 6.82377 18.7715 6.60499 18.2289 6.5926C17.6893 6.59565 17.183 6.83522 16.8372 7.24988L12.9683 11.8936L11.7079 10.6363C10.9954 9.92386 9.83594 9.92386 9.12448 10.6363L6.24946 13.5103V3.67791C6.24946 3.39027 6.48274 3.157 6.77018 3.157Z" fill="black"/>
</g>
<defs>
<clipPath id="clip0_126_14">
<rect width="25" height="25" fill="white"/>
</clipPath>
</defs>
</svg>
