<svg width="21" height="23" viewBox="0 0 21 23" fill="none" xmlns="http://www.w3.org/2000/svg">
<path fill-rule="evenodd" clip-rule="evenodd" d="M3.07557 2.79037C5.04468 1.00373 7.71537 0 10.5001 0C13.2849 0 15.9555 1.00373 17.9247 2.79037C19.8938 4.57701 21 7.00022 21 9.52691C21 12.0536 19.8938 14.4768 17.9247 16.2635L10.5001 23L3.07557 16.2635C2.1005 15.3788 1.32703 14.3286 0.799318 13.1727C0.271609 12.0169 0 10.778 0 9.52691C0 8.2758 0.271609 7.03695 0.799318 5.88108C1.32703 4.72522 2.1005 3.67499 3.07557 2.79037ZM10.5001 12.2487C11.2957 12.2487 12.0587 11.962 12.6213 11.4515C13.1839 10.9411 13.4999 10.2488 13.4999 9.52691C13.4999 8.80504 13.1839 8.11273 12.6213 7.60228C12.0587 7.09184 11.2957 6.80508 10.5001 6.80508C9.70451 6.80508 8.9415 7.09184 8.37892 7.60228C7.81635 8.11273 7.5003 8.80504 7.5003 9.52691C7.5003 10.2488 7.81635 10.9411 8.37892 11.4515C8.9415 11.962 9.70451 12.2487 10.5001 12.2487Z" fill="black"/>
</svg>
