<svg width="26" height="24" viewBox="0 0 26 24" fill="none" xmlns="http://www.w3.org/2000/svg">
<path d="M8.66614 7.66655C13.6262 7.66655 17.3324 5.70577 17.3324 3.95251C17.3324 2.19942 13.6261 0.238556 8.66614 0.238556C3.7062 0.238556 0 2.19942 0 3.95251C0 5.70577 3.70611 7.66655 8.66614 7.66655Z" fill="black"/>
<path d="M8.66614 22.5232C9.3901 22.5232 10.0869 22.4811 10.7497 22.4044C10.191 21.6864 9.72896 20.8896 9.38283 20.0339C9.14501 20.042 8.90636 20.0475 8.66606 20.0475C5.83191 20.0475 3.14792 19.4859 1.10871 18.4663C0.707196 18.2655 0.337707 18.0498 0 17.8215V18.8093C0 20.5623 3.70611 22.5232 8.66614 22.5232Z" fill="black"/>
<path d="M8.66623 17.571C8.69165 17.571 8.71666 17.5706 8.74201 17.5705C8.69124 17.1647 8.66474 16.7514 8.66474 16.332C8.66474 15.9128 8.69116 15.4998 8.74201 15.0943C8.71666 15.0943 8.69157 15.0952 8.66623 15.0952C5.83208 15.0952 3.14817 14.5336 1.10888 13.514C0.707279 13.3132 0.337707 13.0975 0 12.8693V13.857C8.25489e-05 15.6101 3.7062 17.571 8.66623 17.571Z" fill="black"/>
<path d="M8.66623 12.6186C8.91189 12.6186 9.15425 12.6137 9.39356 12.6043C9.77791 11.6613 10.3032 10.7904 10.9436 10.0179C10.2021 10.0997 9.44012 10.143 8.66623 10.143C5.83208 10.143 3.14817 9.58142 1.10888 8.56178C0.707279 8.36094 0.337707 8.14532 0 7.91699V8.90477C8.25489e-05 10.6579 3.7062 12.6186 8.66623 12.6186Z" fill="black"/>
<path d="M12.3807 12.228C11.845 13.0334 11.4622 13.9488 11.2739 14.9324C11.187 15.3859 11.1411 15.8537 11.1411 16.332C11.1411 16.6917 11.1674 17.0454 11.217 17.3915C11.3389 18.2418 11.6053 19.0458 11.9905 19.7783C12.3946 20.5469 12.9293 21.2366 13.5652 21.8173C14.8866 23.0243 16.6441 23.7614 18.5705 23.7614C22.6671 23.7614 25.9999 20.4286 25.9999 16.332C25.9999 12.2354 22.6671 8.90265 18.5705 8.90265C18.1471 8.90265 17.732 8.93881 17.3277 9.00716C15.2682 9.35543 13.4944 10.554 12.3807 12.228Z" fill="black"/>
</svg>
