<svg width="19" height="19" viewBox="0 0 19 19" fill="none" xmlns="http://www.w3.org/2000/svg">
<path fill-rule="evenodd" clip-rule="evenodd" d="M8.20979 3.88853C7.06366 3.88853 5.96447 4.3438 5.15403 5.1542C4.34359 5.9646 3.88829 7.06374 3.88829 8.20982C3.88829 9.3559 4.34359 10.455 5.15403 11.2654C5.96447 12.0758 7.06366 12.5311 8.20979 12.5311C9.35592 12.5311 10.4551 12.0758 11.2656 11.2654C12.076 10.455 12.5313 9.3559 12.5313 8.20982C12.5313 7.06374 12.076 5.9646 11.2656 5.1542C10.4551 4.3438 9.35592 3.88853 8.20979 3.88853ZM1.72754 8.20982C1.72741 7.18967 1.96808 6.1839 2.42997 5.2743C2.89186 4.3647 3.56193 3.57696 4.38569 2.97514C5.20945 2.37332 6.16363 1.97442 7.17063 1.81088C8.17763 1.64734 9.20901 1.72379 10.1809 2.03399C11.1528 2.34419 12.0377 2.8794 12.7638 3.59608C13.4898 4.31276 14.0364 5.19068 14.3591 6.15843C14.6819 7.12618 14.7716 8.15644 14.6211 9.16542C14.4706 10.1744 14.084 11.1336 13.4928 11.965L18.697 17.1689C18.8938 17.3727 19.0027 17.6456 19.0002 17.9288C18.9978 18.2121 18.8841 18.4831 18.6838 18.6834C18.4835 18.8837 18.2125 18.9973 17.9293 18.9997C17.646 19.0022 17.3731 18.8933 17.1693 18.6965L11.9663 13.4937C10.9965 14.1832 9.85558 14.5925 8.6686 14.6768C7.48162 14.761 6.29436 14.5169 5.23692 13.9712C4.17948 13.4254 3.29266 12.5992 2.67365 11.583C2.05463 10.5667 1.72731 9.39972 1.72754 8.20982Z" fill="#949391"/>
</svg>
