<svg width="22" height="22" viewBox="0 0 22 22" fill="none" xmlns="http://www.w3.org/2000/svg">
<path d="M9.40824 18.8155C11.4957 18.8151 13.5229 18.1163 15.1673 16.8304L20.3371 22L22 20.3372L16.8302 15.1676C18.1167 13.5232 18.816 11.4956 18.8165 9.40774C18.8165 4.22055 14.5957 0 9.40824 0C4.22077 0 0 4.22055 0 9.40774C0 14.5949 4.22077 18.8155 9.40824 18.8155ZM9.40824 2.35193C13.2997 2.35193 16.4644 5.51646 16.4644 9.40774C16.4644 13.299 13.2997 16.4635 9.40824 16.4635C5.51676 16.4635 2.35206 13.299 2.35206 9.40774C2.35206 5.51646 5.51676 2.35193 9.40824 2.35193Z" fill="white"/>
<path d="M10.9669 7.85866C11.4111 8.43412 11.656 9.19435 11.656 10H14C14.001 9.20408 13.88 8.41579 13.6438 7.68069C13.4076 6.9456 13.061 6.27828 12.6241 5.71731C10.8497 3.42756 7.77322 3.42756 6 5.71731L7.65485 7.86169C8.54556 6.71378 10.0809 6.71681 10.9669 7.85866Z" fill="white"/>
</svg>
