<svg width="8" height="10" viewBox="0 0 8 10" fill="none" xmlns="http://www.w3.org/2000/svg">
<path fill-rule="evenodd" clip-rule="evenodd" d="M2.85714 1.25C2.40249 1.25 1.96645 1.44754 1.64496 1.79917C1.32347 2.15081 1.14286 2.62772 1.14286 3.125V5.625C1.14286 6.4538 1.44388 7.24866 1.97969 7.83471C2.51551 8.42076 3.24224 8.75 4 8.75C4.75776 8.75 5.48449 8.42076 6.02031 7.83471C6.55612 7.24866 6.85714 6.4538 6.85714 5.625V3.125C6.85714 2.95924 6.91735 2.80027 7.02451 2.68306C7.13167 2.56585 7.27702 2.5 7.42857 2.5C7.58012 2.5 7.72547 2.56585 7.83263 2.68306C7.9398 2.80027 8 2.95924 8 3.125V5.625C8 6.19953 7.89654 6.76844 7.69552 7.29924C7.4945 7.83004 7.19986 8.31234 6.82843 8.71859C6.45699 9.12485 6.01604 9.44711 5.53073 9.66697C5.04543 9.88684 4.52529 10 4 10C3.47471 10 2.95457 9.88684 2.46927 9.66697C1.98396 9.44711 1.54301 9.12485 1.17157 8.71859C0.800139 8.31234 0.505501 7.83004 0.304482 7.29924C0.103463 6.76844 -7.82739e-09 6.19953 0 5.625V3.125C0 2.2962 0.30102 1.50134 0.836838 0.915291C1.37266 0.32924 2.09938 0 2.85714 0C3.6149 0 4.34163 0.32924 4.87745 0.915291C5.41327 1.50134 5.71429 2.2962 5.71429 3.125V5.625C5.71429 6.12228 5.53367 6.59919 5.21218 6.95083C4.89069 7.30246 4.45466 7.5 4 7.5C3.54534 7.5 3.10931 7.30246 2.78782 6.95083C2.46633 6.59919 2.28571 6.12228 2.28571 5.625V3.125C2.28571 2.95924 2.34592 2.80027 2.45308 2.68306C2.56025 2.56585 2.70559 2.5 2.85714 2.5C3.0087 2.5 3.15404 2.56585 3.2612 2.68306C3.36837 2.80027 3.42857 2.95924 3.42857 3.125V5.625C3.42857 5.79076 3.48878 5.94973 3.59594 6.06694C3.7031 6.18415 3.84845 6.25 4 6.25C4.15155 6.25 4.2969 6.18415 4.40406 6.06694C4.51122 5.94973 4.57143 5.79076 4.57143 5.625V3.125C4.57143 2.62772 4.39082 2.15081 4.06933 1.79917C3.74784 1.44754 3.3118 1.25 2.85714 1.25Z" fill="#555252"/>
</svg>
