<svg width="8" height="8" viewBox="0 0 8 8" fill="none" xmlns="http://www.w3.org/2000/svg">
<path fill-rule="evenodd" clip-rule="evenodd" d="M0.167456 3.85344C0.060234 3.75968 0 3.63252 0 3.49994C0 3.36736 0.060234 3.2402 0.167456 3.14644L3.59909 0.146395C3.70635 0.0526583 3.85179 0 4.00345 0C4.15511 0 4.30056 0.0526583 4.40781 0.146395L7.83945 3.14644C7.94363 3.24074 8.00128 3.36704 7.99998 3.49814C7.99868 3.62924 7.93853 3.75465 7.83248 3.84735C7.72644 3.94006 7.58299 3.99264 7.43303 3.99378C7.28307 3.99492 7.1386 3.94452 7.03073 3.85344L4.57539 1.70692V7.49999C4.57539 7.6326 4.51513 7.75978 4.40788 7.85355C4.30062 7.94732 4.15514 8 4.00345 8C3.85177 8 3.70629 7.94732 3.59903 7.85355C3.49177 7.75978 3.43151 7.6326 3.43151 7.49999V1.70692L0.976178 3.85344C0.868924 3.94718 0.723475 3.99984 0.571817 3.99984C0.420159 3.99984 0.27471 3.94718 0.167456 3.85344Z" fill="#555252"/>
</svg>
