<svg width="90" height="90" viewBox="0 0 90 90" fill="none" xmlns="http://www.w3.org/2000/svg">
<g clip-path="url(#clip0_1_16779)">
<path d="M20.8466 2.00303L4.62656 9.78275H1.49414V23.5095H19.9046L38.7229 18.1949L29.6666 4.4499C27.7523 1.54371 23.9841 0.498513 20.8466 2.00303Z" fill="#FFCBBE"/>
<path d="M18.6318 17.0343V17.5869H32.746V12.9375H22.7286C20.4659 12.9375 18.6318 14.7716 18.6318 17.0343Z" fill="#EAAC9D"/>
<path d="M25.3447 35.3884V10.9065C25.3447 6.94 28.5601 3.72461 32.5266 3.72461H68.3691C72.3356 3.72461 75.551 6.94 75.551 10.9065V35.3884C75.551 39.3549 72.3356 42.5703 68.3691 42.5703H32.5266C28.5601 42.5703 25.3447 39.3549 25.3447 35.3884Z" fill="#8BC852"/>
<path d="M29.563 32.3937V13.9023C32.854 13.9023 35.522 11.2343 35.522 7.94336H65.3738C65.3738 11.2343 68.0419 13.9023 71.3328 13.9023V32.3938C68.0419 32.3938 65.3738 35.0618 65.3738 38.3528H35.522C35.522 35.0617 32.854 32.3937 29.563 32.3937Z" fill="#69AF81"/>
<path d="M50.448 32.9643C55.8693 32.9643 60.2641 28.5695 60.2641 23.1482C60.2641 17.7269 55.8693 13.332 50.448 13.332C45.0267 13.332 40.6318 17.7269 40.6318 23.1482C40.6318 28.5695 45.0267 32.9643 50.448 32.9643Z" fill="#8BC852"/>
<path d="M40.3223 16.4238H1.49414V25.7847H6.62063L8.90754 28.1583C13.3632 32.7805 20.6253 33.1898 25.572 29.1003L28.3166 26.8301H40.3223C41.7588 26.8301 43.0587 26.2475 44.0007 25.3071C44.9429 24.3651 45.5254 23.0634 45.5254 21.627C45.5252 18.754 43.1951 16.4238 40.3223 16.4238Z" fill="#FFCBBE"/>
<path d="M28.1136 23.6768C21.7338 28.9531 12.3662 28.4238 6.62063 22.4634H1.49414V25.7839H6.62063L8.90754 28.1575C13.3632 32.7797 20.6253 33.1891 25.572 29.0995L28.3166 26.8293H40.3223C41.7588 26.8293 43.0587 26.2468 44.0007 25.3063C44.9429 24.3643 45.5254 23.0642 45.5254 21.6262C45.5254 21.0452 45.4305 20.4876 45.2558 19.9668C44.9961 20.7357 44.5618 21.4231 44.0007 21.9841C43.0587 22.9262 41.7588 23.5088 40.3223 23.5088H28.3166L28.1136 23.6768Z" fill="#EAAC9D"/>
<path d="M26.8422 59.3854C26.9435 62.8369 27.1762 66.2882 27.5436 69.7411C27.7377 71.568 29.2153 72.9874 31.045 73.1329C42.626 74.0505 54.207 74.0505 65.7878 73.1329C67.6189 72.9874 69.0965 71.568 69.2904 69.7411C69.3085 69.5691 69.3264 69.3986 69.3431 69.2269C70.3038 59.8609 70.2857 50.4935 69.2904 41.1277C69.0963 39.3023 67.6187 37.8814 65.7878 37.7359C62.0772 37.442 58.3653 37.2425 54.6531 37.1372C50.4948 37.0194 46.3378 37.0194 42.1795 37.1372C38.4675 37.2425 34.7568 37.4421 31.0448 37.7359C29.2151 37.8814 27.7375 39.3023 27.5434 41.1277C26.8978 47.214 26.6635 53.299 26.8422 59.3854Z" fill="#F4DD45"/>
<path d="M26.8423 59.3867C26.9435 62.8382 27.1763 66.2895 27.5437 69.7423C27.7377 71.5692 29.2153 72.9887 31.045 73.1342C42.626 74.0518 54.207 74.0518 65.7879 73.1342C67.619 72.9887 69.0966 71.5692 69.2905 69.7423C69.3086 69.5704 69.3265 69.3999 69.3432 69.2282C68.6847 67.1213 65.7297 64.8841 55.2118 66.56C37.4308 69.3929 26.8423 59.3867 26.8423 59.3867Z" fill="#ECBE6B"/>
<path d="M63.5562 73.2993C64.3006 73.2479 65.0448 73.194 65.7891 73.1344C67.6188 72.9888 69.0964 71.5694 69.2905 69.7425C70.3037 60.2046 70.3037 50.6669 69.2905 41.129C69.0964 39.3035 67.6188 37.8827 65.7891 37.7371C65.0448 37.679 64.3004 37.6234 63.5562 37.5723C64.2436 38.2195 64.7052 39.1024 64.8105 40.0977C65.8972 50.3231 65.8972 60.5485 64.8105 70.7737C64.7052 71.7691 64.2438 72.6533 63.5562 73.2993Z" fill="#ECBE6B"/>
<path d="M42.1797 37.1373V51.5723L48.4171 47.2268L54.6533 51.5723V37.1373C50.4948 37.0193 46.338 37.0193 42.1797 37.1373Z" fill="#595959"/>
<path d="M22.1031 69.4186H22.1043L39.9844 83.7609C41.4538 84.9397 43.3392 85.4766 45.2104 85.2482L69.309 82.3155L75.7299 84.6906C79.1792 81.1434 77.7618 69.7294 77.7618 69.7294L76.2326 69.3108C76.3653 67.2676 75.4017 65.2387 73.6131 64.0777C73.4159 63.9485 73.209 63.8314 72.9914 63.7249L62.6579 58.6782L57.3435 56.0826C57.0542 55.9414 56.7589 55.8304 56.4588 55.749C54.2375 55.1404 51.8259 56.1172 50.6888 58.2118C49.3987 60.5898 50.2117 63.5621 52.5324 64.9527L61.1228 70.101L46.6669 72.6189C44.9274 72.9214 43.1376 72.5556 41.6551 71.593L27.2779 62.2601C25.3494 61.0071 22.7837 61.4423 21.3739 63.2608C21.0092 63.7319 20.7534 64.2543 20.604 64.7971C20.1517 66.4475 20.6863 68.2815 22.1031 69.4186Z" fill="#FFCBBE"/>
<path d="M45.25 81.3956C55.1498 82.6815 61.9748 76.8763 66.1041 71.4146C68.1514 68.7065 67.4611 64.8328 64.6029 63.0008C54.6339 56.6106 52.0553 56.8455 50.6888 58.2118C51.8258 56.1172 54.2373 55.1404 56.4588 55.749C56.7589 55.8304 57.0542 55.9414 57.3435 56.0826L62.6579 58.6782L71.0336 62.7686C71.0336 62.7686 71.0344 62.77 71.0346 62.7702L72.9916 63.7247C75.176 64.7912 76.3799 67.0413 76.2328 69.3105L77.7619 69.729C77.7619 69.729 79.1794 81.1429 75.7301 84.6903L69.3091 82.3151L45.2106 85.2479C43.3394 85.4762 41.454 84.9394 39.9846 83.7606L22.1045 69.4182C28.2832 67.7418 38.5822 80.3757 45.25 81.3956Z" fill="#EAAC9D"/>
<path d="M87.2204 80.6115C89.6131 73.8358 88.8281 67.3808 85.4671 66.194C82.1061 65.0071 77.4419 69.5378 75.0492 76.3135C72.6565 83.0892 73.4414 89.5442 76.8024 90.731C80.1634 91.9179 84.8277 87.3872 87.2204 80.6115Z" fill="#3B66C1"/>
<path d="M73.7705 85.6412C76.4139 87.2921 79.2816 88.3053 82.3755 88.6823C82.9895 87.2047 83.5814 85.7203 84.1525 84.2288C80.9297 83.831 77.9372 82.7844 75.1746 81.0879C74.6855 82.5987 74.2168 84.1164 73.7705 85.6412Z" fill="#26457D"/>
<path d="M64.2694 24.4723H67.612C68.3401 24.4723 68.9302 23.882 68.9302 23.1541C68.9302 22.426 68.3401 21.8359 67.612 21.8359H64.2694C63.5413 21.8359 62.9512 22.4262 62.9512 23.1541C62.9512 23.8822 63.5413 24.4723 64.2694 24.4723Z" fill="black"/>
<path d="M89.1982 70.218C86.3996 68.4725 83.3233 67.3854 80.0546 66.9871C79.4675 66.9159 78.9048 67.2437 78.6779 67.7899C78.574 68.0399 78.4719 68.2891 78.3698 68.5384L77.5297 68.306C77.3381 66.1504 76.1697 64.1725 74.3278 62.9765C74.0784 62.8141 73.8209 62.668 73.5662 62.5449L71.2323 61.405C71.4927 55.4652 71.3622 49.4656 70.8428 43.5236C74.3498 42.4498 76.8651 39.1525 76.8651 35.395V10.9152C76.8651 6.22831 73.0527 2.41544 68.3669 2.41544H63.8061C63.078 2.41544 62.4879 3.00572 62.4879 3.73363C62.4879 4.46154 63.078 5.05181 63.8061 5.05181H68.3669C71.5992 5.05181 74.2287 7.6822 74.2287 10.9152V35.3952C74.2287 37.8048 72.7296 39.9398 70.5763 40.8235C70.2977 38.8377 68.8853 37.2256 67.0145 36.6443C67.6979 34.9142 69.3815 33.7186 71.3301 33.7186C72.0582 33.7186 72.6482 33.1283 72.6482 32.4004V13.9101C72.6482 13.182 72.0582 12.5919 71.3301 12.5919C68.7716 12.5919 66.6901 10.5105 66.6901 7.95185C66.6901 7.22376 66.1 6.63366 65.372 6.63366H35.5225C34.7945 6.63366 34.2044 7.22394 34.2044 7.95185C34.2044 10.5103 32.1229 12.5919 29.5644 12.5919C28.8363 12.5919 28.2462 13.1822 28.2462 13.9101V15.1146H26.6663V10.915C26.6663 7.68202 29.2958 5.05163 32.5279 5.05163H58.5335C59.2616 5.05163 59.8517 4.46136 59.8517 3.73345C59.8517 3.00554 59.2616 2.41527 58.5335 2.41527H32.5278C31.6631 2.41527 30.8283 2.54605 30.0417 2.78722C27.6148 0.0397589 23.6682 -0.800827 20.2791 0.825149L4.33104 8.47409H1.49885C0.770762 8.47409 0.180664 9.06437 0.180664 9.79228C0.180664 10.5202 0.770762 11.1105 1.49885 11.1105H4.63092C4.82832 11.1105 5.02309 11.0662 5.20098 10.9807L21.4193 3.20206C23.5028 2.20292 25.895 2.57136 27.5572 4.027C25.4223 5.57247 24.0298 8.08333 24.0298 10.9148V15.1144H23.4877C22.7596 15.1144 22.1695 15.7047 22.1695 16.4326C22.1695 17.1605 22.7596 17.7508 23.4877 17.7508H40.3226C42.4643 17.7508 44.2068 19.4933 44.2068 21.635C44.2068 22.6726 43.8025 23.6484 43.0692 24.3818C42.3344 25.1153 41.359 25.5193 40.3226 25.5193H28.3183C28.0116 25.5193 27.7145 25.6261 27.4781 25.8218L24.734 28.0916C22.5984 29.857 19.8972 30.7428 17.1328 30.587C14.3664 30.4308 11.7836 29.2458 9.86059 27.251L7.57402 24.8778C7.32547 24.62 6.9827 24.4742 6.62463 24.4742H1.49885C0.770762 24.4742 0.180664 25.0645 0.180664 25.7924C0.180664 26.5203 0.770762 27.1106 1.49885 27.1106H6.06424L7.96232 29.0806C10.3484 31.5556 13.5523 33.0255 16.9841 33.2193C17.243 33.2339 17.5009 33.2411 17.7586 33.2411C19.9575 33.2411 22.1023 32.7099 24.0298 31.7046V35.395C24.0298 37.4989 24.8234 39.5357 26.2248 41.0894C25.5533 47.4527 25.3297 53.8991 25.5557 60.2819C23.6107 60.0573 21.5963 60.8286 20.3326 62.4595C19.8697 63.0586 19.5344 63.7278 19.3343 64.4518C18.7295 66.6624 19.4934 69.0165 21.2807 70.4491C21.2943 70.46 21.308 70.4707 21.3221 70.4809L27.5057 75.442C27.749 75.6371 28.0404 75.732 28.3297 75.732C28.7158 75.732 29.0984 75.5633 29.3588 75.2386C29.8144 74.6707 29.7233 73.8412 29.1556 73.3855L22.9319 68.3923C22.9201 68.3828 22.9079 68.3737 22.896 68.3645C21.9536 67.5876 21.5539 66.3299 21.8766 65.1507C21.984 64.7612 22.1667 64.398 22.418 64.0728C23.3994 62.806 25.2195 62.4968 26.5619 63.3694L40.9355 72.7005C42.702 73.8473 44.817 74.2808 46.8921 73.9199L61.3467 71.4031C61.8896 71.3085 62.316 70.8868 62.4167 70.3454C62.5173 69.804 62.2706 69.257 61.7983 68.9738L53.2088 63.8257C51.4886 62.7947 50.89 60.6068 51.8461 58.8447C52.6779 57.3123 54.4303 56.5636 56.1136 57.0265C56.3333 57.0855 56.5511 57.1678 56.7632 57.2718L72.4139 64.9162C72.5751 64.9941 72.7305 65.0822 72.8908 65.1866C74.2431 66.0648 75.0176 67.6131 74.9121 69.2276C74.8715 69.8509 75.2739 70.4175 75.8763 70.5839L77.3819 71.0004C77.26 71.3108 77.1396 71.6198 77.0219 71.9259C76.7603 72.6052 77.0988 73.3681 77.7784 73.6297C78.4578 73.8913 79.2207 73.5525 79.4821 72.8731C79.8746 71.8534 80.2903 70.8065 80.7224 69.7493C82.9135 70.1274 84.9992 70.8645 86.9445 71.9483C85.395 77.1135 83.5815 82.2446 81.5445 87.2283C79.351 86.85 77.2657 86.1132 75.3229 85.0296C76.1542 82.256 77.0688 79.4718 78.0461 76.7396C78.2914 76.0543 77.9345 75.2996 77.249 75.0544C76.5638 74.809 75.8091 75.166 75.5638 75.8516C74.7889 78.0168 74.0543 80.2143 73.3674 82.4138L69.7637 81.08C69.5668 81.0072 69.3555 80.9825 69.1469 81.0076L45.0501 83.9396C43.5413 84.1245 41.9955 83.6854 40.8088 82.7329L33.2652 76.6814C32.697 76.2256 31.8675 76.3169 31.4119 76.8848C30.9564 77.4528 31.0475 78.2823 31.6153 78.7379L39.1587 84.7892C40.6355 85.9745 42.4923 86.6176 44.3721 86.6176C44.7046 86.6176 45.0383 86.5974 45.3703 86.5567L69.1483 83.6635L72.5999 84.9409C72.5676 85.0507 72.5342 85.1608 72.502 85.2705C72.3359 85.8377 72.5676 86.4459 73.0687 86.759C75.8628 88.5041 78.9389 89.5912 82.2114 89.9902C82.2652 89.9967 82.3187 90 82.3718 90C82.8986 90 83.3818 89.684 83.5882 89.1881C85.9524 83.5054 88.0307 77.624 89.766 71.7075C89.9319 71.1399 89.7001 70.531 89.1982 70.218ZM30.8824 15.1146V15.1088C33.8396 14.5653 36.1777 12.2274 36.721 9.27021H64.1735C64.7168 12.2276 67.0549 14.5654 70.0121 15.1088V31.2005C67.3082 31.6929 65.1102 33.675 64.3442 36.3131C55.093 35.6471 45.7483 35.5639 36.4735 36.063C35.6431 33.5303 33.5023 31.6712 30.8826 31.1993V28.156H40.3228C40.381 28.156 40.4386 28.1533 40.4964 28.1518C42.3745 31.91 46.1772 34.2879 50.4465 34.2879C56.5861 34.2879 61.5809 29.2938 61.5809 23.1552C61.5809 17.0157 56.5859 12.0207 50.4465 12.0207C47.3785 12.0207 44.5028 13.2641 42.4075 15.4582C41.7524 15.2366 41.0517 15.1144 40.3228 15.1144L30.8824 15.1146ZM43.4979 38.433C46.7759 38.3599 50.0572 38.3599 53.335 38.433V49.0513L49.1698 46.1496C48.717 45.8341 48.1157 45.8341 47.6629 46.1496L43.4977 49.0513L43.4979 38.433ZM44.9328 26.247C46.1649 25.0149 46.8434 23.377 46.8434 21.6352C46.8434 19.7468 46.0357 18.044 44.7484 16.8522C46.2993 15.4447 48.3124 14.6572 50.4464 14.6572C55.1322 14.6572 58.9443 18.4695 58.9443 23.1553C58.9443 27.8403 55.1322 31.6516 50.4464 31.6516C47.3996 31.6516 44.664 30.0646 43.1493 27.5137C43.802 27.1992 44.4046 26.7743 44.9328 26.247ZM28.2461 28.6083V32.4002C28.2461 33.1283 28.8362 33.7184 29.5643 33.7184C31.356 33.7184 32.9166 34.7179 33.6898 36.2296C32.773 36.2906 31.8568 36.3551 30.9417 36.4275C29.5229 36.5406 28.2663 37.2242 27.4041 38.2502C26.9221 37.3898 26.666 36.4156 26.666 35.395V29.9152L28.2461 28.6083ZM56.8051 54.4824C53.9398 53.6954 50.9482 54.9719 49.5288 57.5872C47.8972 60.5945 48.9183 64.3281 51.8533 66.0869L57.4036 69.4134L46.4403 71.3224C45.0233 71.5687 43.5781 71.2728 42.371 70.489L28.2353 61.3125C27.9427 54.6553 28.1501 47.9171 28.8562 41.2726C28.9828 40.084 29.9476 39.1514 31.1503 39.0558C34.377 38.8006 37.6164 38.6199 40.8615 38.5084V51.5764C40.8615 52.0673 41.1345 52.5177 41.5698 52.745C42.005 52.9722 42.5306 52.9387 42.9333 52.6579L48.4166 48.838L53.8999 52.6579C54.1251 52.8149 54.3888 52.8945 54.6537 52.8945C54.8623 52.8945 55.0719 52.845 55.2635 52.745C55.6987 52.5177 55.9717 52.0673 55.9717 51.5764V38.5084C59.2161 38.6199 62.455 38.8006 65.681 39.0558C66.8851 39.1514 67.8505 40.0838 67.977 41.2726C68.642 47.5255 68.8646 53.8627 68.6441 60.1408L57.9227 54.9041C57.5601 54.7262 57.1818 54.5838 56.8051 54.4824Z" fill="black"/>
<path d="M79.4276 85.0543C80.1556 85.0543 80.7457 84.4642 80.7457 83.7362C80.7457 83.0081 80.1556 82.418 79.4276 82.418C78.6995 82.418 78.1094 83.0081 78.1094 83.7362C78.1094 84.4642 78.6995 85.0543 79.4276 85.0543Z" fill="black"/>
</g>
<defs>
<clipPath id="clip0_1_16779">
<rect width="90" height="90" fill="white"/>
</clipPath>
</defs>
</svg>
