<svg width="88" height="88" viewBox="0 0 88 88" fill="none" xmlns="http://www.w3.org/2000/svg">
<g clip-path="url(#clip0_1_16738)">
<path d="M7.51682 7.05859H56.8335C59.1252 7.05859 60.9585 8.89193 60.9585 11.1836V82.9586C60.9585 85.2503 59.1252 87.0836 56.8335 87.0836H7.51682C5.22515 87.0836 3.39182 85.2503 3.39182 82.9586V11.1836C3.30015 8.89193 5.22515 7.05859 7.51682 7.05859Z" fill="#B3C4F3"/>
<path d="M56.7418 88.0009H7.51676C4.6751 88.0009 2.4751 85.7093 2.4751 82.9593V11.1842C2.4751 8.34258 4.76676 6.14258 7.51676 6.14258H56.8334C59.6751 6.14258 61.8751 8.43424 61.8751 11.1842V82.9593C61.8751 85.7093 59.5834 88.0009 56.7418 88.0009ZM7.51676 7.97591C5.7751 7.97591 4.30843 9.44258 4.30843 11.1842V82.9593C4.30843 84.7009 5.7751 86.1676 7.51676 86.1676H56.8334C58.5751 86.1676 60.0418 84.7009 60.0418 82.9593V11.1842C60.0418 9.44258 58.5751 7.97591 56.8334 7.97591H7.51676Z" fill="#302D3D"/>
<path d="M67.1001 17.5077V77.1827C67.1001 79.4744 65.1751 81.3994 62.8834 81.3994H13.7501C11.4584 81.3994 9.53345 79.4744 9.53345 77.1827V5.13272C9.53345 2.84105 11.4584 0.916052 13.7501 0.916052C53.9001 0.916052 51.1501 0.732719 52.3418 1.28272C53.5334 1.83272 52.8001 1.37439 65.9085 14.4827C66.6418 15.3077 67.1001 16.3161 67.1001 17.5077Z" fill="#D2DDF2"/>
<path d="M14.1167 76.725V5.5H50.4167L62.5167 17.6V76.725H14.1167Z" fill="#E6ECF2"/>
<path d="M67.1001 17.5082C67.1001 17.5999 68.3834 17.5999 50.4167 17.5999C50.5084 -0.366796 50.4167 0.916536 50.6001 0.916536C51.7001 0.916536 52.8001 1.37487 53.5334 2.1082C66.8251 15.3999 66.2751 14.6665 66.7334 15.6749C67.0084 16.3165 67.1001 16.8665 67.1001 17.5082Z" fill="#D2DDF2"/>
<path d="M62.8834 82.225H13.75C10.9084 82.225 8.6167 79.9333 8.6167 77.0917V5.13333C8.6167 2.29167 10.9084 0 13.75 0H50.6C51.3334 0 52.0667 0.183333 52.7084 0.458333C53.9 1.00833 53.2584 0.55 66.55 13.8417C67.5584 14.85 68.1084 16.1333 68.0167 17.5083V77.0917C68.0167 79.9333 65.725 82.225 62.8834 82.225ZM13.75 1.83333C11.9167 1.83333 10.45 3.3 10.45 5.13333C10.5417 5.13333 10.45 3.39166 10.45 77.0917C10.45 78.925 11.9167 80.3917 13.75 80.3917H62.8834C64.7167 80.3917 66.1834 78.925 66.1834 77.0917V17.5083C66.1834 16.6833 65.9084 15.7667 65.2667 15.2167C51.8834 1.83333 52.7084 2.475 51.975 2.10833C51.0584 1.74167 54.0834 1.83333 13.75 1.83333Z" fill="#302D3D"/>
<path d="M21.8167 19.0664H52.6167C54.3584 19.0664 55.8251 20.5331 55.8251 22.2747V49.2247C55.8251 50.9664 54.3584 52.4331 52.6167 52.4331H21.8167C20.0751 52.4331 18.6084 50.9664 18.6084 49.2247V22.2747C18.6084 20.4414 20.0751 19.0664 21.8167 19.0664Z" fill="white"/>
<path d="M21.8167 59.125H52.6167C54.3584 59.125 55.8251 60.5917 55.8251 62.3333V64.9C55.8251 66.6417 54.3584 68.1083 52.6167 68.1083H21.8167C20.0751 68.1083 18.6084 66.6417 18.6084 64.9V62.3333C18.6084 60.5917 20.0751 59.125 21.8167 59.125Z" fill="white"/>
<path d="M56.4668 29.7005H26.7668C26.2168 29.7005 25.8501 29.3339 25.8501 28.7839C25.8501 28.2339 26.2168 27.8672 26.7668 27.8672H56.4668C57.0168 27.8672 57.3834 28.2339 57.3834 28.7839C57.3834 29.3339 57.0168 29.7005 56.4668 29.7005Z" fill="#302D3D"/>
<path d="M56.4668 36.3001H26.7668C26.2168 36.3001 25.8501 35.9335 25.8501 35.3835C25.8501 34.8335 26.2168 34.4668 26.7668 34.4668H56.4668C57.0168 34.4668 57.3834 34.8335 57.3834 35.3835C57.3834 35.9335 57.0168 36.3001 56.4668 36.3001Z" fill="#302D3D"/>
<path d="M43.7251 42.8997H26.7668C26.2168 42.8997 25.8501 42.5331 25.8501 41.9831C25.8501 41.4331 26.2168 41.0664 26.7668 41.0664H43.7251C44.2751 41.0664 44.6418 41.4331 44.6418 41.9831C44.6418 42.5331 44.1834 42.8997 43.7251 42.8997Z" fill="#302D3D"/>
<path d="M56.4668 49.4993H26.7668C26.2168 49.4993 25.8501 49.1327 25.8501 48.5827C25.8501 48.0327 26.2168 47.666 26.7668 47.666H56.4668C57.0168 47.666 57.3834 48.0327 57.3834 48.5827C57.3834 49.1327 57.0168 49.4993 56.4668 49.4993Z" fill="#302D3D"/>
<path d="M56.4668 62.7005H26.7668C26.2168 62.7005 25.8501 62.3339 25.8501 61.7839C25.8501 61.2339 26.2168 60.8672 26.7668 60.8672H56.4668C57.0168 60.8672 57.3834 61.2339 57.3834 61.7839C57.3834 62.3339 57.0168 62.7005 56.4668 62.7005Z" fill="#302D3D"/>
<path d="M37.4918 69.3001H26.7668C26.2168 69.3001 25.8501 68.9335 25.8501 68.3835C25.8501 67.8335 26.2168 67.4668 26.7668 67.4668H37.4918C38.0418 67.4668 38.4084 67.8335 38.4084 68.3835C38.4084 68.9335 38.0418 69.3001 37.4918 69.3001Z" fill="#302D3D"/>
<path d="M35.5668 56.1009H26.7668C26.2168 56.1009 25.8501 55.7342 25.8501 55.1842C25.8501 54.6342 26.2168 54.2676 26.7668 54.2676H35.5668C36.1168 54.2676 36.4834 54.6342 36.4834 55.1842C36.4834 55.7342 36.0251 56.1009 35.5668 56.1009Z" fill="#302D3D"/>
<path d="M52.3418 1.2832V15.6749H66.7335C66.2751 14.6665 66.8251 15.3999 53.5335 2.1082C53.1668 1.8332 52.8001 1.46654 52.3418 1.2832Z" fill="#B3C4F3"/>
<path d="M84.2419 80.4827L80.3919 84.3327C79.7502 84.9743 78.7419 84.9743 78.1002 84.3327C77.0919 83.3243 81.8585 88.1827 67.6502 73.8827C67.0085 73.241 67.0085 72.2327 67.6502 71.591C68.0169 71.2243 66.2752 72.966 71.5002 67.741C72.1419 67.0993 73.1502 67.0993 73.7919 67.741L84.2419 78.191C84.7919 78.8327 84.7919 79.841 84.2419 80.4827Z" fill="#FE4A55"/>
<path d="M71.6835 67.6494L67.5585 71.7744L62.7002 66.916C64.2585 65.816 65.7252 64.3493 66.8252 62.791L71.6835 67.6494Z" fill="#F0824B"/>
<path d="M52.4334 64.1661C58.8629 64.1661 64.0751 58.954 64.0751 52.5245C64.0751 46.095 58.8629 40.8828 52.4334 40.8828C46.0039 40.8828 40.7917 46.095 40.7917 52.5245C40.7917 58.954 46.0039 64.1661 52.4334 64.1661Z" fill="#E9ECEF"/>
<path d="M52.4334 61.4161C47.4834 61.4161 43.5417 57.3828 43.5417 52.5245C43.5417 47.5745 47.5751 43.6328 52.4334 43.6328C57.3834 43.6328 61.3251 47.6661 61.3251 52.5245C61.3251 57.3828 57.3834 61.4161 52.4334 61.4161Z" fill="white"/>
<path d="M64.9001 40.0586C58.0251 33.1836 46.8418 33.1836 39.9668 40.0586C33.0918 46.9336 33.0918 58.1169 39.9668 64.9919C46.8418 71.8669 58.0251 71.8669 64.9001 64.9919C71.7751 58.1169 71.7751 46.9336 64.9001 40.0586ZM60.6835 60.7753C56.1001 65.3586 48.7668 65.3586 44.1835 60.7753C39.6001 56.1919 39.6001 48.8586 44.1835 44.2753C48.7668 39.6919 56.1001 39.6919 60.6835 44.2753C65.2668 48.8586 65.1751 56.1919 60.6835 60.7753Z" fill="#FFCA6E"/>
<path d="M48.6751 39.5084C48.6751 37.3084 46.2918 35.8417 44.3668 36.8501C40.5168 38.7751 37.5834 42.1667 36.0251 46.1084C35.4751 47.6667 36.2084 49.4084 37.7667 49.9584C39.3251 50.5084 40.9751 49.7751 41.5251 48.3084C42.5334 45.6501 44.4584 43.4501 47.0251 42.1667C48.0334 41.7084 48.6751 40.7001 48.6751 39.5084Z" fill="#FFE391"/>
<path d="M56.1917 65.4496C56.1917 67.6496 58.575 69.1162 60.5 68.1079C64.35 66.0912 67.2833 62.7912 68.8417 58.7579C69.3 57.1996 68.3833 55.5496 66.825 55.0912C65.45 54.7246 63.9833 55.3662 63.3417 56.5579C62.3333 59.2162 60.4083 61.4162 57.8416 62.6996C56.8333 63.3412 56.1917 64.3496 56.1917 65.4496Z" fill="#FFA64D"/>
<path d="M75.3931 81.6133L81.4851 75.5213L82.7812 76.8175L76.6892 82.9094L75.3931 81.6133Z" fill="#E61F34"/>
<path d="M79.6584 73.6076L73.5167 79.7492L72.2334 78.3742L78.3751 72.3242L79.6584 73.6076Z" fill="#E61F34"/>
<path d="M69.1062 75.166L75.2068 69.074L76.503 70.372L70.4024 76.464L69.1062 75.166Z" fill="#E61F34"/>
<path d="M66.7334 16.5922H52.3417C51.7917 16.5922 51.425 16.2255 51.425 15.6755V1.28385C51.425 0.733854 51.7917 0.367188 52.3417 0.367188C52.8917 0.367188 53.8084 1.10052 54.175 1.46719C67.65 14.9422 67.0084 14.2089 67.5584 15.3089C67.8334 15.9505 67.3751 16.5922 66.7334 16.5922ZM53.2584 14.7589H64.9001L53.2584 3.11719V14.7589Z" fill="#302D3D"/>
<path d="M21.7251 31.9013H18.5168C17.3251 31.9013 16.4084 30.9846 16.4084 29.793C16.4084 29.7013 16.4084 30.2513 16.4084 27.7763C16.4084 26.5846 17.3251 25.668 18.5168 25.668H21.7251C22.9168 25.668 23.8334 26.5846 23.8334 27.7763V29.793C23.8334 30.893 22.9168 31.9013 21.7251 31.9013ZM18.5168 27.4096C18.3334 27.4096 18.2418 27.593 18.2418 27.6846V29.7013C18.2418 29.8846 18.3334 29.9763 18.5168 29.9763H21.7251C21.9084 29.9763 22.0001 29.793 22.0001 29.7013V27.6846C22.0001 27.5013 21.8168 27.4096 21.7251 27.4096C21.8168 27.4096 19.1584 27.4096 18.5168 27.4096Z" fill="#302D3D"/>
<path d="M18.5168 45.1005C17.3251 45.1005 16.4084 44.1839 16.4084 42.9922C16.4084 42.9005 16.4084 43.4505 16.4084 40.9755C16.4084 39.7839 17.3251 38.8672 18.5168 38.8672H21.7251C22.9168 38.8672 23.8334 39.7839 23.8334 40.9755V42.9922C23.8334 44.1839 22.9168 45.1005 21.7251 45.1005C19.7084 45.1005 20.5334 45.1005 18.5168 45.1005ZM18.5168 40.7005C18.3334 40.7005 18.2418 40.8839 18.2418 40.9755V42.9922C18.2418 43.1755 18.3334 43.2672 18.5168 43.2672H21.7251C21.9084 43.2672 22.0001 43.0839 22.0001 42.9922V40.9755C22.0001 40.7922 21.8168 40.7005 21.7251 40.7005C21.8168 40.7005 19.1584 40.7005 18.5168 40.7005Z" fill="#302D3D"/>
<path d="M18.5168 58.2997C17.3251 58.2997 16.4084 57.3831 16.4084 56.1914C16.4084 56.0997 16.4084 56.6497 16.4084 54.1747C16.4084 52.9831 17.3251 52.0664 18.5168 52.0664H21.7251C22.9168 52.0664 23.8334 52.9831 23.8334 54.1747V56.1914C23.8334 57.3831 22.9168 58.2997 21.7251 58.2997C19.7084 58.2997 20.5334 58.2997 18.5168 58.2997ZM18.5168 53.8997C18.3334 53.8997 18.2418 54.0831 18.2418 54.1747V56.1914C18.2418 56.3747 18.3334 56.4664 18.5168 56.4664H21.7251C21.9084 56.4664 22.0001 56.2831 22.0001 56.1914V54.1747C22.0001 53.9914 21.8168 53.8997 21.7251 53.8997C21.8168 53.8997 19.1584 53.8997 18.5168 53.8997Z" fill="#302D3D"/>
<path d="M21.7251 71.5927H18.5168C17.3251 71.5927 16.4084 70.676 16.4084 69.4844C16.4084 69.3927 16.4084 69.9427 16.4084 67.4677C16.4084 66.276 17.3251 65.3594 18.5168 65.3594H21.7251C22.9168 65.3594 23.8334 66.276 23.8334 67.4677V69.4844C23.8334 70.5844 22.9168 71.5927 21.7251 71.5927ZM18.5168 67.101C18.3334 67.101 18.2418 67.2844 18.2418 67.376V69.3927C18.2418 69.576 18.3334 69.6677 18.5168 69.6677H21.7251C21.9084 69.6677 22.0001 69.4844 22.0001 69.3927V67.376C22.0001 67.1927 21.8168 67.101 21.7251 67.101H18.5168Z" fill="#302D3D"/>
<path d="M77.4584 84.975L67.0084 74.525C66.0001 73.5167 66.0001 71.9583 67.0084 70.95L70.8585 67.1C71.8668 66.0917 73.4251 66.0917 74.4334 67.1L84.8834 77.55C85.8918 78.5583 85.8918 80.1167 84.8834 81.125L81.0335 84.975C80.0251 85.8917 78.4668 85.8917 77.4584 84.975ZM72.6001 68.2C72.1418 68.2 72.4168 68.1083 68.2918 72.2333C68.0168 72.5083 68.0168 72.9667 68.2918 73.2417C69.3001 74.3417 64.4418 69.3917 78.7418 83.6917C79.0168 83.9667 79.4751 83.9667 79.7501 83.6917L83.6001 79.8417C83.8751 79.5667 83.8751 79.1083 83.6001 78.8333C72.0501 67.2833 72.9668 68.2 72.6001 68.2Z" fill="#302D3D"/>
<path d="M67.4667 72.9673L62.5167 68.0173C53.9 73.609 42.4417 71.134 36.85 62.609C31.2583 54.084 33.7333 42.534 42.2583 36.9423C50.7833 31.3506 62.3333 33.8256 67.925 42.3506C71.9583 48.4923 71.9583 56.4673 67.925 62.609L72.875 67.559C73.2417 67.9256 73.2417 68.4756 72.875 68.8423L68.75 72.9673C68.3833 73.334 67.8333 73.334 67.4667 72.9673ZM63.25 66.184L68.1083 70.9506L70.95 68.109L66.1833 63.2506C65.9083 62.9756 65.8167 62.4256 66.0917 62.059C71.4083 54.5423 69.6667 44.0923 62.15 38.7756C54.6333 33.459 44.1833 35.2006 38.8667 42.7173C33.55 50.234 35.2917 60.684 42.8083 66.0006C48.5833 70.1256 56.375 70.1256 62.2417 66.0006C62.425 65.909 62.975 65.909 63.25 66.184Z" fill="#302D3D"/>
<path d="M43.5418 61.4177C38.5918 56.4677 38.5918 48.5844 43.5418 43.6344C48.4918 38.6844 56.3752 38.6844 61.3252 43.6344C66.2752 48.5844 66.2752 56.4677 61.3252 61.4177C56.4668 66.276 48.4918 66.3677 43.5418 61.4177ZM52.4335 41.801C46.4752 41.801 41.7085 46.5677 41.7085 52.526C41.7085 58.4844 46.4752 63.251 52.4335 63.251C55.2752 63.251 58.0252 62.151 60.0418 60.1344C66.7335 53.351 61.8752 41.801 52.4335 41.801Z" fill="#302D3D"/>
<path d="M76.0834 83.143C75.2584 83.143 74.8917 82.1346 75.4417 81.5846L81.5834 75.443C81.95 75.0763 82.5 75.0763 82.8667 75.443C83.05 75.6263 83.4167 76.268 82.8667 76.7263L76.725 82.868C76.5417 83.0513 76.3584 83.143 76.0834 83.143Z" fill="#302D3D"/>
<path d="M72.8751 80.0252C72.0501 80.0252 71.6834 79.0169 72.2334 78.4669L78.3751 72.3252C78.7418 71.9586 79.3834 72.0502 79.6584 72.4169C79.9334 72.7835 79.9334 73.2419 79.6584 73.6086L73.5168 79.7502C73.3334 79.9335 73.1501 80.0252 72.8751 80.0252Z" fill="#302D3D"/>
<path d="M69.6669 76.8168C68.8419 76.8168 68.4752 75.8085 69.0252 75.2585L75.1669 69.1168C75.5335 68.7501 76.0835 68.7501 76.4502 69.1168C76.8169 69.4835 76.8169 70.0335 76.4502 70.4001C75.8085 71.0418 78.6502 68.2001 70.3085 76.5418C70.2169 76.7251 69.9419 76.8168 69.6669 76.8168Z" fill="#302D3D"/>
<path d="M50.2335 56.6499L47.2085 53.1665C46.8419 52.7999 46.9335 52.2499 47.3002 51.8832C47.6668 51.5165 48.3085 51.6082 48.6752 51.9749L50.9669 54.6332L56.9252 48.3082C57.2919 47.9415 57.8419 47.9415 58.2085 48.3082C58.5752 48.6749 58.5752 49.2249 58.2085 49.5915L51.6085 56.6499C51.2419 57.0165 50.6002 57.0165 50.2335 56.6499Z" fill="#302D3D"/>
</g>
<defs>
<clipPath id="clip0_1_16738">
<rect width="88" height="88" fill="white"/>
</clipPath>
</defs>
</svg>
