<svg width="88" height="88" viewBox="0 0 88 88" fill="none" xmlns="http://www.w3.org/2000/svg">
<path d="M3.29492 10.8008H31.9121V39.3991H3.29492V10.8008Z" fill="#EAF6FF"/>
<path d="M31.9121 10.8008V39.3991H13.1743C14.8209 39.3991 16.1546 38.0653 16.1546 36.4188V10.8008H31.9121Z" fill="#C8EFFE"/>
<path d="M56.0864 10.8008H84.7053V39.3973H56.0864V10.8008Z" fill="#EAF6FF"/>
<path d="M84.7052 10.8008V39.3973H77.1135C78.8151 39.3973 80.1935 38.0189 80.1935 36.3173V10.8008H84.7052Z" fill="#C8EFFE"/>
<path d="M3.29492 5.57227H31.9121V10.8007H3.29492V5.57227Z" fill="#99E6FC"/>
<path d="M31.9121 5.57227V10.8007H16.1546V8.63508C16.1546 6.94383 14.783 5.57227 13.0918 5.57227H31.9121Z" fill="#62DBFB"/>
<path d="M56.0864 5.57227H84.7053V10.8007H56.0864V5.57227Z" fill="#99E6FC"/>
<path d="M84.7052 5.57227V10.8007H80.1935V7.95617C80.1935 6.63961 79.1261 5.57227 77.8096 5.57227H84.7052Z" fill="#62DBFB"/>
<path d="M65.885 1.28906V10.8006L43.6937 11.6303L21.5034 10.8006V1.28906H65.885Z" fill="#5986CB"/>
<path d="M65.8849 1.28906V10.8006H60.2165V4.85031C60.2165 2.88406 58.6232 1.28906 56.657 1.28906H65.8849Z" fill="#4278C3"/>
<path d="M21.5034 10.8008H65.885V50.0983H21.5034V10.8008Z" fill="#EAF6FF"/>
<path d="M55.1122 31.9938V34.47C55.1122 35.8705 53.9758 37.0069 52.5754 37.0069H35.4219C34.0214 37.0069 32.885 35.8705 32.885 34.47V31.9938C32.885 30.5915 34.0214 29.4551 35.4219 29.4551H52.5754C53.9758 29.4551 55.1122 30.5915 55.1122 31.9938Z" fill="#FFD064"/>
<path d="M55.1119 31.9937V34.4704C55.1119 35.8695 53.9758 37.0073 52.575 37.0073H48.1355C49.5363 37.0073 50.6741 35.8695 50.6741 34.4704V31.9937C50.6741 30.5912 49.5363 29.4551 48.1355 29.4551H52.575C53.9758 29.4551 55.1119 30.5912 55.1119 31.9937Z" fill="#FFC250"/>
<path d="M65.885 10.8008V50.0983H56.3081C58.4669 50.0983 60.2165 48.3469 60.2165 46.1881V10.8008H65.885Z" fill="#C8EFFE"/>
<path d="M62.21 53.1169L60.6196 46.9903C60.2363 45.5159 58.9074 44.4879 57.3844 44.4879H57.3316C56.546 44.4879 55.8234 44.7581 55.2537 45.2119C54.7033 45.6479 54.2949 46.2552 54.1055 46.9523C54.104 46.9576 54.1016 46.9621 54.1 46.9674C54.0964 46.9808 54.094 46.9946 54.0906 47.0081C54.0808 47.047 54.0718 47.086 54.0634 47.1254C54.0576 47.1529 54.0516 47.1802 54.0464 47.2079C54.0387 47.2488 54.0321 47.29 54.0261 47.3314C54.0222 47.3581 54.0177 47.3847 54.0144 47.4115C54.0088 47.4571 54.0046 47.5031 54.0009 47.5494C53.999 47.5726 53.9962 47.5953 53.9949 47.6186C53.9906 47.6872 53.9881 47.7561 53.988 47.8258V47.8285V46.5587C53.988 45.9365 53.8149 45.3564 53.5189 44.8578C53.3807 44.6251 53.2173 44.4094 53.0287 44.2176C53.0219 44.2107 53.016 44.203 53.0091 44.1961C52.4045 43.5916 51.5693 43.218 50.6471 43.218H50.1199C48.274 43.218 46.7792 44.7128 46.779 46.5585V44.6057C46.779 43.518 46.257 42.5547 45.4527 41.9442C44.8918 41.5188 44.1949 41.2632 43.4367 41.2632H42.9125H42.9123H42.911C41.1257 41.2632 39.6729 42.6642 39.5792 44.4261C39.5759 44.4859 39.5701 44.545 39.5701 44.6055V46.0224C39.5701 46.0221 39.5701 46.0219 39.5701 46.0216C39.5701 45.9379 39.5659 45.855 39.5598 45.7727V29.457C39.5598 27.6136 38.0653 26.1191 36.2219 26.1191C34.3784 26.1191 32.884 27.6136 32.884 29.4571V46.1065V53.5193C32.884 52.7986 32.6536 52.1333 32.2657 51.5879C31.6609 50.7377 30.6699 50.1815 29.5461 50.1815C27.8501 50.1815 26.4227 51.4518 26.2288 53.1362L24.5341 67.8109C24.4918 68.1763 24.4726 68.5415 24.4757 68.9043C24.4892 70.5373 24.9538 72.1256 25.8027 73.4979C25.8971 73.6503 25.9961 73.8002 26.0999 73.947C26.292 74.2192 26.5021 74.4803 26.7257 74.7312C26.9847 75.0219 27.2628 75.2983 27.5622 75.5557L32.1439 79.5002L32.884 80.1374V86.7118H58.4653V80.1374L62.069 67.3026C63.3699 62.6696 63.4184 57.7749 62.21 53.1169Z" fill="#FFCEBF"/>
<path d="M62.0692 67.301L58.465 80.1366V86.7109H52.9375C53.7347 86.3443 54.2455 85.5471 54.2455 84.6697V80.1366L57.8497 67.301C59.1508 62.669 59.1989 57.774 57.9906 53.1162L56.3991 46.9888C56.2117 46.2687 55.7992 45.6551 55.2475 45.2168C55.2492 45.2151 55.2527 45.2134 55.2544 45.2116C55.8233 44.7579 56.5452 44.4863 57.3323 44.4863H57.3839C58.9067 44.4863 60.237 45.5141 60.6203 46.9888L62.2102 53.1162C63.4184 57.774 63.3703 62.669 62.0692 67.301Z" fill="#FFB09E"/>
<path d="M32.8841 53.5489V62.141C32.8841 63.1483 31.6263 63.6174 30.9747 62.8489C30.2224 61.9615 29.5344 60.6582 29.5344 58.8585V53.7834C29.5344 52.4823 28.7165 51.3221 27.4917 50.8861C28.0804 50.4251 28.8265 50.1613 29.6291 50.1807C31.4551 50.2249 32.8841 51.7224 32.8841 53.5489Z" fill="#FFB09E"/>
<path d="M28.2053 15.8535H38.3839V21.7409H28.2053V15.8535Z" fill="#5986CB"/>
<path d="M84.7058 4.28347H67.1733V1.28906C67.1733 0.577156 66.5963 0 65.8843 0H21.5025C20.7904 0 20.2135 0.577156 20.2135 1.28906V4.28347H3.29478C2.59181 4.28347 2.00537 4.87128 2.00537 5.5727L2.00571 39.398C2.00571 40.11 2.5827 40.6871 3.29478 40.6871H20.2136V50.0986C20.2136 50.8105 20.7906 51.3877 21.5027 51.3877H25.4367C25.1843 51.8746 25.0145 52.4135 24.9484 52.9873L23.2536 67.6624C23.206 68.0773 23.1835 68.4984 23.1867 68.9035C23.1867 72.2122 24.8696 74.9375 27.3037 77.0332C28.7342 78.2647 30.1647 79.4963 31.5952 80.7278V86.7109C31.5952 87.4228 32.1722 88 32.8843 88H36.8504C37.5625 88 38.1395 87.4228 38.1395 86.7109C38.1395 85.999 37.5625 85.4219 36.8504 85.4219H34.1733V80.1365C34.1733 79.7612 34.0097 79.4045 33.7254 79.1596C32.3143 77.9448 30.9032 76.7298 29.4921 75.515C27.424 73.7345 25.8181 71.7862 25.7649 68.8832C25.7626 68.5759 25.7796 68.2645 25.8149 67.9578L27.5097 53.2826C27.6285 52.2491 28.5042 51.4697 29.5465 51.4697C30.23 51.4697 30.8011 51.8449 31.0827 52.1661C31.5454 52.6945 31.5954 53.2876 31.5954 53.5181V64.3854C31.5954 65.0973 32.1724 65.6745 32.8844 65.6745C33.5965 65.6745 34.1735 65.0973 34.1735 64.3854V29.4561C34.1735 28.3264 35.0927 27.4074 36.2222 27.4074C37.3485 27.4074 38.265 28.321 38.2706 29.446C38.2706 29.4492 38.2701 29.4523 38.2701 29.4556C38.2701 29.4623 38.271 29.4688 38.2712 29.4755V45.7719C38.2712 47.7409 40.8625 47.7359 40.8596 45.7878C40.8593 45.5079 40.8581 44.6841 40.8644 44.4702C41.0944 41.8479 45.4903 41.9103 45.4903 44.6047V46.5575C45.4903 48.22 48.0684 48.22 48.0684 46.5575C48.0686 45.4262 48.9888 44.5058 50.1202 44.5058C51.4016 44.5058 52.6994 45.0612 52.6994 46.5577V47.8277C52.6994 49.4734 55.2481 49.501 55.2773 47.8503C55.282 47.5815 55.2961 47.5215 55.343 47.3234C55.86 45.3059 58.8482 45.2963 59.3723 47.3134L60.9628 53.4397C62.1126 57.8722 62.0664 62.5451 60.8286 66.9534L57.2247 79.7882C57.1927 79.9016 57.1767 80.0188 57.1767 80.1365V85.4219H43.022C42.3099 85.4219 41.7329 85.999 41.7329 86.7109C41.7329 87.4228 42.3099 88 43.022 88H58.4658C59.1779 88 59.7549 87.4228 59.7549 86.7109V80.3141L63.3106 67.6502C64.6715 62.8035 64.7227 57.6656 63.4582 52.7919L63.0937 51.3875H65.8848C66.5969 51.3875 67.1738 50.8104 67.1738 50.0985V12.0897H83.4172V38.109H71.9451C71.233 38.109 70.656 38.6861 70.656 39.398C70.656 40.11 71.233 40.6871 71.9451 40.6871H84.7063C85.4184 40.6871 85.9954 40.11 85.9954 39.398V5.5727C85.9948 4.8608 85.4179 4.28347 84.7058 4.28347ZM4.58384 6.86177H20.2136V9.51156H4.58384V6.86177ZM22.7924 2.57864H64.5947V9.51156H22.7924V2.57864ZM4.58384 38.109V12.0897H20.2136V38.109H4.58384ZM62.4239 48.8096L61.8672 46.6651C61.0532 43.533 57.1791 42.1761 54.5766 44.1059C53.1662 41.855 49.8585 41.2362 47.6392 42.6497C46.4892 40.1766 43.2409 39.2604 40.8489 40.4633V30.7445H52.5753C53.2635 30.7445 53.8233 31.3051 53.8233 31.9942V34.4704C53.8233 35.1584 53.2635 35.7182 52.5753 35.7182H45.5197C44.8076 35.7182 44.2306 36.2954 44.2306 37.0073C44.2306 37.7192 44.8076 38.2963 45.5197 38.2963H52.5753C54.6849 38.2963 56.4014 36.58 56.4014 34.4704V31.9942C56.4014 29.8836 54.6851 28.1664 52.5753 28.1664H40.6647C40.1047 26.2408 38.3257 24.8291 36.2219 24.8291C33.6706 24.8291 31.595 26.9048 31.595 29.4559V48.8094H22.7916V12.0897H64.5952V48.8096H62.4239ZM67.1733 9.51156V6.86177H83.4167V9.51156H67.1733Z" fill="black"/>
<path d="M51.1675 4.81836H36.2197C35.5076 4.81836 34.9307 5.39552 34.9307 6.10742C34.9307 6.81933 35.5076 7.39648 36.2197 7.39648H51.1675C51.8796 7.39648 52.4566 6.81933 52.4566 6.10742C52.4566 5.39552 51.8796 4.81836 51.1675 4.81836Z" fill="black"/>
<path d="M38.3838 14.5645H28.2053C27.4932 14.5645 26.9163 15.1416 26.9163 15.8535V21.7409C26.9163 22.4528 27.4932 23.03 28.2053 23.03H38.3838C39.0958 23.03 39.6728 22.4528 39.6728 21.7409V15.8535C39.6728 15.1416 39.0958 14.5645 38.3838 14.5645ZM37.0947 20.4519H29.4944V17.1426H37.0947V20.4519Z" fill="black"/>
<path d="M71.0459 21.4375H78.7034C79.4155 21.4375 79.9925 20.8603 79.9925 20.1484C79.9925 19.4365 79.4155 18.8594 78.7034 18.8594H71.0459C70.3338 18.8594 69.7568 19.4365 69.7568 20.1484C69.7568 20.8603 70.334 21.4375 71.0459 21.4375Z" fill="black"/>
<path d="M78.7034 26.9824C79.4155 26.9824 79.9925 26.4053 79.9925 25.6934C79.9925 24.9815 79.4155 24.4043 78.7034 24.4043H71.0459C70.3338 24.4043 69.7568 24.9815 69.7568 25.6934C69.7568 26.4053 70.3338 26.9824 71.0459 26.9824H78.7034Z" fill="black"/>
<path d="M8.49731 21.4375H16.1547C16.8668 21.4375 17.4438 20.8603 17.4438 20.1484C17.4438 19.4365 16.8668 18.8594 16.1547 18.8594H8.49731C7.78524 18.8594 7.20825 19.4365 7.20825 20.1484C7.20825 20.8603 7.78541 21.4375 8.49731 21.4375Z" fill="black"/>
<path d="M16.1547 24.4043H8.49731C7.78524 24.4043 7.20825 24.9815 7.20825 25.6934C7.20825 26.4053 7.78524 26.9824 8.49731 26.9824H16.1547C16.8668 26.9824 17.4438 26.4053 17.4438 25.6934C17.4438 24.9815 16.8668 24.4043 16.1547 24.4043Z" fill="black"/>
<path d="M58.4649 17.5078H44.7898C44.0777 17.5078 43.5007 18.085 43.5007 18.7969C43.5007 19.5088 44.0777 20.0859 44.7898 20.0859H58.4649C59.1769 20.0859 59.7539 19.5088 59.7539 18.7969C59.7539 18.085 59.1769 17.5078 58.4649 17.5078Z" fill="black"/>
</svg>
