<svg width="91" height="91" viewBox="0 0 91 91" fill="none" xmlns="http://www.w3.org/2000/svg">
<g clip-path="url(#clip0_1_16687)">
<mask id="mask0_1_16687" style="mask-type:luminance" maskUnits="userSpaceOnUse" x="0" y="0" width="91" height="91">
<path d="M91 7.62939e-06L1.55849e-05 -3.26077e-07L7.62939e-06 91L91 91L91 7.62939e-06Z" fill="white"/>
</mask>
<g mask="url(#mask0_1_16687)">
<path d="M77.2708 5.14649L77.2708 79.1764C77.2708 81.2827 75.5633 82.9902 73.4569 82.9902L17.5433 82.9902C15.4371 82.9902 13.7295 81.2827 13.7295 79.1764L13.7295 5.14649C13.7295 3.04016 15.4372 1.33266 17.5433 1.33266L73.4569 1.33266C75.5633 1.33266 77.2708 3.04016 77.2708 5.14649Z" fill="#EBEEF2"/>
<path d="M17.5432 1.33266L22.4309 1.33266C20.3246 1.33266 18.6171 3.04016 18.6171 5.14649L18.6171 79.1764C18.6171 81.2827 20.3246 82.9902 22.4309 82.9902L17.5432 82.9902C15.4369 82.9902 13.7294 81.2827 13.7294 79.1764L13.7294 5.14649C13.7294 3.04016 15.4369 1.33266 17.5432 1.33266Z" fill="#C9CDD3"/>
<path d="M58.1414 22.625L32.8586 22.625" stroke="black" stroke-width="2" stroke-miterlimit="10" stroke-linecap="round" stroke-linejoin="round"/>
<path d="M65.4065 35.5626L65.4065 39.0305C65.4065 39.9316 64.676 40.6621 63.7749 40.6621L27.2252 40.6621C26.3241 40.6621 25.5936 39.9316 25.5936 39.0305L25.5936 35.5626C25.5936 34.6614 26.3241 33.9309 27.2252 33.9309L63.7749 33.931C64.676 33.931 65.4065 34.6614 65.4065 35.5626Z" fill="#7CCCF2"/>
<path d="M65.4065 50.6506L65.4065 54.1186C65.4065 55.0197 64.676 55.75 63.7749 55.75L27.2252 55.75C26.3241 55.75 25.5936 55.0197 25.5936 54.1186L25.5936 50.6506C25.5936 49.7495 26.3241 49.019 27.2252 49.019L63.7749 49.019C64.676 49.019 65.4065 49.7495 65.4065 50.6506Z" fill="#7CCCF2"/>
<path d="M65.4065 35.5626L65.4065 39.0305C65.4065 39.9316 64.676 40.6621 63.7749 40.6621L27.2252 40.6621C26.3241 40.6621 25.5936 39.9316 25.5936 39.0305L25.5936 35.5626C25.5936 34.6614 26.3241 33.9309 27.2252 33.9309L63.7749 33.931C64.676 33.931 65.4065 34.6614 65.4065 35.5626Z" stroke="black" stroke-width="2" stroke-miterlimit="10" stroke-linecap="round" stroke-linejoin="round"/>
<path d="M65.4065 50.6506L65.4065 54.1186C65.4065 55.0197 64.676 55.75 63.7749 55.75L27.2252 55.75C26.3241 55.75 25.5936 55.0197 25.5936 54.1186L25.5936 50.6506C25.5936 49.7495 26.3241 49.019 27.2252 49.019L63.7749 49.019C64.676 49.019 65.4065 49.7495 65.4065 50.6506Z" stroke="black" stroke-width="2" stroke-miterlimit="10" stroke-linecap="round" stroke-linejoin="round"/>
<path d="M42.3995 65.0661L48.6006 65.0661C50.3892 65.0661 51.8391 66.5161 51.8391 68.3048L51.8391 68.4859C51.8391 70.2747 50.3892 71.7246 48.6006 71.7246L42.3995 71.7246C40.6109 71.7246 39.1608 70.2747 39.1608 68.4859L39.1608 68.3048C39.1608 66.5161 40.6109 65.0661 42.3995 65.0661Z" fill="#BCD151"/>
<path d="M42.3995 65.0661L48.6006 65.0661C50.3892 65.0661 51.8391 66.5161 51.8391 68.3048L51.8391 68.4859C51.8391 70.2747 50.3892 71.7246 48.6006 71.7246L42.3995 71.7246C40.6109 71.7246 39.1608 70.2747 39.1608 68.4859L39.1608 68.3048C39.1608 66.5161 40.6109 65.0661 42.3995 65.0661Z" stroke="black" stroke-width="2" stroke-miterlimit="10" stroke-linecap="round" stroke-linejoin="round"/>
<path d="M17.5432 1.33224L73.4569 1.33224C75.563 1.33224 77.2705 3.03974 77.2705 5.14607L77.2705 14.8066L13.7294 14.8066L13.7294 5.14606C13.7294 3.03973 15.4369 1.33224 17.5432 1.33224Z" fill="#52668D"/>
<path d="M17.5432 1.33224L22.4309 1.33224C20.3246 1.33224 18.6171 3.03974 18.6171 5.14607L18.6171 14.8066L13.7294 14.8066L13.7294 5.14607C13.7294 3.03974 15.4369 1.33224 17.5432 1.33224Z" fill="#243B5D"/>
<path d="M17.5432 1.33224L73.4569 1.33224C75.563 1.33224 77.2705 3.03974 77.2705 5.14607L77.2705 14.8066L13.7294 14.8066L13.7294 5.14606C13.7294 3.03973 15.4369 1.33224 17.5432 1.33224Z" stroke="black" stroke-width="2" stroke-miterlimit="10" stroke-linecap="round" stroke-linejoin="round"/>
<path d="M77.2708 25.2905L77.2708 79.1764C77.2708 81.2827 75.5633 82.9902 73.4569 82.9902L39.161 82.9902" stroke="black" stroke-width="2" stroke-miterlimit="10" stroke-linecap="round" stroke-linejoin="round"/>
<path d="M16.0589 82.6894C14.69 82.1104 13.7295 80.755 13.7295 79.1753L13.7295 5.14537C13.7295 3.03904 15.437 1.33154 17.5433 1.33154L73.4569 1.33155C75.5631 1.33155 77.2708 3.03905 77.2708 5.14538L77.2708 19.9576" stroke="black" stroke-width="2" stroke-miterlimit="10" stroke-linecap="round" stroke-linejoin="round"/>
<path d="M68.8101 5.32424C70.3261 5.32424 71.5552 6.55327 71.5552 8.06935C71.5552 9.58542 70.3261 10.8145 68.8101 10.8145C67.294 10.8145 66.065 9.58542 66.065 8.06935C66.065 6.55327 67.294 5.32424 68.8101 5.32424Z" fill="#EC6B59"/>
<path d="M68.8101 5.32424C70.3261 5.32424 71.5552 6.55327 71.5552 8.06935C71.5552 9.58542 70.3261 10.8145 68.8101 10.8145C67.294 10.8145 66.065 9.58542 66.065 8.06935C66.065 6.55327 67.294 5.32424 68.8101 5.32424Z" stroke="black" stroke-width="2" stroke-miterlimit="10" stroke-linecap="round" stroke-linejoin="round"/>
<path d="M58.1414 5.32424C59.6574 5.32424 60.8865 6.55327 60.8865 8.06935C60.8865 9.58542 59.6574 10.8145 58.1414 10.8145C56.6253 10.8145 55.3963 9.58542 55.3963 8.06935C55.3963 6.55327 56.6253 5.32424 58.1414 5.32424Z" fill="#F4D34C"/>
<path d="M58.1414 5.32424C59.6574 5.32424 60.8865 6.55327 60.8865 8.06935C60.8865 9.58542 59.6574 10.8145 58.1414 10.8145C56.6253 10.8145 55.3963 9.58542 55.3963 8.06935C55.3963 6.55327 56.6253 5.32424 58.1414 5.32424Z" stroke="black" stroke-width="2" stroke-miterlimit="10" stroke-linecap="round" stroke-linejoin="round"/>
<path d="M47.4729 5.32424C48.989 5.32424 50.218 6.55327 50.218 8.06935C50.218 9.58542 48.989 10.8145 47.4729 10.8145C45.9568 10.8145 44.7278 9.58542 44.7278 8.06935C44.7278 6.55327 45.9568 5.32424 47.4729 5.32424Z" fill="#6FBC89"/>
<path d="M47.4729 5.32424C48.989 5.32424 50.218 6.55327 50.218 8.06935C50.218 9.58542 48.989 10.8145 47.4729 10.8145C45.9568 10.8145 44.7278 9.58542 44.7278 8.06935C44.7278 6.55327 45.9568 5.32424 47.4729 5.32424Z" stroke="black" stroke-width="2" stroke-miterlimit="10" stroke-linecap="round" stroke-linejoin="round"/>
<path d="M18.5102 76.5069L32.3402 68.5221C32.9667 68.1605 33.75 68.6124 33.75 69.336L33.75 85.3056C33.75 86.029 32.9667 86.4813 32.3402 86.1194L28.7775 84.0627C28.2532 83.76 27.583 83.9395 27.2803 84.4639L24.5807 89.1397C24.2901 89.643 23.6463 89.8154 23.1428 89.5248L20.1597 87.8024C19.6562 87.5118 19.4838 86.8681 19.7744 86.3647L22.474 81.6889C22.7767 81.1647 22.597 80.4943 22.0727 80.1917L18.5102 78.1347C17.8837 77.773 17.8837 76.8686 18.5102 76.5069Z" fill="#52668D"/>
<path d="M18.5102 76.5069L32.3402 68.5221C32.9667 68.1605 33.75 68.6124 33.75 69.336L33.75 85.3056C33.75 86.029 32.9667 86.4813 32.3402 86.1194L28.7775 84.0627C28.2532 83.76 27.583 83.9395 27.2803 84.4639L24.5807 89.1397C24.2901 89.643 23.6463 89.8154 23.1428 89.5248L20.1597 87.8024C19.6562 87.5118 19.4838 86.8681 19.7744 86.3647L22.474 81.6889C22.7767 81.1647 22.597 80.4943 22.0727 80.1917L18.5102 78.1347C17.8837 77.773 17.8837 76.8686 18.5102 76.5069Z" stroke="black" stroke-width="2" stroke-miterlimit="10" stroke-linecap="round" stroke-linejoin="round"/>
</g>
</g>
<defs>
<clipPath id="clip0_1_16687">
<rect width="91" height="91" fill="white" transform="matrix(1 0 0 -1 0 91)"/>
</clipPath>
</defs>
</svg>
