<svg width="22" height="22" viewBox="0 0 22 22" fill="none" xmlns="http://www.w3.org/2000/svg">
<path d="M4.71275 10.9859C5.43457 10.9859 6.01973 10.4007 6.01973 9.67887C6.01973 8.95704 5.43457 8.37189 4.71275 8.37189C3.99092 8.37189 3.40576 8.95704 3.40576 9.67887C3.40576 10.4007 3.99092 10.9859 4.71275 10.9859Z" stroke="#37B58F" stroke-width="1.4" stroke-miterlimit="10"/>
<path d="M8.42515 9.67887C8.42515 7.62849 6.76296 5.96631 4.71259 5.96631C2.66785 5.96631 1.01619 7.60437 1.00011 9.64903C0.992441 10.6237 1.38942 11.4869 1.96785 12.1787C2.62072 12.9596 4.71255 14.8902 4.71255 14.8902C4.71255 14.8902 6.72185 13.0255 7.45102 12.1855C8.0382 11.5092 8.42515 10.6451 8.42515 9.67887Z" stroke="#37B58F" stroke-width="1.4" stroke-miterlimit="10"/>
<path d="M4.71275 20.9534C5.6549 20.9534 6.41866 20.1897 6.41866 19.2475C6.41866 18.3054 5.6549 17.5416 4.71275 17.5416C3.7706 17.5416 3.00684 18.3054 3.00684 19.2475C3.00684 20.1897 3.7706 20.9534 4.71275 20.9534Z" stroke="#37B58F" stroke-width="1.4" stroke-miterlimit="10"/>
<path d="M18.0292 4.41182C18.9713 4.41182 19.7351 3.64806 19.7351 2.70591C19.7351 1.76376 18.9713 1 18.0292 1C17.087 1 16.3232 1.76376 16.3232 2.70591C16.3232 3.64806 17.087 4.41182 18.0292 4.41182Z" stroke="#37B58F" stroke-width="1.4" stroke-miterlimit="10"/>
<path d="M6.41846 19.2475H16.8376C19.1209 19.2475 20.9719 17.3965 20.9719 15.1132C20.9719 12.8299 19.1209 10.9789 16.8376 10.9789H14.778C12.4946 10.9789 10.6437 9.12796 10.6437 6.84465V6.84009C10.6437 4.55679 12.4946 2.70581 14.778 2.70581H16.3232" stroke="#37B58F" stroke-width="1.4" stroke-miterlimit="10"/>
</svg>
