<svg width="49" height="41" viewBox="0 0 49 41" fill="none" xmlns="http://www.w3.org/2000/svg">
<path d="M39.3534 0.546876H38.2455C36.1112 0.545716 34.0629 1.38821 32.547 2.89075C31.828 3.61089 30.9113 4.10126 29.9132 4.29966L29.4909 4.38072C25.9394 5.06247 22.2911 5.06647 18.7381 4.3925L18.2342 4.29692C17.2321 4.09963 16.3114 3.60847 15.5895 2.88602C14.074 1.38641 12.0278 0.545789 9.89579 0.546985H8.7879C4.33206 0.546985 0.613796 4.08527 0.545767 8.54059C0.530242 9.61706 0.728706 10.6859 1.12964 11.685C1.53056 12.6842 2.12597 13.5937 2.88129 14.3609C3.63661 15.128 4.5368 15.7375 5.52959 16.1539C6.52238 16.5703 7.588 16.7853 8.66458 16.7865V13.1677C8.06455 13.1671 7.47069 13.0466 6.91786 12.8133C6.36502 12.58 5.86434 12.2387 5.4452 11.8093C5.02605 11.38 4.69689 10.8712 4.47701 10.3129C4.25714 9.75463 4.15099 9.15804 4.16478 8.55817C4.20734 7.37349 4.70993 6.25205 5.56587 5.43191C6.42181 4.61177 7.56369 4.15752 8.7491 4.16559H9.89579C10.9968 4.16707 12.0591 4.57151 12.8823 5.30257C13.7055 6.03364 14.2327 7.04075 14.3642 8.13383L14.3604 18.7936C14.3604 22.7234 16.6995 26.7215 20.0613 28.5692V35.895C20.0613 38.099 21.8479 40.4557 24.0519 40.4557C26.256 40.4557 28.0426 38.099 28.0426 35.895V28.5691C31.4045 26.7215 33.7435 22.7234 33.7435 18.7936L33.742 14.5946H33.7446V8.66671C33.7446 7.47297 34.2188 6.32811 35.0629 5.48399C35.907 4.63987 37.0518 4.16563 38.2456 4.16559H39.3922C40.5776 4.15753 41.7195 4.61179 42.5754 5.43193C43.4313 6.25206 43.9339 7.3735 43.9765 8.55817C43.9903 9.15804 43.8841 9.75462 43.6643 10.3129C43.4444 10.8712 43.1152 11.38 42.6961 11.8093C42.2769 12.2387 41.7763 12.58 41.2234 12.8133C40.6706 13.0466 40.0767 13.1671 39.4767 13.1677V16.7864C40.5533 16.7852 41.6189 16.5702 42.6117 16.1538C43.6045 15.7374 44.5047 15.1279 45.26 14.3608C46.0153 13.5936 46.6107 12.6841 47.0117 11.6849C47.4126 10.6858 47.611 9.61697 47.5955 8.5405C47.5275 4.08516 43.8092 0.546876 39.3534 0.546876Z" fill="#F25159"/>
<path d="M18.1846 11.6598V16.9032C18.1845 18.5197 18.7277 20.0893 19.7268 21.3601L21.8954 24.1181C22.395 24.7535 22.6666 25.5383 22.6666 26.3465V39.0256C22.6622 39.394 22.8018 39.7496 23.0555 40.0167C23.3093 40.2838 23.6572 40.4414 24.0253 40.456C24.2093 40.4594 24.3921 40.4262 24.5631 40.3581C24.7341 40.2901 24.8898 40.1887 25.0212 40.0598C25.1525 39.9309 25.2568 39.7771 25.328 39.6074C25.3993 39.4377 25.4359 39.2556 25.4359 39.0715V26.3464C25.4359 25.5381 25.7075 24.7533 26.2071 24.118L28.3757 21.3599C29.3748 20.0892 29.918 18.5196 29.9179 16.9032V11.6598C29.9179 10.7037 29.5381 9.78669 28.862 9.1106C28.1859 8.43451 27.269 8.05469 26.3128 8.05469H21.7897C21.3163 8.05468 20.8475 8.14793 20.4101 8.3291C19.9727 8.51027 19.5753 8.77582 19.2405 9.11059C18.9057 9.44535 18.6402 9.84278 18.459 10.2802C18.2778 10.7176 18.1846 11.1864 18.1846 11.6598Z" fill="#B41E1F"/>
<path d="M42.4055 18.9954C44.223 17.946 44.9672 15.8325 44.0678 14.2746C43.1683 12.7167 40.9658 12.3045 39.1483 13.3539C37.3308 14.4032 36.5866 16.5168 37.486 18.0747C38.3855 19.6325 40.588 20.0448 42.4055 18.9954Z" fill="#FFDEC7"/>
<path d="M10.6537 18.075C11.5532 16.5171 10.809 14.4036 8.99147 13.3542C7.17397 12.3048 4.97144 12.7171 4.07198 14.2749C3.17252 15.8328 3.91673 17.9464 5.73423 18.9957C7.55172 20.0451 9.75425 19.6329 10.6537 18.075Z" fill="#FFDEC7"/>
<path d="M39.3534 0.00207608H38.2456C35.9674 -0.00212011 33.7806 0.897167 32.1645 2.50279C31.5224 3.14753 30.703 3.58671 29.8106 3.76447L29.3884 3.84552C25.9045 4.51717 22.3249 4.52107 18.8396 3.857L18.3357 3.76148C17.4396 3.58467 16.6166 3.14465 15.9718 2.49767C14.3561 0.895184 12.1714 -0.0021493 9.8958 0.00196723H8.78795C4.01479 0.00196723 0.0730822 3.82849 0.00139373 8.53187C-0.0192983 9.68117 0.190598 10.823 0.618678 11.8898C1.04676 12.9566 1.68434 13.9267 2.49374 14.743C2.70852 14.9607 2.93442 15.1671 3.17054 15.3615C3.01762 16.8997 3.87562 18.5504 5.46351 19.4672C6.1863 19.8902 7.00761 20.1158 7.84508 20.1213C8.11176 20.1216 8.37789 20.0971 8.64004 20.0481C9.15377 19.9639 9.64275 19.7678 10.0724 19.4739C10.5022 19.18 10.8621 18.7954 11.1269 18.3472C11.5591 17.5829 11.6882 16.684 11.4884 15.829C11.8555 14.5914 12.6914 13.5461 13.818 12.9158L13.8159 18.7933C13.8159 22.7834 16.1454 26.883 19.5167 28.8848V35.8948C19.5167 38.2858 21.4262 40.9562 23.9912 40.998C23.9995 40.9983 24.0076 40.9996 24.016 40.9998C24.0279 41 24.0399 41 24.0518 41H24.0525C26.6479 40.9995 28.5871 38.3046 28.5871 35.8948V28.8848C31.9584 26.883 34.2879 22.7833 34.2879 18.7931L34.2864 14.647C34.2881 14.6298 34.289 14.6122 34.289 14.5943V12.898C35.4329 13.5248 36.2826 14.5784 36.653 15.8291C36.4532 16.6841 36.5822 17.5829 37.0144 18.3472C37.6773 19.4953 38.9368 20.1182 40.2981 20.1182C41.1347 20.1136 41.9554 19.8891 42.6778 19.4673C43.6459 18.9226 44.3876 18.05 44.7693 17.0069C44.9587 16.4796 45.0286 15.9168 44.974 15.3592C45.209 15.1655 45.4339 14.9598 45.6478 14.743C46.4572 13.9268 47.0947 12.9566 47.5228 11.8899C47.9509 10.8231 48.1608 9.68128 48.1401 8.53198C48.0683 3.8286 44.1266 0.00207608 39.3534 0.00207608ZM43.7421 16.6449C43.4467 17.4429 42.8763 18.1092 42.1333 18.524C40.5784 19.4217 38.7058 19.0979 37.9577 17.8026C37.2097 16.5073 37.8663 14.7232 39.4208 13.8257C39.9778 13.4983 40.611 13.3229 41.2571 13.3173C41.4568 13.3171 41.656 13.3354 41.8523 13.3719C42.2132 13.4223 42.5579 13.5543 42.8601 13.7579C43.1624 13.9615 43.4142 14.2314 43.5964 14.547C43.7786 14.8626 43.8864 15.2156 43.9117 15.5791C43.9369 15.9427 43.879 16.3072 43.7421 16.6449ZM44.5396 14.0025C44.1359 13.3102 43.5042 12.7796 42.7526 12.5014C42.8673 12.403 42.9783 12.2991 43.0856 12.1899C43.5575 11.71 43.9279 11.1399 44.1745 10.5137C44.4212 9.88743 44.539 9.21788 44.5211 8.54505C44.4568 5.82982 42.1561 3.62085 39.3923 3.62085H38.2457C36.908 3.62234 35.6255 4.15441 34.6795 5.10033C33.7336 6.04625 33.2015 7.32877 33.2 8.66651V14.5418C33.1983 14.5592 33.1974 14.5769 33.1974 14.5946L33.1989 18.7934C33.1989 22.5146 30.9707 26.3381 27.7803 28.0918C27.6949 28.1388 27.6236 28.2078 27.5739 28.2917C27.5242 28.3757 27.498 28.4714 27.498 28.5689V35.8948C27.4813 36.5118 27.3377 37.1187 27.0761 37.6778C26.8146 38.2369 26.4406 38.7361 25.9777 39.1443C25.9786 39.1197 25.9813 39.0954 25.9813 39.0706V26.3457C25.9823 25.6597 26.2128 24.9938 26.636 24.4539L28.8046 21.6957C29.8769 20.3278 30.4608 18.6406 30.4633 16.9026V11.6591C30.4621 10.5589 30.0245 9.50412 29.2465 8.72617C28.4686 7.94822 27.4138 7.51062 26.3137 7.50937H21.7903C20.6901 7.51062 19.6354 7.94822 18.8574 8.72617C18.0795 9.50412 17.6419 10.5589 17.6406 11.6591V16.9026C17.6432 18.6406 18.2271 20.3279 19.2995 21.6958L21.4681 24.454C21.8913 24.9939 22.1218 25.6598 22.1228 26.3458V39.0249C22.1228 39.0659 22.1264 39.106 22.1288 39.1464C21.6652 38.7382 21.2907 38.2388 21.0287 37.6793C20.7667 37.1198 20.6229 36.5124 20.6062 35.8949V28.5689C20.6062 28.4714 20.58 28.3757 20.5303 28.2917C20.4806 28.2078 20.4093 28.1388 20.3239 28.0918C17.1335 26.3381 14.9053 22.5146 14.9053 18.7936L14.909 8.13387C14.909 8.1124 14.9077 8.09095 14.9052 8.06963C14.7593 6.84355 14.1688 5.71353 13.2456 4.89362C12.3224 4.07371 11.1306 3.62083 9.89582 3.62076H8.74913C5.9855 3.62076 3.68476 5.82971 3.62041 8.54496C3.60245 9.21784 3.72034 9.88743 3.96701 10.5137C4.21369 11.14 4.58409 11.7101 5.0561 12.19C5.16301 12.2995 5.27393 12.4033 5.38885 12.5014C4.63725 12.7796 4.00558 13.3102 3.60178 14.0025C3.56393 14.068 3.53386 14.1361 3.50091 14.2032C3.42266 14.13 3.34537 14.0555 3.26972 13.9786C2.56205 13.2651 2.00458 12.4169 1.63025 11.4843C1.25592 10.5516 1.07234 9.55339 1.09034 8.54858C1.15309 4.43657 4.60614 1.09124 8.78795 1.09124H9.89582C11.8852 1.08787 13.7949 1.87246 15.2073 3.27339C16.0057 4.07223 17.0243 4.61476 18.1328 4.8316L18.6366 4.92712C22.2567 5.61677 25.9749 5.61273 29.5935 4.91521L30.0159 4.83415C31.1201 4.61612 32.1343 4.07444 32.9296 3.27809C34.3423 1.87426 36.254 1.08785 38.2456 1.09126H39.3534C43.5351 1.09126 46.9883 4.43659 47.0512 8.5486C47.0692 9.55341 46.8856 10.5516 46.5112 11.4843C46.1369 12.4169 45.5794 13.2651 44.8718 13.9786C44.7962 14.0554 44.719 14.1298 44.6409 14.203C44.6078 14.1358 44.5773 14.0678 44.5396 14.0025ZM23.2119 39.0248V26.3457C23.2105 25.4157 22.8981 24.5128 22.3243 23.7809L20.1555 21.0227C19.2338 19.8469 18.7319 18.3966 18.7296 16.9026V11.6591C18.7306 10.8476 19.0533 10.0697 19.6271 9.49595C20.2008 8.92218 20.9788 8.59944 21.7902 8.59853H26.3134C27.1248 8.59944 27.9027 8.92218 28.4765 9.49595C29.0503 10.0697 29.373 10.8476 29.3739 11.6591V16.9026C29.3717 18.3965 28.8698 19.8469 27.9481 21.0227L25.7796 23.7806C25.2057 24.5126 24.8932 25.4156 24.8919 26.3457V39.0706C24.8922 39.1823 24.8701 39.2929 24.8269 39.3958C24.7837 39.4988 24.7202 39.5921 24.6403 39.67C24.5614 39.7495 24.4671 39.8119 24.3631 39.8533C24.259 39.8946 24.1476 39.9142 24.0357 39.9106C23.8102 39.8991 23.598 39.8002 23.4442 39.6348C23.2904 39.4694 23.2071 39.2506 23.2119 39.0248ZM8.43966 18.9777C7.60096 19.121 6.73868 18.9601 6.00809 18.524C4.45349 17.6265 3.79722 15.8424 4.54506 14.5471C4.73222 14.2357 4.98537 13.969 5.28669 13.766C5.58801 13.563 5.93017 13.4285 6.28909 13.372C6.48538 13.3354 6.68463 13.3171 6.88429 13.3173C7.53037 13.323 8.16362 13.4983 8.72062 13.8257C10.2751 14.7232 10.9314 16.5074 10.1836 17.8026C9.99648 18.1141 9.74333 18.3807 9.44201 18.5837C9.14069 18.7867 8.79857 18.9212 8.43966 18.9777ZM10.8981 14.4283C10.4842 13.7907 9.92447 13.2609 9.26524 12.8825C9.18092 12.8338 9.09437 12.7915 9.0082 12.7481C8.93764 12.6895 8.85327 12.6498 8.76309 12.6329C8.19345 12.3808 7.57945 12.2443 6.95666 12.2312C6.26903 11.9027 5.69105 11.3824 5.29233 10.733C4.8936 10.0836 4.69115 9.33274 4.70935 8.57091C4.75149 7.52942 5.19615 6.54493 5.94968 5.82475C6.70321 5.10457 7.7068 4.70491 8.74913 4.70992H9.89584C10.8585 4.70996 11.7881 5.06107 12.5105 5.69744C13.2328 6.3338 13.6983 7.21175 13.8197 8.16674L13.8184 11.7171C12.5544 12.2461 11.5194 13.207 10.8981 14.4283ZM34.2891 11.7042V8.66643C34.2903 7.61744 34.7075 6.61175 35.4493 5.87002C36.191 5.12828 37.1967 4.71107 38.2457 4.70992H39.3923C40.4346 4.70489 41.4382 5.10454 42.1918 5.82473C42.9453 6.54491 43.3899 7.52941 43.4321 8.57091C43.4503 9.33273 43.2479 10.0836 42.8492 10.733C42.4505 11.3824 41.8725 11.9027 41.1849 12.2312C40.5621 12.2442 39.9481 12.3808 39.3784 12.6329C39.2883 12.6498 39.204 12.6894 39.1334 12.748C39.0472 12.7914 38.9606 12.8338 38.8762 12.8825C38.217 13.2609 37.6573 13.7907 37.2434 14.4283C36.6166 13.1958 35.5683 12.2292 34.2891 11.7042Z" fill="black"/>
</svg>
