<svg width="46" height="44" viewBox="0 0 46 44" fill="none" xmlns="http://www.w3.org/2000/svg">
<path d="M11.9504 8.94485C12.7784 8.0791 13.7268 7.37016 14.7579 6.83327L12.7453 6.06765C12.6051 6.01433 12.4942 5.90391 12.4401 5.76388L11.1098 2.31484C10.9358 1.8638 10.2976 1.8638 10.1236 2.31484L8.79279 5.76525C8.73915 5.90443 8.62904 6.01443 8.48986 6.06818L5.03945 7.39903C4.58841 7.57295 4.58841 8.21125 5.03945 8.38528L8.48849 9.7156C8.62852 9.76956 8.73894 9.88061 8.79226 10.0207L9.71123 12.4363C10.2151 11.1555 10.9697 9.97056 11.9504 8.94485Z" fill="#FFE177"/>
<path d="M31.981 5.5335C29.6776 5.5165 27.5408 6.22281 25.781 7.43673C23.9447 6.17012 21.6979 5.45604 19.2794 5.53991C13.4611 5.74175 8.82153 10.5973 8.87149 16.419C8.89606 19.2819 10.0364 21.8776 11.8781 23.795C13.1905 25.1613 14.1648 26.8159 14.6561 28.6455L17.9066 40.7495C18.3773 42.5024 20.8714 42.4825 21.3143 40.7224L23.5695 31.7587C24.1452 29.4707 27.3957 29.4689 27.9739 31.7563L30.2397 40.7206C30.6846 42.4806 33.1792 42.4972 33.6475 40.7435L36.8711 28.6736C37.3605 26.8415 38.3378 25.1861 39.6565 23.8232C41.504 21.9139 42.653 19.3253 42.6901 16.4672C42.7671 10.5169 37.9314 5.57748 31.981 5.5335Z" fill="#F9F3F1"/>
<path d="M19.3703 31.759L17.4941 39.2161L17.906 40.7498C18.3768 42.5027 20.8709 42.4829 21.3137 40.7227L23.569 31.759C23.5968 31.6486 23.6325 31.5453 23.6722 31.4455C22.8896 29.4764 19.9183 29.5806 19.3703 31.759Z" fill="#EFE2DD"/>
<path d="M31.9803 5.5335C31.2317 5.52794 30.5011 5.60005 29.7949 5.73986C34.7844 6.73409 38.5589 11.205 38.4906 16.4671C38.4536 19.3251 37.3045 21.9137 35.457 23.8231C34.1384 25.1859 33.161 26.8413 32.6717 28.6734L29.8574 39.211L30.2389 40.7205C30.6838 42.4804 33.1784 42.4971 33.6467 40.7434L36.8703 28.6735C37.3596 26.8414 38.337 25.186 39.6556 23.8232C41.5031 21.9139 42.6522 19.3252 42.6892 16.4672C42.7664 10.5169 37.9307 5.57748 31.9803 5.5335Z" fill="#EFE2DD"/>
<path d="M38.441 18.5395L40.0705 22.764C40.1245 22.904 40.2354 23.0144 40.3758 23.0677L44.6595 24.6973C45.1136 24.8701 45.1136 25.5125 44.6595 25.6852L40.3771 27.3143C40.236 27.3679 40.1247 27.4793 40.071 27.6204L38.442 31.9027C38.2692 32.3568 37.6268 32.3568 37.4541 31.9027L35.8245 27.619C35.7711 27.4788 35.6607 27.3678 35.5207 27.3138L31.2963 25.6843C30.8452 25.5103 30.8452 24.8721 31.2963 24.6982L35.5221 23.0682C35.6613 23.0144 35.7713 22.9044 35.825 22.7652L37.455 18.5394C37.6288 18.0884 38.2671 18.0884 38.441 18.5395Z" fill="#FFE177"/>
<path d="M44.6591 24.6991L41.733 23.5859L38.3863 24.8591C38.1062 24.9656 37.8849 25.1868 37.7784 25.4669L36.3916 29.1124L37.4537 31.9044C37.6265 32.3585 38.2689 32.3585 38.4417 31.9044L40.0707 27.6221C40.1244 27.481 40.2357 27.3696 40.3768 27.316L44.6591 25.6869C45.1132 25.5142 45.1132 24.8719 44.6591 24.6991Z" fill="#FFD15B"/>
<path d="M17.4213 5.76953C12.5048 6.8154 8.82796 11.2347 8.87247 16.4209C8.89703 19.2838 10.0374 21.8795 11.8791 23.7969C13.1915 25.1632 14.1657 26.8177 14.6571 28.6474L17.9075 40.7513C18.3783 42.5042 20.8724 42.4844 21.3152 40.7242L23.5705 31.7605C24.1461 29.4725 27.3967 29.4707 27.9748 31.7581L30.2407 40.7225C30.6856 42.4824 33.1802 42.4991 33.6485 40.7453L36.6058 29.6726L35.8248 27.6194C35.7714 27.4791 35.661 27.3682 35.521 27.3142L31.2966 25.6847C30.8455 25.5108 30.8455 24.8725 31.2966 24.6986L35.5223 23.0686C35.6615 23.015 35.7715 22.9049 35.8253 22.7657L37.4553 18.5399C37.6293 18.0889 38.2675 18.0889 38.4414 18.5399L40.0709 22.7643C40.1199 22.8913 40.2171 22.9917 40.3393 23.0494C41.7838 21.2402 42.6589 18.9567 42.6912 16.469C42.7684 10.5189 37.9327 5.57955 31.9823 5.53546C29.6788 5.51835 27.5421 6.22477 25.7823 7.43869C24.4148 6.49547 22.8196 5.85928 21.0955 5.63024" stroke="black" stroke-width="2" stroke-miterlimit="10" stroke-linecap="round" stroke-linejoin="round"/>
<path d="M24.5488 6.70117C26.1003 7.4903 27.4355 8.64355 28.4418 10.0484" stroke="black" stroke-width="2" stroke-miterlimit="10" stroke-linecap="round" stroke-linejoin="round"/>
<path d="M15.3252 15.2676C15.3252 18.6203 18.0381 21.3333 21.3909 21.3333" stroke="black" stroke-width="2" stroke-miterlimit="10" stroke-linecap="round" stroke-linejoin="round"/>
<path d="M4.43555 22.2188V27.7931" stroke="black" stroke-width="2" stroke-miterlimit="10" stroke-linecap="round" stroke-linejoin="round"/>
<path d="M7.22281 25.0078H1.64844" stroke="black" stroke-width="2" stroke-miterlimit="10" stroke-linecap="round" stroke-linejoin="round"/>
<path d="M35.2695 10.9375V15.9251" stroke="black" stroke-width="2" stroke-miterlimit="10" stroke-linecap="round" stroke-linejoin="round"/>
<path d="M37.763 13.4336H32.7754" stroke="black" stroke-width="2" stroke-miterlimit="10" stroke-linecap="round" stroke-linejoin="round"/>
<path d="M38.441 18.5395L40.0705 22.764C40.1245 22.904 40.2354 23.0144 40.3758 23.0677L44.6595 24.6973C45.1136 24.8701 45.1136 25.5125 44.6595 25.6852L40.3771 27.3143C40.236 27.3679 40.1247 27.4793 40.071 27.6204L38.442 31.9027C38.2692 32.3568 37.6268 32.3568 37.4541 31.9027L35.8245 27.619C35.7711 27.4788 35.6607 27.3678 35.5207 27.3138L31.2963 25.6843C30.8452 25.5103 30.8452 24.8721 31.2963 24.6982L35.5221 23.0681C35.6613 23.0144 35.7713 22.9044 35.825 22.7652L37.455 18.5394C37.6288 18.0884 38.2671 18.0884 38.441 18.5395Z" stroke="black" stroke-width="2" stroke-miterlimit="10" stroke-linecap="round" stroke-linejoin="round"/>
<path d="M14.6314 6.78477L12.7463 6.06765C12.6061 6.01433 12.4951 5.90391 12.4411 5.76388L11.1108 2.31484C10.9367 1.8638 10.2985 1.8638 10.1246 2.31484L8.79376 5.76525C8.74013 5.90443 8.63002 6.01444 8.49083 6.06818L5.04042 7.39903C4.58939 7.57296 4.58939 8.21125 5.04042 8.38528L8.48947 9.71561C8.62949 9.76956 8.73992 9.88061 8.79324 10.0207L9.65815 12.2945" stroke="black" stroke-width="2" stroke-miterlimit="10" stroke-linecap="round" stroke-linejoin="round"/>
</svg>
