<svg width="48" height="48" viewBox="0 0 48 48" fill="none" xmlns="http://www.w3.org/2000/svg">
<path fill-rule="evenodd" clip-rule="evenodd" d="M34.1166 27.2969H13.8701V37.4214C13.8701 42.9896 18.4237 47.5433 23.992 47.5433C29.5603 47.5433 34.1166 42.9897 34.1166 37.4214V27.2969Z" fill="#D9B1EE"/>
<path fill-rule="evenodd" clip-rule="evenodd" d="M15.4807 27.2969H13.8701V37.4214C13.8701 42.9896 18.4237 47.5433 23.992 47.5433C25.449 47.5433 26.8344 47.2334 28.09 46.6718C27.2927 46.8758 26.4608 46.9844 25.6053 46.9844C20.037 46.9844 15.4807 42.428 15.4807 36.8598V27.2969Z" fill="#CB97E7"/>
<path fill-rule="evenodd" clip-rule="evenodd" d="M8.65425 21.2238C11.0437 21.2238 12.996 19.2741 12.996 16.8821C12.996 14.4927 11.0437 12.543 8.65425 12.543C6.26212 12.543 4.3125 14.4927 4.3125 16.8821C4.3125 19.2741 6.26212 21.2238 8.65425 21.2238Z" fill="#FFB09E"/>
<path fill-rule="evenodd" clip-rule="evenodd" d="M39.333 21.2238C41.7224 21.2238 43.6747 19.2741 43.6747 16.8821C43.6747 14.4927 41.7224 12.543 39.333 12.543C36.9409 12.543 34.9912 14.4927 34.9912 16.8821C34.9912 19.2741 36.9408 21.2238 39.333 21.2238Z" fill="#FFB09E"/>
<path fill-rule="evenodd" clip-rule="evenodd" d="M34.1161 27.2969H32.9902L21.0008 35.9009C20.3598 36.3591 20.0127 37.0373 20.0127 37.8241C20.0127 38.6108 20.3598 39.289 21.0008 39.7499L29.5413 45.8771C32.2909 44.0625 34.1161 40.9446 34.1161 37.4214V27.2969Z" fill="#B87AD9"/>
<path fill-rule="evenodd" clip-rule="evenodd" d="M23.9926 32.5451C32.6787 32.5451 39.7621 25.4617 39.7621 16.7755C39.7621 8.08942 32.6787 1.00586 23.9926 1.00586C15.3091 1.00586 8.22559 8.08933 8.22559 16.7755C8.22559 25.4616 15.3091 32.5451 23.9926 32.5451Z" fill="#FFCEBF"/>
<path fill-rule="evenodd" clip-rule="evenodd" d="M36.8632 31.4199L43.6871 34.2199V40.4133C42.699 44.1723 40.2142 46.3233 36.8632 47.5445C33.5149 46.3233 31.0301 44.1723 30.042 40.4133V34.2199L36.8632 31.4199Z" fill="#99E6FC"/>
<path fill-rule="evenodd" clip-rule="evenodd" d="M35.6081 35.6152H38.122V38.2246H40.7312V40.7385H38.122V43.3505H35.6081V40.7385H32.9961V38.2246H35.6081V35.6152Z" fill="#01D0FB"/>
<path fill-rule="evenodd" clip-rule="evenodd" d="M14.5753 27.2965C12.766 25.4898 11.3726 23.27 10.5461 20.7905C9.99512 19.1375 9.69577 17.368 9.69577 15.5296C9.69577 14.5759 9.77527 13.6408 9.93155 12.7322C10.4084 9.90569 11.6004 7.32288 13.3143 5.17188C11.1845 7.13481 9.59509 9.67253 8.79774 12.5415C8.42424 13.8899 8.22559 15.3097 8.22559 16.7746C8.22559 18.3163 8.44543 19.8077 8.85868 21.217C9.74612 24.2421 11.5156 26.8912 13.8706 28.8647C16.6097 31.1614 20.1382 32.5443 23.9926 32.5443C24.6124 32.5443 25.2243 32.5071 25.8256 32.4383C26.4641 32.3642 27.0892 32.2529 27.7038 32.1046C27.2482 32.1416 26.79 32.1602 26.329 32.1602C26.2892 32.1602 26.2522 32.1602 26.2125 32.1602C21.6694 32.1283 17.5581 30.2766 14.5753 27.2965Z" fill="#FFC6B5"/>
<path fill-rule="evenodd" clip-rule="evenodd" d="M31.0248 40.1423V33.8164L30.042 34.2191V40.4125C30.4075 41.7979 30.9744 42.9661 31.7136 43.9489C32.9797 45.6311 34.7494 46.7728 36.8632 47.5437C37.0487 47.4775 37.2315 47.4059 37.4116 47.3344C35.2686 46.4232 33.5122 45.0959 32.3096 43.1755C31.7586 42.296 31.3241 41.2893 31.0248 40.1423Z" fill="#62DBFB"/>
<path d="M24.0216 37.4471C24.0216 38.0763 23.5097 38.5884 22.8804 38.5884C22.2527 38.5884 21.7418 38.0763 21.7418 37.4471C21.7418 36.8178 22.2526 36.3058 22.8804 36.3058C23.5097 36.3058 24.0216 36.8178 24.0216 37.4471ZM25.6179 18.61C25.2746 19.0253 24.714 19.5203 23.9923 19.5203C23.2729 19.5203 22.7127 19.0253 22.3695 18.61C22.1377 18.3295 21.7226 18.2902 21.4422 18.522C21.1618 18.7537 21.1224 19.1688 21.3542 19.4493C22.1049 20.3575 23.0172 20.8376 23.9923 20.8376C24.9553 20.8376 25.8932 20.3445 26.6331 19.4493C26.8649 19.1688 26.8255 18.7537 26.5451 18.522C26.2649 18.2903 25.8497 18.3297 25.6179 18.61ZM16.6114 13.8993C15.4822 13.8993 14.5636 14.818 14.5636 15.9471C14.5636 16.3109 14.8584 16.6058 15.2222 16.6058C15.5859 16.6058 15.8808 16.311 15.8808 15.9471C15.8808 15.5442 16.2085 15.2165 16.6114 15.2165C17.0142 15.2165 17.3419 15.5442 17.3419 15.9471C17.3419 16.3109 17.6368 16.6058 18.0005 16.6058C18.3643 16.6058 18.6591 16.311 18.6591 15.9471C18.6593 14.818 17.7407 13.8993 16.6114 13.8993ZM30.6453 15.9471C30.6453 15.5442 30.973 15.2165 31.3759 15.2165C31.7787 15.2165 32.1064 15.5442 32.1064 15.9471C32.1064 16.3109 32.4013 16.6058 32.765 16.6058C33.1288 16.6058 33.4236 16.311 33.4236 15.9471C33.4236 14.8179 32.505 13.8993 31.3758 13.8993C30.2465 13.8993 29.3279 14.818 29.3279 15.9471C29.3279 16.3109 29.6227 16.6058 29.9865 16.6058C30.3503 16.6058 30.6453 16.311 30.6453 15.9471ZM44.4763 33.8793V40.1135C44.4763 40.1701 44.4691 40.2263 44.4546 40.281C43.4816 43.9828 41.1003 46.4793 37.1748 47.913C37.1018 47.9397 37.0253 47.953 36.9488 47.953C36.8722 47.953 36.7957 47.9396 36.7227 47.913C34.6271 47.1469 32.9721 46.0777 31.7363 44.684C29.6965 46.7701 26.9164 47.953 23.9923 47.953C18.0096 47.953 13.1424 43.0856 13.1424 37.1029V28.7822C10.9181 26.8424 9.21673 24.318 8.27866 21.451C5.63295 21.3078 3.52441 19.1105 3.52441 16.4298C3.52441 13.776 5.59095 11.5971 8.19916 11.4146C8.75295 9.62707 9.61366 7.93947 10.7628 6.40779C12.8503 3.62538 15.8218 1.53288 19.1299 0.51588C21.6254 -0.249588 24.1889 0.0872556 25.9875 1.41691C27.5484 2.57079 28.4081 4.3855 28.4081 6.52647C28.4081 9.90625 25.5001 12.0214 22.6886 12.1138C20.1716 12.1946 18.3766 10.6875 18.2235 8.35882C18.16 7.39066 18.5028 6.45429 19.1885 5.7221C19.9271 4.93366 20.9724 4.48132 22.0565 4.48132C23.1871 4.48132 24.2557 4.97847 24.9887 5.84529C25.2235 6.12307 25.1887 6.53857 24.9109 6.7735C24.6333 7.00826 24.2177 6.97347 23.9827 6.69579C23.5007 6.1256 22.7986 5.79869 22.0565 5.79869C21.3353 5.79869 20.6404 6.09897 20.1499 6.62266C19.716 7.08597 19.4986 7.672 19.5379 8.27266C19.665 10.2051 21.226 10.8436 22.6453 10.7973C24.8305 10.7255 27.0909 9.10844 27.0909 6.52657C27.0909 4.78919 26.4386 3.38866 25.2045 2.47619C23.7404 1.39385 21.6141 1.13182 19.5166 1.77522C13.0948 3.74941 8.78004 9.59472 8.78004 16.3205C8.78004 24.7101 15.6043 31.5354 23.9924 31.5354C32.382 31.5354 39.2074 24.71 39.2074 16.3205C39.2074 8.96322 33.9622 2.66866 26.7356 1.35354C26.3777 1.28838 26.1404 0.945443 26.2055 0.587599C26.2706 0.229849 26.6137 -0.00724445 26.9714 0.0575368C33.1531 1.18254 37.9998 5.66022 39.7833 11.4143C42.3937 11.5945 44.463 13.7744 44.463 16.4298C44.463 19.1107 42.3544 21.308 39.7085 21.4511C38.7701 24.3188 37.0678 26.8438 34.8423 28.7838V31.2136L36.6987 30.4515C36.8589 30.3857 37.0386 30.3857 37.1988 30.4515L44.0676 33.27C44.3149 33.3714 44.4763 33.6121 44.4763 33.8793ZM40.1448 12.7871C40.3933 13.9288 40.5245 15.1113 40.5245 16.3204C40.5245 17.6139 40.3748 18.8731 40.0925 20.0818C41.826 19.77 43.1457 18.2516 43.1457 16.4298C43.1457 14.6262 41.8525 13.1197 40.1448 12.7871ZM7.89466 20.0818C7.61238 18.8731 7.46276 17.6139 7.46276 16.3204C7.46276 15.1183 7.59016 13.9362 7.83907 12.7877C6.1331 13.1216 4.8416 14.6273 4.8416 16.4298C4.8416 18.2517 6.16132 19.77 7.89466 20.0818ZM23.9923 46.6358C25.5364 46.6358 27.0349 46.2594 28.3744 45.5613L20.5979 39.9821C19.7797 39.3972 19.3286 38.5194 19.3286 37.5111C19.3286 36.5045 19.7792 35.6261 20.5973 35.0378L23.6494 32.8484C20.2331 32.7784 17.0681 31.6673 14.4596 29.8191V37.103C14.4596 42.3595 18.736 46.6358 23.9923 46.6358ZM30.923 43.6303C30.266 42.6481 29.7749 41.5338 29.4456 40.2811C29.4313 40.2264 29.424 40.1701 29.424 40.1136V33.8793C29.424 33.6123 29.5853 33.3715 29.8325 33.2701L33.5251 31.7544V29.8203C31.3686 31.3475 28.8321 32.3719 26.0877 32.7207L21.3658 36.1079C20.8951 36.4463 20.6459 36.9318 20.6459 37.5113C20.6459 38.091 20.8945 38.5751 21.3649 38.9114L29.5863 44.8097C30.0635 44.4615 30.5115 44.0675 30.923 43.6303ZM43.1591 34.321L36.9489 31.7728L30.7413 34.3209V40.0273C31.591 43.1654 33.6236 45.3153 36.9489 46.5913C40.2757 45.3156 42.3093 43.1658 43.1591 40.0273V34.321ZM35.6849 34.6259H38.2154C38.5791 34.6259 38.874 34.9207 38.874 35.2846V37.2525H40.8419C41.2056 37.2525 41.5005 37.5473 41.5005 37.9112V40.4443C41.5005 40.808 41.2056 41.103 40.8419 41.103H38.874V43.0708C38.874 43.4345 38.5791 43.7295 38.2154 43.7295H35.6849C35.3211 43.7295 35.0263 43.4346 35.0263 43.0708V41.103H33.0558C32.692 41.103 32.3972 40.8081 32.3972 40.4443V37.9112C32.3972 37.5474 32.692 37.2525 33.0558 37.2525H35.0263V35.2846C35.0263 34.9207 35.3211 34.6259 35.6849 34.6259ZM35.6849 38.5698H33.7144V39.7856H35.6849C36.0486 39.7856 36.3435 40.0804 36.3435 40.4443V42.4121H37.5568V40.4443C37.5568 40.0805 37.8516 39.7856 38.2154 39.7856H40.1833V38.5698H38.2154C37.8516 38.5698 37.5568 38.2749 37.5568 37.9111V35.9432H36.3435V37.9111C36.3435 38.2748 36.0486 38.5698 35.6849 38.5698Z" fill="black"/>
</svg>
