<svg width="12" height="12" viewBox="0 0 12 12" fill="none" xmlns="http://www.w3.org/2000/svg">
<g clip-path="url(#clip0_106_629)">
<path d="M10.6841 10.8758C8.84787 12.3747 3.1144 12.3747 1.31565 10.8758C-0.52056 9.37684 -0.333194 2.96884 1.31565 1.28253C2.9645 -0.403787 9.03523 -0.403787 10.6841 1.28253C12.3329 2.96884 12.5203 9.37687 10.6841 10.8758Z" fill="#B53737"/>
<g opacity="0.2">
<path d="M6.03724 8.25265C4.3884 9.56423 2.55218 10.2388 0.828402 10.2762C-0.445714 8.10275 -0.183387 2.81897 1.31556 1.28255C2.66461 -0.103965 6.89914 -0.366293 9.33494 0.495599C9.9345 2.96887 8.69788 6.11664 6.03724 8.25265Z" fill="white"/>
</g>
<path fill-rule="evenodd" clip-rule="evenodd" d="M3.14625 3.15264C3.23992 3.05891 3.36694 3.00625 3.49939 3.00625C3.63184 3.00625 3.75887 3.05891 3.85254 3.15264L5.99688 5.29914L8.14122 3.15264C8.1873 3.10489 8.24241 3.0668 8.30335 3.04059C8.3643 3.01439 8.42984 3.0006 8.49616 3.00002C8.56248 2.99944 8.62826 3.01209 8.68964 3.03723C8.75103 3.06237 8.8068 3.0995 8.8537 3.14645C8.9006 3.19339 8.93769 3.24922 8.9628 3.31067C8.98792 3.37212 9.00056 3.43796 8.99998 3.50434C8.9994 3.57073 8.98563 3.63634 8.95945 3.69735C8.93327 3.75835 8.89522 3.81352 8.84751 3.85964L6.70317 6.00614L8.84751 8.15264C8.9385 8.24695 8.98884 8.37325 8.9877 8.50434C8.98657 8.63544 8.93403 8.76085 8.84142 8.85355C8.74881 8.94626 8.62353 8.99884 8.49257 8.99998C8.3616 9.00112 8.23543 8.95072 8.14122 8.85964L5.99688 6.71314L3.85254 8.85964C3.75833 8.95072 3.63215 9.00112 3.50119 8.99998C3.37022 8.99884 3.24494 8.94626 3.15233 8.85355C3.05972 8.76085 3.00719 8.63544 3.00605 8.50434C3.00491 8.37325 3.05526 8.24695 3.14625 8.15264L5.29059 6.00614L3.14625 3.85964C3.0526 3.76588 3 3.63873 3 3.50614C3 3.37356 3.0526 3.24641 3.14625 3.15264Z" fill="white"/>
</g>
<defs>
<clipPath id="clip0_106_629">
<rect width="12" height="12" fill="white"/>
</clipPath>
</defs>
</svg>
