<svg width="31" height="27" viewBox="0 0 31 27" fill="none" xmlns="http://www.w3.org/2000/svg">
<path d="M7.43169 6.81966C7.87915 5.03104 8.91133 3.44318 10.3643 2.30822C11.8173 1.17325 13.6079 0.556248 15.4516 0.555177C17.2954 0.554107 19.0866 1.16903 20.5409 2.30231C21.9952 3.43558 23.0293 5.02225 23.4788 6.81034C25.5993 7.00935 27.5616 8.01755 28.9581 9.62554C30.3547 11.2335 31.0781 13.3177 30.9782 15.4451C30.8782 17.5726 29.9626 19.5798 28.4214 21.0497C26.8803 22.5197 24.8321 23.3395 22.7023 23.3389H19.5964C19.3219 23.3389 19.0585 23.2298 18.8644 23.0356C18.6702 22.8415 18.5611 22.5781 18.5611 22.3036C18.5611 22.029 18.6702 21.7657 18.8644 21.5715C19.0585 21.3773 19.3219 21.2683 19.5964 21.2683H22.7023C23.5181 21.2707 24.3263 21.1123 25.0809 20.8024C25.8354 20.4924 26.5215 20.0368 27.1 19.4617C28.2684 18.3002 28.9274 16.7221 28.9322 15.0746C28.937 13.4271 28.2872 11.8452 27.1257 10.6769C25.9641 9.50857 24.386 8.84951 22.7386 8.8447C22.4729 8.8647 22.2093 8.78531 21.9989 8.62194C21.7885 8.45858 21.6462 8.22287 21.5997 7.96056C21.3889 6.48222 20.6518 5.12956 19.5238 4.15101C18.3959 3.17246 16.9527 2.63371 15.4594 2.63371C13.9661 2.63371 12.5229 3.17246 11.3949 4.15101C10.2669 5.12956 9.52985 6.48222 9.31904 7.96056C9.26489 8.21376 9.12454 8.44032 8.92194 8.60157C8.71935 8.76282 8.46707 8.84875 8.20817 8.8447C6.5607 8.8447 4.98071 9.49916 3.81577 10.6641C2.65084 11.829 1.99638 13.409 1.99638 15.0565C1.99638 16.704 2.65084 18.2839 3.81577 19.4489C4.98071 20.6138 6.5607 21.2683 8.20817 21.2683H11.3141C11.5886 21.2683 11.852 21.3773 12.0461 21.5715C12.2403 21.7657 12.3494 22.029 12.3494 22.3036C12.3494 22.5781 12.2403 22.8415 12.0461 23.0356C11.852 23.2298 11.5886 23.3389 11.3141 23.3389H8.20817C6.09396 23.3167 4.06827 22.4869 2.54618 21.0194C1.02409 19.5519 0.120869 17.5578 0.0215969 15.4458C-0.0776768 13.3338 0.63452 11.2638 2.01224 9.66002C3.38996 8.0562 5.32889 7.04 7.43169 6.81966Z" fill="white"/>
<path d="M11.0107 15.7884C10.8154 15.977 10.5539 16.0814 10.2825 16.079C10.011 16.0767 9.75135 15.9678 9.5594 15.7758C9.36745 15.5839 9.25857 15.3242 9.25621 15.0527C9.25385 14.7813 9.3582 14.5198 9.54679 14.3245L14.7233 9.14803C14.9174 8.95394 15.1807 8.84491 15.4552 8.84491C15.7298 8.84491 15.993 8.95394 16.1872 9.14803L21.3637 14.3245C21.5523 14.5198 21.6566 14.7813 21.6543 15.0527C21.6519 15.3242 21.543 15.5839 21.3511 15.7758C21.1591 15.9678 20.8994 16.0767 20.628 16.079C20.3565 16.0814 20.095 15.977 19.8998 15.7884L16.4905 12.3792V25.4095C16.4905 25.684 16.3815 25.9474 16.1873 26.1415C15.9931 26.3357 15.7298 26.4447 15.4552 26.4447C15.1807 26.4447 14.9173 26.3357 14.7232 26.1415C14.529 25.9474 14.4199 25.684 14.4199 25.4095V12.3792L11.0107 15.7884Z" fill="white"/>
</svg>
