<svg width="18" height="12" viewBox="0 0 18 12" fill="none" xmlns="http://www.w3.org/2000/svg">
<path d="M16.9977 1.26216C16.7256 1.11536 16.4185 1.04623 16.1098 1.06234C15.8011 1.07844 15.5028 1.17917 15.2475 1.35348L11.9998 3.53304V1.8C11.9992 1.32278 11.8094 0.865253 11.472 0.527804C11.1345 0.190356 10.677 0.000539936 10.1998 0H1.79996C1.32275 0.000539936 0.865236 0.190356 0.527794 0.527804C0.190352 0.865253 0.000539926 1.32278 0 1.8V10.2C0.000539926 10.6772 0.190352 11.1347 0.527794 11.4722C0.865236 11.8096 1.32275 11.9995 1.79996 12H10.1998C10.677 11.9995 11.1345 11.8096 11.472 11.4722C11.8094 11.1347 11.9992 10.6772 11.9998 10.2V8.46684L15.2481 10.6465C15.5028 10.822 15.8011 10.9234 16.11 10.9396C16.4188 10.9557 16.7261 10.8859 16.9977 10.7378C17.3069 10.5661 17.5636 10.3134 17.7401 10.0069C17.9166 9.70033 18.0063 9.35151 17.9996 8.99784V3.0024C18.0064 2.64869 17.9167 2.29982 17.7401 1.99324C17.5636 1.68665 17.3069 1.43392 16.9977 1.26216ZM10.7998 10.2C10.7996 10.3591 10.7363 10.5116 10.6238 10.6241C10.5114 10.7365 10.3589 10.7998 10.1998 10.8H1.79996C1.6409 10.7998 1.4884 10.7365 1.37592 10.6241C1.26344 10.5116 1.20017 10.3591 1.19998 10.2V1.8C1.20017 1.64093 1.26344 1.48843 1.37592 1.37595C1.4884 1.26347 1.6409 1.20019 1.79996 1.2H10.1998C10.3589 1.20019 10.5114 1.26347 10.6238 1.37595C10.7363 1.48843 10.7996 1.64093 10.7998 1.8V10.2ZM16.7997 8.9976C16.8062 9.13388 16.7754 9.26935 16.7108 9.3895C16.6462 9.50966 16.5501 9.60996 16.4328 9.67968C16.3531 9.72477 16.262 9.74599 16.1705 9.7408C16.0791 9.73561 15.991 9.70423 15.9168 9.6504L11.9998 7.02192V4.97808L15.9161 2.35008C15.9908 2.29703 16.0788 2.26614 16.1703 2.26096C16.2617 2.25578 16.3527 2.27652 16.4328 2.3208C16.55 2.39048 16.6461 2.49071 16.7107 2.61077C16.7753 2.73083 16.8061 2.8662 16.7997 3.0024V8.9976Z" fill="#37B58F"/>
</svg>
